<svg width="7" height="16" viewBox="0 0 7 16" fill="none" xmlns="http://www.w3.org/2000/svg">
<path d="M5.11064 0C4.69796 0 4.30218 0.157992 4.01037 0.43922C3.71856 0.720447 3.55462 1.10187 3.55462 1.49959C3.55462 1.89731 3.71856 2.27873 4.01037 2.55996C4.30218 2.84119 4.69796 2.99918 5.11064 2.99918C5.52333 2.99918 5.91911 2.84119 6.21092 2.55996C6.50273 2.27873 6.66667 1.89731 6.66667 1.49959C6.66667 1.10187 6.50273 0.720447 6.21092 0.43922C5.91911 0.157992 5.52333 0 5.11064 0ZM4.7372 4.7687C3.50275 4.86867 0.13137 7.45796 0.13137 7.45796C-0.0760999 7.60792 -0.0138585 7.59792 0.152117 7.87785C0.318093 8.14777 0.297346 8.16777 0.494442 8.0378C0.701912 7.90784 1.04424 7.6979 1.61478 7.35799C3.81396 5.99836 1.96748 9.1375 1.02349 14.4261C0.650045 17.0453 3.09819 15.6957 3.73097 15.2958C4.35338 14.9059 6.02351 13.7962 6.18949 13.6863C6.4177 13.5363 6.25173 13.4163 6.07538 13.1664C5.9509 12.9965 5.82641 13.1164 5.82641 13.1164C5.15214 13.5463 3.91769 14.4461 3.75172 13.8762C3.55462 13.3064 4.82019 9.39743 5.51521 6.70817C5.62932 6.06834 5.94052 4.66873 4.7372 4.7687Z" fill="#6F58F4"/>
</svg>
