<svg width="129" height="136" viewBox="0 0 129 136" fill="none" xmlns="http://www.w3.org/2000/svg">
<path d="M17.2756 52.1285C17.5926 52.556 18.0664 52.8402 18.5928 52.9185C19.1193 52.9968 19.6553 52.8627 20.0829 52.5459L57.2178 25.0179C57.6454 24.7008 57.9294 24.2268 58.0075 23.7003C58.0856 23.1738 57.9513 22.6378 57.6343 22.2102C57.3172 21.784 56.844 21.5009 56.3185 21.423C55.7931 21.345 55.2581 21.4785 54.8309 21.7943L17.696 49.3222C17.2683 49.6387 16.9837 50.1121 16.9049 50.6383C16.8261 51.1645 16.9594 51.7005 17.2756 52.1285Z" fill="#FFBF00"/>
<path d="M87.6809 54.2436C87.9978 54.6712 88.4716 54.9554 88.9981 55.0337C89.5245 55.1119 90.0605 54.9779 90.4882 54.6611L127.623 27.1331C128.051 26.816 128.335 26.342 128.413 25.8155C128.491 25.289 128.357 24.753 128.04 24.3254C127.722 23.8992 127.249 23.6161 126.724 23.5381C126.198 23.4602 125.663 23.5937 125.236 23.9094L88.1013 51.4374C87.6735 51.7539 87.389 52.2273 87.3102 52.7535C87.2313 53.2797 87.3647 53.8157 87.6809 54.2436Z" fill="#6F58F4"/>
<path d="M3.67793 108.332C3.9949 108.759 4.46871 109.044 4.99516 109.122C5.52161 109.2 6.0576 109.066 6.48525 108.749L43.6202 81.2214C44.0477 80.9042 44.3317 80.4303 44.4098 79.9037C44.4879 79.3772 44.3537 78.8412 44.0366 78.4137C43.7195 77.9875 43.2464 77.7044 42.7209 77.6264C42.1954 77.5484 41.6605 77.6819 41.2333 77.9977L4.09832 105.526C3.67061 105.842 3.38606 106.316 3.30723 106.842C3.2284 107.368 3.36174 107.904 3.67793 108.332Z" fill="#6F58F4"/>
<path d="M105.682 87.4817C105.365 87.0542 104.892 86.77 104.365 86.6917C103.839 86.6134 103.303 86.7475 102.875 87.0643L65.7402 114.592C65.5284 114.749 65.3495 114.946 65.2139 115.173C65.0783 115.399 64.9886 115.649 64.9499 115.91C64.9112 116.171 64.9242 116.437 64.9883 116.693C65.0524 116.949 65.1663 117.189 65.3234 117.401C65.6405 117.828 66.1145 118.112 66.641 118.191C67.1676 118.269 67.7036 118.134 68.1311 117.817L105.266 90.2894C105.694 89.9723 105.978 89.4983 106.056 88.9718C106.134 88.4453 106 87.9093 105.682 87.4817Z" fill="#FFBF00"/>
<path d="M10.6304 120.1C10.7873 120.312 10.9844 120.491 11.2105 120.626C11.4366 120.762 11.6872 120.852 11.948 120.891C12.2088 120.929 12.4747 120.916 12.7304 120.852C12.9862 120.788 13.2269 120.675 13.4387 120.518L29.4999 108.607C29.9274 108.29 30.2114 107.816 30.2895 107.29C30.3676 106.763 30.2333 106.227 29.9163 105.799C29.5993 105.372 29.1255 105.088 28.5991 105.009C28.0726 104.931 27.5366 105.065 27.109 105.382L11.0482 117.292C10.8363 117.448 10.6574 117.646 10.5217 117.872C10.3861 118.098 10.2963 118.348 10.2575 118.609C10.2187 118.87 10.2316 119.136 10.2956 119.392C10.3596 119.647 10.4734 119.888 10.6304 120.1Z" fill="#6F58F4"/>
<path d="M90.7056 30.96C90.8625 31.1719 91.0596 31.3508 91.2857 31.4865C91.5118 31.6221 91.7624 31.7119 92.0232 31.7507C92.284 31.7895 92.5499 31.7766 92.8056 31.7126C93.0614 31.6486 93.3021 31.5348 93.5139 31.3778L109.575 19.4673C110.003 19.1502 110.287 18.6762 110.365 18.1497C110.443 17.6232 110.309 17.0872 109.991 16.6596C109.675 16.232 109.201 15.9479 108.674 15.8696C108.148 15.7913 107.612 15.9253 107.184 16.2422L91.1234 28.1517C90.9115 28.3086 90.7326 28.5058 90.5969 28.7318C90.4613 28.9579 90.3715 29.2085 90.3327 29.4693C90.2939 29.7301 90.3068 29.996 90.3708 30.2518C90.4348 30.5075 90.5486 30.7482 90.7056 30.96Z" fill="#6F58F4"/>
<path d="M9.42188 83.8397C9.57881 84.0515 9.77595 84.2304 10.002 84.3661C10.2281 84.5018 10.4787 84.5916 10.7395 84.6304C11.0003 84.6692 11.2662 84.6562 11.522 84.5922C11.7777 84.5282 12.0184 84.4145 12.2302 84.2574L28.2914 72.3469C28.7189 72.0298 29.0029 71.5559 29.081 71.0293C29.1591 70.5028 29.0248 69.9668 28.7078 69.5392C28.3908 69.1117 27.917 68.8275 27.3906 68.7492C26.8641 68.671 26.3281 68.805 25.9005 69.1218L9.83967 81.0313C9.6278 81.1883 9.44891 81.3854 9.31324 81.6115C9.17757 81.8376 9.08777 82.0882 9.04897 82.3489C9.01018 82.6097 9.02315 82.8756 9.08713 83.1314C9.15112 83.3872 9.26486 83.6279 9.42188 83.8397Z" fill="#6F58F4"/>
<path d="M97.051 64.5007C97.208 64.7126 97.4051 64.8915 97.6312 65.0272C97.8573 65.1628 98.1079 65.2526 98.3686 65.2914C98.6294 65.3302 98.8953 65.3173 99.1511 65.2533C99.4069 65.1893 99.6476 65.0755 99.8594 64.9185L115.921 53.008C116.348 52.6909 116.632 52.2169 116.71 51.6904C116.788 51.1639 116.654 50.6279 116.337 50.2003C116.02 49.7728 115.546 49.4886 115.02 49.4103C114.493 49.332 113.957 49.4661 113.53 49.7829L97.4688 61.6924C97.2569 61.8493 97.0781 62.0465 96.9424 62.2726C96.8067 62.4986 96.7169 62.7492 96.6781 63.01C96.6393 63.2708 96.6523 63.5367 96.7163 63.7925C96.7803 64.0483 96.894 64.2889 97.051 64.5007Z" fill="#6F58F4"/>
<path d="M101.126 109.727C100.809 109.3 100.335 109.016 99.808 108.938C99.2815 108.86 98.7455 108.994 98.3179 109.311L82.259 121.215C82.0471 121.372 81.8682 121.57 81.7325 121.796C81.5969 122.022 81.5071 122.272 81.4683 122.533C81.4295 122.794 81.4424 123.06 81.5064 123.316C81.5704 123.571 81.6842 123.812 81.8412 124.024C82.1583 124.451 82.6322 124.735 83.1588 124.813C83.6853 124.892 84.2213 124.757 84.6489 124.44L100.708 112.535C101.136 112.218 101.42 111.744 101.498 111.217C101.576 110.691 101.442 110.155 101.126 109.727Z" fill="#FFBF00"/>
<path d="M24.8515 25.816C25.1685 26.2425 25.6418 26.5259 26.1676 26.604C26.6933 26.682 27.2285 26.5484 27.6558 26.2323L43.7184 14.3302C44.1459 14.0131 44.43 13.5392 44.508 13.0126C44.5861 12.4861 44.4519 11.9501 44.1348 11.5225C43.8179 11.095 43.344 10.8108 42.8176 10.7325C42.2911 10.6543 41.7551 10.7883 41.3275 11.1051L25.2689 23.0087C24.8413 23.3256 24.5572 23.7995 24.4789 24.3259C24.4006 24.8524 24.5346 25.3884 24.8515 25.816Z" fill="#FFBF00"/>
<path d="M16.757 34.3822L19.2382 32.5421C19.666 32.2257 19.9507 31.7525 20.0297 31.2264C20.1087 30.7002 19.9756 30.1642 19.6596 29.7362C19.5027 29.5243 19.3055 29.3454 19.0795 29.2098C18.8534 29.0741 18.6028 28.9843 18.342 28.9455C18.0812 28.9067 17.8153 28.9197 17.5595 28.9837C17.3038 29.0476 17.0631 29.1614 16.8513 29.3184L14.3701 31.1586C13.9426 31.4757 13.6585 31.9496 13.5804 32.4762C13.5023 33.0027 13.6366 33.5387 13.9536 33.9662C14.2708 34.3924 14.7439 34.6755 15.2694 34.7535C15.7948 34.8315 16.3298 34.698 16.757 34.3822Z" fill="#FFBF00"/>
<path d="M37.8458 100.496C37.5289 100.068 37.0551 99.7838 36.5286 99.7055C36.0022 99.6272 35.4662 99.7612 35.0385 100.078L32.5573 101.918C32.1297 102.235 31.8456 102.709 31.7673 103.235C31.689 103.762 31.823 104.298 32.1399 104.726C32.4569 105.153 32.9307 105.437 33.4571 105.516C33.9836 105.594 34.5196 105.46 34.9472 105.143L37.4294 103.303C37.8569 102.986 38.141 102.512 38.2191 101.986C38.2972 101.459 38.1629 100.923 37.8458 100.496Z" fill="#6F58F4"/>
<path d="M87.9498 33.1118C87.6329 32.6842 87.1591 32.4 86.6326 32.3218C86.1062 32.2435 85.5702 32.3775 85.1425 32.6943L82.6613 34.5345C82.2337 34.8515 81.9496 35.3253 81.8713 35.8517C81.793 36.3782 81.927 36.9142 82.2439 37.3418C82.5609 37.7694 83.0347 38.0536 83.5611 38.1318C84.0876 38.2101 84.6236 38.0761 85.0512 37.7592L87.5334 35.9195C87.9609 35.6023 88.245 35.1284 88.3231 34.6018C88.4012 34.0753 88.2669 33.5393 87.9498 33.1118Z" fill="#6F58F4"/>
<path d="M6.66664 85.9914C6.34967 85.5638 5.87587 85.2796 5.34942 85.2013C4.82296 85.1231 4.28697 85.2571 3.85932 85.5739L1.37811 87.4141C0.950543 87.731 0.666375 88.2049 0.588097 88.7313C0.509819 89.2578 0.64384 89.7938 0.960686 90.2214C1.27765 90.649 1.75146 90.9331 2.27792 91.0114C2.80437 91.0897 3.34035 90.9557 3.76801 90.6388L6.25022 88.799C6.67773 88.4819 6.96177 88.008 7.03987 87.4814C7.11796 86.9549 6.98371 86.4189 6.66664 85.9914Z" fill="#6F58F4"/>
<path d="M124.815 45.1988C124.498 44.7712 124.024 44.487 123.498 44.4087C122.971 44.3305 122.435 44.4645 122.008 44.7813L119.526 46.6211C119.098 46.9382 118.814 47.4122 118.736 47.9387C118.658 48.4653 118.792 49.0012 119.109 49.4288C119.426 49.8564 119.9 50.1405 120.426 50.2188C120.953 50.2971 121.489 50.1631 121.916 49.8462L124.398 48.0061C124.825 47.6891 125.109 47.2153 125.188 46.6888C125.266 46.1624 125.132 45.6264 124.815 45.1988Z" fill="#6F58F4"/>
<path d="M74.6542 129.579C74.3372 129.152 73.8634 128.868 73.337 128.789C72.8105 128.711 72.2745 128.845 71.8469 129.162L69.3656 131.002C68.9381 131.319 68.6539 131.793 68.5757 132.319C68.4974 132.846 68.6314 133.382 68.9482 133.81C69.1052 134.021 69.3024 134.2 69.5286 134.336C69.7547 134.471 70.0054 134.561 70.2662 134.6C70.527 134.639 70.793 134.626 71.0487 134.561C71.3045 134.497 71.5452 134.383 71.7569 134.226L74.2378 132.387C74.6653 132.07 74.9493 131.596 75.0274 131.07C75.1055 130.543 74.9713 130.007 74.6542 129.579Z" fill="#FFBF00"/>
<path d="M121.231 71.9626C120.914 71.5351 120.44 71.251 119.914 71.1729C119.387 71.0948 118.851 71.2291 118.423 71.5462L115.943 73.3853C115.731 73.5422 115.552 73.7394 115.416 73.9655C115.281 74.1915 115.191 74.4421 115.152 74.7029C115.113 74.9637 115.126 75.2296 115.19 75.4854C115.254 75.7412 115.368 75.9818 115.525 76.1936C115.682 76.4055 115.879 76.5843 116.105 76.7199C116.331 76.8555 116.582 76.9453 116.843 76.984C117.104 77.0227 117.37 77.0096 117.625 76.9455C117.881 76.8814 118.122 76.7676 118.334 76.6104L120.814 74.7713C121.026 74.6143 121.205 74.4171 121.341 74.1909C121.476 73.9648 121.566 73.7141 121.605 73.4533C121.643 73.1924 121.63 72.9265 121.566 72.6708C121.502 72.415 121.388 72.1743 121.231 71.9626Z" fill="#FFBF00"/>
<path d="M96.2398 67.7178C96.0828 67.5059 95.8856 67.3271 95.6594 67.1915C95.4333 67.0559 95.1826 66.9661 94.9218 66.9274C94.661 66.8887 94.3951 66.9018 94.1393 66.9659C93.8835 67.03 93.6429 67.1438 93.4311 67.301L90.9503 69.1401C90.5227 69.4573 90.2387 69.9312 90.1606 70.4577C90.0825 70.9843 90.2168 71.5203 90.5338 71.9478C90.8508 72.3754 91.3246 72.6595 91.8511 72.7378C92.3775 72.8161 92.9135 72.6821 93.3412 72.3652L95.8224 70.5251C96.2499 70.2081 96.5341 69.7343 96.6124 69.2079C96.6907 68.6814 96.5566 68.1454 96.2398 67.7178Z" fill="#FFBF00"/>
<path d="M53.84 16.5553C53.9969 16.7671 54.1941 16.946 54.4201 17.0817C54.6462 17.2174 54.8968 17.3072 55.1576 17.346C55.4184 17.3848 55.6843 17.3718 55.94 17.3078C56.1958 17.2438 56.4365 17.1301 56.6483 16.973L68.7945 7.97329C69.222 7.65632 69.5062 7.18251 69.5845 6.65606C69.6627 6.1296 69.5287 5.59361 69.2119 5.16596C69.0549 4.95408 68.8578 4.7752 68.6317 4.63953C68.4057 4.50386 68.1551 4.41406 67.8943 4.37527C67.6335 4.33647 67.3676 4.34943 67.1118 4.41342C66.856 4.4774 66.6154 4.59115 66.4036 4.74818L54.2574 13.7479C53.8298 14.0649 53.5457 14.5387 53.4674 15.0652C53.3891 15.5916 53.5231 16.1276 53.84 16.5553Z" fill="#FFBF00"/>
<path d="M104 101.465C104.157 101.677 104.354 101.856 104.58 101.991C104.806 102.127 105.057 102.217 105.318 102.256C105.579 102.294 105.844 102.281 106.1 102.217C106.356 102.153 106.597 102.04 106.808 101.883L118.955 92.8828C119.382 92.5659 119.666 92.0921 119.745 91.5656C119.823 91.0391 119.689 90.5032 119.372 90.0755C119.215 89.8636 119.018 89.6847 118.792 89.5491C118.566 89.4134 118.315 89.3236 118.054 89.2848C117.794 89.246 117.528 89.259 117.272 89.323C117.016 89.3869 116.776 89.5007 116.564 89.6577L104.418 98.6575C103.99 98.9745 103.706 99.4483 103.628 99.9747C103.549 100.501 103.683 101.037 104 101.465Z" fill="#FFBF00"/>
<path d="M72.3427 24.9081C72.6598 25.3356 73.1338 25.6196 73.6603 25.6977C74.1868 25.7758 74.7228 25.6416 75.1504 25.3245L79.6094 22.0195C80.0369 21.7024 80.321 21.2284 80.3991 20.7019C80.4771 20.1754 80.3429 19.6394 80.0258 19.2118C79.7087 18.7843 79.2348 18.5003 78.7082 18.4222C78.1817 18.3441 77.6457 18.4783 77.2182 18.7954L72.7601 22.1007C72.3325 22.4177 72.0484 22.8915 71.9701 23.418C71.8918 23.9444 72.0258 24.4804 72.3427 24.9081Z" fill="#FFBF00"/>
<circle cx="62.8513" cy="69.2247" r="40.4907" fill="#6F58F4"/>
<path d="M82.4067 78.2651V78.9735C82.2656 79.0444 82.3359 79.1855 82.3359 79.2564C82.2656 80.5277 81.9125 81.6573 81.2765 82.7875C80.288 84.4823 78.8047 85.6125 77.11 86.5307C75.4855 87.378 73.7199 87.9431 71.9543 88.3666C70.1888 88.7197 68.4935 89.0025 66.7279 89.1436C66.1633 89.2145 65.5982 89.1436 65.0331 89.2848C64.892 89.2848 64.7509 89.3556 64.7509 89.4967C64.7509 90.6269 64.7509 91.8274 64.8212 92.9571H60.7958C60.8666 91.7582 60.8666 90.6269 60.8666 89.4259C60.8666 89.2145 60.7249 89.1436 60.5135 89.1436C58.677 88.9317 56.9823 88.5785 55.287 88.0134C52.4082 87.1038 49.6911 85.7453 47.2362 83.988C47.095 83.776 46.8831 83.776 46.6002 83.776C45.4706 83.9172 44.3404 83.988 43.2102 84.1292V83.9172C43.3519 83.8469 43.3519 83.776 43.3519 83.6349C44.4815 80.4568 45.5409 77.3496 46.6002 74.1716C47.0242 73.0414 46.7419 73.2534 47.9424 73.2534C48.2247 73.1825 48.3658 73.3237 48.3658 73.6065C48.3658 74.0299 48.5075 74.5247 48.7189 74.9481C49.2126 76.4314 50.1314 77.6303 51.1199 78.8291C52.5324 80.3124 54.086 81.6541 55.8516 82.7134C57.264 83.5608 58.7473 84.2676 60.3712 84.7618C60.7952 84.903 60.866 84.8321 60.866 84.479V73.9574C60.866 73.6746 60.7244 73.6043 60.5129 73.5335C59.877 73.3215 59.2416 73.0392 58.6057 72.8251C56.9818 72.26 55.3573 71.6954 53.874 70.9178C52.1084 70.0704 50.4137 69.1522 48.9304 67.8117C47.7315 66.8226 46.7414 65.7633 46.0346 64.4216C45.0461 62.4441 44.693 60.4665 44.9752 58.2775C45.1169 56.7234 45.7523 55.3109 46.8117 54.1104C48.083 52.6271 49.7074 51.6386 51.4022 50.9324C53.5209 50.085 55.6396 49.5907 57.8291 49.3079C58.7473 49.1668 59.665 49.0959 60.5129 49.0256C60.7244 49.0256 60.866 49.0256 60.866 48.8137C60.866 47.6835 60.866 46.5538 60.7952 45.3533H64.8206C64.7503 46.5522 64.7503 47.6835 64.7503 48.8137C64.7503 48.9548 64.8915 49.0256 65.0326 49.0256C65.4566 49.0959 65.9508 49.1668 66.3742 49.1668C67.9987 49.3079 69.5523 49.5907 71.1064 49.9439C73.2954 50.5084 75.4114 51.2855 77.4625 52.1328C77.8859 52.3448 78.3099 52.6271 78.8042 52.5568C79.7932 52.486 80.8526 52.3448 81.8411 52.2037C82.1942 52.2037 82.265 52.274 82.1233 52.6271L79.3693 60.2562C79.0161 61.1744 79.087 61.1744 78.0276 61.1744C77.7448 61.1744 77.6037 61.1041 77.4625 60.8921C76.5731 59.5932 75.503 58.4279 74.2845 57.4312C72.5224 56.0158 70.5429 54.8949 68.4226 54.1121C67.3508 53.6761 66.2392 53.345 65.1034 53.1235C64.8206 53.1235 64.7503 53.1938 64.7503 53.4058V62.728C64.7503 63.2228 64.7503 63.2228 65.2446 63.4364C66.6357 63.8568 68.0031 64.352 69.3408 64.9197C71.7418 65.8379 74.0725 66.8973 76.2615 68.3097C78.4505 69.7925 80.2869 71.5581 81.4166 74.0315C81.9622 75.2577 82.2736 76.5751 82.3348 77.9158C82.3359 78.0537 82.2656 78.1948 82.4067 78.2651ZM48.2247 59.1968C48.2621 59.1968 48.298 59.182 48.3245 59.1555C48.351 59.129 48.3658 59.0931 48.3658 59.0557C48.3658 59.0183 48.351 58.9824 48.3245 58.9559C48.298 58.9294 48.2621 58.9145 48.2247 58.9145C48.0835 58.9145 48.0835 58.9854 48.0835 59.0557C48.0861 59.0923 48.1018 59.1267 48.1277 59.1527C48.1536 59.1786 48.1881 59.1943 48.2247 59.1968ZM48.3658 57.2896C48.4367 57.2896 48.5075 57.2896 48.5075 57.2187C48.5075 57.0776 48.3658 57.0776 48.2955 57.0776C48.2252 57.0776 48.1544 57.0776 48.1544 57.1484C48.1544 57.2901 48.2955 57.2901 48.3658 57.2901V57.2896ZM48.2955 61.9509C48.3658 61.9509 48.4367 61.9509 48.4367 61.8801C48.4368 61.8708 48.4351 61.8615 48.4316 61.8529C48.428 61.8442 48.4228 61.8364 48.4162 61.8298C48.4096 61.8233 48.4017 61.8181 48.3931 61.8147C48.3844 61.8112 48.3751 61.8096 48.3658 61.8098C48.2955 61.8098 48.2247 61.8098 48.2247 61.8801C48.2247 61.9504 48.2247 61.9515 48.2955 61.9515V61.9509ZM49.4944 59.8322C49.4944 59.6909 49.4237 59.6202 49.2824 59.6202C49.1411 59.6202 49.0704 59.6909 49.0704 59.8322C49.0704 59.9732 49.1411 60.0438 49.2824 60.0442C49.3377 60.0412 49.39 60.0181 49.4294 59.9791C49.4688 59.9401 49.4925 59.888 49.496 59.8328L49.4944 59.8322ZM49.7064 57.9958C49.7049 58.0686 49.724 58.1404 49.7615 58.2028C49.799 58.2653 49.8534 58.3159 49.9183 58.3489C49.9886 58.3489 49.9886 58.4197 50.0595 58.3489C50.1298 58.2078 50.0595 58.1369 50.0595 57.9958V57.9255C49.9886 57.8547 49.9886 57.7135 49.8475 57.7135C49.708 57.7844 49.708 57.8552 49.708 57.9963L49.7064 57.9958ZM49.9886 59.4791C50.0595 59.4083 50.1298 59.4083 50.1298 59.338C50.1298 59.2677 50.0595 59.2671 49.9886 59.2671C49.9178 59.2671 49.9183 59.338 49.9183 59.4083C49.9183 59.4785 49.9211 59.4796 49.9903 59.4796L49.9886 59.4791ZM50.2006 62.304C50.164 62.3065 50.1295 62.3221 50.1035 62.3481C50.0776 62.374 50.0619 62.4085 50.0595 62.4452C50.0595 62.5863 50.0595 62.6571 50.2006 62.6571C50.2715 62.7274 50.3417 62.6572 50.3417 62.5863C50.3434 62.4457 50.2731 62.3749 50.2022 62.3046L50.2006 62.304ZM50.4829 66.9648C50.4829 66.8945 50.4829 66.7534 50.3417 66.8237C50.2006 66.8237 50.2006 66.8945 50.2006 67.0357C50.2032 67.0723 50.2188 67.1067 50.2448 67.1327C50.2707 67.1586 50.3052 67.1743 50.3417 67.1768C50.4845 67.1774 50.4845 67.1071 50.4845 66.9654L50.4829 66.9648ZM50.2715 63.4337C50.4126 63.6457 50.4829 63.9988 50.6246 64.2816C50.6246 64.3519 50.7657 64.3519 50.836 64.3519C50.9866 64.2724 51.1097 64.1494 51.1891 63.9988C51.26 63.8576 51.1891 63.7165 51.048 63.5754C50.9777 63.4337 50.836 63.3634 50.6949 63.2222C50.6246 63.1514 50.5537 63.0103 50.4126 63.0806C50.2715 63.1509 50.2731 63.2931 50.2731 63.4342L50.2715 63.4337ZM50.7657 59.338C50.7657 59.4791 50.836 59.5494 50.9777 59.5494C51.048 59.6202 51.048 59.5494 51.048 59.4791C51.048 59.338 50.9777 59.2671 50.836 59.2671C50.8376 59.1968 50.7673 59.266 50.7673 59.3385L50.7657 59.338ZM51.3308 60.6087H51.4011C51.8251 60.6796 52.1095 60.3973 52.3902 60.1853C52.5313 59.9734 52.1782 59.9025 52.1782 59.6911V59.4791C52.1073 59.4083 52.1073 59.2671 51.8954 59.2671C51.7542 59.338 51.7542 59.4083 51.7542 59.5494V59.8322C51.8251 60.0442 51.7542 60.1853 51.4719 60.1853C51.3308 60.2556 51.1891 60.2556 51.048 60.2556C50.9068 60.3265 50.7657 60.3265 50.7657 60.4676C50.7657 60.6087 50.9777 60.6087 51.048 60.6087H51.3308ZM51.1891 57.9931C51.1891 57.9228 51.1891 57.8519 51.048 57.8519C50.9777 57.8519 50.9068 57.8519 50.9068 57.9931C50.9068 58.0639 50.9777 58.0639 51.048 58.1342C51.0844 58.1322 51.1189 58.1172 51.1451 58.0919C51.1713 58.0666 51.1875 58.0326 51.1908 57.9963L51.1891 57.9931ZM51.048 56.7942C51.1188 56.7942 51.1891 56.7942 51.1891 56.7234C51.1891 56.6525 51.1891 56.5822 51.1188 56.5822C51.0653 56.5896 51.0156 56.6145 50.9777 56.6531C50.9793 56.725 50.9793 56.7958 51.0496 56.7958L51.048 56.7942ZM51.048 61.7378C50.9777 61.879 51.048 62.0201 51.1891 61.9498C51.3308 61.9498 51.4719 61.879 51.4011 61.7378C51.4011 61.5967 51.3308 61.4556 51.4719 61.3139C51.5422 61.2436 51.6839 61.1727 51.5422 61.1024C51.4719 61.0316 51.4011 61.1024 51.3308 61.1024C51.0496 61.3155 51.1199 61.5275 51.0496 61.7395L51.048 61.7378ZM51.1188 64.844C51.1188 64.9856 51.1188 65.1268 51.26 65.1268C51.4011 65.1268 51.4011 65.0559 51.4011 64.9148C51.4011 64.7737 51.4011 64.6325 51.26 64.6325C51.0496 64.5644 51.1199 64.7764 51.1199 64.8467L51.1188 64.844ZM51.4011 57.4994C51.4739 57.5007 51.5456 57.4815 51.6081 57.444C51.6705 57.4065 51.7211 57.3522 51.7542 57.2874C51.7542 57.1462 51.6131 57.0754 51.5422 57.1462C51.4011 57.1462 51.1891 57.1462 51.1188 57.3582C51.1199 57.5021 51.2616 57.5021 51.4027 57.5021L51.4011 57.4994ZM54.5791 60.9597C54.5089 61.1717 54.5089 61.3836 54.2969 61.4545C54.0141 61.7368 53.8026 62.019 53.7318 62.443C53.7318 62.5841 53.5906 62.655 53.4495 62.5841C53.3084 62.5133 53.0964 62.443 52.9547 62.3721C52.7433 62.231 52.7433 62.019 52.9547 61.8779C53.0964 61.8076 53.3078 61.7368 53.4495 61.7368C53.5906 61.6659 53.7318 61.5956 53.6609 61.3836C53.5901 61.1717 53.5906 60.9597 53.3078 60.8894H53.2375C53.0964 61.1717 52.8844 61.1717 52.6016 61.2425C52.5313 61.2425 52.5313 61.3128 52.4604 61.3836C52.3902 61.5956 52.3193 61.5956 52.1073 61.4545C52.037 61.4545 51.9662 61.3836 51.8954 61.4545C51.8245 61.5253 51.8954 61.5956 51.9662 61.6659C52.037 61.8076 52.037 61.8779 51.8954 62.019C51.7542 62.231 51.6839 62.3721 51.5422 62.5841C51.3308 62.7253 51.3308 62.9372 51.4011 63.1492C51.4719 63.2201 51.4719 63.2904 51.6131 63.2904C51.6839 63.2201 51.6839 63.2201 51.6839 63.1492C51.6839 62.8669 51.8954 62.7253 52.037 62.5841C52.1073 62.5138 52.2485 62.231 52.3902 62.443C52.5318 62.655 52.8844 62.7961 52.6016 63.0784C52.3902 63.2904 52.2485 63.4315 52.1073 63.6435C52.037 63.6435 52.037 63.7846 52.037 63.8555H52.2485C52.6724 63.7846 52.7433 63.8555 52.7433 64.2794C52.7433 64.4908 52.6724 64.6325 52.9547 64.7737C53.0255 64.844 53.0964 64.9148 53.0255 65.0559C52.9547 65.1268 52.8844 65.1268 52.7433 65.1268C52.5313 64.9856 52.2485 65.1268 52.0349 65.1971C51.9699 65.2301 51.9156 65.2807 51.8781 65.3432C51.8407 65.4056 51.8215 65.4774 51.8229 65.5502C51.8229 65.6919 51.8932 65.833 52.0349 65.833C52.176 65.9033 52.2463 65.833 52.3171 65.6919C52.4583 65.5502 52.5291 65.4799 52.6702 65.5502C52.9525 65.621 53.2353 65.7622 53.5176 65.9033C53.5825 65.9364 53.6367 65.9871 53.6742 66.0495C53.7116 66.1119 53.7308 66.1836 53.7296 66.2564C53.8004 66.7512 53.8707 67.3158 54.1536 67.8106C54.1536 67.8809 54.1536 68.022 54.2947 68.022C54.365 68.022 54.4358 67.9517 54.5067 67.8809C54.5067 67.8106 54.577 67.7397 54.577 67.6689C54.6101 67.6041 54.6608 67.55 54.7232 67.5126C54.7857 67.4752 54.8573 67.4561 54.9301 67.4575C55.0712 67.4575 55.0712 67.5986 55.1421 67.7397C55.1421 67.8809 55.2129 68.0929 55.4243 68.0929C55.6358 68.0929 55.7775 67.8809 55.7775 67.6689C55.9103 67.1268 55.8607 66.556 55.6363 66.045C55.354 65.4799 55.354 65.0559 55.8483 64.6325C56.0603 64.4908 56.0603 64.2794 55.9894 63.9966C55.9869 63.96 55.9712 63.9256 55.9453 63.8996C55.9193 63.8737 55.8849 63.858 55.8483 63.8555C55.7072 63.8555 55.7072 63.9966 55.7072 64.0674V64.2086C55.7072 64.3497 55.7072 64.4206 55.6363 64.4908C55.4952 64.4908 55.354 64.5617 55.2129 64.4205C55.1421 64.3497 55.1421 64.2794 55.2129 64.1377C55.2832 64.0674 55.354 63.9966 55.2832 63.9966C55.1421 63.7846 55.1421 63.5023 54.9301 63.3612C54.6478 63.1492 54.1536 63.0784 54.365 62.5138L54.2947 62.443C54.0827 62.1607 54.2239 61.9487 54.4358 61.7346C54.6478 61.5204 54.7219 61.2452 54.5808 60.9624L54.5791 60.9597ZM51.6131 66.2564C51.6039 66.247 51.593 66.2394 51.5808 66.2343C51.5687 66.2291 51.5557 66.2265 51.5425 66.2265C51.5293 66.2265 51.5163 66.2291 51.5042 66.2343C51.492 66.2394 51.4811 66.247 51.4719 66.2564C51.4626 66.2562 51.4533 66.2579 51.4446 66.2614C51.4359 66.2648 51.428 66.2701 51.4213 66.2767C51.4147 66.2833 51.4095 66.2912 51.406 66.2999C51.4026 66.3086 51.4009 66.3179 51.4011 66.3273C51.4719 66.3981 51.4719 66.3981 51.5422 66.3981C51.6125 66.3981 51.6147 66.33 51.6147 66.2592L51.6131 66.2564ZM51.9662 67.5986C51.8251 67.6689 51.8251 67.7397 51.8251 67.8809C51.8251 68.022 51.8954 68.1637 52.037 68.1637C52.1787 68.1637 52.1782 68.0929 52.1782 67.9517C52.1787 67.8799 52.1594 67.8093 52.1222 67.7479C52.0851 67.6864 52.0316 67.6364 51.9678 67.6035L51.9662 67.5986ZM52.8844 56.9343C52.8136 56.7931 52.8136 56.5811 52.6016 56.5811C52.4604 56.5103 52.3902 56.652 52.3902 56.7931C52.3902 57.0051 52.5313 57.0754 52.6724 57.0754C52.8152 57.149 52.8152 57.0781 52.886 56.937L52.8844 56.9343ZM52.8844 63.4315C52.8844 63.6435 53.0255 63.7143 53.1667 63.7846H53.3787C53.5198 63.8555 53.6609 63.9263 53.6609 64.0674C53.6609 64.6325 54.0849 64.9856 54.1557 65.5502C54.1557 65.7622 54.3672 65.833 54.5089 65.6919L54.9323 64.844C55.0031 64.6325 54.7203 64.5617 54.7203 64.4205C54.5089 63.7121 53.8026 63.6435 53.3787 63.2217C53.3787 63.1509 53.3078 63.2217 53.3078 63.1509C53.1683 63.2228 52.9563 63.2228 52.886 63.4342L52.8844 63.4315ZM53.5198 68.022C53.4495 67.8809 53.3787 67.7397 53.1667 67.6689C53.0255 67.5986 53.0255 67.7397 53.0255 67.8106C53.0255 68.022 53.0964 68.1637 53.3078 68.234C53.4511 68.2367 53.5214 68.1664 53.5214 68.0247L53.5198 68.022ZM54.7911 61.8098C54.7203 61.8098 54.65 61.8098 54.7203 61.8801C54.7203 61.9509 54.7911 61.9509 54.862 62.0212C54.8986 62.0187 54.933 62.003 54.9589 61.977C54.9849 61.9511 55.0006 61.9167 55.0031 61.8801C55.0047 61.8103 54.8636 61.8103 54.7928 61.8103L54.7911 61.8098ZM60.865 57.4307V53.4761C60.865 52.9813 60.7941 52.911 60.2999 53.0522C60.1089 53.0448 59.918 53.0687 59.7348 53.123C58.3223 53.4053 56.9807 53.8314 55.9916 54.9589C54.862 56.2302 54.5792 58.3489 56.3447 59.6202C57.6161 60.5384 59.0285 61.1738 60.441 61.6681C60.7941 61.8801 60.865 61.8098 60.865 61.3858V57.4307ZM55.5682 61.6681C55.6048 61.6655 55.6392 61.6499 55.6652 61.6239C55.6911 61.598 55.7068 61.5635 55.7093 61.527C55.7093 61.4567 55.7093 61.3858 55.5682 61.3858C55.5308 61.3858 55.4949 61.4007 55.4684 61.4272C55.4419 61.4536 55.4271 61.4895 55.4271 61.527C55.4271 61.5644 55.4419 61.6003 55.4684 61.6268C55.4949 61.6532 55.5308 61.6681 55.5682 61.6681ZM56.6276 62.6571H56.5567C56.3447 62.9394 56.1328 63.0103 55.8483 63.0103C55.6363 63.0806 55.6363 63.2222 55.7072 63.3634C55.778 63.5045 55.9894 63.5754 56.0603 63.4337C56.2014 63.1514 56.4837 63.1514 56.6957 63.1514C56.8368 63.1514 56.9785 63.1514 56.9785 62.9394C56.9115 62.7988 56.7703 62.6577 56.6292 62.6577L56.6276 62.6571ZM56.2744 65.3409C55.9916 65.3409 55.9213 65.3409 55.9213 65.4821C56.0625 65.6941 56.0625 65.9763 56.1328 66.1905C56.2036 66.3316 56.3447 66.4728 56.5567 66.4025C56.6979 66.4025 56.839 66.2608 56.9098 66.1197C56.9823 65.7649 56.6292 65.3415 56.2761 65.3415L56.2744 65.3409ZM55.9916 68.4471C56.1328 68.5179 56.2744 68.5179 56.2744 68.7293C56.3447 69.0122 56.5567 69.2241 56.6979 69.5064C56.7687 69.5773 56.839 69.7887 56.9807 69.6476C57.1218 69.5773 57.051 69.4356 57.051 69.3653C56.9807 69.1533 56.839 69.0122 56.839 68.8002C56.7687 68.2351 56.6978 68.2351 56.2744 68.3059C56.1333 68.3779 56.0641 68.3076 55.9933 68.4487L55.9916 68.4471ZM56.2744 70.2126C56.2744 70.1418 56.2744 70.0715 56.2036 70.0715C56.1662 70.0715 56.1303 70.0864 56.1038 70.1128C56.0773 70.1393 56.0625 70.1752 56.0625 70.2126C56.0625 70.2501 56.0773 70.286 56.1038 70.3124C56.1303 70.3389 56.1662 70.3538 56.2036 70.3538C56.2761 70.3554 56.2761 70.2851 56.2761 70.2143L56.2744 70.2126ZM57.8983 66.7523C57.8983 66.2575 57.6869 66.1164 57.4041 66.2575C57.1213 66.3987 56.839 66.6815 56.5567 66.8935C56.4156 67.0346 56.4156 67.1757 56.6276 67.1757C56.9098 67.2466 57.1218 67.3877 57.2629 67.67C57.3338 67.8117 57.4749 67.882 57.5452 67.882C57.828 67.9528 57.9692 68.1648 58.1103 68.4471C58.2515 68.8002 58.3223 69.1555 58.6754 69.2944C58.7463 69.3653 58.8166 69.4356 58.8166 69.5064C58.8874 69.8595 59.2405 70.1418 59.5936 70.0715C59.7348 70.0715 59.8759 70.0007 59.8759 69.8595C59.9467 69.6476 59.7348 69.5773 59.5936 69.6476C59.2405 69.6476 59.0285 69.4356 58.8852 69.1533C58.7419 68.871 58.6024 68.5179 58.6732 68.1648C58.6732 67.9528 58.6732 67.8117 58.4613 67.7408C57.9708 67.5305 57.5469 67.3185 57.9 66.754L57.8983 66.7523ZM56.7687 64.4216C56.6979 64.7039 57.051 64.9867 57.1218 65.3399C57.1218 65.4101 57.1921 65.4101 57.2629 65.4101C57.4041 65.4101 57.4041 65.3399 57.4041 65.1982C57.3338 64.7748 57.6161 64.4898 57.7572 64.1388C57.828 64.0685 57.9692 63.9977 57.8983 63.8565C57.7572 63.7154 57.6869 63.5034 57.4041 63.5743C56.9819 63.6448 56.7707 63.9277 56.7703 64.4233L56.7687 64.4216ZM57.4041 66.8226C57.3675 66.8252 57.3331 66.8408 57.3071 66.8668C57.2812 66.8927 57.2655 66.9272 57.2629 66.9638C57.2629 67.0346 57.2629 67.0346 57.3338 67.0346C57.4046 67.0346 57.4749 67.0346 57.4749 66.9638C57.4749 66.8929 57.4766 66.8242 57.4057 66.8242L57.4041 66.8226ZM58.3223 66.2575V66.5403C58.3223 67.0346 58.4634 67.1054 58.9577 67.0346C59.0285 67.0346 59.1697 67.0346 59.2405 67.1054C59.3816 67.1757 59.5228 67.2466 59.5936 67.1054C59.6645 66.9643 59.5936 66.8226 59.4525 66.7523C59.3262 66.6966 59.2254 66.5957 59.1697 66.4695C59.0285 66.3284 58.7463 66.2575 58.7463 66.0461C58.7463 65.693 59.0285 65.693 59.2405 65.5513C59.5228 65.3399 59.5228 65.1281 59.2405 64.9159C59.0994 64.8451 59.0285 64.7748 59.0994 64.7039C59.2405 64.4216 59.2405 64.2097 59.0994 63.9955C59.0285 63.9252 58.8874 63.7835 58.7463 63.8544C58.6051 63.9252 58.6754 64.0663 58.6754 64.1366C58.6754 64.3486 58.6754 64.4898 58.4634 64.3486C58.2515 64.2075 58.1103 64.2783 57.9692 64.4898C57.9666 64.6207 57.9164 64.7462 57.828 64.8429C57.7572 65.0549 57.6161 65.2668 57.828 65.408C58.04 65.4788 58.1812 65.3377 58.3223 65.196V65.1257C58.3931 64.9846 58.4634 64.9137 58.6046 64.9846C58.692 65.0648 58.7639 65.1605 58.8166 65.2668C58.8166 65.408 58.7463 65.408 58.6046 65.4788C58.4634 65.4788 58.3223 65.6199 58.3223 65.8319V66.2575ZM58.5343 69.7887C58.5309 69.7336 58.5075 69.6817 58.4684 69.6427C58.4294 69.6038 58.3774 69.5805 58.3223 69.5773C58.1812 69.5773 58.1103 69.7184 58.1103 69.8595C58.1103 70.0007 58.1812 70.0715 58.3223 70.0715C58.4634 70.0715 58.5359 70.0012 58.5359 69.7903L58.5343 69.7887ZM58.8166 63.3623C59.0285 63.3623 59.1697 63.3623 59.1697 63.1503C59.1725 63.1032 59.1654 63.056 59.1486 63.0119C59.1319 62.9677 59.106 62.9276 59.0726 62.8943C59.0392 62.8609 58.9991 62.835 58.955 62.8182C58.9109 62.8015 58.8637 62.7943 58.8166 62.7972C58.6754 62.7972 58.5343 62.9383 58.4634 63.1503C58.4651 63.2931 58.677 63.3639 58.8182 63.3639L58.8166 63.3623ZM59.4525 70.9189C59.2405 70.9189 59.1697 70.9189 59.0994 71.06C59.0994 71.1309 59.0285 71.2012 59.0994 71.272C59.2405 71.3428 59.3108 71.2012 59.3816 71.2012L59.4525 71.1309C59.5228 71.1309 59.7348 71.1309 59.6639 70.9897C59.6656 70.8497 59.5244 70.9205 59.4541 70.9205L59.4525 70.9189ZM60.441 67.8128C60.4504 67.813 60.4597 67.8113 60.4684 67.8078C60.4771 67.8043 60.485 67.7991 60.4916 67.7925C60.4982 67.7859 60.5034 67.778 60.5069 67.7693C60.5104 67.7606 60.5121 67.7513 60.5118 67.7419C60.653 67.6711 60.7941 67.5299 61.0061 67.6711C61.0764 67.7419 61.1472 67.8128 61.1472 67.9539C61.0764 68.1659 61.0061 68.307 60.7233 68.3773C60.5821 68.3773 60.441 68.3773 60.3702 68.519C60.229 68.6601 60.1587 68.5893 60.0879 68.4482C59.9467 68.0242 59.9467 68.0242 59.5936 68.307C59.4824 68.4101 59.3871 68.5291 59.3108 68.6601C59.0285 69.0132 59.0994 69.2955 59.5936 69.3685C60.1587 69.4388 60.653 69.5805 60.7925 70.2159C60.8633 70.357 60.9336 70.4279 61.0748 70.3571C61.2164 70.3571 61.2867 70.2868 61.2867 70.1451C61.3216 70.08 61.3398 70.0072 61.3398 69.9334C61.3398 69.8595 61.3216 69.7868 61.2867 69.7217C61.0748 69.5097 61.1456 69.2977 61.4279 69.2274C61.4987 69.1566 61.5696 69.1566 61.5696 69.0857C61.781 68.8743 61.993 68.8743 62.2049 68.9446C62.3461 69.0857 62.5581 69.0857 62.8403 69.0857C62.982 69.0857 63.1935 69.0857 63.1935 68.8743C63.1935 68.6629 62.982 68.3092 62.77 68.3092C62.5581 68.3092 62.5581 68.2384 62.6992 68.0972C62.77 67.9561 62.77 67.8852 62.6992 67.8149C62.4872 67.5321 62.6289 67.391 62.9112 67.2498L63.2643 66.8967C63.5466 66.6847 63.5466 66.5436 63.2643 66.2608C63.1232 66.1905 62.8403 66.0494 62.77 65.8374C62.5581 65.4134 62.1341 65.2723 61.7107 65.2014C61.1456 65.1311 61.0023 65.2014 61.0023 65.7665V65.9785C61.0023 66.1905 61.0726 66.4025 60.7903 66.4025C60.5783 66.4025 60.3663 66.2608 60.3663 66.0494C60.3663 65.9077 60.296 65.7665 60.2252 65.6254C60.0841 65.5546 60.0132 65.5546 59.8721 65.6254C59.7309 65.6962 59.8018 65.8374 59.8721 65.9077C60.0841 66.0494 60.0132 66.1905 59.8721 66.3316C59.7309 66.4728 59.7309 66.5436 59.8721 66.6847C60.1604 66.9654 60.2306 67.3893 60.4426 67.8133L60.441 67.8128ZM60.9353 64.2108C60.9353 63.9285 60.7941 63.8576 60.5821 63.7165C60.1587 63.5754 60.0879 63.6457 59.9467 63.9988C59.8056 64.2108 59.8759 64.3519 60.017 64.493C60.2097 64.7443 60.4849 64.9196 60.7941 64.9878C60.9353 64.9878 61.0764 64.9878 61.0061 64.8461C60.9369 64.6353 60.8666 64.4233 60.9369 64.2113L60.9353 64.2108ZM61.7123 71.5554C61.709 71.5003 61.6855 71.4484 61.6465 71.4094C61.6074 71.3705 61.5554 71.3472 61.5003 71.3439C61.4295 71.2731 61.2884 71.2731 61.2181 71.4142C61.1472 71.6262 61.1472 71.8382 61.0764 72.0502C61.0764 72.1205 61.1472 72.1205 61.2181 72.1205C61.3608 72.121 61.714 71.7679 61.714 71.5559L61.7123 71.5554ZM61.3592 63.4359C61.3208 63.4311 61.2819 63.435 61.2452 63.4473C61.2085 63.4595 61.175 63.4798 61.1472 63.5067C61.1472 63.6478 61.2884 63.6478 61.3592 63.6478C61.4301 63.6478 61.5003 63.6478 61.5003 63.5067C61.502 63.4342 61.4311 63.4342 61.3608 63.4342L61.3592 63.4359ZM61.2181 67.0379C61.2884 67.391 61.5003 67.7463 61.6415 68.0264C61.6415 68.1681 61.7123 68.1681 61.8535 68.1681C61.8901 68.1655 61.9247 68.1497 61.9506 68.1237C61.9766 68.0976 61.9922 68.0631 61.9946 68.0264C61.9946 67.8149 61.9946 67.603 62.0654 67.4618C62.1357 67.0379 61.8535 66.6847 61.4295 66.7534C61.2197 66.754 61.2197 66.8242 61.2197 67.0362L61.2181 67.0379ZM61.7123 61.9531C61.7049 61.8995 61.68 61.8499 61.6415 61.812C61.5003 61.812 61.5003 61.8823 61.5003 61.9531C61.5003 62.0239 61.5003 62.0942 61.5712 62.0942C61.6083 62.092 61.6434 62.0763 61.6697 62.05C61.696 62.0237 61.7118 61.9886 61.714 61.9515L61.7123 61.9531ZM61.9946 69.7217C62.1357 69.7217 62.3477 69.7217 62.2774 69.5097C62.2774 69.3685 62.1357 69.3685 61.9946 69.3685C61.8535 69.3685 61.6415 69.3685 61.6415 69.5097C61.6431 69.72 61.8551 69.72 61.9962 69.72L61.9946 69.7217ZM62.9837 70.6399C62.9837 70.569 62.9837 70.569 62.9128 70.4982C62.7717 70.3571 62.2774 70.4279 62.1357 70.6399C62.1357 70.7102 62.0654 70.8513 61.9243 70.9222C61.7832 70.993 61.7123 71.0633 61.8535 71.2044C61.9243 71.2753 61.9946 71.2753 62.1357 71.1341C62.2774 70.9222 62.4889 70.9221 62.7717 70.8513C62.9141 70.8502 62.9853 70.7792 62.9853 70.6382L62.9837 70.6399ZM62.5597 71.7695C62.5597 71.6284 62.5597 71.4872 62.4186 71.4872C62.2774 71.4164 62.2066 71.4872 62.2066 71.5575C62.0654 71.7695 61.9243 71.9815 61.8535 72.1935C61.7826 72.3346 61.7826 72.4055 61.8535 72.4758C61.9946 72.5466 62.0654 72.4758 62.1357 72.4758C62.3494 72.2621 62.4905 72.0507 62.5635 71.7679L62.5597 71.7695ZM62.9837 66.7561C62.9837 66.6144 62.842 66.6145 62.7717 66.6145C62.6305 66.6145 62.4889 66.6144 62.4889 66.7561C62.4889 66.8978 62.6305 66.9676 62.7717 66.9676C62.8436 66.9654 62.9853 66.9654 62.9853 66.754L62.9837 66.7561ZM62.5597 63.9312C62.5648 63.9854 62.5901 64.0358 62.6305 64.0723C62.7717 64.0723 62.7717 64.0015 62.7717 63.9312C62.7717 63.8609 62.7717 63.7895 62.7008 63.7895C62.5635 63.789 62.5635 63.8582 62.5635 63.929L62.5597 63.9312ZM62.9128 64.4255C62.5597 64.4958 62.7008 64.7786 62.7008 65.0608C62.7008 65.2728 62.842 65.4848 63.1248 65.414C63.3368 65.414 63.4779 65.4848 63.5482 65.6968C63.6185 65.9088 63.7602 65.9082 63.9013 65.8379L64.1133 65.6259C64.1841 65.4848 64.3253 65.414 64.2544 65.2728C64.1133 65.1317 64.043 65.202 63.9013 65.2728C63.831 65.2728 63.7602 65.3437 63.6899 65.2728C63.5482 65.202 63.6191 65.0609 63.6899 64.9906C63.7602 64.7077 63.619 64.6374 63.3368 64.7077C63.0545 64.778 62.9128 64.7077 62.9128 64.3546H63.1248C63.1951 64.3546 63.2659 64.2135 63.2659 64.1426C63.1951 64.0723 63.1951 64.0723 63.1951 64.0015C63.14 64.0048 63.088 64.0281 63.049 64.0672C63.01 64.1063 62.9868 64.1584 62.9837 64.2135C62.9883 64.2514 62.9845 64.2898 62.9725 64.3261C62.9605 64.3624 62.9407 64.3956 62.9144 64.4233L62.9128 64.4255ZM69.2689 68.1686C69.1981 67.6035 68.9158 67.1795 68.6335 66.6853C68.5627 66.6853 68.4918 66.6145 68.4918 66.6853C68.4215 66.6853 68.3507 66.7561 68.4215 66.8264C68.4918 67.0384 68.4918 67.2504 68.6335 67.3915C68.845 67.7446 68.7747 68.0999 68.7038 68.4509C68.6335 68.592 68.5627 68.7332 68.4215 68.7332C68.2096 68.7332 68.2096 68.5217 68.2096 68.38C68.2096 67.9566 67.9273 67.6716 67.5012 67.6716C67.148 67.6716 66.8658 67.7425 66.5829 67.7425C66.2298 67.7425 65.8745 67.7425 65.7356 67.3185C65.7356 67.2482 65.6647 67.1071 65.5236 67.1774C65.1705 67.2482 65.1002 67.1071 65.0293 66.754C65.0293 66.6831 65.0293 66.6123 64.8882 66.6123C64.8515 66.6148 64.817 66.6306 64.7911 66.6566C64.7651 66.6827 64.7495 66.7173 64.7471 66.754C64.7085 66.7919 64.6836 66.8415 64.6762 66.8951C64.3939 67.3893 64.3231 67.4602 63.8288 67.2482C63.7905 67.2435 63.7516 67.2473 63.7149 67.2595C63.6783 67.2716 63.6448 67.2918 63.6169 67.3185V67.4602C63.8288 67.7425 63.8288 67.9544 63.6169 68.1686C63.546 68.2389 63.546 68.38 63.546 68.4509C63.4049 68.804 63.4757 69.228 63.1226 69.5811C63.0518 69.7222 63.0518 69.9342 63.1929 70.0045C63.546 70.3576 63.6169 70.7129 63.546 71.1347C63.546 71.2758 63.6169 71.3467 63.758 71.4169C63.8288 71.4169 63.97 71.4169 64.0408 71.3466C64.182 71.2758 64.0408 71.205 63.97 71.1347C63.8991 70.9935 63.97 70.8519 63.97 70.7107C63.97 70.4987 63.97 70.3576 63.8288 70.2165C63.6169 69.8633 63.8288 69.6514 64.0408 69.4394C64.1111 69.2982 64.2523 69.3691 64.3231 69.5102C64.3231 69.6514 64.3231 69.7222 64.3939 69.7925C64.4642 70.0045 64.6054 70.1456 64.8882 70.1456C65.1002 70.1456 65.3825 70.0753 65.4533 69.8633C65.4533 69.5811 65.5944 69.4394 65.7356 69.228C65.9475 68.9451 65.8767 68.7331 65.5944 68.6629C65.4533 68.592 65.3116 68.592 65.3825 68.38C65.3825 68.2389 65.3825 68.0978 65.5944 68.0269C65.7356 67.9566 65.8064 68.0978 65.9475 68.1686C66.0887 68.4509 66.2298 68.7332 66.656 68.804C66.8679 68.8748 66.9382 69.0863 66.9382 69.2982C67.0091 69.5524 67.0091 69.8211 66.9382 70.0753C66.8982 70.1429 66.8833 70.2225 66.8963 70.3C66.9093 70.3775 66.9492 70.4479 67.0091 70.4987C67.0794 70.5696 67.2211 70.6404 67.2211 70.4987C67.2914 70.0753 67.4325 70.2165 67.5742 70.4284C67.6445 70.4284 67.6445 70.4987 67.7153 70.4987C68.2096 70.9227 68.845 71.2758 69.3398 71.6976C69.4101 71.7679 69.4809 71.7679 69.622 71.6976C69.7632 71.5559 69.9752 71.4148 70.046 71.1325C70.046 70.7794 70.2578 70.5674 70.6814 70.4966C70.8225 70.4966 70.9637 70.4263 71.0345 70.2143C71.0345 70.1434 71.0345 70.0023 71.1756 70.0023C71.3168 70.0023 71.3173 70.1434 71.3173 70.2851C71.4585 70.4966 71.3173 70.7085 71.3876 70.9935C71.3876 71.1347 71.5996 71.2758 71.3876 71.4169L71.0345 71.7701H70.8225C70.6814 71.6998 70.7522 71.5581 70.7522 71.4878C70.8225 71.4878 70.8225 71.4169 70.8934 71.3466C70.8934 71.2758 70.9637 71.205 70.8934 71.1347C70.7522 70.9935 70.6814 71.0638 70.6111 71.205C70.3991 71.4169 70.1871 71.6998 70.1871 72.0529C70.1163 72.3352 70.046 72.5471 69.9043 72.7613C69.5512 73.1144 69.3398 73.5378 68.845 73.679C68.8129 73.696 68.7861 73.7214 68.7675 73.7525C68.7488 73.7836 68.7389 73.8192 68.7389 73.8555C68.7389 73.8918 68.7488 73.9274 68.7675 73.9585C68.7861 73.9896 68.8129 74.015 68.845 74.0321C68.9158 74.2441 68.9866 74.0321 69.0569 73.9618C69.4101 73.6087 70.2558 73.4675 70.6814 73.679C70.735 73.6864 70.7846 73.7113 70.8225 73.7498C70.9637 73.8909 70.9637 74.2441 71.1756 74.1029C71.4585 73.9618 71.2465 73.7498 71.1756 73.6087C71.1489 73.5808 71.1288 73.5473 71.1166 73.5106C71.1045 73.4739 71.1006 73.435 71.1053 73.3967C71.1053 73.1847 71.1053 72.9727 71.3173 72.9727C71.5866 72.9103 71.8473 72.8155 72.0939 72.6905C72.3058 72.4785 72.447 72.6196 72.5881 72.8316C72.7292 72.9727 72.5881 73.1144 72.3761 73.1847C72.1647 73.3259 72.0939 73.5378 72.0939 73.8207C72.0964 73.8572 72.1121 73.8917 72.138 73.9176C72.164 73.9436 72.1984 73.9592 72.235 73.9618C72.3058 73.9618 72.3761 73.9618 72.3761 73.8909C72.447 73.8206 72.447 73.7498 72.5178 73.679C72.7292 73.2556 72.8709 72.7613 73.1532 72.3373C73.224 72.1254 73.0824 71.9134 72.8709 71.8431C72.5178 71.7704 72.2352 71.9116 72.023 72.2665C71.9527 72.5493 71.7407 72.5493 71.5288 72.5493C71.3878 72.5493 71.3173 72.4787 71.3173 72.3373C71.3173 72.1254 71.5288 72.1254 71.6704 72.0551C71.8121 71.9848 71.9527 71.9134 72.023 71.7722C72.0984 71.5424 72.2474 71.3438 72.447 71.2071C72.5881 71.1369 72.5881 70.9957 72.5178 70.854C72.3761 70.7837 72.235 70.7837 72.1647 70.854C72.0944 70.9243 72.0938 70.9957 72.023 70.9957C72.0232 71.005 72.0216 71.0143 72.0181 71.0229C72.0147 71.0315 72.0095 71.0393 72.0029 71.0459C71.9963 71.0525 71.9885 71.0577 71.9799 71.0611C71.9712 71.0646 71.962 71.0662 71.9527 71.066C71.8819 71.066 71.8819 70.9957 71.8819 70.9249C71.9527 70.854 72.023 70.7129 72.0939 70.6426C72.0939 70.5009 72.1647 70.3598 72.0939 70.2186C71.8116 70.0067 71.6704 69.6535 71.4585 69.3004C71.3173 69.0884 71.2465 68.8062 71.5996 68.592C71.6161 68.5797 71.6294 68.5637 71.6386 68.5453C71.6478 68.5269 71.6526 68.5066 71.6526 68.486C71.6526 68.4655 71.6478 68.4452 71.6386 68.4268C71.6294 68.4084 71.6161 68.3924 71.5996 68.38C71.5996 68.3097 71.5288 68.2389 71.4585 68.3097C71.2344 68.3737 71.0203 68.4688 70.8225 68.592C70.6814 68.7332 70.6111 69.016 70.5402 69.228C70.4694 69.4399 70.6111 69.4394 70.7522 69.5102V69.7222C70.6814 69.7222 70.6111 69.7925 70.5402 69.7222C70.4694 69.7222 70.3991 69.6514 70.3283 69.5811C70.1163 69.5102 69.9043 69.4394 69.7632 69.5811C69.622 69.6514 69.622 69.8633 69.4101 69.7925C69.2689 69.7222 69.3398 69.5811 69.3398 69.4394C69.3398 69.2977 69.2689 69.1571 69.1278 69.228C68.9866 69.2988 68.9158 69.3691 68.845 69.228C68.7741 69.0868 68.845 68.9451 68.9866 68.8748C69.2706 68.731 69.3414 68.4487 69.2705 68.1664L69.2689 68.1686ZM63.6207 74.0277C63.6207 73.9574 63.6207 73.9574 63.5498 73.9574C63.479 73.9574 63.4795 73.9574 63.4795 74.0277C63.4795 74.098 63.4795 74.0986 63.5498 74.0986C63.5592 74.0988 63.5685 74.0971 63.5772 74.0936C63.5859 74.0901 63.5938 74.0849 63.6004 74.0783C63.6071 74.0717 63.6123 74.0638 63.6157 74.0551C63.6192 74.0464 63.6209 74.0371 63.6207 74.0277ZM64.3291 66.6123C64.2583 66.4711 64.188 66.4711 64.0468 66.4711C63.976 66.4711 63.8348 66.4711 63.8348 66.6123C63.8348 66.7534 63.9051 66.8242 64.0468 66.8242C64.1885 66.8242 64.2561 66.754 64.3269 66.6123H64.3291ZM64.1171 63.9966C63.976 63.9966 63.976 64.0674 63.976 64.1377C63.976 64.2794 64.0468 64.3497 64.1171 64.3497C64.2583 64.3497 64.2583 64.2794 64.2583 64.2086C64.2561 64.0702 64.1858 63.9993 64.1149 63.9993L64.1171 63.9966ZM64.188 68.5871C64.047 68.5871 63.9763 68.6578 63.976 68.7991C63.976 68.9402 63.976 69.0814 64.1171 69.0814C64.1722 69.0781 64.2242 69.0548 64.2632 69.0159C64.3023 68.9769 64.3257 68.925 64.3291 68.8699C64.3269 68.731 64.3269 68.5898 64.1858 68.5898L64.188 68.5871ZM64.188 72.048C64.2583 71.9771 64.3291 71.9771 64.3291 71.836C64.3291 71.7652 64.2583 71.7652 64.188 71.7652C64.1177 71.7652 64.0468 71.7652 64.0468 71.9063C64.0446 71.9799 64.0446 71.9799 64.1858 72.0507L64.188 72.048ZM65.4593 65.1971C65.1765 65.1971 65.1062 65.0559 65.0353 64.844C65.0353 64.7028 65.0353 64.5617 64.9645 64.4908C64.8937 64.42 64.7531 64.4205 64.6822 64.4205C64.5411 64.4908 64.5411 64.6325 64.6114 64.7028C64.6822 64.844 64.7531 64.9856 64.7531 65.1268C64.7531 65.3388 64.8234 65.4799 65.0353 65.4799C65.2473 65.5502 65.3884 65.4091 65.4593 65.1971H65.6696C65.7405 65.1971 65.8113 65.1971 65.8816 65.0559L65.8113 64.9856C65.7722 64.9514 65.7219 64.9325 65.6699 64.9325C65.6179 64.9325 65.5676 64.9514 65.5285 64.9856C65.5274 65.0587 65.4571 65.1295 65.4571 65.1998L65.4593 65.1971ZM65.8124 72.048C65.6004 71.9063 65.5296 71.6949 65.3884 71.4829C65.3176 71.4829 65.2473 71.4829 65.2473 71.5532C65.1062 71.836 64.8942 71.9771 64.6822 72.1891C64.6114 72.3303 64.5411 72.4011 64.6114 72.5422C64.6822 72.6125 64.8234 72.6125 64.9645 72.6125C65.0353 72.6125 65.1765 72.4714 65.1765 72.4011C65.2491 72.1893 65.3904 72.1186 65.6004 72.1891C65.6696 72.1918 65.7394 72.2621 65.8102 72.0507L65.8124 72.048ZM64.7531 80.1675V85.1809C64.7531 85.322 64.8942 85.3928 65.0353 85.3928C65.9535 85.322 66.9426 85.2517 67.8603 84.8986C69.555 84.3335 70.8263 83.345 71.2503 81.5086C71.5326 80.5201 71.5326 79.531 71.0383 78.6836C70.5441 77.9752 69.979 77.4848 69.2727 76.9889C68.0014 76.2118 66.5889 75.6467 65.1765 75.1525C64.8233 75.0113 64.7531 75.0113 64.7531 75.4347V80.1675ZM65.3176 67.8787C65.3176 67.7376 65.2473 67.6667 65.1765 67.6667C65.1056 67.6667 65.0353 67.6667 65.0353 67.8084C65.0379 67.845 65.0536 67.8794 65.0795 67.9054C65.1054 67.9313 65.1399 67.947 65.1765 67.9495C65.2451 67.9544 65.3154 67.9544 65.3154 67.8836L65.3176 67.8787ZM65.5296 70.7036C65.5296 70.5625 65.4593 70.4214 65.3176 70.4214C65.1759 70.4214 65.1062 70.5625 65.1062 70.7036C65.1062 70.8448 65.1062 70.9865 65.3176 70.9865C65.4571 70.9914 65.5274 70.8497 65.5274 70.7096L65.5296 70.7036ZM66.0238 73.0343C65.9535 72.8932 65.8827 72.752 65.7416 72.6812C65.6004 72.6812 65.6004 72.8223 65.6004 72.8932C65.6707 73.1052 65.7416 73.1754 65.8827 73.1754C66.0238 73.1754 66.0217 73.1101 66.0217 73.0392L66.0238 73.0343ZM66.4478 69.9282C66.3751 69.5751 66.2338 69.4338 66.0238 69.5042C65.8124 69.6454 65.7416 70.2813 65.9535 70.4224C66.0947 70.5636 66.1655 70.7047 65.9535 70.9167C65.8124 71.0578 65.8124 71.199 65.8827 71.411C65.8852 71.4475 65.9009 71.482 65.9269 71.5079C65.9528 71.5339 65.9872 71.5495 66.0238 71.5521C66.0947 71.5521 66.0947 71.4818 66.1655 71.411C66.1655 71.199 66.3067 71.0578 66.5186 70.9875C66.7301 70.8459 66.7301 70.7047 66.5889 70.5636C66.3748 70.3554 66.2336 70.1434 66.4456 69.932L66.4478 69.9282ZM66.2358 72.4703C66.3067 72.4703 66.8009 72.0469 66.8009 71.976C66.8009 71.9052 66.8009 71.9052 66.7301 71.8349C66.5186 71.7641 66.377 71.976 66.2358 72.1172C66.1992 72.1197 66.1648 72.1354 66.1388 72.1614C66.1129 72.1873 66.0972 72.2217 66.0947 72.2583C66.0217 72.4038 66.0925 72.4741 66.2336 72.4741L66.2358 72.4703ZM66.377 66.9616C66.2358 67.0324 66.1655 67.0324 66.1655 67.1736C66.1655 67.2444 66.3067 67.3147 66.377 67.3855C66.5186 67.3855 66.5186 67.3147 66.5186 67.1736C66.5868 67.0362 66.4456 67.0362 66.3748 66.9654L66.377 66.9616ZM66.4478 66.5382C66.4862 66.5001 66.5111 66.4505 66.5186 66.397L66.4478 66.3262C66.4112 66.3287 66.3768 66.3444 66.3508 66.3703C66.3249 66.3963 66.3092 66.4307 66.3067 66.4673C66.3435 66.5068 66.3923 66.5331 66.4456 66.542L66.4478 66.5382ZM66.6598 68.1626C66.6598 68.374 66.7301 68.4449 66.8718 68.4449C67.0832 68.374 67.4363 68.374 67.4363 68.1626C67.4363 67.8798 67.0832 68.0918 66.9421 67.9506C66.7987 68.0247 66.6576 68.0247 66.6576 68.1664L66.6598 68.1626ZM67.2249 71.4818C67.154 71.3407 67.0832 71.199 66.8718 71.199C66.8009 71.199 66.7301 71.199 66.8009 71.3407C66.8009 71.4818 66.942 71.5521 67.0832 71.6229C67.1189 71.6201 67.1525 71.6048 67.178 71.5797C67.2035 71.5546 67.2193 71.5213 67.2227 71.4856L67.2249 71.4818ZM67.2249 72.8943C67.2249 72.7531 67.2952 72.6114 67.154 72.5411C67.0129 72.4708 66.9421 72.6114 66.8718 72.6823C66.6598 72.8234 66.8718 72.8943 66.9421 73.0354V73.1765C67.0129 73.2474 67.0129 73.3885 67.154 73.3885C67.2249 73.3177 67.2249 73.1765 67.2249 73.1062V72.8943ZM68.4957 69.7881C68.4957 69.5059 68.4254 69.2236 68.2134 69.0797C68.0014 69.0094 67.9311 68.9386 67.9311 68.7266C67.8603 68.5855 67.7894 68.5152 67.6483 68.5152C67.4363 68.5855 67.2952 68.7266 67.2952 68.9386C67.2249 69.2214 67.0832 69.5745 67.4363 69.7157C67.7191 69.8568 68.0014 69.8568 68.3545 69.9979C68.4232 70.0012 68.5643 69.932 68.4935 69.7903L68.4957 69.7881ZM67.4363 73.6027C67.366 73.6027 67.2952 73.673 67.2952 73.8147C67.2952 73.885 67.2952 74.0261 67.4363 74.0969C67.578 74.0969 67.578 73.9558 67.6483 73.885C67.6461 73.7454 67.5769 73.6746 67.4341 73.6043L67.4363 73.6027ZM67.7191 66.1164C67.7191 66.0461 67.7191 65.9752 67.6483 65.9752C67.5073 65.9752 67.4367 66.0459 67.4363 66.1872C67.366 66.2575 67.4363 66.3284 67.5071 66.3284C67.578 66.3284 67.6461 66.1867 67.7169 66.118L67.7191 66.1164ZM67.9311 71.272C67.9311 71.272 67.9311 71.1309 67.8603 71.06C67.7894 70.9189 67.7191 70.848 67.578 70.9189C67.4369 70.9897 67.5071 71.06 67.578 71.1309C67.7191 71.3428 67.6483 71.5543 67.5071 71.7663C67.4363 71.8371 67.4363 71.9782 67.5071 71.9782C67.6483 72.0491 67.7191 71.9782 67.7894 71.9074C67.8847 71.7099 67.9325 71.4929 67.9289 71.2736L67.9311 71.272ZM67.9311 74.45C67.9285 74.4134 67.9128 74.3789 67.8867 74.3529C67.8607 74.327 67.8261 74.3113 67.7894 74.3089C67.7191 74.3089 67.6483 74.3089 67.578 74.45C67.578 74.5209 67.6483 74.5209 67.7191 74.5209C67.7872 74.5928 67.8581 74.5242 67.9289 74.4517L67.9311 74.45ZM68.7785 72.0491C68.7076 71.9074 68.7785 71.6251 68.4957 71.484C68.3545 71.484 68.3545 71.696 68.3545 71.7663C68.3545 71.9782 68.3545 72.2605 68.6373 72.2605C68.7055 72.333 68.7758 72.1918 68.7758 72.0507L68.7785 72.0491ZM69.0608 71.1309C69.4847 71.06 69.2727 70.6366 69.3436 70.4224C69.4144 70.2083 69.2019 70.0693 68.9905 70.0693C68.7076 70.0693 68.6373 70.2813 68.6373 70.4224C68.6352 70.8497 68.8466 71.1325 69.0586 71.1325L69.0608 71.1309ZM69.6967 68.7293C69.6967 68.871 69.6258 69.0122 69.767 69.0122C69.9081 69.0825 69.979 68.9413 70.0498 68.871C70.1909 68.659 70.2612 68.5179 70.4029 68.3762C70.5441 68.3059 70.5441 68.1648 70.4732 68.0939C70.4029 67.9528 70.2612 67.9528 70.1909 68.0231C69.9059 68.1664 69.6945 68.3779 69.6945 68.731L69.6967 68.7293ZM70.1909 74.8032C70.0498 74.8032 70.0498 74.874 70.0498 75.0151C70.0498 75.0854 70.0498 75.1563 70.1909 75.1563C70.2612 75.1563 70.2612 75.0854 70.2612 74.9443C70.2591 74.8756 70.2591 74.8048 70.1888 74.8048L70.1909 74.8032ZM70.8994 75.2974H70.9697C71.1113 75.2271 71.1816 75.0151 71.3936 75.0151C71.4645 74.9443 71.5347 74.874 71.4645 74.7323C71.4202 74.6854 71.3624 74.6534 71.2991 74.6408C71.2358 74.6282 71.1702 74.6356 71.1113 74.662C71.0405 74.8032 70.8994 74.9443 70.8285 75.0854C70.7577 75.2266 70.8242 75.2991 70.895 75.2991L70.8994 75.2974ZM71.6764 75.5094C71.6764 75.4386 71.6764 75.3683 71.5347 75.3683C71.4645 75.3683 71.4645 75.3683 71.4645 75.4386C71.4645 75.5802 71.4645 75.5802 71.5347 75.5802C71.6721 75.5819 71.6721 75.511 71.6721 75.511L71.6764 75.5094ZM72.029 74.3792C71.888 74.3792 71.8176 74.4499 71.8176 74.5912C71.8176 74.662 71.8176 74.8032 71.9587 74.8032C72.0998 74.8032 72.1707 74.7323 72.1707 74.5912C72.1707 74.45 72.0955 74.3808 72.0246 74.3808L72.029 74.3792ZM72.1707 75.6505C72.1707 75.8625 72.1707 75.9334 72.3118 75.9334C72.453 76.0037 72.5941 75.9334 72.6649 75.7917C72.7352 75.5802 72.7352 75.4386 72.8061 75.2271C72.8061 75.1563 72.8061 75.0854 72.7352 75.0854C72.6649 75.0151 72.6649 75.0151 72.5941 75.0854C72.3778 75.2288 72.1663 75.4402 72.1663 75.6522L72.1707 75.6505ZM73.8654 69.7887C73.8626 69.6578 73.8125 69.5324 73.7243 69.4356C73.6859 69.4308 73.647 69.4347 73.6103 69.447C73.5736 69.4592 73.5401 69.4796 73.5123 69.5064C73.4415 69.6476 73.3003 69.7184 73.0884 69.6476C72.9472 69.5773 72.8061 69.5773 72.5941 69.5064C72.3821 69.2944 72.241 69.3653 72.241 69.7184C72.1707 70.0007 72.3118 70.1418 72.5941 70.1418H72.8769C72.9136 70.1444 72.9481 70.1601 72.9741 70.1862C73 70.2122 73.0156 70.2468 73.0181 70.2835C73.0884 70.3538 73.0181 70.3538 72.9472 70.4246C72.8061 70.4949 72.7352 70.5658 72.8769 70.7069C72.9472 70.9189 73.23 70.9189 73.3003 70.7777C73.508 70.4966 73.5788 70.0731 73.8611 69.7903L73.8654 69.7887ZM72.8726 78.3387C72.7309 78.3387 72.6606 78.4095 72.6606 78.5507C72.6606 78.6918 72.9429 79.0449 73.0137 78.9741C73.2257 78.9741 73.2257 78.8329 73.2257 78.6918C73.2257 78.4771 73.0137 78.3387 72.8726 78.3387ZM73.581 76.7851C73.5101 76.5731 73.369 76.3611 73.157 76.2908C72.945 76.2205 72.8747 76.5023 72.8039 76.6439C72.7331 76.8554 72.945 76.7851 73.0159 76.7851C73.157 76.7851 73.2279 76.9262 73.369 76.9262C73.508 76.9943 73.5788 76.9943 73.5788 76.7824L73.581 76.7851ZM75.6997 79.6803C75.6997 79.822 75.6997 79.9631 75.8408 80.0334C75.8997 80.0598 75.9653 80.0673 76.0286 80.0547C76.0919 80.0421 76.1497 80.0101 76.1939 79.9631C76.4059 79.7512 76.6179 79.61 76.759 79.3272C76.8293 79.1158 76.6882 78.9038 76.547 78.7626C76.5423 78.7243 76.5461 78.6853 76.5584 78.6486C76.5707 78.6119 76.591 78.5785 76.6179 78.5507C76.6179 78.4798 76.6882 78.4798 76.759 78.5507C76.8242 78.5853 76.8969 78.6034 76.9707 78.6034C77.0446 78.6034 77.1172 78.5853 77.1824 78.5507C77.2533 78.5507 77.3241 78.621 77.3944 78.6918C77.6064 78.9741 77.3944 79.4689 77.0413 79.5392C76.971 79.61 76.9002 79.61 76.9002 79.6803C76.8999 79.6897 76.9016 79.699 76.9051 79.7077C76.9086 79.7164 76.9138 79.7243 76.9204 79.7309C76.927 79.7375 76.9349 79.7427 76.9436 79.7462C76.9523 79.7497 76.9616 79.7514 76.971 79.7512C77.1121 79.822 77.3241 79.822 77.5356 79.7512C77.618 79.7145 77.6883 79.6552 77.7384 79.5801C77.7884 79.5051 77.8162 79.4174 77.8184 79.3272C77.6772 78.9741 77.7475 78.6188 77.6772 78.2678C77.6772 78.0564 77.6772 77.9147 77.4653 77.9147C77.2533 77.9147 77.1824 77.7736 77.1824 77.5616C77.1824 77.4913 77.1824 77.3502 77.1121 77.2793C77.1121 77.2085 77.0413 77.0674 76.971 77.1382C76.8293 77.1382 76.9002 77.2085 76.9002 77.2793C76.8293 77.4913 76.8293 77.7736 76.6179 77.9147C76.547 77.9147 76.4059 77.9856 76.4059 77.8444C76.547 77.5616 76.4059 77.136 76.759 76.9262C76.8341 76.8407 76.8863 76.7377 76.911 76.6266C76.9357 76.5156 76.9319 76.4001 76.9002 76.2908C76.8293 76.0788 76.6179 76.1492 76.4762 76.0789C76.1939 76.008 75.8408 76.008 75.8408 75.6549C75.77 75.0898 75.6997 74.5252 75.9117 73.9601C75.9453 73.9207 75.9637 73.8706 75.9637 73.8187C75.9637 73.7669 75.9453 73.7168 75.9117 73.6773C75.77 73.5362 75.6288 73.3242 75.4169 73.2539C75.1346 73.1128 75.1346 72.9711 75.2054 72.6888C75.3466 72.5477 75.3466 72.3357 75.1346 72.1946C74.9934 72.0534 74.9934 71.9117 75.2054 71.8415C75.2757 71.7706 75.4169 71.7003 75.2757 71.6295C74.9226 71.4175 75.0637 71.2055 75.2054 70.9211C75.2389 70.8817 75.2573 70.8316 75.2573 70.7799C75.2573 70.7282 75.2389 70.6782 75.2054 70.6388C75.1776 70.612 75.1441 70.5917 75.1074 70.5794C75.0708 70.5672 75.0318 70.5632 74.9934 70.5679C74.7106 70.7799 74.4992 70.7799 74.2164 70.8502C73.7924 71.0622 73.7221 71.2742 73.7221 71.6981C73.7924 71.9804 73.6513 72.2627 73.4393 72.4747C73.2279 72.5455 73.157 72.7575 73.2279 72.9689C73.3688 73.2519 73.2982 73.4639 73.0159 73.6048C72.8747 73.746 72.8039 74.2402 72.945 74.3133C73.157 74.5252 73.2982 74.3836 73.5101 74.3133C73.581 74.1721 73.581 74.1013 73.581 73.9601C73.6513 73.607 73.7221 73.2517 73.8632 72.9008C73.8632 72.83 73.9341 72.6888 74.0044 72.7597C74.2164 72.9008 74.4283 73.0419 74.5695 73.2539C74.6403 73.3242 74.5695 73.3951 74.4283 73.4659C74.3156 73.5085 74.2133 73.5747 74.1281 73.6599C74.0429 73.7451 73.9767 73.8474 73.9341 73.9601C73.7924 74.2424 73.7924 74.5252 73.581 74.7367C73.4393 74.8784 73.5101 75.0195 73.6513 75.0898C73.8632 75.1606 73.8632 75.0195 73.8632 74.8784C73.9341 74.6664 74.0044 74.5955 74.2164 74.5955C74.4447 74.5905 74.6661 74.5166 74.8518 74.3836C74.9226 74.3133 74.9226 74.1721 75.0637 74.2424C75.1346 74.3133 75.1346 74.3836 75.0637 74.5252C74.9934 74.7367 74.9934 74.9487 74.9934 75.1606C74.9934 75.2315 74.9226 75.3726 74.8518 75.3726C74.4283 75.2315 74.0752 75.4429 73.6529 75.3726C73.5118 75.3726 73.2998 75.3726 73.2295 75.5846C73.1978 75.6603 73.1946 75.7449 73.2205 75.8228C73.2465 75.9007 73.2998 75.9665 73.3706 76.008C73.5826 76.22 73.7237 76.5023 74.079 76.5731C74.1493 76.5731 74.2202 76.7142 74.291 76.8554C74.291 77.1382 74.4322 77.1382 74.6441 76.9971C74.9264 76.8554 74.9973 76.5731 75.0676 76.2886C75.0708 76.2335 75.0942 76.1814 75.1332 76.1424C75.1723 76.1033 75.2244 76.0799 75.2795 76.0767C75.3504 76.0767 75.4915 76.147 75.4915 76.2178C75.4207 76.5709 75.4915 76.9949 75.2092 77.2772C75.0676 77.348 74.9264 77.4183 74.9264 77.6303C74.9973 77.7714 74.9973 77.9834 75.0676 78.1245C75.0701 78.1612 75.0859 78.1957 75.1119 78.2217C75.138 78.2476 75.1725 78.2633 75.2092 78.2657C75.5624 78.2657 75.7738 78.5485 76.0566 78.6896C76.1269 78.7605 76.1977 78.9719 76.0566 78.9719C75.5624 79.0428 75.4915 79.1839 75.7035 79.537L75.6997 79.6803ZM73.5101 79.0449C73.5101 79.1158 73.4393 79.2569 73.581 79.3272C73.7227 79.3975 73.7221 79.2569 73.7924 79.1861L74.2164 78.9741C74.4283 78.9038 74.6403 78.8329 74.6403 78.6918C74.5695 78.3387 74.5695 77.9834 74.3575 77.7033C74.2872 77.6325 74.2164 77.5616 74.1455 77.5616C74.0044 77.5616 74.0044 77.7033 74.0044 77.7736V78.3387C74.0044 78.4798 74.0044 78.621 73.7924 78.621C73.4371 78.5479 73.508 78.7599 73.508 79.0422L73.5101 79.0449ZM74.0752 81.4459C74.2872 81.3756 74.3575 81.0933 74.5695 80.9516C74.7106 80.9516 74.6403 80.8105 74.5695 80.6694C74.5671 80.6327 74.5514 80.5982 74.5254 80.5723C74.4995 80.5463 74.465 80.5307 74.4283 80.5282C74.3575 80.5282 74.3575 80.5282 74.2872 80.5985C74.2872 80.8105 74.1455 80.9516 74.0044 81.0933C73.9341 81.1636 73.8633 81.2345 73.9341 81.3048C73.9367 81.3409 73.9522 81.3748 73.9776 81.4005C74.0031 81.4262 74.037 81.4419 74.073 81.4448L74.0752 81.4459ZM74.6403 76.22C74.6403 76.0787 74.5697 76.008 74.4283 76.008C74.2872 76.008 74.2872 76.0789 74.2872 76.22C74.2872 76.2908 74.2872 76.432 74.4283 76.432C74.5695 76.432 74.6381 76.3584 74.6381 76.2173L74.6403 76.22ZM74.6403 71.9118C74.6403 71.8415 74.6403 71.7003 74.4992 71.7003C74.3581 71.7003 74.3575 71.8415 74.3575 71.9826C74.3526 72.1043 74.3769 72.2253 74.4283 72.3357C74.4283 72.4768 74.2872 72.7597 74.5695 72.7597C74.7815 72.7597 74.6403 72.4768 74.6403 72.3357V71.9118ZM74.8518 70.0045C74.8518 69.9342 74.8518 69.9342 74.7815 69.9342C74.7112 69.9342 74.6403 69.9342 74.6403 70.0753C74.6403 70.1456 74.7106 70.1456 74.7815 70.1456C74.8496 70.0731 74.8496 70.0731 74.8496 70.0012L74.8518 70.0045ZM74.8518 79.6095C74.9226 79.6095 74.9934 79.5386 74.9226 79.4683C74.9226 79.3975 74.9226 79.3266 74.8518 79.3266C74.7106 79.3266 74.7106 79.3975 74.7106 79.5386C74.7084 79.6073 74.7793 79.6073 74.8496 79.6073L74.8518 79.6095ZM75.3466 81.6573C75.3466 81.5162 75.2757 81.4454 75.2054 81.4454C75.0637 81.3751 74.9934 81.5162 74.9934 81.587C74.9934 81.7282 75.0637 81.799 75.2054 81.799C75.2421 81.7959 75.2763 81.7796 75.3019 81.7532C75.3274 81.7267 75.3425 81.6919 75.3444 81.6552L75.3466 81.6573ZM75.3466 80.598C75.3466 80.4568 75.2757 80.3866 75.2054 80.3866C75.1351 80.3866 75.0637 80.4568 75.0637 80.598C75.0637 80.6688 75.0637 80.7391 75.2054 80.7391C75.242 80.736 75.2762 80.7198 75.3017 80.6935C75.3273 80.6671 75.3424 80.6324 75.3444 80.5958L75.3466 80.598ZM75.6288 77.4919C75.4169 77.4919 75.4169 77.7038 75.4169 77.845C75.4169 77.9861 75.4169 78.1273 75.5585 78.057C75.6997 78.057 75.77 77.9153 75.77 77.7741C75.77 77.633 75.7678 77.4886 75.6267 77.4886L75.6288 77.4919ZM75.9819 73.1836C76.1939 73.1836 76.2648 73.1133 76.2648 72.9013C76.2648 72.6894 76.1231 72.6185 75.9819 72.6185C75.77 72.6185 75.77 72.8305 75.6997 72.9716C75.6964 73.1804 75.8386 73.1804 75.9798 73.1804L75.9819 73.1836ZM75.9117 71.2061C76.0528 71.1358 76.0528 71.0649 76.1231 70.9946C76.1231 70.8529 76.1231 70.8529 75.9819 70.8529C75.9117 70.8529 75.8408 70.9238 75.8408 71.0649C75.8386 71.1325 75.8386 71.2028 75.9095 71.2028L75.9117 71.2061ZM76.1231 80.8819C76.0528 80.8819 75.9819 80.8819 75.9819 80.9522C75.9819 81.235 76.1939 81.3053 76.3351 81.3053C76.4059 81.3053 76.547 81.3053 76.547 81.235C76.474 81.0198 76.2626 80.9489 76.1209 80.8786L76.1231 80.8819ZM77.4653 80.7402C77.3241 80.8111 77.3241 80.8819 77.3241 80.9522C77.3241 81.0225 77.3241 81.0939 77.3944 81.0939C77.5356 81.1642 77.5356 81.023 77.5356 80.9522C77.5406 80.9131 77.5366 80.8734 77.5241 80.836C77.5115 80.7986 77.4907 80.7646 77.4631 80.7364L77.4653 80.7402ZM77.7475 76.9257C77.8887 76.7845 77.9595 76.7137 77.8887 76.5726H77.7475C77.6751 76.6412 77.6751 76.7824 77.7454 76.9219L77.7475 76.9257ZM78.5949 76.0075C78.4538 75.8663 78.5949 75.5132 78.2418 75.4424C78.169 75.4411 78.0973 75.4603 78.0349 75.4978C77.9725 75.5353 77.9218 75.5895 77.8887 75.6544C77.8887 75.8663 78.3126 76.2903 78.4538 76.2903C78.5949 76.2903 78.5224 76.1464 78.5927 76.0053L78.5949 76.0075ZM78.1715 77.9147C78.1348 77.9173 78.1003 77.9331 78.0743 77.9591C78.0484 77.9851 78.0328 78.0197 78.0304 78.0564C78.0304 78.1976 78.1715 78.1975 78.2418 78.1975C78.3121 78.1975 78.3835 78.1976 78.3835 78.0564C78.3813 77.9829 78.3121 77.912 78.1693 77.912L78.1715 77.9147ZM78.3835 76.9262C78.2418 76.9971 78.1715 77.0674 78.1715 77.2085C78.1715 77.3496 78.2418 77.4205 78.3835 77.4205C78.5252 77.4205 78.5246 77.2793 78.5246 77.1382C78.5224 77.0646 78.5224 76.9219 78.3813 76.9219L78.3835 76.9262ZM79.3011 77.9856C79.3011 77.8444 79.16 77.7736 79.0897 77.8444C78.948 77.8444 78.7366 77.8444 78.7366 78.0564C78.7366 78.1976 78.8777 78.2678 79.0189 78.2678C79.1578 78.1948 79.299 78.1948 79.299 77.9828L79.3011 77.9856ZM79.0897 79.398C79.0189 79.3272 79.0189 79.2569 78.948 79.2569C78.8772 79.2569 78.8777 79.3272 78.8777 79.398C78.8777 79.4689 78.8777 79.5392 78.948 79.5392C78.9848 79.5362 79.0192 79.5199 79.0448 79.4935C79.0705 79.467 79.0857 79.4321 79.0875 79.3953L79.0897 79.398Z" fill="#FFBF00"/>
</svg>
