<svg width="512" height="512" viewBox="0 0 512 512" fill="none" xmlns="http://www.w3.org/2000/svg">
<g clip-path="url(#clip0_271_762)">
<rect width="512" height="512" rx="100" fill="white"/>
<rect width="512" height="512" rx="100" fill="white"/>
<path d="M100.171 202.421C101.22 203.836 102.788 204.777 104.531 205.036C106.273 205.295 108.047 204.851 109.462 203.803L232.357 112.702C233.771 111.652 234.711 110.084 234.97 108.341C235.228 106.599 234.784 104.825 233.735 103.41C232.685 101.999 231.119 101.063 229.38 100.804C227.641 100.546 225.871 100.988 224.457 102.033L101.563 193.134C100.147 194.182 99.2056 195.748 98.9447 197.49C98.6838 199.231 99.1251 201.005 100.171 202.421Z" fill="#FFBF00"/>
<path d="M333.171 209.421C334.22 210.836 335.788 211.777 337.531 212.036C339.273 212.295 341.047 211.851 342.462 210.803L465.357 119.702C466.771 118.652 467.711 117.084 467.97 115.341C468.228 113.599 467.784 111.825 466.735 110.41C465.685 108.999 464.119 108.063 462.38 107.804C460.641 107.546 458.871 107.988 457.457 109.033L334.563 200.134C333.147 201.182 332.206 202.748 331.945 204.49C331.684 206.231 332.125 208.005 333.171 209.421Z" fill="#58B368"/>
<path d="M55.1715 388.421C56.2204 389.836 57.7885 390.777 59.5307 391.036C61.273 391.295 63.0467 390.851 64.462 389.803L187.357 298.702C188.771 297.652 189.711 296.084 189.97 294.341C190.228 292.599 189.784 290.825 188.735 289.41C187.685 287.999 186.119 287.063 184.38 286.804C182.641 286.546 180.871 286.988 179.457 288.033L56.5627 379.134C55.1472 380.182 54.2056 381.748 53.9447 383.49C53.6838 385.231 54.1251 387.005 55.1715 388.421Z" fill="#58B368" fill-opacity="0.956863"/>
<path d="M392.746 319.42C391.697 318.005 390.129 317.064 388.387 316.805C386.645 316.546 384.871 316.99 383.456 318.038L260.561 409.14C259.86 409.659 259.268 410.312 258.819 411.06C258.371 411.809 258.074 412.638 257.946 413.501C257.818 414.364 257.861 415.244 258.073 416.091C258.285 416.937 258.662 417.734 259.182 418.435C260.231 419.849 261.8 420.789 263.542 421.048C265.285 421.306 267.059 420.862 268.474 419.813L391.368 328.712C392.783 327.662 393.723 326.094 393.981 324.351C394.24 322.609 393.796 320.835 392.746 319.42Z" fill="#FFBF00"/>
<path d="M78.1804 427.367C78.6998 428.068 79.3522 428.66 80.1004 429.109C80.8486 429.558 81.6779 429.855 82.5409 429.983C83.404 430.112 84.2839 430.069 85.1304 429.857C85.9769 429.645 86.7734 429.269 87.4743 428.749L140.627 389.332C142.042 388.283 142.982 386.714 143.24 384.972C143.499 383.229 143.055 381.456 142.005 380.041C140.956 378.626 139.388 377.685 137.646 377.426C135.904 377.167 134.13 377.611 132.715 378.659L79.5631 418.073C78.8619 418.592 78.2699 419.244 77.8209 419.993C77.3719 420.741 77.0747 421.57 76.9463 422.433C76.8179 423.296 76.8608 424.176 77.0726 425.023C77.2844 425.869 77.6608 426.666 78.1804 427.367Z" fill="#58B368" fill-opacity="0.956863"/>
<path d="M343.18 132.367C343.7 133.068 344.352 133.66 345.1 134.109C345.849 134.558 346.678 134.855 347.541 134.983C348.404 135.112 349.284 135.069 350.13 134.857C350.977 134.645 351.773 134.269 352.474 133.749L405.627 94.3325C407.042 93.283 407.982 91.7145 408.24 89.972C408.499 88.2295 408.055 86.4557 407.005 85.0407C405.956 83.6257 404.388 82.6853 402.646 82.4262C400.904 82.1672 399.13 82.6107 397.715 83.6593L344.563 123.073C343.862 123.592 343.27 124.244 342.821 124.993C342.372 125.741 342.075 126.57 341.946 127.433C341.818 128.296 341.861 129.176 342.073 130.023C342.284 130.869 342.661 131.666 343.18 132.367Z" fill="#58B368"/>
<path d="M74.1804 307.367C74.6998 308.068 75.3522 308.66 76.1004 309.109C76.8486 309.558 77.6779 309.855 78.5409 309.983C79.404 310.112 80.2839 310.069 81.1304 309.857C81.9769 309.645 82.7734 309.269 83.4743 308.749L136.627 269.332C138.042 268.283 138.982 266.714 139.24 264.972C139.499 263.229 139.055 261.456 138.005 260.041C136.956 258.626 135.388 257.685 133.646 257.426C131.904 257.167 130.13 257.611 128.715 258.659L75.5631 298.073C74.8619 298.592 74.2699 299.244 73.8209 299.993C73.3719 300.741 73.0747 301.57 72.9463 302.433C72.8179 303.296 72.8608 304.176 73.0726 305.023C73.2844 305.869 73.6608 306.666 74.1804 307.367Z" fill="#58B368" fill-opacity="0.956863"/>
<path d="M364.18 243.367C364.7 244.068 365.352 244.66 366.1 245.109C366.849 245.558 367.678 245.855 368.541 245.983C369.404 246.112 370.284 246.069 371.13 245.857C371.977 245.645 372.773 245.269 373.474 244.749L426.627 205.332C428.042 204.283 428.982 202.714 429.24 200.972C429.499 199.229 429.055 197.456 428.005 196.041C426.956 194.626 425.388 193.685 423.646 193.426C421.904 193.167 420.13 193.611 418.715 194.659L365.563 234.073C364.862 234.592 364.27 235.244 363.821 235.993C363.372 236.741 363.075 237.57 362.946 238.433C362.818 239.296 362.861 240.176 363.073 241.023C363.284 241.869 363.661 242.666 364.18 243.367Z" fill="#58B368"/>
<path d="M377.665 393.04C376.616 391.625 375.047 390.685 373.305 390.426C371.562 390.168 369.789 390.612 368.374 391.662L315.228 431.059C314.527 431.578 313.935 432.23 313.486 432.978C313.037 433.727 312.74 434.556 312.611 435.419C312.483 436.282 312.526 437.162 312.738 438.009C312.949 438.855 313.326 439.651 313.845 440.352C314.895 441.767 316.463 442.707 318.206 442.966C319.948 443.224 321.722 442.78 323.137 441.731L376.284 402.33C377.699 401.281 378.639 399.713 378.898 397.971C379.158 396.229 378.714 394.455 377.665 393.04Z" fill="#FFBF00"/>
<path d="M125.244 115.343C126.293 116.755 127.86 117.692 129.599 117.951C131.339 118.209 133.111 117.767 134.525 116.721L187.682 77.3319C189.097 76.2824 190.037 74.714 190.296 72.9714C190.554 71.2289 190.11 69.4551 189.06 68.0402C188.011 66.6252 186.443 65.6848 184.701 65.4257C182.959 65.1666 181.185 65.6102 179.77 66.6587L126.625 106.052C125.21 107.101 124.27 108.669 124.011 110.412C123.752 112.154 124.195 113.928 125.244 115.343Z" fill="#FFBF00"/>
<path d="M98.456 143.692L106.667 137.602C108.083 136.555 109.025 134.989 109.287 133.248C109.548 131.507 109.108 129.733 108.062 128.316C107.543 127.615 106.89 127.023 106.142 126.574C105.394 126.125 104.565 125.828 103.701 125.7C102.838 125.571 101.958 125.614 101.112 125.826C100.265 126.038 99.469 126.414 98.7681 126.934L90.5567 133.023C89.1419 134.073 88.2019 135.641 87.9435 137.384C87.685 139.126 88.1293 140.9 89.1786 142.315C90.2281 143.726 91.7939 144.663 93.5329 144.921C95.2719 145.179 97.0422 144.737 98.456 143.692Z" fill="#FFBF00"/>
<path d="M168.248 362.488C167.199 361.073 165.631 360.132 163.888 359.873C162.146 359.614 160.372 360.058 158.957 361.106L150.746 367.196C149.331 368.245 148.39 369.813 148.131 371.555C147.872 373.298 148.316 375.071 149.364 376.487C150.413 377.902 151.981 378.842 153.724 379.101C155.466 379.36 157.24 378.917 158.655 377.868L166.87 371.78C168.284 370.73 169.224 369.162 169.483 367.419C169.741 365.677 169.297 363.903 168.248 362.488Z" fill="#58B368"/>
<path d="M334.062 139.488C333.013 138.073 331.445 137.132 329.702 136.873C327.96 136.614 326.186 137.058 324.771 138.106L316.56 144.196C315.145 145.245 314.204 146.813 313.945 148.555C313.686 150.298 314.13 152.071 315.178 153.487C316.227 154.902 317.795 155.842 319.538 156.101C321.28 156.36 323.054 155.917 324.469 154.868L332.684 148.78C334.098 147.73 335.038 146.162 335.297 144.419C335.555 142.677 335.111 140.903 334.062 139.488Z" fill="#58B368"/>
<path d="M65.0616 314.488C64.0127 313.073 62.4447 312.132 60.7024 311.873C58.9602 311.614 57.1864 312.058 55.7711 313.106L47.5597 319.196C46.1448 320.245 45.2043 321.813 44.9453 323.555C44.6862 325.298 45.1298 327.071 46.1783 328.487C47.2273 329.902 48.7953 330.842 50.5376 331.101C52.2798 331.36 54.0536 330.917 55.4689 329.868L63.6835 323.78C65.0983 322.73 66.0383 321.162 66.2968 319.419C66.5552 317.677 66.1109 315.903 65.0616 314.488Z" fill="#58B368"/>
<path d="M456.064 179.489C455.015 178.074 453.447 177.133 451.705 176.874C449.962 176.615 448.189 177.059 446.773 178.107L438.559 184.196C437.144 185.245 436.204 186.814 435.945 188.556C435.687 190.299 436.131 192.073 437.181 193.488C438.23 194.903 439.798 195.843 441.54 196.102C443.282 196.361 445.056 195.918 446.471 194.869L454.683 188.779C456.098 187.73 457.038 186.162 457.297 184.42C457.556 182.678 457.113 180.904 456.064 179.489Z" fill="#58B368"/>
<path d="M290.062 458.738C289.013 457.323 287.445 456.383 285.703 456.124C283.96 455.865 282.187 456.308 280.771 457.357L272.56 463.447C271.145 464.496 270.205 466.064 269.946 467.806C269.686 469.548 270.13 471.322 271.179 472.737C271.698 473.438 272.351 474.03 273.099 474.479C273.848 474.928 274.677 475.225 275.54 475.353C276.403 475.481 277.284 475.438 278.13 475.225C278.976 475.013 279.773 474.637 280.474 474.117L288.684 468.03C290.099 466.981 291.039 465.412 291.297 463.67C291.555 461.927 291.111 460.153 290.062 458.738Z" fill="#FFBF00"/>
<path d="M444.203 268.061C443.154 266.646 441.585 265.706 439.843 265.447C438.1 265.189 436.326 265.633 434.911 266.682L426.701 272.769C426 273.288 425.408 273.941 424.959 274.689C424.51 275.437 424.213 276.266 424.085 277.129C423.956 277.992 423.999 278.872 424.211 279.719C424.423 280.565 424.799 281.362 425.319 282.063C425.838 282.764 426.491 283.356 427.239 283.805C427.988 284.253 428.817 284.55 429.68 284.678C430.544 284.806 431.424 284.763 432.27 284.551C433.117 284.339 433.913 283.962 434.614 283.442L442.824 277.356C443.525 276.836 444.117 276.183 444.566 275.435C445.014 274.687 445.311 273.857 445.439 272.994C445.567 272.131 445.524 271.251 445.312 270.404C445.1 269.558 444.723 268.761 444.203 268.061Z" fill="#FFBF00"/>
<path d="M361.497 254.013C360.977 253.312 360.325 252.72 359.576 252.271C358.828 251.823 357.998 251.526 357.135 251.397C356.272 251.269 355.392 251.313 354.545 251.525C353.699 251.737 352.903 252.114 352.202 252.634L343.992 258.72C342.577 259.77 341.637 261.338 341.378 263.081C341.12 264.823 341.564 266.597 342.614 268.012C343.663 269.427 345.231 270.367 346.973 270.626C348.715 270.885 350.489 270.442 351.904 269.393L360.115 263.304C361.53 262.255 362.471 260.687 362.73 258.944C362.989 257.202 362.545 255.428 361.497 254.013Z" fill="#FFBF00"/>
<path d="M221.179 84.6954C221.698 85.3966 222.351 85.9886 223.099 86.4376C223.847 86.8866 224.676 87.1837 225.539 87.3121C226.403 87.4405 227.282 87.3976 228.129 87.1859C228.975 86.9741 229.772 86.5977 230.473 86.078L270.669 56.2942C272.084 55.2452 273.025 53.6772 273.284 51.9349C273.543 50.1927 273.099 48.4189 272.051 47.0036C271.531 46.3024 270.879 45.7104 270.131 45.2614C269.383 44.8124 268.553 44.5152 267.69 44.3869C266.827 44.2585 265.947 44.3014 265.101 44.5131C264.254 44.7249 263.458 45.1013 262.757 45.621L222.56 75.4048C221.145 76.4538 220.205 78.0218 219.946 79.7641C219.687 81.5063 220.13 83.2801 221.179 84.6954Z" fill="#FFBF00"/>
<path d="M387.179 365.695C387.698 366.397 388.351 366.989 389.099 367.438C389.847 367.887 390.676 368.184 391.539 368.312C392.403 368.441 393.282 368.398 394.129 368.186C394.975 367.974 395.772 367.598 396.473 367.078L436.669 337.294C438.084 336.245 439.025 334.677 439.284 332.935C439.543 331.193 439.099 329.419 438.051 328.004C437.531 327.302 436.879 326.71 436.131 326.261C435.383 325.812 434.553 325.515 433.69 325.387C432.827 325.258 431.947 325.301 431.101 325.513C430.254 325.725 429.458 326.101 428.757 326.621L388.56 356.405C387.145 357.454 386.205 359.022 385.946 360.764C385.687 362.506 386.13 364.28 387.179 365.695Z" fill="#FFBF00"/>
<path d="M282.411 112.338C283.461 113.753 285.029 114.693 286.772 114.951C288.514 115.21 290.288 114.766 291.703 113.716L306.46 102.779C307.874 101.729 308.814 100.161 309.073 98.4183C309.331 96.6758 308.887 94.902 307.838 93.487C306.788 92.0722 305.22 91.1322 303.477 90.8738C301.735 90.6153 299.961 91.0596 298.546 92.1089L283.792 103.048C282.377 104.097 281.437 105.665 281.178 107.407C280.919 109.149 281.362 110.923 282.411 112.338Z" fill="#FFBF00"/>
<circle cx="251" cy="259" r="134" fill="#58B368"/>
<path d="M315.717 288.918V291.263C315.25 291.497 315.483 291.964 315.483 292.199C315.25 296.406 314.081 300.145 311.977 303.885C308.705 309.493 303.797 313.234 298.188 316.272C292.812 319.077 286.969 320.947 281.126 322.348C275.283 323.517 269.673 324.453 263.83 324.92C261.961 325.154 260.091 324.92 258.221 325.387C257.754 325.387 257.287 325.621 257.287 326.088C257.287 329.829 257.287 333.802 257.519 337.54H244.198C244.432 333.573 244.432 329.829 244.432 325.854C244.432 325.154 243.963 324.92 243.264 324.92C237.186 324.218 231.577 323.05 225.967 321.18C216.44 318.169 207.448 313.673 199.324 307.858C198.856 307.156 198.155 307.156 197.219 307.156C193.481 307.623 189.74 307.858 186 308.325V307.623C186.469 307.391 186.469 307.156 186.469 306.689C190.207 296.172 193.713 285.889 197.219 275.371C198.622 271.631 197.688 272.333 201.661 272.333C202.595 272.098 203.062 272.565 203.062 273.501C203.062 274.902 203.531 276.54 204.231 277.941C205.864 282.85 208.905 286.817 212.176 290.785C216.851 295.694 221.992 300.134 227.835 303.64C232.51 306.444 237.419 308.783 242.793 310.419C244.196 310.886 244.43 310.651 244.43 309.483V274.663C244.43 273.727 243.961 273.494 243.262 273.259C241.157 272.558 239.054 271.624 236.95 270.915C231.576 269.045 226.2 267.177 221.291 264.603C215.448 261.799 209.839 258.76 204.93 254.324C200.963 251.051 197.686 247.545 195.347 243.105C192.076 236.56 190.907 230.016 191.841 222.771C192.31 217.628 194.413 212.954 197.919 208.981C202.126 204.072 207.502 200.8 213.111 198.463C220.122 195.659 227.134 194.023 234.38 193.087C237.419 192.62 240.456 192.386 243.262 192.153C243.961 192.153 244.43 192.153 244.43 191.452C244.43 187.711 244.43 183.973 244.196 180H257.518C257.285 183.967 257.285 187.711 257.285 191.452C257.285 191.919 257.752 192.153 258.219 192.153C259.622 192.386 261.258 192.62 262.659 192.62C268.035 193.087 273.177 194.023 278.32 195.192C285.564 197.06 292.567 199.632 299.355 202.436C300.756 203.138 302.159 204.072 303.795 203.839C307.068 203.605 310.574 203.138 313.845 202.671C315.014 202.671 315.248 202.903 314.779 204.072L305.665 229.32C304.496 232.358 304.731 232.358 301.225 232.358C300.289 232.358 299.822 232.126 299.355 231.424C296.411 227.126 292.87 223.269 288.837 219.971C283.006 215.286 276.455 211.577 269.438 208.986C265.891 207.543 262.212 206.448 258.454 205.715C257.518 205.715 257.285 205.947 257.285 206.649V237.5C257.285 239.137 257.285 239.137 258.921 239.844C263.524 241.236 268.05 242.874 272.477 244.753C280.423 247.792 288.136 251.298 295.38 255.972C302.624 260.879 308.702 266.722 312.44 274.908C314.246 278.966 315.277 283.326 315.479 287.762C315.483 288.219 315.25 288.686 315.717 288.918ZM202.595 225.814C202.719 225.814 202.838 225.764 202.925 225.677C203.013 225.589 203.062 225.471 203.062 225.347C203.062 225.223 203.013 225.104 202.925 225.016C202.838 224.929 202.719 224.88 202.595 224.88C202.128 224.88 202.128 225.114 202.128 225.347C202.136 225.468 202.188 225.582 202.274 225.668C202.36 225.753 202.474 225.805 202.595 225.814ZM203.062 219.502C203.296 219.502 203.531 219.502 203.531 219.267C203.531 218.8 203.062 218.8 202.829 218.8C202.597 218.8 202.362 218.8 202.362 219.035C202.362 219.504 202.829 219.504 203.062 219.504V219.502ZM202.829 234.928C203.062 234.928 203.296 234.928 203.296 234.694C203.297 234.663 203.291 234.632 203.28 234.604C203.268 234.575 203.251 234.549 203.229 234.527C203.207 234.506 203.181 234.489 203.152 234.477C203.124 234.466 203.093 234.46 203.062 234.461C202.829 234.461 202.595 234.461 202.595 234.694C202.595 234.926 202.595 234.93 202.829 234.93V234.928ZM206.797 227.916C206.797 227.449 206.563 227.215 206.095 227.215C205.628 227.215 205.394 227.449 205.394 227.916C205.394 228.383 205.628 228.617 206.095 228.618C206.278 228.608 206.452 228.532 206.582 228.403C206.712 228.274 206.791 228.101 206.802 227.918L206.797 227.916ZM207.498 221.839C207.494 222.08 207.557 222.318 207.681 222.524C207.805 222.731 207.985 222.898 208.2 223.008C208.433 223.008 208.433 223.242 208.667 223.008C208.9 222.541 208.667 222.306 208.667 221.839V221.606C208.433 221.372 208.433 220.905 207.965 220.905C207.504 221.139 207.504 221.374 207.504 221.841L207.498 221.839ZM208.433 226.748C208.667 226.513 208.9 226.513 208.9 226.281C208.9 226.048 208.667 226.046 208.433 226.046C208.198 226.046 208.2 226.281 208.2 226.513C208.2 226.746 208.209 226.75 208.438 226.75L208.433 226.748ZM209.134 236.097C209.013 236.105 208.899 236.157 208.813 236.242C208.727 236.328 208.675 236.443 208.667 236.564C208.667 237.031 208.667 237.265 209.134 237.265C209.369 237.498 209.601 237.265 209.601 237.031C209.607 236.566 209.374 236.331 209.139 236.099L209.134 236.097ZM210.068 251.521C210.068 251.289 210.068 250.822 209.601 251.054C209.134 251.054 209.134 251.289 209.134 251.756C209.142 251.877 209.194 251.991 209.28 252.077C209.366 252.162 209.48 252.214 209.601 252.223C210.074 252.225 210.074 251.992 210.074 251.523L210.068 251.521ZM209.369 239.835C209.836 240.537 210.068 241.705 210.537 242.641C210.537 242.874 211.004 242.874 211.237 242.874C211.735 242.611 212.143 242.204 212.405 241.705C212.64 241.238 212.405 240.771 211.938 240.304C211.706 239.835 211.237 239.603 210.77 239.135C210.537 238.901 210.303 238.434 209.836 238.667C209.369 238.899 209.374 239.37 209.374 239.837L209.369 239.835ZM211.004 226.281C211.004 226.748 211.237 226.98 211.706 226.98C211.938 227.215 211.938 226.981 211.938 226.748C211.938 226.281 211.706 226.046 211.237 226.046C211.242 225.814 211.01 226.043 211.01 226.283L211.004 226.281ZM212.874 230.486H213.107C214.51 230.721 215.451 229.787 216.38 229.085C216.847 228.384 215.679 228.149 215.679 227.449V226.748C215.444 226.513 215.444 226.046 214.743 226.046C214.276 226.281 214.276 226.513 214.276 226.98V227.916C214.51 228.618 214.276 229.085 213.341 229.085C212.874 229.318 212.405 229.318 211.938 229.318C211.471 229.552 211.004 229.552 211.004 230.019C211.004 230.486 211.706 230.486 211.938 230.486H212.874ZM212.405 221.83C212.405 221.597 212.405 221.363 211.938 221.363C211.706 221.363 211.471 221.363 211.471 221.83C211.471 222.064 211.706 222.064 211.938 222.297C212.059 222.291 212.173 222.241 212.26 222.157C212.347 222.073 212.4 221.961 212.411 221.841L212.405 221.83ZM211.938 217.862C212.173 217.862 212.405 217.862 212.405 217.628C212.405 217.394 212.405 217.161 212.173 217.161C211.996 217.185 211.831 217.268 211.706 217.395C211.711 217.633 211.711 217.868 211.944 217.868L211.938 217.862ZM211.938 234.223C211.706 234.69 211.938 235.157 212.405 234.925C212.874 234.925 213.341 234.69 213.107 234.223C213.107 233.756 212.874 233.289 213.341 232.82C213.574 232.587 214.043 232.353 213.574 232.12C213.341 231.886 213.107 232.12 212.874 232.12C211.944 232.825 212.176 233.527 211.944 234.228L211.938 234.223ZM212.173 244.502C212.173 244.971 212.173 245.438 212.64 245.438C213.107 245.438 213.107 245.204 213.107 244.737C213.107 244.27 213.107 243.803 212.64 243.803C211.944 243.577 212.176 244.279 212.176 244.511L212.173 244.502ZM213.107 220.196C213.348 220.2 213.585 220.137 213.792 220.013C213.999 219.889 214.166 219.709 214.276 219.495C214.276 219.027 213.809 218.793 213.574 219.027C213.107 219.027 212.405 219.027 212.173 219.729C212.176 220.205 212.645 220.205 213.112 220.205L213.107 220.196ZM223.624 231.648C223.392 232.349 223.392 233.051 222.69 233.285C221.754 234.219 221.055 235.154 220.82 236.557C220.82 237.024 220.353 237.258 219.886 237.024C219.419 236.789 218.717 236.557 218.248 236.322C217.549 235.855 217.549 235.154 218.248 234.686C218.717 234.454 219.417 234.219 219.886 234.219C220.353 233.985 220.82 233.752 220.586 233.051C220.351 232.349 220.353 231.648 219.417 231.415H219.184C218.717 232.349 218.016 232.349 217.08 232.584C216.847 232.584 216.847 232.816 216.613 233.051C216.38 233.752 216.146 233.752 215.444 233.285C215.212 233.285 214.977 233.051 214.743 233.285C214.508 233.52 214.743 233.752 214.977 233.985C215.212 234.454 215.212 234.686 214.743 235.154C214.276 235.855 214.043 236.322 213.574 237.024C212.874 237.491 212.874 238.192 213.107 238.894C213.341 239.128 213.341 239.361 213.809 239.361C214.043 239.128 214.043 239.128 214.043 238.894C214.043 237.96 214.743 237.491 215.212 237.024C215.444 236.791 215.911 235.855 216.38 236.557C216.849 237.258 218.016 237.725 217.08 238.659C216.38 239.361 215.911 239.828 215.444 240.529C215.212 240.529 215.212 240.997 215.212 241.231H215.911C217.314 240.997 217.549 241.231 217.549 242.634C217.549 243.334 217.314 243.803 218.248 244.27C218.483 244.502 218.717 244.737 218.483 245.204C218.248 245.438 218.016 245.438 217.549 245.438C216.847 244.971 215.911 245.438 215.204 245.671C214.99 245.78 214.81 245.948 214.686 246.155C214.562 246.361 214.498 246.599 214.503 246.84C214.503 247.308 214.735 247.776 215.204 247.776C215.671 248.008 215.904 247.776 216.138 247.308C216.606 246.84 216.84 246.607 217.307 246.84C218.241 247.074 219.177 247.541 220.111 248.008C220.326 248.118 220.505 248.285 220.629 248.492C220.753 248.699 220.817 248.936 220.813 249.177C221.047 250.814 221.28 252.683 222.216 254.32C222.216 254.553 222.216 255.02 222.683 255.02C222.916 255.02 223.15 254.787 223.385 254.553C223.385 254.32 223.617 254.086 223.617 253.851C223.727 253.637 223.895 253.458 224.101 253.334C224.308 253.21 224.545 253.147 224.786 253.152C225.253 253.152 225.253 253.619 225.487 254.086C225.487 254.553 225.722 255.254 226.422 255.254C227.121 255.254 227.59 254.553 227.59 253.851C228.03 252.057 227.866 250.168 227.123 248.477C226.189 246.607 226.189 245.204 227.825 243.803C228.526 243.334 228.526 242.634 228.292 241.698C228.283 241.577 228.231 241.463 228.145 241.377C228.06 241.291 227.946 241.239 227.825 241.231C227.357 241.231 227.357 241.698 227.357 241.933V242.4C227.357 242.867 227.357 243.101 227.123 243.334C226.656 243.334 226.189 243.568 225.722 243.101C225.487 242.867 225.487 242.634 225.722 242.165C225.954 241.933 226.189 241.698 225.954 241.698C225.487 240.997 225.487 240.062 224.786 239.595C223.852 238.894 222.216 238.659 222.916 236.791L222.683 236.557C221.982 235.622 222.449 234.921 223.15 234.212C223.852 233.503 224.097 232.593 223.63 231.657L223.624 231.648ZM213.809 249.177C213.778 249.145 213.742 249.12 213.702 249.103C213.662 249.086 213.619 249.078 213.575 249.078C213.531 249.078 213.488 249.086 213.448 249.103C213.408 249.12 213.372 249.145 213.341 249.177C213.31 249.176 213.28 249.182 213.251 249.193C213.222 249.205 213.196 249.222 213.174 249.244C213.152 249.266 213.135 249.292 213.123 249.321C213.112 249.349 213.106 249.38 213.107 249.411C213.341 249.646 213.341 249.646 213.574 249.646C213.807 249.646 213.814 249.42 213.814 249.186L213.809 249.177ZM214.977 253.619C214.51 253.851 214.51 254.086 214.51 254.553C214.51 255.02 214.743 255.489 215.212 255.489C215.68 255.489 215.679 255.254 215.679 254.787C215.68 254.55 215.616 254.316 215.493 254.113C215.371 253.909 215.194 253.744 214.983 253.635L214.977 253.619ZM218.016 218.326C217.781 217.859 217.781 217.157 217.08 217.157C216.613 216.923 216.38 217.392 216.38 217.859C216.38 218.56 216.847 218.793 217.314 218.793C217.787 219.037 217.787 218.802 218.021 218.335L218.016 218.326ZM218.016 239.828C218.016 240.529 218.483 240.764 218.95 240.997H219.652C220.119 241.231 220.586 241.465 220.586 241.933C220.586 243.803 221.989 244.971 222.223 246.84C222.223 247.541 222.923 247.776 223.392 247.308L224.793 244.502C225.027 243.803 224.092 243.568 224.092 243.101C223.392 240.757 221.055 240.529 219.652 239.134C219.652 238.899 219.417 239.134 219.417 238.899C218.955 239.137 218.254 239.137 218.021 239.837L218.016 239.828ZM220.119 255.02C219.886 254.553 219.652 254.086 218.95 253.851C218.483 253.619 218.483 254.086 218.483 254.32C218.483 255.02 218.717 255.489 219.417 255.721C219.891 255.73 220.124 255.498 220.124 255.029L220.119 255.02ZM224.326 234.461C224.092 234.461 223.859 234.461 224.092 234.694C224.092 234.928 224.326 234.928 224.56 235.161C224.682 235.152 224.795 235.1 224.881 235.015C224.967 234.929 225.019 234.815 225.027 234.694C225.033 234.463 224.566 234.463 224.331 234.463L224.326 234.461ZM244.427 219.969V206.882C244.427 205.244 244.192 205.011 242.557 205.479C241.925 205.454 241.293 205.533 240.686 205.713C236.012 206.647 231.572 208.057 228.299 211.789C224.56 215.996 223.624 223.008 229.467 227.215C233.675 230.254 238.349 232.356 243.024 233.992C244.192 234.694 244.427 234.461 244.427 233.058V219.969ZM226.898 233.992C227.019 233.984 227.133 233.932 227.219 233.846C227.304 233.76 227.356 233.646 227.365 233.525C227.365 233.292 227.365 233.058 226.898 233.058C226.774 233.058 226.655 233.107 226.567 233.195C226.48 233.282 226.431 233.401 226.431 233.525C226.431 233.649 226.48 233.768 226.567 233.855C226.655 233.943 226.774 233.992 226.898 233.992ZM230.403 237.265H230.169C229.467 238.199 228.766 238.434 227.825 238.434C227.123 238.667 227.123 239.135 227.357 239.603C227.592 240.07 228.292 240.304 228.526 239.835C228.993 238.901 229.927 238.901 230.629 238.901C231.096 238.901 231.565 238.901 231.565 238.199C231.343 237.734 230.876 237.267 230.409 237.267L230.403 237.265ZM229.235 246.147C228.299 246.147 228.066 246.147 228.066 246.614C228.533 247.316 228.533 248.25 228.766 248.959C229 249.426 229.467 249.893 230.169 249.66C230.636 249.66 231.103 249.191 231.338 248.724C231.577 247.55 230.409 246.149 229.24 246.149L229.235 246.147ZM228.299 256.426C228.766 256.661 229.235 256.661 229.235 257.361C229.467 258.297 230.169 258.998 230.636 259.932C230.871 260.167 231.103 260.866 231.572 260.399C232.039 260.167 231.805 259.698 231.805 259.465C231.572 258.764 231.103 258.297 231.103 257.595C230.871 255.725 230.636 255.725 229.235 255.959C228.768 256.197 228.539 255.965 228.304 256.432L228.299 256.426ZM229.235 262.27C229.235 262.035 229.235 261.802 229 261.802C228.877 261.802 228.758 261.852 228.67 261.939C228.583 262.027 228.533 262.146 228.533 262.27C228.533 262.393 228.583 262.512 228.67 262.6C228.758 262.687 228.877 262.737 229 262.737C229.24 262.742 229.24 262.509 229.24 262.275L229.235 262.27ZM234.609 250.818C234.609 249.18 233.909 248.713 232.973 249.18C232.037 249.648 231.103 250.583 230.169 251.285C229.702 251.752 229.702 252.219 230.403 252.219C231.338 252.454 232.039 252.921 232.506 253.855C232.741 254.324 233.208 254.556 233.44 254.556C234.376 254.791 234.843 255.492 235.311 256.426C235.778 257.595 236.012 258.771 237.181 259.231C237.415 259.465 237.648 259.698 237.648 259.932C237.882 261.101 239.051 262.035 240.219 261.802C240.686 261.802 241.154 261.568 241.154 261.101C241.388 260.399 240.686 260.167 240.219 260.399C239.051 260.399 238.349 259.698 237.875 258.764C237.401 257.83 236.939 256.661 237.173 255.492C237.173 254.791 237.173 254.324 236.472 254.089C234.849 253.393 233.446 252.692 234.614 250.823L234.609 250.818ZM230.871 243.105C230.636 244.039 231.805 244.975 232.039 246.143C232.039 246.376 232.272 246.376 232.506 246.376C232.973 246.376 232.973 246.143 232.973 245.675C232.741 244.273 233.675 243.33 234.142 242.169C234.376 241.936 234.843 241.702 234.609 241.235C234.142 240.768 233.909 240.066 232.973 240.3C231.576 240.534 230.877 241.47 230.876 243.11L230.871 243.105ZM232.973 251.051C232.852 251.059 232.738 251.111 232.652 251.197C232.567 251.283 232.515 251.397 232.506 251.518C232.506 251.752 232.506 251.752 232.741 251.752C232.975 251.752 233.208 251.752 233.208 251.518C233.208 251.283 233.213 251.056 232.979 251.056L232.973 251.051ZM236.012 249.18V250.116C236.012 251.752 236.479 251.987 238.115 251.752C238.349 251.752 238.816 251.752 239.051 251.987C239.518 252.219 239.985 252.454 240.219 251.987C240.454 251.519 240.219 251.051 239.752 250.818C239.334 250.634 239.001 250.3 238.816 249.882C238.349 249.415 237.415 249.18 237.415 248.481C237.415 247.312 238.349 247.312 239.051 246.843C239.985 246.143 239.985 245.443 239.051 244.74C238.584 244.506 238.349 244.273 238.584 244.039C239.051 243.105 239.051 242.403 238.584 241.694C238.349 241.462 237.882 240.993 237.415 241.227C236.948 241.462 237.181 241.929 237.181 242.162C237.181 242.863 237.181 243.33 236.479 242.863C235.778 242.396 235.31 242.63 234.843 243.33C234.835 243.763 234.669 244.179 234.376 244.499C234.142 245.2 233.675 245.902 234.376 246.369C235.078 246.603 235.545 246.136 236.012 245.667V245.435C236.246 244.968 236.479 244.733 236.946 244.968C237.236 245.233 237.474 245.55 237.648 245.902C237.648 246.369 237.415 246.369 236.946 246.603C236.479 246.603 236.012 247.07 236.012 247.772V249.18ZM236.714 260.866C236.702 260.684 236.625 260.512 236.496 260.383C236.366 260.255 236.194 260.177 236.012 260.167C235.545 260.167 235.311 260.634 235.311 261.101C235.311 261.568 235.545 261.802 236.012 261.802C236.479 261.802 236.719 261.57 236.719 260.872L236.714 260.866ZM237.648 239.599C238.349 239.599 238.816 239.599 238.816 238.897C238.826 238.741 238.802 238.585 238.747 238.439C238.691 238.293 238.606 238.16 238.495 238.05C238.385 237.94 238.252 237.854 238.106 237.798C237.96 237.743 237.804 237.719 237.648 237.729C237.181 237.729 236.714 238.196 236.479 238.897C236.485 239.37 237.186 239.604 237.653 239.604L237.648 239.599ZM239.752 264.607C239.051 264.607 238.816 264.607 238.584 265.074C238.584 265.308 238.349 265.541 238.584 265.775C239.051 266.01 239.283 265.541 239.518 265.541L239.752 265.308C239.985 265.308 240.686 265.308 240.452 264.841C240.457 264.378 239.99 264.612 239.758 264.612L239.752 264.607ZM243.024 254.327C243.055 254.328 243.085 254.323 243.114 254.311C243.143 254.299 243.169 254.282 243.191 254.26C243.213 254.238 243.23 254.212 243.242 254.183C243.253 254.155 243.259 254.124 243.258 254.093C243.725 253.858 244.192 253.391 244.894 253.858C245.126 254.093 245.361 254.327 245.361 254.794C245.126 255.496 244.894 255.963 243.958 256.196C243.491 256.196 243.024 256.196 242.789 256.665C242.322 257.132 242.089 256.897 241.855 256.43C241.388 255.027 241.388 255.027 240.219 255.963C239.851 256.304 239.536 256.698 239.283 257.132C238.349 258.3 238.584 259.234 240.219 259.476C242.089 259.709 243.725 260.178 244.187 262.28C244.421 262.747 244.654 262.982 245.121 262.747C245.59 262.747 245.823 262.515 245.823 262.046C245.938 261.83 245.998 261.59 245.998 261.345C245.998 261.101 245.938 260.86 245.823 260.645C245.121 259.943 245.355 259.242 246.29 259.009C246.524 258.775 246.759 258.775 246.759 258.54C247.458 257.84 248.16 257.84 248.861 258.073C249.328 258.54 250.03 258.54 250.964 258.54C251.433 258.54 252.133 258.54 252.133 257.84C252.133 257.141 251.433 255.97 250.731 255.97C250.03 255.97 250.03 255.736 250.497 255.269C250.731 254.802 250.731 254.567 250.497 254.335C249.795 253.399 250.264 252.932 251.198 252.464L252.367 251.296C253.301 250.594 253.301 250.127 252.367 249.191C251.9 248.959 250.964 248.492 250.731 247.79C250.03 246.387 248.627 245.92 247.226 245.685C245.355 245.453 244.881 245.685 244.881 247.556V248.257C244.881 248.959 245.114 249.66 244.18 249.66C243.478 249.66 242.777 249.191 242.777 248.492C242.777 248.023 242.544 247.556 242.31 247.088C241.842 246.854 241.608 246.854 241.141 247.088C240.674 247.323 240.908 247.79 241.141 248.023C241.842 248.492 241.608 248.959 241.141 249.426C240.674 249.893 240.674 250.127 241.141 250.594C242.095 251.523 242.328 252.926 243.029 254.329L243.024 254.327ZM244.659 242.407C244.659 241.473 244.192 241.238 243.491 240.771C242.09 240.304 241.855 240.537 241.388 241.705C240.921 242.407 241.154 242.874 241.621 243.341C242.258 244.173 243.169 244.753 244.192 244.978C244.659 244.978 245.126 244.978 244.894 244.51C244.665 243.812 244.432 243.11 244.665 242.409L244.659 242.407ZM247.231 266.713C247.22 266.531 247.142 266.359 247.013 266.23C246.884 266.101 246.712 266.024 246.529 266.013C246.295 265.779 245.828 265.779 245.595 266.246C245.361 266.948 245.361 267.649 245.126 268.351C245.126 268.583 245.361 268.583 245.595 268.583C246.068 268.585 247.236 267.416 247.236 266.715L247.231 266.713ZM246.062 239.842C245.935 239.827 245.806 239.84 245.685 239.88C245.564 239.921 245.453 239.988 245.361 240.077C245.361 240.544 245.828 240.544 246.062 240.544C246.297 240.544 246.529 240.544 246.529 240.077C246.535 239.837 246.3 239.837 246.068 239.837L246.062 239.842ZM245.595 251.763C245.828 252.931 246.529 254.107 246.997 255.034C246.997 255.503 247.231 255.503 247.698 255.503C247.819 255.495 247.934 255.443 248.02 255.356C248.105 255.27 248.157 255.156 248.165 255.034C248.165 254.335 248.165 253.633 248.4 253.166C248.632 251.763 247.698 250.594 246.295 250.822C245.601 250.823 245.601 251.056 245.601 251.757L245.595 251.763ZM247.231 234.935C247.207 234.758 247.124 234.594 246.997 234.468C246.529 234.468 246.529 234.701 246.529 234.935C246.529 235.17 246.529 235.402 246.764 235.402C246.887 235.395 247.003 235.343 247.09 235.256C247.177 235.169 247.229 235.053 247.236 234.93L247.231 234.935ZM248.165 260.645C248.632 260.645 249.334 260.645 249.101 259.943C249.101 259.476 248.632 259.476 248.165 259.476C247.698 259.476 246.997 259.476 246.997 259.943C247.002 260.639 247.703 260.639 248.171 260.639L248.165 260.645ZM251.438 263.683C251.438 263.449 251.438 263.449 251.204 263.215C250.737 262.747 249.101 262.982 248.632 263.683C248.632 263.916 248.4 264.383 247.933 264.618C247.465 264.852 247.231 265.085 247.698 265.552C247.933 265.786 248.165 265.786 248.632 265.319C249.101 264.618 249.801 264.618 250.737 264.383C251.208 264.38 251.444 264.144 251.444 263.678L251.438 263.683ZM250.035 267.422C250.035 266.955 250.035 266.488 249.568 266.488C249.101 266.253 248.867 266.488 248.867 266.72C248.4 267.422 247.933 268.123 247.698 268.825C247.464 269.292 247.464 269.526 247.698 269.759C248.165 269.994 248.4 269.759 248.632 269.759C249.339 269.052 249.806 268.352 250.048 267.416L250.035 267.422ZM251.438 250.831C251.438 250.362 250.969 250.362 250.737 250.362C250.27 250.362 249.801 250.362 249.801 250.831C249.801 251.299 250.27 251.53 250.737 251.53C250.975 251.523 251.444 251.523 251.444 250.823L251.438 250.831ZM250.035 241.482C250.052 241.661 250.136 241.828 250.27 241.949C250.737 241.949 250.737 241.714 250.737 241.482C250.737 241.249 250.737 241.013 250.502 241.013C250.048 241.011 250.048 241.24 250.048 241.474L250.035 241.482ZM251.204 243.117C250.035 243.35 250.502 244.286 250.502 245.22C250.502 245.922 250.969 246.623 251.905 246.389C252.607 246.389 253.074 246.623 253.307 247.325C253.539 248.026 254.008 248.024 254.475 247.792L255.177 247.09C255.411 246.623 255.878 246.389 255.644 245.922C255.177 245.455 254.944 245.687 254.475 245.922C254.243 245.922 254.008 246.156 253.776 245.922C253.307 245.687 253.541 245.22 253.776 244.988C254.008 244.052 253.541 243.819 252.607 244.052C251.673 244.284 251.204 244.052 251.204 242.883H251.905C252.138 242.883 252.373 242.416 252.373 242.181C252.138 241.949 252.138 241.949 252.138 241.714C251.956 241.725 251.784 241.803 251.655 241.932C251.526 242.061 251.449 242.233 251.438 242.416C251.454 242.541 251.441 242.669 251.401 242.789C251.362 242.909 251.296 243.018 251.209 243.11L251.204 243.117ZM272.239 255.505C272.004 253.635 271.07 252.232 270.136 250.596C269.902 250.596 269.667 250.362 269.667 250.596C269.435 250.596 269.2 250.831 269.435 251.063C269.667 251.765 269.667 252.466 270.136 252.933C270.836 254.102 270.603 255.278 270.369 256.439C270.136 256.906 269.902 257.373 269.435 257.373C268.733 257.373 268.733 256.674 268.733 256.205C268.733 254.803 267.799 253.86 266.389 253.86C265.22 253.86 264.286 254.095 263.35 254.095C262.181 254.095 261.005 254.095 260.546 252.692C260.546 252.459 260.311 251.992 259.844 252.225C258.675 252.459 258.443 251.992 258.208 250.823C258.208 250.589 258.208 250.354 257.741 250.354C257.62 250.363 257.506 250.415 257.42 250.501C257.334 250.587 257.282 250.702 257.274 250.823C257.147 250.949 257.064 251.113 257.04 251.29C256.106 252.926 255.871 253.161 254.235 252.459C254.109 252.443 253.98 252.456 253.858 252.496C253.737 252.537 253.626 252.603 253.534 252.692V253.161C254.235 254.095 254.235 254.796 253.534 255.505C253.299 255.738 253.299 256.205 253.299 256.439C252.832 257.608 253.067 259.011 251.898 260.179C251.664 260.646 251.664 261.348 252.131 261.581C253.299 262.749 253.534 263.925 253.299 265.321C253.299 265.788 253.534 266.022 254.001 266.255C254.235 266.255 254.703 266.255 254.937 266.022C255.404 265.788 254.937 265.554 254.703 265.321C254.468 264.854 254.703 264.385 254.703 263.918C254.703 263.216 254.703 262.749 254.235 262.282C253.534 261.114 254.235 260.412 254.937 259.71C255.17 259.243 255.637 259.478 255.871 259.945C255.871 260.412 255.871 260.646 256.106 260.879C256.338 261.581 256.805 262.048 257.741 262.048C258.443 262.048 259.377 261.815 259.611 261.114C259.611 260.179 260.078 259.711 260.546 259.011C261.247 258.075 261.013 257.373 260.078 257.141C259.611 256.906 259.142 256.906 259.377 256.205C259.377 255.738 259.377 255.271 260.078 255.036C260.546 254.803 260.78 255.271 261.247 255.505C261.714 256.439 262.181 257.373 263.591 257.608C264.293 257.842 264.526 258.542 264.526 259.243C264.76 260.085 264.76 260.974 264.526 261.815C264.393 262.039 264.344 262.302 264.387 262.559C264.43 262.815 264.562 263.048 264.76 263.216C264.993 263.451 265.462 263.685 265.462 263.216C265.694 261.815 266.161 262.282 266.63 262.984C266.863 262.984 266.863 263.216 267.097 263.216C268.733 264.619 270.836 265.788 272.473 267.184C272.706 267.416 272.94 267.416 273.407 267.184C273.875 266.715 274.576 266.248 274.81 265.314C274.81 264.145 275.511 263.444 276.913 263.209C277.38 263.209 277.847 262.976 278.082 262.275C278.082 262.041 278.082 261.573 278.549 261.573C279.016 261.573 279.018 262.04 279.018 262.509C279.485 263.209 279.018 263.911 279.25 264.854C279.25 265.321 279.952 265.788 279.25 266.255L278.082 267.424H277.38C276.913 267.191 277.148 266.722 277.148 266.49C277.38 266.49 277.38 266.255 277.615 266.022C277.615 265.788 277.847 265.554 277.615 265.321C277.148 264.854 276.913 265.086 276.681 265.554C275.979 266.255 275.278 267.191 275.278 268.36C275.043 269.294 274.81 269.995 274.342 270.704C273.173 271.873 272.473 273.274 270.836 273.741C270.73 273.797 270.641 273.882 270.579 273.984C270.517 274.087 270.485 274.205 270.485 274.325C270.485 274.445 270.517 274.563 270.579 274.666C270.641 274.769 270.73 274.853 270.836 274.91C271.07 275.611 271.305 274.91 271.537 274.677C272.706 273.508 275.505 273.041 276.913 273.741C277.091 273.765 277.255 273.848 277.38 273.975C277.847 274.443 277.847 275.611 278.549 275.144C279.485 274.677 278.783 273.975 278.549 273.508C278.461 273.416 278.394 273.305 278.354 273.184C278.313 273.062 278.301 272.934 278.316 272.807C278.316 272.105 278.316 271.404 279.018 271.404C279.909 271.197 280.772 270.883 281.588 270.47C282.289 269.768 282.756 270.235 283.223 270.937C283.69 271.404 283.223 271.873 282.522 272.105C281.822 272.572 281.588 273.274 281.588 274.21C281.596 274.331 281.648 274.445 281.734 274.531C281.82 274.617 281.934 274.669 282.055 274.677C282.289 274.677 282.522 274.677 282.522 274.442C282.756 274.21 282.756 273.975 282.991 273.741C283.69 272.34 284.159 270.704 285.093 269.301C285.328 268.599 284.859 267.898 284.159 267.665C282.991 267.425 282.055 267.892 281.353 269.067C281.121 270.003 280.419 270.003 279.718 270.003C279.251 270.003 279.018 269.769 279.018 269.301C279.018 268.599 279.718 268.599 280.186 268.367C280.655 268.134 281.121 267.898 281.353 267.431C281.603 266.67 282.096 266.013 282.756 265.561C283.223 265.328 283.223 264.861 282.991 264.392C282.522 264.16 282.055 264.16 281.822 264.392C281.589 264.625 281.588 264.861 281.353 264.861C281.354 264.892 281.348 264.922 281.337 264.951C281.326 264.979 281.308 265.005 281.287 265.027C281.265 265.049 281.239 265.066 281.21 265.077C281.182 265.089 281.151 265.094 281.121 265.094C280.886 265.094 280.886 264.861 280.886 264.627C281.121 264.392 281.353 263.925 281.588 263.692C281.588 263.224 281.822 262.756 281.588 262.289C280.654 261.588 280.186 260.419 279.485 259.251C279.018 258.549 278.783 257.615 279.952 256.906C280.006 256.865 280.051 256.812 280.081 256.752C280.112 256.691 280.128 256.624 280.128 256.555C280.128 256.487 280.112 256.42 280.081 256.359C280.051 256.298 280.006 256.245 279.952 256.205C279.952 255.972 279.718 255.738 279.485 255.972C278.743 256.184 278.035 256.498 277.38 256.906C276.913 257.373 276.681 258.309 276.446 259.011C276.212 259.712 276.681 259.71 277.148 259.945V260.646C276.913 260.646 276.681 260.879 276.446 260.646C276.212 260.646 275.979 260.412 275.745 260.179C275.043 259.945 274.342 259.711 273.875 260.179C273.407 260.412 273.407 261.114 272.706 260.879C272.239 260.646 272.473 260.179 272.473 259.71C272.473 259.242 272.239 258.776 271.772 259.011C271.305 259.245 271.07 259.478 270.836 259.011C270.601 258.544 270.836 258.075 271.305 257.842C272.244 257.366 272.479 256.432 272.244 255.498L272.239 255.505ZM253.547 274.895C253.547 274.663 253.547 274.663 253.312 274.663C253.078 274.663 253.079 274.663 253.079 274.895C253.079 275.128 253.079 275.13 253.312 275.13C253.343 275.13 253.374 275.125 253.403 275.113C253.431 275.102 253.458 275.085 253.48 275.063C253.501 275.041 253.519 275.015 253.53 274.986C253.542 274.957 253.547 274.926 253.547 274.895ZM255.891 250.354C255.657 249.887 255.424 249.887 254.957 249.887C254.722 249.887 254.255 249.887 254.255 250.354C254.255 250.822 254.488 251.056 254.957 251.056C255.426 251.056 255.649 250.823 255.884 250.354H255.891ZM255.189 241.698C254.722 241.698 254.722 241.933 254.722 242.165C254.722 242.634 254.957 242.867 255.189 242.867C255.657 242.867 255.657 242.634 255.657 242.4C255.649 241.942 255.417 241.707 255.182 241.707L255.189 241.698ZM255.424 256.89C254.957 256.89 254.724 257.124 254.722 257.591C254.722 258.059 254.722 258.526 255.189 258.526C255.372 258.515 255.544 258.438 255.673 258.309C255.802 258.18 255.88 258.008 255.891 257.826C255.884 257.366 255.884 256.899 255.417 256.899L255.424 256.89ZM255.424 268.343C255.657 268.109 255.891 268.109 255.891 267.642C255.891 267.407 255.657 267.407 255.424 267.407C255.191 267.407 254.957 267.407 254.957 267.875C254.95 268.118 254.95 268.118 255.417 268.352L255.424 268.343ZM259.631 245.671C258.695 245.671 258.463 245.204 258.228 244.502C258.228 244.035 258.228 243.568 257.994 243.334C257.759 243.099 257.294 243.101 257.06 243.101C256.592 243.334 256.592 243.803 256.825 244.035C257.06 244.502 257.294 244.971 257.294 245.438C257.294 246.14 257.527 246.607 258.228 246.607C258.93 246.84 259.397 246.373 259.631 245.671H260.327C260.562 245.671 260.796 245.671 261.029 245.204L260.796 244.971C260.667 244.858 260.5 244.795 260.328 244.795C260.156 244.795 259.99 244.858 259.86 244.971C259.857 245.213 259.624 245.447 259.624 245.68L259.631 245.671ZM260.8 268.343C260.098 267.875 259.864 267.175 259.397 266.473C259.162 266.473 258.93 266.473 258.93 266.706C258.463 267.642 257.761 268.109 257.06 268.81C256.825 269.278 256.592 269.512 256.825 269.979C257.06 270.212 257.527 270.212 257.994 270.212C258.228 270.212 258.695 269.745 258.695 269.512C258.936 268.811 259.403 268.577 260.098 268.81C260.327 268.819 260.558 269.052 260.793 268.352L260.8 268.343ZM257.294 295.214V311.805C257.294 312.273 257.761 312.507 258.228 312.507C261.267 312.273 264.54 312.04 267.577 310.871C273.186 309.001 277.393 305.73 278.796 299.652C279.73 296.381 279.73 293.108 278.094 290.303C276.459 287.959 274.589 286.336 272.251 284.695C268.044 282.123 263.37 280.253 258.695 278.617C257.527 278.15 257.294 278.15 257.294 279.552V295.214ZM259.162 254.546C259.162 254.078 258.93 253.844 258.695 253.844C258.461 253.844 258.228 253.844 258.228 254.313C258.237 254.434 258.288 254.548 258.374 254.634C258.46 254.72 258.574 254.772 258.695 254.78C258.922 254.796 259.155 254.796 259.155 254.562L259.162 254.546ZM259.864 263.894C259.864 263.427 259.631 262.96 259.162 262.96C258.693 262.96 258.463 263.427 258.463 263.894C258.463 264.361 258.463 264.83 259.162 264.83C259.624 264.847 259.857 264.378 259.857 263.914L259.864 263.894ZM261.5 271.608C261.267 271.14 261.032 270.673 260.565 270.439C260.098 270.439 260.098 270.906 260.098 271.14C260.331 271.842 260.565 272.075 261.032 272.075C261.5 272.075 261.492 271.858 261.492 271.624L261.5 271.608ZM262.903 261.328C262.662 260.16 262.194 259.692 261.5 259.925C260.8 260.392 260.565 262.497 261.267 262.964C261.734 263.431 261.968 263.898 261.267 264.6C260.8 265.067 260.8 265.534 261.032 266.235C261.041 266.356 261.093 266.47 261.179 266.556C261.264 266.642 261.378 266.694 261.5 266.702C261.734 266.702 261.734 266.47 261.968 266.235C261.968 265.534 262.436 265.067 263.137 264.834C263.837 264.365 263.837 263.898 263.37 263.431C262.661 262.742 262.194 262.04 262.895 261.341L262.903 261.328ZM262.201 269.741C262.436 269.741 264.071 268.34 264.071 268.105C264.071 267.871 264.071 267.871 263.837 267.638C263.137 267.404 262.668 268.105 262.201 268.572C262.08 268.581 261.966 268.633 261.88 268.719C261.794 268.804 261.742 268.918 261.734 269.04C261.492 269.521 261.727 269.754 262.194 269.754L262.201 269.741ZM262.668 251.51C262.201 251.745 261.968 251.745 261.968 252.212C261.968 252.446 262.436 252.679 262.668 252.913C263.137 252.913 263.137 252.679 263.137 252.212C263.362 251.757 262.895 251.757 262.661 251.523L262.668 251.51ZM262.903 250.109C263.03 249.983 263.112 249.819 263.137 249.642L262.903 249.408C262.781 249.416 262.668 249.468 262.582 249.554C262.496 249.64 262.444 249.754 262.436 249.875C262.557 250.005 262.719 250.092 262.895 250.122L262.903 250.109ZM263.604 255.485C263.604 256.185 263.837 256.419 264.306 256.419C265.005 256.185 266.174 256.185 266.174 255.485C266.174 254.549 265.005 255.251 264.538 254.784C264.064 255.029 263.597 255.029 263.597 255.498L263.604 255.485ZM265.474 266.47C265.24 266.003 265.005 265.534 264.306 265.534C264.071 265.534 263.837 265.534 264.071 266.003C264.071 266.47 264.538 266.702 265.005 266.937C265.124 266.927 265.235 266.877 265.319 266.794C265.404 266.711 265.456 266.6 265.467 266.482L265.474 266.47ZM265.474 271.144C265.474 270.677 265.707 270.208 265.24 269.975C264.773 269.743 264.538 270.208 264.306 270.443C263.604 270.91 264.306 271.144 264.538 271.611V272.078C264.773 272.313 264.773 272.78 265.24 272.78C265.474 272.545 265.474 272.078 265.474 271.846V271.144ZM269.68 260.865C269.68 259.931 269.447 258.996 268.746 258.52C268.044 258.288 267.811 258.053 267.811 257.352C267.577 256.885 267.343 256.652 266.876 256.652C266.174 256.885 265.707 257.352 265.707 258.053C265.474 258.989 265.005 260.158 266.174 260.625C267.11 261.092 268.044 261.092 269.213 261.559C269.44 261.57 269.907 261.341 269.673 260.872L269.68 260.865ZM266.174 273.489C265.941 273.489 265.707 273.721 265.707 274.19C265.707 274.423 265.707 274.89 266.174 275.124C266.643 275.124 266.643 274.657 266.876 274.423C266.868 273.961 266.639 273.727 266.167 273.494L266.174 273.489ZM267.11 248.713C267.11 248.481 267.11 248.246 266.876 248.246C266.409 248.246 266.175 248.48 266.174 248.948C265.941 249.18 266.174 249.415 266.408 249.415C266.643 249.415 266.868 248.946 267.103 248.719L267.11 248.713ZM267.811 265.775C267.811 265.775 267.811 265.308 267.577 265.074C267.343 264.607 267.11 264.372 266.643 264.607C266.176 264.841 266.408 265.074 266.643 265.308C267.11 266.01 266.875 266.71 266.408 267.411C266.174 267.645 266.174 268.113 266.408 268.113C266.875 268.347 267.11 268.113 267.343 267.878C267.658 267.225 267.816 266.506 267.804 265.781L267.811 265.775ZM267.811 276.293C267.803 276.171 267.751 276.057 267.665 275.971C267.578 275.885 267.464 275.834 267.343 275.826C267.11 275.826 266.875 275.826 266.643 276.293C266.643 276.527 266.875 276.527 267.11 276.527C267.335 276.765 267.57 276.538 267.804 276.298L267.811 276.293ZM270.616 268.347C270.381 267.878 270.616 266.944 269.68 266.477C269.213 266.477 269.213 267.178 269.213 267.411C269.213 268.113 269.213 269.047 270.149 269.047C270.374 269.287 270.607 268.819 270.607 268.352L270.616 268.347ZM271.55 265.308C272.953 265.074 272.251 263.673 272.486 262.964C272.72 262.255 272.017 261.795 271.317 261.795C270.381 261.795 270.149 262.497 270.149 262.964C270.141 264.378 270.841 265.314 271.543 265.314L271.55 265.308ZM273.654 257.361C273.654 257.83 273.42 258.297 273.887 258.297C274.354 258.529 274.589 258.062 274.823 257.83C275.29 257.128 275.523 256.661 275.992 256.192C276.459 255.959 276.459 255.492 276.224 255.258C275.992 254.791 275.523 254.791 275.29 255.023C274.347 255.498 273.647 256.197 273.647 257.366L273.654 257.361ZM275.29 277.461C274.823 277.461 274.823 277.696 274.823 278.163C274.823 278.396 274.823 278.63 275.29 278.63C275.523 278.63 275.523 278.396 275.523 277.928C275.516 277.701 275.516 277.467 275.283 277.467L275.29 277.461ZM277.635 279.097H277.867C278.336 278.864 278.569 278.163 279.27 278.163C279.505 277.928 279.737 277.696 279.505 277.227C279.358 277.072 279.167 276.966 278.958 276.924C278.748 276.882 278.531 276.907 278.336 276.994C278.102 277.461 277.635 277.928 277.4 278.396C277.166 278.863 277.386 279.103 277.62 279.103L277.635 279.097ZM280.206 279.799C280.206 279.564 280.206 279.332 279.737 279.332C279.505 279.332 279.505 279.332 279.505 279.564C279.505 280.033 279.505 280.033 279.737 280.033C280.192 280.038 280.192 279.804 280.192 279.804L280.206 279.799ZM281.373 276.058C280.907 276.058 280.673 276.292 280.673 276.76C280.673 276.994 280.673 277.461 281.14 277.461C281.608 277.461 281.842 277.227 281.842 276.76C281.842 276.293 281.593 276.064 281.359 276.064L281.373 276.058ZM281.842 280.266C281.842 280.967 281.842 281.202 282.309 281.202C282.776 281.434 283.243 281.202 283.478 280.733C283.71 280.033 283.71 279.564 283.945 278.864C283.945 278.63 283.945 278.396 283.71 278.396C283.478 278.163 283.478 278.163 283.243 278.396C282.527 278.87 281.828 279.57 281.828 280.271L281.842 280.266ZM287.451 260.866C287.441 260.433 287.275 260.018 286.983 259.698C286.856 259.682 286.728 259.695 286.606 259.736C286.485 259.776 286.374 259.843 286.282 259.932C286.047 260.399 285.58 260.634 284.879 260.399C284.412 260.167 283.945 260.167 283.243 259.932C282.542 259.231 282.075 259.465 282.075 260.634C281.842 261.568 282.309 262.035 283.243 262.035H284.179C284.301 262.044 284.415 262.096 284.501 262.182C284.587 262.268 284.638 262.383 284.646 262.504C284.879 262.737 284.646 262.737 284.412 262.971C283.945 263.204 283.71 263.438 284.179 263.905C284.412 264.607 285.348 264.607 285.58 264.14C286.268 263.209 286.502 261.808 287.436 260.872L287.451 260.866ZM284.165 289.162C283.696 289.162 283.463 289.396 283.463 289.863C283.463 290.33 284.397 291.499 284.632 291.265C285.333 291.265 285.333 290.798 285.333 290.331C285.333 289.62 284.632 289.162 284.165 289.162ZM286.509 284.02C286.275 283.319 285.808 282.617 285.106 282.385C284.405 282.152 284.172 283.084 283.938 283.553C283.703 284.253 284.405 284.02 284.639 284.02C285.106 284.02 285.341 284.487 285.808 284.487C286.268 284.713 286.502 284.713 286.502 284.011L286.509 284.02ZM293.521 293.602C293.521 294.071 293.521 294.538 293.988 294.771C294.183 294.858 294.4 294.882 294.609 294.841C294.819 294.799 295.01 294.693 295.156 294.538C295.858 293.836 296.56 293.369 297.027 292.433C297.259 291.734 296.792 291.032 296.325 290.565C296.309 290.438 296.322 290.309 296.363 290.188C296.403 290.066 296.471 289.955 296.56 289.863C296.56 289.629 296.792 289.629 297.027 289.863C297.242 289.978 297.483 290.038 297.727 290.038C297.972 290.038 298.212 289.978 298.428 289.863C298.662 289.863 298.897 290.096 299.129 290.331C299.831 291.265 299.129 292.902 297.961 293.135C297.728 293.369 297.494 293.369 297.494 293.602C297.493 293.633 297.499 293.664 297.51 293.692C297.522 293.721 297.539 293.747 297.561 293.769C297.583 293.791 297.609 293.808 297.638 293.82C297.666 293.831 297.697 293.837 297.728 293.836C298.195 294.071 298.897 294.071 299.596 293.836C299.869 293.715 300.102 293.519 300.268 293.27C300.433 293.022 300.525 292.732 300.532 292.433C300.065 291.265 300.298 290.089 300.065 288.927C300.065 288.228 300.065 287.759 299.364 287.759C298.662 287.759 298.428 287.292 298.428 286.59C298.428 286.358 298.428 285.891 298.195 285.656C298.195 285.422 297.961 284.955 297.728 285.189C297.259 285.189 297.494 285.422 297.494 285.656C297.259 286.358 297.259 287.292 296.56 287.759C296.325 287.759 295.858 287.993 295.858 287.526C296.325 286.59 295.858 285.182 297.027 284.487C297.275 284.204 297.448 283.863 297.53 283.496C297.611 283.128 297.599 282.746 297.494 282.385C297.259 281.683 296.56 281.916 296.091 281.683C295.156 281.449 293.988 281.449 293.988 280.28C293.753 278.41 293.521 276.542 294.222 274.672C294.334 274.541 294.395 274.375 294.395 274.204C294.395 274.032 294.334 273.866 294.222 273.736C293.753 273.268 293.286 272.567 292.585 272.334C291.651 271.867 291.651 271.398 291.885 270.464C292.352 269.997 292.352 269.296 291.651 268.829C291.184 268.361 291.184 267.893 291.885 267.66C292.118 267.425 292.585 267.193 292.118 266.958C290.949 266.257 291.416 265.555 291.885 264.614C291.996 264.484 292.057 264.318 292.057 264.147C292.057 263.976 291.996 263.81 291.885 263.68C291.793 263.591 291.682 263.524 291.561 263.483C291.439 263.443 291.311 263.43 291.184 263.445C290.248 264.147 289.548 264.147 288.612 264.38C287.209 265.081 286.976 265.783 286.976 267.186C287.209 268.12 286.742 269.054 286.04 269.755C285.341 269.99 285.106 270.691 285.341 271.391C285.807 272.328 285.573 273.029 284.639 273.496C284.172 273.963 283.938 275.598 284.405 275.84C285.106 276.542 285.573 276.073 286.275 275.84C286.509 275.373 286.509 275.139 286.509 274.672C286.742 273.503 286.976 272.327 287.443 271.166C287.443 270.931 287.678 270.464 287.91 270.699C288.612 271.166 289.313 271.633 289.781 272.334C290.015 272.567 289.781 272.801 289.313 273.036C288.94 273.177 288.602 273.396 288.32 273.678C288.038 273.96 287.819 274.299 287.678 274.672C287.209 275.606 287.209 276.542 286.509 277.241C286.04 277.71 286.275 278.177 286.742 278.41C287.443 278.644 287.443 278.177 287.443 277.71C287.678 277.009 287.91 276.774 288.612 276.774C289.367 276.758 290.1 276.513 290.715 276.073C290.949 275.84 290.949 275.373 291.416 275.606C291.651 275.84 291.651 276.073 291.416 276.542C291.184 277.241 291.184 277.943 291.184 278.644C291.184 278.879 290.949 279.346 290.715 279.346C289.313 278.879 288.145 279.579 286.747 279.346C286.28 279.346 285.579 279.346 285.346 280.047C285.241 280.298 285.23 280.578 285.316 280.836C285.402 281.094 285.579 281.311 285.813 281.449C286.515 282.15 286.982 283.084 288.157 283.319C288.39 283.319 288.625 283.786 288.859 284.253C288.859 285.189 289.326 285.189 290.028 284.722C290.962 284.253 291.196 283.319 291.429 282.377C291.44 282.195 291.517 282.023 291.646 281.893C291.776 281.764 291.948 281.687 292.13 281.676C292.365 281.676 292.832 281.909 292.832 282.143C292.597 283.312 292.832 284.715 291.898 285.649C291.429 285.883 290.962 286.116 290.962 286.817C291.196 287.285 291.196 287.986 291.429 288.453C291.437 288.575 291.489 288.689 291.576 288.775C291.662 288.861 291.776 288.912 291.898 288.92C293.066 288.92 293.766 289.856 294.702 290.323C294.935 290.558 295.169 291.257 294.702 291.257C293.066 291.492 292.832 291.959 293.533 293.128L293.521 293.602ZM286.275 291.499C286.275 291.734 286.04 292.201 286.509 292.433C286.978 292.666 286.976 292.201 287.209 291.966L288.612 291.265C289.313 291.032 290.015 290.798 290.015 290.331C289.781 289.162 289.781 287.986 289.079 287.059C288.846 286.825 288.612 286.59 288.377 286.59C287.91 286.59 287.91 287.059 287.91 287.292V289.162C287.91 289.629 287.91 290.096 287.209 290.096C286.033 289.854 286.267 290.556 286.267 291.49L286.275 291.499ZM288.145 299.445C288.846 299.212 289.079 298.278 289.781 297.809C290.248 297.809 290.015 297.342 289.781 296.875C289.772 296.754 289.721 296.64 289.635 296.554C289.549 296.468 289.435 296.416 289.313 296.408C289.079 296.408 289.079 296.408 288.846 296.641C288.846 297.342 288.377 297.809 287.91 298.278C287.678 298.511 287.443 298.745 287.678 298.978C287.686 299.097 287.738 299.21 287.822 299.295C287.906 299.38 288.018 299.432 288.138 299.441L288.145 299.445ZM290.015 282.15C290.015 281.683 289.781 281.449 289.313 281.449C288.846 281.449 288.846 281.683 288.846 282.15C288.846 282.385 288.846 282.852 289.313 282.852C289.781 282.852 290.008 282.608 290.008 282.141L290.015 282.15ZM290.015 267.893C290.015 267.66 290.015 267.193 289.548 267.193C289.081 267.193 289.079 267.66 289.079 268.127C289.063 268.53 289.143 268.93 289.313 269.296C289.313 269.763 288.846 270.699 289.781 270.699C290.482 270.699 290.015 269.763 290.015 269.296V267.893ZM290.715 261.581C290.715 261.348 290.715 261.348 290.482 261.348C290.249 261.348 290.015 261.348 290.015 261.815C290.015 262.048 290.248 262.048 290.482 262.048C290.707 261.808 290.707 261.808 290.707 261.57L290.715 261.581ZM290.715 293.367C290.949 293.367 291.184 293.133 290.949 292.9C290.949 292.666 290.949 292.431 290.715 292.431C290.248 292.431 290.248 292.666 290.248 293.133C290.24 293.36 290.475 293.36 290.707 293.36L290.715 293.367ZM292.352 300.145C292.352 299.678 292.118 299.443 291.885 299.443C291.416 299.21 291.184 299.678 291.184 299.912C291.184 300.379 291.416 300.614 291.885 300.614C292.006 300.603 292.12 300.549 292.204 300.462C292.289 300.374 292.339 300.259 292.345 300.137L292.352 300.145ZM292.352 296.639C292.352 296.172 292.118 295.939 291.885 295.939C291.652 295.939 291.416 296.172 291.416 296.639C291.416 296.873 291.416 297.106 291.885 297.106C292.006 297.096 292.119 297.042 292.204 296.955C292.288 296.868 292.338 296.753 292.345 296.632L292.352 296.639ZM293.286 286.359C292.585 286.359 292.585 287.061 292.585 287.528C292.585 287.995 292.585 288.462 293.054 288.23C293.521 288.23 293.753 287.761 293.753 287.294C293.753 286.826 293.746 286.349 293.279 286.349L293.286 286.359ZM294.455 272.102C295.156 272.102 295.391 271.869 295.391 271.168C295.391 270.466 294.922 270.232 294.455 270.232C293.753 270.232 293.753 270.933 293.521 271.4C293.51 272.091 293.981 272.091 294.448 272.091L294.455 272.102ZM294.222 265.557C294.689 265.324 294.689 265.09 294.922 264.857C294.922 264.389 294.922 264.389 294.455 264.389C294.222 264.389 293.988 264.623 293.988 265.09C293.981 265.314 293.981 265.546 294.215 265.546L294.222 265.557ZM294.922 297.578C294.689 297.578 294.455 297.578 294.455 297.811C294.455 298.747 295.156 298.98 295.624 298.98C295.858 298.98 296.325 298.98 296.325 298.747C296.083 298.035 295.384 297.8 294.915 297.568L294.922 297.578ZM299.364 297.11C298.897 297.344 298.897 297.578 298.897 297.811C298.897 298.044 298.897 298.28 299.129 298.28C299.596 298.513 299.596 298.045 299.596 297.811C299.613 297.682 299.6 297.55 299.558 297.426C299.517 297.303 299.448 297.19 299.357 297.097L299.364 297.11ZM300.298 284.486C300.765 284.019 301 283.784 300.765 283.317H300.298C300.058 283.544 300.058 284.011 300.291 284.473L300.298 284.486ZM303.102 281.447C302.635 280.98 303.102 279.811 301.934 279.577C301.693 279.573 301.456 279.636 301.249 279.76C301.042 279.884 300.875 280.064 300.765 280.278C300.765 280.98 302.168 282.383 302.635 282.383C303.102 282.383 302.862 281.907 303.095 281.44L303.102 281.447ZM301.701 287.759C301.58 287.767 301.465 287.819 301.38 287.906C301.294 287.992 301.242 288.106 301.234 288.228C301.234 288.695 301.701 288.695 301.934 288.695C302.166 288.695 302.403 288.695 302.403 288.228C302.395 287.984 302.166 287.75 301.694 287.75L301.701 287.759ZM302.403 284.487C301.934 284.722 301.701 284.955 301.701 285.422C301.701 285.889 301.934 286.123 302.403 286.123C302.871 286.123 302.87 285.656 302.87 285.189C302.862 284.946 302.862 284.473 302.395 284.473L302.403 284.487ZM305.439 287.993C305.439 287.526 304.972 287.292 304.74 287.526C304.271 287.526 303.571 287.526 303.571 288.228C303.571 288.695 304.038 288.927 304.505 288.927C304.965 288.686 305.432 288.686 305.432 287.984L305.439 287.993ZM304.74 292.668C304.505 292.433 304.505 292.201 304.271 292.201C304.036 292.201 304.038 292.433 304.038 292.668C304.038 292.902 304.038 293.135 304.271 293.135C304.392 293.125 304.506 293.071 304.591 292.984C304.676 292.896 304.726 292.781 304.733 292.659L304.74 292.668Z" fill="#FFBF00"/>
</g>
<defs>
<clipPath id="clip0_271_762">
<rect width="512" height="512" rx="100" fill="white"/>
</clipPath>
</defs>
</svg>
