<svg width="8" height="14" viewBox="0 0 8 14" fill="none" xmlns="http://www.w3.org/2000/svg">
<path d="M2.27403 6.69704C2.39389 6.77836 2.47822 6.81871 2.54086 6.88075C4.14125 8.47693 5.73742 10.0779 7.33962 11.6729C7.63537 11.9668 7.77872 12.3023 7.66548 12.7107C7.47454 13.3992 6.62707 13.6383 6.0922 13.1594C5.93559 13.0197 5.79284 12.8643 5.64406 12.7155C3.8967 10.9688 2.14934 9.22141 0.401984 7.47465C-0.132283 6.94039 -0.13409 6.42178 0.397165 5.89052C2.25535 4.03173 4.11354 2.17174 5.97354 0.314756C6.5325 -0.243604 7.41853 -0.0279702 7.6173 0.715907C7.71909 1.09658 7.59862 1.41943 7.32035 1.6971C5.73562 3.27701 4.1539 4.86114 2.57097 6.44286C2.50171 6.51092 2.4228 6.56995 2.27403 6.69704Z" />
</svg>
