<svg width="78" height="78" viewBox="0 0 78 78" fill="none" xmlns="http://www.w3.org/2000/svg">
<path d="M47.7262 27.8441L48.0765 28.2372C49.3494 29.6784 51.0368 31.5183 53.098 33.5748L56.3969 30.812C54.9722 28.6473 53.5534 26.4713 52.117 24.3123C52.117 24.3123 52.082 24.2553 52.0645 24.2211L50.3829 21.6691C50.2719 21.2761 49.4019 18.2512 46.3482 16.9752C45.0548 16.4527 43.6284 16.3295 42.261 16.622C42.119 16.856 42.0035 17.1043 41.9165 17.3626C41.391 18.8892 41.969 20.9798 46.5876 26.4769C46.9029 26.8928 47.2999 27.3599 47.7262 27.8441Z" fill="#F78261"/>
<path d="M47.7263 27.8443L48.0766 28.2373C49.4196 26.9347 50.7625 25.6264 52.1055 24.3125C52.1055 24.3125 52.0705 24.2555 52.0529 24.2213L46.541 26.4486C46.903 26.893 47.3001 27.3601 47.7263 27.8443Z" fill="#2E1A1A"/>
<path d="M48.345 17.3227L53.1738 23.8338L46.5875 27.9637L41.0522 18.4392C41.0873 18.2113 41.3734 16.3372 42.944 15.5283C44.5147 14.7194 47.0021 15.3289 48.345 17.3227Z" fill="#E24705"/>
<path d="M41.5546 40.1543C41.9107 40.6556 45.5601 37.5453 51.434 37.6821C55.2585 37.7789 57.5824 39.1916 57.886 38.6789C58.2597 38.0409 55.2585 34.8509 51.434 34.4635C45.887 33.8882 41.1166 39.522 41.5546 40.1543Z" fill="#401A16"/>
<path d="M55.5619 37.0781C55.9139 38.7209 55.9199 40.4164 55.5797 42.0615C55.2394 43.7066 54.5599 45.2671 53.5825 46.6482C50.015 51.627 44.0067 52.2593 43.2126 52.3447C45.1164 51.6318 46.8684 50.5811 48.3801 49.2458C53.4015 44.7684 53.5592 38.7016 53.5533 37.1807L55.5619 37.0781Z" fill="#401A16"/>
<path d="M45.2155 37.8759C45.5676 39.5196 45.5737 41.2159 45.2334 42.862C44.8932 44.5081 44.2136 46.0696 43.2361 47.4517C39.6685 52.4247 33.6603 53.057 32.8662 53.1481C34.769 52.4307 36.5205 51.3784 38.0336 50.0436C43.0551 45.5661 43.2127 39.4994 43.2069 37.9784L45.2155 37.8759Z" fill="#401A16"/>
<path d="M49.8223 51.4334C49.8223 52.6639 44.4155 53.6665 37.7475 53.6665C31.0794 53.6665 25.6726 52.6639 25.6726 51.4334C25.6726 50.203 31.0794 49.1947 37.7475 49.1947C44.4155 49.1947 49.8223 50.1973 49.8223 51.4334Z" fill="#401A16"/>
<path d="M39.5983 53.1367H35.8965V60.7871H39.5983V53.1367Z" fill="#401A16"/>
<path d="M39.1489 55.8766H36.6323V66.6885H39.1489V55.8766Z" fill="#401A16"/>
<path d="M37.1284 65.6404C36.7372 65.4752 32.6383 63.846 28.5452 66.022C27.2717 66.7126 26.186 67.6902 25.3785 68.8734C24.571 70.0566 24.0652 71.411 23.9033 72.8236C24.5806 70.4938 25.7367 69.2349 26.8228 68.5114C30.6239 65.948 36.8365 67.731 37.2802 66.2784C37.3019 66.1676 37.2996 66.0536 37.2735 65.9437C37.2474 65.8338 37.1979 65.7305 37.1284 65.6404Z" fill="#401A16"/>
<path d="M37.251 65.6403C36.8014 65.1889 36.1908 64.9237 35.5461 64.8998C35.149 64.8998 34.5535 65.0422 33.6835 66.0391C32.3113 67.5885 32.8018 68.3803 31.9318 70.864C31.6107 71.821 31.3012 72.3964 31.5172 72.6926C31.5672 72.7622 31.6388 72.8142 31.7216 72.8407C32.2004 72.9603 32.8894 71.952 32.9594 71.8381C34.1272 70.0893 33.1872 68.2436 34.3783 67.3379C34.4669 67.2535 34.5722 67.1876 34.6878 67.1442C35.3067 66.9334 36.2351 67.1442 36.9241 66.8309C37.0268 66.7805 37.1139 66.7043 37.1765 66.6102C37.2391 66.5161 37.2749 66.4075 37.2802 66.2954C37.3128 66.0772 37.3029 65.855 37.251 65.6403Z" fill="#401A16"/>
<path d="M26.4434 72.579C26.4809 73.0721 26.3654 73.5648 26.1117 73.9929C25.8581 74.4209 25.4782 74.7645 25.0215 74.9789C24.5648 75.1932 24.0525 75.2684 23.5514 75.1946C23.0502 75.1208 22.5835 74.9014 22.212 74.5651C21.8406 74.2287 21.5816 73.791 21.4688 73.309C21.356 72.8269 21.3947 72.3229 21.5797 71.8626C21.7648 71.4023 22.0877 71.0071 22.5064 70.7284C22.925 70.4498 23.42 70.3006 23.9268 70.3004C24.5694 70.2803 25.194 70.5084 25.6652 70.935C26.1364 71.3617 26.4161 71.9524 26.4434 72.579Z" fill="#401A16"/>
<path d="M34.898 72.579C34.9355 73.0721 34.8199 73.5648 34.5663 73.9929C34.3127 74.4209 33.9328 74.7645 33.4761 74.9789C33.0194 75.1932 32.5071 75.2684 32.0059 75.1946C31.5048 75.1208 31.0381 74.9014 30.6666 74.5651C30.2952 74.2287 30.0362 73.791 29.9234 73.309C29.8106 72.8269 29.8492 72.3229 30.0343 71.8626C30.2194 71.4023 30.5423 71.0071 30.961 70.7284C31.3796 70.4498 31.8746 70.3006 32.3814 70.3004C33.0239 70.2803 33.6486 70.5084 34.1198 70.935C34.591 71.3617 34.8706 71.9524 34.898 72.579Z" fill="#401A16"/>
<path d="M38.3374 65.6404C38.7286 65.4752 42.8333 63.846 46.9205 66.022C48.2004 66.7081 49.2927 67.684 50.1056 68.8676C50.9184 70.0512 51.4281 71.4079 51.5917 72.8236C50.9202 70.4938 49.7641 69.2349 48.6722 68.5114C44.8769 65.948 38.6585 67.731 38.2147 66.2784C38.1889 66.1695 38.1865 66.0567 38.2076 65.9468C38.2287 65.837 38.2729 65.7327 38.3374 65.6404Z" fill="#401A16"/>
<path d="M38.2145 65.6404C38.2728 65.5379 38.6933 64.8771 39.2421 64.8999C39.4757 64.8999 39.826 65.0423 40.3632 66.0392C41.1923 67.5886 40.8945 68.3804 41.4025 70.8641C41.6361 72.0034 41.8521 72.6129 41.5251 72.8408C41.1981 73.0686 40.4157 72.8408 39.972 72.4021C38.6465 71.0407 40.7194 67.6911 39.7384 67.1443C39.3647 66.9335 38.8042 67.1443 38.3955 66.831C38.3233 66.7613 38.2667 66.6777 38.2295 66.5855C38.1923 66.4933 38.1753 66.3945 38.1794 66.2955C38.1652 66.0766 38.177 65.8567 38.2145 65.6404Z" fill="#401A16"/>
<path d="M49.0457 72.579C49.0082 73.0721 49.1238 73.5648 49.3774 73.9929C49.631 74.4209 50.011 74.7645 50.4677 74.9789C50.9244 75.1932 51.4367 75.2684 51.9378 75.1946C52.4389 75.1208 52.9056 74.9014 53.2771 74.5651C53.6486 74.2287 53.9076 73.791 54.0204 73.309C54.1332 72.8269 54.0945 72.3229 53.9094 71.8626C53.7243 71.4023 53.4014 71.0071 52.9828 70.7284C52.5641 70.4498 52.0691 70.3006 51.5623 70.3004C50.9198 70.2803 50.2951 70.5084 49.8239 70.935C49.3527 71.3617 49.0731 71.9524 49.0457 72.579Z" fill="#401A16"/>
<path d="M37.5196 72.579C37.4821 73.0721 37.5977 73.5648 37.8513 73.9929C38.1049 74.4209 38.4848 74.7645 38.9415 74.9789C39.3982 75.1932 39.9105 75.2684 40.4117 75.1946C40.9128 75.1208 41.3795 74.9014 41.751 74.5651C42.1225 74.2287 42.3815 73.791 42.4942 73.309C42.607 72.8269 42.5684 72.3229 42.3833 71.8626C42.1982 71.4023 41.8753 71.0071 41.4566 70.7284C41.038 70.4498 40.543 70.3006 40.0362 70.3004C39.3937 70.2803 38.769 70.5084 38.2978 70.935C37.8266 71.3617 37.547 71.9524 37.5196 72.579Z" fill="#401A16"/>
<path d="M42.5938 34.6801C42.4595 41.3564 41.9399 42.6893 40.6027 43.6122C39.2656 44.535 37.2921 44.592 33.3041 44.7515C27.0857 44.9736 23.9619 45.0876 22.2686 43.9596C19.028 41.7722 21.9474 38.4455 18.4441 32.9654C16.1553 29.3368 13.6679 28.9779 14.0474 27.1265C14.7656 23.6744 23.0627 21.9256 28.271 21.6408C31.2313 21.4756 38.3489 21.1566 41.6129 24.6941C42.7456 25.9132 42.7106 28.8469 42.5938 34.6801Z" fill="#F8BC26"/>
<path d="M50.3535 46.5059H24.5689C24.1959 46.4892 23.8234 46.5464 23.4737 46.6741C23.124 46.8018 22.8045 46.9974 22.5345 47.2489C22.2645 47.5005 22.0496 47.8029 21.9027 48.1378C21.7559 48.4727 21.6802 48.8332 21.6802 49.1975C21.6802 49.5618 21.7559 49.9223 21.9027 50.2572C22.0496 50.5921 22.2645 50.8945 22.5345 51.1461C22.8045 51.3976 23.124 51.5932 23.4737 51.7209C23.8234 51.8486 24.1959 51.9058 24.5689 51.8891H50.3535C50.7265 51.9058 51.0991 51.8486 51.4488 51.7209C51.7984 51.5932 52.1179 51.3976 52.388 51.1461C52.658 50.8945 52.8729 50.5921 53.0197 50.2572C53.1666 49.9223 53.2423 49.5618 53.2423 49.1975C53.2423 48.8332 53.1666 48.4727 53.0197 48.1378C52.8729 47.8029 52.658 47.5005 52.388 47.2489C52.1179 46.9974 51.7984 46.8018 51.4488 46.6741C51.0991 46.5464 50.7265 46.4892 50.3535 46.5059Z" fill="#F8BC26"/>
<path d="M52.4031 43.8572C53.4425 45.1104 54.3767 46.2269 54.0263 47.2751C53.2731 49.4796 47.0197 49.4226 41.2625 48.9213C40.4462 48.7876 39.6647 48.4993 38.962 48.0726C37.4985 47.112 36.3461 45.7643 35.6396 44.1876L37.4614 39.1006C40.9647 39.6702 44.2403 40.3026 47.4693 40.9747C49.4203 41.3133 51.1761 42.339 52.4031 43.8572Z" fill="#6F8BEF"/>
<path d="M44.1644 43.8572C45.2038 45.1104 46.138 46.2269 45.7877 47.2751C45.0344 49.4796 38.781 49.4226 33.0238 48.9213C32.9362 48.9213 32.5217 48.7732 31.9436 48.6479C30.7233 48.3802 30.3438 48.4599 29.6898 48.3175C29.357 48.2435 27.5586 47.8447 27.0506 46.5174C26.9354 46.1272 26.907 45.7174 26.9674 45.3155C27.0279 44.9137 27.1757 44.5291 27.401 44.1876L29.2227 39.1006C32.726 39.6702 36.0075 40.3026 39.2306 40.9747C41.1817 41.3133 42.9374 42.339 44.1644 43.8572Z" fill="#6F8BEF"/>
<path d="M28.0724 40.5872C29.8241 40.798 31.6283 40.8606 33.4092 40.9745C35.8616 41.1284 38.3022 41.322 40.7545 41.3904C41.4027 41.3904 42.0508 41.3904 42.7047 41.3904C44.3688 37.0269 46.9496 30.3677 49.799 22.0223C49.04 20.9571 48.1875 19.8406 47.2357 18.6956C46.284 17.5506 45.2038 16.3714 44.2345 15.3859L38.454 13.6371C37.3105 13.8078 36.1794 14.0494 35.0675 14.3605C33.192 14.8936 31.3842 15.6312 29.6781 16.5594C28.7595 24.5079 27.8467 32.4545 26.9397 40.3992C27.3192 40.4846 27.6988 40.5416 28.0724 40.5872Z" fill="#F78261"/>
<path d="M44.5964 17.6248L37.6306 15.9158L40.5501 7.90088L46.062 9.25665C45.7859 9.69393 45.5401 10.1488 45.3263 10.6181C44.8473 11.6633 44.5342 12.7735 44.3979 13.9107C44.3979 14.1214 44.357 14.3322 44.3454 14.5316C44.2823 15.569 44.3668 16.61 44.5964 17.6248Z" fill="#F78261"/>
<path d="M44.3571 14.52C44.3182 14.5228 44.2792 14.5228 44.2403 14.52C43.0726 14.2295 42.4536 12.5946 42.9032 10.8572C42.9716 10.5961 43.0614 10.3409 43.1718 10.0939L45.3381 10.6236C44.859 11.6688 44.546 12.7791 44.4097 13.9162C44.3863 14.1213 44.3688 14.3321 44.3571 14.52Z" fill="#2E1A1A"/>
<path d="M49.1626 7.77546L48.6371 8.70968C48.7231 9.06825 48.7369 9.43968 48.678 9.80341C48.6243 10.1178 48.5239 10.4229 48.3802 10.7091C47.6328 12.3213 47.2591 13.1302 46.5526 13.5574C44.7192 14.6169 41.5545 12.4637 40.7137 11.1193C40.2372 10.3791 39.9544 9.53597 39.8904 8.66411C39.8523 7.77236 39.9228 6.87935 40.1006 6.00385C40.3899 4.62162 40.9489 3.30655 41.7472 2.13023C43.1674 1.6318 44.7072 1.55573 46.1718 1.91167C47.6363 2.2676 48.9597 3.03953 49.9742 4.1297C49.8224 4.83607 49.1918 7.61596 49.1626 7.77546Z" fill="#F78261"/>
<path d="M45.6241 7.43371C45.5975 7.442 45.5689 7.442 45.5423 7.43371C45.2997 7.26164 45.0166 7.15194 44.7191 7.11471C44.4166 7.08475 44.1114 7.12982 43.8316 7.24573C43.8147 7.25334 43.7965 7.25761 43.7779 7.25829C43.7594 7.25896 43.7408 7.25604 43.7235 7.24968C43.7061 7.24332 43.6902 7.23365 43.6767 7.22124C43.6631 7.20883 43.6523 7.19392 43.6447 7.17737C43.6361 7.1603 43.6313 7.14167 43.6305 7.12267C43.6297 7.10368 43.633 7.08473 43.6401 7.06704C43.6473 7.04934 43.6581 7.0333 43.672 7.01993C43.6858 7.00656 43.7024 6.99616 43.7206 6.98939C44.0412 6.85161 44.3927 6.79654 44.7413 6.82946C45.09 6.86238 45.4241 6.98219 45.7117 7.17737C45.7273 7.18764 45.7406 7.20086 45.7508 7.21625C45.7611 7.23164 45.7681 7.24889 45.7713 7.26696C45.7746 7.28503 45.7741 7.30357 45.7699 7.32145C45.7656 7.33933 45.7578 7.3562 45.7467 7.37105C45.734 7.39137 45.7159 7.40795 45.6943 7.41899C45.6727 7.43003 45.6484 7.43512 45.6241 7.43371Z" fill="#2E1A1A"/>
<path d="M44.4097 7.26844C44.3776 7.38778 44.3952 7.51467 44.4587 7.6214C44.5221 7.72812 44.6263 7.80602 44.7484 7.83809C44.8399 7.86214 44.9368 7.85912 45.0266 7.82941C45.1164 7.79971 45.1951 7.74465 45.2528 7.67124C45.3105 7.59782 45.3446 7.50935 45.3506 7.41703C45.3567 7.32471 45.3346 7.2327 45.287 7.15268C45.2394 7.07265 45.1686 7.00821 45.0834 6.96752C44.9983 6.92684 44.9026 6.91174 44.8087 6.92414C44.7147 6.93654 44.6266 6.97588 44.5556 7.03718C44.4846 7.09848 44.4338 7.17896 44.4097 7.26844Z" fill="#2E1A1A"/>
<path d="M49.1215 8.1684C49.103 8.16877 49.0847 8.16542 49.0676 8.15856C49.0505 8.1517 49.0351 8.14147 49.0222 8.12852C48.8335 7.95349 48.5858 7.85169 48.3256 7.84225C48.0654 7.83281 47.8107 7.91638 47.6092 8.07725C47.5819 8.10335 47.5452 8.11796 47.507 8.11796C47.4688 8.11796 47.4321 8.10335 47.4048 8.07725C47.3909 8.06447 47.3798 8.04902 47.3721 8.03188C47.3645 8.01473 47.3606 7.99625 47.3606 7.97756C47.3606 7.95888 47.3645 7.9404 47.3721 7.92325C47.3798 7.90611 47.3909 7.89066 47.4048 7.87787C47.6291 7.70072 47.905 7.59707 48.1931 7.58166C48.5622 7.57359 48.9209 7.70175 49.1974 7.94054C49.2115 7.95382 49.2227 7.96975 49.2304 7.98737C49.2381 8.00499 49.2421 8.02393 49.2421 8.04307C49.2421 8.06222 49.2381 8.08116 49.2304 8.09878C49.2227 8.1164 49.2115 8.13232 49.1974 8.14561C49.1747 8.1599 49.1485 8.16779 49.1215 8.1684Z" fill="#2E1A1A"/>
<path d="M47.9071 8.00343C47.8878 8.09033 47.8949 8.18084 47.9277 8.26383C47.9604 8.34681 48.0173 8.41863 48.0914 8.47044C48.1655 8.52226 48.2535 8.55179 48.3445 8.55542C48.4356 8.55905 48.5258 8.53661 48.6039 8.49086C48.6821 8.44511 48.7448 8.37806 48.7844 8.29796C48.824 8.21786 48.8386 8.12821 48.8266 8.04006C48.8146 7.95192 48.7765 7.86913 48.7168 7.80189C48.6572 7.73465 48.5787 7.68589 48.491 7.66164C48.4296 7.64551 48.3656 7.64161 48.3026 7.65018C48.2397 7.65874 48.1791 7.67961 48.1246 7.71151C48.0701 7.74341 48.0228 7.78571 47.9854 7.83586C47.948 7.88602 47.9214 7.94301 47.9071 8.00343Z" fill="#2E1A1A"/>
<path d="M43.5513 6.19762C43.6968 6.16439 43.8457 6.1472 43.9951 6.14636C44.6804 6.21577 45.3547 6.36493 46.0037 6.59068C46.1173 6.45351 46.1882 6.28745 46.208 6.11218C46.2235 6.02357 46.2235 5.93305 46.208 5.84444C45.7643 5.73621 45.268 5.62228 44.725 5.51974C44.4218 5.46722 44.1114 5.46722 43.8082 5.51974C43.6844 5.53605 43.5652 5.57675 43.4579 5.63937C43.3875 5.6866 43.3344 5.75442 43.3061 5.83305C43.2594 5.92419 43.1893 6.06661 43.2594 6.15775C43.2988 6.19144 43.3474 6.21317 43.3992 6.22025C43.4511 6.22734 43.504 6.21947 43.5513 6.19762Z" fill="#2E1A1A"/>
<path d="M49.5303 7.27972C49.4413 7.20576 49.3408 7.14615 49.2325 7.10313C48.7028 6.95855 48.1529 6.89702 47.6034 6.92084C47.5635 6.75217 47.5635 6.57683 47.6034 6.40816C47.6327 6.32338 47.6698 6.24139 47.7144 6.16321C48.0764 6.16321 48.4793 6.23726 48.8822 6.29992C49.1253 6.33626 49.3569 6.42584 49.5595 6.56196C49.645 6.61815 49.7168 6.69206 49.7697 6.77843C49.8026 6.84984 49.8167 6.92819 49.8105 7.00629C49.8105 7.10313 49.8105 7.25693 49.7288 7.31959C49.6953 7.33229 49.6587 7.33527 49.6235 7.3282C49.5883 7.32113 49.5559 7.3043 49.5303 7.27972Z" fill="#2E1A1A"/>
<path d="M47.1713 11.86C47.0079 11.8685 46.8442 11.8685 46.6808 11.86C46.2977 11.8205 45.9223 11.7285 45.5656 11.5865C45.5476 11.5802 45.5311 11.5705 45.5172 11.5577C45.5032 11.545 45.4921 11.5297 45.4844 11.5126C45.4767 11.4955 45.4728 11.4771 45.4727 11.4585C45.4726 11.4398 45.4764 11.4214 45.4838 11.4042C45.4982 11.3698 45.5257 11.3422 45.5606 11.3272C45.5955 11.3123 45.635 11.3114 45.6707 11.3245C46.006 11.4546 46.3574 11.5408 46.7159 11.5808C46.9277 11.5979 47.1405 11.5979 47.3523 11.5808C47.3721 11.5784 47.3922 11.5801 47.4113 11.5859C47.4304 11.5917 47.448 11.6013 47.4629 11.6143C47.4779 11.6272 47.4898 11.6431 47.4979 11.661C47.506 11.6788 47.5101 11.6981 47.5099 11.7175C47.5107 11.7362 47.5077 11.7549 47.5011 11.7725C47.4945 11.7901 47.4844 11.8062 47.4714 11.8199C47.4583 11.8337 47.4427 11.8448 47.4253 11.8527C47.4078 11.8605 47.389 11.8649 47.3698 11.8657L47.1713 11.86Z" fill="#2E1A1A"/>
<path d="M46.4707 12.3385C46.3705 12.3383 46.2705 12.3269 46.1729 12.3043C46.0063 12.2716 45.8477 12.2077 45.7058 12.1163C45.6742 12.0944 45.6524 12.0616 45.6448 12.0245C45.6372 11.9875 45.6444 11.949 45.665 11.9169C45.6874 11.8861 45.721 11.8648 45.759 11.8574C45.797 11.85 45.8365 11.857 45.8693 11.877C45.9793 11.9484 46.1021 11.9987 46.2313 12.0252C46.3646 12.0479 46.5009 12.0479 46.6342 12.0252C46.6531 12.0219 46.6724 12.0225 46.691 12.0269C46.7097 12.0312 46.7272 12.0392 46.7425 12.0504C46.7578 12.0617 46.7706 12.0758 46.7801 12.092C46.7896 12.1083 46.7956 12.1262 46.7977 12.1448C46.8027 12.1817 46.7927 12.2191 46.7698 12.249C46.7469 12.2788 46.7129 12.2986 46.6751 12.3043C46.6081 12.3214 46.5397 12.3328 46.4707 12.3385Z" fill="#2E1A1A"/>
<path d="M46.4065 10.0884L47.5159 10.2593C47.4572 10.3668 47.3623 10.4513 47.2473 10.4985C47.0803 10.5322 46.9065 10.5101 46.754 10.4357C46.6014 10.3613 46.479 10.239 46.4065 10.0884Z" fill="#2E1A1A"/>
<path d="M59.0594 71.2058L56.5312 71.7755C56.2217 71.2058 55.7313 70.3115 55.1357 69.2064C52.9169 65.1049 52.6074 64.427 51.282 61.9889C48.6603 57.1868 48.602 57.483 48.31 56.5089C47.6325 54.003 47.7383 51.3567 48.6136 48.9098L53.2556 46.2666C54.0029 49.3047 54.7425 52.3827 55.4744 55.5006C56.72 60.787 57.915 66.022 59.0594 71.2058Z" fill="#F78261"/>
<path d="M65.3421 73.5869L55.4159 75.3471C55.1469 74.8184 55.0511 74.2217 55.1415 73.6381C55.1787 73.4433 55.2354 73.2525 55.3108 73.0685C55.5502 72.4988 55.7254 71.3595 55.5736 68.9784L58.3938 69.1037C58.892 69.8974 59.3864 70.6892 59.8768 71.4792C61.007 72.0852 62.284 72.3824 63.5729 72.3393C63.8147 72.2895 64.0645 72.2901 64.306 72.3411C64.5476 72.3922 64.7753 72.4925 64.9742 72.6355C65.2161 72.8956 65.3476 73.2357 65.3421 73.5869Z" fill="#F78261"/>
<path d="M47.3291 46.6882C45.3205 48.5452 46.6109 52.6353 48.1582 57.3349C49.6933 61.9915 51.853 66.4296 54.581 70.5337L59.836 68.4203C57.8897 61.087 55.961 53.7537 54.0497 46.4204C52.625 45.9704 49.1158 45.0362 47.3291 46.6882Z" fill="#6F8BEF"/>
<path d="M59.3923 69.9357L61.6753 71.451C62.1692 71.2166 62.7196 71.1191 63.2664 71.1694C63.8132 71.2196 64.3354 71.4156 64.7757 71.7358C65.3494 72.1938 65.7231 72.8475 65.8209 73.5644L54.9839 75.6265L54.7737 73.1143L57.8566 71.7643C57.7973 71.5654 57.7816 71.3565 57.8108 71.1513C57.84 70.9462 57.9133 70.7493 58.026 70.5737C58.1744 70.3578 58.3794 70.1847 58.6197 70.0725C58.8601 69.9603 59.1268 69.9131 59.3923 69.9357Z" fill="#61B399"/>
<path d="M54.8438 75.9113L66.1013 73.7637C66.1206 73.7603 66.1391 73.7532 66.1555 73.7426C66.172 73.7321 66.1861 73.7185 66.197 73.7025C66.2079 73.6866 66.2153 73.6686 66.219 73.6498C66.2226 73.6309 66.2223 73.6115 66.218 73.5928C66.2096 73.5565 66.1875 73.5247 66.1562 73.5036C66.1248 73.4825 66.0864 73.4737 66.0487 73.4789L54.7913 75.6265C54.7712 75.6284 54.7517 75.6343 54.734 75.644C54.7164 75.6536 54.701 75.6667 54.6889 75.6824C54.6767 75.6982 54.668 75.7162 54.6633 75.7354C54.6587 75.7546 54.6582 75.7745 54.6618 75.7939C54.6655 75.8133 54.6732 75.8318 54.6845 75.8481C54.6959 75.8644 54.7106 75.8783 54.7277 75.8888C54.7448 75.8993 54.764 75.9062 54.784 75.9091C54.804 75.912 54.8243 75.9108 54.8438 75.9056V75.9113Z" fill="#401A16"/>
<path d="M60.0636 72.6244L61.7335 71.5136C61.7604 71.4884 61.7773 71.4547 61.7811 71.4185C61.785 71.3823 61.7756 71.346 61.7546 71.3159C61.7336 71.2859 61.7023 71.2641 61.6664 71.2544C61.6305 71.2446 61.5922 71.2477 61.5583 71.2629L59.9001 72.3452C59.8665 72.3683 59.8434 72.4032 59.8358 72.4425C59.8281 72.4819 59.8365 72.5226 59.8592 72.556C59.8779 72.5907 59.9095 72.617 59.9475 72.6297C59.9855 72.6424 60.027 72.6405 60.0636 72.6244Z" fill="#401A16"/>
<path d="M59.5851 72.2369L61.2609 71.0976C61.2796 71.0868 61.2959 71.0723 61.3086 71.0551C61.3214 71.0378 61.3303 71.0182 61.3349 70.9975C61.3395 70.9767 61.3396 70.9552 61.3353 70.9344C61.3309 70.9136 61.3222 70.8939 61.3097 70.8765C61.2971 70.8591 61.281 70.8445 61.2624 70.8335C61.2438 70.8225 61.223 70.8154 61.2014 70.8126C61.1798 70.8098 61.1579 70.8114 61.137 70.8173C61.116 70.8233 61.0966 70.8333 61.0799 70.8469L59.4099 71.9862C59.392 71.9965 59.3765 72.0104 59.3645 72.027C59.3525 72.0436 59.3443 72.0626 59.3404 72.0825C59.3366 72.1025 59.3371 72.123 59.3421 72.1428C59.347 72.1625 59.3562 72.181 59.3691 72.197C59.3802 72.2138 59.3948 72.2283 59.4119 72.2395C59.4289 72.2507 59.4481 72.2584 59.4683 72.2621C59.4885 72.2658 59.5093 72.2655 59.5294 72.2612C59.5494 72.2568 59.5684 72.2486 59.5851 72.2369Z" fill="#401A16"/>
<path d="M28.7555 16.7361C27.171 22.6494 26.4186 28.7455 26.5191 34.8566C26.56 37.1694 26.7235 39.3512 26.9687 41.3962C27.2724 42.1766 27.8212 43.1963 28.7963 43.4925C30.2385 43.9198 31.0501 42.2962 33.3098 41.6639C36.3635 40.8095 37.8525 42.957 41.35 42.4102C42.8677 42.1505 44.2902 41.5106 45.4781 40.5531C47.2881 34.3553 49.0962 28.1595 50.9024 21.9655L44.3336 15.2892C44.1935 15.6253 43.6563 16.8102 42.582 17.0893C41.1806 17.4482 39.1604 16.1721 38.4539 13.6714C37.021 13.2274 35.4957 13.147 34.0221 13.4378C31.9204 13.8912 30.0531 15.0606 28.7555 16.7361Z" fill="#E24705"/>
<path d="M30.3846 40.1543C30.0284 40.6556 26.3791 37.5453 20.511 37.6821C16.6807 37.7789 14.3627 39.1916 14.059 38.6789C13.6795 38.0409 16.6807 34.8509 20.511 34.4635C26.0813 33.8882 30.8225 39.522 30.3846 40.1543Z" fill="#401A16"/>
<path d="M16.3769 37.0781C16.025 38.7209 16.0189 40.4164 16.3592 42.0615C16.6995 43.7066 17.3789 45.2671 18.3563 46.6482C21.9239 51.627 27.9321 52.2593 28.7262 52.3447C26.8224 51.6318 25.0704 50.5811 23.5588 49.2458C18.5432 44.7684 18.3797 38.7016 18.3855 37.1807L16.3769 37.0781Z" fill="#401A16"/>
<path d="M26.7235 37.8759C26.3714 39.5196 26.3653 41.2159 26.7056 42.862C27.0458 44.5081 27.7254 46.0696 28.7029 47.4517C32.2705 52.4247 38.2787 53.057 39.0728 53.1481C37.17 52.4307 35.4185 51.3784 33.9054 50.0436C28.8898 45.5661 28.7263 39.4994 28.7321 37.9784L26.7235 37.8759Z" fill="#401A16"/>
<path d="M44.0475 49.4851H44.0008C43.9643 49.4722 43.9342 49.446 43.9169 49.4121C43.8995 49.3782 43.8961 49.3391 43.9074 49.3028C44.2104 48.4713 44.3778 47.5987 44.4037 46.7166C44.4143 46.2557 44.387 45.7947 44.322 45.3381C44.2196 45.0859 44.0863 44.8468 43.9249 44.626C43.5853 44.2213 43.1648 43.8883 42.6889 43.6474C42.2131 43.4065 41.692 43.2626 41.1573 43.2247C41.118 43.2203 41.082 43.2013 41.057 43.1715C41.0319 43.1417 41.0197 43.1036 41.023 43.0652C41.0243 43.0461 41.0298 43.0275 41.0389 43.0106C41.0481 42.9937 41.0608 42.9789 41.0762 42.9671C41.0916 42.9553 41.1094 42.9467 41.1284 42.9421C41.1474 42.9374 41.1672 42.9366 41.1865 42.9398C41.762 42.9823 42.3225 43.1391 42.8336 43.4007C43.3447 43.6623 43.7955 44.023 44.1585 44.4608C44.3449 44.7086 44.4943 44.9809 44.6022 45.2697C44.676 45.7504 44.7073 46.2364 44.6956 46.7223C44.6702 47.6338 44.4968 48.5355 44.1818 49.394C44.1728 49.4215 44.1548 49.4453 44.1306 49.4618C44.1063 49.4783 44.0771 49.4865 44.0475 49.4851Z" fill="#2E1A1A"/>
<path d="M46.5934 49.3826C46.5526 49.3797 46.5146 49.3614 46.4873 49.3317C46.4601 49.3019 46.4458 49.263 46.4474 49.2231C46.487 48.8788 46.5533 48.5379 46.6459 48.2035C46.9264 47.2213 47.4405 46.3177 48.1465 45.566C48.1582 45.5492 48.1734 45.5351 48.1912 45.5246C48.2089 45.514 48.2287 45.5073 48.2493 45.5048C48.27 45.5024 48.2909 45.5042 48.3107 45.5103C48.3305 45.5163 48.3488 45.5264 48.3643 45.5399C48.3798 45.5534 48.3922 45.5699 48.4006 45.5885C48.409 45.607 48.4133 45.6271 48.4131 45.6473C48.4129 45.6676 48.4083 45.6876 48.3996 45.706C48.3909 45.7244 48.3783 45.7407 48.3625 45.754C47.6882 46.4763 47.1963 47.3424 46.9262 48.2832C46.8376 48.6006 46.7751 48.9245 46.7393 49.2516C46.7364 49.2874 46.7197 49.3207 46.6927 49.345C46.6656 49.3693 46.6301 49.3827 46.5934 49.3826Z" fill="#2E1A1A"/>
<path d="M31.8735 27.7302L32.0604 28.2144C32.7319 30.0031 33.6544 32.3045 34.8455 34.9363L38.9328 33.4723C38.3781 30.9545 37.8292 28.4309 37.257 25.9188C37.257 25.8846 37.257 25.8504 37.257 25.8162C37.0293 24.825 36.8132 23.8395 36.5914 22.8483C36.6322 22.4439 36.9125 19.2823 34.4952 17.0721C33.464 16.1443 32.1657 15.5478 30.7758 15.3632C30.5598 15.531 30.3639 15.7221 30.1919 15.9328C29.1526 17.186 28.9424 19.3507 31.2955 26.0327C31.4415 26.5568 31.6458 27.1321 31.8735 27.7302Z" fill="#F78261"/>
<path d="M31.8734 27.7303L32.0602 28.2145C33.7847 27.455 35.511 26.6954 37.2393 25.9359C37.2393 25.9017 37.2393 25.8676 37.2393 25.8334L31.272 26.0328C31.4413 26.5568 31.6457 27.1322 31.8734 27.7303Z" fill="#2E1A1A"/>
<path d="M36.2235 18.0861L38.4131 25.8333L30.7641 27.4568L29.0125 16.6335C29.1234 16.4284 30.0635 14.7707 31.8268 14.5486C33.5902 14.3264 35.6805 15.7619 36.2235 18.0861Z" fill="#E24705"/>
<path d="M39.6626 10.3561C39.9141 8.9993 39.8583 7.60524 39.4991 6.27171C39.1604 5.05836 38.7751 4.71657 38.851 3.8507C39.0203 2.02213 40.9705 0.911318 41.35 0.711941C42.7806 -0.0627815 44.7366 -0.26216 45.1803 0.398632C45.338 0.632189 45.2212 0.842961 45.4373 1.01955C45.8752 1.37843 46.605 0.740423 47.1889 1.11639C47.4575 1.28729 47.3524 1.45818 47.6385 1.68604C48.0706 2.05062 48.5903 1.94808 49.3026 1.99365C49.5011 1.99365 51.4046 2.14176 51.5915 2.82534C51.7199 3.29245 51.0368 4.05008 50.2952 4.38048H50.2368C49.3026 4.76214 48.7829 4.08996 47.2123 3.98742C46.0445 3.90767 46.0153 4.26655 44.7016 4.15262C43.3878 4.03869 43.1834 3.6969 42.7397 3.93615C41.8055 4.44314 42.0682 6.47109 41.6595 6.49957C41.4785 6.49957 41.3851 6.10082 41.2391 6.12361C40.9296 6.16918 41.315 7.88382 40.4917 9.31364C40.2853 9.70908 40.0039 10.0628 39.6626 10.3561Z" fill="#2E1A1A"/>
<path d="M44.719 10.3504C44.2652 10.3504 43.8215 10.2191 43.4442 9.97308C43.0668 9.72708 42.7727 9.37744 42.599 8.96837C42.4253 8.55929 42.3799 8.10916 42.4684 7.67489C42.557 7.24062 42.7755 6.84172 43.0964 6.52863C43.4173 6.21554 43.8262 6.00232 44.2713 5.91594C44.7165 5.82956 45.1778 5.8739 45.5971 6.04334C46.0164 6.21278 46.3748 6.49973 46.627 6.86788C46.8791 7.23604 47.0137 7.66887 47.0137 8.11165C47.0122 8.70493 46.7699 9.27349 46.3399 9.693C45.9099 10.1125 45.3271 10.3489 44.719 10.3504ZM44.719 6.16345C44.3227 6.16345 43.9352 6.27819 43.6057 6.49314C43.2763 6.70809 43.0196 7.01358 42.8682 7.37094C42.7168 7.7283 42.6774 8.12146 42.7552 8.50063C42.8329 8.8798 43.0243 9.22794 43.3049 9.50097C43.5856 9.774 43.943 9.95964 44.3319 10.0344C44.7208 10.1091 45.1236 10.0696 45.4895 9.92087C45.8553 9.77211 46.1677 9.52079 46.3871 9.19872C46.6064 8.87666 46.7229 8.49833 46.7218 8.11165C46.7202 7.59443 46.5085 7.09891 46.1331 6.73371C45.7577 6.36852 45.2492 6.16344 44.719 6.16345Z" fill="#2E1A1A"/>
<path d="M49.3201 11.4612C48.8662 11.4612 48.4226 11.3299 48.0452 11.0839C47.6679 10.8379 47.3737 10.4883 47.2001 10.0792C47.0264 9.67014 46.9809 9.22 47.0695 8.78574C47.158 8.35147 47.3766 7.95257 47.6975 7.63947C48.0184 7.32638 48.4273 7.11316 48.8724 7.02678C49.3175 6.9404 49.7789 6.98474 50.1982 7.15418C50.6175 7.32362 50.9759 7.61057 51.228 7.97872C51.4802 8.34688 51.6148 8.77971 51.6148 9.22249C51.6148 9.51648 51.5554 9.8076 51.4401 10.0792C51.3248 10.3508 51.1558 10.5976 50.9427 10.8055C50.7296 11.0134 50.4766 11.1783 50.1982 11.2908C49.9198 11.4033 49.6214 11.4612 49.3201 11.4612ZM49.3201 7.26859C48.924 7.26859 48.5368 7.38319 48.2074 7.59788C47.8781 7.81258 47.6214 8.11774 47.4698 8.47476C47.3182 8.83179 47.2785 9.22466 47.3558 9.60368C47.4331 9.98269 47.6238 10.3308 47.9039 10.6041C48.184 10.8774 48.5409 11.0634 48.9294 11.1388C49.3179 11.2142 49.7205 11.1755 50.0865 11.0277C50.4524 10.8798 50.7652 10.6293 50.9853 10.308C51.2054 9.9867 51.3228 9.60893 51.3228 9.22249C51.3228 8.9659 51.271 8.71182 51.1704 8.47476C51.0697 8.23771 50.9222 8.02231 50.7362 7.84087C50.5503 7.65944 50.3295 7.51551 50.0865 7.41732C49.8435 7.31913 49.5831 7.26859 49.3201 7.26859Z" fill="#2E1A1A"/>
<path d="M47.1772 9.09706L46.7568 9.04009C46.7376 9.03733 46.719 9.03083 46.7024 9.02098C46.6857 9.01112 46.6713 8.99811 46.6598 8.98272C46.6484 8.96732 46.6402 8.94985 46.6358 8.93133C46.6314 8.91281 46.6309 8.89362 46.6342 8.87489C46.64 8.83804 46.6604 8.80488 46.6909 8.78251C46.7215 8.76015 46.7598 8.75036 46.7977 8.75527L47.1948 8.81793C47.2138 8.81998 47.2322 8.82582 47.2488 8.83509C47.2655 8.84435 47.28 8.85684 47.2915 8.87178C47.3029 8.88673 47.3112 8.90382 47.3156 8.92199C47.3201 8.94016 47.3207 8.95903 47.3174 8.97743C47.3131 9.01065 47.2965 9.04118 47.2706 9.06323C47.2448 9.08528 47.2116 9.09732 47.1772 9.09706Z" fill="#2E1A1A"/>
<path d="M42.6347 8.38498C42.6086 8.38447 42.583 8.37738 42.5605 8.36441C42.538 8.35143 42.5193 8.33301 42.5063 8.31092L40.994 5.79307C40.982 5.77695 40.9736 5.75856 40.9693 5.73907C40.965 5.71958 40.965 5.69944 40.9692 5.67994C40.9734 5.66044 40.9818 5.64203 40.9937 5.62588C41.0057 5.60973 41.021 5.59621 41.0387 5.58619C41.0563 5.57618 41.0759 5.56989 41.0962 5.56773C41.1166 5.56557 41.1371 5.5676 41.1565 5.57368C41.176 5.57975 41.1939 5.58974 41.2092 5.603C41.2244 5.61626 41.2366 5.6325 41.2451 5.65066L42.7573 8.16851C42.7765 8.20103 42.7817 8.23962 42.7719 8.27589C42.762 8.31215 42.7379 8.34317 42.7048 8.36219C42.6848 8.37737 42.6601 8.38541 42.6347 8.38498Z" fill="#2E1A1A"/>
<path d="M43.7032 72.2427L41.1108 72.3111C40.9239 71.7016 40.632 70.7218 40.2758 69.5255C38.9562 65.0651 38.7986 64.3417 38.0045 61.6928C36.4396 56.4691 36.317 56.7483 36.2528 55.74C36.1015 53.1432 36.7568 50.5623 38.1329 48.3346L43.2245 46.6598C43.3218 49.8043 43.4055 52.9658 43.4755 56.1445C43.5884 61.5713 43.6643 66.9374 43.7032 72.2427Z" fill="#F78261"/>
<path d="M49.3902 75.8146L39.324 75.581C39.1648 75.0012 39.1975 74.3871 39.4174 73.8265C39.4931 73.644 39.589 73.4702 39.7035 73.3081C40.048 72.8068 40.4567 71.7359 40.807 69.3547L43.5455 70.0326C43.8666 70.9099 44.1819 71.7814 44.5031 72.653C45.4807 73.4738 46.6701 74.0175 47.9422 74.2252C48.189 74.2249 48.4331 74.2755 48.6585 74.3737C48.8839 74.4719 49.0855 74.6154 49.2501 74.7949C49.4311 75.104 49.4814 75.4698 49.3902 75.8146Z" fill="#F78261"/>
<path d="M37.3212 45.9078C34.9856 47.3319 35.3769 51.6042 35.9199 56.4975C36.4537 61.3632 37.6455 66.1384 39.4641 70.6989L45.0286 69.6621C44.6627 62.101 44.2987 54.5398 43.9367 46.9787C42.658 46.2552 39.4115 44.6431 37.3212 45.9078Z" fill="#6F8BEF"/>
<path d="M44.2988 71.0575C44.9372 71.7069 45.5776 72.3525 46.2198 72.9943C46.7517 72.8637 47.3101 72.878 47.8341 73.0357C48.3582 73.1934 48.8279 73.4884 49.1918 73.8887C49.6607 74.4505 49.8924 75.1655 49.84 75.8881L38.7986 75.7628L39.1139 73.2564L42.4129 72.55C42.3963 72.3428 42.4241 72.1346 42.4944 71.9384C42.5648 71.7423 42.6762 71.5626 42.8216 71.4107C43.0142 71.2303 43.2523 71.1026 43.5116 71.0406C43.771 70.9786 44.0425 70.9844 44.2988 71.0575Z" fill="#61B399"/>
<path d="M38.6058 76.0423L50.0734 76.1734C50.1079 76.1667 50.1389 76.1486 50.1612 76.1221C50.1834 76.0956 50.1956 76.0624 50.1956 76.0281C50.1956 75.9938 50.1834 75.9606 50.1612 75.9341C50.1389 75.9077 50.1079 75.8895 50.0734 75.8828L38.6058 75.7518C38.5714 75.7585 38.5404 75.7766 38.5181 75.8031C38.4958 75.8296 38.4836 75.8628 38.4836 75.8971C38.4836 75.9313 38.4958 75.9646 38.5181 75.991C38.5404 76.0175 38.5714 76.0357 38.6058 76.0423Z" fill="#401A16"/>
<path d="M44.398 73.7978L46.2723 73.0402C46.2914 73.0328 46.3088 73.0216 46.3234 73.0074C46.3379 72.9932 46.3494 72.9763 46.357 72.9576C46.3647 72.939 46.3684 72.919 46.3678 72.8989C46.3673 72.8788 46.3626 72.8591 46.354 72.8408C46.3464 72.8222 46.335 72.8052 46.3204 72.791C46.3059 72.7768 46.2885 72.7656 46.2694 72.7581C46.2503 72.7507 46.2298 72.7471 46.2092 72.7476C46.1887 72.7481 46.1684 72.7527 46.1497 72.7611L44.2812 73.5187C44.2616 73.5256 44.2436 73.5363 44.2284 73.5503C44.2132 73.5642 44.2011 73.5811 44.1929 73.5998C44.1847 73.6185 44.1805 73.6386 44.1807 73.659C44.1808 73.6794 44.1852 73.6995 44.1937 73.7181C44.2103 73.7547 44.241 73.7836 44.2792 73.7985C44.3174 73.8134 44.36 73.8132 44.398 73.7978Z" fill="#401A16"/>
<path d="M44.0068 73.3478L45.8811 72.5901C45.9003 72.5827 45.9176 72.5715 45.9322 72.5573C45.9468 72.5431 45.9582 72.5262 45.9659 72.5076C45.9735 72.4889 45.9772 72.4689 45.9767 72.4489C45.9762 72.4288 45.9715 72.409 45.9629 72.3907C45.9553 72.3721 45.9438 72.3551 45.9293 72.3409C45.9147 72.3267 45.8974 72.3155 45.8782 72.3081C45.8591 72.3006 45.8387 72.297 45.8181 72.2975C45.7975 72.298 45.7772 72.3026 45.7585 72.311L43.8901 73.0686C43.8713 73.0761 43.8542 73.0871 43.8398 73.1011C43.8254 73.115 43.8139 73.1315 43.806 73.1498C43.7981 73.168 43.7941 73.1876 43.7939 73.2074C43.7938 73.2272 43.7977 73.2468 43.8054 73.2652C43.8131 73.2835 43.8244 73.3002 43.8386 73.3142C43.8529 73.3283 43.8699 73.3395 43.8886 73.3472C43.9073 73.3548 43.9274 73.3588 43.9477 73.3589C43.9679 73.359 43.9881 73.3552 44.0068 73.3478Z" fill="#401A16"/>
<path d="M37.1284 32.1791C38.5588 31.7302 40.0385 31.4472 41.5368 31.3361C45.1054 31.1014 48.6735 31.8016 51.8716 33.364L46.8326 34.5432L35.3125 34.64L35.4701 30.9943L37.1284 32.1791Z" fill="#F78261"/>
<path d="M31.021 27.6846C30.9872 27.6842 30.9544 27.6728 30.9279 27.6521C30.9015 27.6315 30.8829 27.6028 30.8751 27.5707L29.538 21.0197C29.5311 20.9827 29.5396 20.9446 29.5615 20.9136C29.5833 20.8827 29.6169 20.8614 29.6547 20.8545C29.6736 20.8504 29.6931 20.8501 29.7121 20.8537C29.731 20.8573 29.749 20.8647 29.7649 20.8754C29.7808 20.8861 29.7943 20.8999 29.8045 20.9159C29.8146 20.9319 29.8213 20.9498 29.8241 20.9684L31.1378 27.5137C31.142 27.5321 31.1423 27.5511 31.1386 27.5696C31.1349 27.5881 31.1274 27.6057 31.1164 27.6212C31.1055 27.6367 31.0913 27.6498 31.0749 27.6598C31.0585 27.6697 31.0402 27.6762 31.021 27.6789V27.6846Z" fill="#2E1A1A"/>
<path d="M38.413 25.9759C38.3898 25.9752 38.3671 25.9692 38.3468 25.9583C38.3265 25.9474 38.3092 25.932 38.2962 25.9132L35.8789 19.9091C35.8714 19.892 35.8676 19.8735 35.8677 19.8549C35.8678 19.8363 35.8718 19.8178 35.8794 19.8008C35.8871 19.7837 35.8982 19.7683 35.9122 19.7556C35.9262 19.7429 35.9426 19.7331 35.9606 19.7268C35.9786 19.7195 35.9979 19.7157 36.0174 19.7157C36.037 19.7157 36.0563 19.7196 36.0742 19.727C36.0922 19.7344 36.1084 19.7453 36.122 19.759C36.1356 19.7727 36.1462 19.7888 36.1533 19.8066L38.5706 25.8107C38.5841 25.8455 38.5831 25.884 38.5678 25.9181C38.5525 25.9521 38.5242 25.979 38.4889 25.993L38.413 25.9759Z" fill="#2E1A1A"/>
<path d="M49.3201 26.3744H49.2909C49.2721 26.3704 49.2542 26.3628 49.2385 26.352C49.2227 26.3412 49.2092 26.3274 49.1989 26.3115C49.1886 26.2957 49.1816 26.2779 49.1784 26.2594C49.1751 26.2409 49.1757 26.2219 49.18 26.2035L49.6763 24.1984C49.6848 24.1614 49.708 24.1292 49.7409 24.1089C49.7737 24.0886 49.8135 24.0818 49.8514 24.0901C49.8894 24.0985 49.9224 24.1211 49.9432 24.1532C49.964 24.1852 49.9709 24.224 49.9624 24.261L49.4661 26.2662C49.4572 26.2973 49.4381 26.3247 49.4117 26.3442C49.3854 26.3638 49.3532 26.3744 49.3201 26.3744Z" fill="#2E1A1A"/>
<path d="M70.2526 37.5111H6.86548V38.9694H70.2526V37.5111Z" fill="#F8BC26"/>
<path d="M8.1208 36.8617C6.33021 50.3814 4.5396 63.8972 2.74901 77.4093H2.04834C3.37961 63.9238 4.70893 50.4421 6.03631 36.9642L8.1208 36.8617Z" fill="#F8BC26"/>
<path d="M69.2427 36.8617C71.0294 50.3814 72.818 63.8972 74.6086 77.4093H75.3151C73.9839 63.9238 72.6545 50.4421 71.3272 36.9642L69.2427 36.8617Z" fill="#F8BC26"/>
<path d="M76.5878 37.5909H0.880603L0.25 35.2382L77.125 35.318C76.944 36.0756 76.763 36.8332 76.5878 37.5909Z" fill="#FDDCCE"/>
<path d="M69.3418 35.0274H46.6577C46.4764 35.0376 46.2955 35.0025 46.132 34.9254C45.9685 34.8484 45.8278 34.732 45.7232 34.5872C45.6186 34.4424 45.5535 34.274 45.5342 34.0979C45.5148 33.9217 45.5418 33.7437 45.6125 33.5805L50.3479 18.069C50.4825 17.6651 50.739 17.3103 51.0839 17.0511C51.4288 16.7918 51.8459 16.6403 52.2806 16.6164H74.9647C75.1462 16.6068 75.3272 16.6426 75.4907 16.7203C75.6541 16.7981 75.7945 16.9152 75.8985 17.0606C76.0026 17.2061 76.0669 17.375 76.0853 17.5515C76.1038 17.7279 76.0758 17.906 76.004 18.069L71.2745 33.5805C71.1382 33.983 70.881 34.3361 70.5364 34.5942C70.1917 34.8522 69.7755 35.0031 69.3418 35.0274Z" fill="#2E1A1A"/>
<path d="M62.948 24.8707C62.7378 25.5656 62.1481 26.1353 61.6401 26.1353C61.1321 26.1353 60.8868 25.5656 61.097 24.8707C61.3072 24.1757 61.9028 23.6003 62.4108 23.6003C62.9188 23.6003 63.164 24.17 62.948 24.8707Z" fill="white"/>
<path d="M69.8788 35.1585H33.847C33.688 35.1437 33.5403 35.0716 33.4329 34.9562C33.3254 34.8409 33.2659 34.6906 33.2659 34.5348C33.2659 34.3789 33.3254 34.2287 33.4329 34.1133C33.5403 33.998 33.688 33.9259 33.847 33.911H69.8788C70.0379 33.9259 70.1855 33.998 70.293 34.1133C70.4004 34.2287 70.46 34.3789 70.46 34.5348C70.46 34.6906 70.4004 34.8409 70.293 34.9562C70.1855 35.0716 70.0379 35.1437 69.8788 35.1585Z" fill="#2E1A1A"/>
<path d="M12.6811 35.17H2.84839C2.84839 34.8635 2.91035 34.5601 3.03073 34.277C3.15111 33.994 3.32754 33.7369 3.54992 33.5205C3.77229 33.3041 4.03624 33.1326 4.32666 33.0158C4.61707 32.8991 4.92824 32.8393 5.24234 32.8401H10.2696C10.9035 32.8401 11.5116 33.0854 11.9604 33.5222C12.4091 33.9589 12.662 34.5515 12.6636 35.17H12.6811Z" fill="#401A16"/>
<path d="M9.31787 34.2871C9.23523 34.2868 9.15487 34.2607 9.08864 34.2125C9.0224 34.1642 8.97381 34.0965 8.95002 34.0193L3.37387 15.4488C3.34658 15.3529 3.35878 15.2503 3.40787 15.1631C3.45695 15.0758 3.53904 15.0107 3.63662 14.9817L20.0147 10.2536C20.1095 10.2333 20.2087 10.2487 20.2924 10.2967C20.3761 10.3446 20.4381 10.4216 20.4661 10.5123C20.4942 10.6029 20.4861 10.7006 20.4435 10.7857C20.401 10.8708 20.3271 10.9371 20.2366 10.9713L4.22051 15.5912L9.68572 33.82C9.69995 33.8671 9.70441 33.9165 9.69886 33.9653C9.69332 34.0142 9.67787 34.0614 9.65342 34.1044C9.62896 34.1473 9.59599 34.1851 9.55643 34.2155C9.51687 34.2458 9.4715 34.2683 9.42297 34.2814C9.38847 34.2887 9.35299 34.2906 9.31787 34.2871Z" fill="#2E1A1A"/>
<path d="M21.5212 8.38496L21.0249 7.68429C20.0732 6.35701 18.4091 5.8956 17.3055 6.65323C16.202 7.41086 16.0793 9.09133 17.0311 10.4129L17.5274 11.1022C18.4791 12.4238 20.1432 12.8852 21.2468 12.1333C22.3503 11.3813 22.4729 9.70655 21.5212 8.38496Z" fill="#2E1A1A"/>
<path d="M19.1097 18.3198L17.323 10.8346L21.1884 7.92371L28.4461 11.9112L19.1097 18.3198Z" fill="#2E1A1A"/>
</svg>
