<svg width="76" height="70" viewBox="0 0 76 70" fill="none" xmlns="http://www.w3.org/2000/svg">
<path d="M38.8317 0.0160344C19.6745 -0.528201 3.08093 12.8457 0.573073 30.394C-2.16873 49.5805 12.9189 66.843 31.4827 69.6089C54.573 73.0481 76.9692 53.1521 74.9572 31.5677C73.4433 15.3059 58.3052 0.56927 38.8317 0.0160344Z" fill="#F4F7FA"/>
<mask id="mask0_21_1275" style="mask-type:luminance" maskUnits="userSpaceOnUse" x="37" y="22" width="30" height="34">
<path d="M38.0873 52.7738L43.946 55.268C43.946 55.268 46.3604 52.8055 45.8502 50.1251C44.8091 44.6562 49.7915 44.1483 51.8463 43.631C54.9443 42.851 57.3253 40.8456 54.4238 38.2959C51.5224 35.7462 57.2307 32.0651 62.4186 31.5088C67.4966 30.9644 69.4348 21.8438 58.3333 22.0376C51.7036 22.1533 50.0126 28.2374 48.4101 31.1123C46.8075 33.9873 42.1421 32.2951 42.0683 36.6085C42.0055 40.2931 43.5184 43.6433 40.6292 44.9647C37.7401 46.2862 36.4653 48.6041 38.0873 52.7738Z" fill="white"/>
</mask>
<g mask="url(#mask0_21_1275)">
<path d="M38.0873 52.7738L43.9461 55.268C43.9461 55.268 46.3604 52.8056 45.8502 50.1252C44.8091 44.6563 49.7915 44.1483 51.8463 43.6311C54.9443 42.8511 56.9806 41.0061 54.8646 38.3462C52.4705 35.3365 57.2307 32.0651 62.4197 31.5089C67.4976 30.9644 69.4359 21.8439 58.3344 22.0376C51.7046 22.1534 50.0137 28.2375 48.4111 31.1124C46.8086 33.9873 42.1431 32.2951 42.0693 36.6085C42.0066 40.2932 43.5194 43.6433 40.6303 44.9648C37.7411 46.2863 36.4653 48.6042 38.0873 52.7738Z" fill="#D8DEE8"/>
<g style="mix-blend-mode:soft-light" opacity="0.5">
<path d="M40.386 54.3841L40.5174 54.4141C40.5364 54.3346 42.4749 46.3928 46.8297 39.085C50.8417 32.3524 57.7857 24.7964 68.0815 27.0313L68.111 26.9028C63.5276 25.9079 59.2163 26.7368 55.2968 29.3665C52.1657 31.4665 49.2774 34.7164 46.7126 39.021C42.3473 46.3458 40.4052 54.3044 40.386 54.3841Z" fill="#BEB8F2"/>
<path d="M53.7075 30.5343L53.8369 30.5716C55.111 26.3699 59.1993 21.3718 59.2403 21.3218L59.1353 21.2396C59.0938 21.2891 54.989 26.3079 53.7075 30.5343Z" fill="#BEB8F2"/>
<path d="M56.3681 28.852C61.6634 28.0938 65.0104 30.9642 65.0435 30.9932L65.1337 30.8955C65.1001 30.8657 61.7087 27.9543 56.3484 28.7218L56.3681 28.852Z" fill="#BEB8F2"/>
<path d="M44.2492 44.014C48.1766 38.9142 56.7318 40.8949 56.8133 40.9211L56.8646 40.7989C56.7877 40.7659 48.1046 38.7894 44.1423 43.935L44.2492 44.014Z" fill="#BEB8F2"/>
<path d="M45.2894 41.5868L45.4217 41.6138C46.2767 37.6297 43.3397 33.3873 43.3097 33.3448L43.1985 33.4198C43.228 33.4613 46.1327 37.6582 45.2894 41.5868Z" fill="#BEB8F2"/>
<path d="M40.8511 53.1708C42.0198 51.0323 46.0444 50.6586 46.0849 50.6551L46.0731 50.5239C45.9047 50.5386 41.9353 50.9074 40.7319 53.1088L40.8511 53.1708Z" fill="#BEB8F2"/>
<path d="M41.2835 51.2843L41.4147 51.3158C41.8859 49.4556 40.0664 46.3854 39.4673 45.3764C39.3827 45.2339 39.3097 45.1109 39.3012 45.0864L39.1731 45.1272C39.1846 45.1619 39.2331 45.2439 39.3507 45.4424C39.9428 46.4399 41.7419 49.4756 41.2835 51.2843Z" fill="#BEB8F2"/>
</g>
</g>
<path d="M29.7277 44.5398C31.4112 45.2148 31.8945 46.8705 32.0518 48.1225C31.9183 48.2327 31.8704 48.3295 31.7615 48.4692C30.7783 49.7322 30.0831 50.0664 28.9125 51.1622C28.6607 51.3979 27.7054 51.8706 27.3023 52.0394L26.5459 52.3421C26.5459 52.3421 22.8954 50.3379 23.8297 48.1977C24.764 46.0575 21.5433 43.7251 19.994 42.2841C19.0423 41.3994 18.8978 40.6974 18.6016 40.3177C15.4672 36.2966 13.2876 36.1526 13.0924 34.2344C12.8758 32.1164 15.4703 31.6844 15.3596 29.3697C15.2348 26.7546 11.8429 25.5481 12.2916 23.0474C12.3685 22.6187 12.4594 22.1804 12.7838 21.6937C13.5849 20.4937 14.9875 20.3732 14.9973 18.8758C15.0142 15.8658 17.0157 13.1554 20.1498 13.6774C23.2432 14.1926 24.5695 19.1665 22.5549 25.6818C21.6637 30.4745 22.2507 31.2114 24.0321 32.7187C25.2798 33.7746 29.3797 35.8308 28.6814 38.5605C27.9832 41.2902 27.8033 43.7686 29.7277 44.5398Z" fill="#D8DEE8"/>
<mask id="mask1_21_1275" style="mask-type:luminance" maskUnits="userSpaceOnUse" x="12" y="13" width="21" height="40">
<path d="M32.1333 49.7345L26.7402 52.3646C26.7402 52.3646 22.8965 50.3379 23.8288 48.1977C24.761 46.0575 21.5423 43.7251 19.9931 42.2841C15.7889 38.375 21.2743 34.5594 16.3303 29.102C15.015 27.652 11.9598 25.3293 12.2896 23.0474C12.6658 20.4475 14.9845 20.8015 14.9955 18.8758C15.0125 15.8658 17.014 13.1554 20.1481 13.6774C23.2415 14.1926 24.5675 19.1665 22.5532 25.6818C21.662 30.4745 22.249 31.2114 24.0304 32.7187C25.2783 33.7746 29.378 35.8308 28.6797 38.5605C27.9814 41.2902 27.8034 43.7686 29.7277 44.5398C32.6561 45.7136 32.1333 49.7345 32.1333 49.7345Z" fill="white"/>
</mask>
<g mask="url(#mask1_21_1275)">
<g style="mix-blend-mode:soft-light" opacity="0.5">
<path d="M29.6002 50.6775L29.5003 50.7418C29.1326 50.2073 28.7687 49.6636 28.4195 49.1256C25.8329 45.1427 23.7528 41.0508 22.2368 36.9661C20.9525 33.5045 20.0544 29.9983 19.5673 26.5452C19.1758 23.768 19.0466 21.0098 19.1829 18.3474C19.2793 16.4757 19.5053 14.6702 19.8545 12.9813C19.9153 12.6868 19.995 12.3878 20.0718 12.0988C20.1743 11.7136 20.2802 11.3153 20.3427 10.9238L20.4588 10.9331C20.3955 11.3288 20.2889 11.7298 20.1856 12.1175C20.1087 12.4053 20.0298 12.7028 19.9696 12.9943C19.6216 14.678 19.3961 16.4779 19.3 18.3441C19.1632 21.0001 19.2921 23.7515 19.6829 26.5222C20.1697 29.9683 21.0666 33.4675 22.3478 36.9219C23.8612 41.0005 25.9378 45.0849 28.5204 49.0616C28.8697 49.6008 29.2328 50.1438 29.6002 50.6775Z" fill="#FCFDFE"/>
<path d="M20.4631 30.6894L20.3491 30.7226C19.1552 26.2095 12.4055 21.5849 12.3379 21.5389L12.4107 21.4479C12.4791 21.4944 19.2598 26.1403 20.4631 30.6894Z" fill="#FCFDFE"/>
<path d="M25.0033 42.9649L24.8931 43.0102C23.6926 40.0565 26.8782 34.4156 26.9105 34.3589L27.013 34.4059C26.9812 34.4621 23.8212 40.0575 25.0033 42.9649Z" fill="#FCFDFE"/>
<path d="M25.843 44.5758L25.7405 44.6381C24.5961 42.8936 21.9994 41.1524 18.4304 39.7357C18.251 39.6642 18.251 39.6642 18.2393 39.6472L18.3394 39.5837L18.2882 39.6155L18.323 39.5695C18.3343 39.5755 18.4022 39.6025 18.4806 39.6335C22.0732 41.0584 24.6869 42.8136 25.843 44.5758Z" fill="#FCFDFE"/>
<path d="M28.9444 49.6924L28.8303 49.7262C28.2333 47.5087 30.4562 44.6246 30.4785 44.5958L30.5718 44.6568C30.5505 44.6853 28.3609 47.526 28.9444 49.6924Z" fill="#FCFDFE"/>
<path d="M29.4678 50.7969C27.9006 49.732 25.926 49.0765 23.4307 48.7927L23.4524 48.683C25.9667 48.9692 27.9582 49.631 29.5405 50.7059L29.4678 50.7969Z" fill="#FCFDFE"/>
<path d="M19.2477 19.9132L19.1321 19.9405C18.6197 17.387 17.4427 14.8559 17.0566 14.0239C16.963 13.8226 16.9302 13.7516 16.9236 13.7239L17.0381 13.6921C17.0435 13.7124 17.0971 13.8276 17.1647 13.9734C17.5521 14.8089 18.7334 17.348 19.2477 19.9132Z" fill="#FCFDFE"/>
<path d="M19.4166 24.2217L19.3 24.2162C19.6032 21.7477 23.7387 18.4391 23.9147 18.2993L23.987 18.3816C23.9442 18.4153 19.7141 21.7995 19.4166 24.2217Z" fill="#FCFDFE"/>
</g>
</g>
<path d="M52.4313 53.7578C52.0634 53.8911 51.5386 51.9461 49.3421 50.2329C48.7932 49.8052 45.9658 47.2697 43.3616 48.486L41.8449 49.1944C40.8348 48.3245 40.0476 47.3222 41.3301 46.137C43.3222 44.2963 41.2825 40.4872 39.8967 39.4782C38.1819 38.2282 34.256 35.2426 37.2894 32.3534C39.8144 29.9482 41.9505 28.8597 40.195 25.2076C38.4394 21.5554 39.3271 18.2658 42.9565 16.6851C46.7758 15.0219 47.3093 8.97276 51.1729 8.93526C57.9055 8.86851 57.4578 19.1185 52.2955 24.6543C47.1333 30.1902 51.988 30.4292 53.7705 33.2419C53.9916 33.6388 54.1636 34.0599 54.283 34.4963C55.2124 37.9077 52.2297 40.0994 51.2337 43.7888C49.8771 48.8212 53.0515 53.5331 52.4313 53.7578Z" fill="url(#paint0_linear_21_1275)"/>
<mask id="mask2_21_1275" style="mask-type:luminance" maskUnits="userSpaceOnUse" x="36" y="8" width="21" height="42">
<path d="M50.6773 45.8568L42.591 49.9066C41.5501 49.0944 39.8974 47.4625 41.33 46.1385C43.322 44.2978 41.2824 40.4886 39.8966 39.4797C38.1818 38.2297 34.2562 35.244 37.2893 32.3549C39.8143 29.9497 41.9504 28.8612 40.1949 25.209C38.4393 21.5569 39.327 18.2672 42.9564 16.6865C46.7757 15.0233 47.3092 8.97397 51.1728 8.93673C57.9054 8.86998 57.4575 19.12 52.2954 24.6558C47.1334 30.1917 51.9879 30.4307 53.7704 33.2433C56.2047 37.0832 49.8842 39.2204 49.2018 41.5644C48.6665 43.4011 49.8252 44.9695 50.6773 45.8568Z" fill="white"/>
</mask>
<g mask="url(#mask2_21_1275)">
<g style="mix-blend-mode:soft-light" opacity="0.5">
<path d="M46.2365 46.5992L46.0479 46.6542C42.2655 33.9068 45.1995 19.2661 53.7055 8.44568L53.8615 8.55018C45.3917 19.3249 42.47 33.9045 46.2365 46.5992Z" fill="#FCFDFE"/>
<path d="M44.819 39.4609L44.6434 39.5494C42.1151 34.951 35.8438 33.5425 35.7808 33.529L35.832 33.3508C35.8966 33.3645 42.2509 34.79 44.819 39.4609Z" fill="#FCFDFE"/>
<path d="M45.6101 44.2341L45.4143 44.2358C45.5768 38.9095 54.5109 33.6469 54.6014 33.5944L54.7003 33.7484C54.6114 33.7996 45.7695 39.009 45.6101 44.2341Z" fill="#FCFDFE"/>
<path d="M45.5518 26.3581L45.3566 26.3758C45.0988 22.1694 39.8092 18.1725 39.7559 18.1328L39.8814 17.988C39.9355 18.0285 45.2897 22.0747 45.5518 26.3581Z" fill="#FCFDFE"/>
<path d="M48.16 18.1365L47.9934 18.0465C50.7024 13.8556 57.4472 12.0012 57.5152 11.9829L57.5626 12.1579C57.4954 12.1764 50.8267 14.0109 48.16 18.1365Z" fill="#FCFDFE"/>
</g>
</g>
<path d="M46.1832 53.1066C46.0942 53.4798 44.1414 52.8343 41.4665 53.678C40.798 53.8888 37.0711 54.792 36.6747 57.5822C36.598 58.124 36.5212 58.6657 36.4441 59.2071C35.1434 59.5499 33.8522 59.6376 33.546 57.9402C33.0704 55.3042 28.6887 54.8638 27.0618 55.4352C25.0485 56.1422 20.3298 57.6904 19.5318 53.6288C18.8679 50.2486 19.1149 47.9087 15.0242 47.3237C10.9336 46.7387 8.60944 44.2023 9.25876 40.3766C9.94242 36.3517 5.06406 32.5811 7.16192 29.4154C10.8175 23.8993 19.335 29.9154 21.2222 37.1697C23.1095 44.424 25.9909 40.6039 29.3787 40.7044C29.8401 40.7434 30.2951 40.8357 30.7343 40.9794C34.1636 42.1043 34.3929 45.74 36.9989 48.5847C40.5535 52.4636 46.3328 52.4781 46.1832 53.1066Z" fill="url(#paint1_linear_21_1275)"/>
<mask id="mask3_21_1275" style="mask-type:luminance" maskUnits="userSpaceOnUse" x="6" y="27" width="33" height="33">
<path d="M38.4597 50.1774L37.4637 58.9919C36.1953 59.3919 33.8883 59.8364 33.5463 57.9402C33.0707 55.3042 28.6889 54.8638 27.062 55.4352C25.0487 56.1422 20.33 57.6904 19.5321 53.6288C18.8679 50.2486 19.1151 47.9087 15.024 47.3237C10.9328 46.7387 8.60943 44.2023 9.2585 40.3766C9.94241 36.3517 5.06379 32.5811 7.16166 29.4154C10.8172 23.8993 19.3347 29.9154 21.222 37.1697C23.1092 44.424 25.9907 40.6039 29.3785 40.7044C34.0034 40.8416 32.3465 47.1635 33.9744 49.0112C35.2516 50.4596 37.2313 50.3819 38.4597 50.1774Z" fill="white"/>
</mask>
<g mask="url(#mask3_21_1275)">
<g style="mix-blend-mode:soft-light" opacity="0.5">
<path d="M36.6457 54.2013L36.5888 54.3853C23.6029 50.4354 12.7018 39.9734 8.13965 27.0843L8.31518 27.0148C12.8581 39.8492 23.7139 50.2669 36.6457 54.2013Z" fill="#FCFDFE"/>
<path d="M29.7601 51.4188L29.7393 51.6101C24.4133 51.1321 19.7507 55.46 19.7043 55.5032L19.5803 55.3632C19.6272 55.319 24.349 50.9336 29.7601 51.4188Z" fill="#FCFDFE"/>
<path d="M34.2779 53.4072L34.1715 53.5674C29.7065 50.499 30.1331 40.3243 30.138 40.2223L30.3243 40.2268C30.3197 40.328 29.8976 50.3963 34.2779 53.4072Z" fill="#FCFDFE"/>
<path d="M18.9606 43.5974L18.8678 43.7664C15.129 41.6564 8.79439 43.7579 8.73084 43.7791L8.67651 43.5971C8.74083 43.5754 15.1525 41.4492 18.9606 43.5974Z" fill="#FCFDFE"/>
<path d="M13.3685 36.9414L13.1996 37.0274C11.1097 32.5118 13.2432 25.9997 13.2652 25.9342L13.4415 25.9925C13.4197 26.0569 11.3111 32.4963 13.3685 36.9414Z" fill="#FCFDFE"/>
</g>
</g>
<path d="M37.8365 64.6501C37.6639 64.6572 37.4988 64.6608 37.3412 64.6608C31.0888 64.6608 15.3237 65.8395 10.6662 52.6334C6.38698 40.5042 22.3414 21.9064 24.9708 18.956C25.2045 18.6935 25.3328 18.556 25.3328 18.556C25.3328 18.556 24.6382 18.056 38.7005 17.5288C54.8503 29.6125 57.4024 39.1782 57.4024 39.1782C62.5406 58.7777 44.5354 64.3816 37.8365 64.6501Z" fill="url(#paint2_linear_21_1275)"/>
<path style="mix-blend-mode:multiply" opacity="0.3" d="M37.8365 64.6502C37.6639 64.6574 37.4988 64.6609 37.3412 64.6609C31.0888 64.6609 15.3237 65.8397 10.6662 52.6335C6.38698 40.5043 22.3414 21.9066 24.9708 18.9562C25.6408 18.8547 26.2866 18.8857 26.9005 19.0717C27.1358 19.1434 -5.83634 60.3061 37.8365 64.6502Z" fill="url(#paint3_linear_21_1275)"/>
<path d="M22.6594 8.19235C22.6594 8.19235 25.2821 3.84097 28.9845 5.44417C32.687 7.04738 35.6697 8.24985 37.6238 7.10463C39.5779 5.95941 40.6003 5.05193 41.1433 7.56687C41.6863 10.0818 34.2813 16.2651 34.2813 16.2651C34.2813 16.2651 22.9679 16.2651 22.6594 8.19235Z" fill="url(#paint4_linear_21_1275)"/>
<path style="mix-blend-mode:multiply" opacity="0.2" d="M22.6594 10.1014C22.6594 10.1014 25.2821 5.75002 28.9845 7.35323C32.687 8.95644 35.6697 10.1587 37.6238 9.01369C39.5779 7.86872 40.6003 6.96099 41.1433 9.47493C41.6863 11.9889 34.2813 18.1747 34.2813 18.1747C34.2813 18.1747 22.9679 18.1747 22.6594 10.1014Z" fill="url(#paint5_linear_21_1275)"/>
<path d="M41.6997 14.3663C40.6504 15.8875 39.4263 17.1912 38.3488 17.7284C36.9976 18.4012 34.5907 18.8094 32.1938 18.9799C29.7969 19.1504 27.4062 19.0814 26.0953 18.8022H26.0927C25.7675 18.7329 25.5095 18.6507 25.3334 18.5564C25.3334 18.5564 21.0959 11.9921 21.035 8.92941C21.0139 7.95694 21.4152 7.33771 22.5048 7.3927C27.0308 7.62045 27.1335 10.0831 30.2177 9.3959C33.3018 8.70867 35.5655 4.12829 37.6231 7.10621C39.6808 10.0841 41.8911 5.8465 43.7427 7.22096C44.9381 8.10619 43.6097 11.5958 41.6997 14.3663Z" fill="url(#paint6_linear_21_1275)"/>
<path d="M25.0852 18.1607C25.0852 18.1607 33.4131 20.4896 38.8606 17.4237C39.3298 18.0019 39.5734 18.1879 39.5734 18.1879C39.5734 18.1879 35.5722 21.7523 24.7495 19.2072C24.7495 19.2072 25.0124 18.4527 25.0852 18.1607Z" fill="url(#paint7_linear_21_1275)"/>
<path style="mix-blend-mode:multiply" opacity="0.2" d="M41.6996 14.3664C40.6503 15.8876 39.4263 17.1913 38.3488 17.7285C36.9976 18.4013 34.5907 18.8095 32.1938 18.98L26.0952 18.8022H26.0926C25.7675 18.733 25.5094 18.6507 25.3334 18.5565C25.3334 18.5565 21.0959 11.9922 21.0349 8.9295C21.0862 8.87575 22.7517 7.1588 24.7486 10.8397C26.7789 14.5776 27.5125 17.836 29.9168 16.2671C32.3211 14.6981 36.0313 8.53201 36.6845 11.4349C37.3376 14.3379 34.9307 17.1308 36.6845 16.669C38.0518 16.3086 40.6859 14.3161 41.6996 14.3664Z" fill="url(#paint8_linear_21_1275)"/>
<g opacity="0.9">
<path d="M35.8233 28.4086C36.3358 28.3909 36.7673 28.7361 36.7868 29.1801L36.8539 30.6993C37.886 30.6765 38.9186 30.7079 39.9473 30.7933C40.7086 30.8563 41.4658 30.9487 42.2186 31.0705C42.6696 31.1438 42.9927 31.4955 42.9684 31.8995L42.8523 33.841C42.8213 34.358 42.2545 34.7292 41.6946 34.5842C41.1887 34.4535 40.6753 34.3522 40.1571 34.281C39.2008 34.1527 38.2341 34.1145 37.2703 34.167L37.0061 34.1802L37.1993 38.6203C39.9301 38.9376 41.9508 39.5703 43.2841 40.5203C44.6124 41.4668 45.3222 42.7742 45.4134 44.4427C45.5141 46.2599 44.8904 47.8176 43.5306 49.1176C42.1553 50.433 40.1687 51.3425 37.5537 51.84L37.6306 53.6372C37.6511 54.1162 37.237 54.5499 36.704 54.6057L36.6868 54.6074C36.1523 54.6632 35.7021 54.3177 35.6829 53.8362L35.6111 52.0597L35.1824 52.1015C33.994 52.2201 32.7995 52.2715 31.605 52.2555C30.7721 52.2428 29.9405 52.1887 29.1133 52.0932C28.6213 52.036 28.2741 51.673 28.3059 51.2285L28.4952 48.5738C28.536 48.0026 29.173 47.5894 29.7913 47.7191C30.5117 47.8701 31.2403 47.9813 31.9735 48.0523C33.1232 48.1629 34.2805 48.1779 35.4328 48.0971L35.2447 43.0102C32.5944 42.7825 30.591 42.1963 29.256 41.251C27.9159 40.3024 27.2208 38.966 27.1707 37.2419C27.1195 35.4704 27.7857 34.0247 29.1574 32.9067C30.5142 31.8003 32.4629 31.1013 34.9859 30.8045L34.9226 29.2478C34.9049 28.8024 35.3085 28.4266 35.8233 28.4086ZM35.1314 34.3627C34.3326 34.51 33.7152 34.7756 33.279 35.1594C32.8429 35.5433 32.6344 36.0157 32.6536 36.5769C32.673 37.1077 32.8982 37.5258 33.329 37.8311C33.7598 38.1364 34.416 38.3407 35.2975 38.4439L35.1314 34.3627ZM37.1775 43.1677L37.3787 47.8231C38.2629 47.7064 38.9321 47.4305 39.3863 46.9954C39.8406 46.5602 40.051 46.0066 40.0175 45.3344C39.9883 44.7206 39.7467 44.2406 39.2928 43.8945C38.8389 43.5483 38.1337 43.3061 37.177 43.1677H37.1775Z" fill="url(#paint9_linear_21_1275)"/>
</g>
<path d="M6.63452 64.9275V67.5462C6.63452 68.3924 12.053 69.0786 18.7369 69.0786C25.4207 69.0786 30.839 68.3924 30.839 67.5462V64.9275H6.63452Z" fill="url(#paint10_linear_21_1275)"/>
<path d="M30.839 64.9277C30.839 65.7739 25.4207 66.4599 18.7369 66.4599C12.053 66.4599 6.63452 65.7739 6.63452 64.9277C6.63452 64.0815 12.053 63.3955 18.7369 63.3955C25.4207 63.3955 30.839 64.0815 30.839 64.9277Z" fill="url(#paint11_linear_21_1275)"/>
<path d="M18.7374 66.5655C12.8182 66.5655 6.62842 66.0138 6.62842 64.9498C6.62842 64.8916 6.64969 64.7888 6.70965 64.7888C6.76961 64.7888 6.74373 64.8691 6.74373 64.9276C6.74373 65.6025 11.6695 66.354 18.7374 66.354C25.8054 66.354 30.7296 65.6023 30.7296 64.9276C30.7296 64.8691 30.7399 64.8143 30.7996 64.8143C30.8593 64.8143 30.8452 64.8923 30.8452 64.9508C30.8462 66.0148 24.6567 66.5655 18.7374 66.5655Z" fill="url(#paint12_linear_21_1275)"/>
<path d="M17.5931 65.0129C17.7117 64.9329 17.8381 64.8537 17.9734 64.7757C18.1375 64.6854 18.3121 64.6145 18.4933 64.5642C18.7544 64.4916 19.0212 64.4401 19.291 64.4102C19.6102 64.3707 20.0084 64.3497 20.4861 64.3474C20.9538 64.3451 21.3928 64.3596 21.8032 64.3909C22.1668 64.4159 22.5285 64.4626 22.8863 64.5307C23.1974 64.593 23.4509 64.6697 23.6468 64.7609C23.8428 64.8521 23.9587 64.9568 23.9946 65.0751L25.3573 65.0886C25.4449 65.0882 25.5323 65.0962 25.6184 65.1124C25.6953 65.1274 25.7314 65.1466 25.7314 65.1696V65.2791L23.9794 65.2629C23.9179 65.3962 23.7614 65.5188 23.5098 65.6306C23.2581 65.7425 22.9379 65.8389 22.5491 65.9199L21.9111 65.8334C21.8631 65.827 21.8159 65.816 21.7701 65.8006C21.7335 65.7876 21.7155 65.7734 21.7155 65.7579C21.7155 65.7369 21.7648 65.7129 21.8634 65.6859C21.962 65.6589 22.073 65.6255 22.1965 65.5859C22.3211 65.5459 22.4432 65.4987 22.5622 65.4446C22.6811 65.3906 22.7605 65.3259 22.802 65.2504L18.667 65.2104C18.5497 65.2935 18.4278 65.3703 18.3019 65.4404C18.1666 65.5154 17.9882 65.5834 17.7655 65.6436C17.4924 65.7128 17.2142 65.7619 16.9335 65.7904C16.6004 65.8276 16.1832 65.8476 15.6779 65.8501C15.299 65.8519 14.93 65.8379 14.5687 65.8081C14.2451 65.7836 13.9234 65.739 13.6057 65.6744C13.3254 65.6149 13.0947 65.5413 12.9138 65.4536C12.7345 65.3659 12.634 65.2654 12.6133 65.1516L11.4914 65.1404C11.4026 65.1405 11.3139 65.1329 11.2265 65.1176C11.1496 65.1029 11.1096 65.0836 11.1094 65.0591V64.9499L12.6432 64.9641C12.7112 64.8486 12.85 64.7482 13.0625 64.6627C13.3149 64.5652 13.5753 64.4887 13.8409 64.4342L14.3547 64.5029C14.5107 64.5244 14.5881 64.5494 14.5881 64.5779C14.5881 64.5934 14.5566 64.6127 14.4923 64.6357C14.428 64.6587 14.3503 64.6857 14.2617 64.7179C14.1738 64.7498 14.0882 64.7874 14.0054 64.8304C13.9328 64.8649 13.869 64.9148 13.8186 64.9764L17.5931 65.0129ZM13.8089 65.1629C13.8396 65.2346 13.9083 65.2964 14.0139 65.3484C14.1377 65.4072 14.2687 65.4504 14.4036 65.4769C14.5768 65.5128 14.7522 65.5374 14.9287 65.5506C15.1243 65.5665 15.3284 65.5738 15.5411 65.5726C15.7582 65.573 15.9752 65.5626 16.1912 65.5414C16.3551 65.525 16.5178 65.4982 16.6781 65.4609C16.8032 65.4319 16.9255 65.3925 17.0437 65.3431C17.1406 65.3017 17.2341 65.2531 17.3233 65.1976L13.8089 65.1629ZM22.8105 65.0651C22.7797 64.9924 22.7046 64.9286 22.5878 64.8736C22.4444 64.8108 22.294 64.7645 22.1396 64.7359C21.9299 64.6946 21.7176 64.6668 21.5041 64.6527C21.2633 64.6345 20.997 64.6262 20.7054 64.6277C20.4819 64.627 20.2586 64.6383 20.0364 64.6614C19.8722 64.6788 19.7095 64.7076 19.5495 64.7477C19.4289 64.7772 19.3119 64.8191 19.2003 64.8726C19.1078 64.9184 19.0183 64.9698 18.9325 65.0266L22.8105 65.0651Z" fill="#FCB048"/>
<path d="M18.7375 63.5612C13.3413 63.5612 7.72288 64.0244 6.82397 64.9211C6.85894 64.9524 6.89181 64.9858 6.92237 65.0211C7.67983 64.3984 12.3191 63.7711 18.7375 63.7711C25.3206 63.7711 30.0345 64.4306 30.6054 65.0686C30.6333 65.0334 30.6635 65 30.6959 64.9686C29.9545 64.0416 24.2306 63.5612 18.7375 63.5612Z" fill="url(#paint13_linear_21_1275)"/>
<path d="M3.27026 62.1768V64.7957C3.27026 65.6419 8.68853 66.3279 15.3724 66.3279C22.0562 66.3279 27.4753 65.6419 27.4753 64.7957V62.1768H3.27026Z" fill="url(#paint14_linear_21_1275)"/>
<path d="M27.4753 62.1766C27.4753 63.0228 22.057 63.7088 15.3731 63.7088C8.6893 63.7088 3.27026 63.0233 3.27026 62.1766C3.27026 61.3299 8.68853 60.6444 15.3724 60.6444C22.0562 60.6444 27.4753 61.3304 27.4753 62.1766Z" fill="url(#paint15_linear_21_1275)"/>
<path d="M15.3725 63.8147C9.45324 63.8147 3.26343 63.2632 3.26343 62.1992C3.26343 62.1407 3.2847 62.038 3.34466 62.038C3.40462 62.038 3.37874 62.1185 3.37874 62.1767C3.37874 62.8517 8.3045 63.6032 15.3725 63.6032C22.4404 63.6032 27.3662 62.8514 27.3662 62.1767C27.3662 62.1185 27.3764 62.0637 27.4364 62.0637C27.4963 62.0637 27.4817 62.1417 27.4817 62.2C27.4817 63.2639 21.2919 63.8147 15.3725 63.8147Z" fill="url(#paint16_linear_21_1275)"/>
<path d="M14.2288 62.2623C14.3477 62.182 14.474 62.103 14.6093 62.025C14.7734 61.9348 14.9478 61.8639 15.1289 61.8136C15.3902 61.741 15.657 61.6895 15.9269 61.6596C16.2462 61.6197 16.6444 61.5987 17.1217 61.5966C17.5896 61.5942 18.0288 61.6087 18.4391 61.6401C18.8027 61.6653 19.1644 61.7121 19.5222 61.7801C19.833 61.8421 20.0865 61.9188 20.2828 62.0103C20.479 62.1018 20.5949 62.2065 20.6302 62.3245L21.9929 62.338C22.0806 62.3374 22.1682 62.3453 22.2543 62.3615C22.3312 62.3768 22.367 62.3958 22.3673 62.419V62.5285L20.6154 62.512C20.5542 62.6454 20.3976 62.768 20.1457 62.88C19.8937 62.992 19.5736 63.0884 19.1853 63.169L18.5472 63.0825C18.4993 63.0762 18.4521 63.0653 18.4063 63.05C18.3694 63.037 18.3517 63.0228 18.3514 63.0073C18.3514 62.9863 18.4008 62.9623 18.4996 62.9353C18.5983 62.9083 18.7093 62.8749 18.8327 62.8353C18.9573 62.7952 19.0794 62.7482 19.1983 62.6943C19.3172 62.64 19.3967 62.5753 19.4382 62.5L15.3032 62.46C15.1859 62.5432 15.064 62.6199 14.938 62.6898C14.8027 62.7648 14.6244 62.833 14.4015 62.893C14.1283 62.9624 13.8502 63.0115 13.5694 63.0398C13.2363 63.0773 12.8194 63.0973 12.3138 63.0998C11.9349 63.1015 11.5659 63.0875 11.2046 63.0578C10.8811 63.0332 10.5595 62.9884 10.2419 62.9238C9.96154 62.8643 9.73134 62.7908 9.55129 62.7033C9.37192 62.6155 9.27147 62.5148 9.25046 62.401L8.12863 62.3898C8.03978 62.3902 7.95109 62.3825 7.86367 62.367C7.7868 62.3525 7.74683 62.333 7.74683 62.3088V62.1993L9.28044 62.2135C9.34835 62.0983 9.48723 61.9978 9.69991 61.9136C9.95226 61.8159 10.2127 61.7395 10.4784 61.6851L10.9909 61.7538C11.1469 61.7753 11.2243 61.8003 11.2246 61.8288C11.2246 61.8446 11.193 61.8636 11.1285 61.8866C11.0639 61.9096 10.9868 61.9366 10.8978 61.969C10.81 62.0009 10.7243 62.0385 10.6416 62.0815C10.5689 62.116 10.5051 62.1659 10.4548 62.2275L14.2288 62.2623ZM10.4446 62.4123C10.4756 62.484 10.5442 62.5458 10.6495 62.5978C10.7735 62.6565 10.9045 62.6997 11.0396 62.7263C11.2127 62.7626 11.3881 62.7876 11.5646 62.8013C11.7599 62.8168 11.964 62.8241 12.177 62.8233C12.3941 62.8236 12.6111 62.8131 12.8271 62.7918C12.991 62.7755 13.1537 62.7487 13.314 62.7115C13.4391 62.6825 13.5614 62.6431 13.6796 62.5938C13.7765 62.5525 13.8699 62.5037 13.9589 62.448L10.4446 62.4123ZM19.4464 62.3143C19.4156 62.2415 19.3403 62.1778 19.2234 62.123C19.0801 62.06 18.9297 62.0137 18.7753 61.985C18.5656 61.944 18.3534 61.9162 18.14 61.9018C17.8988 61.8838 17.6326 61.8755 17.3413 61.8768C17.1178 61.876 16.8943 61.8873 16.672 61.9105C16.5078 61.9279 16.3451 61.9567 16.1852 61.9968C16.0646 62.0264 15.9475 62.0682 15.8359 62.1218C15.7434 62.1675 15.6538 62.2189 15.5679 62.2755L19.4464 62.3143Z" fill="#FCB048"/>
<path d="M15.3742 60.8104C9.97798 60.8104 4.35934 61.2737 3.46069 62.1704C3.49558 62.2016 3.52836 62.235 3.55883 62.2704C4.31655 61.6477 8.95583 61.0204 15.3742 61.0204C21.9571 61.0204 26.6709 61.6802 27.2419 62.3181C27.2699 62.2831 27.3001 62.2497 27.3323 62.2181C26.5902 61.2907 20.866 60.8104 15.3742 60.8104Z" fill="url(#paint17_linear_21_1275)"/>
<path d="M6.17334 59.434V62.0529C6.17334 62.8991 11.5916 63.5851 18.2755 63.5851C24.9593 63.5851 30.3776 62.8991 30.3776 62.0529V59.434H6.17334Z" fill="url(#paint18_linear_21_1275)"/>
<path d="M30.3776 59.4341C30.3776 60.2803 24.9593 60.9663 18.2755 60.9663C11.5916 60.9663 6.17334 60.2803 6.17334 59.4341C6.17334 58.5878 11.5916 57.9019 18.2755 57.9019C24.9593 57.9019 30.3776 58.5878 30.3776 59.4341Z" fill="url(#paint19_linear_21_1275)"/>
<path d="M18.2763 61.072C12.357 61.072 6.16724 60.5205 6.16724 59.4565C6.16724 59.398 6.1885 59.2953 6.24846 59.2953C6.30843 59.2953 6.28255 59.3758 6.28255 59.434C6.28255 60.109 11.2081 60.8605 18.2763 60.8605C25.3445 60.8605 30.2684 60.1088 30.2684 59.434C30.2684 59.3758 30.2787 59.321 30.3387 59.321C30.3986 59.321 30.384 59.3988 30.384 59.4573C30.3848 60.5213 24.1955 61.072 18.2763 61.072Z" fill="url(#paint20_linear_21_1275)"/>
<path d="M17.1318 59.5195C17.2507 59.4392 17.377 59.3602 17.5123 59.282C17.6764 59.1918 17.8508 59.1209 18.0319 59.0708C18.2932 58.9982 18.56 58.9467 18.8299 58.9168C19.1492 58.8769 19.5474 58.8559 20.0247 58.8538C20.4926 58.8514 20.9318 58.8659 21.3421 58.8973C21.7057 58.9225 22.0674 58.9693 22.4252 59.0373C22.736 59.0993 22.9895 59.1759 23.1858 59.2672C23.382 59.3586 23.4979 59.4634 23.5332 59.5817L24.8959 59.5952C24.9835 59.5946 25.071 59.6025 25.157 59.6187C25.2339 59.634 25.27 59.653 25.2703 59.6762V59.7857L23.5184 59.7692C23.4572 59.9026 23.3006 60.0252 23.0487 60.1372C22.7967 60.2492 22.4766 60.3456 22.0883 60.4262L21.4502 60.3397C21.4023 60.3334 21.3551 60.3225 21.3093 60.3072C21.2724 60.2942 21.2547 60.28 21.2545 60.2645C21.2545 60.2431 21.3038 60.2191 21.4026 60.1925C21.5012 60.1652 21.6127 60.132 21.7357 60.0925C21.8603 60.0524 21.9824 60.0054 22.1013 59.9515C22.2202 59.8972 22.2997 59.8325 22.3412 59.7572L18.2062 59.7172C18.0889 59.8004 17.967 59.8771 17.841 59.947C17.7057 60.022 17.5274 60.09 17.3045 60.1502C17.0313 60.2195 16.7532 60.2685 16.4724 60.297C16.1393 60.3345 15.7224 60.3545 15.2169 60.3567C14.8379 60.3587 14.4689 60.3447 14.1076 60.315C13.7841 60.2904 13.4625 60.2456 13.1449 60.181C12.8645 60.1215 12.6339 60.0479 12.453 59.9602C12.2721 59.8726 12.1718 59.7719 12.1522 59.6582L11.0304 59.647C10.9424 59.6468 10.8547 59.639 10.7682 59.6235C10.6913 59.609 10.6514 59.5895 10.6514 59.5652V59.4557L12.185 59.47C12.2529 59.3547 12.3918 59.254 12.6045 59.1685C12.8568 59.0711 13.1171 58.9947 13.3827 58.9403L13.8964 59.009C14.0525 59.0303 14.1299 59.0553 14.1301 59.084C14.1301 59.0995 14.0986 59.1188 14.034 59.1418C13.9695 59.1648 13.8923 59.1918 13.8034 59.2243C13.7156 59.2561 13.63 59.2936 13.5472 59.3365C13.4746 59.3711 13.4108 59.421 13.3604 59.4825L17.1318 59.5195ZM13.3476 59.6695C13.3786 59.7412 13.4472 59.803 13.5526 59.855C13.6764 59.9136 13.8073 59.9567 13.9423 59.9832C14.1154 60.0197 14.2908 60.0447 14.4673 60.0582C14.6626 60.0737 14.8667 60.0811 15.0798 60.0802C15.2969 60.0805 15.5138 60.07 15.7299 60.0487C15.8938 60.0323 16.0564 60.0055 16.2167 59.9685C16.3418 59.9394 16.4641 59.9 16.5824 59.8507C16.6792 59.8092 16.7725 59.7605 16.8617 59.705L13.3476 59.6695ZM22.3494 59.5715C22.3186 59.4987 22.2433 59.435 22.1265 59.3802C21.9831 59.3173 21.8327 59.271 21.6783 59.2422C21.4685 59.2012 21.2562 59.1734 21.0428 59.159C20.8019 59.1408 20.5358 59.1325 20.2443 59.134C20.0208 59.1334 19.7973 59.1448 19.575 59.168C19.4108 59.1853 19.2481 59.214 19.0882 59.254C18.9676 59.2836 18.8505 59.3255 18.7389 59.379C18.6464 59.4248 18.5568 59.4762 18.4709 59.533L22.3494 59.5715Z" fill="#FCB048"/>
<path d="M18.2761 58.0679C12.8798 58.0679 7.26119 58.5311 6.36255 59.4278C6.39756 59.4589 6.43035 59.4924 6.46069 59.5278C7.21815 58.9051 11.8577 58.2779 18.2761 58.2779C24.859 58.2779 29.5728 58.9376 30.1437 59.5756C30.1719 59.5406 30.2021 59.5072 30.2342 59.4756C29.4931 58.5486 23.7689 58.0679 18.2761 58.0679Z" fill="url(#paint21_linear_21_1275)"/>
<path d="M7.93506 56.6835V59.3022C7.93506 60.1486 13.3533 60.8346 20.0372 60.8346C26.721 60.8346 32.139 60.1486 32.139 59.3022V56.6835H7.93506Z" fill="url(#paint22_linear_21_1275)"/>
<path d="M20.0372 58.2155C26.721 58.2155 32.1393 57.5295 32.1393 56.6833C32.1393 55.8371 26.721 55.1511 20.0372 55.1511C13.3534 55.1511 7.93506 55.8371 7.93506 56.6833C7.93506 57.5295 13.3534 58.2155 20.0372 58.2155Z" fill="url(#paint23_linear_21_1275)"/>
<path d="M20.037 58.3214C14.1178 58.3214 7.92773 57.7696 7.92773 56.7057C7.92773 56.6474 7.94926 56.5447 8.00896 56.5447C8.06867 56.5447 8.0433 56.6249 8.0433 56.6834C8.0433 57.3584 12.9688 58.1099 20.037 58.1099C27.1052 58.1099 32.0307 57.3582 32.0307 56.6834C32.0307 56.6249 32.041 56.5702 32.101 56.5702C32.1609 56.5702 32.1463 56.6482 32.1463 56.7067C32.1463 57.7706 25.9562 58.3214 20.037 58.3214Z" fill="url(#paint24_linear_21_1275)"/>
<path d="M18.8934 56.7685C19.012 56.6885 19.1383 56.6092 19.2736 56.5312C19.4378 56.441 19.6123 56.37 19.7935 56.3197C20.0547 56.2472 20.3215 56.1958 20.5912 56.166C20.9105 56.1262 21.3087 56.1052 21.7863 56.103C22.2541 56.1008 22.6931 56.1153 23.1034 56.1465C23.4671 56.1715 23.8289 56.2182 24.1868 56.2862C24.4976 56.3484 24.751 56.4252 24.9471 56.5165C25.1432 56.6078 25.2591 56.7126 25.2948 56.8307L26.6575 56.8442C26.7452 56.8442 26.8326 56.8526 26.9186 56.8692C26.9955 56.8842 27.0316 56.9035 27.0319 56.9265V57.036L25.28 57.0197C25.2185 57.1531 25.0619 57.2756 24.8103 57.3875C24.5586 57.4993 24.2384 57.5957 23.8496 57.6767L23.2118 57.5902C23.1638 57.5839 23.1166 57.5729 23.0709 57.5575C23.034 57.5445 23.016 57.5302 23.016 57.5147C23.016 57.4937 23.0652 57.4697 23.1642 57.4427C23.2631 57.4157 23.3743 57.3822 23.4973 57.3427C23.6219 57.3027 23.744 57.2555 23.8629 57.2015C23.9818 57.1475 24.0615 57.0827 24.1028 57.0072L19.968 56.9672C19.8507 57.0504 19.7287 57.1272 19.6026 57.1972C19.4676 57.2722 19.2892 57.3402 19.0663 57.4005C18.7931 57.4697 18.515 57.5187 18.2343 57.5472C17.9012 57.5847 17.4843 57.6045 16.9787 57.607C16.5997 57.6087 16.2307 57.5947 15.8694 57.565C15.5459 57.5405 15.2244 57.4958 14.9067 57.4312C14.6249 57.3717 14.3965 57.298 14.2149 57.2105C14.0332 57.123 13.935 57.0222 13.9143 56.9085L12.7925 56.8972C12.7036 56.8974 12.6149 56.8898 12.5275 56.8745C12.4506 56.8597 12.4107 56.8405 12.4104 56.816V56.7067L13.9443 56.721C14.0122 56.6055 14.1511 56.505 14.3635 56.4195C14.6159 56.322 14.8763 56.2456 15.142 56.191L15.6557 56.2597C15.8118 56.2812 15.8892 56.3062 15.8894 56.3347C15.8894 56.3502 15.8579 56.3695 15.7933 56.3925C15.7287 56.4155 15.6516 56.4425 15.5627 56.4747C15.4748 56.5067 15.3892 56.5442 15.3065 56.5872C15.2338 56.6217 15.17 56.6716 15.1197 56.7332L18.8934 56.7685ZM15.1092 56.9185C15.1399 56.9902 15.2088 57.052 15.3141 57.104C15.4379 57.1628 15.5689 57.206 15.7039 57.2325C15.8771 57.2688 16.0526 57.2938 16.2292 57.3075C16.4244 57.3231 16.6285 57.3305 16.8414 57.3295C17.0585 57.33 17.2754 57.3196 17.4914 57.2982C17.6554 57.2818 17.818 57.255 17.9783 57.218C18.1035 57.1888 18.2259 57.1493 18.3442 57.1C18.441 57.0586 18.5344 57.0099 18.6235 56.9545L15.1092 56.9185ZM24.1107 56.8207C24.08 56.748 24.0049 56.6842 23.888 56.6292C23.7447 56.5663 23.5943 56.5201 23.4399 56.4915C23.2301 56.4502 23.0179 56.4224 22.8044 56.4082C22.5635 56.3901 22.2973 56.3817 22.0057 56.3832C21.7822 56.3826 21.5589 56.3939 21.3366 56.417C21.1724 56.4344 21.0097 56.4632 20.8498 56.5032C20.7292 56.5328 20.6123 56.5747 20.5008 56.6282C20.4082 56.6739 20.3186 56.7254 20.2327 56.7822L24.1107 56.8207Z" fill="#FCB048"/>
<path d="M20.0385 55.3168C14.6425 55.3168 9.02389 55.78 8.12524 56.677C8.16013 56.7082 8.19292 56.7416 8.22339 56.777C8.98084 56.1545 13.6201 55.527 20.0385 55.527C26.6217 55.527 31.3355 56.1865 31.9064 56.8245C31.9345 56.7894 31.9647 56.756 31.9969 56.7245C31.2545 55.7985 25.5306 55.3168 20.0385 55.3168Z" fill="url(#paint25_linear_21_1275)"/>
<path d="M6.63452 53.7156V56.3345C6.63452 57.1807 12.053 57.8667 18.7369 57.8667C25.4207 57.8667 30.839 57.1807 30.839 56.3345V53.7156H6.63452Z" fill="url(#paint26_linear_21_1275)"/>
<path d="M30.839 53.7153C30.839 54.5615 25.4207 55.2475 18.7369 55.2475C12.053 55.2475 6.63452 54.5615 6.63452 53.7153C6.63452 52.8691 12.053 52.1831 18.7369 52.1831C25.4207 52.1831 30.839 52.8691 30.839 53.7153Z" fill="url(#paint27_linear_21_1275)"/>
<path d="M18.7374 55.3532C12.8182 55.3532 6.62842 54.8018 6.62842 53.7378C6.62842 53.6793 6.64969 53.5765 6.70965 53.5765C6.76961 53.5765 6.74373 53.657 6.74373 53.7153C6.74373 54.3903 11.6695 55.1417 18.7374 55.1417C25.8054 55.1417 30.7296 54.39 30.7296 53.7153C30.7296 53.657 30.7399 53.6023 30.7996 53.6023C30.8593 53.6023 30.8452 53.6803 30.8452 53.7385C30.8462 54.8025 24.6567 55.3532 18.7374 55.3532Z" fill="url(#paint28_linear_21_1275)"/>
<path d="M17.5931 53.8007C17.7117 53.7205 17.8381 53.6415 17.9734 53.5635C18.1375 53.4733 18.3121 53.4023 18.4933 53.352C18.7544 53.2795 19.0212 53.228 19.291 53.198C19.6102 53.1583 20.0084 53.1373 20.4861 53.135C20.9538 53.1327 21.3928 53.1472 21.8032 53.1785C22.1668 53.2037 22.5285 53.2505 22.8863 53.3185C23.1974 53.3805 23.4509 53.4573 23.6468 53.5487C23.8428 53.6402 23.9587 53.745 23.9946 53.863L25.3573 53.8765C25.4449 53.8759 25.5324 53.8838 25.6184 53.9C25.6953 53.9152 25.7314 53.9342 25.7314 53.9575V54.067L23.9794 54.0505C23.9179 54.1838 23.7614 54.3065 23.5098 54.4185C23.2581 54.5305 22.9379 54.6268 22.5491 54.7075L21.9111 54.621C21.8631 54.6146 21.8159 54.6038 21.7701 54.5885C21.7335 54.5755 21.7155 54.5612 21.7155 54.5457C21.7155 54.5247 21.7648 54.5007 21.8634 54.4737C21.962 54.4467 22.073 54.4134 22.1965 54.3737C22.3211 54.3337 22.4432 54.2866 22.5622 54.2327C22.6811 54.1785 22.7605 54.1137 22.802 54.0385L18.667 53.9985C18.5498 54.0816 18.4279 54.1583 18.3019 54.2282C18.1666 54.3032 17.9882 54.3715 17.7655 54.4317C17.4923 54.5007 17.2142 54.5497 16.9335 54.5782C16.6004 54.6157 16.1832 54.6357 15.6779 54.6382C15.299 54.64 14.93 54.626 14.5687 54.5962C14.2451 54.5716 13.9234 54.5269 13.6057 54.4622C13.3254 54.4027 13.0947 54.3292 12.9138 54.2417C12.7345 54.154 12.634 54.0532 12.6133 53.9395L11.4914 53.9282C11.4026 53.9286 11.3139 53.921 11.2265 53.9055C11.1496 53.891 11.1096 53.8715 11.1094 53.8472V53.7377L12.6432 53.752C12.7112 53.6367 12.85 53.5363 13.0625 53.4505C13.3149 53.3531 13.5753 53.2767 13.8409 53.2223L14.3547 53.291C14.5107 53.3125 14.5881 53.3375 14.5881 53.366C14.5881 53.3815 14.5566 53.4005 14.4923 53.4235C14.428 53.4465 14.3503 53.4735 14.2617 53.506C14.1738 53.5378 14.0882 53.5754 14.0054 53.6185C13.9327 53.6529 13.8689 53.7028 13.8186 53.7645L17.5931 53.8007ZM13.8089 53.9507C13.8396 54.0225 13.9083 54.0842 14.0139 54.1362C14.1377 54.1951 14.2687 54.2382 14.4036 54.2647C14.5768 54.301 14.7522 54.3261 14.9287 54.3397C15.1243 54.3552 15.3284 54.3626 15.5411 54.3617C15.7582 54.362 15.9752 54.3516 16.1912 54.3305C16.3551 54.314 16.5177 54.2871 16.6781 54.25C16.8032 54.221 16.9255 54.1816 17.0437 54.1322C17.1407 54.0909 17.2341 54.0421 17.3233 53.9865L13.8089 53.9507ZM22.8105 53.8527C22.7797 53.78 22.7046 53.7162 22.5878 53.6615C22.4445 53.5985 22.294 53.5522 22.1396 53.5235C21.9298 53.4825 21.7176 53.4547 21.5041 53.4402C21.2633 53.4222 20.997 53.4139 20.7054 53.4152C20.4819 53.4146 20.2586 53.4259 20.0364 53.449C19.8722 53.4664 19.7095 53.4952 19.5495 53.535C19.429 53.5648 19.312 53.6067 19.2003 53.66C19.1078 53.7059 19.0184 53.7573 18.9325 53.814L22.8105 53.8527Z" fill="#FCB048"/>
<path d="M18.7375 52.3486C13.3413 52.3486 7.72288 52.8119 6.82397 53.7086C6.85894 53.7398 6.89181 53.7732 6.92237 53.8086C7.67983 53.1859 12.3191 52.5586 18.7375 52.5586C25.3206 52.5586 30.0345 53.2184 30.6054 53.8563C30.6333 53.8212 30.6635 53.7878 30.6959 53.7563C29.9545 52.8294 24.2306 52.3486 18.7375 52.3486Z" fill="url(#paint29_linear_21_1275)"/>
<path d="M3.27026 50.9647V53.5837C3.27026 54.4299 8.68853 55.1159 15.3724 55.1159C22.0562 55.1159 27.4753 54.4299 27.4753 53.5837V50.9647H3.27026Z" fill="url(#paint30_linear_21_1275)"/>
<path d="M15.3724 52.497C22.0562 52.497 27.4745 51.811 27.4745 50.9648C27.4745 50.1186 22.0562 49.4326 15.3724 49.4326C8.68857 49.4326 3.27026 50.1186 3.27026 50.9648C3.27026 51.811 8.68857 52.497 15.3724 52.497Z" fill="url(#paint31_linear_21_1275)"/>
<path d="M15.3725 52.6027C9.45324 52.6027 3.26343 52.051 3.26343 50.9873C3.26343 50.9288 3.2847 50.826 3.34466 50.826C3.40462 50.826 3.37874 50.9063 3.37874 50.9648C3.37874 51.6398 8.3045 52.3913 15.3725 52.3913C22.4404 52.3913 27.3662 51.6395 27.3662 50.9648C27.3662 50.9063 27.3764 50.8515 27.4364 50.8515C27.4963 50.8515 27.4817 50.9295 27.4817 50.988C27.4817 52.052 21.2919 52.6027 15.3725 52.6027Z" fill="url(#paint32_linear_21_1275)"/>
<path d="M14.2288 51.0502C14.3477 50.97 14.474 50.891 14.6093 50.8127C14.7734 50.7225 14.9478 50.6515 15.1289 50.6012C15.3902 50.5289 15.6571 50.4775 15.9269 50.4475C16.2462 50.4078 16.6444 50.3868 17.1217 50.3845C17.5896 50.3823 18.0288 50.3968 18.4391 50.428C18.8027 50.453 19.1645 50.4997 19.5222 50.568C19.833 50.63 20.0865 50.7066 20.2828 50.798C20.479 50.8893 20.5949 50.9941 20.6302 51.1125L21.9929 51.1257C22.0807 51.1257 22.1682 51.1341 22.2543 51.1507C22.3312 51.1657 22.367 51.185 22.3673 51.2082V51.3177L20.6154 51.3012C20.5542 51.4345 20.3976 51.5571 20.1457 51.669C19.8937 51.7808 19.5736 51.8772 19.1853 51.9582L18.5472 51.8717C18.4993 51.8653 18.4521 51.8544 18.4063 51.8392C18.3694 51.826 18.3517 51.812 18.3514 51.7962C18.3514 51.7752 18.4008 51.7513 18.4996 51.7245C18.5983 51.6976 18.7093 51.6643 18.8327 51.6245C18.9573 51.5844 19.0794 51.5373 19.1983 51.4835C19.3172 51.4292 19.3967 51.3645 19.4382 51.289L15.3032 51.249C15.1859 51.3322 15.064 51.409 14.938 51.479C14.8027 51.554 14.6244 51.622 14.4015 51.6822C14.1283 51.7515 13.8502 51.8005 13.5694 51.829C13.2363 51.8665 12.8194 51.8865 12.3138 51.8887C11.9349 51.8905 11.5659 51.8764 11.2046 51.8467C10.8811 51.8222 10.5595 51.7775 10.2419 51.713C9.96154 51.6535 9.73134 51.5799 9.55129 51.4922C9.37192 51.4047 9.27147 51.304 9.25046 51.1902L8.12863 51.179C8.03979 51.1791 7.95112 51.1715 7.86367 51.1562C7.7868 51.1415 7.74683 51.1222 7.74683 51.098V50.9885L9.28044 51.0027C9.34835 50.8872 9.48723 50.7867 9.69991 50.7012C9.95234 50.6038 10.2128 50.5274 10.4784 50.4727L10.9909 50.5417C11.1469 50.563 11.2243 50.588 11.2246 50.6167C11.2246 50.6322 11.193 50.6515 11.1285 50.6745C11.0639 50.6975 10.9868 50.7245 10.8978 50.7567C10.81 50.7887 10.7244 50.8263 10.6416 50.8692C10.569 50.9038 10.5052 50.9536 10.4548 51.0152L14.2288 51.0502ZM10.4446 51.2002C10.4756 51.2722 10.5442 51.334 10.6495 51.386C10.7735 51.4446 10.9045 51.4877 11.0396 51.5142C11.2126 51.5506 11.3881 51.5757 11.5646 51.5892C11.7599 51.6049 11.964 51.6122 12.177 51.6112C12.3941 51.6117 12.6111 51.6013 12.8271 51.58C12.991 51.5636 13.1536 51.5368 13.314 51.4997C13.439 51.4705 13.5614 51.431 13.6796 51.3817C13.7765 51.3404 13.8698 51.2917 13.9589 51.2362L10.4446 51.2002ZM19.4464 51.1025C19.4156 51.0297 19.3403 50.966 19.2234 50.9112C19.0801 50.8482 18.9297 50.8019 18.7753 50.7732C18.5656 50.7322 18.3534 50.7044 18.14 50.69C17.8988 50.6718 17.6326 50.6635 17.3413 50.665C17.1178 50.6643 16.8943 50.6756 16.672 50.6987C16.5079 50.7162 16.3452 50.745 16.1852 50.785C16.0646 50.8145 15.9475 50.8564 15.8359 50.91C15.7434 50.9558 15.6538 51.0072 15.5679 51.064L19.4464 51.1025Z" fill="#FCB048"/>
<path d="M15.3742 49.5986C9.97798 49.5986 4.35934 50.0619 3.46069 50.9588C3.49565 50.99 3.52843 51.0234 3.55883 51.0588C4.31655 50.4364 8.95583 49.8089 15.3742 49.8089C21.9571 49.8089 26.6709 50.4684 27.2419 51.1063C27.2699 51.0713 27.3001 51.0379 27.3323 51.0063C26.5902 50.0786 20.866 49.5986 15.3742 49.5986Z" fill="url(#paint33_linear_21_1275)"/>
<path d="M6.17334 48.2219V50.8409C6.17334 51.6871 11.5916 52.3731 18.2755 52.3731C24.9593 52.3731 30.3776 51.6871 30.3776 50.8409V48.2219H6.17334Z" fill="url(#paint34_linear_21_1275)"/>
<path d="M18.2755 49.7542C24.9593 49.7542 30.3776 49.0682 30.3776 48.222C30.3776 47.3758 24.9593 46.6898 18.2755 46.6898C11.5916 46.6898 6.17334 47.3758 6.17334 48.222C6.17334 49.0682 11.5916 49.7542 18.2755 49.7542Z" fill="url(#paint35_linear_21_1275)"/>
<path d="M18.2763 49.86C12.357 49.86 6.16724 49.3082 6.16724 48.2443C6.16724 48.186 6.1885 48.0833 6.24846 48.0833C6.30843 48.0833 6.28255 48.1635 6.28255 48.222C6.28255 48.897 11.2081 49.6485 18.2763 49.6485C25.3445 49.6485 30.2684 48.8967 30.2684 48.222C30.2684 48.1635 30.2787 48.1088 30.3387 48.1088C30.3986 48.1088 30.384 48.1868 30.384 48.2453C30.3848 49.3092 24.1955 49.86 18.2763 49.86Z" fill="url(#paint36_linear_21_1275)"/>
<path d="M17.1316 48.3075C17.2505 48.2273 17.3769 48.1481 17.5122 48.0701C17.6762 47.9798 17.8507 47.9088 18.0318 47.8586C18.2931 47.786 18.5599 47.7345 18.8298 47.7046C19.149 47.6651 19.5473 47.6441 20.0246 47.6418C20.4925 47.6396 20.9316 47.6541 21.342 47.6853C21.7056 47.7104 22.0673 47.757 22.4251 47.8251C22.7359 47.8872 22.9894 47.964 23.1856 48.0553C23.3819 48.1466 23.4978 48.2514 23.5331 48.3695L24.8958 48.383C24.9835 48.383 25.0709 48.3914 25.1569 48.408C25.2338 48.423 25.2699 48.4423 25.2702 48.4655V48.5748L23.5183 48.5585C23.4571 48.6919 23.3005 48.8145 23.0486 48.9263C22.7966 49.0381 22.4765 49.1345 22.0882 49.2155L21.4501 49.129C21.4021 49.1226 21.3549 49.1117 21.3092 49.0963C21.2723 49.0833 21.2546 49.069 21.2543 49.0535C21.2543 49.0325 21.3037 49.0085 21.4025 48.9815C21.5012 48.9545 21.6122 48.9212 21.7356 48.8815C21.8602 48.8415 21.9823 48.7943 22.1012 48.7403C22.2201 48.6863 22.2996 48.6215 22.3411 48.546L18.2061 48.506C18.0888 48.5892 17.9669 48.666 17.8409 48.736C17.7056 48.811 17.5273 48.879 17.3044 48.9393C17.0312 49.0086 16.7531 49.0575 16.4723 49.0858C16.1392 49.1235 15.7223 49.1433 15.2167 49.1458C14.8378 49.1475 14.4688 49.1335 14.1075 49.1038C13.784 49.0793 13.4624 49.0346 13.1448 48.97C12.8644 48.9105 12.6338 48.8369 12.4529 48.7493C12.272 48.6616 12.1717 48.561 12.1521 48.4473L11.0302 48.436C10.9414 48.4362 10.8527 48.4286 10.7653 48.4133C10.6884 48.3985 10.6484 48.3793 10.6484 48.355V48.2456L12.1821 48.2598C12.25 48.1443 12.3888 48.0438 12.6015 47.9583C12.8538 47.8608 13.1142 47.7844 13.3797 47.7298L13.8935 47.7986C14.0496 47.8201 14.1269 47.8451 14.1272 47.8736C14.1272 47.8891 14.0957 47.9083 14.0311 47.9313C13.9665 47.9543 13.8894 47.9813 13.8005 48.0136C13.7126 48.0455 13.627 48.0831 13.5442 48.1261C13.4716 48.1606 13.4078 48.2105 13.3574 48.272L17.1316 48.3075ZM13.3474 48.4575C13.3785 48.5293 13.4471 48.591 13.5524 48.643C13.6762 48.7019 13.8072 48.7451 13.9422 48.7715C14.1153 48.8078 14.2907 48.8329 14.4672 48.8465C14.6625 48.8622 14.8666 48.8695 15.0797 48.8685C15.2968 48.869 15.5137 48.8586 15.7297 48.8373C15.8936 48.8209 16.0563 48.7941 16.2166 48.757C16.3417 48.7278 16.464 48.6883 16.5823 48.639C16.6791 48.5977 16.7725 48.549 16.8616 48.4935L13.3474 48.4575ZM22.3493 48.3598C22.3185 48.287 22.2432 48.2233 22.1263 48.1686C21.9831 48.1055 21.8326 48.0591 21.6782 48.0306C21.4684 47.9893 21.2562 47.9615 21.0427 47.9473C20.8018 47.9291 20.5357 47.9208 20.2442 47.9223C20.0207 47.9217 19.7972 47.9329 19.5749 47.9561C19.4107 47.9734 19.248 48.0022 19.0881 48.0423C18.9675 48.0719 18.8504 48.1138 18.7388 48.1673C18.6463 48.2131 18.5567 48.2646 18.4708 48.3213L22.3493 48.3598Z" fill="#FCB048"/>
<path d="M18.2761 46.8556C12.8798 46.8556 7.26119 47.3188 6.36255 48.2156C6.39744 48.2468 6.43022 48.2802 6.46069 48.3155C7.21815 47.6931 11.8577 47.0656 18.2761 47.0656C24.859 47.0656 29.5728 47.7251 30.1437 48.3631C30.1718 48.328 30.202 48.2946 30.2342 48.2631C29.4931 47.3361 23.7689 46.8556 18.2761 46.8556Z" fill="url(#paint37_linear_21_1275)"/>
<path d="M4.66333 45.4714V48.0901C4.66333 48.9363 10.0819 49.6223 16.7657 49.6223C23.4495 49.6223 28.8678 48.9363 28.8678 48.0901V45.4714H4.66333Z" fill="url(#paint38_linear_21_1275)"/>
<path d="M16.7654 47.0035C23.4493 47.0035 28.8676 46.3175 28.8676 45.4713C28.8676 44.6251 23.4493 43.9391 16.7654 43.9391C10.0816 43.9391 4.66333 44.6251 4.66333 45.4713C4.66333 46.3175 10.0816 47.0035 16.7654 47.0035Z" fill="url(#paint39_linear_21_1275)"/>
<path d="M16.7643 47.1091C10.8451 47.1091 4.65527 46.5576 4.65527 45.4936C4.65527 45.4351 4.67654 45.3324 4.7365 45.3324C4.79646 45.3324 4.77058 45.4129 4.77058 45.4714C4.77058 46.1464 9.69635 46.8979 16.7643 46.8979C23.8323 46.8979 28.7583 46.1459 28.7583 45.4714C28.7583 45.4129 28.7685 45.3581 28.8282 45.3581C28.8879 45.3581 28.8738 45.4361 28.8738 45.4944C28.8749 46.5584 22.6848 47.1091 16.7643 47.1091Z" fill="url(#paint40_linear_21_1275)"/>
<path d="M15.6221 45.5567C15.7407 45.4764 15.867 45.3974 16.0023 45.3195C16.1665 45.2292 16.341 45.1583 16.5222 45.108C16.7834 45.0354 17.0502 44.9839 17.3199 44.954C17.6392 44.9142 18.0374 44.8932 18.515 44.891C18.9828 44.8888 19.4218 44.9033 19.8321 44.9345C20.1958 44.9595 20.5576 45.0061 20.9155 45.074C21.2263 45.136 21.4798 45.2127 21.6761 45.3042C21.8724 45.3957 21.9882 45.5004 22.0235 45.6184L23.3862 45.6319C23.4739 45.6315 23.5615 45.6393 23.6476 45.6554C23.7245 45.6707 23.7606 45.6897 23.7606 45.7129V45.8224L22.0089 45.8059C21.9474 45.9401 21.7909 46.0628 21.5392 46.1739C21.2876 46.2851 20.9674 46.3815 20.5786 46.4632L19.9405 46.3764C19.8926 46.3701 19.8454 46.3592 19.7996 46.3439C19.763 46.3309 19.745 46.3167 19.745 46.3012C19.745 46.2802 19.7942 46.2562 19.8929 46.2292C19.9915 46.2022 20.103 46.1687 20.226 46.1292C20.3506 46.0891 20.4727 46.0421 20.5916 45.9882C20.7105 45.9339 20.79 45.8692 20.8315 45.7939L16.6965 45.7539C16.5792 45.8371 16.4573 45.9138 16.3313 45.9837C16.196 46.0587 16.0177 46.1269 15.795 46.1872C15.5218 46.2563 15.2437 46.3053 14.963 46.3337C14.6299 46.3712 14.2127 46.3912 13.7074 46.3937C13.3284 46.3954 12.9594 46.3814 12.5979 46.3517C12.2744 46.3272 11.9528 46.2824 11.6352 46.2177C11.3548 46.1582 11.1247 46.0847 10.9446 45.9972C10.7652 45.9094 10.6648 45.8089 10.644 45.6949L9.52219 45.6837C9.43326 45.6841 9.34448 45.6765 9.25698 45.6609C9.18011 45.6464 9.14039 45.6269 9.14014 45.6027V45.4932L10.674 45.5074C10.7419 45.3922 10.8808 45.2917 11.0932 45.2062C11.3456 45.1086 11.606 45.0321 11.8717 44.9777L12.3842 45.0465C12.54 45.068 12.6178 45.093 12.6176 45.1215C12.6176 45.137 12.5861 45.156 12.5215 45.179C12.4569 45.202 12.3798 45.229 12.2909 45.2615C12.203 45.2932 12.1174 45.3308 12.0347 45.3739C11.9619 45.4084 11.898 45.4583 11.8476 45.5199L15.6221 45.5567ZM11.8379 45.7067C11.8686 45.7784 11.9373 45.8402 12.0429 45.8922C12.1666 45.951 12.2976 45.9942 12.4326 46.0207C12.6058 46.0566 12.7812 46.0812 12.9576 46.0944C13.1529 46.1099 13.357 46.1173 13.5701 46.1164C13.7872 46.1167 14.0041 46.1063 14.2202 46.0852C14.3841 46.0687 14.5467 46.0418 14.707 46.0047C14.8321 45.9757 14.9545 45.9363 15.0727 45.8869C15.1696 45.8456 15.2631 45.7968 15.3522 45.7412L11.8379 45.7067ZM20.8394 45.6087C20.8087 45.5359 20.7336 45.4722 20.6168 45.4174C20.4734 45.3546 20.323 45.3083 20.1686 45.2794C19.9588 45.2384 19.7465 45.2106 19.5331 45.1962C19.2922 45.1782 19.026 45.1699 18.7344 45.1712C18.5109 45.1706 18.2876 45.1818 18.0653 45.205C17.9011 45.2223 17.7384 45.2511 17.5785 45.2912C17.4579 45.3208 17.3408 45.3627 17.2292 45.4162C17.1367 45.4619 17.0473 45.5132 16.9614 45.5699L20.8394 45.6087Z" fill="#FCB048"/>
<path d="M16.767 44.1047C11.3708 44.1047 5.75242 44.568 4.85352 45.4647C4.88849 45.4959 4.92135 45.5293 4.95191 45.5647C5.70937 44.942 10.3487 44.3147 16.767 44.3147C23.3502 44.3147 28.0638 44.9742 28.6349 45.6122C28.6629 45.577 28.6931 45.5436 28.7254 45.5122C27.9831 44.585 22.2591 44.1047 16.767 44.1047Z" fill="url(#paint41_linear_21_1275)"/>
<path d="M32.31 47.3175L30.1227 48.8355C29.4157 49.3262 31.9835 54.0313 35.8574 59.3449C39.7313 64.6586 43.4453 68.5697 44.152 68.0782L46.3396 66.5602L32.31 47.3175Z" fill="url(#paint42_linear_21_1275)"/>
<path d="M46.3397 66.5599C45.6327 67.0504 41.9192 63.1405 38.0451 57.8267C34.171 52.5128 31.6034 47.8079 32.3101 47.3172C33.0168 46.8265 36.7306 50.7369 40.6047 56.0505C44.4789 61.3641 47.0464 66.0695 46.3397 66.5599Z" fill="url(#paint43_linear_21_1275)"/>
<path d="M37.9556 57.888C34.5248 53.1821 31.3976 47.9415 32.2862 47.3248C32.3352 47.2908 32.4333 47.2483 32.4679 47.296C32.5025 47.3438 32.4205 47.371 32.3718 47.4035C31.8081 47.7945 34.0354 52.1464 38.1324 57.7655C42.2295 63.3846 45.7121 66.8652 46.2758 66.4738C46.3245 66.44 46.3763 66.4163 46.4109 66.464C46.4455 66.5117 46.3722 66.5453 46.3232 66.579C45.4356 67.1957 41.3877 62.5939 37.9556 57.888Z" fill="url(#paint44_linear_21_1275)"/>
<path d="M38.5907 56.0791C38.7265 56.1271 38.8659 56.1816 39.0094 56.2439C39.1799 56.3221 39.3403 56.4197 39.4873 56.5346C39.6993 56.7002 39.8971 56.8825 40.0785 57.0796C40.2966 57.3104 40.545 57.615 40.8236 57.9933C41.097 58.3638 41.3394 58.7212 41.5509 59.0656C41.7406 59.3693 41.9112 59.6839 42.0618 60.0078C42.1903 60.2911 42.2731 60.5371 42.3104 60.7458C42.3476 60.9544 42.3273 61.1073 42.2494 61.2043L43.0278 62.2955C43.0791 62.3649 43.1232 62.4391 43.1596 62.517C43.1911 62.5862 43.1965 62.6265 43.177 62.64L43.086 62.704L42.0844 61.3018C41.9368 61.3306 41.7436 61.2772 41.5047 61.1415C41.2659 61.0058 40.9998 60.8072 40.7065 60.5455L40.409 59.988C40.3866 59.9463 40.3683 59.9025 40.3545 59.8573C40.344 59.8203 40.3457 59.798 40.3586 59.7888C40.376 59.7765 40.4247 59.802 40.5044 59.8638C40.5841 59.9255 40.6768 59.9958 40.7819 60.0713C40.8876 60.1471 40.9977 60.2169 41.1117 60.2803C41.2257 60.3433 41.3261 60.369 41.413 60.3583L39.0497 57.0486C38.9122 57.0038 38.7775 56.9513 38.6461 56.8916C38.5046 56.828 38.3444 56.7251 38.1654 56.5831C37.9492 56.4061 37.7471 56.2134 37.5606 56.0066C37.3362 55.7635 37.0771 55.4426 36.7835 55.0439C36.5614 54.7439 36.3587 54.4419 36.1754 54.1377C36.0084 53.8663 35.8594 53.5847 35.7293 53.2947C35.6164 53.0372 35.5443 52.8116 35.5133 52.6177C35.4825 52.4245 35.5081 52.286 35.5901 52.2035L34.9495 51.3053C34.8978 51.2344 34.8528 51.1591 34.815 51.0803C34.7822 51.0103 34.7758 50.9678 34.7958 50.9535L34.887 50.8895L35.7641 52.1172C35.8999 52.1045 36.0644 52.1565 36.2589 52.276C36.4866 52.4201 36.7014 52.5828 36.9011 52.7622L37.1412 53.2107C37.2136 53.3469 37.2379 53.4233 37.2139 53.44C37.2009 53.449 37.1665 53.435 37.1099 53.397C37.0533 53.359 36.9856 53.3137 36.9077 53.2617C36.8303 53.2105 36.7495 53.1644 36.6658 53.1237C36.5948 53.0859 36.516 53.0641 36.4352 53.0597L38.5907 56.0791ZM36.2728 53.1572C36.2307 53.2232 36.2189 53.3137 36.2359 53.4267C36.2587 53.5592 36.2985 53.6883 36.3545 53.811C36.4249 53.9695 36.506 54.1232 36.5974 54.2712C36.6974 54.4353 36.8095 54.602 36.9339 54.7712C37.0593 54.9441 37.1939 55.1106 37.3369 55.2699C37.4455 55.3907 37.5621 55.5043 37.6859 55.6102C37.7827 55.6927 37.8865 55.7671 37.9963 55.8324C38.0869 55.8855 38.1818 55.9316 38.2799 55.9701L36.2728 53.1572ZM41.5721 60.257C41.6149 60.1903 41.6234 60.0938 41.6029 59.969C41.5722 59.8186 41.5237 59.6722 41.4584 59.5328C41.3711 59.3422 41.2712 59.1573 41.1593 58.9793C41.0351 58.7773 40.8879 58.5607 40.7176 58.3293C40.5886 58.1512 40.4497 57.9802 40.3014 57.8171C40.1919 57.6967 40.0736 57.5842 39.9475 57.4804C39.8526 57.4019 39.7496 57.3332 39.6401 57.2756C39.5481 57.2283 39.4533 57.1865 39.3561 57.1506L41.5721 60.257Z" fill="#FCB048"/>
<path d="M40.4668 56.1485C37.3391 51.8586 33.6953 47.6602 32.4254 47.4655C32.4194 47.5115 32.4104 47.5571 32.3982 47.6019C33.3573 47.8434 36.5698 51.1684 40.2905 56.271C44.1062 61.5046 46.2866 65.6342 46.0857 66.458C46.1312 66.46 46.1765 66.4647 46.2215 66.472C46.5669 65.3432 43.6503 60.5141 40.4668 56.1485Z" fill="url(#paint45_linear_21_1275)"/>
<path d="M58.0525 30.6533C57.9464 29.8758 57.8875 29.3953 58.1955 29.0146C58.8845 28.1626 61.0244 28.2824 62.2697 29.2933C63.1907 30.0408 62.8624 30.6583 63.7129 31.2973C64.9359 32.2163 66.0557 31.2063 67.8453 31.8738C69.2598 32.4013 70.8534 33.7577 71.0622 35.6049C71.1724 36.5799 70.94 38.0774 69.8835 38.8321C68.4029 39.8888 66.2728 38.7996 65.9499 39.4548C65.6091 40.1458 67.995 41.3265 67.7467 42.7157C67.5704 43.7027 66.1564 44.2799 65.3444 44.4622C63.3969 44.8992 61.0492 43.9327 59.8403 42.2652C58.5252 40.4518 59.911 39.6761 58.7323 35.1864C58.606 34.7075 58.4215 33.3562 58.0525 30.6533Z" fill="url(#paint46_linear_21_1275)"/>
<path d="M55.9306 67.8904C55.9306 67.8904 56.1005 68.2596 56.1384 68.5889C56.1531 68.7164 56.1153 68.8444 56.0334 68.9448C55.9514 69.0452 55.832 69.1098 55.7013 69.1244C55.035 69.1993 53.8307 69.3193 53.1055 69.3076C52.183 69.2926 54.2901 68.2016 54.8003 67.9444C54.8707 67.9088 54.9488 67.8902 55.0281 67.8904H55.9306Z" fill="url(#paint47_linear_21_1275)"/>
<path d="M55.6585 66.6878C55.7562 66.728 55.7987 68.0175 55.7987 68.0175C55.7987 68.0175 55.3687 68.266 55.0846 68.1052L54.5193 66.4983L55.6585 66.6878Z" fill="url(#paint48_linear_21_1275)"/>
<path d="M67.7249 66.3701C67.8582 66.4436 67.9604 66.561 68.0131 66.7013C68.0659 66.8416 68.0658 66.9956 68.0129 67.1358C67.8427 67.5858 67.5688 68.2205 67.2739 68.5547C66.9561 68.915 66.3947 68.9177 66.0424 68.8762C66.0084 68.8721 65.9761 68.8594 65.9486 68.8395C65.9211 68.8196 65.8993 68.7932 65.8853 68.7627C65.8713 68.7322 65.8656 68.6987 65.8688 68.6654C65.8719 68.6322 65.8838 68.6002 65.9032 68.5727C66.0747 68.3305 66.325 67.9648 66.4413 67.7343C66.6297 67.3655 67.0722 66.0076 67.0722 66.0076L67.7249 66.3701Z" fill="url(#paint49_linear_21_1275)"/>
<path d="M66.6037 65.08L67.3022 66.1592C67.3334 66.2074 67.3465 66.2647 67.339 66.3213C67.3316 66.3779 67.3042 66.4302 67.2614 66.4692C67.2143 66.5122 67.1521 66.5358 67.0876 66.5353C67.0232 66.5348 66.9614 66.5101 66.915 66.4664L65.8254 65.4394L66.6037 65.08Z" fill="url(#paint50_linear_21_1275)"/>
<path d="M53.8865 44.4025C51.3992 45.5752 51.8335 51.0523 52.2253 55.9952C52.5282 59.7924 53.2027 63.5527 54.2394 67.2246L56.1448 67.2934C56.4479 65.7042 56.5897 64.0896 56.5681 62.4733C56.5243 59.3039 55.8611 57.4751 55.6154 55.7954C55.2733 53.4573 55.5385 50.0371 58.3674 45.4342C55.9167 43.9018 54.5914 44.07 53.8865 44.4025Z" fill="url(#paint51_linear_21_1275)"/>
<path style="mix-blend-mode:multiply" opacity="0.3" d="M55.5095 61.5107C54.8594 59.0625 53.8347 58.2705 53.7453 55.6243C53.6545 52.9366 54.6513 51.9657 54.3805 49.566C54.1919 47.8953 53.4998 46.5181 52.7808 45.4763C53.0606 44.9899 53.4226 44.6214 53.8864 44.4026C54.5914 44.0701 55.9167 43.9026 58.3674 45.4353C55.539 50.0382 55.2732 53.4584 55.6153 55.7966C55.8611 57.4763 56.5242 59.305 56.568 62.4744C56.5896 64.0904 56.4478 65.7046 56.1447 67.2935L55.7073 67.2778C56.1178 64.8328 55.8857 62.9274 55.5095 61.5107Z" fill="url(#paint52_linear_21_1275)"/>
<path d="M60.6609 44.5739C60.7695 45.8928 60.9102 47.536 61.0844 49.4275C61.4842 53.7724 61.6077 54.5023 62.0018 55.4858C62.7605 57.378 63.4965 57.6443 64.8597 59.9265C65.8692 61.6193 66.6406 63.4371 67.153 65.3308L65.9533 66.2945C63.3244 64.0583 61.0824 61.4231 59.3135 58.4905C56.1454 53.2294 55.2608 48.2463 54.9805 45.3313L60.6609 44.5739Z" fill="url(#paint53_linear_21_1275)"/>
<path d="M60.6009 33.845C61.4478 34.5102 61.4481 35.7622 61.4483 37.0347C61.4483 38.4001 61.159 39.0679 60.9768 40.0718C60.8784 40.6131 60.3947 43.548 61.6269 45.9967C62.8056 48.3381 64.5366 48.2156 65.3279 50.6658C65.7109 51.8525 65.7965 53.4035 65.2013 53.703C64.5338 54.0387 63.7048 52.453 61.516 51.728C59.5885 51.09 59.4296 52.0548 57.3021 51.506C55.0817 50.9333 54.9474 49.8033 51.8336 48.7511C51.2058 48.5391 50.9623 48.5011 50.7612 48.2281C49.9602 47.1397 52.1546 45.4502 53.1794 42.0985C54.1751 38.8414 53.0535 37.3272 54.693 35.4655C55.5224 34.5235 56.5146 34.1108 56.8731 33.9655C57.4517 33.7328 59.4378 32.9313 60.6009 33.845Z" fill="url(#paint54_linear_21_1275)"/>
<g style="mix-blend-mode:multiply" opacity="0.3">
<path d="M53.1794 42.099C54.1751 38.8419 53.0535 37.3277 54.693 35.466C55.5224 34.524 56.5146 34.1112 56.8731 33.966C57.3131 33.7885 58.5661 33.2835 59.6531 33.4528C59.2113 34.0128 58.7396 34.6605 58.2671 35.3955C56.9123 37.5042 56.2348 38.5584 56.1226 39.8591C55.8873 42.5873 57.9995 43.524 57.4094 45.8567C56.9994 47.4769 55.8289 47.6251 55.6221 48.8566C55.5181 49.4763 55.6795 50.2478 56.4116 51.2065C54.971 50.5896 54.4711 49.6426 51.8336 48.7514C51.2058 48.5394 50.9623 48.5014 50.7612 48.2284C49.9602 47.1397 52.1546 45.4502 53.1794 42.099Z" fill="url(#paint55_linear_21_1275)"/>
</g>
<path d="M58.8269 31.3491C58.8269 31.3491 59.0319 32.9553 59.6402 33.3241C60.2485 33.6928 59.9147 34.0558 60.0228 34.1863C60.1309 34.3168 58.2291 35.1188 56.3096 34.174L55.5083 33.6241C56.1399 33.6266 56.9504 33.5826 57.2715 33.4041C57.4901 33.2828 57.8422 33.0456 58.165 32.5978L58.1579 31.7086L58.8269 31.3491Z" fill="url(#paint56_linear_21_1275)"/>
<path d="M59.0164 32.0508C59.0164 32.0508 58.2859 32.6872 57.471 32.1865C56.7415 31.7385 57.6548 29.8426 58.333 29.7471C58.5593 29.7153 58.9365 29.8296 59.1592 30.0403C59.3155 30.1886 59.6693 30.8753 59.2476 31.473C59.46 31.4585 59.6248 31.548 59.6476 31.6528C59.6765 31.787 59.4702 31.9185 59.4233 31.9483C59.302 32.023 59.1597 32.0588 59.0164 32.0508Z" fill="url(#paint57_linear_21_1275)"/>
<path d="M53.3542 25.2423C53.3542 25.2423 53.4972 25.0083 53.9262 24.4736C54.3551 23.9388 54.8079 24.1021 54.4266 24.7876C54.0453 25.473 53.5398 25.286 53.3542 25.2423Z" fill="url(#paint58_linear_21_1275)"/>
<path d="M44.2501 23.6112C44.2501 23.6112 43.8806 22.6839 43.6485 22.2657C43.4163 21.8475 43.035 23.4457 44.2501 23.6112Z" fill="url(#paint59_linear_21_1275)"/>
<path d="M43.4409 26.5225C43.4409 26.5225 43.8156 26.1336 43.4886 26.0646C43.1616 25.9956 42.5098 26.397 42.438 26.5225C42.3663 26.648 43.4409 26.5225 43.4409 26.5225Z" fill="url(#paint60_linear_21_1275)"/>
<path d="M43.5654 26.9125L43.4744 26.4943C43.4701 26.4745 43.4609 26.456 43.4477 26.4405C43.4345 26.4249 43.4176 26.4127 43.3984 26.4049C43.3793 26.3971 43.3586 26.394 43.3379 26.3957C43.3173 26.3975 43.2974 26.4041 43.2799 26.415L43.2638 26.425C43.2457 26.4364 43.2308 26.4519 43.2205 26.4703C43.2102 26.4887 43.2048 26.5093 43.2048 26.5303V27.0015L43.5654 26.9125Z" fill="url(#paint61_linear_21_1275)"/>
<path d="M41.8789 27.9441C41.8789 27.9441 42.2535 27.5554 41.9266 27.4861C41.5996 27.4169 40.9475 27.8189 40.876 27.9441C40.8045 28.0693 41.8789 27.9441 41.8789 27.9441Z" fill="url(#paint62_linear_21_1275)"/>
<path d="M42.0043 28.3347L41.9134 27.9162C41.9091 27.8964 41.8999 27.8779 41.8867 27.8624C41.8734 27.8468 41.8565 27.8346 41.8374 27.8268C41.8183 27.819 41.7975 27.8159 41.7769 27.8176C41.7562 27.8194 41.7363 27.826 41.7189 27.8369L41.7027 27.8472C41.6847 27.8585 41.6698 27.874 41.6595 27.8923C41.6492 27.9107 41.6438 27.9312 41.6438 27.9522V28.4244L42.0043 28.3347Z" fill="url(#paint63_linear_21_1275)"/>
<path d="M46.7887 28.7572C46.7887 28.7572 45.971 28.7154 45.5075 28.8234C45.0439 28.9314 44.5081 28.8452 44.1373 28.2535C43.7666 27.6617 43.6994 26.7917 43.6994 26.7917L43.1357 26.851C43.1357 26.851 42.9819 27.8042 43.0286 28.3737C43.0752 28.9432 43.3899 30.2917 45.1393 30.4194C46.8886 30.5472 46.7887 28.7572 46.7887 28.7572Z" fill="url(#paint64_linear_21_1275)"/>
<path d="M46.3763 29.4993C46.3763 29.4993 45.6844 29.4513 45.0656 29.6213C44.4468 29.7913 43.409 29.9058 42.9611 29.5176C42.5132 29.1294 42.0942 28.1926 42.0942 28.1926L41.5392 28.2534C41.5392 28.2534 41.4308 29.6521 42.0032 30.6518C42.5757 31.6515 44.312 32.682 46.2912 31.539C48.2704 30.3961 46.3763 29.4993 46.3763 29.4993Z" fill="url(#paint65_linear_21_1275)"/>
<path d="M53.5842 25.0379C53.7466 25.1754 53.8012 25.3752 53.8225 25.5144C53.4349 25.9843 52.9361 26.3552 52.3691 26.5954C51.3741 27.0141 50.4772 26.8934 50.1292 26.8279C50.173 27.4179 50.1625 28.4713 49.605 29.571C49.0991 30.5685 47.8776 32.1272 46.8288 31.8492C46.2966 31.708 45.8123 31.0945 45.7685 30.5243C45.7241 29.9435 46.1575 29.6818 45.995 29.1761C45.8325 28.6703 45.2734 28.5338 45.3398 28.3158C45.399 28.1211 45.8392 28.2551 46.424 27.9556C46.7778 27.7715 47.0709 27.4935 47.2696 27.1536C47.3379 27.0341 47.393 26.9078 47.4338 26.7769C47.095 26.7621 46.1013 26.6769 45.1845 25.9446C44.0757 25.0597 43.8677 23.8587 43.8264 23.5735L44.1339 23.283C44.6646 23.9709 45.3252 24.5535 46.0801 24.9994C46.5618 25.2834 47.8756 26.0569 49.533 25.9679C51.5937 25.8571 52.9277 24.4814 53.5842 25.0379Z" fill="url(#paint66_linear_21_1275)"/>
<path d="M48.6994 24.8151L48.4032 25.747L47.9609 25.8073C47.9609 25.8073 49.073 26.5513 49.8036 25.9458L49.368 25.7818L49.38 25.0496L48.6994 24.8151Z" fill="url(#paint67_linear_21_1275)"/>
<path d="M50.9152 24.334C51.0433 24.1425 51.203 24.1995 51.3175 24.0205C51.4615 23.7955 51.3882 23.4287 51.1997 23.2085C51.0152 22.993 50.8555 23.0765 50.3438 22.8658C49.7942 22.6393 49.7706 22.4573 49.2947 22.3408C49.0819 22.2837 48.8599 22.2667 48.6405 22.2908C48.4033 22.3183 47.9331 22.3733 47.7217 22.7408C47.491 23.1407 47.744 23.6117 47.7688 23.6562C47.4165 24.088 47.3911 24.321 47.4595 24.4562C47.4595 24.4562 47.5323 24.599 48.1155 24.8244C48.1155 24.8244 48.1957 25.0887 48.2631 25.1932C48.34 25.3122 48.5352 25.4337 49.0785 25.4049C49.145 25.2779 49.2201 25.1553 49.3032 25.0379C49.4972 24.763 49.5943 24.6272 49.6917 24.633C49.9371 24.6477 49.9156 25.4974 50.2298 25.5599C50.4317 25.6002 50.7259 25.3057 50.8212 25.0114C50.9165 24.7172 50.7697 24.5517 50.9152 24.334Z" fill="url(#paint68_linear_21_1275)"/>
<path d="M48.7495 25.1494C48.7495 25.1494 48.9973 25.8494 49.7776 25.9654C50.4761 26.0686 50.9145 24.5832 50.5463 24.1697C50.4233 24.0317 50.1394 23.9247 49.8857 23.9392C49.7361 23.9477 49.6753 23.9947 49.4304 24.0039C49.2044 24.0124 49.1485 23.9764 49.0716 24.0157C48.9758 24.0657 48.8802 24.2157 48.9163 24.6839C48.8138 24.5262 48.6675 24.4427 48.5443 24.4704C48.5014 24.4823 48.4629 24.5057 48.4331 24.5379C48.2993 24.6882 48.4105 24.9424 48.7495 25.1494Z" fill="url(#paint69_linear_21_1275)"/>
<path d="M48.3176 29.377C48.3069 29.3283 48.2226 28.802 48.3125 28.3913C48.4024 27.9805 48.5219 27.3751 48.2715 27.8163C48.0212 28.2575 47.8387 28.5413 47.4295 28.155C47.0203 27.7688 47.0918 27.3381 46.9726 27.3681C46.8535 27.3981 46.5198 28.1335 46.9726 28.6025C47.4254 29.0715 47.9509 29.56 47.9509 29.56L48.3176 29.377Z" fill="url(#paint70_linear_21_1275)"/>
<path d="M60.4114 34.4894C60.4883 35.4018 59.4344 36.1508 59.2289 36.2966C57.2581 37.6965 53.0362 36.7031 50.4036 34.3499C48.6086 32.7452 47.8478 30.772 47.5081 29.433L48.492 29.1093C49.8786 31.4012 51.3538 32.2287 52.4049 32.5714C55.1979 33.4824 58.2377 32.0264 59.8392 33.4889C59.9907 33.6266 60.3681 33.9809 60.4114 34.4894Z" fill="url(#paint71_linear_21_1275)"/>
<defs>
<linearGradient id="paint0_linear_21_1275" x1="42.3709" y1="26.9215" x2="99.5552" y2="54.0296" gradientUnits="userSpaceOnUse">
<stop stop-color="#E38DDD"/>
<stop offset="1" stop-color="#9571F6"/>
</linearGradient>
<linearGradient id="paint1_linear_21_1275" x1="17.6866" y1="46.493" x2="71.0095" y2="12.7101" gradientUnits="userSpaceOnUse">
<stop stop-color="#E38DDD"/>
<stop offset="1" stop-color="#9571F6"/>
</linearGradient>
<linearGradient id="paint2_linear_21_1275" x1="9.94209" y1="41.1079" x2="58.3126" y2="41.1079" gradientUnits="userSpaceOnUse">
<stop stop-color="#6165D7"/>
<stop offset="1" stop-color="#AA80F9"/>
</linearGradient>
<linearGradient id="paint3_linear_21_1275" x1="9.94209" y1="41.7935" x2="37.8365" y2="41.7935" gradientUnits="userSpaceOnUse">
<stop stop-color="#6165D7"/>
<stop offset="1" stop-color="#AA80F9"/>
</linearGradient>
<linearGradient id="paint4_linear_21_1275" x1="32.0992" y1="7.49512" x2="27.1059" y2="26.1874" gradientUnits="userSpaceOnUse">
<stop stop-color="#6165D7"/>
<stop offset="1" stop-color="#AA80F9"/>
</linearGradient>
<linearGradient id="paint5_linear_21_1275" x1="32.0992" y1="9.40418" x2="27.1059" y2="28.0965" gradientUnits="userSpaceOnUse">
<stop stop-color="#6165D7"/>
<stop offset="1" stop-color="#AA80F9"/>
</linearGradient>
<linearGradient id="paint6_linear_21_1275" x1="21.0342" y1="12.5903" x2="44.1976" y2="12.5903" gradientUnits="userSpaceOnUse">
<stop stop-color="#6165D7"/>
<stop offset="1" stop-color="#AA80F9"/>
</linearGradient>
<linearGradient id="paint7_linear_21_1275" x1="24.7495" y1="18.7737" x2="39.5734" y2="18.7737" gradientUnits="userSpaceOnUse">
<stop stop-color="#444B8C"/>
<stop offset="1" stop-color="#26264F"/>
</linearGradient>
<linearGradient id="paint8_linear_21_1275" x1="21.0349" y1="13.7309" x2="41.6996" y2="13.7309" gradientUnits="userSpaceOnUse">
<stop stop-color="#6165D7"/>
<stop offset="1" stop-color="#AA80F9"/>
</linearGradient>
<linearGradient id="paint9_linear_21_1275" x1="32.1559" y1="28.8521" x2="39.1936" y2="55.8877" gradientUnits="userSpaceOnUse">
<stop stop-color="#EBEFF2"/>
<stop offset="1" stop-color="white"/>
</linearGradient>
<linearGradient id="paint10_linear_21_1275" x1="4.56536" y1="67.0029" x2="32.4111" y2="67.0029" gradientUnits="userSpaceOnUse">
<stop stop-color="#FCB148"/>
<stop offset="0.05" stop-color="#FDBA46"/>
<stop offset="0.14" stop-color="#FFC244"/>
<stop offset="0.32" stop-color="#FFC444"/>
<stop offset="0.48" stop-color="#FDB946"/>
<stop offset="0.78" stop-color="#F99C4D"/>
<stop offset="0.87" stop-color="#F8924F"/>
<stop offset="1" stop-color="#F8924F"/>
</linearGradient>
<linearGradient id="paint11_linear_21_1275" x1="18.6162" y1="63.943" x2="20.0144" y2="75.9406" gradientUnits="userSpaceOnUse">
<stop stop-color="#FFDB44"/>
<stop offset="1" stop-color="#FEEF06"/>
</linearGradient>
<linearGradient id="paint12_linear_21_1275" x1="18.5524" y1="63.4081" x2="18.982" y2="67.0928" gradientUnits="userSpaceOnUse">
<stop stop-color="#FFDB44"/>
<stop offset="1" stop-color="#FEEF06"/>
</linearGradient>
<linearGradient id="paint13_linear_21_1275" x1="18.9763" y1="66.7043" x2="18.5485" y2="63.0327" gradientUnits="userSpaceOnUse">
<stop stop-color="#F36F56"/>
<stop offset="0.31" stop-color="#F99C4C"/>
<stop offset="0.55" stop-color="#FDB946"/>
<stop offset="0.68" stop-color="#FFC444"/>
<stop offset="0.8" stop-color="#FFC244"/>
<stop offset="0.87" stop-color="#FEBA46"/>
<stop offset="0.92" stop-color="#FCAD49"/>
<stop offset="0.96" stop-color="#F99A4D"/>
<stop offset="1" stop-color="#F57E53"/>
</linearGradient>
<linearGradient id="paint14_linear_21_1275" x1="1.2011" y1="64.2525" x2="29.0468" y2="64.2525" gradientUnits="userSpaceOnUse">
<stop stop-color="#FCB148"/>
<stop offset="0.05" stop-color="#FDBA46"/>
<stop offset="0.14" stop-color="#FFC244"/>
<stop offset="0.32" stop-color="#FFC444"/>
<stop offset="0.48" stop-color="#FDB946"/>
<stop offset="0.78" stop-color="#F99C4D"/>
<stop offset="0.87" stop-color="#F8924F"/>
<stop offset="1" stop-color="#F8924F"/>
</linearGradient>
<linearGradient id="paint15_linear_21_1275" x1="15.2519" y1="61.1921" x2="16.6502" y2="73.1897" gradientUnits="userSpaceOnUse">
<stop stop-color="#FFDB44"/>
<stop offset="1" stop-color="#FEEF06"/>
</linearGradient>
<linearGradient id="paint16_linear_21_1275" x1="15.1882" y1="60.6575" x2="15.6175" y2="64.3421" gradientUnits="userSpaceOnUse">
<stop stop-color="#FFDB44"/>
<stop offset="1" stop-color="#FEEF06"/>
</linearGradient>
<linearGradient id="paint17_linear_21_1275" x1="15.612" y1="63.9536" x2="15.1839" y2="60.2819" gradientUnits="userSpaceOnUse">
<stop stop-color="#F36F56"/>
<stop offset="0.31" stop-color="#F99C4C"/>
<stop offset="0.55" stop-color="#FDB946"/>
<stop offset="0.68" stop-color="#FFC444"/>
<stop offset="0.8" stop-color="#FFC244"/>
<stop offset="0.87" stop-color="#FEBA46"/>
<stop offset="0.92" stop-color="#FCAD49"/>
<stop offset="0.96" stop-color="#F99A4D"/>
<stop offset="1" stop-color="#F57E53"/>
</linearGradient>
<linearGradient id="paint18_linear_21_1275" x1="4.10418" y1="61.5097" x2="31.9499" y2="61.5097" gradientUnits="userSpaceOnUse">
<stop stop-color="#FCB148"/>
<stop offset="0.05" stop-color="#FDBA46"/>
<stop offset="0.14" stop-color="#FFC244"/>
<stop offset="0.32" stop-color="#FFC444"/>
<stop offset="0.48" stop-color="#FDB946"/>
<stop offset="0.78" stop-color="#F99C4D"/>
<stop offset="0.87" stop-color="#F8924F"/>
<stop offset="1" stop-color="#F8924F"/>
</linearGradient>
<linearGradient id="paint19_linear_21_1275" x1="18.155" y1="58.4496" x2="19.5532" y2="70.4472" gradientUnits="userSpaceOnUse">
<stop stop-color="#FFDB44"/>
<stop offset="1" stop-color="#FEEF06"/>
</linearGradient>
<linearGradient id="paint20_linear_21_1275" x1="18.0913" y1="57.9148" x2="18.5206" y2="61.5995" gradientUnits="userSpaceOnUse">
<stop stop-color="#FFDB44"/>
<stop offset="1" stop-color="#FEEF06"/>
</linearGradient>
<linearGradient id="paint21_linear_21_1275" x1="18.5149" y1="61.211" x2="18.0868" y2="57.5394" gradientUnits="userSpaceOnUse">
<stop stop-color="#F36F56"/>
<stop offset="0.31" stop-color="#F99C4C"/>
<stop offset="0.55" stop-color="#FDB946"/>
<stop offset="0.68" stop-color="#FFC444"/>
<stop offset="0.8" stop-color="#FFC244"/>
<stop offset="0.87" stop-color="#FEBA46"/>
<stop offset="0.92" stop-color="#FCAD49"/>
<stop offset="0.96" stop-color="#F99A4D"/>
<stop offset="1" stop-color="#F57E53"/>
</linearGradient>
<linearGradient id="paint22_linear_21_1275" x1="5.86589" y1="58.7589" x2="33.7113" y2="58.7589" gradientUnits="userSpaceOnUse">
<stop stop-color="#FCB148"/>
<stop offset="0.05" stop-color="#FDBA46"/>
<stop offset="0.14" stop-color="#FFC244"/>
<stop offset="0.32" stop-color="#FFC444"/>
<stop offset="0.48" stop-color="#FDB946"/>
<stop offset="0.78" stop-color="#F99C4D"/>
<stop offset="0.87" stop-color="#F8924F"/>
<stop offset="1" stop-color="#F8924F"/>
</linearGradient>
<linearGradient id="paint23_linear_21_1275" x1="19.9165" y1="55.6986" x2="21.3147" y2="67.6962" gradientUnits="userSpaceOnUse">
<stop stop-color="#FFDB44"/>
<stop offset="1" stop-color="#FEEF06"/>
</linearGradient>
<linearGradient id="paint24_linear_21_1275" x1="19.8525" y1="55.164" x2="20.2821" y2="58.8486" gradientUnits="userSpaceOnUse">
<stop stop-color="#FFDB44"/>
<stop offset="1" stop-color="#FEEF06"/>
</linearGradient>
<linearGradient id="paint25_linear_21_1275" x1="20.2763" y1="58.4599" x2="19.8485" y2="54.7885" gradientUnits="userSpaceOnUse">
<stop stop-color="#F36F56"/>
<stop offset="0.31" stop-color="#F99C4C"/>
<stop offset="0.55" stop-color="#FDB946"/>
<stop offset="0.68" stop-color="#FFC444"/>
<stop offset="0.8" stop-color="#FFC244"/>
<stop offset="0.87" stop-color="#FEBA46"/>
<stop offset="0.92" stop-color="#FCAD49"/>
<stop offset="0.96" stop-color="#F99A4D"/>
<stop offset="1" stop-color="#F57E53"/>
</linearGradient>
<linearGradient id="paint26_linear_21_1275" x1="4.56536" y1="55.7913" x2="32.4111" y2="55.7913" gradientUnits="userSpaceOnUse">
<stop stop-color="#FCB148"/>
<stop offset="0.05" stop-color="#FDBA46"/>
<stop offset="0.14" stop-color="#FFC244"/>
<stop offset="0.32" stop-color="#FFC444"/>
<stop offset="0.48" stop-color="#FDB946"/>
<stop offset="0.78" stop-color="#F99C4D"/>
<stop offset="0.87" stop-color="#F8924F"/>
<stop offset="1" stop-color="#F8924F"/>
</linearGradient>
<linearGradient id="paint27_linear_21_1275" x1="18.6162" y1="52.7308" x2="20.0144" y2="64.7284" gradientUnits="userSpaceOnUse">
<stop stop-color="#FFDB44"/>
<stop offset="1" stop-color="#FEEF06"/>
</linearGradient>
<linearGradient id="paint28_linear_21_1275" x1="18.5524" y1="52.1961" x2="18.982" y2="55.8807" gradientUnits="userSpaceOnUse">
<stop stop-color="#FFDB44"/>
<stop offset="1" stop-color="#FEEF06"/>
</linearGradient>
<linearGradient id="paint29_linear_21_1275" x1="18.9763" y1="55.4923" x2="18.5485" y2="51.8207" gradientUnits="userSpaceOnUse">
<stop stop-color="#F36F56"/>
<stop offset="0.31" stop-color="#F99C4C"/>
<stop offset="0.55" stop-color="#FDB946"/>
<stop offset="0.68" stop-color="#FFC444"/>
<stop offset="0.8" stop-color="#FFC244"/>
<stop offset="0.87" stop-color="#FEBA46"/>
<stop offset="0.92" stop-color="#FCAD49"/>
<stop offset="0.96" stop-color="#F99A4D"/>
<stop offset="1" stop-color="#F57E53"/>
</linearGradient>
<linearGradient id="paint30_linear_21_1275" x1="1.2011" y1="53.0402" x2="29.0468" y2="53.0402" gradientUnits="userSpaceOnUse">
<stop stop-color="#FCB148"/>
<stop offset="0.05" stop-color="#FDBA46"/>
<stop offset="0.14" stop-color="#FFC244"/>
<stop offset="0.32" stop-color="#FFC444"/>
<stop offset="0.48" stop-color="#FDB946"/>
<stop offset="0.78" stop-color="#F99C4D"/>
<stop offset="0.87" stop-color="#F8924F"/>
<stop offset="1" stop-color="#F8924F"/>
</linearGradient>
<linearGradient id="paint31_linear_21_1275" x1="15.2519" y1="49.9801" x2="16.6499" y2="61.9779" gradientUnits="userSpaceOnUse">
<stop stop-color="#FFDB44"/>
<stop offset="1" stop-color="#FEEF06"/>
</linearGradient>
<linearGradient id="paint32_linear_21_1275" x1="15.1882" y1="49.4453" x2="15.6175" y2="53.1302" gradientUnits="userSpaceOnUse">
<stop stop-color="#FFDB44"/>
<stop offset="1" stop-color="#FEEF06"/>
</linearGradient>
<linearGradient id="paint33_linear_21_1275" x1="15.612" y1="52.7413" x2="15.1839" y2="49.0699" gradientUnits="userSpaceOnUse">
<stop stop-color="#F36F56"/>
<stop offset="0.31" stop-color="#F99C4C"/>
<stop offset="0.55" stop-color="#FDB946"/>
<stop offset="0.68" stop-color="#FFC444"/>
<stop offset="0.8" stop-color="#FFC244"/>
<stop offset="0.87" stop-color="#FEBA46"/>
<stop offset="0.92" stop-color="#FCAD49"/>
<stop offset="0.96" stop-color="#F99A4D"/>
<stop offset="1" stop-color="#F57E53"/>
</linearGradient>
<linearGradient id="paint34_linear_21_1275" x1="4.10418" y1="50.2974" x2="31.9499" y2="50.2974" gradientUnits="userSpaceOnUse">
<stop stop-color="#FCB148"/>
<stop offset="0.05" stop-color="#FDBA46"/>
<stop offset="0.14" stop-color="#FFC244"/>
<stop offset="0.32" stop-color="#FFC444"/>
<stop offset="0.48" stop-color="#FDB946"/>
<stop offset="0.78" stop-color="#F99C4D"/>
<stop offset="0.87" stop-color="#F8924F"/>
<stop offset="1" stop-color="#F8924F"/>
</linearGradient>
<linearGradient id="paint35_linear_21_1275" x1="18.1548" y1="47.2373" x2="19.553" y2="59.2349" gradientUnits="userSpaceOnUse">
<stop stop-color="#FFDB44"/>
<stop offset="1" stop-color="#FEEF06"/>
</linearGradient>
<linearGradient id="paint36_linear_21_1275" x1="18.0913" y1="46.7025" x2="18.5206" y2="50.3872" gradientUnits="userSpaceOnUse">
<stop stop-color="#FFDB44"/>
<stop offset="1" stop-color="#FEEF06"/>
</linearGradient>
<linearGradient id="paint37_linear_21_1275" x1="18.5149" y1="49.9988" x2="18.0868" y2="46.3271" gradientUnits="userSpaceOnUse">
<stop stop-color="#F36F56"/>
<stop offset="0.31" stop-color="#F99C4C"/>
<stop offset="0.55" stop-color="#FDB946"/>
<stop offset="0.68" stop-color="#FFC444"/>
<stop offset="0.8" stop-color="#FFC244"/>
<stop offset="0.87" stop-color="#FEBA46"/>
<stop offset="0.92" stop-color="#FCAD49"/>
<stop offset="0.96" stop-color="#F99A4D"/>
<stop offset="1" stop-color="#F57E53"/>
</linearGradient>
<linearGradient id="paint38_linear_21_1275" x1="2.59417" y1="47.5469" x2="30.4399" y2="47.5469" gradientUnits="userSpaceOnUse">
<stop stop-color="#FCB148"/>
<stop offset="0.05" stop-color="#FDBA46"/>
<stop offset="0.14" stop-color="#FFC244"/>
<stop offset="0.32" stop-color="#FFC444"/>
<stop offset="0.48" stop-color="#FDB946"/>
<stop offset="0.78" stop-color="#F99C4D"/>
<stop offset="0.87" stop-color="#F8924F"/>
<stop offset="1" stop-color="#F8924F"/>
</linearGradient>
<linearGradient id="paint39_linear_21_1275" x1="16.645" y1="44.4866" x2="18.0432" y2="56.4841" gradientUnits="userSpaceOnUse">
<stop stop-color="#FFDB44"/>
<stop offset="1" stop-color="#FEEF06"/>
</linearGradient>
<linearGradient id="paint40_linear_21_1275" x1="16.5811" y1="43.9519" x2="17.0104" y2="47.6366" gradientUnits="userSpaceOnUse">
<stop stop-color="#FFDB44"/>
<stop offset="1" stop-color="#FEEF06"/>
</linearGradient>
<linearGradient id="paint41_linear_21_1275" x1="17.0048" y1="47.2479" x2="16.577" y2="43.5763" gradientUnits="userSpaceOnUse">
<stop stop-color="#F36F56"/>
<stop offset="0.31" stop-color="#F99C4C"/>
<stop offset="0.55" stop-color="#FDB946"/>
<stop offset="0.68" stop-color="#FFC444"/>
<stop offset="0.8" stop-color="#FFC244"/>
<stop offset="0.87" stop-color="#FEBA46"/>
<stop offset="0.92" stop-color="#FCAD49"/>
<stop offset="0.96" stop-color="#F99A4D"/>
<stop offset="1" stop-color="#F57E53"/>
</linearGradient>
<linearGradient id="paint42_linear_21_1275" x1="29.6492" y1="46.6869" x2="45.2767" y2="69.0571" gradientUnits="userSpaceOnUse">
<stop stop-color="#FCB148"/>
<stop offset="0.05" stop-color="#FDBA46"/>
<stop offset="0.14" stop-color="#FFC244"/>
<stop offset="0.32" stop-color="#FFC444"/>
<stop offset="0.48" stop-color="#FDB946"/>
<stop offset="0.78" stop-color="#F99C4D"/>
<stop offset="0.87" stop-color="#F8924F"/>
<stop offset="1" stop-color="#F8924F"/>
</linearGradient>
<linearGradient id="paint43_linear_21_1275" x1="40.3393" y1="56.0154" x2="31.4423" y2="64.3473" gradientUnits="userSpaceOnUse">
<stop stop-color="#FFDB44"/>
<stop offset="1" stop-color="#FEEF06"/>
</linearGradient>
<linearGradient id="paint44_linear_21_1275" x1="40.746" y1="55.6551" x2="38.0137" y2="58.2138" gradientUnits="userSpaceOnUse">
<stop stop-color="#FFDB44"/>
<stop offset="1" stop-color="#FEEF06"/>
</linearGradient>
<linearGradient id="paint45_linear_21_1275" x1="37.7203" y1="58.0644" x2="40.4427" y2="55.5148" gradientUnits="userSpaceOnUse">
<stop stop-color="#F36F56"/>
<stop offset="0.31" stop-color="#F99C4C"/>
<stop offset="0.55" stop-color="#FDB946"/>
<stop offset="0.68" stop-color="#FFC444"/>
<stop offset="0.8" stop-color="#FFC244"/>
<stop offset="0.87" stop-color="#FEBA46"/>
<stop offset="0.92" stop-color="#FCAD49"/>
<stop offset="0.96" stop-color="#F99A4D"/>
<stop offset="1" stop-color="#F57E53"/>
</linearGradient>
<linearGradient id="paint46_linear_21_1275" x1="54.1468" y1="30.8946" x2="67.45" y2="39.9851" gradientUnits="userSpaceOnUse">
<stop stop-color="#311944"/>
<stop offset="1" stop-color="#6B3976"/>
</linearGradient>
<linearGradient id="paint47_linear_21_1275" x1="56.1417" y1="68.5994" x2="52.8749" y2="68.5994" gradientUnits="userSpaceOnUse">
<stop stop-color="#444B8C"/>
<stop offset="1" stop-color="#26264F"/>
</linearGradient>
<linearGradient id="paint48_linear_21_1275" x1="53.8085" y1="62.7516" x2="55.1655" y2="67.0086" gradientUnits="userSpaceOnUse">
<stop stop-color="#311944"/>
<stop offset="1" stop-color="#A03976"/>
</linearGradient>
<linearGradient id="paint49_linear_21_1275" x1="68.0518" y1="67.4508" x2="65.8663" y2="67.4508" gradientUnits="userSpaceOnUse">
<stop stop-color="#444B8C"/>
<stop offset="1" stop-color="#26264F"/>
</linearGradient>
<linearGradient id="paint50_linear_21_1275" x1="64.4146" y1="59.3709" x2="65.7713" y2="63.6278" gradientUnits="userSpaceOnUse">
<stop stop-color="#311944"/>
<stop offset="1" stop-color="#A03976"/>
</linearGradient>
<linearGradient id="paint51_linear_21_1275" x1="53.0878" y1="67.6189" x2="54.7676" y2="50.8811" gradientUnits="userSpaceOnUse">
<stop stop-color="#444B8C"/>
<stop offset="1" stop-color="#26264F"/>
</linearGradient>
<linearGradient id="paint52_linear_21_1275" x1="53.3176" y1="67.6423" x2="54.9977" y2="50.9045" gradientUnits="userSpaceOnUse">
<stop stop-color="#444B8C"/>
<stop offset="1" stop-color="#26264F"/>
</linearGradient>
<linearGradient id="paint53_linear_21_1275" x1="59.701" y1="68.283" x2="61.3811" y2="51.545" gradientUnits="userSpaceOnUse">
<stop stop-color="#444B8C"/>
<stop offset="1" stop-color="#26264F"/>
</linearGradient>
<linearGradient id="paint54_linear_21_1275" x1="49.6458" y1="31.6308" x2="63.3743" y2="53.9054" gradientUnits="userSpaceOnUse">
<stop stop-color="#FFC444"/>
<stop offset="1" stop-color="#F36F56"/>
</linearGradient>
<linearGradient id="paint55_linear_21_1275" x1="49.3575" y1="31.8086" x2="63.0861" y2="54.0829" gradientUnits="userSpaceOnUse">
<stop stop-color="#FFC444"/>
<stop offset="1" stop-color="#F36F56"/>
</linearGradient>
<linearGradient id="paint56_linear_21_1275" x1="59.202" y1="38.7822" x2="56.7983" y2="29.8702" gradientUnits="userSpaceOnUse">
<stop stop-color="#311944"/>
<stop offset="1" stop-color="#A03976"/>
</linearGradient>
<linearGradient id="paint57_linear_21_1275" x1="71.5259" y1="24.381" x2="58.344" y2="31.447" gradientUnits="userSpaceOnUse">
<stop stop-color="#311944"/>
<stop offset="1" stop-color="#A03976"/>
</linearGradient>
<linearGradient id="paint58_linear_21_1275" x1="53.4352" y1="27.563" x2="53.8442" y2="25.3276" gradientUnits="userSpaceOnUse">
<stop stop-color="#311944"/>
<stop offset="1" stop-color="#A03976"/>
</linearGradient>
<linearGradient id="paint59_linear_21_1275" x1="43.2905" y1="25.8606" x2="43.6994" y2="23.6253" gradientUnits="userSpaceOnUse">
<stop stop-color="#311944"/>
<stop offset="1" stop-color="#A03976"/>
</linearGradient>
<linearGradient id="paint60_linear_21_1275" x1="43.6226" y1="26.3175" x2="42.4339" y2="26.3175" gradientUnits="userSpaceOnUse">
<stop stop-color="#311944"/>
<stop offset="1" stop-color="#6B3976"/>
</linearGradient>
<linearGradient id="paint61_linear_21_1275" x1="42.8087" y1="25.6401" x2="43.2033" y2="26.502" gradientUnits="userSpaceOnUse">
<stop stop-color="#311944"/>
<stop offset="1" stop-color="#A03976"/>
</linearGradient>
<linearGradient id="paint62_linear_21_1275" x1="42.0603" y1="27.7391" x2="40.8719" y2="27.7391" gradientUnits="userSpaceOnUse">
<stop stop-color="#311944"/>
<stop offset="1" stop-color="#6B3976"/>
</linearGradient>
<linearGradient id="paint63_linear_21_1275" x1="40.9678" y1="26.4832" x2="41.3627" y2="27.3449" gradientUnits="userSpaceOnUse">
<stop stop-color="#311944"/>
<stop offset="1" stop-color="#A03976"/>
</linearGradient>
<linearGradient id="paint64_linear_21_1275" x1="44.5894" y1="25.6898" x2="44.9522" y2="29.1321" gradientUnits="userSpaceOnUse">
<stop stop-color="#444B8C"/>
<stop offset="1" stop-color="#26264F"/>
</linearGradient>
<linearGradient id="paint65_linear_21_1275" x1="44.3061" y1="29.1729" x2="44.9414" y2="34.8952" gradientUnits="userSpaceOnUse">
<stop stop-color="#444B8C"/>
<stop offset="1" stop-color="#26264F"/>
</linearGradient>
<linearGradient id="paint66_linear_21_1275" x1="45.1033" y1="36.0689" x2="47.9735" y2="26.7295" gradientUnits="userSpaceOnUse">
<stop stop-color="#FF9085"/>
<stop offset="1" stop-color="#FB6FBB"/>
</linearGradient>
<linearGradient id="paint67_linear_21_1275" x1="49.8036" y1="25.499" x2="47.9609" y2="25.499" gradientUnits="userSpaceOnUse">
<stop stop-color="#311944"/>
<stop offset="1" stop-color="#A03976"/>
</linearGradient>
<linearGradient id="paint68_linear_21_1275" x1="47.1931" y1="27.2909" x2="50.1785" y2="22.6827" gradientUnits="userSpaceOnUse">
<stop stop-color="#311944"/>
<stop offset="1" stop-color="#6B3976"/>
</linearGradient>
<linearGradient id="paint69_linear_21_1275" x1="47.6564" y1="22.4726" x2="48.9685" y2="24.1903" gradientUnits="userSpaceOnUse">
<stop stop-color="#311944"/>
<stop offset="1" stop-color="#A03976"/>
</linearGradient>
<linearGradient id="paint70_linear_21_1275" x1="47.266" y1="32.4492" x2="47.6744" y2="26.3105" gradientUnits="userSpaceOnUse">
<stop stop-color="#311944"/>
<stop offset="1" stop-color="#A03976"/>
</linearGradient>
<linearGradient id="paint71_linear_21_1275" x1="52.3979" y1="29.9345" x2="66.1268" y2="52.2091" gradientUnits="userSpaceOnUse">
<stop stop-color="#FFC444"/>
<stop offset="1" stop-color="#F36F56"/>
</linearGradient>
</defs>
</svg>
