<svg width="70" height="68" viewBox="0 0 70 68" fill="none" xmlns="http://www.w3.org/2000/svg">
<g style="mix-blend-mode:multiply">
<path d="M35.166 54.8527C16.3275 54.8527 1.0565 57.2487 1.0565 60.2028C1.0565 61.0724 2.38248 61.8948 4.73123 62.6204C1.99438 63.1194 0.25 63.8727 0.25 64.7167C0.25 66.2194 5.78029 67.4361 12.6022 67.4361C18.5246 67.4361 23.4707 66.5191 24.6734 65.2945C27.9782 65.4621 31.5034 65.5528 35.166 65.5528C54.0025 65.5528 69.2735 63.1568 69.2735 60.2028C69.2735 57.2487 54.0025 54.8527 35.166 54.8527Z" fill="#C6C6C6"/>
</g>
<path d="M40.3406 3.20007C40.8843 5.11292 41.5231 8.0512 41.519 9.03523C40.3932 9.19891 38.861 9.404 37.0459 8.7907C34.4566 7.91316 33.5187 7.13028 35.9746 6.14625C38.0586 5.31209 39.7342 5.25293 40.3406 3.20007Z" fill="#83774B"/>
<path d="M60.0604 49.3943C59.7592 51.4412 64.6851 56.4659 63.6057 57.9409C61.3823 60.964 56.3755 60.3073 53.1738 59.834C48.9412 62.2005 42.8651 62.936 35.6329 62.936C27.1839 62.936 20.0689 62.936 15.8383 58.9565C12.8427 58.921 8.69904 59.7098 7.38519 57.3434C6.07135 54.977 10.5667 49.8774 10.4172 49.2582C9.53586 45.6238 10.9225 37.5248 16.9864 32.4962C22.545 27.8856 26.2419 22.4389 26.4602 15.8248C26.5472 13.2238 21.7405 10.1218 21.2048 8.90311C19.2785 4.53118 28.4148 4.62978 28.4148 4.62978C29.4174 3.37361 30.6346 2.29556 32.0128 1.44302C35.2145 -0.52898 38.4668 -0.684769 40.0474 2.26535C41.9818 5.87806 33.4257 5.43436 35.8916 7.45566C38.9377 9.95419 44.848 8.32729 48.4379 7.06126C48.64 10.459 42.4872 15.2865 42.4124 16.0891C41.9818 20.7253 50.6997 23.8627 56.2765 32.295C59.7572 37.5622 60.5131 46.2746 60.0604 49.3943Z" fill="#C2AE7A"/>
<g style="mix-blend-mode:multiply">
<path d="M58.6597 50.0173C59.1306 50.674 59.8421 51.0526 60.6042 51.3129C60.2242 50.5616 59.9877 49.8911 60.0604 49.3941C60.2626 47.994 60.2242 45.4639 59.8037 42.6262C59.5827 43.628 59.3523 44.6265 59.1124 45.6217C58.8012 46.9114 57.7723 48.7848 58.6597 50.0173Z" fill="#E0DDCB"/>
</g>
<g style="mix-blend-mode:soft-light" opacity="0.6">
<path d="M42.4184 16.0989C42.4366 15.9017 42.8227 15.4619 43.3846 14.8644C39.3905 16.6392 45.9557 23.0048 47.6293 24.5607C49.0058 25.8425 50.445 27.0593 51.7791 28.3864C53.1131 29.7136 54.5766 31.1472 55.474 32.8451C56.3715 34.543 56.899 36.3158 57.7561 37.9881C58.2322 38.8922 58.7946 39.7505 59.4358 40.5517C58.8294 37.6489 57.8187 34.6357 56.2846 32.3028C50.7118 23.8725 41.9879 20.735 42.4184 16.0989Z" fill="white"/>
</g>
<g style="mix-blend-mode:multiply">
<path d="M12.6407 43.49C13.4492 41.5831 15.1491 40.1929 16.5297 38.6922C18.4135 36.6432 19.9518 34.3143 21.6456 32.1214C23.1555 30.1672 24.7746 28.3865 25.8802 26.164C27.9945 21.9124 30.1128 16.2133 27.093 11.8867C26.0056 10.3328 24.6574 8.9287 23.8589 7.19531C23.5904 6.60692 23.4316 5.97653 23.39 5.33374C21.6658 5.91351 20.358 6.97248 21.205 8.90307C21.7406 10.1218 26.5473 13.2237 26.4604 15.8248C26.2421 22.4409 22.5451 27.8856 16.9865 32.4961C11.5977 36.9627 9.91194 43.8529 10.2111 47.8777C10.7872 48.5364 11.3127 49.197 11.5654 49.9385C12.1677 47.8166 11.7554 45.5646 12.6407 43.49Z" fill="#E0DDCB"/>
</g>
<g style="mix-blend-mode:multiply">
<path d="M34.2726 10.3308C35.2003 12.4093 35.2994 14.5193 35.2832 16.6728C35.3742 16.2606 35.4752 15.8485 35.5824 15.4403C35.9765 13.9297 36.306 12.4073 36.686 10.9047C36.9042 10.0281 37.2689 9.19267 37.7654 8.43177C37.0802 8.2368 36.4427 7.90806 35.8916 7.46549C33.4256 5.44418 41.9818 5.88788 40.0474 2.27517C38.4668 -0.682832 35.2145 -0.519156 32.0128 1.45285C30.7201 2.25612 29.5664 3.25455 28.5947 4.41085C30.7818 6.05353 33.1346 7.78101 34.2726 10.3308Z" fill="#E0DDCB"/>
</g>
<g style="mix-blend-mode:multiply">
<path d="M40.9408 15.3712C40.9321 15.6705 41.0031 15.9668 41.1469 16.2312C41.2908 16.4957 41.5025 16.7191 41.7614 16.8798C41.6604 15.7913 42.1495 14.8743 43.6473 14.3832C43.675 14.3725 43.7052 14.37 43.7344 14.376C43.7635 14.3819 43.7901 14.3961 43.811 14.4168C45.0582 13.1093 46.8329 11.2616 47.7849 9.46704C46.009 10.4879 44.3138 11.6368 42.7135 12.9042C41.9171 13.5254 40.9064 14.263 40.9408 15.3712Z" fill="#E0DDCB"/>
</g>
<g style="mix-blend-mode:multiply">
<path d="M58.6171 58.7297C57.4367 59.1359 55.6316 59.2621 54.4431 58.846C53.3536 58.4634 54.4431 56.4914 54.623 55.4936C53.9378 56.097 53.3051 56.7537 52.6138 57.3532C48.7309 60.7391 43.3542 60.2797 38.5334 59.9405C35.6632 59.7433 32.7586 59.765 29.9105 59.3213C27.1939 58.8953 24.6551 57.8206 22.0275 57.0298C20.7249 56.614 19.352 56.4486 17.9848 56.5427C17.239 56.6058 16.5052 56.7399 15.7614 56.807C14.4718 56.9253 12.9862 57.0042 11.7774 56.4559C10.7061 55.9748 9.93399 54.8152 10.3261 53.632C10.6677 52.5987 11.5126 51.7152 11.3651 50.5636C11.2579 49.7176 10.8032 49.0787 10.2736 48.4733C10.307 48.7386 10.3556 49.002 10.4191 49.2621C10.5687 49.8813 6.0733 54.9809 7.38715 57.3473C8.70099 59.7137 12.8447 58.9249 15.8402 58.9604C20.0627 62.9419 27.1858 62.9399 35.6349 62.9399C42.8651 62.9399 48.9431 62.2004 53.1757 59.8379C56.3775 60.3112 61.3923 60.9679 63.6077 57.9448C63.9978 57.4124 63.6077 56.4145 62.9548 55.2629C61.9058 56.8701 60.1897 58.1893 58.6171 58.7297Z" fill="#E0DDCB"/>
</g>
<path d="M34.2525 26.9312H36.9348V28.6113C37.2406 28.6823 37.9299 28.9643 39.0026 29.4573C39.1596 29.3241 39.2881 29.1619 39.3805 28.9801C39.549 28.6724 39.7592 28.5186 40.0112 28.5186H40.8015L41.0845 28.5028C41.2422 28.5226 41.3432 28.6665 41.3857 28.9347C41.3857 28.9544 41.416 29.1023 41.4786 29.3804L42.2063 33.137C42.2063 33.1982 42.2366 33.3007 42.269 33.4447C42.3946 33.9201 42.4845 34.4039 42.5378 34.8921C42.5378 35.1288 42.2366 35.2471 41.6383 35.2471C41.2896 35.2645 40.94 35.246 40.5953 35.1919C40.4902 35.1564 40.3171 34.8974 40.0759 34.4149C39.1056 32.5376 38.0586 31.3314 36.9348 30.7963V36.8641C39.5746 38.4851 41.3129 39.9372 42.1497 41.2203C42.998 42.5437 43.4341 44.0789 43.405 45.6396C43.405 47.1278 43.0997 48.3287 42.4893 49.2424C41.953 50.086 41.2132 50.7888 40.3346 51.2893C39.5099 51.7429 38.382 52.0203 36.9509 52.1215V54.6477H34.2666V51.8593C33.6716 51.6391 33.0963 51.3713 32.5465 51.0586C32.3778 50.9272 32.1761 50.8421 31.9623 50.8121C31.7319 50.8121 31.5257 51.033 31.356 51.4747C31.2968 51.6731 31.168 51.8448 30.9921 51.9598C30.8668 52.0164 30.4774 52.0446 29.8238 52.0446C29.6217 52.0446 29.4822 51.7981 29.3993 51.3051L28.4352 45.8545C28.4 45.687 28.3737 45.5178 28.3563 45.3477C28.3563 44.9888 28.7101 44.8074 29.4135 44.8074C29.9714 44.8074 30.3271 44.8731 30.4807 45.0046C30.6344 45.136 30.9261 45.5824 31.356 46.3436C32.407 48.192 33.38 49.316 34.2747 49.7157V42.5908C30.0044 40.2626 27.8685 37.4807 27.8672 34.2453C27.8323 33.2945 28.0053 32.3473 28.3745 31.4668C28.7222 30.7227 29.3481 30.0377 30.2523 29.4119C31.1565 28.7862 32.4879 28.4522 34.2464 28.4102L34.2525 26.9312ZM34.2363 35.4009V30.0765C33.9161 30.0617 33.5963 30.1123 33.2973 30.225C32.9983 30.3378 32.7268 30.5102 32.5 30.7312C32.303 30.9102 32.1443 31.1257 32.0333 31.365C31.9222 31.6043 31.861 31.8628 31.8532 32.1254C31.8532 33.2508 32.6476 34.3426 34.2363 35.4009ZM36.9509 44.2749V50.2639C38.5275 50.0286 39.3165 49.197 39.3179 47.7693C39.3179 46.4941 38.5289 45.3273 36.9509 44.269V44.2749Z" fill="white"/>
<g style="mix-blend-mode:multiply">
<path d="M35.6107 54.6477V26.9312H34.2524V28.4102C32.4939 28.4509 31.1625 28.7848 30.2583 29.4119C29.3541 30.039 28.7261 30.724 28.3744 31.4668C28.0003 32.3463 27.8226 33.2935 27.8529 34.2453C27.8529 37.4794 29.9888 40.2612 34.2605 42.5908V49.7196C33.3671 49.3252 32.3941 48.2012 31.3417 46.3475C30.9092 45.5889 30.6174 45.1426 30.4665 45.0085C30.3156 44.8744 29.9598 44.8087 29.3992 44.8113C28.6958 44.8113 28.3421 44.9927 28.3421 45.3516C28.3594 45.5218 28.3857 45.6909 28.4209 45.8584L29.3851 51.3051C29.468 51.7981 29.6115 52.0446 29.8096 52.0446C30.4631 52.0446 30.8526 52.0164 30.9779 51.9598C31.1538 51.8448 31.2826 51.6731 31.3417 51.4747C31.5196 51.033 31.7258 50.8121 31.9481 50.8121C32.1618 50.8421 32.3635 50.9272 32.5323 51.0586C33.082 51.3713 33.6574 51.6391 34.2524 51.8593V54.6477H35.6107ZM34.2362 35.4009C32.6475 34.3492 31.8531 33.256 31.8531 32.1215C31.8609 31.8589 31.9221 31.6004 32.0332 31.3611C32.1442 31.1217 32.3029 30.9063 32.4999 30.7273C32.7267 30.5062 32.9982 30.3338 33.2972 30.2211C33.5962 30.1083 33.916 30.0577 34.2362 30.0726V35.4009Z" fill="#E7E6DD"/>
</g>
<path d="M35.449 7.72192C35.7576 9.84049 35.9445 11.9742 36.0089 14.1132C36.0473 17.2447 34.5293 20.5045 34.5293 20.5045C34.5293 20.5045 36.3161 17.3788 36.7649 14.3321C37.3712 10.2066 36.8841 8.47523 36.8841 8.47523L35.449 7.72192Z" fill="#988A57"/>
<path d="M46.9097 9.64844C46.9097 9.64844 42.0586 13.0541 41.62 15.8819C41.2501 18.2483 43.7464 21.6777 43.7464 21.6777C43.7464 21.6777 40.4416 17.7987 40.9166 15.7833C41.81 11.9517 46.9097 9.64844 46.9097 9.64844Z" fill="#988A57"/>
<path d="M25.2515 11.3169C25.2515 11.3169 28.3441 13.1686 28.0975 16.0182C27.8893 18.4161 25.4536 23.7405 25.4536 23.7405C25.4536 23.7405 28.7847 18.1558 28.809 16.0911C28.8514 12.1511 25.2515 11.3169 25.2515 11.3169Z" fill="#988A57"/>
<g style="mix-blend-mode:multiply">
<path d="M19.2947 60.0569C19.2947 60.0569 16.0505 58.4793 16.0444 55.612C16.0444 53.2081 17.999 47.7023 17.999 47.7023C17.999 47.7023 15.1692 53.5453 15.3309 55.6061C15.6402 59.5264 19.2947 60.0569 19.2947 60.0569Z" fill="#E0DDCB"/>
</g>
<g style="mix-blend-mode:multiply">
<path d="M50.6816 60.8241C50.6816 60.8241 54.0916 58.8521 54.793 56.0676C55.3832 53.7328 54.6575 50.6111 54.6575 50.6111C54.6575 50.6111 56.2079 53.1412 55.4337 55.9355C54.3806 59.7316 50.6816 60.8241 50.6816 60.8241Z" fill="#E0DDCB"/>
</g>
<path d="M28.2632 5.09106C28.2632 5.09106 26.1631 8.02541 25.0453 8.77082C22.9128 10.1946 19.5171 7.78482 23.6304 6.01002C25.2818 5.29812 28.2632 5.09106 28.2632 5.09106Z" fill="#83774B"/>
<path d="M41.8281 8.68617C41.8281 8.68617 46.9097 8.33516 48.4439 7.0711C47.888 6.56627 46.1537 5.73014 44.8055 6.10876C43.4047 6.50317 41.8281 8.68617 41.8281 8.68617Z" fill="#83774B"/>
<path d="M23.1191 10.0291C23.1191 10.0291 24.5462 10.1494 25.9752 8.99383C26.8181 8.30955 27.9743 6.27049 29.4862 4.62979C31.8956 2.0228 33.7249 0.938196 35.4491 0.719304C38.5336 0.324903 39.7302 3.31643 39.7302 3.31643C39.7302 3.31643 38.5518 1.17878 35.5865 1.40951C33.4278 1.57713 32.0675 3.03444 29.8642 5.22139C27.8591 7.21311 27.2689 9.04313 26.0238 9.7077C24.3845 10.5931 23.1191 10.0291 23.1191 10.0291Z" fill="#83774B"/>
<path d="M42.8673 14.9454C42.4631 14.762 42.0426 14.8251 41.9173 15.0834L41.8486 15.2254C41.7432 15.0979 41.609 14.996 41.4564 14.9276C41.0522 14.7442 40.6297 14.8073 40.5064 15.0657L40.4054 15.2747C40.2971 15.1147 40.1442 14.9881 39.9647 14.9099C39.5605 14.7265 39.138 14.7896 39.0127 15.0479L38.944 15.1899C38.8391 15.0619 38.7048 14.9598 38.5518 14.8921C38.1476 14.7087 37.7251 14.7718 37.6018 15.0302L37.5675 15.1012C37.4935 15.0413 37.412 14.9909 37.3249 14.9513C36.9206 14.7679 36.4982 14.831 36.3729 15.0893L36.3041 15.2333C36.1989 15.1052 36.0647 15.0026 35.912 14.9335C35.5077 14.7501 35.0853 14.8132 34.962 15.0716L34.863 15.2806C34.7528 15.1214 34.5996 14.9952 34.4203 14.9158C34.016 14.7324 33.5936 14.7935 33.4703 15.0538L33.4015 15.1978C33.2931 15.068 33.1545 14.9652 32.9973 14.898C32.593 14.7146 32.1726 14.7778 32.0473 15.0361L31.9199 15.3003C31.8239 15.2012 31.7093 15.1208 31.5824 15.0637C31.1781 14.8803 30.7557 14.9414 30.6324 15.2017L30.5636 15.3437C30.4583 15.2162 30.3241 15.1143 30.1715 15.0459C29.7672 14.8625 29.3448 14.9257 29.2195 15.184L29.1204 15.393C29.0118 15.2325 28.8582 15.1058 28.6778 15.0282C28.2735 14.8448 27.851 14.9079 27.7278 15.1662L27.659 15.3082C27.5542 15.1802 27.4198 15.0782 27.2669 15.0104C26.8626 14.8271 26.4402 14.8902 26.3169 15.1485L25.3062 17.2605C25.1809 17.5208 25.4053 17.8777 25.8075 18.0611C26.2098 18.2445 26.6322 18.1814 26.7575 17.9231L26.8262 17.7791C26.9315 17.9073 27.0657 18.0099 27.2184 18.0789C27.6226 18.2603 28.0451 18.1992 28.1684 17.9408L28.2695 17.7318C28.3783 17.8913 28.531 18.0178 28.7101 18.0966C29.1144 18.28 29.5368 18.2169 29.6621 17.9586L29.7309 17.8146C29.8361 17.9428 29.9703 18.0454 30.123 18.1144C30.5273 18.2958 30.9477 18.2347 31.073 17.9763L31.2003 17.7121C31.2973 17.8102 31.4117 17.8904 31.5379 17.9487C31.9422 18.1321 32.3646 18.069 32.4899 17.8107L32.5587 17.6667C32.6639 17.7949 32.7981 17.8975 32.9508 17.9665C33.3551 18.1479 33.7755 18.0868 33.9008 17.8284L33.9999 17.6194C34.11 17.7786 34.2632 17.9049 34.4425 17.9842C34.8468 18.1676 35.2692 18.1045 35.3925 17.8462L35.4613 17.7022C35.5665 17.8304 35.7007 17.9329 35.8534 18.002C36.2577 18.1834 36.6801 18.1223 36.8054 17.8639L36.8378 17.7929C36.9133 17.8517 36.9953 17.902 37.0823 17.9428C37.4866 18.1262 37.9091 18.0631 38.0324 17.8048L38.1011 17.6608C38.2063 17.7889 38.3405 17.8915 38.4932 17.9606C38.8975 18.144 39.3199 18.0809 39.4452 17.8225L39.5443 17.6135C39.6535 17.7735 39.807 17.9 39.987 17.9783C40.3912 18.1617 40.8137 18.0986 40.937 17.8403L41.0057 17.6963C41.1109 17.8244 41.2451 17.927 41.3978 17.9961C41.8021 18.1775 42.2245 18.1164 42.3478 17.858L43.3585 15.746C43.4939 15.4857 43.2696 15.1288 42.8673 14.9454Z" fill="#F59D16" stroke="#B45F12" stroke-width="0.1972" stroke-miterlimit="10"/>
<g style="mix-blend-mode:soft-light" opacity="0.6">
<path d="M27.0303 15.5606C27.3699 15.955 28.1885 15.1386 28.7666 15.466C29.2497 15.7361 29.3892 15.1978 29.7773 15.1978C30.1269 15.1978 30.1815 15.7066 30.6545 15.4522C30.8566 15.3457 31.1336 15.1722 31.3741 15.2372C31.7359 15.3358 32.0876 15.8545 32.3847 15.2254C32.4046 15.192 32.4351 15.1659 32.4716 15.1509C32.5081 15.136 32.5485 15.1331 32.5869 15.1426C33.0821 15.3398 33.3145 15.2885 33.7471 15.0578C33.8834 14.981 34.0419 14.9505 34.1979 14.971C34.3389 15.0059 34.4661 15.0807 34.5637 15.186C34.8144 15.4561 35.1923 15.3023 35.4976 15.2175C35.7401 15.1505 35.9685 15.3851 36.1626 15.466C36.395 15.5606 36.7528 15.1978 37.0054 15.1978C37.3693 15.1978 37.6705 15.4995 38.0363 15.2353C38.1085 15.195 38.1897 15.1725 38.2728 15.1697C38.3559 15.167 38.4385 15.1841 38.5133 15.2195C38.8125 15.2984 38.958 15.5902 39.3097 15.391C39.4977 15.2826 39.6392 15.3536 39.8332 15.4108C40.1546 15.5034 40.5468 15.8052 40.66 15.3595C40.6842 15.255 40.8419 15.1623 40.9328 15.1386C41.0062 15.1225 41.0825 15.1241 41.1551 15.1434C41.2277 15.1626 41.2943 15.1989 41.3492 15.2491C41.4928 15.343 41.6592 15.3983 41.8317 15.4093C42.0042 15.4204 42.1766 15.3869 42.3316 15.3122C42.5073 15.2454 42.699 15.2297 42.8837 15.2667C43.0684 15.3038 43.2381 15.3922 43.3726 15.5212C43.3372 15.3918 43.2713 15.2723 43.18 15.1723C43.0887 15.0723 42.9747 14.9946 42.847 14.9454C42.4428 14.762 42.0223 14.8251 41.897 15.0834L41.8283 15.2254C41.7229 15.0979 41.5887 14.996 41.4361 14.9276C41.0319 14.7442 40.6094 14.8073 40.4861 15.0657L40.3851 15.2747C40.2768 15.1147 40.1239 14.9881 39.9444 14.9099C39.5402 14.7265 39.1177 14.7896 38.9924 15.0479L38.9237 15.1899C38.8188 15.0619 38.6845 14.9598 38.5315 14.8921C38.1273 14.7087 37.7048 14.7718 37.5815 15.0302L37.5472 15.1012C37.4732 15.0413 37.3917 14.9909 37.3046 14.9513C36.9003 14.7679 36.4779 14.831 36.3526 15.0893L36.2838 15.2333C36.1786 15.1052 36.0444 15.0026 35.8917 14.9335C35.4874 14.7501 35.065 14.8132 34.9417 15.0716L34.8426 15.2806C34.7325 15.1214 34.5793 14.9952 34.4 14.9158C33.9957 14.7324 33.5733 14.7935 33.45 15.0538L33.3812 15.1978C33.2728 15.068 33.1342 14.9652 32.977 14.898C32.5727 14.7146 32.1523 14.7778 32.027 15.0361L31.8996 15.3003C31.8036 15.2012 31.689 15.1208 31.5621 15.0637C31.1578 14.8803 30.7354 14.9414 30.6121 15.2017L30.5433 15.3437C30.438 15.2162 30.3038 15.1143 30.1512 15.0459C29.7469 14.8625 29.3245 14.9257 29.1992 15.184L29.1001 15.393C28.9915 15.2325 28.8379 15.1058 28.6575 15.0282C28.2532 14.8448 27.8307 14.9079 27.7074 15.1662L27.6387 15.3082C27.5339 15.1802 27.3995 15.0782 27.2466 15.0104C26.8423 14.8271 26.4199 14.8902 26.2966 15.1485L26.1389 15.4778C26.4724 15.3299 26.7979 15.2885 27.0303 15.5606Z" fill="white"/>
</g>
<g style="mix-blend-mode:multiply">
<path d="M41.2037 17.1303C39.8515 17.2585 38.5478 16.5703 37.1793 16.588C36.5952 16.588 35.8998 16.8799 35.3278 16.797C34.8245 16.7221 34.3899 16.6452 33.8745 16.7832C33.6726 16.846 33.4667 16.8954 33.258 16.9311C32.9871 16.9666 32.3787 16.8503 32.1564 16.9982C31.9711 17.146 31.7508 17.2463 31.5156 17.29C31.1579 17.3453 31.0002 16.8424 30.6647 16.8956C30.4571 16.9441 30.2542 17.0101 30.0583 17.0928C29.8056 17.1835 29.8743 16.8799 29.3508 17.0928C28.9466 17.2545 28.7343 17.1086 28.2977 17.1165C27.8126 17.1165 27.5256 17.2821 27.0728 17.0771C26.6685 16.8799 26.5655 17.3019 26.2036 17.3019C26.0546 17.3026 25.9087 17.2605 25.784 17.1809C25.6593 17.1013 25.5613 16.9877 25.5023 16.8542L25.3001 17.2664C25.1748 17.5267 25.3992 17.8836 25.8014 18.067C26.2037 18.2504 26.6261 18.1873 26.7514 17.929L26.8201 17.785C26.9254 17.9131 27.0596 18.0157 27.2123 18.0848C27.6165 18.2662 28.039 18.205 28.1623 17.9467L28.2634 17.7377C28.3722 17.8972 28.5249 18.0236 28.704 18.1025C29.1083 18.2859 29.5307 18.2228 29.656 17.9645L29.7248 17.8205C29.83 17.9486 29.9642 18.0512 30.1169 18.1202C30.5212 18.3017 30.9416 18.2405 31.0669 17.9822L31.1942 17.718C31.2912 17.8161 31.4056 17.8963 31.5318 17.9546C31.9361 18.138 32.3585 18.0749 32.4838 17.8166L32.5526 17.6726C32.6578 17.8007 32.792 17.9033 32.9447 17.9723C33.349 18.1538 33.7694 18.0926 33.8947 17.8343L33.9938 17.6253C34.1039 17.7845 34.2571 17.9107 34.4364 17.9901C34.8407 18.1735 35.2631 18.1104 35.3864 17.8521L35.4552 17.7081C35.5628 17.8348 35.6991 17.9354 35.8534 18.0019C36.2576 18.1834 36.6801 18.1222 36.8054 17.8639L36.8377 17.7929C36.9132 17.8516 36.9953 17.9019 37.0823 17.9428C37.4866 18.1262 37.909 18.0631 38.0323 17.8047L38.101 17.6608C38.2063 17.7889 38.3405 17.8915 38.4932 17.9605C38.8974 18.1439 39.3199 18.0808 39.4452 17.8225L39.5443 17.6134C39.6534 17.7735 39.8069 17.9 39.9869 17.9783C40.3912 18.1617 40.8136 18.0986 40.9369 17.8402L41.0057 17.6963C41.1109 17.8244 41.2451 17.927 41.3978 17.996C41.802 18.1774 42.2245 18.1163 42.3478 17.858L43.0431 16.4105C42.5136 16.8178 41.875 17.0677 41.2037 17.1303Z" fill="#E0DDCB"/>
</g>
<path d="M2.5542 62.6204C2.5542 64.265 7.03947 65.6001 12.5738 65.6001C18.1081 65.6001 22.5934 64.265 22.5934 62.6204V60.8594L2.5542 60.956V62.6204Z" fill="#8D5800"/>
<path d="M22.65 61.0114C22.65 62.4036 18.1566 63.5316 12.6122 63.5316C7.06775 63.5316 2.57642 62.4115 2.57642 61.0114C2.57642 59.6113 7.06978 58.4971 12.6081 58.4971C18.1465 58.4971 22.65 59.631 22.65 61.0114Z" fill="#AF6C00"/>
<path d="M22.3105 61.0112C22.3105 62.3562 17.9667 63.4467 12.6083 63.4467C7.24979 63.4467 2.90601 62.364 2.90601 61.0112C2.90601 59.6585 7.24979 58.5739 12.6083 58.5739C17.9667 58.5739 22.3105 59.6723 22.3105 61.0112Z" fill="#F9B233"/>
<path d="M18.2822 61.9973C16.2041 62.2153 14.1099 62.2456 12.0262 62.088C9.94225 61.9164 8.16148 61.5634 7.05381 61.0862C5.94614 60.609 5.43677 60.0233 5.59039 59.4633C4.131 59.8774 3.24365 60.4236 3.24365 61.0211C3.24365 62.3187 7.43786 63.3777 12.6084 63.3777C17.2897 63.3777 21.1686 62.5159 21.8659 61.3879C20.6892 61.6807 19.491 61.8844 18.2822 61.9973Z" fill="#FECA33"/>
<path d="M20.4772 61.037C20.4772 62.1374 16.9318 63.0267 12.5557 63.0267C8.17958 63.0267 4.63623 62.1374 4.63623 61.037C4.63623 59.9366 8.1816 59.0492 12.5557 59.0492C16.9298 59.0492 20.4772 59.9386 20.4772 61.037Z" fill="#AF6C00"/>
<path d="M19.7798 61.0369C19.7798 62.0387 16.5457 62.8511 12.5557 62.8511C8.56563 62.8511 5.33154 62.0387 5.33154 61.0369C5.33154 60.0351 8.56563 59.2227 12.5537 59.2227C16.5417 59.2227 19.7798 60.0351 19.7798 61.0369Z" fill="#F9B233"/>
<g style="mix-blend-mode:multiply">
<path d="M12.5557 59.2228C11.352 59.2188 10.1496 59.2992 8.95776 59.4634C10.0371 59.7454 10.8416 60.1063 11.1569 60.4908C11.7088 61.1633 11.6522 62.1493 9.82288 62.7192C10.7309 62.8092 11.643 62.8539 12.5557 62.8533C16.5498 62.8533 19.7839 62.0408 19.7839 61.037C19.7839 60.0333 16.5498 59.2228 12.5557 59.2228Z" fill="#EDEDED"/>
</g>
<path d="M15.3026 61.0863C15.1289 60.9945 14.9423 60.9281 14.7488 60.8891C14.4991 60.8334 14.2459 60.7945 13.9908 60.7728C13.7886 60.753 13.5239 60.7313 13.2085 60.7077V60.3902C13.2714 60.4054 13.3297 60.4352 13.3783 60.477C13.5137 60.5992 13.8473 60.6742 14.3202 60.6742C14.5446 60.6778 14.7686 60.6546 14.9873 60.6051C15.1672 60.5598 15.2622 60.5026 15.2622 60.4395C15.2622 60.3764 15.2116 60.3369 15.1106 60.2817C14.9851 60.218 14.853 60.1678 14.7164 60.1319C14.4608 60.0599 14.199 60.0111 13.9342 59.9859C13.732 59.9623 13.4794 59.9445 13.2085 59.9327V59.8676C13.2085 59.7335 12.8811 59.6842 12.5718 59.6842C12.2626 59.6842 11.9391 59.7335 11.9391 59.8696V59.9327C11.4384 59.9418 10.94 60.0006 10.4515 60.1082C10.027 60.2147 9.81072 60.3527 9.81072 60.5184C9.81072 60.6426 9.92391 60.7491 10.1442 60.8319C10.4188 60.9305 10.7045 60.9967 10.9952 61.0291C11.258 61.0626 11.5733 61.0942 11.9391 61.1218V61.5162C11.8614 61.5017 11.7859 61.4771 11.7148 61.4432C11.6377 61.3992 11.5641 61.3498 11.4945 61.2953C11.3923 61.2308 11.2759 61.1909 11.1549 61.179C10.9705 61.15 10.7838 61.1368 10.597 61.1395C10.363 61.1347 10.1293 61.1592 9.90168 61.2125C9.72178 61.2579 9.62476 61.3151 9.62476 61.3762C9.62476 61.4373 9.67933 61.5063 9.78848 61.5734C9.94363 61.6565 10.1095 61.7188 10.2817 61.7588C10.5527 61.8274 10.8282 61.8775 11.1064 61.9086C11.355 61.9382 11.636 61.9599 11.9472 61.9737V62.2439C11.9472 62.2991 11.9877 62.3405 12.0726 62.372C12.2394 62.4248 12.4149 62.4469 12.59 62.4371C12.7761 62.4533 12.9635 62.4249 13.1358 62.3543C13.161 62.3403 13.1819 62.3199 13.1961 62.2952C13.2104 62.2706 13.2175 62.2426 13.2166 62.2143V61.9737C13.5786 61.9603 13.9396 61.928 14.298 61.8771C14.608 61.8387 14.9112 61.7598 15.1995 61.6424C15.4016 61.5478 15.5047 61.4452 15.5047 61.3367C15.5047 61.2283 15.438 61.1612 15.3026 61.0863ZM11.6865 60.4947C11.6865 60.4257 11.7815 60.406 11.8118 60.3981C11.8421 60.3902 11.8927 60.3823 11.9391 60.3764V60.611L11.7997 60.5775C11.7754 60.5696 11.6865 60.5499 11.6865 60.4868V60.4947ZM13.6269 61.3782C13.6269 61.4255 13.5643 61.4669 13.4248 61.5024C13.3512 61.5224 13.2762 61.5369 13.2004 61.5458V61.2263C13.3056 61.2401 13.3904 61.2539 13.4592 61.2697C13.5279 61.2855 13.6189 61.3052 13.6189 61.3703L13.6269 61.3782Z" fill="#AF6C00"/>
<path d="M12.8913 59.8676V60.0036C13.247 60.0036 13.5522 60.0313 13.8069 60.0589C14.0332 60.0812 14.2571 60.1228 14.476 60.1831C14.5957 60.2149 14.7116 60.2592 14.8216 60.3152C14.9024 60.3599 14.9429 60.4013 14.9429 60.4395C14.9429 60.4809 14.8822 60.5183 14.761 60.5479C14.6167 60.5813 14.4686 60.5965 14.3203 60.5933C13.9929 60.5933 13.7826 60.5499 13.6856 60.4611C13.5886 60.3724 13.3117 60.2876 12.8913 60.2521V60.7747C13.2955 60.8023 13.6331 60.8299 13.8776 60.8516C14.0987 60.8713 14.3182 60.9055 14.5346 60.9541C14.7013 60.9853 14.8622 61.0412 15.0116 61.1198C15.1228 61.1829 15.1794 61.2519 15.1794 61.3288C15.1794 61.4057 15.0884 61.5142 14.9105 61.597C14.6591 61.6981 14.3945 61.7644 14.1242 61.7942C13.7159 61.8525 13.3039 61.8841 12.8913 61.8889V62.2005C12.8928 62.2218 12.8883 62.2432 12.8783 62.2623C12.8684 62.2814 12.8533 62.2975 12.8347 62.3089C12.7538 62.3374 12.6677 62.3489 12.582 62.3424C12.4968 62.3463 12.4115 62.337 12.3293 62.3148C12.3095 62.3102 12.2917 62.2995 12.2786 62.2842C12.2655 62.2689 12.2577 62.2499 12.2566 62.23V61.8908C11.8685 61.881 11.5269 61.8573 11.2358 61.8218C10.9899 61.7945 10.7461 61.751 10.5061 61.6917C10.3557 61.6562 10.2109 61.6011 10.0756 61.528C9.98057 61.4708 9.93408 61.4156 9.93408 61.3624C9.93408 61.3091 9.99674 61.2854 10.1221 61.2539C10.2744 61.2191 10.4306 61.2039 10.587 61.2085C10.7142 61.2071 10.8413 61.2164 10.967 61.2361C11.0432 61.244 11.1166 61.2689 11.1812 61.3091C11.2553 61.3673 11.3336 61.42 11.4157 61.4669C11.5121 61.5125 11.6139 61.5463 11.7189 61.5674C11.8956 61.6022 12.0746 61.6246 12.2545 61.6345V61.0527C11.8078 61.0212 11.4359 60.9877 11.1368 60.9482C10.8878 60.9227 10.6429 60.8684 10.4071 60.7865C10.2211 60.7155 10.1281 60.6268 10.1281 60.5164C10.1281 60.3717 10.31 60.2534 10.6739 60.1614C11.1933 60.0529 11.7233 59.9993 12.2545 60.0017V59.8676C12.2545 59.7986 12.3596 59.7631 12.5699 59.7631C12.7801 59.7631 12.8913 59.7986 12.8913 59.8676ZM12.2566 60.7274V60.2482C12.0372 60.261 11.8191 60.2887 11.6037 60.331C11.446 60.3645 11.3672 60.4158 11.3672 60.4868C11.3672 60.5578 11.442 60.6012 11.5875 60.6367C11.8084 60.6802 12.0319 60.7105 12.2566 60.7274ZM12.8913 61.1001V61.6503C13.1536 61.6431 13.4145 61.6087 13.6695 61.5477C13.8534 61.4965 13.9443 61.4373 13.9443 61.3702C13.9443 61.3032 13.8554 61.2421 13.6775 61.2006C13.418 61.1504 13.1553 61.1168 12.8913 61.1001Z" fill="#F9DA1B"/>
<path d="M2.5542 60.2561C2.5542 61.9027 7.03947 63.2358 12.5738 63.2358C18.1081 63.2358 22.5934 61.9027 22.5934 60.2561V58.4971L2.5542 58.5937V60.2561Z" fill="#8D5800"/>
<path d="M22.65 58.6549C22.65 60.0471 18.1566 61.1751 12.6122 61.1751C7.06775 61.1751 2.57642 60.0471 2.57642 58.6549C2.57642 57.2626 7.06978 56.1346 12.6081 56.1346C18.1465 56.1346 22.65 57.2646 22.65 58.6549Z" fill="#AF6C00"/>
<path d="M22.3105 58.6548C22.3105 59.9997 17.9667 61.0902 12.6083 61.0902C7.24979 61.0902 2.90601 59.9997 2.90601 58.6548C2.90601 57.3099 7.24979 56.2174 12.6083 56.2174C17.9667 56.2174 22.3105 57.3099 22.3105 58.6548Z" fill="#F9B233"/>
<path d="M18.2822 59.6309C16.2043 59.8506 14.11 59.8817 12.0262 59.7236C9.94225 59.5521 8.16148 59.1971 7.05381 58.7199C5.94614 58.2427 5.43677 57.657 5.59039 57.0969C4.131 57.511 3.24365 58.0573 3.24365 58.6548C3.24365 59.9544 7.43786 61.0114 12.6084 61.0114C17.2897 61.0114 21.1686 60.1496 21.8659 59.0236C20.6893 59.3166 19.4911 59.5197 18.2822 59.6309Z" fill="#FECA33"/>
<path d="M20.4772 58.6744C20.4772 59.7728 16.9318 60.6622 12.5557 60.6622C8.17958 60.6622 4.63623 59.7728 4.63623 58.6744C4.63623 57.576 8.1816 56.6847 12.5557 56.6847C16.9298 56.6847 20.4772 57.576 20.4772 58.6744Z" fill="#AF6C00"/>
<path d="M19.7798 58.6745C19.7798 59.6762 16.5457 60.4867 12.5557 60.4867C8.56563 60.4867 5.33154 59.6762 5.33154 58.6745C5.33154 57.6727 8.56563 56.8602 12.5537 56.8602C16.5417 56.8602 19.7798 57.6727 19.7798 58.6745Z" fill="#F9B233"/>
<g style="mix-blend-mode:multiply">
<path d="M12.5557 56.8583C11.3519 56.8539 10.1495 56.935 8.95776 57.1009C10.0371 57.3829 10.8416 57.7418 11.1569 58.1263C11.7088 58.8007 11.6522 59.7848 9.82288 60.3547C10.7308 60.4457 11.643 60.4905 12.5557 60.4888C16.5498 60.4888 19.7839 59.6763 19.7839 58.6745C19.7839 57.6728 16.5498 56.8583 12.5557 56.8583Z" fill="#EDEDED"/>
</g>
<path d="M15.3026 58.7237C15.129 58.6317 14.9423 58.5653 14.7488 58.5265C14.4989 58.4718 14.2457 58.4329 13.9908 58.4102C13.7886 58.3905 13.5239 58.3688 13.2085 58.3451V58.0276C13.2711 58.0436 13.3292 58.0733 13.3783 58.1144C13.5137 58.2386 13.8473 58.3116 14.3202 58.3116C14.5446 58.3152 14.7686 58.292 14.9873 58.2426C15.1672 58.1972 15.2622 58.14 15.2622 58.0769C15.2622 58.0138 15.2116 57.9763 15.1106 57.9211C14.9857 57.8558 14.8534 57.8048 14.7164 57.7693C14.4608 57.6974 14.199 57.6485 13.9342 57.6234C13.732 57.5997 13.4794 57.5839 13.2085 57.5721V57.505C13.2085 57.3709 12.8811 57.3236 12.5718 57.3236C12.2626 57.3236 11.9391 57.3729 11.9391 57.509V57.5701C11.4385 57.5802 10.9401 57.639 10.4515 57.7456C10.027 57.8521 9.81072 57.9901 9.81072 58.1558C9.81072 58.282 9.92391 58.3865 10.1442 58.4713C10.4194 58.568 10.7049 58.6341 10.9952 58.6685C11.258 58.702 11.5733 58.7316 11.9391 58.7612V59.1556C11.8611 59.1421 11.7855 59.1176 11.7148 59.0826C11.6377 59.0386 11.5641 58.9892 11.4945 58.9347C11.3923 58.8702 11.2759 58.8303 11.1549 58.8184C10.9703 58.7904 10.7838 58.7772 10.597 58.7789C10.363 58.7751 10.1295 58.7996 9.90168 58.8519C9.72178 58.8992 9.62476 58.9545 9.62476 59.0156C9.62476 59.0767 9.67933 59.1457 9.78848 59.2128C9.94347 59.2967 10.1094 59.3597 10.2817 59.4001C10.5527 59.468 10.8283 59.5174 11.1064 59.548C11.355 59.5776 11.636 59.5993 11.9472 59.6151V59.8833C11.9472 59.9385 11.9877 59.9799 12.0726 60.0134C12.2399 60.0639 12.4151 60.0853 12.59 60.0765C12.7762 60.0939 12.9638 60.0654 13.1358 59.9937C13.161 59.9802 13.1819 59.9602 13.1962 59.9358C13.2105 59.9115 13.2175 59.8837 13.2166 59.8557V59.6131C13.5786 59.6007 13.9397 59.5684 14.298 59.5165C14.6083 59.48 14.9118 59.401 15.1995 59.2818C15.4016 59.1872 15.5047 59.0846 15.5047 58.9761C15.5047 58.8677 15.438 58.7967 15.3026 58.7237ZM11.6865 58.1321C11.6865 58.0651 11.7815 58.0434 11.8118 58.0375L11.9391 58.0138V58.2485C11.8866 58.2485 11.8401 58.2307 11.8037 58.2228C11.7673 58.215 11.6865 58.1854 11.6865 58.1223V58.1321ZM13.6269 59.0156C13.6269 59.0649 13.5643 59.1043 13.4248 59.1398C13.3513 59.1605 13.2763 59.1757 13.2004 59.1852V58.8637C13.3056 58.8775 13.3904 58.8914 13.4592 58.9071C13.5279 58.9229 13.6189 58.9407 13.6189 59.0057L13.6269 59.0156Z" fill="#AF6C00"/>
<path d="M12.8913 57.5032V57.6392C13.247 57.6491 13.5522 57.6668 13.8069 57.6945C14.0334 57.7164 14.2574 57.7587 14.476 57.8207C14.5959 57.851 14.7119 57.8947 14.8216 57.9508C14.9024 57.9955 14.9429 58.0369 14.9429 58.075C14.9429 58.1184 14.8822 58.1539 14.761 58.1855C14.6165 58.2179 14.4685 58.2331 14.3203 58.2308C13.9929 58.2308 13.7826 58.1855 13.6856 58.0967C13.5886 58.008 13.3117 57.9232 12.8913 57.8897V58.4103C13.2955 58.4399 13.6331 58.4655 13.8776 58.4892C14.0986 58.5092 14.318 58.5428 14.5346 58.5897C14.7013 58.6209 14.8622 58.6768 15.0116 58.7554C15.1228 58.8185 15.1794 58.8895 15.1794 58.9644C15.1794 59.0394 15.0884 59.1498 14.9105 59.2326C14.6591 59.3337 14.3945 59.4 14.1242 59.4298C13.7159 59.4881 13.3039 59.5197 12.8913 59.5245V59.838C12.8931 59.8592 12.8887 59.8804 12.8787 59.8992C12.8687 59.9181 12.8534 59.9338 12.8347 59.9445C12.7541 59.9743 12.6677 59.9858 12.582 59.978C12.4969 59.9825 12.4116 59.9739 12.3293 59.9524C12.2808 59.9327 12.2566 59.9051 12.2566 59.8656V59.5324C11.8685 59.5225 11.5269 59.4988 11.2358 59.4633C10.9897 59.4369 10.7459 59.3934 10.5061 59.3332C10.3554 59.2986 10.2105 59.2435 10.0756 59.1695C9.98057 59.1143 9.93408 59.0591 9.93408 59.0039C9.93408 58.9486 9.99674 58.927 10.1221 58.8954C10.2742 58.8589 10.4303 58.8411 10.587 58.8422C10.7142 58.8407 10.8413 58.85 10.967 58.8698C11.0432 58.8776 11.1166 58.9026 11.1812 58.9427C11.2548 59.0016 11.3332 59.0544 11.4157 59.1005C11.5118 59.1469 11.6137 59.1808 11.7189 59.2011C11.8955 59.2366 12.0745 59.2597 12.2545 59.2701V58.6785C11.8072 58.6469 11.4346 58.6127 11.1368 58.5759C10.8879 58.5489 10.643 58.494 10.4071 58.4123C10.2211 58.3432 10.1281 58.2525 10.1281 58.1421C10.1281 57.9981 10.31 57.8798 10.6739 57.7891C11.1932 57.6798 11.7232 57.6255 12.2545 57.6274V57.4953C12.2545 57.4243 12.3596 57.3888 12.5699 57.3888C12.7841 57.4006 12.8913 57.4361 12.8913 57.5032ZM12.2566 58.3649V57.8838C12.0373 57.8976 11.8192 57.9252 11.6037 57.9666C11.446 58.0001 11.3672 58.0534 11.3672 58.1224C11.3672 58.1914 11.442 58.2387 11.5875 58.2722C11.8083 58.3167 12.0318 58.3476 12.2566 58.3649ZM12.8913 58.7376V59.2859C13.1536 59.2792 13.4144 59.2455 13.6695 59.1853C13.8534 59.134 13.9443 59.0749 13.9443 59.0058C13.9443 58.9368 13.8554 58.8777 13.6775 58.8382C13.418 58.788 13.1553 58.7544 12.8913 58.7376Z" fill="#F9DA1B"/>
<path d="M2.5542 57.8916C2.5542 59.5382 7.03947 60.8713 12.5738 60.8713C18.1081 60.8713 22.5934 59.5382 22.5934 57.8916V56.1326L2.5542 56.2292V57.8916Z" fill="#8D5800"/>
<path d="M22.65 56.2904C22.65 57.6826 18.1566 58.8106 12.6122 58.8106C7.06775 58.8106 2.57642 57.6826 2.57642 56.2904C2.57642 54.8981 7.06978 53.7701 12.6081 53.7701C18.1465 53.7701 22.65 54.8981 22.65 56.2904Z" fill="#AF6C00"/>
<path d="M22.3105 56.2903C22.3105 57.6352 17.9667 58.7277 12.6083 58.7277C7.24979 58.7277 2.90601 57.6352 2.90601 56.2903C2.90601 54.9454 7.24979 53.8549 12.6083 53.8549C17.9667 53.8549 22.3105 54.9454 22.3105 56.2903Z" fill="#F9B233"/>
<path d="M18.2822 57.2645C16.2041 57.4825 14.1099 57.5129 12.0262 57.3552C9.94225 57.1836 8.16148 56.8287 7.05381 56.3515C5.94614 55.8742 5.43677 55.2885 5.59039 54.7305C4.131 55.1446 3.24365 55.6889 3.24365 56.2864C3.24365 57.5899 7.43786 58.6449 12.6084 58.6449C17.2897 58.6449 21.1686 57.7831 21.8659 56.6571C20.6891 56.9492 19.491 57.1523 18.2822 57.2645Z" fill="#FECA33"/>
<path d="M20.4772 56.3101C20.4772 57.4085 16.9318 58.2998 12.5557 58.2998C8.17958 58.2998 4.63623 57.4085 4.63623 56.3101C4.63623 55.2117 8.1816 54.3203 12.5557 54.3203C16.9298 54.3203 20.4772 55.2117 20.4772 56.3101Z" fill="#AF6C00"/>
<path d="M19.7798 56.31C19.7798 57.3118 16.5457 58.1242 12.5557 58.1242C8.56563 58.1242 5.33154 57.3118 5.33154 56.31C5.33154 55.3082 8.56563 54.4957 12.5537 54.4957C16.5417 54.4957 19.7798 55.3082 19.7798 56.31Z" fill="#F9B233"/>
<g style="mix-blend-mode:multiply">
<path d="M12.5557 54.5036C11.3519 54.4992 10.1495 54.5802 8.95776 54.7461C10.0371 55.0281 10.8416 55.387 11.1569 55.7716C11.7088 56.446 11.6522 57.432 9.82288 58C10.7308 58.091 11.643 58.1357 12.5557 58.134C16.5498 58.134 19.7839 57.3216 19.7839 56.3198C19.7839 55.318 16.5498 54.5036 12.5557 54.5036Z" fill="#EDEDED"/>
</g>
<path d="M15.3026 56.3594C15.1293 56.2667 14.9426 56.2002 14.7488 56.1622C14.499 56.1068 14.2458 56.0673 13.9908 56.0439C13.7886 56.0242 13.5239 56.0025 13.2085 55.9808V55.6673C13.2711 55.6832 13.3292 55.7129 13.3783 55.754C13.5137 55.8783 13.8473 55.9512 14.3202 55.9512C14.5446 55.9548 14.7686 55.9317 14.9873 55.8822C15.1672 55.8369 15.2622 55.7797 15.2622 55.7185C15.2622 55.6574 15.2116 55.616 15.1106 55.5608C14.9851 55.4971 14.853 55.4468 14.7164 55.4109C14.4609 55.3383 14.199 55.2888 13.9342 55.263C13.732 55.2413 13.4794 55.2236 13.2085 55.2117V55.1467C13.2085 55.0106 12.8811 54.9633 12.5718 54.9633C12.2626 54.9633 11.9391 55.0126 11.9391 55.1486V55.2117C11.4385 55.2204 10.9401 55.2785 10.4515 55.3853C10.027 55.4937 9.81072 55.6298 9.81072 55.7954C9.81072 55.9217 9.92391 56.0281 10.1442 56.111C10.4191 56.2086 10.7047 56.2748 10.9952 56.3082C11.258 56.3417 11.5733 56.3732 11.9391 56.4008V56.7953C11.8612 56.7802 11.7858 56.755 11.7148 56.7203C11.6373 56.677 11.5636 56.6276 11.4945 56.5724C11.3917 56.5096 11.2755 56.4704 11.1549 56.458C10.9705 56.4283 10.7838 56.4144 10.597 56.4166C10.363 56.4128 10.1295 56.4373 9.90168 56.4896C9.72178 56.5369 9.62476 56.5941 9.62476 56.6533C9.62476 56.7124 9.67933 56.7854 9.78848 56.8505C9.94347 56.9343 10.1094 56.9973 10.2817 57.0378C10.5527 57.1057 10.8283 57.1551 11.1064 57.1857C11.355 57.2153 11.636 57.239 11.9472 57.2528V57.5209C11.9472 57.5762 11.9877 57.6195 12.0726 57.6511C12.2399 57.7016 12.4151 57.723 12.59 57.7142C12.7762 57.7316 12.9638 57.7031 13.1358 57.6314C13.161 57.6179 13.1819 57.5979 13.1962 57.5735C13.2105 57.5491 13.2175 57.5214 13.2166 57.4933V57.2508C13.5787 57.2393 13.9398 57.2071 14.298 57.1542C14.608 57.1173 14.9114 57.039 15.1995 56.9215C15.4016 56.8268 15.5047 56.7243 15.5047 56.6158C15.5047 56.5073 15.438 56.4324 15.3026 56.3594ZM11.6865 55.758C11.6865 55.6909 11.7815 55.6692 11.8118 55.6633L11.9391 55.6397V55.8842C11.8936 55.8781 11.8483 55.8695 11.8037 55.8585C11.7754 55.8428 11.6865 55.8231 11.6865 55.758ZM13.6269 56.6434C13.6269 56.6907 13.5643 56.7302 13.4248 56.7676C13.3512 56.7876 13.2762 56.8021 13.2004 56.811V56.4916C13.3056 56.5034 13.3904 56.5192 13.4592 56.533C13.5279 56.5468 13.6189 56.5764 13.6189 56.6434H13.6269Z" fill="#AF6C00"/>
<path d="M12.8913 55.1405V55.2746C13.247 55.2746 13.5522 55.3022 13.8069 55.3298C14.0333 55.3528 14.2571 55.395 14.476 55.4561C14.5957 55.4879 14.7116 55.5322 14.8216 55.5882C14.9024 55.6342 14.9429 55.6756 14.9429 55.7124C14.9429 55.7538 14.8822 55.7893 14.761 55.8209C14.6165 55.8532 14.4685 55.8685 14.3203 55.8662C13.9929 55.8662 13.7826 55.8228 13.6856 55.7341C13.5886 55.6454 13.3117 55.5586 12.8913 55.5251V56.0457C13.2955 56.0753 13.6331 56.1009 13.8776 56.1246C14.0986 56.1446 14.318 56.1782 14.5346 56.2251C14.7008 56.2581 14.8614 56.3139 15.0116 56.3908C15.1228 56.4559 15.1794 56.5249 15.1794 56.6018C15.1794 56.6787 15.0884 56.7852 14.9105 56.87C14.6588 56.9701 14.3943 57.0365 14.1242 57.0672C13.7158 57.1247 13.3039 57.1556 12.8913 57.1599V57.4734C12.8928 57.4948 12.8883 57.5162 12.8783 57.5353C12.8684 57.5544 12.8533 57.5705 12.8347 57.5819C12.7538 57.6104 12.6677 57.6218 12.582 57.6154C12.4968 57.6193 12.4115 57.6099 12.3293 57.5878C12.2808 57.5681 12.2566 57.5405 12.2566 57.501V57.1638C11.8685 57.152 11.5269 57.1283 11.2358 57.0948C10.9896 57.0678 10.7458 57.0237 10.5061 56.9627C10.3559 56.9277 10.2111 56.8733 10.0756 56.801C9.98057 56.7438 9.93408 56.6886 9.93408 56.6333C9.93408 56.5781 9.99674 56.5564 10.1221 56.5249C10.2744 56.4899 10.4305 56.4733 10.587 56.4756C10.7141 56.4736 10.8413 56.4822 10.967 56.5012C11.0434 56.5095 11.1168 56.5352 11.1812 56.5762C11.2552 56.6338 11.3336 56.6859 11.4157 56.7319C11.5114 56.7793 11.6134 56.8132 11.7189 56.8325C11.8955 56.8681 12.0745 56.8912 12.2545 56.9015V56.3099C11.8078 56.2804 11.4359 56.2449 11.1368 56.2074C10.8882 56.1799 10.6434 56.1257 10.4071 56.0457C10.2211 55.9747 10.1281 55.884 10.1281 55.7735C10.1281 55.6296 10.31 55.5113 10.6739 55.4206C11.1932 55.3112 11.7232 55.257 12.2545 55.2589V55.1267C12.2545 55.0557 12.3596 55.0222 12.5699 55.0222C12.7801 55.0222 12.8913 55.0715 12.8913 55.1405ZM12.2566 56.0003V55.5192C12.0373 55.533 11.8192 55.5606 11.6037 55.602C11.446 55.6375 11.3672 55.6888 11.3672 55.7578C11.3672 55.8268 11.442 55.8741 11.5875 55.9076C11.8083 55.9521 12.0318 55.983 12.2566 56.0003ZM12.8913 56.373V56.9232C13.1536 56.9161 13.4145 56.8817 13.6695 56.8207C13.8534 56.7694 13.9443 56.7103 13.9443 56.6432C13.9443 56.5762 13.8554 56.513 13.6775 56.4736C13.418 56.4233 13.1553 56.3898 12.8913 56.373Z" fill="#F9DA1B"/>
<path d="M2.5542 55.5291C2.5542 57.1737 7.03947 58.5088 12.5738 58.5088C18.1081 58.5088 22.5934 57.1737 22.5934 55.5291V53.7681L2.5542 53.8647V55.5291Z" fill="#8D5800"/>
<path d="M22.65 53.928C22.65 55.3182 18.1566 56.4482 12.6122 56.4482C7.06775 56.4482 2.57642 55.3182 2.57642 53.928C2.57642 52.5377 7.06978 51.4058 12.6081 51.4058C18.1465 51.4058 22.65 52.5318 22.65 53.928Z" fill="#AF6C00"/>
<path d="M22.3105 53.9278C22.3105 55.2727 17.9667 56.3632 12.6083 56.3632C7.24979 56.3632 2.90601 55.2727 2.90601 53.9278C2.90601 52.5828 7.24979 51.4904 12.6083 51.4904C17.9667 51.4904 22.3105 52.5809 22.3105 53.9278Z" fill="#F9B233"/>
<path d="M18.2822 54.898C16.2041 55.116 14.1099 55.1464 12.0262 54.9888C9.94225 54.8172 8.16148 54.4642 7.05381 53.987C5.94614 53.5098 5.43677 52.9221 5.59039 52.364C4.131 52.7781 3.24365 53.3244 3.24365 53.9219C3.24365 55.2274 7.43786 56.2784 12.6084 56.2784C17.2897 56.2784 21.1686 55.4167 21.8659 54.2887C20.6892 54.5815 19.491 54.7852 18.2822 54.898Z" fill="#FECA33"/>
<path d="M20.4772 53.9456C20.4772 55.044 16.9318 55.9353 12.5557 55.9353C8.17958 55.9353 4.63623 55.044 4.63623 53.9456C4.63623 52.8472 8.1816 51.9558 12.5557 51.9558C16.9298 51.9558 20.4772 52.8472 20.4772 53.9456Z" fill="#AF6C00"/>
<path d="M19.7798 53.9456C19.7798 54.9474 16.5457 55.7598 12.5557 55.7598C8.56563 55.7598 5.33154 54.9474 5.33154 53.9456C5.33154 52.9438 8.56563 52.1313 12.5537 52.1313C16.5417 52.1313 19.7798 52.9438 19.7798 53.9456Z" fill="#F9B233"/>
<g style="mix-blend-mode:multiply">
<path d="M12.5557 52.1372C11.352 52.1332 10.1496 52.2136 8.95776 52.3778C10.0371 52.6598 10.8416 53.0207 11.1569 53.4052C11.7088 54.0777 11.6522 55.0637 9.82288 55.6316C10.7308 55.7233 11.6429 55.7687 12.5557 55.7677C16.5498 55.7677 19.7839 54.9533 19.7839 53.9515C19.7839 52.9497 16.5498 52.1372 12.5557 52.1372Z" fill="#EDEDED"/>
</g>
<path d="M15.3026 53.9949C15.1293 53.9021 14.9426 53.8356 14.7488 53.7977C14.499 53.7423 14.2458 53.7027 13.9908 53.6794C13.7886 53.6597 13.5239 53.6399 13.2085 53.6163V53.2988C13.271 53.3142 13.329 53.3432 13.3783 53.3836C13.5137 53.5078 13.8473 53.5808 14.3202 53.5808C14.5446 53.5844 14.7686 53.5612 14.9873 53.5117C15.1672 53.4664 15.2622 53.4092 15.2622 53.3461C15.2622 53.283 15.2116 53.2436 15.1106 53.1883C14.9851 53.1246 14.853 53.0744 14.7164 53.0385C14.4606 52.9668 14.1989 52.9173 13.9342 52.8906C13.732 52.8689 13.4794 52.8511 13.2085 52.8393V52.7742C13.2085 52.6401 12.8811 52.5908 12.5718 52.5908C12.2626 52.5908 11.9391 52.6401 11.9391 52.7762V52.8393C11.4385 52.8479 10.9401 52.9061 10.4515 53.0128C10.027 53.1213 9.81072 53.2593 9.81072 53.423C9.81072 53.5492 9.92391 53.6557 10.1442 53.7385C10.4188 53.8371 10.7045 53.9033 10.9952 53.9357C11.258 53.9693 11.5733 54.0008 11.9391 54.0284V54.4228C11.8616 54.4074 11.7863 54.3829 11.7148 54.3499C11.6382 54.3052 11.5646 54.2558 11.4945 54.202C11.3923 54.1374 11.2759 54.0975 11.1549 54.0856C10.9705 54.0566 10.7838 54.0434 10.597 54.0462C10.3631 54.0417 10.1296 54.0655 9.90168 54.1172C9.72178 54.1645 9.62476 54.2217 9.62476 54.2828C9.62476 54.3439 9.67933 54.413 9.78848 54.48C9.94294 54.5673 10.1089 54.6336 10.2817 54.6772C10.5527 54.7458 10.8282 54.7959 11.1064 54.8271C11.355 54.8567 11.636 54.8783 11.9472 54.8922V55.1623C11.9472 55.2156 11.9877 55.2589 12.0726 55.2905C12.2399 55.341 12.4151 55.3624 12.59 55.3536C12.7759 55.3698 12.9631 55.3421 13.1358 55.2727C13.161 55.2588 13.1819 55.2384 13.1961 55.2137C13.2104 55.189 13.2175 55.161 13.2166 55.1327V54.8922C13.5786 54.8787 13.9396 54.8465 14.298 54.7955C14.608 54.7572 14.9112 54.6782 15.1995 54.5609C15.4016 54.4662 15.5047 54.3637 15.5047 54.2552C15.5047 54.1467 15.438 54.0698 15.3026 53.9949ZM11.6865 53.4033C11.6865 53.3343 11.7815 53.3145 11.8118 53.3067L11.9391 53.283V53.5177L11.8037 53.492C11.7754 53.4782 11.6865 53.4585 11.6865 53.3954V53.4033ZM13.6269 54.2867C13.6269 54.3341 13.5643 54.3755 13.4248 54.411C13.3512 54.4309 13.2762 54.4454 13.2004 54.4544V54.1349C13.3056 54.1487 13.3904 54.1625 13.4592 54.1783C13.5279 54.1941 13.6189 54.2138 13.6189 54.2789L13.6269 54.2867Z" fill="#AF6C00"/>
<path d="M12.8913 52.7762V52.9123C13.247 52.9123 13.5522 52.9399 13.8069 52.9675C14.0332 52.9898 14.2571 53.0314 14.476 53.0917C14.5957 53.1235 14.7116 53.1678 14.8216 53.2238C14.9024 53.2698 14.9429 53.3113 14.9429 53.3481C14.9429 53.3895 14.8822 53.4269 14.761 53.4565C14.6165 53.4889 14.4685 53.5041 14.3203 53.5019C13.9929 53.5019 13.7826 53.4585 13.6856 53.3698C13.5886 53.281 13.3117 53.1962 12.8913 53.1607V53.6833C13.2955 53.7109 13.6331 53.7366 13.8776 53.7602C14.0987 53.7799 14.3182 53.8142 14.5346 53.8628C14.7009 53.8943 14.8616 53.9494 15.0116 54.0264C15.1228 54.0915 15.1794 54.1605 15.1794 54.2374C15.1794 54.3143 15.0884 54.4208 14.9105 54.5056C14.6588 54.6058 14.3943 54.6721 14.1242 54.7028C13.7159 54.7611 13.3039 54.7927 12.8913 54.7975V55.1091C12.8928 55.1305 12.8883 55.1518 12.8783 55.1709C12.8684 55.19 12.8533 55.2061 12.8347 55.2175C12.7538 55.246 12.6677 55.2575 12.582 55.2511C12.4968 55.2549 12.4115 55.2456 12.3293 55.2234C12.2808 55.2037 12.2566 55.1761 12.2566 55.1386V54.7995C11.8685 54.7995 11.5269 54.7659 11.2358 54.7304C10.9899 54.7031 10.7461 54.6596 10.5061 54.6003C10.3561 54.5638 10.2114 54.5088 10.0756 54.4366C9.98057 54.3794 9.93408 54.3242 9.93408 54.271C9.93408 54.2177 9.99674 54.1941 10.1221 54.1625C10.2748 54.1263 10.4318 54.1097 10.589 54.1132C10.7162 54.1113 10.8433 54.1198 10.969 54.1388C11.0454 54.1471 11.1188 54.1728 11.1832 54.2138C11.2573 54.272 11.3357 54.3247 11.4177 54.3715C11.5139 54.4173 11.6158 54.4505 11.7209 54.4701C11.8974 54.5067 12.0764 54.5298 12.2566 54.5392V53.9574C11.8092 53.9259 11.4366 53.891 11.1388 53.8529C10.89 53.8264 10.6452 53.7721 10.4091 53.6912C10.2231 53.6202 10.1301 53.5295 10.1301 53.4191C10.1301 53.2751 10.3121 53.1588 10.6759 53.0661C11.1952 52.9566 11.7253 52.903 12.2566 52.9063V52.7722C12.2566 52.7032 12.3617 52.6677 12.5719 52.6677C12.7821 52.6677 12.8913 52.7072 12.8913 52.7762ZM12.2566 53.636V53.1568C12.0371 53.1686 11.8189 53.1963 11.6037 53.2396C11.446 53.2731 11.3672 53.3244 11.3672 53.3954C11.3672 53.4664 11.442 53.5098 11.5875 53.5433C11.8082 53.5887 12.0317 53.6197 12.2566 53.636ZM12.8913 54.0087V54.5589C13.1536 54.5517 13.4145 54.5174 13.6695 54.4563C13.8534 54.4051 13.9443 54.3459 13.9443 54.2788C13.9443 54.2118 13.8554 54.1487 13.6775 54.1093C13.418 54.059 13.1553 54.0254 12.8913 54.0087Z" fill="#F9DA1B"/>
<path d="M2.5542 53.1647C2.5542 54.8113 7.03947 56.1444 12.5738 56.1444C18.1081 56.1444 22.5934 54.8113 22.5934 53.1647V51.4037L2.5542 51.5003V53.1647Z" fill="#8D5800"/>
<path d="M22.65 51.5636C22.65 52.9558 18.1566 54.0838 12.6122 54.0838C7.06775 54.0838 2.57642 52.9558 2.57642 51.5636C2.57642 50.1713 7.06978 49.0433 12.6081 49.0433C18.1465 49.0433 22.65 50.1654 22.65 51.5636Z" fill="#AF6C00"/>
<path d="M22.3105 51.5635C22.3105 52.9084 17.9667 53.9989 12.6083 53.9989C7.24979 53.9989 2.90601 52.9084 2.90601 51.5635C2.90601 50.2186 7.24979 49.1261 12.6083 49.1261C17.9667 49.1261 22.3105 50.2166 22.3105 51.5635Z" fill="#F9B233"/>
<path d="M18.2822 52.5317C16.2041 52.7497 14.1099 52.7801 12.0262 52.6224C9.94225 52.4528 8.16148 52.0979 7.05381 51.6206C5.94614 51.1434 5.43677 50.5577 5.59039 49.9977C4.131 50.4118 3.24365 50.958 3.24365 51.5556C3.24365 52.863 7.43786 53.9121 12.6084 53.9121C17.2897 53.9121 21.1686 53.0503 21.8659 51.9243C20.6891 52.2164 19.491 52.4195 18.2822 52.5317Z" fill="#FECA33"/>
<path d="M20.4772 51.5812C20.4772 52.6815 16.9318 53.5709 12.5557 53.5709C8.17958 53.5709 4.63623 52.6815 4.63623 51.5812C4.63623 50.4808 8.1816 49.5934 12.5557 49.5934C16.9298 49.5934 20.4772 50.4828 20.4772 51.5812Z" fill="#AF6C00"/>
<path d="M19.7798 51.5813C19.7798 52.5831 16.5457 53.3955 12.5557 53.3955C8.56563 53.3955 5.33154 52.5831 5.33154 51.5813C5.33154 50.5795 8.56563 49.771 12.5557 49.771C16.5457 49.771 19.7798 50.5795 19.7798 51.5813Z" fill="#F9B233"/>
<g style="mix-blend-mode:multiply">
<path d="M12.5557 49.7709C11.352 49.7669 10.1496 49.8473 8.95776 50.0115C10.0371 50.2954 10.8416 50.6544 11.1569 51.0389C11.7088 51.7133 11.6522 52.6974 9.82288 53.2673C10.7309 53.3573 11.643 53.402 12.5557 53.4014C16.5498 53.4014 19.7839 52.5889 19.7839 51.5851C19.7839 50.5814 16.5498 49.7709 12.5557 49.7709Z" fill="#EDEDED"/>
</g>
<path d="M15.3026 51.6306C15.1285 51.5395 14.942 51.4731 14.7488 51.4334C14.4991 51.3777 14.2459 51.3388 13.9908 51.317C13.7886 51.2973 13.5239 51.2756 13.2085 51.252V50.9345C13.2714 50.9497 13.3297 50.9795 13.3783 51.0212C13.5137 51.1435 13.8473 51.2184 14.3202 51.2184C14.5446 51.222 14.7686 51.1989 14.9873 51.1494C15.1672 51.1041 15.2622 51.0469 15.2622 50.9838C15.2622 50.9207 15.2116 50.8832 15.1106 50.828C14.9857 50.7627 14.8534 50.7117 14.7164 50.6761C14.4608 50.6042 14.199 50.5554 13.9342 50.5302C13.732 50.5066 13.4794 50.4888 13.2085 50.4789V50.4119C13.2085 50.2778 12.8811 50.2305 12.5718 50.2305C12.2626 50.2305 11.9391 50.2778 11.9391 50.4139V50.477C11.4384 50.4861 10.94 50.5449 10.4515 50.6525C10.027 50.759 9.81072 50.897 9.81072 51.0627C9.81072 51.1889 9.92391 51.2934 10.1442 51.3782C10.4191 51.4757 10.7047 51.5419 10.9952 51.5754C11.258 51.6089 11.5733 51.6405 11.9391 51.6681V52.0625C11.8614 52.0479 11.7859 52.0234 11.7148 51.9895C11.6377 51.9455 11.5641 51.8961 11.4945 51.8416C11.3923 51.7771 11.2759 51.7372 11.1549 51.7253C10.9703 51.6972 10.7838 51.684 10.597 51.6858C10.363 51.6809 10.1293 51.7055 9.90168 51.7588C9.72178 51.8041 9.62476 51.8613 9.62476 51.9225C9.62476 51.9836 9.67933 52.0526 9.78848 52.1197C9.94347 52.2035 10.1094 52.2665 10.2817 52.307C10.5527 52.3749 10.8283 52.4243 11.1064 52.4549C11.355 52.4845 11.636 52.5062 11.9472 52.52V52.7901C11.9472 52.8453 11.9877 52.8868 12.0726 52.9203C12.2399 52.9708 12.4151 52.9922 12.59 52.9834C12.7761 52.9996 12.9635 52.9712 13.1358 52.9006C13.161 52.8866 13.1819 52.8662 13.1961 52.8415C13.2104 52.8168 13.2175 52.7889 13.2166 52.7606V52.52C13.5786 52.5075 13.9397 52.4753 14.298 52.4233C14.6083 52.3869 14.9118 52.3079 15.1995 52.1887C15.4016 52.094 15.5047 51.9915 15.5047 51.883C15.5047 51.7745 15.438 51.7055 15.3026 51.6306ZM11.6865 51.039C11.6865 50.97 11.7815 50.9503 11.8118 50.9443C11.8421 50.9384 11.8927 50.9286 11.9391 50.9207V51.1514C11.8866 51.1514 11.8401 51.1336 11.8037 51.1258C11.7673 51.1179 11.6865 51.0942 11.6865 51.0311V51.039ZM13.6269 51.9225C13.6269 51.9698 13.5643 52.0112 13.4248 52.0467C13.3513 52.0674 13.2763 52.0826 13.2004 52.092V51.7627C13.3056 51.7765 13.3904 51.7903 13.4592 51.8061C13.5279 51.8219 13.6189 51.8495 13.6189 51.9146L13.6269 51.9225Z" fill="#AF6C00"/>
<path d="M12.8913 50.4118V50.5478C13.247 50.5577 13.5522 50.5754 13.8069 50.603C14.0332 50.6254 14.2571 50.6669 14.476 50.7273C14.5957 50.7591 14.7116 50.8034 14.8216 50.8594C14.9024 50.9054 14.9429 50.9468 14.9429 50.9836C14.9429 51.027 14.8822 51.0625 14.761 51.0921C14.6167 51.1255 14.4686 51.1407 14.3203 51.1375C13.9929 51.1375 13.7826 51.0941 13.6856 51.0053C13.5886 50.9166 13.3117 50.8318 12.8913 50.7983V51.3189C13.2955 51.3485 13.6331 51.3741 13.8776 51.3978C14.0987 51.4168 14.3182 51.4504 14.5346 51.4983C14.7013 51.5295 14.8622 51.5853 15.0116 51.664C15.1228 51.7271 15.1794 51.7981 15.1794 51.873C15.1794 51.9479 15.0884 52.0584 14.9105 52.1412C14.6591 52.2423 14.3945 52.3086 14.1242 52.3384C13.7159 52.3967 13.3039 52.4283 12.8913 52.4331V52.7446C12.893 52.766 12.8886 52.7875 12.8786 52.8067C12.8687 52.8258 12.8534 52.8419 12.8347 52.8531C12.7541 52.8829 12.6677 52.8943 12.582 52.8866C12.4968 52.8916 12.4113 52.8823 12.3293 52.859C12.3095 52.8544 12.2917 52.8436 12.2786 52.8284C12.2655 52.8131 12.2577 52.7941 12.2566 52.7742V52.435C11.8685 52.4252 11.5269 52.4015 11.2358 52.366C10.9899 52.3386 10.7461 52.2952 10.5061 52.2359C10.3557 52.2004 10.2109 52.1453 10.0756 52.0722C9.98057 52.017 9.93408 51.9598 9.93408 51.9065C9.93408 51.8533 9.99674 51.8296 10.1221 51.7981C10.275 51.7628 10.4319 51.7462 10.589 51.7488C10.7162 51.7474 10.8434 51.7566 10.969 51.7764C11.0452 51.7842 11.1186 51.8092 11.1832 51.8494C11.2568 51.9082 11.3352 51.961 11.4177 52.0071C11.5141 52.0528 11.616 52.0865 11.7209 52.1077C11.8975 52.1433 12.0765 52.1663 12.2566 52.1767V51.5851C11.8099 51.5536 11.4379 51.52 11.1388 51.4806C10.8898 51.455 10.6449 51.4008 10.4091 51.3189C10.2231 51.2499 10.1301 51.1591 10.1301 51.0487C10.1301 50.9041 10.3121 50.7858 10.6759 50.6938C11.1955 50.5862 11.7254 50.5327 12.2566 50.534V50.3999C12.2566 50.3309 12.3617 50.2954 12.5719 50.2954C12.7821 50.2954 12.8913 50.3447 12.8913 50.4118ZM12.2566 51.2735V50.7924C12.0373 50.8062 11.8192 50.8338 11.6037 50.8752C11.446 50.9087 11.3672 50.9619 11.3672 51.031C11.3672 51.1 11.442 51.1473 11.5875 51.1808C11.8083 51.2253 12.0318 51.2562 12.2566 51.2735ZM12.8913 51.6443V52.1945C13.1537 52.1883 13.4147 52.1539 13.6695 52.0919C13.8534 52.0426 13.9443 51.9834 13.9443 51.9144C13.9443 51.8454 13.8554 51.7862 13.6775 51.7468C13.4181 51.6957 13.1554 51.6614 12.8913 51.6443Z" fill="#F9DA1B"/>
<path d="M2.5542 50.8003C2.5542 52.4469 7.03947 53.78 12.5738 53.78C18.1081 53.78 22.5934 52.4469 22.5934 50.8003V49.0413L2.5542 49.1379V50.8003Z" fill="#8D5800"/>
<path d="M22.65 49.1991C22.65 50.5913 18.1566 51.7193 12.6122 51.7193C7.06775 51.7193 2.57642 50.5913 2.57642 49.1991C2.57642 47.8068 7.06978 46.6788 12.6081 46.6788C18.1465 46.6788 22.65 47.7989 22.65 49.1991Z" fill="#AF6C00"/>
<path d="M22.3105 49.199C22.3105 50.5439 17.9667 51.6364 12.6083 51.6364C7.24979 51.6364 2.90601 50.5439 2.90601 49.199C2.90601 47.8541 7.24979 46.7635 12.6083 46.7635C17.9667 46.7635 22.3105 47.8541 22.3105 49.199Z" fill="#F9B233"/>
<path d="M18.2822 50.1753C16.2043 50.395 14.11 50.426 12.0262 50.2679C9.94225 50.0964 8.16148 49.7414 7.05381 49.2642C5.94614 48.787 5.43677 48.2013 5.59039 47.6412C4.131 48.0573 3.24365 48.6016 3.24365 49.1991C3.24365 50.4987 7.43786 51.5458 12.6084 51.5458C17.2897 51.5458 21.1686 50.684 21.8659 49.558C20.6896 49.8544 19.4914 50.0607 18.2822 50.1753Z" fill="#FECA33"/>
<path d="M20.4772 49.2188C20.4772 50.3172 16.9318 51.2065 12.5557 51.2065C8.17958 51.2065 4.63623 50.3172 4.63623 49.2188C4.63623 48.1204 8.1816 47.229 12.5557 47.229C16.9298 47.229 20.4772 48.1204 20.4772 49.2188Z" fill="#AF6C00"/>
<path d="M19.7798 49.2187C19.7798 50.2204 16.5457 51.0329 12.5557 51.0329C8.56563 51.0329 5.33154 50.2204 5.33154 49.2187C5.33154 48.2169 8.56563 47.4044 12.5537 47.4044C16.5417 47.4044 19.7798 48.2169 19.7798 49.2187Z" fill="#F9B233"/>
<g style="mix-blend-mode:multiply">
<path d="M12.5557 47.4045C11.3519 47.4 10.1495 47.4811 8.95776 47.647C10.0371 47.929 10.8416 48.2879 11.1569 48.6725C11.7088 49.3469 11.6522 50.3309 9.82288 50.9008C10.7308 50.9918 11.643 51.0366 12.5557 51.0349C16.5498 51.0349 19.7839 50.2225 19.7839 49.2207C19.7839 48.2189 16.5498 47.4045 12.5557 47.4045Z" fill="#EDEDED"/>
</g>
<path d="M15.3026 49.268C15.129 49.176 14.9423 49.1096 14.7488 49.0708C14.4988 49.0171 14.2456 48.9782 13.9908 48.9545C13.7886 48.9348 13.5239 48.9131 13.2085 48.8914V48.5719C13.2711 48.5879 13.3292 48.6176 13.3783 48.6587C13.5137 48.7829 13.8473 48.8559 14.3202 48.8559C14.5446 48.8595 14.7686 48.8363 14.9873 48.7869C15.1672 48.7415 15.2622 48.6843 15.2622 48.6232C15.2622 48.5621 15.2116 48.5207 15.1106 48.4654C14.9859 48.4 14.8536 48.3497 14.7164 48.3156C14.4611 48.242 14.1992 48.1925 13.9342 48.1677C13.732 48.146 13.4794 48.1282 13.2085 48.1164V48.0493C13.2085 47.9152 12.8811 47.8679 12.5718 47.8679C12.2626 47.8679 11.9391 47.9172 11.9391 48.0533V48.1144C11.4385 48.1245 10.9401 48.1833 10.4515 48.2899C10.027 48.3964 9.81072 48.5345 9.81072 48.7001C9.81072 48.8263 9.92391 48.9308 10.1442 49.0156C10.4194 49.1123 10.7049 49.1785 10.9952 49.2128C11.258 49.2464 11.5733 49.2759 11.9391 49.3055V49.6999C11.8612 49.6849 11.7858 49.6597 11.7148 49.625C11.6377 49.581 11.5641 49.5316 11.4945 49.4771C11.3919 49.4134 11.2757 49.3736 11.1549 49.3607C10.9703 49.3327 10.7838 49.3195 10.597 49.3213C10.363 49.3175 10.1295 49.342 9.90168 49.3942C9.72178 49.4416 9.62476 49.4968 9.62476 49.5579C9.62476 49.6191 9.67933 49.6881 9.78848 49.7551C9.94347 49.839 10.1094 49.902 10.2817 49.9425C10.5527 50.0103 10.8283 50.0597 11.1064 50.0904C11.355 50.1199 11.636 50.1416 11.9472 50.1574V50.4256C11.9472 50.4808 11.9877 50.5242 12.0726 50.5558C12.2399 50.6063 12.4151 50.6276 12.59 50.6189C12.7762 50.6362 12.9638 50.6078 13.1358 50.536C13.161 50.5226 13.1819 50.5025 13.1962 50.4782C13.2105 50.4538 13.2175 50.426 13.2166 50.398V50.1456C13.5786 50.1331 13.9397 50.1009 14.298 50.049C14.608 50.0121 14.9114 49.9338 15.1995 49.8163C15.4016 49.7216 15.5047 49.6191 15.5047 49.5086C15.5047 49.3982 15.438 49.341 15.3026 49.268ZM11.6865 48.6666C11.6865 48.5995 11.7815 48.5778 11.8118 48.5719L11.9391 48.5483V48.7849C11.8936 48.7788 11.8483 48.7702 11.8037 48.7593C11.7754 48.7514 11.6865 48.7317 11.6865 48.6666ZM13.6269 49.552C13.6269 49.5993 13.5643 49.6388 13.4248 49.6762C13.351 49.6953 13.2761 49.7097 13.2004 49.7196V49.4002C13.2874 49.4092 13.3738 49.423 13.4592 49.4416C13.536 49.4574 13.6189 49.485 13.6189 49.552H13.6269Z" fill="#AF6C00"/>
<path d="M12.8913 48.0494V48.1933C13.247 48.2032 13.5522 48.2209 13.8069 48.2485C14.0334 48.2705 14.2574 48.3127 14.476 48.3747C14.596 48.4057 14.712 48.45 14.8216 48.5069C14.9024 48.5502 14.9429 48.5936 14.9429 48.6311C14.9429 48.6686 14.8822 48.708 14.761 48.7396C14.6165 48.7719 14.4685 48.7872 14.3203 48.7849C13.9929 48.7849 13.7826 48.7396 13.6856 48.6508C13.5886 48.5621 13.3117 48.4773 12.8913 48.4536V48.9742C13.2955 49.0038 13.6331 49.0294 13.8776 49.0531C14.0986 49.0732 14.318 49.1067 14.5346 49.1537C14.7013 49.1848 14.8622 49.2407 15.0116 49.3193C15.1228 49.3824 15.1794 49.4534 15.1794 49.5284C15.1794 49.6033 15.0884 49.7137 14.9105 49.7965C14.6591 49.8977 14.3945 49.9641 14.1242 49.9937C13.7157 50.0503 13.3039 50.0812 12.8913 50.0864V50.4C12.8931 50.4211 12.8887 50.4424 12.8787 50.4612C12.8687 50.48 12.8534 50.4957 12.8347 50.5065C12.7541 50.5363 12.6677 50.5477 12.582 50.54C12.4969 50.5445 12.4116 50.5358 12.3293 50.5144C12.2808 50.4946 12.2566 50.467 12.2566 50.4276V50.0904C11.8685 50.0785 11.5269 50.0549 11.2358 50.0214C10.9896 49.9944 10.7458 49.9503 10.5061 49.8892C10.3554 49.8546 10.2105 49.7995 10.0756 49.7256C9.98057 49.6703 9.93408 49.6151 9.93408 49.5599C9.93408 49.5047 9.99674 49.483 10.1221 49.4514C10.2751 49.4169 10.4319 49.401 10.589 49.4041C10.7162 49.4022 10.8433 49.4108 10.969 49.4298C11.0452 49.4376 11.1186 49.4625 11.1832 49.5027C11.2568 49.5616 11.3352 49.6143 11.4177 49.6605C11.5134 49.7079 11.6155 49.7417 11.7209 49.7611C11.8975 49.7966 12.0765 49.8197 12.2566 49.8301V49.2385C11.8099 49.2089 11.4379 49.1734 11.1388 49.1359C10.8899 49.1089 10.6451 49.054 10.4091 48.9723C10.2231 48.9032 10.1301 48.8125 10.1301 48.7021C10.1301 48.5581 10.3121 48.4398 10.6759 48.3491C11.1953 48.2398 11.7252 48.1855 12.2566 48.1874V48.0553C12.2566 47.9843 12.3617 47.9488 12.5719 47.9488C12.7841 47.9448 12.8913 47.9803 12.8913 48.0494ZM12.2566 48.9091V48.428C12.0373 48.4418 11.8192 48.4695 11.6037 48.5108C11.446 48.5463 11.3672 48.5976 11.3672 48.6666C11.3672 48.7356 11.442 48.7829 11.5875 48.8165C11.8083 48.8609 12.0318 48.8918 12.2566 48.9091ZM12.8913 49.2819V49.8301C13.1536 49.8244 13.4146 49.7907 13.6695 49.7295C13.8534 49.6782 13.9443 49.6191 13.9443 49.552C13.9443 49.485 13.8554 49.4219 13.6775 49.3824C13.418 49.3322 13.1553 49.2986 12.8913 49.2819Z" fill="#F9DA1B"/>
</svg>
