<svg width="80" height="87" viewBox="0 0 80 87" fill="none" xmlns="http://www.w3.org/2000/svg">
<path opacity="0.38" d="M38.7132 0.398532C60.899 1.59141 61.8524 25.4534 59.4689 34.7504C57.0853 44.0473 75.2113 46.2002 77.3598 61.4682C79.5084 76.7362 65.431 83.1751 55.4091 83.419C45.3871 83.6629 37.5159 77.694 35.8463 70.2973C34.1767 62.9006 29.4163 59.3241 21.0572 57.894C12.6982 56.4639 -2.32142 45.2557 0.303802 30.6995C0.303802 30.6995 0.91798 15.2164 15.452 4.93502C25.2279 -1.99166 38.7132 0.398532 38.7132 0.398532Z" fill="#E2E7FF"/>
<path d="M24.3633 36.9499C24.3633 36.9499 23.758 29.2427 26.0263 24.1053C26.9331 22.8969 27.5362 23.3493 27.5362 23.3493C27.5362 23.3493 27.84 26.5244 27.0928 29.5576C26.3456 32.5908 25.8844 38.4731 25.8844 38.4731L24.3633 36.9499Z" fill="#61A27D"/>
<path d="M23.911 36.3468C23.911 36.3468 23.758 32.7194 19.982 29.5465C16.2061 26.3736 15.4478 26.3714 15.4478 26.3714C15.4478 26.3714 18.4699 26.2206 20.5851 27.582C22.7004 28.9434 23.4565 32.7194 23.6072 33.3247C23.758 33.93 24.6649 36.3468 24.6649 36.3468H23.911Z" fill="#578B71"/>
<path d="M26.361 36.9011C26.361 36.9011 27.0683 33.3535 31.2899 30.7881C35.5116 28.2228 36.2588 28.3491 36.2588 28.3491C36.2588 28.3491 33.2965 27.7327 30.9972 28.7505C28.698 29.7682 27.3676 33.3867 27.1259 33.961C26.8843 34.5353 25.6138 36.7836 25.6138 36.7836L26.361 36.9011Z" fill="#578B71"/>
<path d="M24.6646 36.3467C24.6646 36.3467 20.7357 23.3492 17.2612 20.3271C17.412 19.8837 21.4917 21.234 22.7001 24.5576C23.9085 27.8813 24.2123 32.8701 24.6646 34.2315C24.9639 35.1083 25.3171 35.9658 25.7222 36.7991" fill="#7CC97D"/>
<path d="M24.3633 36.9498C24.3633 36.9498 25.8754 29.8546 29.8044 27.429C30.106 28.3358 25.7225 35.7414 26.177 39.0673C26.6315 42.3932 24.3633 36.9498 24.3633 36.9498Z" fill="#7CC97D"/>
<path d="M22.2057 44.9653H28.0171C28.3741 42.5418 28.6823 40.3623 28.7311 39.5286C28.7952 38.2294 28.537 36.9345 27.9794 35.7593H22.2434C21.6859 36.9345 21.4276 38.2294 21.4918 39.5286C21.5472 40.3534 21.8487 42.5263 22.2057 44.9653Z" fill="#A9A7E7"/>
<path d="M75.1271 30.4844H64.4688V44.9054H75.1271V30.4844Z" fill="#24ADB2"/>
<path d="M74.0294 30.4844H63.3711V44.9054H74.0294V30.4844Z" fill="#26C6DA"/>
<path d="M71.3644 29.021H60.7061V44.9031H71.3644V29.021Z" fill="#E1543C"/>
<path d="M70.2669 29.021H58.041V44.9031H70.2669V29.021Z" fill="#FF634D"/>
<path d="M70.2691 29.021H68.1782V44.9031H70.2691V29.021Z" fill="#EB594D"/>
<path d="M9.24153 32.9921C9.24153 32.9921 7.56972 33.8302 6.83803 36.2315C6.10634 38.6327 10.0774 45.1138 10.0774 44.8011C10.0774 44.4885 14.0485 42.7103 14.0485 42.7103L12.053 35.3933L9.24153 32.9921Z" fill="#202F7C"/>
<path d="M51.0032 45.6748L48.7949 39.8412H43.2761L45.4845 45.6748" fill="#4F57A0"/>
<path d="M30.9773 40.9964H62.358L62.9057 38.0541H31.525" fill="#E2E7FF"/>
<path d="M34.3031 23.1586L31.5249 38.0541H62.9056L65.6195 23.5023C65.6438 23.3669 65.6381 23.2278 65.6029 23.0948C65.5677 22.9618 65.5038 22.8381 65.4157 22.7325C65.3276 22.6268 65.2174 22.5417 65.0929 22.4832C64.9683 22.4247 64.8325 22.3941 64.6949 22.3937H35.2277C35.0086 22.3935 34.7963 22.4698 34.6275 22.6094C34.4587 22.7491 34.3439 22.9434 34.3031 23.1586Z" fill="#243FA7"/>
<path d="M49.7595 43.5705L58.0675 37.38L49.9169 36.9099L42.2363 42.8654L49.7595 43.5705Z" fill="white"/>
<path d="M47.4358 41.5595L49.5244 40.411C49.5244 40.411 51.5421 39.5751 51.602 39.5751C51.6618 39.5751 51.837 39.7702 51.6219 40.1826C51.4069 40.595 50.837 40.6903 50.837 40.6903L50.4645 41.7302L52.398 41.4553L52.8414 41.3511C52.7134 41.682 52.5653 42.0049 52.398 42.3178C52.1315 42.5616 51.8427 42.7799 51.5354 42.9697C51.5354 42.9697 50.1519 44.1204 49.6552 44.2512C49.1586 44.3821 47.438 44.4597 47.438 44.4597L46.3294 44.4331L45.3094 44.6415C44.9678 43.9168 44.8152 43.1174 44.866 42.3178L47.4358 41.5595Z" fill="#FF8D68"/>
<path d="M59.8169 46.3665L65.8789 85.8646H67.3422L63.3711 46.1581L59.8169 46.3665Z" fill="#E2E7FF"/>
<path d="M72.1494 46.3665L78.2092 85.8646H79.6725L75.7014 46.1581L72.1494 46.3665Z" fill="#E2E7FF"/>
<path d="M36.62 46.3665L30.5603 85.8646H29.0969L33.068 46.1581L36.62 46.3665Z" fill="#C2D3EB"/>
<path d="M24.29 46.3665L18.228 85.8646H16.7668L20.7357 46.1581L24.29 46.3665Z" fill="#C2D3EB"/>
<path d="M76.5373 45.9497H21.9907V47.8299H76.5373V45.9497Z" fill="#A9A7E7"/>
<path d="M77.5815 46.7834H23.6625C23.3855 46.7834 23.1199 46.6733 22.924 46.4775C22.7282 46.2816 22.6182 46.016 22.6182 45.739C22.6182 45.4621 22.7282 45.1964 22.924 45.0006C23.1199 44.8047 23.3855 44.6947 23.6625 44.6947H77.5815C77.8585 44.6947 78.1241 44.8047 78.32 45.0006C78.5158 45.1964 78.6259 45.4621 78.6259 45.739C78.6259 46.016 78.5158 46.2816 78.32 46.4775C78.1241 46.6733 77.8585 46.7834 77.5815 46.7834Z" fill="#FFC757"/>
<path d="M25.4698 81.8957C25.4698 81.8957 25.8112 81.0553 27.2436 81.2039C28.6759 81.3524 28.8555 81.6185 29.0528 82.3236C29.2502 83.0287 29.7823 83.767 30.1193 83.9156C30.4564 84.0641 31.698 84.8247 32.6913 84.9422C33.6847 85.0597 33.8221 85.6539 33.6182 85.9377C33.4142 86.2215 29.7025 86.6228 28.8777 86.5541C28.8777 86.5541 26.0839 86.6339 25.4166 86.4477C24.7492 86.2614 25.4276 82.1706 25.4698 81.8957Z" fill="#201360"/>
<path d="M25.8488 75.8781L25.4187 82.4367C26.0583 82.6476 26.6657 82.9461 27.2235 83.3236C28.3721 84.1639 29.3122 83.1462 29.3122 83.1462L29.5716 79.0243L25.8488 75.8781Z" fill="#FF8D68"/>
<path d="M34.1635 64.3394L29.933 82.5209C29.933 82.5209 27.7379 82.8357 25.0728 81.5808C25.0728 81.5808 27.4253 64.4969 27.5805 63.3993C27.7357 62.3018 33.8508 63.3993 34.1635 64.3394Z" fill="#202F7C"/>
<path d="M17.0085 17.2984C17.0085 17.2984 18.7468 17.6221 19.8909 20.1809C21.035 22.7396 20.7579 28.3581 20.157 29.0498C19.5561 29.7416 17.5783 29.6285 14.8001 28.9102C11.8667 28.1541 10.6982 25.234 10.0552 23.2983C8.8202 19.5999 11.8401 15.5025 17.0085 17.2984Z" fill="#FF8D68"/>
<path d="M12.186 32.276L13.186 27.4889C13.186 27.4889 15.758 26.5488 17.5119 28.1896L18.1105 28.9168L18.3123 31.9766C16.3037 32.4359 14.2298 32.5373 12.186 32.276Z" fill="#FF8D68"/>
<path d="M12.1306 61.712C16.123 62.763 20.2451 63.2386 24.372 63.1244C31.0238 62.9027 31.8929 61.0158 32.0991 59.2198C32.3053 57.4238 27.1391 56.3374 24.8931 55.7432C22.647 55.1489 14.962 52.9472 12.8822 55.1844C10.8025 57.4216 10.3213 60.1799 12.1306 61.712Z" fill="#201360"/>
<path d="M40.9859 81.8957C40.9859 81.8957 41.3296 81.0553 42.7597 81.2039C44.1898 81.3524 44.3694 81.6185 44.569 82.3236C44.7685 83.0287 45.2984 83.767 45.6332 83.9156C45.968 84.0641 47.2141 84.8247 48.2052 84.9422C49.1964 85.0597 49.3383 85.6539 49.132 85.9377C48.9258 86.2215 45.2186 86.6228 44.3916 86.5541C44.3916 86.5541 41.6001 86.6339 40.9327 86.4477C40.2653 86.2614 40.9438 82.1706 40.9859 81.8957Z" fill="#201360"/>
<path d="M39.3362 76.3571L40.9038 82.7294C40.9038 82.7294 42.1587 82.4168 42.8993 83.0443C43.6399 83.6718 44.9879 83.2527 44.9879 83.2527L43.8394 78.2373L39.3362 76.3571Z" fill="#FF8D68"/>
<path d="M26.3786 55.0404C26.6935 55.0404 37.3518 58.588 39.4404 60.16C41.5313 61.8318 44.8749 80.4567 45.0833 80.8758C45.2918 81.2948 42.0524 82.4434 39.9637 82.1285C39.8595 81.7117 34.9483 66.0113 34.9483 64.967C34.9483 64.967 26.5893 64.548 23.035 63.9205C19.4808 63.293 17.0795 63.191 15.6161 59.3241C14.1527 55.4572 22.7113 55.1446 22.7113 55.1446L26.3786 55.0404Z" fill="#202F7C"/>
<path d="M44.6133 41.298C44.6133 41.298 46.6509 41.247 46.8084 41.4554C46.9658 41.6638 47.6953 43.5441 47.0168 44.3378L46.4425 44.7436H44.6687L44.6133 41.298Z" fill="#E2E7FF"/>
<path d="M11.8291 31.5797L12.3768 30.1695C12.3768 30.1695 15.6694 29.1518 18.4897 30.4045C18.9663 30.9306 19.3387 31.5423 19.5873 32.2072L11.8291 31.5797Z" fill="#E2E7FF"/>
<path d="M11.1238 31.737C11.1238 31.737 11.5407 31.0053 12.2724 30.9011C13.0041 30.7969 16.3477 30.3779 18.5427 31.0053C19.0044 31.1645 19.4301 31.4132 19.7955 31.737C19.7955 31.737 22.9307 32.7814 23.975 33.4088C25.0193 34.0363 25.3342 38.8433 25.5426 40.4109C25.751 41.9785 25.1258 43.6503 25.1258 43.6503C25.1258 43.6503 27.6335 53.8896 27.6335 55.353C27.6335 56.8163 26.7976 58.4881 23.8641 59.5325C20.9307 60.5768 12.9996 60.1599 10.2813 58.4881C9.44538 56.8163 8.19041 36.9609 7.98199 35.0806C7.77357 33.2004 11.1238 31.737 11.1238 31.737Z" fill="#202F7C"/>
<path d="M22.2523 32.9921C22.2523 32.9921 23.035 32.522 24.913 33.777C26.791 35.032 31.9683 39.7325 32.5936 40.0474C33.2189 40.3622 45.2896 40.9875 45.2896 40.9875C45.2896 40.9875 47.0146 43.1804 45.1343 44.9054C45.1343 44.9054 33.4827 45.3754 31.2876 45.218C29.0926 45.0606 21.7801 40.8301 21.7801 40.8301C21.7801 40.8301 18.7979 36.4399 22.2523 32.9921Z" fill="#202F7C"/>
<path d="M19.7402 39.9076C19.7402 39.9076 29.5117 45.0361 30.6513 45.2002C31.791 45.3642 36.108 45.2002 36.108 45.2002" stroke="#1B2048" stroke-width="0.184032" stroke-miterlimit="10"/>
<path d="M32.9307 41.2092C32.9307 41.2092 33.2566 43.0008 32.1169 44.0606" stroke="#1B2048" stroke-width="0.184032" stroke-miterlimit="10"/>
<path d="M33.6646 40.7214C33.6646 40.7214 34.6401 42.2735 34.1523 43.4087" stroke="#1B2048" stroke-width="0.184032" stroke-miterlimit="10"/>
<path d="M19.6581 37.87C19.6581 37.87 18.8444 35.0186 21.6935 33.1472" stroke="#1B2048" stroke-width="0.184032" stroke-miterlimit="10"/>
<path d="M9.15284 35.1849C9.15284 35.1849 8.58301 40.2336 8.58301 42.595" stroke="#1B2048" stroke-width="0.184032" stroke-miterlimit="10"/>
<path d="M12.0862 31.8458C12.0862 31.8458 15.8311 31.5199 18.9264 31.8458" stroke="#1B2048" stroke-width="0.184032" stroke-miterlimit="10"/>
<path d="M36.5957 64.6609C36.5957 64.6609 38.3872 64.0911 39.0347 61.324" stroke="#1B2048" stroke-width="0.184032" stroke-miterlimit="10"/>
<path d="M37.8174 64.9049C37.8174 64.9049 38.875 64.5812 39.3695 63.1134" stroke="#1B2048" stroke-width="0.184032" stroke-miterlimit="10"/>
<path d="M31.303 68.0823L28.6157 81.5188" stroke="#1B2048" stroke-width="0.184032" stroke-miterlimit="10"/>
<path d="M19.5097 20.6864C19.5865 21.1265 19.54 21.5792 19.3752 21.9945C19.2104 22.4097 18.9339 22.7712 18.5763 23.0389L18.6561 24.6043C18.6561 24.6043 19.1261 26.0167 18.8135 26.1719C18.5009 26.3271 18.4211 26.0943 18.4211 26.0943C18.4211 26.0943 17.4011 24.4491 17.0907 24.3692C16.7803 24.2894 17.7958 26.5643 17.7958 26.5643C17.7958 26.5643 16.7781 28.1319 14.8956 28.3669L15.2881 27.8193C14.6172 28.1848 13.8548 28.348 13.093 28.2893C11.7627 28.2095 10.7427 26.1719 10.7427 26.1719C10.7427 26.1719 10.9778 26.7217 10.7427 26.9568C10.5077 27.1918 9.17513 25.1541 9.09753 22.5666L8.70508 23.3515C8.79719 22.043 9.05956 20.752 9.48555 19.5113C10.1906 17.4736 13.3258 15.9836 15.0508 15.9836C16.7759 15.9836 18.4987 16.141 18.9687 15.9836C19.4388 15.8262 19.2037 17.161 19.2037 17.161C19.3419 16.8322 19.4474 16.4905 19.5186 16.141C19.8312 15.906 20.3013 17.7862 20.1439 18.4913L19.9887 19.1986C19.9887 19.1986 20.5363 18.4913 20.6139 18.1011C20.9199 18.0213 20.8401 19.7463 19.5097 20.6864Z" fill="#201360"/>
<path d="M18.3723 24.591C18.3723 24.591 18.0552 23.5422 17.186 24.0943C16.3169 24.6464 17.5519 27.1164 18.2792 26.9035C19.0064 26.6907 18.563 24.9901 18.3723 24.591Z" fill="#FF634D"/>
<path d="M50.1787 42.7614L52.3982 42.3179L52.8438 41.3512" stroke="#E66657" stroke-width="0.283808" stroke-miterlimit="10"/>
<path d="M52.3206 42.3689C52.3206 42.3689 51.1964 43.309 51.0412 43.3888C50.886 43.4687 50.1787 43.6505 50.1787 43.6505" stroke="#E66657" stroke-width="0.283808" stroke-miterlimit="10"/>
<path d="M18.0197 27.2428C18.0197 27.2428 17.7071 28.3514 19.5873 28.9678" stroke="#E66657" stroke-width="0.283808" stroke-miterlimit="10"/>
<path d="M60.8636 35.4998H44.1433L46.2342 24.6331H62.9522L60.8636 35.4998Z" fill="#2E60BE"/>
<path d="M38.7708 28.3935C38.7567 28.4667 38.759 28.542 38.7775 28.6142C38.796 28.6863 38.8301 28.7535 38.8776 28.8109C38.9251 28.8684 38.9846 28.9146 39.052 28.9463C39.1194 28.978 39.193 28.9944 39.2675 28.9944H57.4688C57.5863 28.994 57.7 28.9529 57.7906 28.8781C57.8811 28.8033 57.9429 28.6995 57.9655 28.5842L58.2316 27.1918H39.0014L38.7708 28.3935Z" fill="#26C6F8"/>
<path d="M59.6773 16.4935H41.4759C41.3586 16.4936 41.245 16.5346 41.1547 16.6095C41.0645 16.6844 41.0032 16.7884 40.9815 16.9037L39.0015 27.1918H58.2317L60.174 17.0944C60.188 17.0213 60.1857 16.9459 60.1673 16.8737C60.1488 16.8016 60.1146 16.7344 60.0672 16.677C60.0197 16.6196 59.9602 16.5734 59.8928 16.5416C59.8254 16.5099 59.7518 16.4935 59.6773 16.4935Z" fill="#CAE5FF"/>
<path d="M47.2342 29.0011C47.4736 28.3359 47.6222 27.868 47.6222 27.868C47.6222 27.868 48.1698 24.9989 45.7242 25.735C45.1213 26.2584 44.6876 26.9491 44.4781 27.7195C44.354 28.1363 44.2054 28.5842 44.0613 29.0011H47.2342Z" fill="#387AB6"/>
<path d="M52.2982 29.0011C52.2539 27.5865 52.1652 26.4512 52.0122 26.1475C51.5688 25.3227 49.7307 24.5754 49.7307 24.5754L47.2229 24.9479C47.2229 24.9479 46.1742 25.2473 45.8372 25.9967C45.7241 26.2495 45.4514 27.4734 45.1587 29.0011H52.2982Z" fill="#DCE4FF"/>
<path d="M47.6509 22.877C47.5569 23.5388 47.3942 24.189 47.1654 24.817C47.1654 24.817 47.0745 25.4534 48.4092 25.1807C49.744 24.9079 49.56 24.2406 49.56 24.2406V21.6042L47.6509 22.877Z" fill="#FF8D68"/>
<path d="M45.7773 20.1032C45.7773 20.1032 45.7929 22.6109 46.5135 23.8193C47.0035 24.3271 48.6797 23.5289 49.3848 22.4513C50.0899 21.3737 50.0744 19.7507 49.5178 18.8483C48.9613 17.9458 47.1232 18.2163 46.5844 18.529C46.0456 18.8416 45.7463 19.7019 45.7773 20.1032Z" fill="#FF8D68"/>
<path d="M49.1743 21.5201C49.1743 21.5201 49.6466 20.7906 49.9637 21.2252C50.2807 21.6598 49.1832 22.5555 49.0989 22.2097C49.0564 21.9774 49.0826 21.7377 49.1743 21.5201Z" fill="#FBA894"/>
<path d="M45.7775 20.1032C45.7775 20.1032 44.8906 19.3293 45.9593 18.3294C46.5646 17.8748 46.8684 18.2074 47.5114 18.0855C48.1544 17.9635 49.3007 18.0855 49.7286 18.7506C50.1566 19.4158 50.0014 20.9679 49.8816 21.1164C49.7619 21.265 49.396 21.3581 49.396 21.6308C49.396 21.9036 49.3362 22.1164 49.2453 22.1164C49.1544 22.1164 49.1544 21.6619 49.1544 21.3271C49.146 20.8447 49.0714 20.3657 48.9326 19.9036C48.7819 19.4602 48.0834 19.4779 47.8107 19.54C47.538 19.6021 47.354 20.3005 45.7775 20.1032Z" fill="#713336"/>
<path opacity="0.53" d="M49.0811 20.8571C49.0975 20.8485 49.1145 20.8411 49.1321 20.835L49.0811 20.8571Z" fill="#505E83"/>
<path d="M49.1321 20.8349C49.1321 20.8837 49.2962 22.336 48.7197 22.7395C48.1432 23.143 48.0967 22.6286 47.6222 22.5533C47.1477 22.4779 46.7619 22.5045 46.549 22.8149C46.3362 23.1253 46.3983 23.2583 46.2253 23.1763C46.1876 23.2761 46.447 23.888 46.8484 24.0499C47.2497 24.2118 48.1964 23.7129 48.6222 23.3404C49.0479 22.9679 49.3073 22.7284 49.3827 22.4047C49.4581 22.081 49.4204 21.4557 49.5068 21.0189C49.5556 20.6886 49.2541 20.7839 49.1321 20.8349ZM46.957 23.5133C46.3827 23.3892 46.4581 22.9391 47.0435 22.7528C47.0435 22.7528 47.6687 22.4668 47.8794 22.9036C47.9592 23.1896 47.5224 23.6397 46.957 23.5133Z" fill="#713336"/>
<path d="M49.5622 24.0499C49.0693 24.6206 48.3817 24.9873 47.6332 25.0787C47.3915 24.9856 47.2607 24.5377 47.2607 24.5377L47.0722 24.8171C47.0234 25.0772 47.0234 25.3441 47.0722 25.6042C47.1853 25.622 47.5977 25.3426 47.5977 25.3426C47.5977 25.3426 47.8771 25.735 48.0833 25.8104C48.2895 25.8858 49.5999 25.0056 49.7307 24.5754C49.7209 24.3886 49.6628 24.2076 49.5622 24.0499Z" fill="white"/>
<path d="M52.5 29.0011C52.4357 27.6064 52.3515 26.5421 52.2783 26.3204C51.979 25.622 50.8571 24.724 49.7462 24.5754C49.7462 24.5754 49.3294 26.5 48.9192 29.0099L52.5 29.0011Z" fill="#387AB6"/>
<path d="M46.0302 29.0011C46.6177 26.5067 47.0723 25.0233 47.0723 25.0233C46.5626 25.1226 46.0937 25.3702 45.7242 25.7351C45.5025 26.1785 45.1544 27.4667 44.7952 29.0011H46.0302Z" fill="#387AB6"/>
<path d="M52.2652 29.001C52.3073 27.6707 52.2319 26.4312 52.0124 26.1474C51.3029 25.5466 50.5535 25.5842 50.1787 26.2583C49.9748 26.6264 49.7043 27.9124 49.498 29.001H52.2652Z" fill="#387AB6"/>
<path d="M47.5977 25.3427C47.376 26.2074 47.2075 27.081 47.05 27.9568" stroke="#87B8EB" stroke-width="0.079821" stroke-miterlimit="10"/>
<path d="M61.3337 18.4731C63.0978 16.9151 63.5429 14.5368 62.3278 13.161C61.1127 11.7851 58.6975 11.9328 56.9334 13.4908C55.1693 15.0488 54.7243 17.4271 55.9394 18.803C57.1545 20.1788 59.5696 20.0311 61.3337 18.4731Z" fill="#6787FF"/>
<path d="M63.6616 20.03C63.5827 20.315 63.4159 20.5678 63.1851 20.7525C62.9542 20.9372 62.6709 21.0444 62.3756 21.0588C62.2488 21.0649 62.1225 21.0399 62.0075 20.9859C61.8926 20.932 61.7927 20.8507 61.7164 20.7493C61.64 20.6478 61.5897 20.5292 61.5697 20.4039C61.5498 20.2785 61.5608 20.1502 61.6018 20.03C61.6807 19.7445 61.8478 19.4911 62.079 19.306C62.3103 19.1209 62.5941 19.0135 62.89 18.999C63.0169 18.9931 63.1433 19.0184 63.2581 19.0727C63.373 19.1269 63.4728 19.2084 63.5489 19.3101C63.625 19.4118 63.6751 19.5306 63.6947 19.6561C63.7144 19.7815 63.703 19.9099 63.6616 20.03Z" fill="#6787FF"/>
<path d="M58.1652 17.8992C58.1089 17.901 58.053 17.8897 58.0018 17.8663C57.9507 17.8428 57.9056 17.8078 57.8703 17.7639L56.8991 16.4668C56.839 16.3574 56.8222 16.2294 56.8522 16.1081C56.8822 15.9869 56.9567 15.8815 57.061 15.8127C57.1039 15.7696 57.1548 15.7354 57.2109 15.7121C57.2671 15.6887 57.3273 15.6767 57.3881 15.6767C57.4488 15.6767 57.509 15.6887 57.5651 15.7121C57.6213 15.7354 57.6722 15.7696 57.7151 15.8127L58.4423 16.7817L61.041 14.7041C61.0837 14.6587 61.1352 14.6226 61.1924 14.5979C61.2496 14.5732 61.3112 14.5604 61.3735 14.5604C61.4359 14.5604 61.4975 14.5732 61.5547 14.5979C61.6119 14.6226 61.6634 14.6587 61.7061 14.7041C61.77 14.8147 61.7886 14.9457 61.758 15.0697C61.7274 15.1937 61.65 15.3011 61.5421 15.3693L58.5355 17.775C58.4297 17.8572 58.2991 17.901 58.1652 17.8992Z" fill="white"/>
<path d="M31.4849 9.71102H30.2521C30.1832 9.71446 30.1146 9.70094 30.0522 9.67165C29.9897 9.64236 29.9354 9.5982 29.8941 9.54303C29.8527 9.48787 29.8255 9.42339 29.8149 9.35526C29.8042 9.28712 29.8105 9.21742 29.8331 9.15227L30.139 7.9217C30.1822 7.76671 30.2732 7.62929 30.399 7.52898C30.5248 7.42867 30.679 7.37057 30.8397 7.36295H32.0703C32.1391 7.35951 32.2078 7.37303 32.2702 7.40232C32.3326 7.43161 32.3869 7.47577 32.4283 7.53094C32.4697 7.5861 32.4969 7.65058 32.5075 7.71871C32.5182 7.78684 32.5119 7.85655 32.4893 7.9217L32.1833 9.15227C32.1403 9.30691 32.0496 9.44408 31.9243 9.54436C31.7989 9.64464 31.6452 9.70294 31.4849 9.71102Z" fill="#BFD9FF"/>
<path d="M30.5846 13.3229H29.3541C29.2849 13.3263 29.216 13.3127 29.1533 13.2833C29.0906 13.2539 29.0361 13.2095 28.9945 13.1542C28.953 13.0988 28.9256 13.0341 28.9148 12.9657C28.9041 12.8973 28.9102 12.8273 28.9328 12.7619L29.241 11.5313C29.2837 11.3765 29.3743 11.2392 29.4997 11.1388C29.6251 11.0385 29.779 10.9803 29.9394 10.9726H31.17C31.2389 10.9691 31.3075 10.9826 31.3699 11.0119C31.4324 11.0412 31.4867 11.0854 31.528 11.1406C31.5694 11.1957 31.5966 11.2602 31.6072 11.3283C31.6179 11.3965 31.6116 11.4662 31.589 11.5313L31.2831 12.7619C31.2404 12.9169 31.1499 13.0546 31.0246 13.1553C30.8992 13.256 30.7452 13.3146 30.5846 13.3229Z" stroke="#A9A7E7" stroke-width="0.166294" stroke-miterlimit="10"/>
<path d="M34.5003 13.3229H33.2698C33.2008 13.326 33.1321 13.3121 33.0698 13.2825C33.0074 13.253 32.9532 13.2086 32.9119 13.1533C32.8705 13.098 32.8434 13.0334 32.8327 12.9652C32.8221 12.897 32.8282 12.8272 32.8507 12.762L33.1567 11.5314C33.1998 11.3768 33.2904 11.2396 33.4157 11.1393C33.5411 11.039 33.6948 10.9807 33.8551 10.9726H35.0857C35.1546 10.9694 35.2232 10.983 35.2857 11.0123C35.3481 11.0415 35.4025 11.0856 35.444 11.1407C35.4855 11.1958 35.5129 11.2602 35.5239 11.3282C35.5349 11.3963 35.5291 11.4661 35.507 11.5314L35.2054 12.762C35.1624 12.9181 35.0709 13.0565 34.9442 13.1573C34.8175 13.2581 34.6621 13.3161 34.5003 13.3229Z" fill="#26C6DA"/>
<path d="M38.4161 13.3229H37.1855C37.1166 13.3259 37.0479 13.312 36.9855 13.2825C36.9231 13.2529 36.8689 13.2085 36.8276 13.1532C36.7863 13.0979 36.7591 13.0333 36.7485 12.9651C36.7378 12.8969 36.744 12.8272 36.7665 12.7619L37.0725 11.5313C37.1155 11.3767 37.2062 11.2395 37.3315 11.1392C37.4569 11.0389 37.6106 10.9806 37.7709 10.9726H39.0015C39.0705 10.9687 39.1395 10.982 39.2022 11.0111C39.2649 11.0402 39.3195 11.0844 39.3611 11.1396C39.4028 11.1948 39.4302 11.2594 39.4409 11.3277C39.4517 11.3961 39.4454 11.466 39.4227 11.5313L39.1145 12.7619C39.0725 12.9173 38.9822 13.0553 38.8567 13.1561C38.7312 13.2569 38.5769 13.3153 38.4161 13.3229Z" fill="white"/>
<path d="M29.6624 17.0146H28.4296C28.3607 17.0181 28.2921 17.0046 28.2296 16.9753C28.1672 16.946 28.1129 16.9018 28.0716 16.8467C28.0302 16.7915 28.003 16.727 27.9923 16.6589C27.9817 16.5907 27.988 16.521 28.0105 16.4559L28.3165 15.2253C28.3593 15.0699 28.4501 14.932 28.5759 14.8313C28.7018 14.7305 28.8562 14.6721 29.0172 14.6644H30.2477C30.3167 14.6613 30.3854 14.6752 30.4478 14.7047C30.5101 14.7343 30.5644 14.7787 30.6057 14.834C30.647 14.8893 30.6742 14.9539 30.6848 15.0221C30.6955 15.0903 30.6893 15.16 30.6668 15.2253L30.3608 16.4559C30.3178 16.6105 30.2271 16.7477 30.1018 16.848C29.9764 16.9483 29.8227 17.0066 29.6624 17.0146Z" fill="#26C6DA"/>
<path d="M28.68 20.9591H27.445C27.3761 20.9625 27.3075 20.949 27.245 20.9197C27.1826 20.8904 27.1283 20.8463 27.0869 20.7911C27.0456 20.7359 27.0184 20.6714 27.0077 20.6033C26.9971 20.5352 27.0033 20.4655 27.0259 20.4003L27.3319 19.1698C27.3746 19.0147 27.465 18.877 27.5904 18.7763C27.7158 18.6756 27.8697 18.617 28.0303 18.6088H29.2609C29.3301 18.6054 29.399 18.619 29.4617 18.6484C29.5244 18.6778 29.5789 18.7221 29.6204 18.7775C29.662 18.8328 29.6894 18.8975 29.7002 18.9659C29.7109 19.0343 29.7047 19.1043 29.6822 19.1698L29.374 20.4003C29.3315 20.5544 29.2416 20.6913 29.1171 20.7916C28.9925 20.8918 28.8396 20.9504 28.68 20.9591Z" fill="white"/>
<path d="M33.5804 17.0146H32.3499C32.281 17.0179 32.2123 17.0043 32.1499 16.975C32.0875 16.9457 32.0331 16.9016 31.9916 16.8466C31.9501 16.7915 31.9226 16.7271 31.9117 16.659C31.9007 16.591 31.9065 16.5212 31.9286 16.4559L32.2368 15.2253C32.2792 15.0701 32.3695 14.9323 32.495 14.8315C32.6204 14.7307 32.7745 14.6722 32.9352 14.6644H34.1658C34.2348 14.6613 34.3034 14.6752 34.3658 14.7047C34.4282 14.7343 34.4824 14.7787 34.5237 14.834C34.565 14.8893 34.5922 14.9539 34.6029 15.0221C34.6135 15.0903 34.6073 15.16 34.5849 15.2253L34.2789 16.4559C34.2358 16.6105 34.1452 16.7477 34.0198 16.848C33.8945 16.9483 33.7408 17.0066 33.5804 17.0146Z" fill="#EDF4FF"/>
<path d="M31.8641 23.9013H30.6335C30.5646 23.9043 30.4959 23.8905 30.4335 23.8609C30.3711 23.8313 30.3169 23.787 30.2756 23.7317C30.2343 23.6764 30.2071 23.6118 30.1965 23.5436C30.1858 23.4754 30.192 23.4056 30.2145 23.3403L30.5205 22.1098C30.5635 21.9551 30.6542 21.818 30.7795 21.7177C30.9049 21.6174 31.0586 21.5591 31.2189 21.551H32.4495C32.5184 21.5477 32.587 21.5613 32.6494 21.5906C32.7119 21.6199 32.7662 21.664 32.8077 21.7191C32.8493 21.7741 32.8767 21.8385 32.8877 21.9066C32.8987 21.9747 32.8928 22.0444 32.8707 22.1098L32.5625 23.3403C32.5199 23.4954 32.4294 23.633 32.304 23.7338C32.1786 23.8345 32.0247 23.8931 31.8641 23.9013Z" stroke="#A9A7E7" stroke-width="0.166294" stroke-miterlimit="10"/>
<path d="M68.89 19.1144H68.4466C68.4212 19.1162 68.3957 19.1117 68.3725 19.1013C68.3493 19.0908 68.3291 19.0747 68.3137 19.0544C68.2983 19.0342 68.2882 19.0104 68.2843 18.9852C68.2804 18.9601 68.2828 18.9344 68.2914 18.9104L68.4044 18.4669C68.4202 18.4099 68.4535 18.3593 68.4997 18.3223C68.5459 18.2853 68.6025 18.2637 68.6616 18.2607H69.1051C69.1306 18.2593 69.156 18.2642 69.1792 18.2749C69.2023 18.2857 69.2225 18.302 69.2378 18.3224C69.2531 18.3428 69.2632 18.3666 69.2672 18.3918C69.2711 18.4171 69.2687 18.4429 69.2603 18.4669L69.1472 18.9104C69.1314 18.9672 69.0979 19.0175 69.0517 19.0542C69.0055 19.0908 68.9489 19.1119 68.89 19.1144Z" fill="#CAE5FF"/>
<path d="M68.5595 20.4402H68.1161C68.0906 20.4417 68.0651 20.4368 68.042 20.426C68.0188 20.4153 67.9987 20.399 67.9834 20.3786C67.968 20.3582 67.9579 20.3343 67.954 20.3091C67.9501 20.2839 67.9524 20.2581 67.9609 20.234L68.0739 19.7906C68.0898 19.7338 68.1232 19.6835 68.1694 19.6468C68.2156 19.6102 68.2722 19.5891 68.3311 19.5866H68.7746C68.8 19.5847 68.8254 19.5893 68.8486 19.5997C68.8718 19.6102 68.892 19.6263 68.9074 19.6465C68.9229 19.6668 68.933 19.6906 68.9369 19.7157C68.9408 19.7409 68.9383 19.7666 68.9298 19.7906L68.8167 20.234C68.8009 20.2911 68.7676 20.3417 68.7214 20.3787C68.6753 20.4157 68.6186 20.4372 68.5595 20.4402Z" fill="#CAE5FF"/>
<path d="M69.9984 20.4402H69.555C69.5297 20.4413 69.5045 20.4361 69.4816 20.4252C69.4588 20.4143 69.439 20.3979 69.4239 20.3776C69.4088 20.3573 69.3989 20.3336 69.3951 20.3085C69.3913 20.2835 69.3936 20.2579 69.402 20.234L69.5128 19.7905C69.529 19.7339 69.5625 19.6838 69.6086 19.6472C69.6548 19.6106 69.7112 19.5894 69.77 19.5866H70.2135C70.2387 19.5851 70.2639 19.5899 70.2868 19.6005C70.3097 19.6112 70.3296 19.6273 70.3447 19.6475C70.3599 19.6677 70.3698 19.6913 70.3736 19.7163C70.3774 19.7412 70.3749 19.7668 70.3665 19.7905L70.2556 20.234C70.2395 20.2909 70.2061 20.3413 70.16 20.3783C70.1139 20.4152 70.0574 20.4369 69.9984 20.4402Z" fill="#CAE5FF"/>
<path d="M71.4354 20.4403H70.992C70.9667 20.4413 70.9415 20.4362 70.9187 20.4253C70.8958 20.4143 70.876 20.398 70.8609 20.3777C70.8458 20.3573 70.8359 20.3336 70.8321 20.3086C70.8283 20.2836 70.8306 20.258 70.839 20.2341L70.9521 19.7906C70.9675 19.734 71.0005 19.6837 71.0463 19.6471C71.0922 19.6104 71.1484 19.5893 71.207 19.5866H71.6505C71.6757 19.5853 71.7009 19.5902 71.7238 19.6009C71.7467 19.6115 71.7667 19.6276 71.782 19.6477C71.7972 19.6678 71.8074 19.6913 71.8115 19.7162C71.8157 19.7411 71.8137 19.7667 71.8057 19.7906L71.6926 20.2341C71.6766 20.2909 71.6431 20.3414 71.597 20.3783C71.5509 20.4153 71.4944 20.437 71.4354 20.4403Z" fill="#CAE5FF"/>
<path d="M68.2225 21.795H67.7791C67.7538 21.7961 67.7286 21.7909 67.7058 21.78C67.6829 21.7691 67.6631 21.7528 67.648 21.7324C67.6329 21.7121 67.623 21.6884 67.6192 21.6634C67.6154 21.6383 67.6178 21.6127 67.6261 21.5888L67.7392 21.1454C67.7539 21.0882 67.7866 21.0372 67.8326 21.0001C67.8785 20.963 67.9351 20.9416 67.9942 20.9392H68.4376C68.4629 20.9383 68.4881 20.9435 68.5109 20.9544C68.5338 20.9653 68.5537 20.9816 68.5689 21.0018C68.5842 21.0221 68.5943 21.0457 68.5985 21.0707C68.6026 21.0957 68.6007 21.1213 68.5928 21.1454L68.4797 21.5888C68.464 21.6459 68.4306 21.6965 68.3845 21.7335C68.3383 21.7705 68.2816 21.7921 68.2225 21.795Z" fill="#CAE5FF"/>
<path d="M67.8612 23.2362H67.4178C67.3925 23.2373 67.3673 23.2321 67.3444 23.2212C67.3216 23.2103 67.3017 23.1939 67.2867 23.1736C67.2716 23.1533 67.2617 23.1296 67.2579 23.1045C67.2541 23.0795 67.2564 23.0539 67.2648 23.03L67.3778 22.5866C67.3926 22.5294 67.4253 22.4784 67.4712 22.4413C67.5172 22.4041 67.5738 22.3828 67.6328 22.3803H68.0763C68.1016 22.3795 68.1268 22.3847 68.1496 22.3956C68.1725 22.4065 68.1924 22.4228 68.2076 22.443C68.2229 22.4632 68.233 22.4869 68.2371 22.5119C68.2413 22.5368 68.2394 22.5625 68.2315 22.5866L68.1184 23.03C68.1026 23.087 68.0693 23.1377 68.0231 23.1747C67.977 23.2117 67.9203 23.2332 67.8612 23.2362Z" fill="#CAE5FF"/>
<path d="M69.6594 21.7949H69.2159C69.1904 21.7964 69.165 21.7915 69.1418 21.7808C69.1187 21.77 69.0985 21.7537 69.0832 21.7333C69.0679 21.7129 69.0578 21.6891 69.0538 21.6638C69.0499 21.6386 69.0523 21.6128 69.0607 21.5887L69.1738 21.1453C69.1892 21.0881 69.2225 21.0373 69.2687 21.0002C69.315 20.9631 69.3718 20.9417 69.431 20.9391H69.8744C69.8999 20.9377 69.9254 20.9425 69.9485 20.9533C69.9717 20.964 69.9918 20.9803 70.0071 21.0007C70.0225 21.0211 70.0326 21.045 70.0365 21.0702C70.0404 21.0954 70.0381 21.1212 70.0296 21.1453L69.9166 21.5887C69.9011 21.6459 69.8679 21.6968 69.8216 21.7338C69.7754 21.7709 69.7186 21.7923 69.6594 21.7949Z" fill="#CAE5FF"/>
<path d="M69.0297 24.3205H68.5862C68.5608 24.3224 68.5354 24.3179 68.5122 24.3074C68.489 24.2969 68.4688 24.2808 68.4534 24.2606C68.4379 24.2403 68.4278 24.2166 68.4239 24.1914C68.42 24.1663 68.4225 24.1405 68.431 24.1166L68.5441 23.6731C68.5599 23.6161 68.5932 23.5654 68.6394 23.5284C68.6855 23.4914 68.7422 23.4699 68.8013 23.4669H69.2447C69.2701 23.466 69.2952 23.4712 69.3181 23.4821C69.341 23.493 69.3608 23.5093 69.3761 23.5296C69.3913 23.5498 69.4014 23.5734 69.4056 23.5984C69.4098 23.6234 69.4078 23.649 69.3999 23.6731L69.2869 24.1166C69.2707 24.1732 69.2372 24.2233 69.1911 24.2599C69.1449 24.2965 69.0885 24.3177 69.0297 24.3205Z" fill="#CAE5FF"/>
<path opacity="0.9" d="M68.7459 36.2338H53.8903C53.8547 36.2326 53.8199 36.2234 53.7883 36.2069C53.7567 36.1905 53.7293 36.1671 53.708 36.1386C53.6867 36.11 53.6721 36.077 53.6653 36.0421C53.6585 36.0071 53.6596 35.9711 53.6686 35.9367L55.0566 30.6153C55.0691 30.5653 55.0974 30.5208 55.1374 30.4884C55.1774 30.456 55.2269 30.4375 55.2783 30.4357H70.1339C70.1696 30.4372 70.2045 30.4466 70.236 30.4634C70.2676 30.4801 70.295 30.5037 70.3162 30.5324C70.3375 30.5611 70.3521 30.5942 70.3589 30.6292C70.3657 30.6643 70.3646 30.7004 70.3556 30.735L68.9676 36.0564C68.9547 36.1059 68.9262 36.1499 68.8862 36.1819C68.8463 36.2139 68.797 36.2321 68.7459 36.2338Z" fill="#BFD9FF"/>
<path d="M55.928 31.5686H61.0986" stroke="#A9C2FF" stroke-width="0.239463" stroke-linecap="round" stroke-linejoin="round"/>
<path d="M55.531 33.9545H60.6994" stroke="#A9C2FF" stroke-width="0.239463" stroke-linecap="round" stroke-linejoin="round"/>
<path d="M57.7041 33.0541H62.8747" stroke="#A9C2FF" stroke-width="0.239463" stroke-linecap="round" stroke-linejoin="round"/>
<path d="M55.7971 32.3646H57.347" stroke="#A9C2FF" stroke-width="0.239463" stroke-linecap="round" stroke-linejoin="round"/>
<path d="M55.5842 33.0541H57.1341" stroke="#A9C2FF" stroke-width="0.239463" stroke-linecap="round" stroke-linejoin="round"/>
<path d="M61.9189 31.5686H63.7615" stroke="#A9C2FF" stroke-width="0.239463" stroke-linecap="round" stroke-linejoin="round"/>
<path d="M62.8213 35.0741H60.0697C60.0666 35.0739 60.0636 35.073 60.0608 35.0714C60.058 35.0699 60.0556 35.0678 60.0537 35.0653C60.0519 35.0628 60.0505 35.0599 60.0499 35.0569C60.0492 35.0538 60.0491 35.0506 60.0498 35.0475L60.1739 34.5752C60.175 34.5708 60.1775 34.5668 60.1811 34.5639C60.1848 34.5611 60.1893 34.5596 60.1939 34.5597H62.9455C62.9488 34.5595 62.9521 34.5602 62.9551 34.5615C62.9581 34.5629 62.9606 34.565 62.9626 34.5677C62.9646 34.5703 62.9659 34.5734 62.9664 34.5766C62.9669 34.5799 62.9666 34.5832 62.9655 34.5863L62.8413 35.0586C62.8403 35.0631 62.8377 35.0671 62.8341 35.0699C62.8305 35.0728 62.8259 35.0742 62.8213 35.0741Z" stroke="#84AEE5" stroke-width="0.079821" stroke-miterlimit="10"/>
<path d="M59.4024 35.0741H56.6507C56.6475 35.0743 56.6442 35.0737 56.6412 35.0723C56.6382 35.0709 56.6356 35.0688 56.6336 35.0662C56.6317 35.0635 56.6304 35.0605 56.6299 35.0572C56.6294 35.054 56.6297 35.0506 56.6308 35.0475L56.755 34.5752C56.7552 34.5729 56.756 34.5706 56.7571 34.5686C56.7583 34.5666 56.7598 34.5647 56.7617 34.5633C56.7635 34.5619 56.7657 34.5608 56.7679 34.5602C56.7702 34.5596 56.7726 34.5594 56.7749 34.5597H59.5265C59.5298 34.5595 59.5331 34.5602 59.5361 34.5615C59.5391 34.5629 59.5417 34.565 59.5436 34.5677C59.5456 34.5703 59.5469 34.5734 59.5474 34.5766C59.5479 34.5799 59.5476 34.5832 59.5465 34.5863L59.4223 35.0586C59.421 35.0629 59.4183 35.0667 59.4148 35.0695C59.4112 35.0723 59.4069 35.0739 59.4024 35.0741Z" stroke="#84AEE5" stroke-width="0.079821" stroke-miterlimit="10"/>
<path d="M67.6573 34.3889C67.5154 34.2005 66.9433 34.063 66.7859 33.8767C66.7142 33.7471 66.6921 33.5958 66.7238 33.451C66.7724 33.4221 66.8164 33.3863 66.8546 33.3446C66.9128 33.2575 66.9646 33.1663 67.0099 33.0719C67.0183 33.0809 67.0286 33.088 67.0401 33.0926C67.0516 33.0972 67.064 33.0992 67.0764 33.0985C67.1518 33.0985 67.4378 32.7083 67.3624 32.6173C67.3203 32.5664 67.2538 32.6174 67.2028 32.6595C67.2781 32.4865 67.3314 32.3535 67.3314 32.3535C67.3314 32.3313 67.3447 32.3092 67.3491 32.287C67.3826 32.191 67.3921 32.0882 67.3766 31.9877C67.3611 31.8872 67.3212 31.7921 67.2603 31.7106C67.1994 31.6292 67.1195 31.5639 67.0275 31.5206C66.9355 31.4773 66.8343 31.4572 66.7327 31.4622C66.4959 31.4737 66.2688 31.5596 66.0837 31.7077C65.8985 31.8558 65.7649 32.0585 65.7017 32.287L65.6884 32.3535C65.6884 32.3535 65.6751 32.4865 65.664 32.6595C65.6374 32.6107 65.5908 32.5664 65.5243 32.6173C65.4046 32.7083 65.4977 33.0963 65.5709 33.0985C65.5996 33.0982 65.6275 33.0889 65.6507 33.0719C65.6498 33.1631 65.6557 33.2543 65.6684 33.3446C65.692 33.3961 65.7287 33.4405 65.7748 33.4732C65.7228 33.6286 65.6311 33.7677 65.5088 33.8767C65.2582 34.063 64.6219 34.2005 64.3824 34.3889C64.1844 34.6088 64.0335 34.8669 63.939 35.1472H67.7083C67.726 35.0497 67.7837 34.5574 67.6573 34.3889Z" fill="#387AB6"/>
<path d="M48.6044 34.3335H36.4095C35.3408 34.3335 34.6889 33.4665 34.955 32.3956C35.2233 31.3269 36.3053 30.46 37.3762 30.46H49.5711C50.6398 30.46 51.2917 31.3269 51.0256 32.3956C50.7573 33.4665 49.6731 34.3335 48.6044 34.3335Z" fill="white"/>
<path d="M37.7067 32.9033L37.1856 33.145C37.1346 33.1694 37.0947 33.1317 37.1147 33.0829L37.3364 32.5685C37.3409 32.5603 37.3432 32.5512 37.3432 32.5419C37.3432 32.5326 37.3409 32.5234 37.3364 32.5153L37.0526 32.1517C37.026 32.1162 37.0526 32.0585 37.1102 32.0497L37.6468 31.9743C37.6571 31.9733 37.667 31.97 37.6759 31.9646C37.6847 31.9592 37.6922 31.9519 37.6978 31.9432L38.0459 31.4754C38.0792 31.4311 38.1413 31.4311 38.1523 31.4754L38.2676 31.9432C38.2695 31.9515 38.2739 31.959 38.2803 31.9646C38.2867 31.9701 38.2947 31.9735 38.3031 31.9743L38.802 32.0497C38.8486 32.0497 38.853 32.1162 38.802 32.1517L38.3386 32.5153C38.3301 32.5216 38.3229 32.5295 38.3176 32.5387C38.3122 32.5478 38.3088 32.558 38.3076 32.5685L38.2676 33.0829C38.2676 33.1317 38.2033 33.1694 38.1657 33.145L37.7643 32.9033C37.7555 32.8985 37.7456 32.8959 37.7355 32.8959C37.7254 32.8959 37.7155 32.8985 37.7067 32.9033Z" fill="#FFA402"/>
<path d="M40.2809 32.9033L39.7576 33.145C39.7088 33.1694 39.6667 33.1317 39.6889 33.0829L39.9106 32.5685C39.9155 32.5605 39.9181 32.5513 39.9181 32.5419C39.9181 32.5325 39.9155 32.5233 39.9106 32.5153L39.629 32.1517C39.6024 32.1162 39.629 32.0585 39.6867 32.0497L40.221 31.9743C40.2315 31.973 40.2417 31.9696 40.2508 31.9643C40.26 31.9589 40.2679 31.9518 40.2742 31.9432L40.6223 31.4754C40.6556 31.4311 40.7177 31.4311 40.7288 31.4754L40.8441 31.9432C40.8456 31.9517 40.8499 31.9593 40.8563 31.965C40.8628 31.9706 40.871 31.9739 40.8795 31.9743L41.3784 32.0497C41.425 32.0497 41.4294 32.1162 41.3784 32.1517L40.9128 32.5153C40.8969 32.5288 40.8867 32.5478 40.884 32.5685L40.8441 33.0829C40.8441 33.1317 40.7798 33.1694 40.7421 33.145L40.3407 32.9033C40.3316 32.8981 40.3213 32.8953 40.3108 32.8953C40.3003 32.8953 40.29 32.8981 40.2809 32.9033Z" fill="#FFA402"/>
<path d="M42.8549 32.9033L42.3316 33.145C42.2828 33.1694 42.2407 33.1317 42.2606 33.0829L42.4824 32.5685C42.4873 32.5605 42.4898 32.5513 42.4898 32.5419C42.4898 32.5325 42.4873 32.5233 42.4824 32.5153L42.1985 32.1517C42.1719 32.1162 42.1985 32.0585 42.2584 32.0497L42.7928 31.9743C42.8033 31.973 42.8134 31.9696 42.8226 31.9643C42.8317 31.9589 42.8397 31.9518 42.846 31.9432L43.1941 31.4754C43.2274 31.4311 43.2894 31.4311 43.3005 31.4754L43.4136 31.9432C43.4156 31.9519 43.4203 31.9596 43.4271 31.9652C43.434 31.9708 43.4425 31.974 43.4513 31.9743L43.948 32.0497C43.9945 32.0497 44.0012 32.1162 43.948 32.1517L43.4823 32.5153C43.4738 32.5214 43.4667 32.5293 43.4617 32.5386C43.4568 32.5478 43.4539 32.558 43.4535 32.5685L43.4136 33.0829C43.4136 33.1317 43.3493 33.1694 43.3116 33.145L42.9103 32.9033C42.9017 32.8988 42.8922 32.8965 42.8826 32.8965C42.8729 32.8965 42.8634 32.8988 42.8549 32.9033Z" fill="#FFA402"/>
<path d="M45.4269 32.9033L44.9058 33.145C44.8571 33.1694 44.8149 33.1317 44.8349 33.0829L45.0566 32.5685C45.0611 32.5603 45.0634 32.5512 45.0634 32.5419C45.0634 32.5326 45.0611 32.5234 45.0566 32.5153L44.7728 32.1517C44.7462 32.1162 44.7728 32.0585 44.8305 32.0497L45.367 31.9743C45.3775 31.973 45.3877 31.9696 45.3968 31.9643C45.406 31.9589 45.414 31.9518 45.4202 31.9432L45.7661 31.4754C45.7994 31.4311 45.8637 31.4311 45.8726 31.4754L45.9879 31.9432C45.9897 31.9515 45.9941 31.959 46.0005 31.9646C46.0069 31.9701 46.0149 31.9735 46.0233 31.9743L46.5222 32.0497C46.5688 32.0497 46.5732 32.1162 46.5222 32.1517L46.0588 32.5153C46.0503 32.5216 46.0431 32.5295 46.0378 32.5387C46.0324 32.5478 46.029 32.558 46.0278 32.5685L45.9879 33.0829C45.987 33.0946 45.9834 33.1059 45.9774 33.1159C45.9713 33.1258 45.9629 33.1342 45.9529 33.1403C45.9429 33.1464 45.9316 33.15 45.92 33.1508C45.9083 33.1516 45.8966 33.1496 45.8859 33.145L45.4845 32.9033C45.4757 32.8985 45.4658 32.8959 45.4557 32.8959C45.4456 32.8959 45.4357 32.8985 45.4269 32.9033Z" fill="#FFA402"/>
<path d="M48.0014 32.9033L47.4781 33.145C47.4293 33.1694 47.3872 33.1317 47.4094 33.0829L47.6311 32.5685C47.6355 32.5603 47.6379 32.5512 47.6379 32.5419C47.6379 32.5326 47.6355 32.5234 47.6311 32.5153L47.3473 32.1517C47.3207 32.1162 47.3473 32.0585 47.4049 32.0497L47.9415 31.9743C47.9517 31.973 47.9615 31.9695 47.9703 31.9642C47.9791 31.9588 47.9866 31.9517 47.9925 31.9432L48.3406 31.4754C48.3739 31.4311 48.4359 31.4311 48.447 31.4754L48.5623 31.9432C48.5642 31.9515 48.5686 31.959 48.575 31.9646C48.5814 31.9701 48.5894 31.9735 48.5978 31.9743L49.0967 32.0497C49.1432 32.0497 49.1477 32.1162 49.0967 32.1517L48.6333 32.5153C48.6247 32.5216 48.6176 32.5295 48.6122 32.5387C48.6069 32.5478 48.6035 32.558 48.6022 32.5685L48.5623 33.0829C48.5623 33.1317 48.498 33.1694 48.4603 33.145L48.0657 32.9033C48.056 32.8972 48.0449 32.8939 48.0335 32.8939C48.0221 32.8939 48.011 32.8972 48.0014 32.9033Z" fill="#C2D4D9"/>
<path d="M18.6316 26.8592C19.1876 26.8592 19.6383 26.2298 19.6383 25.4535C19.6383 24.6771 19.1876 24.0477 18.6316 24.0477C18.0757 24.0477 17.625 24.6771 17.625 25.4535C17.625 26.2298 18.0757 26.8592 18.6316 26.8592Z" fill="#202F7C"/>
<path d="M18.7825 25.5754C18.7825 25.5754 21.5917 28.6796 21.5917 29.1785C21.5917 29.6773 20.676 29.6064 20.676 29.6064" stroke="#202F7C" stroke-width="0.243897" stroke-miterlimit="10"/>
<path d="M20.8909 29.6063C20.8913 29.6792 20.8701 29.7506 20.83 29.8114C20.7898 29.8722 20.7325 29.9198 20.6652 29.948C20.598 29.9762 20.5239 29.9838 20.4524 29.9698C20.3809 29.9559 20.3151 29.921 20.2634 29.8696C20.2117 29.8182 20.1764 29.7526 20.162 29.6812C20.1476 29.6097 20.1548 29.5356 20.1826 29.4682C20.2104 29.4008 20.2576 29.3432 20.3181 29.3027C20.3787 29.2621 20.45 29.2405 20.5228 29.2405C20.5711 29.2402 20.6189 29.2494 20.6635 29.2677C20.7082 29.2859 20.7488 29.3129 20.783 29.3469C20.8172 29.3809 20.8443 29.4213 20.8628 29.4658C20.8814 29.5103 20.8909 29.5581 20.8909 29.6063Z" fill="#202F7C"/>
<path d="M13.7869 66.0646C14.7846 67.7852 17.9154 69.0423 21.6248 69.0423C25.3343 69.0423 28.4651 67.7852 29.4628 66.0646H13.7869Z" fill="#4F57A0"/>
<path d="M34.9485 57.2333L33.0682 65.9072H31.9175L32.964 57.4439L34.9485 57.2333Z" fill="#A9A7E7"/>
<path d="M21.5583 55.8718H36.7243C37.1677 55.8718 37.593 56.048 37.9065 56.3615C38.22 56.675 38.3961 57.1002 38.3961 57.5436V57.9627H21.5583V55.8718Z" fill="#7A82CC"/>
<path d="M7.77802 64.967L3.70494 45.3665C3.66705 45.1843 3.67025 44.9959 3.71429 44.8151C3.75833 44.6342 3.84211 44.4655 3.95953 44.3211C4.07696 44.1767 4.22508 44.0603 4.39314 43.9803C4.5612 43.9003 4.74496 43.8588 4.93107 43.8588H18.4164C18.7766 43.8589 19.1258 43.983 19.4053 44.2104C19.6847 44.4377 19.8773 44.7544 19.9507 45.1071L24.0792 64.967" fill="#A9A7E7"/>
<path d="M35.4718 67.1156H9.86477C9.44413 67.1157 9.03479 66.9794 8.69818 66.7271C8.36157 66.4748 8.11584 66.1202 7.99785 65.7165L7.77612 64.967H35.4718V67.1156Z" fill="#A9A7E7"/>
<path d="M22.8797 68.1023H20.842V86.2837H22.8797V68.1023Z" fill="#E2E7FF"/>
<path d="M22.8797 71.4725L20.842 73.1177V68.1023H22.8797V71.4725Z" fill="#4F57A0"/>
<path d="M22.8156 83.5742H22.0706H21.8844H21.1394L13.501 86.6074H30.4541L22.8156 83.5742Z" fill="#E2E7FF"/>
<path d="M5.50098 45.2003H17.6205" stroke="#4F57A0" stroke-width="0.221725" stroke-miterlimit="10"/>
<path d="M18.8777 46.6038L20.9464 57.0248" stroke="#4F57A0" stroke-width="0.221725" stroke-miterlimit="10"/>
<path d="M21.3167 58.8718L21.7601 61.9028" stroke="#4F57A0" stroke-width="0.221725" stroke-miterlimit="10"/>
<path d="M77.8212 27.6839H68.0653C67.9468 27.6838 67.8297 27.6579 67.7221 27.6082C67.6145 27.5585 67.5189 27.486 67.442 27.3959C67.3651 27.3057 67.3086 27.1999 67.2765 27.0858C67.2444 26.9717 67.2374 26.852 67.256 26.7349L67.3314 26.2671C67.362 26.0746 67.4604 25.8993 67.6087 25.7729C67.7571 25.6465 67.9458 25.5772 68.1407 25.5775H77.8966C78.015 25.5773 78.1321 25.6029 78.2397 25.6523C78.3473 25.7018 78.4428 25.774 78.5198 25.8641C78.5967 25.9541 78.6532 26.0597 78.6854 26.1737C78.7175 26.2877 78.7245 26.4073 78.7059 26.5243L78.6305 26.9921C78.5999 27.1848 78.5016 27.3603 78.3533 27.4871C78.205 27.6139 78.0163 27.6837 77.8212 27.6839Z" fill="#CAE5FF"/>
<path d="M68.4709 26.6486H76.8965" stroke="white" stroke-width="0.44345" stroke-miterlimit="10"/>
<path d="M42.2697 15.5623H39.609C38.3451 15.5623 37.1013 16.5866 36.833 17.8527C36.5625 19.1187 37.3696 20.1453 38.6356 20.1453H39.2143C39.3837 20.5714 39.6865 20.9312 40.0774 21.171C40.4682 21.4108 40.9262 21.5177 41.3828 21.4757C41.1643 21.0655 41.0451 20.6099 41.0347 20.1453H41.2963C42.5624 20.1453 43.8062 19.1187 44.0745 17.8527C44.3428 16.5844 43.5357 15.5623 42.2697 15.5623Z" fill="#FF634D"/>
<path d="M38.4783 17.4092H40.9926" stroke="white" stroke-width="0.44345" stroke-miterlimit="10"/>
<path d="M38.2676 18.407H42.3495" stroke="white" stroke-width="0.44345" stroke-miterlimit="10"/>
</svg>
