<svg width="105" height="69" viewBox="0 0 105 69" fill="none" xmlns="http://www.w3.org/2000/svg">
<path d="M64.4132 1.71143H46.9392V24.6172H64.4132V1.71143Z" fill="#ABD0EF"/>
<path d="M65.5499 0.5625H48.0759V23.4683H65.5499V0.5625Z" fill="#E3EFFB"/>
<path d="M63.1474 9.03271H50.4783V9.9715H63.1474V9.03271Z" fill="#ABD0EF"/>
<path d="M63.1474 10.9463H50.4783V11.8851H63.1474V10.9463Z" fill="#ABD0EF"/>
<path d="M63.1477 7.11621H57.197V8.055H63.1477V7.11621Z" fill="#ABD0EF"/>
<path d="M63.1477 5.20264H57.197V6.14142H63.1477V5.20264Z" fill="#ABD0EF"/>
<path d="M63.1477 3.28906H57.197V4.22785H63.1477V3.28906Z" fill="#ABD0EF"/>
<path d="M56.8128 12.8208H50.4783V13.7596H56.8128V12.8208Z" fill="#ABD0EF"/>
<path d="M63.1474 16.0601H50.4783V16.9988H63.1474V16.0601Z" fill="#ABD0EF"/>
<path d="M63.1474 17.9736H50.4783V18.9124H63.1474V17.9736Z" fill="#ABD0EF"/>
<path d="M56.8128 19.8511H50.4783V20.7899H56.8128V19.8511Z" fill="#ABD0EF"/>
<path d="M55.1992 3.28906H50.4783V8.00998H55.1992V3.28906Z" fill="#ABD0EF"/>
<path d="M43.4902 10.2383H5.84277V33.8489H43.4902V10.2383Z" fill="#E3EFFB"/>
<path d="M39.6929 19.0352H9.32788V19.9739H39.6929V19.0352Z" fill="#ABD0EF"/>
<path d="M39.6929 20.9517H9.32788V21.8904H39.6929V20.9517Z" fill="#ABD0EF"/>
<path d="M39.6929 17.1216H9.32788V18.0604H39.6929V17.1216Z" fill="#ABD0EF"/>
<path d="M39.6929 15.208H9.32788V16.1468H39.6929V15.208Z" fill="#ABD0EF"/>
<path d="M39.6929 13.2949H9.32788V14.2337H39.6929V13.2949Z" fill="#ABD0EF"/>
<path d="M24.5104 22.8267H9.32788V23.7654H24.5104V22.8267Z" fill="#ABD0EF"/>
<path d="M39.6929 26.0659H9.32788V27.0047H39.6929V26.0659Z" fill="#ABD0EF"/>
<path d="M39.6929 27.979H9.32788V28.9178H39.6929V27.979Z" fill="#ABD0EF"/>
<path d="M24.5104 29.8569H9.32788V30.7957H24.5104V29.8569Z" fill="#ABD0EF"/>
<path d="M43.4902 7.35938H5.84277V10.2027H43.4902V7.35938Z" fill="#00C5D8"/>
<path d="M7.56416 8.34277H7.56116C7.34913 8.34277 7.17725 8.51466 7.17725 8.72669V8.72968C7.17725 8.94171 7.34913 9.1136 7.56116 9.1136H7.56416C7.77619 9.1136 7.94807 8.94171 7.94807 8.72968V8.72669C7.94807 8.51466 7.77619 8.34277 7.56416 8.34277Z" fill="white"/>
<path d="M9.30976 8.34277H9.30676C9.09474 8.34277 8.92285 8.51466 8.92285 8.72669V8.72968C8.92285 8.94171 9.09474 9.1136 9.30676 9.1136H9.30976C9.52179 9.1136 9.69368 8.94171 9.69368 8.72968V8.72669C9.69368 8.51466 9.52179 8.34277 9.30976 8.34277Z" fill="white"/>
<path d="M11.0554 8.34277H11.0524C10.8403 8.34277 10.6685 8.51466 10.6685 8.72669V8.72968C10.6685 8.94171 10.8403 9.1136 11.0524 9.1136H11.0554C11.2674 9.1136 11.4393 8.94171 11.4393 8.72968V8.72669C11.4393 8.51466 11.2674 8.34277 11.0554 8.34277Z" fill="white"/>
<path d="M46.1115 47.7871L50.4755 53.3928L49.7227 56.3891L46.7864 58.2847L43.7781 55.6603L43.4001 49.1698L46.1115 47.7871Z" fill="#F7BDB5"/>
<path d="M33.6672 17.3291C33.6672 17.3291 36.0247 20.4154 33.6672 22.128C31.3098 23.8406 30.554 20.4454 30.554 20.4454L31.4837 18.4658L33.6672 17.3291Z" fill="#112770"/>
<path d="M34.396 31.6173C34.396 31.6173 39.9417 31.3173 43.3759 38.0268C46.8102 44.7363 47.9409 49.2832 47.9409 49.2832C47.9409 49.2832 45.4815 50.4829 43.4269 50.231C41.3724 49.9791 34.6899 40.9151 34.396 31.6173Z" fill="#112770"/>
<path d="M47.4071 47.514C46.8792 47.7509 44.8007 48.6177 43.0221 48.4138C41.3515 48.2128 36.6335 42.1992 34.762 34.9648C36.2316 42.991 41.6154 50.0364 43.427 50.2613C45.4815 50.5073 47.941 49.3136 47.941 49.3136C47.941 49.3136 47.785 48.6507 47.4071 47.514Z" fill="white"/>
<path d="M43.31 41.3473C38.568 30.2708 30.221 30.4868 30.221 30.4868H25.1221C25.1221 30.4868 16.814 29.8659 12.0721 40.9394C9.4687 47.016 7.14123 61.9706 6.54736 67.2314H48.2918C48.2918 67.2314 48.0579 52.4208 43.31 41.3473Z" fill="#2A4594"/>
<path d="M42.2393 55.9387L41.8944 55.0389L44.5578 54.406L44.9237 54.1061L38.0583 51.9646C38.0583 51.9646 35.6228 51.5447 35.1729 51.3317C34.723 51.1188 33.1664 50.5669 33.1664 50.5669L32.2666 50.9928L33.9072 53.3533L31.2498 55.9777C31.2498 55.9777 25.902 54.6789 25.2002 53.3533C24.4984 52.0276 22.6748 40.2372 22.6748 40.2372L16.9161 36.4161C16.9161 36.4161 15.6564 35.8912 14.6126 35.5913C13.2809 37.052 13.113 38.5216 12.0782 40.9361C9.4748 47.0127 7.14733 61.9673 6.55347 67.2281H27.1588C32.1676 64.7896 35.9558 58.737 37.2754 58.956C38.5951 59.1749 40.6437 59.2769 40.6437 59.2769L42.2393 55.9387Z" fill="#112770"/>
<path d="M22.8696 32.6849C22.8689 31.9591 23.0439 31.2439 23.3795 30.6003C23.8761 30.5277 24.3772 30.4896 24.8791 30.4864H30.5088C30.7976 30.4855 31.086 30.5026 31.3726 30.5373C31.6987 31.1435 31.8821 31.8161 31.9091 32.5039C31.936 33.1917 31.8057 33.8765 31.5281 34.5064C31.2505 35.1362 30.8329 35.6944 30.3071 36.1386C29.7813 36.5827 29.1611 36.9011 28.4937 37.0695C27.8263 37.2379 27.1293 37.2518 26.4557 37.1103C25.7822 36.9687 25.1497 36.6754 24.6066 36.2526C24.0634 35.8298 23.6238 35.2887 23.3213 34.6705C23.0187 34.0523 22.8612 33.3732 22.8606 32.6849H22.8696Z" fill="white"/>
<path d="M25.7251 25.4932C26.7389 27.2628 28.7784 28.9664 30.554 28.9694V32.7155C30.5548 33.1225 30.4753 33.5256 30.3201 33.9019C30.1649 34.2781 29.9371 34.62 29.6496 34.9081C29.3621 35.1962 29.0206 35.4247 28.6446 35.5806C28.2687 35.7365 27.8657 35.8168 27.4587 35.8168C27.0003 35.8186 26.5471 35.7184 26.1322 35.5235C25.7172 35.3286 25.3507 35.0438 25.0594 34.6898C24.768 34.3359 24.5589 33.9216 24.4474 33.4769C24.3359 33.0322 24.3246 32.5682 24.4144 32.1186L25.7251 25.4932Z" fill="#F4B5B5"/>
<path d="M30.554 29.5182V31.6178C25.8661 30.1841 25.7251 25.4932 25.7251 25.4932C26.8558 27.8176 28.7784 29.5182 30.554 29.5182Z" fill="#ED8E8C"/>
<path d="M33.5712 17.7876C33.5712 17.7876 35.0049 23.7622 33.1723 27.4334C31.3398 31.1046 27.5216 29.233 25.5031 25.7358C25.0662 25.7134 24.6472 25.5551 24.3047 25.283C23.9622 25.0109 23.7132 24.6386 23.5925 24.2181C23.1816 22.7185 24.0454 22.1186 24.9512 22.4185L24.6753 18.3875L33.5712 17.7876Z" fill="#F4B5B5"/>
<path d="M24.9542 23.0843C24.8512 23.0215 24.7329 22.9883 24.6123 22.9883C24.4917 22.9883 24.3734 23.0215 24.2704 23.0843C23.8025 23.4592 24.1774 25.0998 25.2572 24.8269C25.1171 24.7372 24.9973 24.6193 24.9052 24.4808C24.8131 24.3422 24.7509 24.1861 24.7224 24.0222C24.6939 23.8584 24.6998 23.6904 24.7397 23.5289C24.7796 23.3674 24.8527 23.216 24.9542 23.0843Z" fill="#E27171"/>
<path d="M33.6614 21.1441C33.5143 21.2004 33.3628 21.2446 33.2085 21.2761C33.0735 21.303 32.9505 21.321 32.8336 21.333C32.7166 21.345 32.6026 21.354 32.4766 21.357C32.3507 21.36 32.2187 21.378 32.0208 21.384C32.055 21.2071 32.148 21.0469 32.2846 20.9293C32.4212 20.8117 32.5935 20.7437 32.7736 20.7362C32.9422 20.7199 33.1122 20.7457 33.2685 20.8112C33.4323 20.8762 33.5703 20.9932 33.6614 21.1441Z" fill="#112770"/>
<path d="M31.0129 21.9478C30.9935 22.3012 31.0585 22.6541 31.2024 22.9774C31.3463 23.3008 31.5651 23.5852 31.8407 23.8073C32.2186 24.1493 32.2036 24.3802 31.9666 24.5362C31.8549 24.6013 31.7292 24.6387 31.6 24.6451C31.4708 24.6515 31.342 24.6268 31.2244 24.573C31.1068 24.5192 31.0038 24.4379 30.9242 24.3359C30.8446 24.234 30.7906 24.1144 30.7669 23.9873C30.6298 23.2986 30.7159 22.5841 31.0129 21.9478Z" fill="#E27171"/>
<path d="M32.9258 23.3316C33.2514 23.3091 33.4902 22.9278 33.4593 22.48C33.4284 22.0321 33.1394 21.6873 32.8138 21.7098C32.4883 21.7323 32.2494 22.1135 32.2804 22.5614C32.3113 23.0092 32.6003 23.354 32.9258 23.3316Z" fill="#112770"/>
<path d="M28.2534 21.5193C28.3227 21.3568 28.4426 21.2211 28.5953 21.1324C28.7427 21.0475 28.9083 20.9991 29.0782 20.9914C29.2569 20.9744 29.4361 21.0181 29.5869 21.1155C29.7376 21.2129 29.8511 21.3584 29.909 21.5283C29.7141 21.5523 29.5851 21.5523 29.4561 21.5673C29.3272 21.5823 29.2192 21.5853 29.0992 21.5913C28.9734 21.5986 28.8472 21.5986 28.7213 21.5913C28.5636 21.5803 28.4071 21.5562 28.2534 21.5193Z" fill="#112770"/>
<path d="M29.2776 23.585C29.6032 23.5625 29.842 23.1812 29.8111 22.7334C29.7802 22.2855 29.4912 21.9407 29.1656 21.9632C28.8401 21.9857 28.6012 22.367 28.6322 22.8148C28.6631 23.2626 28.9521 23.6075 29.2776 23.585Z" fill="#112770"/>
<path d="M33.5354 21.9536L32.8726 22.5205L33.6344 22.4665L33.5354 21.9536Z" fill="#F4B5B5"/>
<path d="M29.8911 22.2056L29.2283 22.7724L29.9931 22.7184L29.8911 22.2056Z" fill="#F4B5B5"/>
<path d="M14.1149 36.6894C18.9378 38.7589 18.8058 43.2879 18.8058 43.2879C18.1157 41.4293 16.9149 39.8033 15.3416 38.5969C12.8102 36.7404 13.617 36.4704 14.1149 36.6894Z" fill="#D9313A"/>
<path d="M45.7458 65.5094H80.7598C81.1091 65.5096 81.4493 65.3978 81.7306 65.1906C82.0118 64.9833 82.2192 64.6914 82.3224 64.3576L88.372 44.9341C88.4488 44.6891 88.4668 44.4294 88.4245 44.1761C88.3823 43.9229 88.281 43.6831 88.1288 43.4763C87.9766 43.2695 87.7778 43.1015 87.5486 42.9858C87.3194 42.8701 87.0661 42.8101 86.8094 42.8105H51.7984C51.4494 42.8101 51.1095 42.9214 50.8283 43.1281C50.5471 43.3348 50.3395 43.6261 50.2357 43.9593L44.1831 63.3858C44.107 63.6308 44.0895 63.8903 44.132 64.1433C44.1746 64.3963 44.276 64.6357 44.428 64.8424C44.5801 65.049 44.7785 65.217 45.0074 65.3328C45.2363 65.4487 45.4892 65.5092 45.7458 65.5094Z" fill="#5883D1"/>
<path d="M73.5793 45.2705H86.1765C86.279 45.2705 86.3801 45.2949 86.4714 45.3416C86.5628 45.3883 86.6417 45.456 86.7017 45.5392C86.7617 45.6224 86.8012 45.7186 86.8168 45.82C86.8323 45.9213 86.8236 46.025 86.7913 46.1223L83.891 54.7813C83.891 54.7813 84.8088 49.3016 83.813 47.388C82.8172 45.4745 76.6296 46.2153 73.5793 45.2705Z" fill="#6EA2ED"/>
<path d="M44.1829 63.3712L49.7556 45.4833L51.5552 44.5835C51.5552 44.5835 46.3874 66.2775 82.2262 64.5499C82.0933 64.828 81.8845 65.0628 81.624 65.2273C81.3634 65.3918 81.0617 65.4793 80.7535 65.4797H45.7455C45.52 65.4809 45.2967 65.4349 45.09 65.3444C44.8834 65.254 44.698 65.1213 44.5458 64.9548C44.4608 64.8642 44.3873 64.7635 44.3268 64.6549C44.1694 64.3822 44.0944 64.0696 44.1109 63.7551C44.1198 63.6248 44.144 63.4959 44.1829 63.3712Z" fill="#4B6AC4"/>
<path d="M44.183 63.3712L50.2356 43.9446C50.3393 43.6114 50.547 43.3202 50.8282 43.1135C51.1093 42.9068 51.4493 42.7955 51.7982 42.7959H86.8002C87.1538 42.7951 87.4981 42.909 87.7815 43.1204C88.0648 43.3319 88.272 43.6295 88.3719 43.9686C88.2209 43.9241 88.0644 43.9009 87.907 43.8997H52.908C52.5586 43.8994 52.2184 44.0112 51.9372 44.2184C51.656 44.4257 51.4486 44.7176 51.3454 45.0514L45.2897 64.4749C45.1954 64.7848 45.1954 65.1158 45.2897 65.4257C45.0812 65.365 44.8869 65.2633 44.7181 65.1268C44.5492 64.9902 44.4092 64.8214 44.3062 64.6302C44.2032 64.439 44.1393 64.2292 44.1181 64.0131C44.097 63.7969 44.119 63.5787 44.183 63.3712Z" fill="#6EA2ED"/>
<path d="M25.4612 67.2314H63.6695C64.1499 67.2314 64.5393 66.8427 64.5393 66.3631C64.5393 65.8836 64.1499 65.4948 63.6695 65.4948H25.4612C24.9809 65.4948 24.5914 65.8836 24.5914 66.3631C24.5914 66.8427 24.9809 67.2314 25.4612 67.2314Z" fill="#5883D1"/>
<path d="M41.4476 67.2314H79.6558C80.1362 67.2314 80.5256 66.8427 80.5256 66.3631C80.5256 65.8836 80.1362 65.4948 79.6558 65.4948H41.4476C40.9672 65.4948 40.5778 65.8836 40.5778 66.3631C40.5778 66.8427 40.9672 67.2314 41.4476 67.2314Z" fill="#6EA2ED"/>
<path d="M44.3059 53.4526L33.2084 49.8144C33.0076 49.7489 32.7889 49.7654 32.6002 49.8603C32.4114 49.9552 32.2678 50.1209 32.2007 50.3213C32.1655 50.4262 32.1525 50.5372 32.1624 50.6473C32.1723 50.7575 32.2049 50.8644 32.2581 50.9613C32.3114 51.0583 32.3841 51.1431 32.4718 51.2105C32.5595 51.278 32.6602 51.3265 32.7675 51.3531L44.1049 54.1514C44.1522 54.1634 44.2015 54.1657 44.2497 54.1582C44.2979 54.1507 44.3441 54.1336 44.3855 54.1078C44.427 54.082 44.4628 54.0482 44.4909 54.0083C44.5189 53.9684 44.5386 53.9232 44.5488 53.8755C44.5681 53.7874 44.5539 53.6953 44.509 53.6171C44.4641 53.539 44.3917 53.4803 44.3059 53.4526Z" fill="#5883D1"/>
<path d="M39.5191 52.6875C38.7457 52.5091 37.9513 52.4394 37.1587 52.4805L38.4664 51.1009C40.2419 50.8549 41.5496 50.618 41.4297 50.0421C41.2887 49.3553 37.9055 48.9204 36.3698 50.0151C34.2913 51.4968 31.271 55.9808 31.271 55.9808L33.3255 59.6789C33.3255 59.6789 36.6248 57.6964 37.1347 57.6334C37.6445 57.5704 38.8383 58.3232 39.855 58.5152C40.8718 58.7071 40.6648 57.7204 40.6648 57.7204C41.6366 57.5884 41.5646 56.5206 41.5646 56.5206C41.7143 56.4713 41.8529 56.3929 41.9723 56.2899C42.0917 56.187 42.1896 56.0616 42.2605 55.9208C42.4704 55.4739 41.5646 53.1464 39.5191 52.6875Z" fill="#F7BDB5"/>
<path d="M39.7648 50.6424C40.3543 50.6921 40.9422 50.5305 41.4235 50.1865C41.3095 50.6604 40.0828 50.8764 38.4661 51.0863L37.1584 52.466C37.7853 51.5662 38.2922 50.7294 38.2922 50.7294C38.7738 50.6119 39.2727 50.5824 39.7648 50.6424Z" fill="#EA9686"/>
<path d="M21.1151 56.8927C21.1151 56.8927 26.214 56.4398 31.2498 55.9929L33.3043 59.6911C33.3043 59.6911 25.2752 64.52 17.8309 63.1973C11.8832 61.6976 12.2911 46.806 12.759 41.0204C13.122 36.5424 15.1885 34.8658 16.9821 34.9378C21.7 35.1207 21.3911 50.1023 21.1151 56.9047" fill="#F7BDB5"/>
<path d="M13.353 56.3885C12.9864 54.6086 12.7508 52.8042 12.6482 50.9897L17.5641 51.0437L20.0445 51.9975L21.2442 53.5182C21.2442 53.5182 18.6258 56.0526 13.353 56.3885Z" fill="#EA9686"/>
<path d="M42.1795 56.0379C42.101 56.1132 42.0004 56.1614 41.8924 56.1755C41.7845 56.1895 41.6749 56.1686 41.5797 56.1159C41.2797 55.9389 40.05 54.2203 39.1382 54.0764C38.4814 53.9714 37.2097 53.8874 36.2649 54.3043C36.6098 54.2113 38.9253 54.1243 39.4562 54.5083C40.1961 55.1403 40.8972 55.8163 41.5557 56.5328C41.8125 56.4412 42.0319 56.2672 42.1795 56.0379Z" fill="#EA9686"/>
<path d="M40.9556 57.2466C40.4548 57.3606 38.8561 55.9749 38.6102 55.8009C38.3642 55.627 36.5107 55.627 36.2917 55.7289C36.0728 55.8309 38.0913 55.9209 38.4422 55.9719C38.7931 56.0229 40.0888 57.4715 40.6557 57.7205C41.6275 57.5885 41.5555 56.5207 41.5555 56.5207C41.5555 56.5207 41.4565 57.1356 40.9556 57.2466Z" fill="#EA9686"/>
<path d="M22.9148 53.2273C22.9148 53.2273 16.8592 54.64 11.0105 53.9922C11.0105 53.9922 9.75983 34.0617 18.1309 32.664C22.141 31.9922 23.2837 37.436 22.9148 53.2273Z" fill="#2A4594"/>
<path d="M12.2881 49.7723C12.2881 49.7723 12.4141 38.6479 15.4554 35.6336C18.4967 32.6193 12.648 43.3988 12.2881 49.7723Z" fill="#3C61AA"/>
<path d="M22.9387 51.5C22.9387 52.0609 22.9387 52.6367 22.9147 53.2276C22.9147 53.2276 16.8591 54.6403 11.0104 53.9924C11.0104 53.9924 10.9474 53.3536 10.8784 52.3038C16.3612 52.8407 21.9249 51.713 22.9387 51.5Z" fill="white"/>
<path d="M44.2188 53.8032L44.8786 53.9922" stroke="#5883D1" stroke-width="0.299931" stroke-miterlimit="10" stroke-linecap="round"/>
<path d="M41.7775 52.6128L44.306 53.4436C44.3986 53.4702 44.4769 53.5326 44.5236 53.617C44.5703 53.7014 44.5816 53.8008 44.5549 53.8935C44.5283 53.9862 44.4659 54.0645 44.3815 54.1112C44.2971 54.1578 44.1977 54.1691 44.105 54.1424L41.5376 53.5126L41.7775 52.6128Z" fill="#6EA2ED"/>
<path d="M32.1228 26.0839C31.1577 26.0696 30.2061 25.8562 29.3274 25.457C29.5555 26.0174 29.9828 26.4736 30.5271 26.7377C31.3729 27.1007 32.1228 26.0839 32.1228 26.0839Z" fill="#E27171"/>
<path d="M24.0845 22.4425C24.0845 22.4425 22.0989 16.9537 25.7251 16.7768C25.7251 16.7768 27.7496 13.5435 31.2828 13.4775C34.72 13.4025 33.5713 17.7995 33.5713 17.7995L24.6753 18.4144L24.9513 22.4455C24.6632 22.4144 24.3727 22.4134 24.0845 22.4425Z" fill="#2A4594"/>
<path d="M24.9514 22.4336C24.9514 22.4336 26.676 21.9507 27.2189 19.7702C27.2189 19.7702 32.7107 21.0179 34.5462 18.3335C36.3818 15.6491 30.5541 16.063 30.5541 16.063C30.5541 16.063 28.8505 16.363 28.6766 16.4379C28.5026 16.5129 26.694 16.9208 26.694 16.9208C26.694 16.9208 24.0096 17.8626 24.0726 18.0126C24.2015 18.5841 24.3016 19.1617 24.3726 19.7432C24.3726 19.8572 24.3726 20.1211 24.3726 20.2711C24.3726 20.421 24.9514 22.4336 24.9514 22.4336Z" fill="#2A4594"/>
<path d="M34.5461 18.3334C35.3259 17.1877 34.7141 16.6058 33.7573 16.3179C33.7573 16.3179 34.0272 16.6178 33.7573 17.4546C33.6181 17.8367 33.3766 18.1733 33.0593 18.4277C32.742 18.682 32.361 18.8445 31.9577 18.8973C32.0751 18.7233 32.1538 18.5262 32.1884 18.3192C32.2231 18.1123 32.213 17.9003 32.1587 17.6976C31.9555 18.1045 31.6468 18.4494 31.2649 18.6963C30.8829 18.9432 30.4416 19.0831 29.9872 19.1012C28.3315 19.2392 26.7209 18.3784 26.7209 18.3784C26.7209 18.3784 26.7959 20.223 25.1043 20.244C23.4127 20.265 23.7426 18.1924 23.7456 18.1804C23.1457 19.8571 24.0935 22.4455 24.0935 22.4455C24.3817 22.4154 24.6722 22.4154 24.9603 22.4455C24.9603 22.4455 26.6849 21.9626 27.2278 19.7821C27.2188 19.7701 32.7105 21.0178 34.5461 18.3334Z" fill="#112770"/>
<path d="M69.9216 55.1912C70.2016 53.9536 69.6153 52.7663 68.612 52.5393C67.6087 52.3123 66.5683 53.1315 66.2883 54.369C66.0083 55.6066 66.5946 56.7939 67.5979 57.0209C68.6012 57.248 69.6416 56.4287 69.9216 55.1912Z" fill="#2A4594"/>
<path d="M60.3341 30.439H47.6261C47.2467 30.439 46.9392 30.7465 46.9392 31.1258V36.8725C46.9392 37.2518 47.2467 37.5593 47.6261 37.5593H60.3341C60.7135 37.5593 61.021 37.2518 61.021 36.8725V31.1258C61.021 30.7465 60.7135 30.439 60.3341 30.439Z" fill="#2A4594"/>
<path d="M54.8454 37.5591L51.894 40.5104V37.5591H54.8454Z" fill="#2A4594"/>
<path d="M48.8198 32.3643H59.1375" stroke="white" stroke-width="0.599863" stroke-miterlimit="10"/>
<path d="M48.8198 33.999H59.1375" stroke="white" stroke-width="0.599863" stroke-miterlimit="10"/>
<path d="M48.8198 35.6333H54.4495" stroke="white" stroke-width="0.599863" stroke-miterlimit="10"/>
<path d="M71.8185 19.8418H56.3781C55.9159 19.8418 55.5413 20.2164 55.5413 20.6786V27.658C55.5413 28.1202 55.9159 28.4948 56.3781 28.4948H71.8185C72.2807 28.4948 72.6554 28.1202 72.6554 27.658V20.6786C72.6554 20.2164 72.2807 19.8418 71.8185 19.8418Z" fill="#00C5D8"/>
<path d="M63.0457 28.4951L66.6328 32.0793V28.4951H63.0457Z" fill="#00C5D8"/>
<path d="M70.3698 22.1006H57.8267" stroke="white" stroke-width="0.599863" stroke-miterlimit="10"/>
<path d="M70.3698 24.0864H57.8267" stroke="white" stroke-width="0.599863" stroke-miterlimit="10"/>
<path d="M70.3698 24.0864H57.8267" stroke="white" stroke-width="0.599863" stroke-miterlimit="10"/>
<path d="M70.3698 26.0747H57.8267" stroke="white" stroke-width="0.599863" stroke-miterlimit="10"/>
<path d="M85.5315 37.8828C90.7295 37.8828 94.9433 33.669 94.9433 28.4709C94.9433 23.2729 90.7295 19.0591 85.5315 19.0591C80.3335 19.0591 76.1196 23.2729 76.1196 28.4709C76.1196 33.669 80.3335 37.8828 85.5315 37.8828Z" fill="#5883D1"/>
<path d="M79.5809 18.3456C79.5809 18.3456 77.6134 19.4854 78.4442 23.4235C79.275 27.3616 76.4856 27.3016 75.5888 26.1228C74.6921 24.9441 73.3184 28.4563 76.5456 31.3057C78.9811 33.4532 84.3858 33.8521 84.3858 33.8521L88.4649 32.7903C88.9885 32.3365 89.4458 31.8115 89.8236 31.2307C90.1204 30.7635 90.3544 30.2593 90.5194 29.731C90.7204 29.1312 92.9189 20.1332 88.099 16.792C83.2791 13.4507 79.362 15.5293 79.5809 18.3456Z" fill="#2A4594"/>
<path d="M86.5481 33.3028C86.719 31.2573 86.83 27.7391 86.5481 27.1303C86.1642 26.2784 84.4486 23.696 84.4486 23.696L79.4547 19.437C79.4547 19.437 78.402 20.5198 79.1188 23.5911C79.8356 26.6624 79.7846 28.4499 78.7709 29.3797C77.9161 30.1656 75.9065 30.2795 74.7908 28.8519C75.1615 29.8077 75.7645 30.656 76.5454 31.3203C78.9808 33.4678 84.3856 33.8667 84.3856 33.8667L86.5481 33.3028Z" fill="#112770"/>
<path d="M87.2531 35.5469L78.2761 40.4927L80.2917 35.5469H87.2531Z" fill="#00C5D8"/>
<mask id="mask0_62_3924" style="mask-type:luminance" maskUnits="userSpaceOnUse" x="76" y="12" width="19" height="27">
<path d="M94.9433 28.4711C94.9656 29.721 94.7387 30.9628 94.2758 32.1241C93.8129 33.2854 93.1233 34.3428 92.2473 35.2346C91.3712 36.1264 90.3263 36.8348 89.1735 37.3183C88.0207 37.8019 86.7831 38.0509 85.5329 38.0509C84.2828 38.0509 83.0452 37.8019 81.8924 37.3183C80.7396 36.8348 79.6947 36.1264 78.8186 35.2346C77.9426 34.3428 77.253 33.2854 76.7901 32.1241C76.3272 30.9628 76.1003 29.721 76.1226 28.4711C76.1226 23.2733 77.5683 12.5747 82.7661 12.5747C87.9639 12.5747 94.9433 23.2733 94.9433 28.4711Z" fill="white"/>
</mask>
<g mask="url(#mask0_62_3924)">
<path d="M101.638 38.8158C97.0279 29.0501 87.901 29.239 87.901 29.239H82.9371C82.9371 29.239 74.824 29.0501 70.217 38.8158C65.6101 48.5816 65.3792 61.6376 65.3792 61.6376H100.222C101.04 61.6383 101.849 61.465 102.595 61.1294C103.341 60.7937 104.007 60.3033 104.549 59.6907C105.091 59.0781 105.496 58.3573 105.739 57.576C105.981 56.7947 106.054 55.9709 105.954 55.1591C105.378 50.5282 104.166 44.1816 101.638 38.8158Z" fill="#00C5D8"/>
<path d="M89.6796 31.1856C89.6791 30.5456 89.5248 29.915 89.2297 29.347C88.7895 29.2845 88.3456 29.2514 87.901 29.248H82.9371C82.6825 29.2485 82.4282 29.2636 82.1753 29.293C81.8842 29.8277 81.7193 30.4219 81.6931 31.0301C81.667 31.6384 81.7803 32.2445 82.0243 32.8022C82.2684 33.36 82.6368 33.8545 83.1014 34.2479C83.5659 34.6414 84.1143 34.9234 84.7046 35.0724C85.2949 35.2214 85.9114 35.2334 86.507 35.1075C87.1027 34.9817 87.6616 34.7212 88.1411 34.3461C88.6206 33.971 89.008 33.4913 89.2736 32.9435C89.5392 32.3957 89.6761 31.7944 89.6736 31.1856H89.6796Z" fill="white"/>
<path d="M87.1631 24.8452C86.2633 26.4049 84.4637 27.9075 82.9041 27.9105V31.2098C82.9037 31.5683 82.974 31.9234 83.111 32.2547C83.248 32.586 83.4491 32.8871 83.7026 33.1406C83.9561 33.3941 84.2572 33.5952 84.5885 33.7322C84.9198 33.8692 85.2749 33.9395 85.6334 33.9391C86.0352 33.9378 86.4317 33.8477 86.7946 33.6753C87.1575 33.5028 87.4778 33.2523 87.7326 32.9417C87.9873 32.631 88.1703 32.2679 88.2684 31.8782C88.3664 31.4886 88.3772 31.0821 88.2998 30.6879L87.1631 24.8452Z" fill="#F4B5B5"/>
<path d="M82.9011 28.3844V30.244C87.0342 28.9783 87.1602 24.8452 87.1602 24.8452C86.1644 26.8967 84.4698 28.3814 82.9011 28.3844Z" fill="#ED8E8C"/>
<path d="M79.4488 19.437C79.2929 21.1646 79.1969 24.5598 80.5196 26.8033C82.3342 29.8896 85.6004 28.054 87.1631 24.8447C87.5468 24.8001 87.9068 24.6359 88.1921 24.3754C88.4774 24.1148 88.6735 23.7712 88.7527 23.3931C89.0196 22.0644 88.2248 21.5935 87.445 21.8934V18.3452C87.445 18.3452 79.5118 18.7651 79.4488 19.437Z" fill="#F4B5B5"/>
<path d="M81.6653 25.8077C82.5163 25.7951 83.3556 25.6073 84.1307 25.2559C83.9314 25.7481 83.5576 26.1495 83.081 26.3836C82.3281 26.7045 81.6653 25.8077 81.6653 25.8077Z" fill="#E27171"/>
<path d="M87.322 24.0289C88.2908 24.2059 88.5217 22.7392 88.0838 22.4393C87.9902 22.3893 87.8844 22.3664 87.7784 22.3733C87.6724 22.3802 87.5704 22.4165 87.484 22.4783C87.484 22.4783 87.8919 22.4783 87.8739 23.1082C87.8654 23.2953 87.8105 23.4775 87.7142 23.6382C87.6179 23.7989 87.4831 23.9332 87.322 24.0289Z" fill="#F47F60"/>
<path d="M80.1925 22.4214L80.8103 22.8773H80.1355L80.1925 22.4214Z" fill="#FFB583"/>
<path d="M83.4107 22.4214L84.0286 22.8773H83.3538L83.4107 22.4214Z" fill="#FFB583"/>
</g>
<path d="M79.8147 22.0197C79.9041 21.9128 80.0199 21.8311 80.1506 21.7827C80.2796 21.7276 80.4183 21.699 80.5585 21.6987C80.702 21.6991 80.8435 21.7319 80.9724 21.7947C81.1022 21.8597 81.2074 21.9649 81.2724 22.0946C81.1314 22.0706 81.0174 22.0377 80.9004 22.0287C80.787 22.0143 80.6728 22.0073 80.5585 22.0077C80.3246 21.9867 80.0936 22.0197 79.8147 22.0197Z" fill="#112770"/>
<path d="M82.2172 22.4814C82.2656 22.79 82.24 23.1057 82.1425 23.4024C82.045 23.6991 81.8783 23.9684 81.6563 24.1881C81.3564 24.521 81.3863 24.7219 81.6083 24.8389C81.7131 24.886 81.8276 24.9072 81.9423 24.9005C82.057 24.8939 82.1684 24.8597 82.267 24.8008C82.3656 24.7419 82.4486 24.6601 82.5088 24.5623C82.5691 24.4645 82.6048 24.3536 82.6131 24.239C82.6712 23.626 82.5326 23.0104 82.2172 22.4814Z" fill="#E27171"/>
<path d="M80.6487 23.8643C80.9368 23.8555 81.1605 23.5276 81.1484 23.1319C81.1363 22.7362 80.893 22.4225 80.6049 22.4313C80.3168 22.4401 80.0931 22.7681 80.1051 23.1638C80.1172 23.5595 80.3606 23.8731 80.6487 23.8643Z" fill="#112770"/>
<path d="M84.5926 21.867C84.3137 21.885 84.0797 21.867 83.8488 21.891C83.7341 21.8966 83.6199 21.9096 83.5068 21.93C83.3899 21.948 83.2789 21.987 83.1379 22.02C83.1992 21.8927 83.2988 21.7878 83.4229 21.7201C83.5478 21.6492 83.6874 21.6082 83.8308 21.6001C83.9702 21.5916 84.1099 21.6109 84.2417 21.6571C84.3745 21.6963 84.4953 21.7685 84.5926 21.867Z" fill="#112770"/>
<path d="M83.8716 23.7662C84.1597 23.7574 84.3834 23.4295 84.3713 23.0337C84.3592 22.638 84.1159 22.3244 83.8278 22.3332C83.5397 22.342 83.316 22.6699 83.328 23.0656C83.3401 23.4613 83.5835 23.775 83.8716 23.7662Z" fill="#112770"/>
<path d="M79.9949 22.7124L80.6277 23.1503L79.9529 23.1713L79.9949 22.7124Z" fill="#FFB583"/>
<path d="M83.2131 22.6138L83.846 23.0517L83.1711 23.0727L83.2131 22.6138Z" fill="#FFB583"/>
<path d="M89.3495 17.9851L88.5757 19.3408C88.3153 18.9071 88.014 18.4993 87.6759 18.1231C87.31 17.7421 87.6249 17.5232 86.6651 17.1783C85.7053 16.8334 85.1925 16.3985 84.3947 16.5634C83.5968 16.7284 82.0852 17.1093 82.0852 17.1093C81.729 17.1352 81.3794 17.2193 81.0504 17.3582C79.3198 18.8189 79.4608 19.4368 79.4608 19.4368C79.4608 19.4368 79.9197 20.4625 83.3449 20.5945C85.1445 20.6635 86.0893 21.7642 86.5901 22.844C86.6171 22.91 87.7029 25.7713 86.8901 28.7886C86.0773 31.8059 83.8008 30.7352 83.5009 30.9991C83.2009 31.2631 84.2867 34.5503 89.1576 33.1496C94.0284 31.7489 93.7255 22.1721 89.3495 17.9851Z" fill="#2A4594"/>
<path d="M83.3359 20.5947C85.1355 20.6637 86.0803 21.7645 86.5812 22.8442C86.6082 22.9102 87.6939 25.7716 86.8811 28.7889C86.4042 30.5555 85.4415 30.9214 84.6586 30.9754C87.8949 30.8704 88.8907 27.8561 88.2098 24.2959C87.529 20.7357 85.6934 19.359 83.174 19.8239C80.6546 20.2888 79.4548 19.437 79.4548 19.437C79.4548 19.437 79.9017 20.4628 83.3359 20.5947Z" fill="#112770"/>
<path d="M87.7269 54.2773H98.3445V52.9307H87.7269V54.2773Z" fill="#5883D1"/>
<path d="M97.148 52.9307H96.5061V54.2774H97.148V52.9307Z" fill="#6EA2ED"/>
<path d="M89.9435 52.9307H87.7271V54.2774H89.9435V52.9307Z" fill="#4B6AC4"/>
<path d="M93.0356 54.2773H97.6245L96.6017 67.0934H93.0356H89.4694L88.4436 54.2773H93.0356Z" fill="#2A4594"/>
<path d="M96.5062 54.2773L95.4834 67.0934H96.1223L97.148 54.2773H96.5062Z" fill="#4B6AC4"/>
<path d="M89.9433 54.2773L90.969 67.0934H89.4694L88.4436 54.2773H89.9433Z" fill="#112770"/>
<path d="M97.6247 52.9308V52.061H96.6289L95.3872 52.9308H97.6247Z" fill="#6EA2ED"/>
<path d="M93.0357 62.0665C94.1174 62.0665 94.9943 61.1896 94.9943 60.108C94.9943 59.0263 94.1174 58.1494 93.0357 58.1494C91.954 58.1494 91.0771 59.0263 91.0771 60.108C91.0771 61.1896 91.954 62.0665 93.0357 62.0665Z" fill="#4B6AC4"/>
<path d="M72.0076 15.0612C74.2803 15.0612 76.1227 13.2188 76.1227 10.9461C76.1227 8.67343 74.2803 6.83105 72.0076 6.83105C69.735 6.83105 67.8926 8.67343 67.8926 10.9461C67.8926 13.2188 69.735 15.0612 72.0076 15.0612Z" fill="#00C5D8"/>
<path fill-rule="evenodd" clip-rule="evenodd" d="M70.8618 10.9466V9.22803L72.3495 10.0858L73.8371 10.9466L72.3495 11.8044L70.8618 12.6652V10.9466Z" fill="white"/>
<path d="M104.259 67.0933H0.740831C0.331681 67.0933 0 67.4243 0 67.8326C0 68.2409 0.331681 68.5719 0.740831 68.5719H104.259C104.668 68.5719 105 68.2409 105 67.8326C105 67.4243 104.668 67.0933 104.259 67.0933Z" fill="#112770"/>
<path d="M44.9238 48.8545C44.9238 48.8545 41.3306 35.1656 34.9121 33.1171C28.4936 31.0685 39.4111 34.6707 44.9238 48.8545Z" fill="#3C61AA"/>
<path d="M26.4568 16.6777C26.4568 16.6777 28.2984 14.2063 30.6888 14.1523C33.0793 14.0983 31.1837 14.5212 26.4568 16.6777Z" fill="#3C61AA"/>
<path d="M88.7138 17.9737C88.7138 17.9737 86.1674 15.1544 82.6312 15.8172C79.095 16.4801 85.6305 15.8922 88.7138 17.9737Z" fill="#3C61AA"/>
</svg>
