<svg width="100" height="71" viewBox="0 0 100 71" fill="none" xmlns="http://www.w3.org/2000/svg">
<path d="M17.0331 69.3535C17.0331 69.3535 -10.5378 -4.51217 40.0612 0.485824C61.7331 2.62727 57.6877 15.6198 67.2588 27.7761C73.463 35.6558 85.3957 29.2097 89.8669 36.0952C94.3381 42.9806 89.0837 62.6139 87.2407 69.3535H17.0331Z" fill="#E5F0F8"/>
<path d="M17.4463 69.0456C17.4463 69.0456 15.2865 60.4315 9.90226 57.771C4.51798 55.1105 -1.22795 58.7521 0.229776 62.5802C1.4876 65.881 6.66184 61.8221 10.6869 63.4184C14.7119 65.0147 15.3474 69.0456 15.3474 69.0456H17.4463Z" fill="#40A87B"/>
<path d="M1.27173 60.2862C1.27173 60.2862 7.05001 56.9932 11.3373 60.0376C15.6245 63.0819 16.9813 69.0452 16.9813 69.0452" stroke="#6ADB6A" stroke-width="0.271479" stroke-miterlimit="10"/>
<path d="M2.20361 58.7439L3.54836 59.3301" stroke="#6ADB6A" stroke-width="0.271479" stroke-miterlimit="10"/>
<path d="M4.14551 57.488L6.82292 58.7439" stroke="#6ADB6A" stroke-width="0.271479" stroke-miterlimit="10"/>
<path d="M8.16895 57.488L9.56197 59.1341" stroke="#6ADB6A" stroke-width="0.271479" stroke-miterlimit="10"/>
<path d="M10.8096 58.5911L11.4358 60.1067" stroke="#6ADB6A" stroke-width="0.271479" stroke-miterlimit="10"/>
<path d="M2.87573 62.3815L4.93992 58.9673" stroke="#6ADB6A" stroke-width="0.271479" stroke-miterlimit="10"/>
<path d="M6.52222 61.8923L8.415 58.8523" stroke="#6ADB6A" stroke-width="0.271479" stroke-miterlimit="10"/>
<path d="M9.73755 61.4262L12.5835 61.0723" stroke="#6ADB6A" stroke-width="0.271479" stroke-miterlimit="10"/>
<path d="M13.0503 63.1501L14.6814 63.6861" stroke="#6ADB6A" stroke-width="0.271479" stroke-miterlimit="10"/>
<path d="M19.0222 69.0704C19.0222 69.0704 20.5461 40.191 6.75244 43.9138C-7.04118 47.6366 17.5123 63.2004 17.4915 69.0704H19.0222Z" fill="#6ADB6A"/>
<path d="M18.4648 69.0702C18.4648 69.0702 17.982 53.9815 8.15063 46.521" stroke="#40A87B" stroke-width="0.271479" stroke-miterlimit="10"/>
<path d="M12.4633 50.8961L12.2175 45.6929" stroke="#40A87B" stroke-width="0.271479" stroke-miterlimit="10"/>
<path d="M4.74902 48.7405L11.395 49.6067" stroke="#40A87B" stroke-width="0.271479" stroke-miterlimit="10"/>
<path d="M7.3335 53.1809L14.3604 53.9998" stroke="#40A87B" stroke-width="0.271479" stroke-miterlimit="10"/>
<path d="M10.8469 57.5813L16.2747 58.3486" stroke="#40A87B" stroke-width="0.271479" stroke-miterlimit="10"/>
<path d="M16.7949 53.47L15.551 56.4921" stroke="#40A87B" stroke-width="0.271479" stroke-miterlimit="10"/>
<path d="M14.7505 48.564L13.6902 52.8193" stroke="#40A87B" stroke-width="0.271479" stroke-miterlimit="10"/>
<path d="M17.9561 58.5151L16.9653 60.491" stroke="#40A87B" stroke-width="0.271479" stroke-miterlimit="10"/>
<path d="M13.6902 61.6611L17.5796 62.8871" stroke="#40A87B" stroke-width="0.271479" stroke-miterlimit="10"/>
<path d="M23.8807 65.2341L14.8132 33.3837L27.8918 2.45996" stroke="#93ACBF" stroke-width="0.549447" stroke-miterlimit="10"/>
<path d="M28.3906 4.85584C29.6645 4.85584 30.6971 3.82315 30.6971 2.54926C30.6971 1.27537 29.6645 0.242676 28.3906 0.242676C27.1167 0.242676 26.084 1.27537 26.084 2.54926C26.084 3.82315 27.1167 4.85584 28.3906 4.85584Z" fill="#BBDBF3"/>
<path d="M14.8132 36.1862C16.361 36.1862 17.6157 34.9315 17.6157 33.3838C17.6157 31.836 16.361 30.5813 14.8132 30.5813C13.2655 30.5813 12.0107 31.836 12.0107 33.3838C12.0107 34.9315 13.2655 36.1862 14.8132 36.1862Z" fill="white"/>
<path d="M27.2051 12.4684L32.3257 19.6976L43.5583 11.7412L38.4377 4.51193C36.3068 1.50424 32.4923 0.427484 29.4962 1.82244C29.1512 1.98433 28.8214 2.17679 28.5107 2.39752C25.4214 4.5858 24.8328 9.11978 27.2051 12.4684Z" fill="#BBDBF3"/>
<path opacity="0.3" d="M43.5583 11.7415L85.8807 68.9092H46.7861L32.3257 19.6979L43.5583 11.7415Z" fill="#F9ECB8"/>
<path d="M29.0737 11.1449L34.1944 18.3746L43.5583 11.7417L38.4377 4.51193C36.3068 1.50424 32.4923 0.427484 29.4962 1.82244C27.1978 4.18793 26.9482 8.14394 29.0737 11.1449Z" fill="white"/>
<path d="M32.3258 19.6979C32.7024 20.229 35.5238 18.877 38.6266 16.6791C41.7294 14.4812 43.935 12.2736 43.5584 11.7415C43.2542 11.3117 41.3614 12.1099 39.0119 13.5792C38.4537 13.9326 37.8646 14.3305 37.2644 14.7559C36.6642 15.1813 36.094 15.6052 35.5745 16.0142C33.4016 17.7472 32.0216 19.2682 32.3258 19.6979Z" fill="#93ACBF"/>
<path d="M35.5745 16.0144C35.9301 16.3745 36.4021 16.5966 36.9063 16.641C37.4105 16.6853 37.914 16.549 38.327 16.2564C38.74 15.9638 39.0355 15.5339 39.1609 15.0436C39.2863 14.5532 39.2333 14.0343 39.0114 13.5793C38.4537 13.9328 37.8646 14.3307 37.2644 14.7561C36.6643 15.1814 36.094 15.6054 35.5745 16.0144Z" fill="#F9E181"/>
<path d="M28.9114 68.9202H13.5185V66.251C13.5185 65.7593 13.7138 65.2879 14.0615 64.9402C14.4091 64.5926 14.8806 64.3973 15.3722 64.3973H27.0572C27.5488 64.3973 28.0203 64.5926 28.368 64.9402C28.7156 65.2879 28.9109 65.7593 28.9109 66.251V68.9202H28.9114Z" fill="#BBDBF3"/>
<path d="M14.8119 35.0007C15.1318 35.0005 15.4444 34.9055 15.7103 34.7276C15.9762 34.5497 16.1834 34.297 16.3057 34.0014C16.4279 33.7058 16.4598 33.3806 16.3972 33.0668C16.3347 32.7531 16.1805 32.465 15.9542 32.2389C15.7279 32.0128 15.4396 31.8589 15.1258 31.7966C14.8121 31.7343 14.4868 31.7665 14.1913 31.889C13.8958 32.0115 13.6433 32.2189 13.4657 32.485C13.288 32.751 13.1933 33.0638 13.1934 33.3837C13.1939 33.8126 13.3646 34.2239 13.6681 34.527C13.9715 34.8302 14.3829 35.0006 14.8119 35.0007Z" stroke="#BBDBF3" stroke-width="0.549447" stroke-miterlimit="10"/>
<path d="M32.3257 68.9202H16.9329V66.251C16.9329 65.7593 17.1282 65.2879 17.4758 64.9402C17.8234 64.5926 18.2949 64.3973 18.7865 64.3973H30.4715C30.9632 64.3973 31.4346 64.5926 31.7823 64.9402C32.1299 65.2879 32.3252 65.7593 32.3252 66.251V68.9202H32.3257Z" fill="white"/>
<path d="M87.2219 69.0986C87.2219 69.0986 88.8037 62.7882 92.7477 60.8419C96.6916 58.8955 100.9 61.5608 99.8316 64.3667C98.9098 66.7843 95.1199 63.8114 92.1716 64.9804C89.2233 66.1494 88.7584 69.102 88.7584 69.102L87.2219 69.0986Z" fill="#40A87B"/>
<path d="M99.0693 62.6817C99.0693 62.6817 94.8367 60.2698 91.6962 62.4996C88.5557 64.7295 87.5625 69.0988 87.5625 69.0988" stroke="#6ADB6A" stroke-width="0.199012" stroke-miterlimit="10"/>
<path d="M98.3861 61.5537L97.4016 61.983" stroke="#6ADB6A" stroke-width="0.199012" stroke-miterlimit="10"/>
<path d="M96.9643 60.6338L95.0024 61.5536" stroke="#6ADB6A" stroke-width="0.199012" stroke-miterlimit="10"/>
<path d="M94.0176 60.6338L92.9968 61.839" stroke="#6ADB6A" stroke-width="0.199012" stroke-miterlimit="10"/>
<path d="M92.0832 61.4417L91.6245 62.5517" stroke="#6ADB6A" stroke-width="0.199012" stroke-miterlimit="10"/>
<path d="M97.8937 64.2182L96.3823 61.717" stroke="#6ADB6A" stroke-width="0.199012" stroke-miterlimit="10"/>
<path d="M95.2229 63.8592L93.8367 61.6328" stroke="#6ADB6A" stroke-width="0.199012" stroke-miterlimit="10"/>
<path d="M92.8684 63.5181L90.7839 63.2593" stroke="#6ADB6A" stroke-width="0.199012" stroke-miterlimit="10"/>
<path d="M90.4414 64.7812L89.2463 65.1738" stroke="#6ADB6A" stroke-width="0.199012" stroke-miterlimit="10"/>
<path d="M86.0673 69.1176C86.0673 69.1176 84.951 47.9639 95.0547 50.6901C105.158 53.4162 87.1731 64.8164 87.1885 69.1176H86.0673Z" fill="#6ADB6A"/>
<path d="M86.4756 69.1177C86.4756 69.1177 86.8281 58.0657 94.0303 52.6008" stroke="#40A87B" stroke-width="0.199012" stroke-miterlimit="10"/>
<path d="M90.8718 55.8053L91.0519 51.9941" stroke="#40A87B" stroke-width="0.199012" stroke-miterlimit="10"/>
<path d="M96.5224 54.2261L91.6543 54.8605" stroke="#40A87B" stroke-width="0.199012" stroke-miterlimit="10"/>
<path d="M94.6291 57.479L89.4819 58.0787" stroke="#40A87B" stroke-width="0.199012" stroke-miterlimit="10"/>
<path d="M92.0556 60.7021L88.0803 61.2642" stroke="#40A87B" stroke-width="0.199012" stroke-miterlimit="10"/>
<path d="M87.6987 57.6904L88.6099 59.9043" stroke="#40A87B" stroke-width="0.199012" stroke-miterlimit="10"/>
<path d="M89.1963 54.0977L89.9732 57.2145" stroke="#40A87B" stroke-width="0.199012" stroke-miterlimit="10"/>
<path d="M86.8479 61.3862L87.5741 62.8333" stroke="#40A87B" stroke-width="0.199012" stroke-miterlimit="10"/>
<path d="M89.9731 63.6902L87.1243 64.5883" stroke="#40A87B" stroke-width="0.199012" stroke-miterlimit="10"/>
<path d="M35.5865 48.5374H30.5421C30.1678 48.5374 29.8088 48.686 29.5441 48.9507C29.2794 49.2154 29.1307 49.5744 29.1307 49.9487V52.9192H25.8845" stroke="#93ACBF" stroke-width="1.25032" stroke-linecap="round" stroke-linejoin="round"/>
<path d="M65.7001 23.9729H37.4692V50.6374H65.7001V23.9729Z" fill="white"/>
<path d="M64.5858 43.2688H38.5833V43.7874H64.5858V43.2688Z" fill="#E5F0F8"/>
<path d="M64.5858 44.3765H38.5833V44.895H64.5858V44.3765Z" fill="#E5F0F8"/>
<path d="M73.2991 43.9722H30.6372V44.7225H73.2991V43.9722Z" fill="#93ACBF"/>
<path d="M30.8236 41.4348C30.6999 41.4351 30.5814 41.4843 30.4939 41.5717C30.4064 41.6591 30.3571 41.7776 30.3567 41.9013V46.793C30.3571 46.9167 30.4064 47.0353 30.4939 47.1228C30.5813 47.2102 30.6999 47.2596 30.8236 47.2599C30.9473 47.2596 31.0658 47.2102 31.1532 47.1227C31.2406 47.0352 31.2898 46.9167 31.29 46.793V41.9013C31.2897 41.7777 31.2404 41.6592 31.153 41.5719C31.0656 41.4845 30.9472 41.4352 30.8236 41.4348Z" fill="#93ACBF"/>
<path d="M73.0096 41.4348C72.8902 41.4352 72.7759 41.4828 72.6915 41.5672C72.6071 41.6516 72.5595 41.766 72.5591 41.8853V46.8104C72.5595 46.9298 72.6071 47.0441 72.6915 47.1285C72.7759 47.2129 72.8902 47.2605 73.0096 47.2609C73.1289 47.2605 73.2433 47.2129 73.3277 47.1285C73.4121 47.0441 73.4597 46.9298 73.4601 46.8104V41.8853C73.4597 41.766 73.4121 41.6516 73.3277 41.5672C73.2433 41.4828 73.1289 41.4352 73.0096 41.4348Z" fill="#93ACBF"/>
<path d="M75.4816 61.5417C71.2195 58.6166 69.2475 52.5124 70.5445 47.5086H70.5411V42.3952C70.5411 42.1409 70.44 41.897 70.2602 41.7171C70.0804 41.5373 69.8365 41.4363 69.5821 41.4363C69.3278 41.4363 69.0839 41.5373 68.9041 41.7171C68.7242 41.897 68.6232 42.1409 68.6232 42.3952V47.5086H35.3035V42.3952C35.3035 42.1409 35.2025 41.897 35.0227 41.7171C34.8428 41.5373 34.5989 41.4363 34.3446 41.4363C34.0903 41.4363 33.8463 41.5373 33.6665 41.7171C33.4867 41.897 33.3856 42.1409 33.3856 42.3952V47.5086H33.3914C34.6889 52.5119 32.7154 58.6166 28.4663 61.5417L28.3606 68.911H75.5738L75.4816 61.5417Z" fill="#BBDBF3"/>
<path d="M73.18 61.7082H30.7659C32.5684 60.0182 33.9136 57.7488 34.6697 55.2761H69.2704C70.0265 57.7512 71.3747 60.0197 73.18 61.7082Z" fill="#93ACBF"/>
<path d="M33.96 60.6685C34.8584 60.6685 35.5867 60.4216 35.5867 60.1171C35.5867 59.8126 34.8584 59.5657 33.96 59.5657C33.0616 59.5657 32.3333 59.8126 32.3333 60.1171C32.3333 60.4216 33.0616 60.6685 33.96 60.6685Z" fill="white"/>
<path d="M37.9619 60.6685C38.8603 60.6685 39.5887 60.4216 39.5887 60.1171C39.5887 59.8126 38.8603 59.5657 37.9619 59.5657C37.0635 59.5657 36.3352 59.8126 36.3352 60.1171C36.3352 60.4216 37.0635 60.6685 37.9619 60.6685Z" fill="white"/>
<path d="M41.9636 60.6685C42.8621 60.6685 43.5904 60.4216 43.5904 60.1171C43.5904 59.8126 42.8621 59.5657 41.9636 59.5657C41.0652 59.5657 40.3369 59.8126 40.3369 60.1171C40.3369 60.4216 41.0652 60.6685 41.9636 60.6685Z" fill="white"/>
<path d="M45.9656 60.6685C46.864 60.6685 47.5923 60.4216 47.5923 60.1171C47.5923 59.8126 46.864 59.5657 45.9656 59.5657C45.0672 59.5657 44.3389 59.8126 44.3389 60.1171C44.3389 60.4216 45.0672 60.6685 45.9656 60.6685Z" fill="white"/>
<path d="M49.9673 60.6685C50.8657 60.6685 51.594 60.4216 51.594 60.1171C51.594 59.8126 50.8657 59.5657 49.9673 59.5657C49.0689 59.5657 48.3406 59.8126 48.3406 60.1171C48.3406 60.4216 49.0689 60.6685 49.9673 60.6685Z" fill="white"/>
<path d="M53.9693 60.6685C54.8677 60.6685 55.596 60.4216 55.596 60.1171C55.596 59.8126 54.8677 59.5657 53.9693 59.5657C53.0708 59.5657 52.3425 59.8126 52.3425 60.1171C52.3425 60.4216 53.0708 60.6685 53.9693 60.6685Z" fill="white"/>
<path d="M57.9712 60.6685C58.8696 60.6685 59.5979 60.4216 59.5979 60.1171C59.5979 59.8126 58.8696 59.5657 57.9712 59.5657C57.0728 59.5657 56.3445 59.8126 56.3445 60.1171C56.3445 60.4216 57.0728 60.6685 57.9712 60.6685Z" fill="white"/>
<path d="M61.9729 60.6685C62.8713 60.6685 63.5996 60.4216 63.5996 60.1171C63.5996 59.8126 62.8713 59.5657 61.9729 59.5657C61.0745 59.5657 60.3462 59.8126 60.3462 60.1171C60.3462 60.4216 61.0745 60.6685 61.9729 60.6685Z" fill="white"/>
<path d="M65.9744 60.6685C66.8728 60.6685 67.6011 60.4216 67.6011 60.1171C67.6011 59.8126 66.8728 59.5657 65.9744 59.5657C65.076 59.5657 64.3477 59.8126 64.3477 60.1171C64.3477 60.4216 65.076 60.6685 65.9744 60.6685Z" fill="white"/>
<path d="M69.9761 60.6685C70.8745 60.6685 71.6028 60.4216 71.6028 60.1171C71.6028 59.8126 70.8745 59.5657 69.9761 59.5657C69.0777 59.5657 68.3494 59.8126 68.3494 60.1171C68.3494 60.4216 69.0777 60.6685 69.9761 60.6685Z" fill="white"/>
<path d="M36.1924 58.9734C37.0908 58.9734 37.8191 58.7266 37.8191 58.422C37.8191 58.1175 37.0908 57.8706 36.1924 57.8706C35.294 57.8706 34.5657 58.1175 34.5657 58.422C34.5657 58.7266 35.294 58.9734 36.1924 58.9734Z" fill="white"/>
<path d="M35.3038 57.2586C36.1737 57.2586 36.8789 57.0117 36.8789 56.7072C36.8789 56.4026 36.1737 56.1558 35.3038 56.1558C34.4339 56.1558 33.7288 56.4026 33.7288 56.7072C33.7288 57.0117 34.4339 57.2586 35.3038 57.2586Z" fill="white"/>
<path d="M38.9811 57.2586C39.851 57.2586 40.5561 57.0117 40.5561 56.7072C40.5561 56.4026 39.851 56.1558 38.9811 56.1558C38.1112 56.1558 37.406 56.4026 37.406 56.7072C37.406 57.0117 38.1112 57.2586 38.9811 57.2586Z" fill="white"/>
<path d="M42.6586 57.2586C43.5284 57.2586 44.2336 57.0117 44.2336 56.7072C44.2336 56.4026 43.5284 56.1558 42.6586 56.1558C41.7887 56.1558 41.0835 56.4026 41.0835 56.7072C41.0835 57.0117 41.7887 57.2586 42.6586 57.2586Z" fill="white"/>
<path d="M46.3358 57.2586C47.2057 57.2586 47.9109 57.0117 47.9109 56.7072C47.9109 56.4026 47.2057 56.1558 46.3358 56.1558C45.4659 56.1558 44.7607 56.4026 44.7607 56.7072C44.7607 57.0117 45.4659 57.2586 46.3358 57.2586Z" fill="white"/>
<path d="M50.0135 57.2586C50.8834 57.2586 51.5886 57.0117 51.5886 56.7072C51.5886 56.4026 50.8834 56.1558 50.0135 56.1558C49.1437 56.1558 48.4385 56.4026 48.4385 56.7072C48.4385 57.0117 49.1437 57.2586 50.0135 57.2586Z" fill="white"/>
<path d="M53.6913 57.2586C54.5612 57.2586 55.2663 57.0117 55.2663 56.7072C55.2663 56.4026 54.5612 56.1558 53.6913 56.1558C52.8214 56.1558 52.1162 56.4026 52.1162 56.7072C52.1162 57.0117 52.8214 57.2586 53.6913 57.2586Z" fill="white"/>
<path d="M57.3685 57.2586C58.2384 57.2586 58.9436 57.0117 58.9436 56.7072C58.9436 56.4026 58.2384 56.1558 57.3685 56.1558C56.4986 56.1558 55.7935 56.4026 55.7935 56.7072C55.7935 57.0117 56.4986 57.2586 57.3685 57.2586Z" fill="white"/>
<path d="M61.0465 57.2586C61.9164 57.2586 62.6216 57.0117 62.6216 56.7072C62.6216 56.4026 61.9164 56.1558 61.0465 56.1558C60.1766 56.1558 59.4714 56.4026 59.4714 56.7072C59.4714 57.0117 60.1766 57.2586 61.0465 57.2586Z" fill="white"/>
<path d="M64.724 57.2586C65.5939 57.2586 66.299 57.0117 66.299 56.7072C66.299 56.4026 65.5939 56.1558 64.724 56.1558C63.8541 56.1558 63.1489 56.4026 63.1489 56.7072C63.1489 57.0117 63.8541 57.2586 64.724 57.2586Z" fill="white"/>
<path d="M68.4012 57.2586C69.2711 57.2586 69.9763 57.0117 69.9763 56.7072C69.9763 56.4026 69.2711 56.1558 68.4012 56.1558C67.5314 56.1558 66.8262 56.4026 66.8262 56.7072C66.8262 57.0117 67.5314 57.2586 68.4012 57.2586Z" fill="white"/>
<path d="M40.1123 58.9734C41.0107 58.9734 41.739 58.7266 41.739 58.422C41.739 58.1175 41.0107 57.8706 40.1123 57.8706C39.2139 57.8706 38.4856 58.1175 38.4856 58.422C38.4856 58.7266 39.2139 58.9734 40.1123 58.9734Z" fill="white"/>
<path d="M44.0327 58.9734C44.9311 58.9734 45.6595 58.7266 45.6595 58.422C45.6595 58.1175 44.9311 57.8706 44.0327 57.8706C43.1343 57.8706 42.406 58.1175 42.406 58.422C42.406 58.7266 43.1343 58.9734 44.0327 58.9734Z" fill="white"/>
<path d="M47.9529 58.9734C48.8513 58.9734 49.5796 58.7266 49.5796 58.422C49.5796 58.1175 48.8513 57.8706 47.9529 57.8706C47.0545 57.8706 46.3262 58.1175 46.3262 58.422C46.3262 58.7266 47.0545 58.9734 47.9529 58.9734Z" fill="white"/>
<path d="M51.8731 58.9734C52.7715 58.9734 53.4998 58.7266 53.4998 58.422C53.4998 58.1175 52.7715 57.8706 51.8731 57.8706C50.9747 57.8706 50.2463 58.1175 50.2463 58.422C50.2463 58.7266 50.9747 58.9734 51.8731 58.9734Z" fill="white"/>
<path d="M55.793 58.9734C56.6914 58.9734 57.4197 58.7266 57.4197 58.422C57.4197 58.1175 56.6914 57.8706 55.793 57.8706C54.8946 57.8706 54.1663 58.1175 54.1663 58.422C54.1663 58.7266 54.8946 58.9734 55.793 58.9734Z" fill="white"/>
<path d="M59.7132 58.9734C60.6116 58.9734 61.3399 58.7266 61.3399 58.422C61.3399 58.1175 60.6116 57.8706 59.7132 57.8706C58.8147 57.8706 58.0864 58.1175 58.0864 58.422C58.0864 58.7266 58.8147 58.9734 59.7132 58.9734Z" fill="white"/>
<path d="M63.6333 58.9734C64.5317 58.9734 65.26 58.7266 65.26 58.422C65.26 58.1175 64.5317 57.8706 63.6333 57.8706C62.7349 57.8706 62.0066 58.1175 62.0066 58.422C62.0066 58.7266 62.7349 58.9734 63.6333 58.9734Z" fill="white"/>
<path d="M67.554 58.9734C68.4524 58.9734 69.1807 58.7266 69.1807 58.422C69.1807 58.1175 68.4524 57.8706 67.554 57.8706C66.6556 57.8706 65.9272 58.1175 65.9272 58.422C65.9272 58.7266 66.6556 58.9734 67.554 58.9734Z" fill="white"/>
<path d="M29.1311 61.7092C32.9606 61.5938 36.7896 61.533 40.6186 61.4924C42.5331 61.4664 44.4476 61.4606 46.3646 61.4442L52.1105 61.4287L57.8564 61.4437C59.7709 61.4591 61.6854 61.464 63.6024 61.492C67.4319 61.5325 71.2609 61.5934 75.0899 61.7097C71.2609 61.8256 67.4319 61.8865 63.6024 61.9275C61.6879 61.9531 59.7734 61.9584 57.8564 61.9758L52.1105 61.9903L46.3646 61.9748C44.4501 61.9598 42.5356 61.9541 40.6186 61.9265C36.7896 61.885 32.9606 61.8246 29.1311 61.7092Z" fill="#E5F0F8"/>
<path d="M59.2078 50.8507C57.6873 52.8487 55.0137 54.1742 51.9698 54.1742C48.9259 54.1742 46.2524 52.8487 44.7271 50.8507L49.0775 48.5374C49.7695 49.0593 50.7878 49.4306 51.9684 49.4306C53.1489 49.4306 54.1668 49.0593 54.8563 48.5374L59.2078 50.8507Z" fill="#E5F0F8"/>
<path d="M49.2932 49.3975L46.3357 51.8784" stroke="#BBDBF3" stroke-width="0.195767" stroke-miterlimit="10"/>
<path d="M50.4265 49.8264L48.3406 52.9196" stroke="#BBDBF3" stroke-width="0.195767" stroke-miterlimit="10"/>
<path d="M51.5846 50.1021L51.1616 53.5013" stroke="#BBDBF3" stroke-width="0.195767" stroke-miterlimit="10"/>
<path d="M52.8459 50.1021L53.6909 53.2565" stroke="#BBDBF3" stroke-width="0.195767" stroke-miterlimit="10"/>
<path d="M54.1667 49.6733L56.5825 52.062" stroke="#BBDBF3" stroke-width="0.195767" stroke-miterlimit="10"/>
<path d="M56.1414 25.9028H47.0271V26.4214H56.1414V25.9028Z" fill="#E5F0F8"/>
<path d="M58.6065 27.0811H44.5623V27.5996H58.6065V27.0811Z" fill="#E5F0F8"/>
<path d="M64.5858 28.8718H38.5833V29.3904H64.5858V28.8718Z" fill="#E5F0F8"/>
<path d="M64.5858 29.9792H38.5833V30.4978H64.5858V29.9792Z" fill="#E5F0F8"/>
<path d="M64.5858 31.0869H38.5833V31.6055H64.5858V31.0869Z" fill="#E5F0F8"/>
<path d="M64.5858 32.1946H38.5833V32.7132H64.5858V32.1946Z" fill="#E5F0F8"/>
<path d="M64.5858 33.3015H38.5833V33.8201H64.5858V33.3015Z" fill="#E5F0F8"/>
<path d="M64.5858 34.4092H38.5833V34.9278H64.5858V34.4092Z" fill="#E5F0F8"/>
<path d="M64.5858 35.5166H38.5833V36.0352H64.5858V35.5166Z" fill="#E5F0F8"/>
<path d="M64.5858 36.6243H38.5833V37.1429H64.5858V36.6243Z" fill="#E5F0F8"/>
<path d="M64.5858 37.7319H38.5833V38.2505H64.5858V37.7319Z" fill="#E5F0F8"/>
<path d="M64.5858 38.8389H38.5833V39.3574H64.5858V38.8389Z" fill="#E5F0F8"/>
<path d="M64.5858 39.9468H38.5833V40.4654H64.5858V39.9468Z" fill="#E5F0F8"/>
<path d="M64.5858 41.0537H38.5833V41.5723H64.5858V41.0537Z" fill="#E5F0F8"/>
<path d="M64.5858 42.1614H38.5833V42.68H64.5858V42.1614Z" fill="#E5F0F8"/>
<path d="M64.5858 45.4839H38.5833V46.0025H64.5858V45.4839Z" fill="#E5F0F8"/>
<path d="M64.5858 46.5913H38.5833V47.1099H64.5858V46.5913Z" fill="#E5F0F8"/>
<path d="M77.2342 33.446C77.2342 33.446 76.7996 33.3316 76.3694 33.1635C75.8725 40.5415 76.8228 47.4849 76.8228 47.4849C76.8228 47.4849 79.9227 45.498 83.0231 38.6053C81.6228 38.8245 79.8242 38.7646 79.8242 38.7646C81.505 38.5387 82.9004 37.7989 83.5392 37.4126C84.054 36.1707 84.5648 34.7869 85.0559 33.249C83.4113 33.5561 81.814 33.0032 81.814 33.0032C83.2143 32.7671 84.8883 31.207 85.9989 30.0014C86.2091 29.2098 86.4116 28.3835 86.6063 27.5224C86.8638 26.3874 87.0922 25.2882 87.2915 24.225C85.3031 24.6596 83.0549 24.7561 82.9531 24.7595C84.6947 24.3732 86.4779 22.8378 87.755 21.5036C88.1422 19.0208 88.3989 16.5195 88.5242 14.0098C86.8849 14.9755 84.8574 15.638 84.7947 15.6587C86.2587 14.8683 87.7116 12.8398 88.5928 11.4357C88.6203 5.7284 87.7753 2.72168 87.7753 2.72168C87.7753 2.72168 84.1114 9.11415 81.0216 16.0933C81.026 16.6833 81.0651 17.4004 81.2042 17.7833C81.0229 17.4455 80.8673 17.0946 80.7387 16.7336C80.0086 18.4129 79.3182 20.1135 78.7257 21.7596C78.7976 22.6683 78.9188 23.6557 79.1298 24.1202C78.8318 23.7643 78.5519 23.3937 78.2911 23.0097C77.8406 24.3616 77.4703 25.6571 77.2115 26.8527C76.8252 28.6392 76.5794 30.5122 76.4283 32.3736C76.5953 32.7662 76.8629 33.2379 77.2342 33.446Z" fill="#BBDBF3"/>
<path d="M76.7534 53.0372C76.7534 53.0372 77.6998 26.7981 87.7755 2.72021C87.7755 2.72021 75.2165 25.7489 76.7534 53.0372Z" fill="white"/>
<path d="M71.6281 49.1377H80.9843C81.3147 49.1377 81.5825 48.8699 81.5825 48.5394V48.4603C81.5825 48.1299 81.3147 47.862 80.9843 47.862H71.6281C71.2976 47.862 71.0298 48.1299 71.0298 48.4603V48.5394C71.0298 48.8699 71.2976 49.1377 71.6281 49.1377Z" fill="#93ACBF"/>
<path d="M65.9272 58.6393V68.5455C65.9272 68.5947 65.9368 68.6434 65.9556 68.6889C65.9744 68.7343 66.0019 68.7756 66.0367 68.8104C66.0714 68.8452 66.1127 68.8729 66.1581 68.8917C66.2036 68.9105 66.2523 68.9202 66.3015 68.9202H86.3128C86.3619 68.9202 86.4106 68.9105 86.4561 68.8917C86.5015 68.8729 86.5428 68.8452 86.5775 68.8104C86.6123 68.7756 86.6398 68.7343 86.6586 68.6889C86.6774 68.6434 86.687 68.5947 86.687 68.5455V58.6393C86.687 57.4684 85.9429 56.4955 84.9646 56.299L83.3896 55.9441L81.4041 55.4207C80.6055 55.2111 80.0386 54.3989 80.0386 53.4661V49.4067H72.5756V53.4661C72.5756 54.3989 72.0092 55.2111 71.2082 55.4207L69.2768 55.9305L67.5941 56.3106C66.6433 56.5312 65.9272 57.4911 65.9272 58.6393Z" fill="#586773"/>
<path d="M76.3064 49.1377H71.9414L72.5754 49.4071L76.3064 49.7229L80.0374 49.4071L80.6714 49.1377H76.3064Z" fill="#586773"/>
<path d="M69.3383 66.4646H83.2739V58.9263H69.3383V66.4646Z" fill="white"/>
<path d="M85.6304 60.4413V68.9202H84.1138V60.632C84.1138 57.1169 82.574 56.8696 82.574 56.8696C86.1292 57.3452 85.6304 59.0309 85.6304 60.4413Z" fill="#93ACBF"/>
<path d="M72.4842 60.3521H80.1301V59.7919H72.4842V60.3521Z" fill="#E5F0F8"/>
<path d="M70.2051 61.6509H82.4097V61.0908H70.2051V61.6509Z" fill="#E5F0F8"/>
<path d="M70.9563 62.9497H81.6582V62.3896H70.9563V62.9497Z" fill="#E5F0F8"/>
<path d="M69.9885 64.2488H82.6262V63.6887H69.9885V64.2488Z" fill="#E5F0F8"/>
<path d="M70.7779 65.5474H81.8367V64.9873H70.7779V65.5474Z" fill="#E5F0F8"/>
<path d="M91.1557 68.9153H9.89802C9.38601 68.9153 8.97095 69.3304 8.97095 69.8424V70.0254C8.97095 70.5374 9.38601 70.9524 9.89802 70.9524H91.1557C91.6677 70.9524 92.0828 70.5374 92.0828 70.0254V69.8424C92.0828 69.3304 91.6677 68.9153 91.1557 68.9153Z" fill="#0775EF"/>
<path d="M67.8178 42.7237L67.8299 40.8594L65.6426 41.1819L67.8178 42.7237Z" fill="#2D628C"/>
<path d="M55.9818 33.8802L55.7848 33.3008C55.7848 33.3008 55.4289 32.7475 55.3232 32.5336C55.2633 32.4129 55.0687 32.1048 55.0185 32.0667C54.9789 32.0362 54.863 32.0478 54.8529 32.0956C54.8394 32.1579 54.9374 32.5022 54.9731 32.6379C55.0088 32.7735 55.1093 33.1535 55.1093 33.1535C55.1093 33.1535 54.3618 32.4747 54.1247 32.2332C53.991 32.0971 53.6182 31.6833 53.5173 31.7702C53.4405 31.8363 53.7752 32.3013 53.8881 32.4626C53.992 32.6074 54.2995 33.0555 54.2995 33.0555L53.6042 32.3313C53.4782 32.1999 53.1503 31.7605 53.0349 31.8542C52.9195 31.9479 53.2764 32.3568 53.3778 32.5065C53.5226 32.718 53.9572 33.352 53.9572 33.352L53.2126 32.6123C53.1098 32.5099 52.8428 32.1656 52.7409 32.2608C52.639 32.3559 52.9514 32.6697 53.0417 32.7866L53.6631 33.5876L53.1108 33.0676C53.0514 33.0121 52.8693 32.8518 52.8177 32.9116C52.7462 32.9923 52.9741 33.2269 53.0422 33.3139L53.6033 34.0319C53.6484 34.0898 53.7003 34.1421 53.7578 34.1878L54.708 35.1419L55.9818 33.8802Z" fill="#FDAE97"/>
<path d="M63.3566 40.5527L55.9535 45.2407C55.675 45.3575 55.4254 45.5336 55.2221 45.7569C55.0188 45.9801 54.8667 46.2451 54.7765 46.5332C54.6863 46.8214 54.6602 47.1258 54.6999 47.4251C54.7396 47.7244 54.8442 48.0114 55.0064 48.2661C55.1686 48.5208 55.3845 48.7369 55.639 48.8995C55.8935 49.062 56.1804 49.167 56.4797 49.207C56.7789 49.2471 57.0833 49.2213 57.3716 49.1315C57.6599 49.0416 57.925 48.8899 58.1485 48.6869L66.6824 44.2137L63.3566 40.5527Z" fill="#0775EF"/>
<path d="M54.6887 47.4427C54.6485 47.1608 54.6668 46.8737 54.7425 46.5993C54.8181 46.3248 54.9495 46.0689 55.1284 45.8474C55.3073 45.6259 55.5299 45.4437 55.7824 45.3121C56.0348 45.1804 56.3116 45.1022 56.5956 45.0822C56.8796 45.0623 57.1647 45.1011 57.433 45.1961C57.7014 45.2912 57.9473 45.4405 58.1554 45.6348C58.3635 45.8291 58.5294 46.0641 58.6426 46.3253C58.7559 46.5865 58.8141 46.8683 58.8137 47.153L58.6911 56.4136H55.2401L54.6887 47.4427Z" fill="#0775EF"/>
<path d="M67.2805 44.1731L62.6451 49.7196C62.2492 50.19 61.6833 50.4845 61.0709 50.5388C60.4585 50.5931 59.8496 50.4027 59.3772 50.0093C58.9069 49.6134 58.6125 49.0475 58.5582 48.4351C58.5039 47.8228 58.6942 47.2139 59.0874 46.7414L63.7228 41.1949C64.1189 40.7247 64.6849 40.4303 65.2973 40.376C65.9097 40.3218 66.5186 40.512 66.9912 40.9052C67.4615 41.3011 67.756 41.8671 67.8102 42.4794C67.8644 43.0918 67.6739 43.7007 67.2805 44.1731Z" fill="#088CFC"/>
<path d="M63.4861 31.6527L61.293 32.6401L61.5952 41.5497L67.8298 41.6463L68.7748 32.4813L65.7299 31.4895L63.4861 31.6527Z" fill="#E5F0F8"/>
<path d="M63.4868 30.3658V31.7569C63.4868 31.7569 63.5704 32.0577 64.2777 32.0606C64.9851 32.0635 65.7301 31.5937 65.7301 31.5937L65.5114 28.5518L63.4868 30.3658Z" fill="#FDAE97"/>
<path d="M63.4863 31.5662L64.9315 30.066L63.4863 30.0471V31.5662Z" fill="#E89780"/>
<path d="M62.8948 27.5669V29.5259C62.8948 29.9208 63.0053 30.5075 63.4505 30.6432C63.8957 30.7789 64.5051 30.5949 64.931 30.1309C65.3568 29.6669 66.3018 27.579 64.9875 26.8074C63.6731 26.0358 62.9252 27.3632 62.8948 27.5669Z" fill="#FDAE97"/>
<path d="M59.9199 39.7607C59.6965 39.9421 59.4171 40.04 59.1294 40.0378C58.8418 40.0356 58.5639 39.9334 58.3434 39.7487L54.4434 35.235L54.9788 34.671L55.9643 33.6295L56.0778 33.5083L60.0937 38.0302C60.2993 38.2831 60.3964 38.6071 60.3638 38.9313C60.3312 39.2556 60.1716 39.5538 59.9199 39.7607Z" fill="#F9E181"/>
<path d="M58.5352 48.0267C58.5358 47.4765 58.7548 46.949 59.1441 46.5601C59.5334 46.1713 60.0612 45.9529 60.6114 45.9529C61.7567 45.9529 62.3854 46.4304 62.6351 47.5728C63.2145 50.2247 64.4322 57.2878 64.4322 57.2878H60.8384L58.5583 48.3189C58.5438 48.2221 58.536 48.1245 58.5352 48.0267Z" fill="#088CFC"/>
<path d="M58.4774 39.8173C58.8085 40.0038 59.1998 40.0517 59.5661 39.9505C59.9323 39.8494 60.2436 39.6074 60.432 39.2774L63.0191 34.7169C63.2056 34.3859 63.2536 33.9945 63.1524 33.6282C63.0513 33.262 62.8093 32.9507 62.4793 32.7623C62.1483 32.5758 61.7569 32.5279 61.3907 32.629C61.0244 32.7302 60.7131 32.9722 60.5247 33.3021L57.9376 37.8627C57.7511 38.1937 57.7032 38.5851 57.8043 38.9513C57.9055 39.3176 58.1475 39.6289 58.4774 39.8173Z" fill="#F9E181"/>
<path d="M64.8513 26.7349C64.8513 26.7349 63.2613 26.0014 62.8943 26.4828C62.5274 26.9642 63.1387 27.1332 63.1387 27.1332C63.1387 27.1332 62.3801 27.0434 62.41 27.5547C62.44 28.0661 64.3371 27.3679 64.3371 27.3679C64.3371 27.3679 63.7094 27.6532 64.0715 27.8792C64.4337 28.1052 64.8513 27.8102 64.8513 27.8102C64.8513 27.8102 65.212 28.0168 65.1531 28.9642C65.0942 29.9116 65.6596 30.123 65.6596 30.123C65.6596 30.123 65.592 28.6875 65.8692 28.3041C66.1464 27.9208 65.7393 26.4949 64.8513 26.7349Z" fill="#322A28"/>
<path d="M65.0636 29.1838C64.9096 29.4253 64.8705 29.5957 65.0578 29.715C65.1671 29.7781 65.2966 29.7968 65.4193 29.7672C65.542 29.7377 65.6487 29.6621 65.7174 29.5561C65.8719 29.3147 65.8429 29.0202 65.6532 28.899C65.4634 28.7778 65.2181 28.9424 65.0636 29.1838Z" fill="#FDAE97"/>
<path d="M65.5595 29.1654C65.5595 29.1654 65.3664 29.1359 65.2312 29.386C65.3213 29.3689 65.4139 29.3689 65.504 29.386" stroke="#E89780" stroke-width="0.0389372" stroke-miterlimit="10"/>
<path d="M63.9693 28.8429C64.0285 28.8429 64.0764 28.7686 64.0764 28.6768C64.0764 28.5851 64.0285 28.5107 63.9693 28.5107C63.9101 28.5107 63.8621 28.5851 63.8621 28.6768C63.8621 28.7686 63.9101 28.8429 63.9693 28.8429Z" fill="#2C3447"/>
<path d="M64.0073 29.7178C64.0073 29.7178 63.848 30.0287 63.4443 29.9558" stroke="#2C3447" stroke-width="0.0492122" stroke-miterlimit="10"/>
<path d="M63.6201 28.74L63.4178 29.3257C63.4079 29.3546 63.4079 29.386 63.4179 29.4148C63.4279 29.4437 63.4472 29.4684 63.4728 29.485L63.6375 29.5922" stroke="#2C3447" stroke-width="0.0492122" stroke-miterlimit="10"/>
<path d="M64.2453 28.4012C64.2453 28.4012 64.0193 28.2433 63.8035 28.3432" stroke="#2C3447" stroke-width="0.0492122" stroke-miterlimit="10"/>
<path d="M62.967 28.6768C62.967 28.7686 63.0153 28.8429 63.0747 28.8429C63.1341 28.8429 63.1819 28.7686 63.1819 28.6768C63.1819 28.5851 63.1336 28.5107 63.0747 28.5107C63.0158 28.5107 62.967 28.5851 62.967 28.6768Z" fill="#2C3447"/>
<path d="M62.8677 28.3922C62.9183 28.3487 62.9804 28.321 63.0466 28.3124C63.1127 28.3038 63.18 28.3148 63.24 28.3439" stroke="#2C3447" stroke-width="0.0492122" stroke-miterlimit="10"/>
<path d="M70.1273 40.3401C70.4948 40.2436 70.8092 40.0057 71.0018 39.6782C71.1945 39.3506 71.2496 38.9602 71.1553 38.5921L69.839 33.5169C69.7426 33.1494 69.5046 32.8349 69.1771 32.6423C68.8496 32.4497 68.4592 32.3945 68.0911 32.4889C67.7236 32.5853 67.4092 32.8233 67.2165 33.1508C67.0239 33.4783 66.9688 33.8688 67.0631 34.2368L68.3789 39.3121C68.4754 39.6796 68.7135 39.994 69.0411 40.1867C69.3687 40.3793 69.7592 40.4344 70.1273 40.3401Z" fill="#F9E181"/>
<path d="M63.9054 29.2822C63.9339 29.3663 64.0922 29.3889 64.2598 29.3305C64.4273 29.2721 64.5403 29.161 64.5123 29.0765C64.4843 28.992 64.3255 28.9693 64.1579 29.0283C63.9904 29.0872 63.8774 29.1977 63.9054 29.2822Z" fill="#E89780"/>
<path d="M62.8948 29.0256V29.3506C63.0319 29.367 63.1439 29.3289 63.1632 29.2574C63.1835 29.1729 63.0638 29.0696 62.8948 29.0256Z" fill="#E89780"/>
<path d="M58.2769 57.7993L58.3488 56.4102H55.5459L55.5015 57.7993H58.2769Z" fill="#FDAE97"/>
<path d="M55.5203 57.2175L58.3488 56.4102H55.5459L55.5203 57.2175Z" fill="#E89780"/>
<path d="M64.4469 58.6765L64.2175 57.2878H61.4822L61.8303 58.6765H64.4469Z" fill="#FDAE97"/>
<path d="M63.8908 32.3076H64.3983L64.4427 32.4037L64.209 32.578H64.0091L63.8425 32.3743L63.8908 32.3076Z" fill="#F74242"/>
<path d="M61.6492 57.9551L64.2175 57.2878H61.4822L61.6492 57.9551Z" fill="#E89780"/>
<path d="M65.7213 31.4734L64.126 32.0605L64.4166 32.7264L65.7918 31.6197L65.7213 31.4734Z" fill="white"/>
<path d="M63.4867 31.6353L63.4104 31.7912L63.8242 32.6637L64.126 32.0606L63.4867 31.6353Z" fill="white"/>
<path d="M64.0091 32.5784L63.2534 38.445L63.8425 39.205L64.6083 38.516L64.209 32.5784H64.0091Z" fill="#F74242"/>
<path d="M67.3557 35.4707L68.1949 38.9385" stroke="#2C3447" stroke-width="0.0492122" stroke-miterlimit="10"/>
<path d="M61.457 37.5759L61.3855 35.4707" stroke="#2C3447" stroke-width="0.0492122" stroke-miterlimit="10"/>
<path d="M64.4489 58.6765L64.6947 59.6905H61.025C60.9969 59.5692 60.9965 59.443 61.024 59.3215C61.0514 59.2 61.1059 59.0863 61.1834 58.9888C61.2609 58.8913 61.3595 58.8126 61.4717 58.7585C61.5839 58.7045 61.7069 58.6764 61.8314 58.6765H64.4489Z" fill="#403534"/>
<path d="M58.2768 57.7986V58.9009H54.4319L54.4367 58.8101C54.4501 58.5372 54.5678 58.2798 54.7654 58.0911C54.9631 57.9024 55.2257 57.7968 55.499 57.7961H58.2744L58.2768 57.7986Z" fill="#403534"/>
<path d="M55.4464 58.0168C55.4464 58.0168 55.3624 57.6508 55.1567 57.7503C54.951 57.8498 55.4343 58.0299 55.4343 58.0299L55.1446 58.2288" stroke="white" stroke-width="0.0259581" stroke-linecap="round" stroke-linejoin="round"/>
<path d="M55.4463 58.0168C55.4463 58.0168 55.5298 57.6508 55.736 57.7503C55.9422 57.8498 55.4588 58.0299 55.4588 58.0299L55.7486 58.2288" stroke="white" stroke-width="0.0259581" stroke-linecap="round" stroke-linejoin="round"/>
<path d="M61.8568 58.9372C61.8568 58.9372 61.7728 58.5707 61.5671 58.6702C61.3614 58.7697 61.8447 58.9502 61.8447 58.9502L61.555 59.1487" stroke="white" stroke-width="0.0259581" stroke-linecap="round" stroke-linejoin="round"/>
<path d="M61.8567 58.9372C61.8567 58.9372 61.9402 58.5707 62.1464 58.6702C62.3526 58.7697 61.8692 58.9502 61.8692 58.9502L62.1589 59.1487" stroke="white" stroke-width="0.0259581" stroke-linecap="round" stroke-linejoin="round"/>
<path d="M63.2557 31.759C63.2557 31.759 63.1055 33.3283 62.8627 35.6977C62.6198 38.067 62.6357 41.7652 61.8704 42.475C61.8704 42.475 61.0819 42.5334 59.4856 43.0061C59.4856 43.0061 59.9322 41.5059 60.4788 40.6565C61.0254 39.8072 61.2934 32.6412 61.2934 32.6412L63.2557 31.759Z" fill="#F9E181"/>
<path d="M63.1258 33.0847L62.9404 34.9321L63.5295 34.4299L63.4865 33.1204L63.1258 33.0847Z" fill="#E5F0F8"/>
<path d="M66.2729 31.6663C66.2729 31.6663 65.6838 34.2075 65.395 36.5633C65.1063 38.9192 65.2043 41.1987 64.4622 42.5821C64.4622 42.5821 67.4399 43.1176 67.4331 44.3204C67.4331 44.3204 68.2723 43.3942 68.2796 42.1263C68.2868 40.8583 68.775 32.4828 68.775 32.4828L66.2729 31.6663Z" fill="#F9E181"/>
<path d="M56.4929 45.0352H63.2407L61.4798 39.9817H54.7314L56.4929 45.0352Z" fill="#A5BBD6"/>
<path d="M63.1675 44.7903L65.3742 42.8381H58.847L56.4192 44.7903H63.1675Z" fill="#89A5C7"/>
<path d="M56.6208 44.9234H63.3692L61.6077 39.8704H54.8594L56.6208 44.9234Z" fill="#A5BBD6"/>
<path d="M54.8589 39.8704L54.7314 39.9819H61.4798L63.2407 45.0354L63.3687 44.9234L61.6073 39.8704H54.8589Z" fill="#89A5C7"/>
<path d="M65.3742 42.8381L65.4481 43.0834L63.241 45.0356L63.1555 44.7903L65.3742 42.8381Z" fill="#586773"/>
<path d="M58.7023 42.8973C59.1156 42.8973 59.4507 42.749 59.4507 42.5661C59.4507 42.3832 59.1156 42.2349 58.7023 42.2349C58.2889 42.2349 57.9539 42.3832 57.9539 42.5661C57.9539 42.749 58.2889 42.8973 58.7023 42.8973Z" fill="#89A5C7"/>
<path d="M64.0095 41.3005L65.0085 43.0171L65.0027 43.0205C64.5445 43.2619 63.5831 44.1841 63.236 44.525C63.1977 44.5619 63.1491 44.5863 63.0967 44.5949C63.0443 44.6036 62.9904 44.596 62.9424 44.5733L61.9989 44.1354C61.9259 44.1019 61.8608 44.0534 61.808 43.993C61.7551 43.9325 61.7157 43.8616 61.6923 43.7848L61.4856 43.1156C61.4811 43.1001 61.4807 43.0838 61.4845 43.0681C61.4883 43.0525 61.4962 43.0382 61.5073 43.0265C61.5184 43.0149 61.5324 43.0063 61.5478 43.0018C61.5632 42.9973 61.5796 42.9969 61.5952 43.0007L62.1317 43.1508C62.1691 43.1615 62.209 43.1585 62.2444 43.1424C62.2798 43.1263 62.3083 43.0981 62.3248 43.0629L62.63 42.4299L61.7608 42.9432C61.7364 42.9571 61.7078 42.9616 61.6803 42.9558C61.6528 42.95 61.6284 42.9344 61.6116 42.9118L61.5634 42.8432C61.5463 42.8201 61.5387 42.7913 61.542 42.7627C61.5454 42.7342 61.5594 42.7079 61.5812 42.6892L62.9564 41.5738L63.9646 41.3324L64.0095 41.3005Z" fill="#FDAE97"/>
<path d="M70.9313 38.3879C71.3533 39.0239 71.2375 39.8524 70.674 40.2228L65.0816 43.4279L63.6953 41.0446L68.8787 37.837C69.4422 37.4671 70.5103 37.7491 70.9313 38.3879Z" fill="#F9E181"/>
<path d="M65.0708 40.195L68.1186 38.309L67.4575 35.8918" stroke="#322A28" stroke-width="0.0675992" stroke-miterlimit="10"/>
<path d="M30.3531 45.2006C30.0627 45.3562 29.7225 45.3905 29.4069 45.2958C29.0914 45.2012 28.8262 44.9853 28.6694 44.6955L26.2363 40.1755C26.0813 39.8853 26.0473 39.5456 26.142 39.2305C26.2366 38.9154 26.4521 38.6505 26.7414 38.4938C27.0315 38.3387 27.3712 38.3047 27.6863 38.3992C28.0014 38.4937 28.2663 38.7091 28.4232 38.9983L30.8563 43.5188C31.0113 43.8088 31.0455 44.1483 30.9512 44.4634C30.857 44.7784 30.642 45.0434 30.3531 45.2006Z" fill="#F74242"/>
<path d="M28.6166 44.3702C28.5509 43.687 28.9908 43.081 29.5939 43.023L34.857 43.2162C35.0401 43.1851 35.2207 43.1406 35.3973 43.0829C35.7739 42.9506 36.8405 42.7116 36.8738 42.8652C36.9072 43.0187 36.2094 43.3311 36.2766 43.3842C36.3437 43.4373 36.9086 43.3277 37.1457 43.2621C37.3828 43.1964 37.87 42.9724 37.982 43.0622C38.094 43.152 38.0119 43.3461 38.0119 43.3461C38.0119 43.3461 38.1872 43.2384 38.2331 43.3606C38.2789 43.4827 38.0477 43.7164 38.0477 43.7164C38.0477 43.7164 38.1389 43.6469 38.1563 43.7942C38.1737 43.9414 37.7092 44.1713 37.7092 44.1713C37.7231 44.1698 37.7371 44.1714 37.7503 44.1761C37.7635 44.1809 37.7754 44.1885 37.7851 44.1985C37.7949 44.2085 37.8023 44.2206 37.8067 44.2339C37.8111 44.2471 37.8124 44.2612 37.8106 44.2751C37.8106 44.3886 37.165 44.6227 36.6657 44.6392C36.2201 44.6532 35.1568 44.5696 34.9337 44.5518L29.8319 45.5054C29.2289 45.5648 28.6818 45.0534 28.6166 44.3702Z" fill="#FDAE97"/>
<path d="M24.1477 34.6675C24.1477 34.6675 23.5089 35.1503 23.6649 36.116C23.8209 37.0817 23.9063 37.6129 23.2917 37.6694C22.677 37.7259 21.4428 37.3797 21.3549 38.2039C21.2671 39.0281 21.8552 39.5665 20.9923 39.7307C20.1295 39.8948 20.0266 41.0102 20.0266 41.0102C20.0266 41.0102 23.1449 42.9112 26.0565 41.0812C28.9681 39.2512 25.8194 38.0653 25.8194 38.0653L24.1477 34.6675Z" fill="#322A28"/>
<path d="M24.8243 46.7048C24.0112 47.7671 23.705 49.9762 24.2231 52.3542C24.7412 54.7322 24.9165 56.2943 24.9165 56.2943C24.945 56.5589 25.0258 56.8153 25.1543 57.0484C25.2828 57.2816 25.4563 57.4868 25.6649 57.6523C25.8734 57.8177 26.1128 57.9401 26.369 58.0121C26.6253 58.0842 26.8933 58.1046 27.1575 58.0722C27.4217 58.0397 27.6768 57.955 27.908 57.823C28.1392 57.6911 28.3418 57.5144 28.5041 57.3034C28.6664 57.0924 28.7851 56.8513 28.8533 56.594C28.9216 56.3367 28.9379 56.0684 28.9015 55.8047L28.0753 46.7058L24.8243 46.7048Z" fill="#0775EF"/>
<path d="M24.645 37.9785L22.4722 38.9626C22.4722 38.9626 22.955 44.5564 23.0033 45.1687C23.0516 45.7809 22.8662 46.7046 22.8662 46.7046H28.0752C28.0752 46.7046 28.0124 43.7075 28.3625 42.8708C28.5991 42.3039 28.7618 41.9591 28.6247 41.3097C28.4875 40.6603 27.4818 39.5125 27.6445 38.3885L26.5107 38.0268L24.645 37.9785Z" fill="#E5F0F8"/>
<path d="M26.1005 45.6397C25.8151 45.8036 25.4765 45.8478 25.1586 45.7626C24.8408 45.6775 24.5695 45.4699 24.4043 45.1854L21.8374 40.7397C21.6739 40.4542 21.6299 40.1156 21.7151 39.7978C21.8003 39.48 22.0078 39.2089 22.2923 39.0435C22.5778 38.8799 22.9164 38.836 23.2342 38.9212C23.552 39.0064 23.8232 39.2139 23.9885 39.4983L26.5549 43.9439C26.7186 44.2293 26.7627 44.5678 26.6776 44.8856C26.5924 45.2033 26.385 45.4745 26.1005 45.6397Z" fill="#F74242"/>
<path d="M26.8781 34.6852C26.8781 34.6852 27.2026 33.9701 26.501 33.7195L26.8781 34.6852Z" fill="#332B27"/>
<path d="M24.636 37.9787C24.6592 38.0197 25.0532 38.6841 25.7992 38.6286C26.4592 38.5803 26.5085 38.0241 26.5085 38.0241V35.4973H24.9035L24.636 37.9787Z" fill="#FDAE97"/>
<path d="M26.5099 37.7373L25.3896 36.519L26.5108 36.9401L26.5099 37.7373Z" fill="#E89780"/>
<path d="M25.4251 36.6812C25.9365 37.0105 26.5536 37.0346 26.936 36.7985C27.3184 36.5624 27.2798 35.9878 27.1832 35.6189V35.616C27.1629 35.5397 27.1349 35.4325 27.1026 35.3113C26.9785 34.8348 26.7955 34.1293 26.7955 34.1293C26.7182 33.757 25.6955 32.8869 24.6535 33.9285C23.6116 34.97 24.9138 36.3524 25.4251 36.6812Z" fill="#FDAE97"/>
<path d="M26.7676 33.9793C26.7676 33.9793 26.7367 34.4202 26.1065 34.6906C25.4764 34.961 24.8714 35.3893 24.9197 36.0426C24.968 36.6959 24.7299 37.0565 24.7299 37.0565C24.7299 37.0565 24.6701 36.24 24.2872 35.536C24.1389 35.2628 24.0221 34.694 24.305 34.2193C24.7517 33.4714 25.8501 32.9315 26.7676 33.9793Z" fill="#322A28"/>
<path d="M25.031 35.9081C25.1561 36.11 25.1884 36.2514 25.031 36.3495C24.9399 36.4007 24.8325 36.415 24.7311 36.3893C24.6297 36.3636 24.5421 36.2999 24.4864 36.2114C24.3613 36.0095 24.3898 35.7662 24.5467 35.6677C24.7037 35.5692 24.9036 35.7063 25.031 35.9081Z" fill="#FDAE97"/>
<path d="M24.677 36.0406C24.7151 36.0238 24.7564 36.0154 24.798 36.0159C24.8397 36.0165 24.8808 36.0261 24.9184 36.044C24.8378 35.8161 24.5649 35.8962 24.5649 35.8962" stroke="#E89780" stroke-width="0.0329884" stroke-linecap="round" stroke-linejoin="round"/>
<path d="M25.9744 35.344C25.9952 35.4333 26.0594 35.4947 26.1193 35.4812C26.1791 35.4676 26.2067 35.3846 26.1854 35.2948C26.1642 35.205 26.1004 35.1441 26.0406 35.1576C25.9807 35.1712 25.9532 35.2547 25.9744 35.344Z" fill="#332B27"/>
<path d="M26.721 35.095C26.7422 35.1838 26.806 35.2456 26.8658 35.2316C26.9257 35.2176 26.9532 35.1351 26.9325 35.0453C26.9117 34.9554 26.8475 34.8946 26.7876 34.9081C26.7277 34.9216 26.7002 35.0057 26.721 35.095Z" fill="#332B27"/>
<path d="M29.5716 64.4937H25.4828L24.8841 56.2785L24.8687 56.0414C24.8685 55.7733 24.9221 55.5079 25.0265 55.2609C25.1309 55.014 25.2838 54.7905 25.4762 54.6038C25.6686 54.417 25.8965 54.2709 26.1465 54.1739C26.3965 54.077 26.6634 54.0313 26.9314 54.0395C27.4303 54.0587 27.9045 54.2616 28.2629 54.6092C28.6213 54.9568 28.8385 55.4246 28.8729 55.9226L29.5716 64.4937Z" fill="#0775EF"/>
<path d="M25.7288 35.2128C25.7288 35.2128 25.8553 34.9478 26.0837 34.9791" stroke="#332B27" stroke-width="0.0492122" stroke-miterlimit="10"/>
<path d="M26.668 34.7992C26.668 34.7992 26.7925 34.7441 26.9644 34.8523" stroke="#332B27" stroke-width="0.0492122" stroke-miterlimit="10"/>
<path d="M24.4278 64.4938H20.0295L20.8958 55.9406L20.8987 55.9034C20.9711 54.8628 21.8509 54.041 22.9267 54.041C24.0488 54.041 24.9546 54.9372 24.9546 56.0444C24.9546 56.1049 24.9514 56.1653 24.945 56.2254L24.4278 64.4938Z" fill="#088CFC"/>
<path d="M26.4543 35.1711C26.4543 35.1711 26.5688 35.611 26.8406 35.6057C26.7972 35.6657 26.7424 35.7166 26.6794 35.7554" stroke="#332B27" stroke-width="0.0492122" stroke-miterlimit="10"/>
<path d="M22.8678 46.7048C21.8359 47.559 21.1295 49.3818 21.1025 51.8149C21.0754 54.2479 20.8915 55.81 20.8915 55.81C20.8418 56.3364 21.0018 56.8612 21.3368 57.2704C21.6717 57.6795 22.1546 57.94 22.6805 57.9953C23.2063 58.0505 23.7328 57.8961 24.1455 57.5655C24.5582 57.2349 24.8238 56.7548 24.8846 56.2296L26.4423 46.7048H22.8678Z" fill="#088CFC"/>
<path d="M24.4867 38.0498C24.4867 38.0498 25.7614 39.7494 26.0062 41.5432C26.251 43.337 25.4596 45.3322 25.2467 47.2491C25.0338 49.166 23.9681 57.0558 23.9681 57.0558H20.4225C20.4225 57.0558 20.2458 51.7927 20.8803 49.6416C21.5147 47.4905 22.4737 38.9643 22.4737 38.9643L24.4867 38.0498Z" fill="#F74242"/>
<path d="M26.8113 36.1121C26.8113 36.1121 26.5515 36.3019 26.2686 36.033" stroke="#332B27" stroke-width="0.0492122" stroke-miterlimit="10"/>
<path d="M25.5832 35.7332C25.5765 35.8298 25.7233 35.9162 25.9101 35.9264C26.097 35.9365 26.2539 35.8718 26.2607 35.7767C26.2674 35.6816 26.1206 35.5937 25.9333 35.5836C25.746 35.5734 25.5895 35.6381 25.5832 35.7332Z" fill="#E89780"/>
<path d="M26.9865 35.5643C27.0145 35.6165 27.0903 35.6338 27.1826 35.6174C27.1623 35.5411 27.1343 35.4339 27.1019 35.3127C27.0001 35.3968 26.9494 35.4982 26.9865 35.5643Z" fill="#E89780"/>
<path d="M24.5639 34.4368C24.9012 33.9752 24.9244 33.4181 24.6157 33.1925C24.3069 32.9668 23.7831 33.1581 23.4458 33.6197C23.1084 34.0814 23.0852 34.6385 23.394 34.8641C23.7027 35.0898 24.2265 34.8985 24.5639 34.4368Z" fill="#322A28"/>
<path d="M25.1022 36.3523C25.1088 36.3817 25.1066 36.4125 25.0957 36.4406C25.0849 36.4688 25.0659 36.4931 25.0413 36.5105C25.0166 36.5278 24.9873 36.5375 24.9572 36.5383C24.927 36.539 24.8973 36.5308 24.8718 36.5147C24.8463 36.4986 24.8262 36.4753 24.8139 36.4477C24.8017 36.4201 24.7979 36.3895 24.803 36.3598C24.8081 36.3301 24.8219 36.3025 24.8427 36.2807C24.8635 36.2588 24.8903 36.2436 24.9197 36.2369C24.9393 36.2325 24.9595 36.232 24.9793 36.2354C24.9991 36.2388 25.018 36.246 25.0349 36.2568C25.0519 36.2675 25.0665 36.2814 25.0781 36.2978C25.0896 36.3142 25.0978 36.3327 25.1022 36.3523Z" stroke="white" stroke-width="0.0432635" stroke-miterlimit="10"/>
<path d="M24.3496 68.9207H20.6597L20.6766 68.5643L20.7326 67.4374L20.7123 64.4939H23.3854L22.7045 67.4374L24.3496 68.9207Z" fill="#FDAE97"/>
<path d="M30.6159 68.9207H26.7207L26.7154 68.5643L26.6425 67.4374L26.334 64.4939H29.0399L28.9713 67.4374L30.2209 68.5643L30.6159 68.9207Z" fill="#FDAE97"/>
<path d="M20.6592 68.9208H24.3491C24.3415 68.7797 24.3147 68.6404 24.2695 68.5065C24.1639 68.1949 23.9634 67.9241 23.696 67.7323C23.4287 67.5404 23.108 67.4372 22.7789 67.437H20.7331L20.6775 68.5065V68.564L20.6592 68.9208Z" fill="#322A28"/>
<path d="M26.6416 67.437L26.7044 68.5065L26.7145 68.564L26.7218 68.9208H30.6169L30.6005 68.8242C30.5835 68.7164 30.5554 68.6105 30.5165 68.5085C30.4191 68.2457 30.255 68.0127 30.0404 67.8325C29.7422 67.5783 29.3632 67.4386 28.9714 67.4385L26.6416 67.437Z" fill="#322A28"/>
<path d="M22.833 67.8748H23.4993" stroke="white" stroke-width="0.0432635" stroke-miterlimit="10"/>
<path d="M23.0444 68.1331H23.7108" stroke="white" stroke-width="0.0432635" stroke-miterlimit="10"/>
<path d="M29.2241 67.8748H29.8905" stroke="white" stroke-width="0.0432635" stroke-miterlimit="10"/>
<path d="M29.4358 68.1331H30.1021" stroke="white" stroke-width="0.0432635" stroke-miterlimit="10"/>
<path d="M21.4492 68.3291C21.605 68.3291 21.7312 68.2029 21.7312 68.0471C21.7312 67.8914 21.605 67.7651 21.4492 67.7651C21.2935 67.7651 21.1672 67.8914 21.1672 68.0471C21.1672 68.2029 21.2935 68.3291 21.4492 68.3291Z" fill="white"/>
<path d="M27.9888 68.0471C27.9887 68.1029 27.9721 68.1573 27.941 68.2036C27.91 68.25 27.8659 68.286 27.8144 68.3073C27.7628 68.3286 27.7061 68.3341 27.6515 68.3231C27.5968 68.3122 27.5466 68.2853 27.5072 68.2459C27.4678 68.2064 27.441 68.1562 27.4302 68.1015C27.4193 68.0468 27.425 67.9901 27.4463 67.9386C27.4677 67.8871 27.5038 67.8431 27.5502 67.8121C27.5965 67.7812 27.651 67.7646 27.7068 67.7646C27.7439 67.7646 27.7806 67.772 27.8148 67.7862C27.8491 67.8004 27.8802 67.8212 27.9064 67.8474C27.9325 67.8736 27.9533 67.9048 27.9674 67.9391C27.9816 67.9733 27.9888 68.01 27.9888 68.0471Z" fill="white"/>
<path d="M26.7671 38.1077C26.7671 38.1077 27.3267 39.4775 27.4185 41.4147C27.5102 43.3519 28.3402 57.0543 28.3402 57.0543H30.035C30.035 57.0543 28.1572 44.9984 28.4011 43.7667C28.6449 42.5349 29.1335 41.816 28.9167 41.055C28.6999 40.294 27.6444 38.3887 27.6444 38.3887L26.7671 38.1077Z" fill="#F74242"/>
<path d="M28.2978 43.0648C28.2978 43.0648 28.6797 42.2275 28.6696 41.5998C28.6595 40.9721 28.2283 40.4236 28.2283 40.4236" stroke="white" stroke-width="0.0659769" stroke-miterlimit="10"/>
<path d="M26.7046 68.5063L26.722 68.9206H30.6171L30.6007 68.8241C30.5837 68.7162 30.5556 68.6103 30.5167 68.5083L26.7046 68.5063Z" fill="white"/>
<path d="M20.6592 68.9206H24.3491C24.3415 68.7796 24.3147 68.6402 24.2695 68.5063H20.6775V68.5638L20.6592 68.9206Z" fill="white"/>
<path d="M23.187 65.3524L20.7134 64.6764L20.7124 64.4939H23.3855L23.187 65.3524Z" fill="#E89780"/>
<path d="M29.0201 65.3524L26.334 64.7286V64.4939H29.0399L29.0201 65.3524Z" fill="#E89780"/>
<path d="M34.9077 43.0678L35.0077 45.3725C35.0077 45.3725 30.4134 46.7143 29.1502 45.4111C27.8871 44.1079 29.0952 42.7694 30.0058 42.7998C30.9165 42.8302 34.9077 43.0678 34.9077 43.0678Z" fill="#F74242"/>
<path d="M41.7395 45.2655C41.0074 46.2571 40.0501 47.0605 38.9464 47.6093C37.8428 48.1582 36.6244 48.4367 35.3919 48.4219C33.9651 48.4084 32.6237 49.1114 31.7749 50.2601L31.0149 51.2881L26.605 48.0293L27.365 47.0009C28.2138 45.8521 28.4939 44.365 28.0593 43.0053C27.9017 42.5091 27.793 41.9987 27.7349 41.4814C27.6197 40.4342 27.7187 39.3746 28.0258 38.3669C28.3329 37.3592 28.8418 36.4245 29.5214 35.6196C32.0028 32.666 36.3484 31.9847 39.613 34.0402C39.685 34.0884 39.7579 34.1343 39.8293 34.1821C40.7007 34.7696 41.4442 35.5274 42.015 36.4098C42.5858 37.2922 42.9721 38.2811 43.1505 39.3168C43.329 40.3525 43.296 41.4136 43.0535 42.4362C42.811 43.4588 42.364 44.4217 41.7395 45.2669V45.2655Z" fill="#F9E181"/>
<path d="M30.352 52.2421C30.2767 52.3444 30.1942 52.4412 30.1052 52.5318C29.6731 52.9619 29.1013 53.223 28.4933 53.268C27.8852 53.313 27.2812 53.1388 26.7905 52.7771L26.4481 52.5241C25.9579 52.1617 25.6139 51.6355 25.4787 51.0411C25.3435 50.4466 25.426 49.8234 25.7113 49.2846C25.7712 49.1727 25.8393 49.0654 25.9151 48.9635C25.9899 48.8612 26.072 48.7643 26.1608 48.6738C26.5926 48.2434 27.1641 47.9817 27.7721 47.9363C28.3801 47.8909 28.9842 48.0646 29.4751 48.4261L29.8175 48.6791C30.308 49.0419 30.6521 49.5684 30.7875 50.1633C30.9229 50.7581 30.8405 51.3817 30.5553 51.921C30.4953 52.0328 30.4273 52.1401 30.352 52.2421Z" fill="#93ACBF"/>
<path d="M31.7541 51.385C31.705 51.3928 31.6548 51.3908 31.6065 51.379C31.5582 51.3672 31.5127 51.3459 31.4726 51.3164C31.5499 51.3774 31.6003 51.4659 31.6133 51.5634C31.6264 51.6609 31.601 51.7596 31.5425 51.8387C31.484 51.9178 31.397 51.971 31.3 51.9871C31.203 52.0031 31.1035 51.9808 31.0226 51.9248C31.0654 51.9561 31.1008 51.9963 31.1267 52.0425C31.1525 52.0887 31.1681 52.14 31.1723 52.1928C31.1837 52.2861 31.1586 52.3802 31.1023 52.4555C31.0728 52.4956 31.0355 52.5293 30.9927 52.5548C30.9499 52.5803 30.9025 52.5969 30.8531 52.6037C30.7541 52.618 30.6533 52.5929 30.5726 52.5337L30.2877 52.3232C30.2298 52.3951 30.1689 52.468 30.1052 52.5313C29.673 52.9613 29.1012 53.2225 28.4932 53.2675C27.8852 53.3124 27.2812 53.1383 26.7904 52.7766L26.4481 52.5236C26.086 52.2563 25.8014 51.8977 25.6232 51.4844C25.4451 51.0711 25.3798 50.6179 25.4341 50.1711C25.901 50.6269 26.6253 51.0977 27.6176 51.0938C29.014 51.089 29.9835 49.5086 30.4084 48.6477L32.3722 50.0963C32.4195 50.1312 32.4579 50.1766 32.4846 50.229C32.5112 50.2814 32.5253 50.3393 32.5257 50.398C32.5271 50.4892 32.4951 50.5776 32.4358 50.6468C32.3765 50.716 32.2939 50.7611 32.2037 50.7737C32.1546 50.7815 32.1044 50.7795 32.056 50.7677C32.0077 50.7559 31.9622 50.7347 31.9222 50.7051C31.9659 50.7375 32.0022 50.779 32.0285 50.8266C32.0549 50.8743 32.0706 50.927 32.0748 50.9813C32.0826 51.0765 32.0538 51.171 31.9942 51.2456C31.9346 51.3202 31.8487 51.3692 31.7541 51.3826V51.385Z" fill="#A7ADC7"/>
<path d="M28.9456 48.2879C28.9456 48.2879 35.2366 40.2924 32.5969 39.3976C29.9571 38.5029 35.115 46.1213 37.7475 44.048C40.38 41.9746 35.1951 41.8563 33.6717 43.9075C32.1483 45.9586 29.8036 49.1411 29.8036 49.1411" stroke="white" stroke-width="0.222266" stroke-miterlimit="10"/>
<path d="M31.7541 51.385C31.705 51.3928 31.6548 51.3908 31.6065 51.379C31.5582 51.3672 31.5127 51.3459 31.4726 51.3164C31.5499 51.3774 31.6003 51.4659 31.6133 51.5634C31.6264 51.6609 31.601 51.7596 31.5425 51.8387C31.484 51.9178 31.397 51.971 31.3 51.9871C31.203 52.0031 31.1035 51.9808 31.0226 51.9248C31.0654 51.9561 31.1008 51.9963 31.1267 52.0425C31.1525 52.0887 31.1681 52.14 31.1723 52.1928C31.1837 52.2861 31.1586 52.3802 31.1023 52.4555C31.0728 52.4956 31.0355 52.5293 30.9927 52.5548C30.9499 52.5803 30.9025 52.5969 30.8531 52.6037C30.7541 52.618 30.6533 52.5929 30.5726 52.5337L30.2877 52.3232C30.2298 52.3951 30.1689 52.468 30.1052 52.5313C29.673 52.9613 29.1012 53.2225 28.4932 53.2675C27.8852 53.3124 27.2812 53.1383 26.7904 52.7766L26.4481 52.5236C26.086 52.2563 25.8014 51.8977 25.6232 51.4844C25.4451 51.0711 25.3798 50.6179 25.4341 50.1711C25.901 50.6269 26.6253 51.0977 27.6176 51.0938C29.014 51.089 29.9835 49.5086 30.4084 48.6477L32.3722 50.0963C32.4195 50.1312 32.4579 50.1766 32.4846 50.229C32.5112 50.2814 32.5253 50.3393 32.5257 50.398C32.5271 50.4892 32.4951 50.5776 32.4358 50.6468C32.3765 50.716 32.2939 50.7611 32.2037 50.7737C32.1546 50.7815 32.1044 50.7795 32.056 50.7677C32.0077 50.7559 31.9622 50.7347 31.9222 50.7051C31.9659 50.7375 32.0022 50.779 32.0285 50.8266C32.0549 50.8743 32.0706 50.927 32.0748 50.9813C32.0826 51.0765 32.0538 51.171 31.9942 51.2456C31.9346 51.3202 31.8487 51.3692 31.7541 51.3826V51.385Z" fill="#586773"/>
<path d="M30.3519 52.2419C30.2766 52.3441 30.1941 52.441 30.1051 52.5316L25.7112 49.2844C25.7711 49.1725 25.8392 49.0652 25.9149 48.9633C25.9898 48.8609 26.0719 48.7641 26.1607 48.6736L30.5547 51.9208C30.4948 52.0325 30.427 52.1398 30.3519 52.2419Z" fill="#586773"/>
<path d="M31.1022 52.4553C31.0727 52.4954 31.0354 52.5292 30.9926 52.5547C30.9499 52.5801 30.9024 52.5968 30.8531 52.6036C30.754 52.6179 30.6533 52.5928 30.5725 52.5336L25.5427 48.8156C25.4839 48.7722 25.439 48.7127 25.4135 48.6443C25.3879 48.5758 25.3828 48.5015 25.3987 48.4302C25.4146 48.3589 25.4509 48.2938 25.5031 48.2427C25.5553 48.1916 25.6212 48.1568 25.6928 48.1425C25.6988 48.1406 25.7049 48.1393 25.7112 48.1386C25.7603 48.1306 25.8105 48.1326 25.8589 48.1443C25.9073 48.1561 25.9528 48.1775 25.9927 48.2072L31.0225 51.9252C31.0653 51.9565 31.1008 51.9966 31.1266 52.0428C31.1524 52.0891 31.168 52.1404 31.1722 52.1931C31.1835 52.2863 31.1584 52.3802 31.1022 52.4553Z" fill="#93ACBF"/>
<path d="M32.4529 50.6294C32.4235 50.6695 32.3862 50.7034 32.3434 50.7288C32.3006 50.7543 32.2531 50.7709 32.2038 50.7776C32.1546 50.7854 32.1045 50.7834 32.0561 50.7716C32.0078 50.7598 31.9623 50.7386 31.9223 50.709L26.8924 46.9911C26.8363 46.9491 26.7929 46.8924 26.767 46.8272C26.7411 46.7621 26.7338 46.691 26.7459 46.6219C26.7579 46.5529 26.7889 46.4885 26.8353 46.436C26.8817 46.3834 26.9417 46.3448 27.0088 46.3243C27.0276 46.3204 27.0445 46.3151 27.0619 46.3127C27.161 46.298 27.2618 46.3232 27.3424 46.3827L32.3723 50.1006C32.4195 50.1356 32.458 50.181 32.4847 50.2334C32.5113 50.2858 32.5254 50.3437 32.5258 50.4024C32.5272 50.484 32.5016 50.5638 32.4529 50.6294Z" fill="#93ACBF"/>
<path d="M32.0014 51.2367C31.9411 51.3171 31.8516 51.3705 31.7522 51.3854C31.6528 51.4003 31.5515 51.3755 31.4703 51.3163L26.4404 47.5984C26.3825 47.5552 26.3381 47.4964 26.3124 47.4288C26.2868 47.3612 26.2811 47.2877 26.2958 47.217C26.3106 47.1462 26.3453 47.0812 26.3958 47.0295C26.4463 46.9778 26.5105 46.9417 26.5809 46.9253C26.591 46.9253 26.5997 46.9214 26.6094 46.9195C26.7085 46.9051 26.8092 46.9302 26.8899 46.9895L31.9198 50.7075C31.9636 50.7399 31.9998 50.7813 32.0262 50.8289C32.0525 50.8766 32.0682 50.9294 32.0724 50.9836C32.08 51.0738 32.0548 51.1636 32.0014 51.2367Z" fill="#93ACBF"/>
<path d="M32.5259 50.4002C32.5084 50.4055 32.4907 50.4095 32.4727 50.4123C32.4236 50.4201 32.3734 50.4181 32.3251 50.4063C32.2768 50.3945 32.2313 50.3733 32.1912 50.3437L27.1614 46.6258C27.1141 46.5905 27.0758 46.5448 27.0493 46.4922C27.0228 46.4395 27.0089 46.3815 27.0088 46.3226C27.0276 46.3187 27.0445 46.3134 27.0619 46.311C27.161 46.2963 27.2619 46.3215 27.3424 46.381L32.3723 50.0989C32.4195 50.1338 32.4579 50.1792 32.4846 50.2315C32.5112 50.2838 32.5254 50.3415 32.5259 50.4002Z" fill="#586773"/>
<path d="M32.0747 50.9836C32.0654 50.9864 32.0559 50.9883 32.0462 50.9894C31.9971 50.9972 31.9469 50.9952 31.8986 50.9834C31.8503 50.9717 31.8048 50.9504 31.7647 50.9209L26.7349 47.2029C26.6909 47.1705 26.6546 47.1288 26.6284 47.0808C26.6022 47.0329 26.5868 46.9798 26.5833 46.9253C26.5934 46.9253 26.6021 46.9214 26.6117 46.9195C26.7108 46.9051 26.8116 46.9302 26.8923 46.9895L31.9221 50.7075C31.9659 50.7399 32.0022 50.7813 32.0285 50.8289C32.0548 50.8766 32.0706 50.9294 32.0747 50.9836Z" fill="#586773"/>
<path d="M31.5526 51.8465C31.4924 51.9272 31.4028 51.9808 31.3032 51.9954C31.2036 52.0101 31.1023 51.9847 31.0214 51.9247L25.9916 48.2067C25.9114 48.1469 25.8581 48.0578 25.8433 47.9589C25.8285 47.86 25.8533 47.7592 25.9124 47.6785C25.9625 47.6118 26.0328 47.5629 26.1128 47.539C26.1287 47.5351 26.1451 47.5317 26.161 47.5293C26.2102 47.5215 26.2604 47.5235 26.3087 47.5353C26.357 47.5471 26.4025 47.5683 26.4425 47.5979L31.4724 51.3158C31.5529 51.376 31.6065 51.4656 31.6214 51.565C31.6363 51.6645 31.6114 51.7658 31.5521 51.847L31.5526 51.8465Z" fill="#93ACBF"/>
<path d="M31.6255 51.6128C31.6097 51.6177 31.5936 51.6215 31.5772 51.6239C31.4782 51.6383 31.3774 51.6131 31.2967 51.5539L26.2668 47.8359C26.2202 47.8017 26.182 47.7571 26.1555 47.7057C26.1289 47.6542 26.1146 47.5973 26.1138 47.5394C26.1297 47.5356 26.1461 47.5322 26.1621 47.5298C26.2112 47.522 26.2614 47.524 26.3097 47.5358C26.358 47.5476 26.4035 47.5688 26.4436 47.5984L31.4734 51.3163C31.5196 51.351 31.5573 51.3956 31.5837 51.447C31.61 51.4984 31.6243 51.5551 31.6255 51.6128Z" fill="#586773"/>
<path d="M31.1723 52.1929H31.1549C31.1058 52.2009 31.0555 52.199 31.0072 52.1872C30.9588 52.1754 30.9133 52.154 30.8734 52.1243L25.8435 48.4064C25.8011 48.375 25.7658 48.335 25.7399 48.2891C25.7139 48.2432 25.6979 48.1923 25.6929 48.1398C25.6988 48.1379 25.705 48.1366 25.7112 48.136C25.7603 48.1279 25.8106 48.1299 25.8589 48.1417C25.9073 48.1534 25.9528 48.1748 25.9927 48.2045L31.0226 51.9225C31.0656 51.954 31.1013 51.9946 31.1271 52.0413C31.153 52.0879 31.1684 52.1397 31.1723 52.1929Z" fill="#586773"/>
<path d="M39.6132 34.0384C39.6851 34.0867 39.7581 34.1326 39.8295 34.1804C38.7846 34.0481 37.536 33.9935 36.058 34.079C31.4757 34.3465 28.8311 37.7781 27.7732 39.4942C27.985 38.0648 28.5906 36.7226 29.5221 35.6178C32.0015 32.6642 36.3472 31.9829 39.6132 34.0384Z" fill="#F9ECB8"/>
<path d="M34.1531 46.2875C34.1425 46.1576 33.945 46.2126 33.945 46.2126C33.945 46.2126 34.0788 46.048 33.9933 45.9316C33.9078 45.8152 33.3806 45.8944 33.1343 45.892C32.888 45.8896 32.3135 45.8379 32.2652 45.7684C32.2169 45.6989 32.9721 45.5927 32.9827 45.4352C32.9933 45.2778 31.9021 45.2126 31.5032 45.2358C31.3177 45.2424 31.1319 45.2352 30.9475 45.2141L25.9442 43.5695C25.3488 43.4584 24.7583 43.9191 24.6318 44.5936C24.5053 45.2682 24.8896 45.9113 25.485 46.0224L30.6515 46.5188C30.861 46.5979 31.8586 46.9726 32.2932 47.0822C32.776 47.2049 33.4607 47.1581 33.4945 47.0494C33.5 47.0366 33.5026 47.0226 33.502 47.0087C33.5014 46.9947 33.4976 46.981 33.4909 46.9687C33.4843 46.9564 33.475 46.9458 33.4636 46.9376C33.4523 46.9294 33.4392 46.9239 33.4255 46.9215C33.4255 46.9215 33.9354 46.8292 33.9595 46.6829C33.9836 46.5366 33.8764 46.5786 33.8764 46.5786C33.8764 46.5786 34.1637 46.4178 34.1531 46.2875Z" fill="#FDAE97"/>
<path d="M30.9545 44.8832L30.5682 46.9015C30.5682 46.9015 26.1714 46.5635 25.2332 45.9919C24.295 45.4202 24.5026 44.8678 24.6335 44.426C24.7643 43.9842 25.2506 43.356 25.9111 43.4868C26.5716 43.6177 30.9545 44.8832 30.9545 44.8832Z" fill="#F74242"/>
<path d="M26.0049 42.9911L24.8784 40.9167" stroke="white" stroke-width="0.0659769" stroke-miterlimit="10"/>
<path d="M25.4414 46.0938C25.4414 46.0938 24.2342 45.6004 23.8098 44.6936C23.3854 43.7868 22.9407 42.6936 22.9407 42.6936" stroke="white" stroke-width="0.0659769" stroke-miterlimit="10"/>
<path d="M92.6126 23.9381C92.4265 23.6713 92.175 23.4567 91.8823 23.3148C91.5895 23.173 91.2653 23.1086 90.9405 23.1278L90.8777 23.1322C90.5212 23.1645 90.181 23.2966 89.8962 23.5134C89.6114 23.7302 89.3934 24.023 89.2674 24.358C89.1414 24.6931 89.1124 25.0568 89.1837 25.4076C89.255 25.7584 89.4238 26.082 89.6706 26.3412C89.7587 26.4334 89.8557 26.5165 89.9603 26.5894C90.0844 26.6778 90.1886 26.7913 90.2659 26.9226C90.3433 27.0539 90.3922 27.2 90.4094 27.3514H90.3215C90.2969 27.3517 90.2735 27.3618 90.2563 27.3794C90.2534 27.3823 90.251 27.3861 90.2481 27.3895C90.2366 27.4057 90.2303 27.4251 90.2302 27.445C90.2306 27.4695 90.2407 27.4929 90.2582 27.51C90.2758 27.5271 90.2994 27.5365 90.3239 27.5363C90.2996 27.5371 90.2765 27.5471 90.2592 27.5643C90.2577 27.5662 90.2561 27.5679 90.2544 27.5696C90.2405 27.5869 90.233 27.6083 90.2331 27.6304C90.2336 27.6549 90.2437 27.6782 90.2613 27.6953C90.2788 27.7123 90.3023 27.7218 90.3268 27.7217C90.3147 27.7219 90.3027 27.7245 90.2915 27.7294C90.2804 27.7342 90.2704 27.7413 90.2621 27.7502C90.2593 27.7529 90.2567 27.7558 90.2544 27.7589C90.2424 27.7755 90.236 27.7954 90.236 27.8159C90.2448 27.8096 90.2551 27.8055 90.2658 27.8041C90.2766 27.8027 90.2875 27.804 90.2976 27.8078C90.3078 27.8116 90.3168 27.8178 90.324 27.8259C90.3312 27.8341 90.3363 27.8438 90.3388 27.8544C90.3413 27.8649 90.3412 27.8759 90.3384 27.8864C90.3357 27.8969 90.3305 27.9065 90.3231 27.9145C90.3158 27.9225 90.3066 27.9285 90.2964 27.9321C90.2862 27.9357 90.2752 27.9367 90.2645 27.9351L90.2616 27.9385C90.2499 27.952 90.2423 27.9686 90.2398 27.9863C90.2373 28.004 90.2399 28.022 90.2474 28.0382C90.2549 28.0545 90.2669 28.0682 90.2821 28.0777C90.2972 28.0873 90.3147 28.0922 90.3326 28.0921H90.4292C90.4292 28.1147 90.4325 28.137 90.4359 28.1592C90.4483 28.2347 90.4747 28.3072 90.5137 28.3731C90.5209 28.3851 90.5286 28.3972 90.5364 28.4088C90.5441 28.4204 90.5446 28.4199 90.5489 28.4257C90.5533 28.4315 90.56 28.4407 90.5658 28.4484L90.5788 28.4638C90.5861 28.4721 90.5933 28.4803 90.6011 28.488C90.6043 28.4919 90.6079 28.4956 90.6117 28.4991C90.6223 28.5102 90.6339 28.5203 90.6455 28.5305L90.658 28.5406L90.6846 28.5614L90.6986 28.571L90.7314 28.5923L90.7396 28.5971C90.7536 28.6053 90.7676 28.6126 90.7821 28.6193L90.7956 28.6256L90.829 28.6396L90.8435 28.6449C90.8575 28.6497 90.8719 28.6546 90.8864 28.6584H90.8913C90.9072 28.6628 90.9236 28.6662 90.9395 28.6691H90.954C90.9666 28.6691 90.9791 28.6729 90.9922 28.6739H91.0071C91.0245 28.6739 91.0419 28.6739 91.0593 28.6739H91.1636C91.3127 28.6714 91.4559 28.6156 91.5675 28.5167C91.6791 28.4178 91.7516 28.2822 91.772 28.1345C91.772 28.123 91.772 28.1114 91.7749 28.0993C91.7778 28.0872 91.7749 28.078 91.7749 28.0674H91.8618C91.8739 28.0673 91.8859 28.0648 91.897 28.06C91.9081 28.0552 91.9181 28.0482 91.9265 28.0394C91.9352 28.0309 91.942 28.0206 91.9466 28.0093C91.9511 27.998 91.9533 27.9859 91.953 27.9738C91.9524 27.9492 91.9422 27.926 91.9246 27.9089C91.907 27.8918 91.8834 27.8824 91.8589 27.8825C91.8835 27.8821 91.9069 27.872 91.9241 27.8545C91.9409 27.8368 91.9504 27.8133 91.9506 27.7888C91.9418 27.7953 91.9315 27.7994 91.9207 27.801C91.9098 27.8025 91.8988 27.8013 91.8885 27.7976C91.8783 27.7938 91.8691 27.7876 91.8618 27.7795C91.8545 27.7713 91.8493 27.7615 91.8467 27.7509C91.844 27.7403 91.8441 27.7292 91.8468 27.7186C91.8495 27.708 91.8547 27.6982 91.8621 27.6901C91.8695 27.682 91.8787 27.6759 91.889 27.6722C91.8993 27.6685 91.9104 27.6675 91.9212 27.6691C91.9298 27.6605 91.9366 27.6502 91.9411 27.6389C91.9457 27.6277 91.9479 27.6156 91.9477 27.6034C91.9474 27.5911 91.9447 27.5789 91.9396 27.5676C91.9346 27.5563 91.9274 27.5462 91.9184 27.5377C91.9095 27.5292 91.8989 27.5226 91.8873 27.5182C91.8758 27.5138 91.8635 27.5118 91.8512 27.5121C91.8633 27.5119 91.8753 27.5093 91.8864 27.5044C91.8975 27.4995 91.9075 27.4925 91.9159 27.4837C91.9245 27.4751 91.9314 27.4649 91.9359 27.4536C91.9405 27.4423 91.9427 27.4302 91.9424 27.418C91.9422 27.4058 91.9396 27.3938 91.9348 27.3827C91.93 27.3715 91.923 27.3615 91.9142 27.353C91.9055 27.3446 91.8951 27.338 91.8838 27.3335C91.8725 27.3291 91.8604 27.327 91.8483 27.3272H91.7609C91.7738 27.1758 91.8185 27.0287 91.892 26.8956C91.9654 26.7625 92.066 26.6464 92.1872 26.5547C92.5845 26.259 92.851 25.8201 92.9299 25.3312C93.0089 24.8423 92.8942 24.3419 92.6102 23.9361L92.6126 23.9381Z" fill="#E5F0F8"/>
<path d="M82.5254 46.4855C82.7696 46.8293 83.1282 47.0749 83.537 47.1786C83.9457 47.2823 84.378 47.2372 84.7566 47.0514L86.6509 49.7332L87.1158 49.4053L85.2216 46.7235C85.4637 46.4854 85.6325 46.183 85.7081 45.852C85.7837 45.5209 85.7629 45.1752 85.6483 44.8556C85.5336 44.536 85.3298 44.2559 85.0609 44.0485C84.7921 43.8411 84.4695 43.715 84.1312 43.6851C83.793 43.6553 83.4533 43.7229 83.1523 43.88C82.8513 44.0371 82.6015 44.2771 82.4326 44.5717C82.2637 44.8662 82.1827 45.203 82.1991 45.5422C82.2155 45.8813 82.3288 46.2087 82.5254 46.4855ZM85.1183 44.6545C85.277 44.8794 85.3655 45.1462 85.3726 45.4213C85.3796 45.6965 85.305 45.9675 85.158 46.2002C85.011 46.4329 84.7984 46.6168 84.5469 46.7286C84.2954 46.8404 84.0164 46.8752 83.7452 46.8285C83.474 46.7817 83.2227 46.6556 83.0231 46.4661C82.8236 46.2766 82.6847 46.0321 82.6241 45.7637C82.5634 45.4952 82.5837 45.2148 82.6825 44.9579C82.7812 44.701 82.9539 44.4792 83.1787 44.3204C83.4805 44.1085 83.854 44.0246 84.2174 44.0873C84.5809 44.1499 84.9048 44.3538 85.1183 44.6545Z" fill="white"/>
<path d="M72.3962 14.7383H67.0983C66.7604 14.7383 66.4866 14.4148 66.4866 14.0189V11.8523H71.7839V14.0189C71.7839 14.4153 72.0596 14.7383 72.3962 14.7383Z" fill="#E5F0F8"/>
<path d="M74.2326 7.03002V8.89527H73.0086V7.03002C73.0068 6.8452 73.0707 6.66574 73.1887 6.52351C73.2412 6.4586 73.3073 6.40604 73.3825 6.36958C73.4576 6.33311 73.5398 6.31362 73.6232 6.3125C73.9612 6.3125 74.2326 6.63601 74.2326 7.03002Z" fill="#E5F0F8"/>
<path d="M73.6235 6.3125C73.54 6.31362 73.4578 6.33311 73.3827 6.36958C73.3076 6.40604 73.2414 6.4586 73.1889 6.52351C73.0709 6.66574 73.0071 6.8452 73.0088 7.03002V14.0188C73.0088 14.4148 72.7346 14.7383 72.3966 14.7383C72.0586 14.7383 71.7843 14.4148 71.7843 14.0188V11.8523H67.711V7.03002C67.7092 6.8452 67.773 6.66574 67.8911 6.52351C67.9437 6.4587 68.0098 6.40621 68.0849 6.36976C68.16 6.3333 68.2422 6.31375 68.3256 6.3125H73.6235Z" fill="#E5F0F8"/>
<path d="M68.4438 7.72021H71.9691" stroke="white" stroke-width="0.209287" stroke-miterlimit="10" stroke-linecap="round"/>
<path d="M68.4438 8.59204H71.9691" stroke="white" stroke-width="0.209287" stroke-miterlimit="10" stroke-linecap="round"/>
<path d="M68.4438 9.42944H71.9691" stroke="white" stroke-width="0.209287" stroke-miterlimit="10" stroke-linecap="round"/>
<path d="M68.4438 10.2664H71.9691" stroke="white" stroke-width="0.209287" stroke-miterlimit="10" stroke-linecap="round"/>
<path d="M68.4438 11.103H71.9691" stroke="white" stroke-width="0.209287" stroke-miterlimit="10" stroke-linecap="round"/>
<path d="M66.5078 11.8081H71.7839C71.7839 11.8081 71.4092 14.8327 72.3962 14.7941" stroke="white" stroke-width="0.104914" stroke-linejoin="round"/>
<path d="M73.0479 9.14519V7.0303C73.0479 6.77488 73.1806 6.31279 73.6205 6.31279C74.0604 6.31279 75.0246 6.25146 75.0246 6.25146" stroke="white" stroke-width="0.104914" stroke-linejoin="round"/>
<path d="M63.3683 60.9832H58.6914C59.2394 62.9595 59.3471 68.9203 59.3471 68.9203H67.39C67.39 68.9203 67.4977 62.9595 68.0452 60.9832H63.3683Z" fill="white"/>
<path d="M59.8455 62.6953H65.6189" stroke="#BBDBF3" stroke-width="0.0924757" stroke-linecap="round" stroke-linejoin="round"/>
<path d="M61.0107 62.0642H60.6365V63.3264L61.0107 62.6953L61.3849 63.3264V62.0642H61.0107Z" fill="#F74242"/>
<path d="M63.3684 63.2163H66.7271L65.7527 64.0087C65.7527 64.0087 64.8242 63.4954 63.3684 63.2163Z" fill="#E5F0F8"/>
<path d="M58.9951 65.9536H62.3997C62.3997 65.9536 60.7464 66.2177 59.9294 66.7658L58.9951 65.9536Z" fill="#E5F0F8"/>
<path d="M60.1545 68.3752H66.4263" stroke="#BBDBF3" stroke-width="0.0924757" stroke-linecap="round" stroke-linejoin="round"/>
<path d="M62.3997 67.7H66.8515" stroke="#BBDBF3" stroke-width="0.0924757" stroke-linecap="round" stroke-linejoin="round"/>
<path d="M60.6365 67.0691H65.4428" stroke="#BBDBF3" stroke-width="0.0924757" stroke-linecap="round" stroke-linejoin="round"/>
<path d="M62.8162 66.3594H66.7273" stroke="#BBDBF3" stroke-width="0.0924757" stroke-linecap="round" stroke-linejoin="round"/>
<path d="M61.0107 65.3813H65.8537" stroke="#BBDBF3" stroke-width="0.0924757" stroke-linecap="round" stroke-linejoin="round"/>
<path d="M59.7266 64.6914H64.4006" stroke="#BBDBF3" stroke-width="0.0924757" stroke-linecap="round" stroke-linejoin="round"/>
<path d="M61.3848 64.009H65.3693" stroke="#BBDBF3" stroke-width="0.0924757" stroke-linecap="round" stroke-linejoin="round"/>
<path d="M61.7808 61.844H66.8517" stroke="#BBDBF3" stroke-width="0.0924757" stroke-linecap="round" stroke-linejoin="round"/>
<path d="M59.4941 61.448H64.6259" stroke="#BBDBF3" stroke-width="0.0924757" stroke-linecap="round" stroke-linejoin="round"/>
<path d="M28.4808 20.5721C27.63 21.9946 26.5977 22.618 25.6243 22.8309C25.6243 22.8309 27.6001 22.8478 29.5233 20.4736C29.095 20.9666 28.4808 20.5721 28.4808 20.5721Z" fill="#BBDBF3"/>
<path d="M29.9185 19.1223C29.9185 19.1223 28.2619 22.3342 24.0007 19.1875C24.0007 19.1875 23.0451 21.7249 22.2397 22.2362C22.2397 22.2362 23.8418 23.2193 25.6245 22.8311C26.6004 22.6182 27.6303 21.9948 28.4811 20.5723C28.4811 20.5723 29.0953 20.9668 29.5236 20.4757L29.5289 20.4695C29.722 20.2411 29.877 19.8326 29.9185 19.1223Z" fill="white"/>
<path d="M29.5309 20.4675L29.5237 20.476" stroke="black" stroke-width="0.135739" stroke-miterlimit="10"/>
<path d="M30.2379 31.4393C28.5223 31.8329 27.2867 31.5016 26.4065 30.9082C26.4065 30.9082 27.8459 32.4359 31.0805 32.1636C30.3871 32.2003 30.2379 31.4393 30.2379 31.4393Z" fill="#BBDBF3"/>
<path d="M32.407 31.4756C32.407 31.4756 28.7248 32.5683 28.0063 26.9851C28.0063 26.9851 25.3583 28.1184 24.3743 27.8765C24.3743 27.8765 24.7982 29.8281 26.4066 30.9088C27.2868 31.5007 28.5224 31.832 30.238 31.4399C30.238 31.4399 30.3872 32.2009 31.0806 32.1671H31.0893C31.4046 32.1478 31.8314 31.9657 32.407 31.4756Z" fill="white"/>
<path d="M31.09 32.1655H31.0806" stroke="black" stroke-width="0.144392" stroke-miterlimit="10"/>
<path d="M18.0759 10.8907C18.0759 10.8907 18.3352 10.488 18.1725 9.87231L20.2763 10.5618L18.0759 10.8907Z" fill="#BBDBF3"/>
<path d="M17.6787 10.8046C17.6787 10.8046 19.7724 10.3841 19.7415 7.15137L22.6458 7.26918C22.6458 7.26918 22.0915 10.6491 18.6946 11.02L17.6787 10.8046Z" fill="white"/>
<path d="M11.625 21.7549C11.625 21.7549 12.2933 21.7491 12.8857 21.0852L13.695 24.0726L11.625 21.7549Z" fill="#BBDBF3"/>
<path d="M11.4199 21.2285C11.4199 21.2285 13.5155 23.3482 17.2624 20.8345L19.3508 24.3139C19.3508 24.3139 14.981 26.2593 11.9462 22.579L11.4199 21.2285Z" fill="white"/>
<path d="M67.0829 20.1975H74.2509C74.3031 20.1974 74.3549 20.2077 74.4033 20.2277C74.4516 20.2476 74.4955 20.2769 74.5325 20.3139C74.5695 20.3508 74.5989 20.3947 74.6189 20.443C74.6389 20.4913 74.6492 20.5431 74.6492 20.5954V26.2447C74.6492 26.3504 74.6072 26.4517 74.5325 26.5264C74.4578 26.6011 74.3565 26.6431 74.2509 26.6431H67.9685L66.6846 27.7479V20.5959C66.6845 20.5435 66.6948 20.4917 66.7148 20.4433C66.7348 20.395 66.7641 20.351 66.8011 20.314C66.8381 20.277 66.882 20.2477 66.9304 20.2277C66.9788 20.2077 67.0306 20.1974 67.0829 20.1975Z" fill="#BBDBF3"/>
<path d="M73.043 20.6702V25.4161H69.314V21.7841L70.6375 20.6702H73.043Z" fill="white"/>
<path d="M70.6375 20.6702V21.8H69.314L70.6375 20.6702Z" fill="#E5F0F8"/>
<path d="M72.4781 21.8H71.1782" stroke="#E5F0F8" stroke-width="0.0930165" stroke-linecap="round" stroke-linejoin="round"/>
<path d="M72.5504 22.4138H69.8064" stroke="#E5F0F8" stroke-width="0.0930165" stroke-linecap="round" stroke-linejoin="round"/>
<path d="M72.5504 22.9624H69.8064" stroke="#E5F0F8" stroke-width="0.0930165" stroke-linecap="round" stroke-linejoin="round"/>
<path d="M72.5504 23.5115H69.8064" stroke="#E5F0F8" stroke-width="0.0930165" stroke-linecap="round" stroke-linejoin="round"/>
<path d="M72.5504 24.0598H69.8064" stroke="#E5F0F8" stroke-width="0.0930165" stroke-linecap="round" stroke-linejoin="round"/>
<path d="M72.5504 24.6089H69.8064" stroke="#E5F0F8" stroke-width="0.0930165" stroke-linecap="round" stroke-linejoin="round"/>
<path d="M69.6611 23.5115L70.085 24.3705L71.0333 24.5081L70.3472 25.1768L70.509 26.1213L69.6611 25.6756L68.8132 26.1213L68.9749 25.1768L68.2888 24.5081L69.2371 24.3705L69.6611 23.5115Z" fill="#F9E181"/>
<path d="M49.4916 9.04734L49.9745 8.5249L49.6456 10.3757H49.0488L49.129 8.5249H54.816L54.8962 10.3757H54.2998L53.971 8.52441L54.4539 9.04686L49.4916 9.04734ZM52.0826 14.887L53.5413 15.0429V15.4659H50.4027V15.0429L51.8595 14.8874L52.0826 14.887ZM51.4829 11.7397C51.4829 10.6717 51.4829 9.59297 51.452 8.5249H52.4935C52.4626 9.5722 52.4626 10.6494 52.4626 11.7397V12.2501C52.4626 13.3186 52.4626 14.3973 52.4935 15.4654H51.452C51.4829 14.4181 51.4829 13.3409 51.4829 12.2506V11.7397Z" fill="white"/>
</svg>
