<svg width="76" height="63" viewBox="0 0 76 63" fill="none" xmlns="http://www.w3.org/2000/svg">
<path d="M29.0537 51.403C28.2531 54.6704 27.4534 57.9369 26.6548 61.2023H49.0721C48.2715 57.9349 47.4719 54.6684 46.6733 51.403H29.0537Z" fill="#909090"/>
<path d="M37.7241 61.2023H49.0722C48.2715 57.9349 47.4719 54.6684 46.6733 51.403H37.7241V61.2023Z" fill="#95989A"/>
<path d="M50.4421 61.0278H25.27C24.6295 61.0278 24.1106 61.6346 24.1106 62.3863V62.9072H51.6015V62.3981C51.6015 61.6346 51.0826 61.0278 50.4421 61.0278Z" fill="white"/>
<path d="M0 47.5939V52.9923C-3.06925e-07 53.2393 0.0487997 53.4839 0.143612 53.7121C0.238424 53.9404 0.377386 54.1477 0.552547 54.3222C0.727709 54.4968 0.935633 54.6352 1.16442 54.7294C1.39321 54.8237 1.63838 54.872 1.8859 54.8716H73.8231C74.0706 54.872 74.3158 54.8237 74.5446 54.7294C74.7734 54.6352 74.9813 54.4968 75.1564 54.3222C75.3316 54.1477 75.4706 53.9404 75.5654 53.7121C75.6602 53.4839 75.709 53.2393 75.709 52.9923V47.5939H0Z" fill="#223341"/>
<path d="M75.709 47.5941V1.88233C75.709 1.38311 75.5103 0.904329 75.1566 0.551323C74.8029 0.198317 74.3233 0 73.8231 0H1.8859C1.38573 0 0.906044 0.198317 0.552369 0.551323C0.198693 0.904329 0 1.38311 0 1.88233V47.5941H75.709Z" fill="#223341"/>
<path d="M72.6104 2.94183H3.10474V44.4745H72.6104V2.94183Z" fill="#E9E7E5"/>
<path d="M72.6695 2.94171H3.10449V44.4744H72.6695V2.94171Z" fill="white"/>
<path d="M71.3145 4.2973H4.45679V10.3735H71.3145V4.2973Z" fill="#DBE2E8"/>
<path d="M59.8034 5.13779H26.3879V9.53286H59.8034V5.13779Z" fill="white"/>
<path d="M10.411 5.78598H6.94165V6.4371H10.411V5.78598Z" fill="white"/>
<path d="M10.411 7.01123H6.94165V7.66235H10.411V7.01123Z" fill="white"/>
<path d="M10.411 8.23367H6.94165V8.8848H10.411V8.23367Z" fill="white"/>
<path d="M45.8933 12.1908H4.45679V36.8446H45.8933V12.1908Z" fill="#DBE2E8"/>
<path d="M59.1717 12.1908H47.6458V20.8655H59.1717V12.1908Z" fill="#DBE2E8"/>
<path d="M34.7203 42.0919H11.7099C11.4472 42.0919 11.1953 41.9878 11.0096 41.8024C10.8238 41.617 10.7195 41.3656 10.7195 41.1034C10.7203 40.8418 10.825 40.5911 11.0106 40.4063C11.1963 40.2216 11.4477 40.1179 11.7099 40.1179H34.7203C34.9832 40.1186 35.2351 40.2234 35.4208 40.4093C35.6064 40.5952 35.7107 40.8469 35.7107 41.1093C35.7083 41.3702 35.6031 41.6197 35.4177 41.8036C35.2323 41.9876 34.9817 42.0912 34.7203 42.0919Z" fill="#DBE2E8"/>
<path d="M70.3566 14.369H61.0605C60.937 14.369 60.8186 14.3201 60.7313 14.2329C60.644 14.1458 60.595 14.0276 60.595 13.9044C60.595 13.7811 60.644 13.6629 60.7313 13.5758C60.8186 13.4887 60.937 13.4397 61.0605 13.4397H70.3566C70.418 13.4393 70.4788 13.451 70.5357 13.4742C70.5925 13.4974 70.6442 13.5316 70.6877 13.5748C70.7313 13.6179 70.7658 13.6693 70.7894 13.7259C70.813 13.7824 70.8251 13.8431 70.8251 13.9044C70.8251 13.9656 70.813 14.0263 70.7894 14.0829C70.7658 14.1394 70.7313 14.1908 70.6877 14.234C70.6442 14.2772 70.5925 14.3113 70.5357 14.3345C70.4788 14.3577 70.418 14.3694 70.3566 14.369Z" fill="#DBE2E8"/>
<path d="M70.3566 16.4409H61.0605C60.937 16.4409 60.8186 16.3919 60.7313 16.3048C60.644 16.2176 60.595 16.0994 60.595 15.9762C60.595 15.853 60.644 15.7348 60.7313 15.6476C60.8186 15.5605 60.937 15.5115 61.0605 15.5115H70.3566C70.418 15.5112 70.4788 15.5229 70.5357 15.5461C70.5925 15.5692 70.6442 15.6034 70.6877 15.6466C70.7313 15.6898 70.7658 15.7411 70.7894 15.7977C70.813 15.8543 70.8251 15.9149 70.8251 15.9762C70.8251 16.0375 70.813 16.0981 70.7894 16.1547C70.7658 16.2113 70.7313 16.2626 70.6877 16.3058C70.6442 16.349 70.5925 16.3832 70.5357 16.4064C70.4788 16.4295 70.418 16.4413 70.3566 16.4409Z" fill="#DBE2E8"/>
<path d="M64.7285 18.5123H61.0605C60.937 18.5123 60.8186 18.4634 60.7313 18.3762C60.644 18.2891 60.595 18.1709 60.595 18.0476C60.595 17.9244 60.644 17.8062 60.7313 17.7191C60.8186 17.6319 60.937 17.583 61.0605 17.583H64.7285C64.852 17.583 64.9704 17.6319 65.0577 17.7191C65.145 17.8062 65.1941 17.9244 65.1941 18.0476C65.1941 18.1709 65.145 18.2891 65.0577 18.3762C64.9704 18.4634 64.852 18.5123 64.7285 18.5123Z" fill="#DBE2E8"/>
<path d="M70.3566 26.2492H61.0605C60.937 26.2492 60.8186 26.2002 60.7313 26.1131C60.644 26.0259 60.595 25.9077 60.595 25.7845C60.595 25.6613 60.644 25.5431 60.7313 25.4559C60.8186 25.3688 60.937 25.3198 61.0605 25.3198H70.3566C70.4804 25.3198 70.5991 25.3687 70.6869 25.4557C70.7746 25.5428 70.8243 25.661 70.8251 25.7845C70.8251 25.8458 70.813 25.9064 70.7894 25.963C70.7658 26.0196 70.7313 26.0709 70.6877 26.1141C70.6442 26.1573 70.5925 26.1915 70.5357 26.2146C70.4788 26.2378 70.418 26.2495 70.3566 26.2492Z" fill="#DBE2E8"/>
<path d="M70.3566 28.3236H61.0605C60.937 28.3236 60.8186 28.2747 60.7313 28.1875C60.644 28.1004 60.595 27.9822 60.595 27.859C60.595 27.7357 60.644 27.6176 60.7313 27.5304C60.8186 27.4433 60.937 27.3943 61.0605 27.3943H70.3566C70.4804 27.3943 70.5991 27.4432 70.6869 27.5302C70.7746 27.6173 70.8243 27.7355 70.8251 27.859C70.8251 27.9203 70.813 27.9809 70.7894 28.0375C70.7658 28.0941 70.7313 28.1454 70.6877 28.1886C70.6442 28.2318 70.5925 28.266 70.5357 28.2891C70.4788 28.3123 70.418 28.324 70.3566 28.3236Z" fill="#DBE2E8"/>
<path d="M64.7286 30.4014H61.0605C60.9991 30.4014 60.9384 30.3893 60.8817 30.3657C60.825 30.3422 60.7736 30.3077 60.7303 30.2642C60.687 30.2208 60.6528 30.1692 60.6296 30.1125C60.6063 30.0558 60.5946 29.995 60.595 29.9337C60.595 29.8105 60.644 29.6923 60.7313 29.6052C60.8187 29.518 60.9371 29.4691 61.0605 29.4691H64.7286C64.852 29.4691 64.9704 29.518 65.0577 29.6052C65.1451 29.6923 65.1941 29.8105 65.1941 29.9337C65.1945 29.995 65.1827 30.0558 65.1595 30.1125C65.1363 30.1692 65.1021 30.2208 65.0588 30.2642C65.0155 30.3077 64.9641 30.3422 64.9074 30.3657C64.8507 30.3893 64.7899 30.4014 64.7286 30.4014Z" fill="#DBE2E8"/>
<path d="M70.3566 37.5843H61.0605C60.9371 37.5843 60.8187 37.5353 60.7313 37.4482C60.644 37.3611 60.595 37.2429 60.595 37.1196C60.5946 37.0584 60.6063 36.9976 60.6296 36.9409C60.6528 36.8842 60.687 36.8326 60.7303 36.7892C60.7736 36.7457 60.825 36.7112 60.8817 36.6877C60.9384 36.6641 60.9991 36.652 61.0605 36.652H70.3566C70.4809 36.652 70.6 36.7013 70.6879 36.789C70.7758 36.8767 70.8251 36.9956 70.8251 37.1196C70.8243 37.2431 70.7746 37.3613 70.6869 37.4484C70.5991 37.5354 70.4804 37.5843 70.3566 37.5843Z" fill="#DBE2E8"/>
<path d="M70.3566 39.6591H61.0605C60.9371 39.6591 60.8187 39.6101 60.7313 39.523C60.644 39.4359 60.595 39.3177 60.595 39.1944C60.5946 39.1332 60.6063 39.0724 60.6296 39.0157C60.6528 38.959 60.687 38.9074 60.7303 38.8639C60.7736 38.8205 60.825 38.786 60.8817 38.7625C60.9384 38.7389 60.9991 38.7268 61.0605 38.7268H70.3566C70.4809 38.7268 70.6 38.7761 70.6879 38.8638C70.7758 38.9515 70.8251 39.0704 70.8251 39.1944C70.8243 39.3179 70.7746 39.4361 70.6869 39.5232C70.5991 39.6102 70.4804 39.6591 70.3566 39.6591Z" fill="#DBE2E8"/>
<path d="M64.7286 41.734H61.0605C60.9371 41.734 60.8187 41.685 60.7313 41.5979C60.644 41.5107 60.595 41.3926 60.595 41.2693C60.5946 41.2081 60.6063 41.1473 60.6296 41.0906C60.6528 41.0339 60.687 40.9823 60.7303 40.9388C60.7736 40.8954 60.825 40.8609 60.8817 40.8374C60.9384 40.8138 60.9991 40.8017 61.0605 40.8017H64.7286C64.7899 40.8017 64.8507 40.8138 64.9074 40.8374C64.9641 40.8609 65.0155 40.8954 65.0588 40.9388C65.1021 40.9823 65.1363 41.0339 65.1595 41.0906C65.1827 41.1473 65.1945 41.2081 65.1941 41.2693C65.1941 41.3926 65.1451 41.5107 65.0577 41.5979C64.9704 41.685 64.852 41.734 64.7286 41.734Z" fill="#DBE2E8"/>
<path d="M59.1717 23.5231H47.6458V32.1978H59.1717V23.5231Z" fill="#DBE2E8"/>
<path d="M59.1717 34.8556H47.6458V43.5303H59.1717V34.8556Z" fill="#DBE2E8"/>
<path d="M8.59033 41.1034C8.59033 41.5131 8.46859 41.9137 8.24051 42.2544C8.01244 42.5951 7.68826 42.8606 7.30898 43.0174C6.92969 43.1742 6.51234 43.2152 6.1097 43.1353C5.70706 43.0554 5.33721 42.8581 5.04692 42.5683C4.75663 42.2786 4.55894 41.9094 4.47885 41.5075C4.39876 41.1057 4.43987 40.6891 4.59697 40.3105C4.75407 39.932 5.02011 39.6084 5.36146 39.3808C5.7028 39.1531 6.10411 39.0316 6.51465 39.0316C7.06515 39.0316 7.59311 39.2499 7.98238 39.6384C8.37164 40.0269 8.59033 40.5539 8.59033 41.1034Z" fill="#DBE2E8"/>
<path d="M16.4721 9.01502H14.0524C13.6062 9.01346 13.1787 8.83584 12.8632 8.52092C12.5477 8.20599 12.3697 7.77931 12.3682 7.33394C12.3697 6.88857 12.5477 6.46189 12.8632 6.14696C13.1787 5.83204 13.6062 5.65442 14.0524 5.65286H16.4721C16.9183 5.65442 17.3458 5.83204 17.6613 6.14696C17.9768 6.46189 18.1548 6.88857 18.1564 7.33394C18.1556 7.77955 17.9779 8.20669 17.6622 8.52178C17.3465 8.83687 16.9185 9.01424 16.4721 9.01502Z" fill="#FF4D43"/>
<path d="M58.4927 8.7456C58.4381 8.79551 58.3667 8.82319 58.2926 8.82319C58.2185 8.82319 58.1471 8.79551 58.0924 8.7456L57.5972 8.24838C57.3205 8.42803 56.9869 8.49916 56.6608 8.44809C56.3347 8.39701 56.039 8.22733 55.8306 7.97171C55.6223 7.7161 55.5161 7.39261 55.5324 7.0635C55.5487 6.7344 55.6864 6.42295 55.919 6.18909C56.1515 5.95523 56.4625 5.81549 56.7921 5.79677C57.1217 5.77806 57.4466 5.88168 57.7043 6.0877C57.9619 6.29372 58.1341 6.58758 58.1877 6.91271C58.2413 7.23785 58.1725 7.57128 57.9946 7.84883L58.4927 8.34605C58.5427 8.40061 58.5705 8.47188 58.5705 8.54582C58.5705 8.61977 58.5427 8.69104 58.4927 8.7456ZM56.8885 6.20622C56.7026 6.20622 56.5209 6.26125 56.3663 6.36434C56.2117 6.46743 56.0912 6.61396 56.0201 6.7854C55.9489 6.95683 55.9303 7.14547 55.9666 7.32747C56.0029 7.50946 56.0924 7.67663 56.2239 7.80784C56.3553 7.93906 56.5228 8.02841 56.7052 8.06461C56.8875 8.10082 57.0765 8.08223 57.2483 8.01122C57.42 7.94021 57.5668 7.81996 57.6701 7.66567C57.7734 7.51138 57.8285 7.32999 57.8285 7.14443C57.8269 6.89663 57.7272 6.65951 57.5511 6.48484C57.375 6.31017 57.1368 6.21214 56.8885 6.21214V6.20622Z" fill="#DBE2E8"/>
<path d="M68.5537 6.9906L68.4766 6.8071C68.5425 6.66835 68.598 6.52491 68.6426 6.37795L68.4054 6.14414C68.2604 6.19086 68.1188 6.24722 67.9814 6.31284L67.7946 6.23884C67.741 6.09795 67.6786 5.96055 67.6077 5.82745H67.2697C67.2005 5.96009 67.141 6.09759 67.0918 6.23884L66.905 6.3158C66.7657 6.25237 66.622 6.19896 66.475 6.15597L66.2378 6.38683C66.2843 6.52917 66.3418 6.66771 66.4098 6.80117L66.3327 6.98468C66.1882 7.03582 66.0475 7.09714 65.9116 7.16817V7.49669C66.0476 7.56492 66.1883 7.62328 66.3327 7.67131L66.4098 7.85185C66.346 7.98914 66.2916 8.13054 66.2467 8.27508L66.4839 8.50593C66.6293 8.46049 66.7711 8.4041 66.9079 8.33723L67.0948 8.41418C67.1481 8.55564 67.2116 8.69312 67.2845 8.82558H67.6196C67.6889 8.69193 67.7483 8.55344 67.7975 8.41122L67.9843 8.33723C68.1242 8.39937 68.2678 8.45275 68.4143 8.49705L68.6545 8.26324C68.6052 8.12246 68.5467 7.98504 68.4795 7.85185L68.5566 7.66835C68.7012 7.61618 68.8419 7.55387 68.9777 7.48189V7.15337C68.8399 7.09023 68.6983 7.03587 68.5537 6.9906ZM67.9339 7.33391C67.9363 7.43155 67.9094 7.52768 67.8568 7.61001C67.8042 7.69235 67.7281 7.75716 67.6384 7.79617C67.5487 7.83517 67.4494 7.84661 67.3531 7.82901C67.2569 7.81141 67.1681 7.76558 67.098 7.69736C67.028 7.62915 66.9799 7.54165 66.96 7.44604C66.94 7.35042 66.949 7.25104 66.9859 7.16058C67.0228 7.07011 67.0858 6.99267 67.167 6.93814C67.2482 6.88362 67.3438 6.85448 67.4417 6.85445C67.5057 6.85327 67.5692 6.86479 67.6287 6.88832C67.6882 6.91185 67.7424 6.94693 67.7882 6.99153C67.834 7.03613 67.8704 7.08936 67.8954 7.14813C67.9205 7.20691 67.9335 7.27005 67.9339 7.33391Z" fill="white"/>
<path d="M39.0078 40.6655H38.6105C38.5368 40.6655 38.4771 40.7251 38.4771 40.7987V41.8937C38.4771 41.9673 38.5368 42.0269 38.6105 42.0269H39.0078C39.0815 42.0269 39.1413 41.9673 39.1413 41.8937V40.7987C39.1413 40.7251 39.0815 40.6655 39.0078 40.6655Z" fill="#DBE2E8"/>
<path d="M40.7932 40.7927H40.7695C40.7971 40.7927 40.8245 40.7873 40.8501 40.7767C40.8756 40.7662 40.8988 40.7507 40.9184 40.7312C40.9379 40.7117 40.9534 40.6885 40.964 40.663C40.9746 40.6375 40.98 40.6102 40.98 40.5826C40.98 40.555 40.9746 40.5277 40.964 40.5022C40.9534 40.4767 40.9379 40.4535 40.9184 40.434C40.8988 40.4145 40.8756 40.399 40.8501 40.3884C40.8245 40.3779 40.7971 40.3724 40.7695 40.3724H40.0934C40.2017 40.2211 40.27 40.045 40.2921 39.8604C40.2921 39.5911 40.1438 39.4402 40.046 39.4224C40.0048 39.4132 39.9616 39.42 39.9252 39.4414C39.8889 39.4629 39.8621 39.4974 39.8503 39.5378C39.8206 39.6207 39.871 39.7746 39.8503 39.8338C39.7314 39.9937 39.6037 40.1469 39.4677 40.2925C39.3587 40.437 39.3041 40.6151 39.3135 40.7957V41.7191C39.3135 41.7536 39.3273 41.7867 39.3518 41.8112C39.3762 41.8356 39.4094 41.8493 39.444 41.8493H40.7013C40.7242 41.8559 40.7484 41.857 40.7719 41.8526C40.7953 41.8483 40.8174 41.8385 40.8365 41.8242C40.8556 41.8098 40.871 41.7913 40.8817 41.77C40.8923 41.7486 40.8978 41.7251 40.8978 41.7013C40.8978 41.6775 40.8923 41.654 40.8817 41.6327C40.871 41.6114 40.8556 41.5928 40.8365 41.5785C40.8174 41.5641 40.7953 41.5544 40.7719 41.55C40.7484 41.5457 40.7242 41.5468 40.7013 41.5533H40.722C40.7679 41.5476 40.8101 41.5253 40.8407 41.4907C40.8713 41.4561 40.8881 41.4115 40.8881 41.3654C40.8881 41.3193 40.8713 41.2747 40.8407 41.2401C40.8101 41.2055 40.7679 41.1832 40.722 41.1775H40.7902C40.8401 41.1775 40.8879 41.1579 40.9234 41.123C40.9589 41.0882 40.9792 41.0407 40.98 40.991C40.9812 40.9656 40.9773 40.9403 40.9685 40.9165C40.9597 40.8927 40.9461 40.8709 40.9287 40.8524C40.9113 40.8339 40.8903 40.819 40.867 40.8088C40.8438 40.7986 40.8186 40.7931 40.7932 40.7927Z" fill="#DBE2E8"/>
<path d="M44.7456 40.1799H44.3483C44.2746 40.1799 44.2148 40.2396 44.2148 40.3131V41.4082C44.2148 41.4817 44.2746 41.5414 44.3483 41.5414H44.7456C44.8193 41.5414 44.8791 41.4817 44.8791 41.4082V40.3131C44.8791 40.2396 44.8193 40.1799 44.7456 40.1799Z" fill="#DBE2E8"/>
<path d="M42.5486 41.4113H42.5723C42.5204 41.4175 42.4726 41.4424 42.4379 41.4814C42.4031 41.5204 42.384 41.5708 42.384 41.6229C42.384 41.6751 42.4031 41.7255 42.4379 41.7645C42.4726 41.8035 42.5204 41.8284 42.5723 41.8346H43.2484C43.1416 41.9852 43.0743 42.1603 43.0527 42.3436C43.0527 42.6159 43.201 42.7668 43.2959 42.7816C43.3371 42.7916 43.3807 42.7851 43.4172 42.7636C43.4537 42.742 43.4804 42.7071 43.4916 42.6662C43.5212 42.5863 43.4708 42.4294 43.4916 42.3703C43.6081 42.2094 43.7349 42.0562 43.8711 41.9115C43.9801 41.7659 44.0347 41.5869 44.0253 41.4054V40.485C44.0253 40.4504 44.0116 40.4173 43.9871 40.3929C43.9626 40.3685 43.9295 40.3547 43.8949 40.3547H42.6376C42.5975 40.3547 42.559 40.3706 42.5306 40.3989C42.5023 40.4273 42.4864 40.4656 42.4864 40.5057C42.4864 40.546 42.5022 40.5847 42.5305 40.6135C42.5587 40.6422 42.5972 40.6588 42.6376 40.6596H42.6168C42.5673 40.6596 42.5198 40.6792 42.4847 40.7142C42.4497 40.7492 42.43 40.7966 42.43 40.846C42.43 40.8955 42.4497 40.9429 42.4847 40.9779C42.5198 41.0128 42.5673 41.0325 42.6168 41.0325H42.5486C42.4991 41.0325 42.4516 41.0521 42.4165 41.0871C42.3815 41.1221 42.3618 41.1695 42.3618 41.219C42.3618 41.2684 42.3815 41.3158 42.4165 41.3508C42.4516 41.3858 42.4991 41.4054 42.5486 41.4054V41.4113Z" fill="#DBE2E8"/>
<path d="M31.504 30.8332C34.9989 27.345 34.9989 21.6894 31.504 18.2012C28.0092 14.7129 22.3429 14.7129 18.848 18.2012C15.3532 21.6894 15.3532 27.345 18.848 30.8332C22.3429 34.3214 28.0092 34.3214 31.504 30.8332Z" fill="#FF4D43"/>
<path d="M22.8057 19.7762V29.256L29.9727 24.5176L22.8057 19.7762Z" fill="white"/>
<path d="M53.4073 19.2731C54.927 19.2731 56.159 18.0435 56.159 16.5266C56.159 15.0097 54.927 13.78 53.4073 13.78C51.8875 13.78 50.6555 15.0097 50.6555 16.5266C50.6555 18.0435 51.8875 19.2731 53.4073 19.2731Z" fill="#FF4D43"/>
<path d="M52.678 15.0704V17.9857L54.8812 16.5295L52.678 15.0704Z" fill="white"/>
<path d="M53.4073 30.6085C54.927 30.6085 56.159 29.3788 56.159 27.8619C56.159 26.3451 54.927 25.1154 53.4073 25.1154C51.8875 25.1154 50.6555 26.3451 50.6555 27.8619C50.6555 29.3788 51.8875 30.6085 53.4073 30.6085Z" fill="#FF4D43"/>
<path d="M52.678 26.4029V29.3181L54.8812 27.862L52.678 26.4029Z" fill="white"/>
<path d="M53.4073 41.9411C54.927 41.9411 56.159 40.7115 56.159 39.1946C56.159 37.6777 54.927 36.448 53.4073 36.448C51.8875 36.448 50.6555 37.6777 50.6555 39.1946C50.6555 40.7115 51.8875 41.9411 53.4073 41.9411Z" fill="#FF4D43"/>
<path d="M52.678 37.7352V40.6504L54.8812 39.1943L52.678 37.7352Z" fill="white"/>
</svg>
