<svg width="90" height="76" viewBox="0 0 90 76" fill="none" xmlns="http://www.w3.org/2000/svg">
<path d="M85.7796 71.9993H1.77344L1.70374 71.9179C1.66657 71.8715 -2.11102 67.2715 1.70374 61.7956C5.51851 56.3197 6.23639 54.1637 4.22679 49.2803C3.8783 48.43 3.43456 47.5099 2.96294 46.5365C0.59788 41.6391 -2.34567 35.5406 3.05355 30.843L4.31275 29.7534C9.82348 24.9791 13.464 21.8265 14.8579 16.1996C15.4295 13.8949 16.6724 10.5982 19.3627 7.97531C21.8997 5.50337 25.0779 4.25812 28.8137 4.25812C31.7201 4.25812 34.9401 5.03873 38.3854 6.58136C48.5473 11.107 52.1414 12.4197 56.3534 12.4197C57.7474 12.4197 59.2482 12.2803 61.2043 12.0851C61.9964 12.0059 62.792 11.9663 63.588 11.9666C68.7107 11.9666 73.1528 13.5395 75.778 16.2786C77.869 18.4508 78.8378 21.3038 78.6891 24.7631C78.5985 26.854 78.4567 28.6104 78.3336 30.1669C77.8248 36.4885 77.6366 38.8559 82.3551 42.9308C89.1994 48.8412 93.7088 59.5513 85.84 71.8877L85.7796 71.9993ZM1.9895 71.5346H85.5287C93.142 59.4886 88.7371 49.041 82.0578 43.2723C77.165 39.0464 77.3741 36.435 77.8759 30.1274C78.0014 28.5755 78.1431 26.8145 78.2314 24.7422C78.3731 21.4106 77.4368 18.6692 75.4435 16.5922C72.9019 13.9414 68.5806 12.4104 63.581 12.4104C62.7981 12.4104 62.0105 12.4499 61.2415 12.5265C59.2737 12.724 57.7683 12.8634 56.3464 12.8634C52.0484 12.8634 48.4219 11.5345 38.181 6.96237C34.796 5.45226 31.6364 4.68559 28.7951 4.68559C26.2976 4.68559 17.9479 5.52196 15.2808 16.3018C13.852 22.0681 10.1696 25.2602 4.59386 30.0903L3.33698 31.1799C-1.79971 35.6498 1.0602 41.5741 3.35789 46.3321C3.82254 47.3125 4.28719 48.2394 4.63335 49.1014C6.82417 54.4332 5.73457 56.7681 2.06152 62.0488C-1.26769 66.8579 1.52253 70.9259 1.9895 71.5439V71.5346Z" fill="#E3EDFC"/>
<path d="M3.52288 71.7716C3.52288 71.7716 -0.0804751 67.4899 3.52288 62.2998C7.12623 57.1096 7.99047 54.9629 5.9739 50.0563C3.95732 45.1496 -1.3025 37.8662 4.78672 32.5692C10.8759 27.2722 14.7511 24.2497 16.2078 18.3695C18.1082 10.7028 24.9711 3.19875 38.5365 9.25312C52.1019 15.3075 53.4052 15.2936 60.6073 14.585C67.8094 13.8764 77.6181 16.4645 77.186 26.552C76.7538 36.6395 75.023 39.223 80.7893 44.2086C86.5556 49.1943 92.0338 59.3353 84.1046 71.7763L3.52288 71.7716Z" fill="#E3EDFC"/>
<path d="M35.0351 27.4812C35.0351 27.4812 31.5642 48.9085 44.823 48.9085C58.0817 48.9085 54.9825 26.6472 54.9825 26.6472L35.444 27.4812" fill="#814C4A"/>
<g opacity="0.2">
<path d="M36.3133 30.5015C36.3133 30.5015 36.3133 30.7338 36.3133 31.1427C36.3133 31.5516 36.3249 32.1301 36.3458 32.8247C36.3667 33.5194 36.4155 34.3302 36.4945 35.1921C36.5293 35.6242 36.5874 36.068 36.6409 36.5187C36.6943 36.9694 36.7686 37.4247 36.8569 37.8778C36.9452 38.3308 37.0312 38.7815 37.1404 39.2206C37.1915 39.4413 37.2565 39.6574 37.31 39.8711C37.3634 40.0848 37.4354 40.2939 37.4981 40.5007L37.7049 41.0978C37.7793 41.2906 37.8489 41.4811 37.9256 41.6647L38.1579 42.1897C38.2393 42.357 38.3206 42.5173 38.3903 42.6706C38.5599 42.9703 38.7109 43.2491 38.8689 43.4837C39.0268 43.7184 39.1709 43.9135 39.287 44.0808C39.5403 44.3968 39.6913 44.578 39.6913 44.578L39.5681 44.4642C39.4892 44.3898 39.3614 44.2876 39.2197 44.1389C39.0779 43.9902 38.9037 43.8113 38.7318 43.5837C38.6435 43.4698 38.5413 43.3513 38.4507 43.2235L38.1649 42.803L37.8838 42.3384C37.7909 42.1711 37.7049 41.9945 37.6097 41.8133C37.5144 41.6321 37.4401 41.4393 37.3518 41.2465C37.2635 41.0536 37.1938 40.8445 37.1194 40.6401C36.9754 40.2219 36.829 39.7898 36.7152 39.3391C36.6014 38.8884 36.4945 38.4307 36.4109 37.9684C36.3272 37.506 36.2645 37.0391 36.2087 36.5744C36.153 36.1098 36.1228 35.6637 36.0972 35.2246C36.0717 34.7855 36.0647 34.3604 36.0647 33.9585C36.0647 33.5565 36.0647 33.1778 36.0879 32.827C36.1181 32.1301 36.1832 31.5446 36.2296 31.138C36.2761 30.7315 36.3133 30.5015 36.3133 30.5015Z" fill="#B76A6A"/>
<path d="M37.9489 30.5015C37.9489 30.5015 37.9628 30.7175 37.9884 31.0962C37.9884 31.2867 38.0162 31.5144 38.0348 31.7792C38.0534 32.0441 38.0813 32.3368 38.1069 32.6598C38.1324 32.9827 38.1696 33.3335 38.2044 33.7029C38.2393 34.0723 38.2834 34.4603 38.3322 34.8645C38.381 35.2688 38.4391 35.6777 38.4925 36.0982C38.5459 36.5187 38.6273 36.9415 38.6923 37.3667C38.7574 37.7918 38.8503 38.2123 38.9246 38.6282C38.999 39.044 39.1035 39.4483 39.2034 39.8386C39.3033 40.2289 39.4009 40.6053 39.5101 40.9584L39.8307 41.9481L40.149 42.7682L40.2164 42.9471C40.2411 43.0028 40.2667 43.0563 40.293 43.1074L40.4254 43.3908L40.674 43.9345C40.674 43.9345 40.5532 43.7532 40.3465 43.435L40.1745 43.1678L40.0793 43.0168L39.991 42.8449C39.8702 42.6125 39.7331 42.3407 39.5891 42.0457C39.445 41.7506 39.3266 41.4161 39.1895 41.0653C39.0524 40.7144 38.9409 40.3334 38.8178 39.9431C38.6946 39.5528 38.5994 39.1393 38.4948 38.7211C38.3903 38.3029 38.3183 37.8731 38.2416 37.4433C38.1649 37.0135 38.0999 36.5837 38.0557 36.1562C38.0116 35.7288 37.9605 35.3106 37.9326 34.9017C37.9047 34.4928 37.8792 34.1025 37.8652 33.7401C37.8513 33.3776 37.849 33.0129 37.8443 32.6853C37.8402 31.956 37.8751 31.227 37.9489 30.5015Z" fill="#B76A6A"/>
<path d="M40.4485 31.0892C40.4485 31.0892 40.495 31.8954 40.5623 33.1035C40.5972 33.7075 40.639 34.4091 40.6808 35.1642C40.7064 35.5382 40.7319 35.9285 40.7598 36.3258C40.7877 36.7231 40.8156 37.1204 40.8527 37.52C40.8899 37.9196 40.9201 38.3192 40.9642 38.7118C41.0084 39.1044 41.0479 39.4878 41.099 39.8595C41.1501 40.2312 41.2035 40.5913 41.2593 40.9305C41.3151 41.2697 41.3801 41.588 41.4428 41.8807C41.5056 42.1734 41.5753 42.4383 41.645 42.6729C41.7147 42.9076 41.7774 43.1097 41.8448 43.2723C41.9121 43.4349 41.9609 43.5627 42.0004 43.6487L42.0608 43.7811L41.9795 43.6626C41.8985 43.5502 41.8255 43.4322 41.7611 43.3095C41.6561 43.1224 41.5622 42.9292 41.48 42.731L41.3313 42.3639C41.2872 42.2315 41.2384 42.0944 41.1896 41.9481C41.1408 41.8017 41.099 41.6507 41.0525 41.4834L40.9248 40.9886C40.8458 40.6494 40.7668 40.2916 40.704 39.9129C40.6413 39.5342 40.5739 39.1486 40.5275 38.7513C40.481 38.354 40.4369 37.9521 40.3997 37.5479C40.3625 37.1436 40.3416 36.7394 40.3207 36.3421C40.2998 35.9448 40.2905 35.5522 40.2812 35.1805C40.2696 34.4231 40.2812 33.7145 40.3021 33.1081C40.3463 31.8931 40.4485 31.0892 40.4485 31.0892Z" fill="#B76A6A"/>
<path d="M53.3354 30.5015C53.3354 30.5015 53.3354 30.7338 53.3354 31.1427C53.3354 31.5516 53.3354 32.1301 53.3029 32.8247C53.2703 33.5194 53.2332 34.3302 53.1542 35.1921C53.1193 35.6242 53.0636 36.068 53.0078 36.5187C52.9521 36.9694 52.8824 37.4247 52.7941 37.8778C52.7058 38.3308 52.6175 38.7815 52.5106 39.2206C52.4595 39.4413 52.3945 39.6574 52.341 39.8711C52.2876 40.0848 52.2133 40.2939 52.1529 40.5007C52.0925 40.7075 52.0135 40.9026 51.9438 41.0978C51.8741 41.2929 51.7997 41.4811 51.7254 41.6647C51.651 41.8482 51.5674 42.0201 51.4931 42.1897L51.2607 42.6706C51.0911 42.9703 50.9401 43.2491 50.7845 43.4837C50.6288 43.7184 50.4801 43.9135 50.364 44.0808C50.1107 44.3968 49.9597 44.578 49.9597 44.578L50.0852 44.4642C50.1642 44.3898 50.2896 44.2876 50.4313 44.1389C50.5731 43.9902 50.7496 43.8113 50.9215 43.5837C51.0075 43.4698 51.1097 43.3513 51.2027 43.2235L51.4861 42.803L51.7695 42.3384C51.8625 42.1711 51.9484 41.9945 52.0413 41.8133C52.1343 41.6321 52.2109 41.4393 52.3016 41.2465C52.3922 41.0536 52.4572 40.8445 52.5339 40.6401C52.6779 40.2219 52.8266 39.7898 52.9381 39.3391C53.0496 38.8884 53.1704 38.4307 53.2448 37.9684C53.3191 37.506 53.3912 37.0391 53.4469 36.5744C53.5027 36.1098 53.5329 35.6637 53.5561 35.2246C53.5793 34.7855 53.5886 34.3604 53.5909 33.9585C53.5933 33.5565 53.591 33.1778 53.5654 32.827C53.5375 32.1301 53.4701 31.5446 53.426 31.138C53.3819 30.7315 53.3354 30.5015 53.3354 30.5015Z" fill="#B76A6A"/>
<path d="M51.6998 30.5015C51.6998 30.5015 51.6835 30.7175 51.6603 31.0962C51.6464 31.2867 51.6301 31.5144 51.6115 31.7792L51.5418 32.6598C51.5116 32.9827 51.4768 33.3335 51.4419 33.7029C51.4071 34.0723 51.3629 34.4603 51.3141 34.8645C51.2653 35.2688 51.2096 35.6777 51.1538 36.0982C51.0981 36.5187 51.0214 36.9415 50.954 37.3667C50.8867 37.7918 50.7984 38.2123 50.7217 38.6282C50.645 39.044 50.5451 39.4483 50.4429 39.8386C50.3407 40.2289 50.2454 40.6053 50.1362 40.9584C50.0271 41.3115 49.9155 41.6414 49.818 41.9481L49.4904 42.7659C49.4672 42.8286 49.4439 42.889 49.4207 42.9448L49.3463 43.1051L49.2139 43.3885L48.9653 43.9321L49.2929 43.4326C49.344 43.3513 49.4021 43.263 49.4625 43.1655C49.495 43.1167 49.5252 43.0656 49.5601 43.0145L49.646 42.8425C49.7692 42.6102 49.9062 42.3384 50.0503 42.0433C50.1943 41.7483 50.3105 41.4137 50.4499 41.0629C50.5893 40.7121 50.6962 40.3311 50.8216 39.9408C50.9471 39.5505 51.0377 39.137 51.1422 38.7188C51.2468 38.3006 51.3211 37.8708 51.3955 37.441C51.4698 37.0112 51.5372 36.5814 51.5836 36.1539C51.6301 35.7264 51.6766 35.3083 51.7068 34.8994C51.737 34.4905 51.7579 34.1002 51.7741 33.7377C51.7904 33.3753 51.7881 33.0106 51.795 32.683C51.8022 31.9546 51.7704 31.2264 51.6998 30.5015Z" fill="#B76A6A"/>
<path d="M49.2002 31.0892L49.0841 33.1035C49.0492 33.7075 49.0097 34.4091 48.9656 35.1642C48.94 35.5382 48.9145 35.9285 48.8889 36.3258C48.8634 36.7231 48.8308 37.1204 48.7937 37.52C48.7565 37.9196 48.7263 38.3192 48.6821 38.7118C48.638 39.1044 48.5985 39.4878 48.5497 39.8595C48.5009 40.2312 48.4452 40.5913 48.3894 40.9305C48.3337 41.2697 48.2686 41.588 48.2059 41.8807C48.1431 42.1734 48.0711 42.4383 48.0038 42.6729C47.9364 42.9076 47.8713 43.1097 47.804 43.2723C47.7366 43.4349 47.6878 43.5627 47.6483 43.6487L47.5879 43.7811L47.6692 43.6626C47.7493 43.55 47.8215 43.432 47.8853 43.3095C47.9902 43.122 48.0848 42.9289 48.1687 42.731C48.2152 42.6172 48.264 42.4987 48.3151 42.3639C48.3662 42.2292 48.408 42.0944 48.4568 41.9481L48.5962 41.4834C48.6349 41.3285 48.6767 41.1636 48.7216 40.9886C48.8006 40.6494 48.8819 40.2916 48.954 39.9129C49.026 39.5342 49.0841 39.1486 49.1282 38.7513C49.1723 38.354 49.2211 37.9521 49.256 37.5479C49.2908 37.1436 49.3141 36.7394 49.3373 36.3421C49.3605 35.9448 49.3652 35.5522 49.3745 35.1805C49.3884 34.4231 49.3745 33.7145 49.3536 33.1081C49.3024 31.8931 49.2002 31.0892 49.2002 31.0892Z" fill="#B76A6A"/>
</g>
<path d="M47.1209 35.0319H44.8255H42.5255L40.5647 43.0029L44.8255 48.9086L49.084 42.5127L47.1209 35.0319Z" fill="#FFAE8A"/>
<path d="M47.1208 35.0319H42.5208L42.0562 36.9741C43.4129 38.3402 46.238 39.2462 47.9758 38.2658L47.1208 35.0319Z" fill="#F79B77"/>
<path d="M36.6757 27.1816C36.6757 27.1816 35.2817 24.9559 34.4639 26.0199C33.6462 27.084 34.9704 29.6279 36.6757 29.1935V27.1816Z" fill="#FFAE8A"/>
<path d="M52.9753 27.1816C52.9753 27.1816 54.3554 24.9559 55.1847 26.0199C56.0141 27.084 54.676 29.6117 52.9753 29.1865V27.1816Z" fill="#FFAE8A"/>
<path d="M44.8441 15.0914C35.4396 15.0914 36.1784 27.1049 36.3619 30.0322C36.5454 32.9595 38.3436 33.9678 40.6948 35.8148C43.0459 37.6617 44.8441 37.4619 44.8441 37.4619C44.8441 37.4619 46.6423 37.6571 48.9911 35.8148C51.3399 33.9724 53.1404 32.9618 53.3239 30.0322C53.5074 27.1026 54.2579 15.0914 44.8441 15.0914Z" fill="#FFAE8A"/>
<path opacity="0.5" d="M53.3726 25.7342C53.412 26.9551 53.388 28.1772 53.3006 29.3956C53.117 32.3252 51.3212 33.3312 48.97 35.1759C46.6189 37.0205 44.8207 36.8254 44.8207 36.8254C44.8207 36.8254 43.0225 37.0205 40.6714 35.1759C38.3203 33.3312 36.5244 32.3252 36.3386 29.3956C36.3386 29.2469 36.32 29.0727 36.3083 28.8775C36.3269 29.3422 36.3525 29.7348 36.3711 30.0392C36.5546 32.9688 38.3528 33.9747 40.7039 35.8217C43.055 37.6687 44.8439 37.4619 44.8439 37.4619C44.8439 37.4619 46.6421 37.6571 48.9909 35.8147C51.3397 33.9724 53.1403 32.9618 53.3238 30.0322C53.4299 28.602 53.4462 27.1665 53.3726 25.7342Z" fill="#FFBCA1"/>
<path d="M56.7343 41.2766L48.2428 39.3112C48.2428 41.9713 45.2505 41.962 45.0089 41.9155H44.9903C44.758 41.962 41.4729 41.9713 41.4729 39.3112L33.2649 41.2766L35.0166 49.3778C35.0166 49.3778 32.7607 54.3147 36.6894 57.8088L37.4096 69.8502H52.8359L53.3005 57.8088C57.2268 54.324 54.9733 49.3778 54.9733 49.3778L56.7343 41.2766Z" fill="#FAC849"/>
<path d="M44.9881 42.7356H45.0113C45.3133 42.796 49.0468 42.8053 49.0932 39.5086L48.2429 39.3112C48.2429 41.9713 45.2506 41.962 45.009 41.9155H44.9904C44.7581 41.962 41.473 41.9713 41.473 39.3112L40.5437 39.5319C40.6204 42.803 44.686 42.796 44.9881 42.7356Z" fill="#F9B212"/>
<path d="M47.2252 25.9479C47.2252 25.9479 47.1648 25.2695 47.3995 25.1347C47.6341 25 49.6995 24.9303 50.4569 25.1347C51.2142 25.3392 51.5349 26.2801 51.5349 26.2801C51.5349 26.2801 51.2607 25.8875 50.0944 25.7667C49.2395 25.6784 47.5156 26.0849 47.2252 25.9479Z" fill="#AA6868"/>
<path d="M42.4811 25.9479C42.4811 25.9479 42.5392 25.2695 42.3046 25.1347C42.0699 25 40.0046 24.9303 39.2472 25.1347C38.4898 25.3392 38.1692 26.2801 38.1692 26.2801C38.1692 26.2801 38.4433 25.8875 39.6096 25.7667C40.4669 25.6784 42.1884 26.0849 42.4811 25.9479Z" fill="#AA6868"/>
<path d="M49.9412 28.2549C49.9412 28.7544 49.667 29.1609 49.3278 29.1609C48.9886 29.1609 48.7122 28.7544 48.7122 28.2549C48.7122 27.7554 48.9886 27.3488 49.3278 27.3488C49.667 27.3488 49.9412 27.7531 49.9412 28.2549Z" fill="#111B24"/>
<path d="M41.1266 28.2549C41.1266 28.7544 40.8524 29.1609 40.5132 29.1609C40.174 29.1609 39.8999 28.7544 39.8999 28.2549C39.8999 27.7554 40.174 27.3488 40.5132 27.3488C40.8524 27.3488 41.1266 27.7531 41.1266 28.2549Z" fill="#111B24"/>
<path d="M42.1375 32.9177C42.1375 32.9177 42.9366 34.8158 44.851 34.8158C46.7654 34.8158 47.5622 32.9177 47.5622 32.9177C47.5622 32.9177 45.3273 33.919 42.1375 32.9177Z" fill="#F4472A"/>
<path d="M42.1421 32.9316C42.1421 32.9316 43.4617 34.0189 44.8882 34.0189C46.3146 34.0189 47.532 32.9316 47.532 32.9316C47.532 32.9316 45.2947 34.1908 42.1421 32.9316Z" fill="white"/>
<path d="M47.6322 32.8642C47.6322 32.8642 45.7457 32.7481 45.381 32.8642C45.2232 32.9349 45.054 32.9766 44.8815 32.9874C44.708 32.9775 44.5379 32.9358 44.3796 32.8642C44.0149 32.7481 42.1284 32.8642 42.1284 32.8642C44.3564 33.9748 47.2303 33.2824 47.6322 32.8642Z" fill="#F4472A"/>
<path d="M41.6936 32.7202C43.5778 33.6936 46.1473 33.7587 48.0128 32.7202C48.0547 32.6969 48.0128 32.6435 47.9687 32.6667C46.1287 33.6936 43.5963 33.6286 41.7331 32.6667C41.689 32.6435 41.6495 32.6993 41.6936 32.7202Z" fill="#F4472A"/>
<path d="M43.8706 31.0892L44.2121 31.2054C44.312 31.2333 44.4189 31.2704 44.5304 31.2937C44.5862 31.3076 44.6419 31.3169 44.6977 31.3262C44.7531 31.3335 44.809 31.3374 44.865 31.3378C44.9198 31.3436 44.9751 31.3436 45.0299 31.3378C45.0838 31.3335 45.1373 31.3257 45.1902 31.3146C45.2436 31.3146 45.2948 31.2844 45.3482 31.2728C45.398 31.2597 45.4469 31.2434 45.4946 31.224C45.5397 31.2095 45.5839 31.1925 45.627 31.1729C45.6641 31.1543 45.7013 31.1403 45.7315 31.1287L45.8337 31.0939C45.8337 31.0939 45.8337 31.1311 45.7966 31.1938C45.7614 31.279 45.7119 31.3576 45.6502 31.4261C45.6123 31.4781 45.5678 31.525 45.5178 31.5655C45.4596 31.6113 45.3974 31.6518 45.3319 31.6863C45.2585 31.7238 45.1804 31.7511 45.0996 31.7676C45.0167 31.7869 44.9314 31.7948 44.8464 31.7909C44.7624 31.7879 44.679 31.7755 44.5978 31.7537C44.5219 31.7335 44.4486 31.7047 44.3794 31.6677C44.2596 31.6041 44.1519 31.5199 44.0611 31.4191C43.9742 31.3245 43.9091 31.2118 43.8706 31.0892Z" fill="#F89675"/>
<g opacity="0.1">
<path d="M40.7528 30.7408C40.7528 31.5725 39.9885 32.2462 39.0429 32.2462C38.0974 32.2462 37.333 31.5725 37.333 30.7408C37.333 29.909 38.0974 29.2353 39.0429 29.2353C39.9885 29.2353 40.7528 29.909 40.7528 30.7408Z" fill="#F4472A"/>
<path d="M52.5921 30.7408C52.5921 31.5725 51.8254 32.2462 50.8798 32.2462C49.9343 32.2462 49.1699 31.5725 49.1699 30.7408C49.1699 29.909 49.9366 29.2353 50.8798 29.2353C51.8231 29.2353 52.5921 29.909 52.5921 30.7408Z" fill="#F4472A"/>
</g>
<path d="M56.6926 41.2767C57.7001 41.6949 58.6153 42.3076 59.3859 43.0798C60.1565 43.8519 60.7673 44.7684 61.1834 45.7768C62.6378 49.2361 66.197 59.6651 65.6162 61.9814C64.9959 64.4696 52.9545 69.2648 52.9545 69.2648L51.1331 66.1191C51.1331 66.1191 58.5814 60.9058 59.8243 59.9137L54.9827 49.3778L56.6926 41.2767Z" fill="#F4B425"/>
<path d="M33.295 41.2767C32.289 41.6956 31.3754 42.3086 30.6065 43.0808C29.8375 43.8529 29.2282 44.7691 28.8135 45.7768C27.3591 49.2361 23.7999 59.6651 24.3784 61.9814C25.001 64.4696 37.0424 69.2648 37.0424 69.2648L38.8615 66.1191C38.8615 66.1191 31.4132 60.9058 30.1726 59.9137L35.0258 49.3778L33.295 41.2767Z" fill="#F4B425"/>
<path d="M49.0398 57.6462C47.395 57.1374 45.8407 56.7169 44.9951 56.7169C44.1471 56.7169 42.5928 57.1467 40.948 57.6462C40.0417 57.9528 39.0741 58.0326 38.1299 57.8785C39.2915 58.6011 40.9178 58.701 42.5138 58.1109C43.3071 57.8054 44.1456 57.6334 44.9951 57.6021C45.8406 57.6589 46.6744 57.8301 47.474 58.1109C49.1002 58.6615 50.6893 58.5987 51.8579 57.8785C50.9137 58.0326 49.9461 57.9528 49.0398 57.6462Z" fill="#F4B425"/>
<path d="M55.1684 26.4544C54.8176 26.1477 54.5272 26.1756 54.2925 26.3731C54.2659 26.3862 54.244 26.4073 54.2298 26.4335C53.8209 26.8493 53.5956 27.7809 53.5328 28.2177C53.5026 28.3966 53.7768 28.4733 53.807 28.2921C53.8558 27.9924 54.0393 27.1095 54.3506 26.7169C54.448 26.8828 54.4994 27.0716 54.4994 27.264C54.4994 27.4564 54.448 27.6453 54.3506 27.8111C54.3315 27.8438 54.3262 27.8827 54.3358 27.9193C54.3453 27.9559 54.3691 27.9872 54.4017 28.0063C54.4344 28.0254 54.4733 28.0307 54.5099 28.0212C54.5465 28.0116 54.5778 27.9878 54.5969 27.9552C54.7242 27.7411 54.7903 27.4961 54.7878 27.247C54.7854 26.9978 54.7145 26.7542 54.5829 26.5426C54.6532 26.5225 54.7277 26.5226 54.7979 26.5427C54.8681 26.5628 54.9313 26.6022 54.9802 26.6565C55.1034 26.775 55.2985 26.5752 55.1684 26.4544Z" fill="#F4885D"/>
<path d="M34.645 26.4544C34.9958 26.1477 35.2839 26.1756 35.5185 26.3731C35.5452 26.3862 35.5671 26.4073 35.5813 26.4335C35.9902 26.8493 36.2155 27.7809 36.2782 28.2177C36.3084 28.3966 36.0459 28.4733 36.0041 28.2921C35.9553 27.9924 35.7718 27.1095 35.4628 26.7169C35.3646 26.8825 35.3129 27.0715 35.3129 27.264C35.3129 27.4565 35.3646 27.6455 35.4628 27.8111C35.5604 27.9691 35.3141 28.1108 35.2165 27.9552C35.0899 27.7408 35.0243 27.4959 35.0267 27.247C35.0292 26.998 35.0996 26.7545 35.2305 26.5426C35.1606 26.5225 35.0864 26.5224 35.0166 26.5426C34.9467 26.5627 34.8839 26.6022 34.8355 26.6565C34.7077 26.775 34.5056 26.5752 34.645 26.4544Z" fill="#F4885D"/>
<path d="M51.5557 66.8486C51.5557 66.8486 48.9397 66.8091 48.5215 67.1878C48.1033 67.5665 46.8534 69.8827 47.0416 70.1104C47.2298 70.3381 50.1873 69.8038 50.9493 69.5041C51.7113 69.2044 52.7127 68.8466 52.7127 68.8466L51.5557 66.8486Z" fill="#FFAE8A"/>
<path d="M38.339 66.8486C38.339 66.8486 40.955 66.8091 41.3708 67.1878C41.7867 67.5665 43.0412 69.8827 42.8507 70.1104C42.6602 70.3381 39.7027 69.8061 38.943 69.5041C38.1833 69.202 37.1797 68.8466 37.1797 68.8466L38.339 66.8486Z" fill="#FFAE8A"/>
<path d="M36.2898 26.6471C36.2898 26.6471 40.8085 24.3239 42.0491 19.8772C42.0491 19.8772 45.7477 26.1337 53.4144 26.6471C53.4144 26.6471 54.1509 25.6249 54.9779 25.8247C54.9779 25.8247 55.503 13.8066 44.823 13.8066C34.1431 13.8066 35.0654 25.7318 35.0654 25.7318C35.5471 25.9236 35.9695 26.2394 36.2898 26.6471Z" fill="#814C4A"/>
<g opacity="0.2">
<path d="M43.45 17.942C43.45 17.942 43.5568 18.0768 43.7496 18.3021C43.9425 18.5275 44.2143 18.8434 44.579 19.2059C44.751 19.3917 44.9508 19.5799 45.1552 19.7843C45.3597 19.9888 45.592 20.1863 45.8197 20.4C46.0473 20.6137 46.3006 20.8228 46.5608 21.025L46.9488 21.3363C47.0812 21.4385 47.2206 21.5337 47.3553 21.6313C47.4901 21.7289 47.6225 21.8334 47.7596 21.9264L48.1778 22.1982C48.4496 22.3841 48.7307 22.5444 49.0025 22.7023C49.2743 22.8603 49.5438 22.9997 49.7994 23.1321L50.1734 23.325L50.5335 23.4853C50.7658 23.5829 50.9726 23.6897 51.1654 23.7641L51.6649 23.9546L52.0994 24.1265C52.0994 24.1265 51.9321 24.0986 51.6347 24.0405L51.105 23.929C50.9029 23.8825 50.6799 23.8059 50.4336 23.7292L50.0503 23.6061C49.9202 23.5573 49.7901 23.4992 49.653 23.4411C49.3638 23.3292 49.0815 23.2004 48.8074 23.0555C48.5097 22.9084 48.2197 22.7463 47.9385 22.5699L47.504 22.2958C47.36 22.2028 47.2229 22.0983 47.0835 21.9984C46.9441 21.8985 46.8047 21.7963 46.67 21.6894L46.275 21.3618C46.1437 21.2579 46.0181 21.147 45.8986 21.0296L45.5409 20.6927C45.3085 20.4604 45.0995 20.2281 44.9043 20.0167C44.7091 19.8053 44.5303 19.5822 44.3769 19.3755C44.2236 19.1687 44.0842 18.9805 43.9634 18.8086C43.8426 18.6367 43.7497 18.4833 43.673 18.3556C43.5127 18.0977 43.45 17.942 43.45 17.942Z" fill="#B76A6A"/>
<path d="M44.5396 16.3506C44.5396 16.3506 44.9856 16.7502 45.6663 17.3217L46.2193 17.7864L46.8442 18.2882C47.2856 18.6227 47.7479 18.9851 48.2382 19.3243L48.5983 19.5822L48.9607 19.8145C49.193 19.9772 49.4393 20.1352 49.6739 20.2792C49.9086 20.4232 50.1386 20.5673 50.3546 20.6974C50.5707 20.8275 50.7775 20.9529 50.9749 21.0575L51.5023 21.3549L51.9205 21.5709L52.2829 21.7684L51.8856 21.6546L51.421 21.5152C51.2491 21.4524 51.0562 21.3781 50.8472 21.2828C50.7426 21.241 50.6334 21.1992 50.5219 21.1504L50.1874 21.0157C49.955 20.9041 49.7064 20.7833 49.4625 20.6416C49.2186 20.4999 48.9607 20.3652 48.7144 20.1979L48.3381 19.9656L47.9687 19.7077C47.7224 19.5358 47.4854 19.3476 47.2508 19.1664C47.0161 18.9851 46.8024 18.79 46.584 18.6088C46.1658 18.2301 45.7871 17.8653 45.4851 17.5308C45.1831 17.1962 44.9415 16.9105 44.7881 16.7037C44.6348 16.497 44.5396 16.3506 44.5396 16.3506Z" fill="#B76A6A"/>
<path d="M45.2227 15.1356C45.7161 15.1657 46.2055 15.2435 46.684 15.3679C46.9 15.4236 47.137 15.4771 47.381 15.5607L47.755 15.6815L48.1383 15.8302C48.4009 15.9278 48.6611 16.0625 48.9282 16.181C49.1954 16.2995 49.451 16.4621 49.7088 16.6155L50.0806 16.8687L50.2664 16.9942L50.4407 17.1335C50.6723 17.3074 50.8905 17.4985 51.0935 17.7051C51.1934 17.805 51.2933 17.9002 51.3862 18.0001C51.4772 18.0974 51.5625 18.1998 51.6418 18.3068C51.7988 18.4906 51.9402 18.6872 52.0646 18.8946C52.1831 19.0874 52.283 19.2663 52.3736 19.4219C52.4642 19.5776 52.5037 19.7379 52.5525 19.8587C52.6477 20.091 52.6989 20.2374 52.6989 20.2374C52.6989 20.2374 52.6129 20.1143 52.4665 19.8982L52.2179 19.5125C52.1041 19.3732 51.9856 19.2198 51.8462 19.0479C51.7018 18.8668 51.5466 18.6946 51.3816 18.5321C51.2046 18.3432 51.0161 18.1655 50.817 18.0001C50.6112 17.8167 50.3956 17.6445 50.1712 17.4844L50.0039 17.3543L49.8227 17.2381L49.4626 17.0058C49.2186 16.8524 48.97 16.7107 48.7215 16.5736C48.4729 16.4366 48.2266 16.3042 47.9757 16.1996L47.6133 16.0323L47.2601 15.8813C47.0278 15.7814 46.8094 15.7024 46.6073 15.6188C46.1961 15.4678 45.8499 15.347 45.606 15.268C45.362 15.189 45.2227 15.1356 45.2227 15.1356Z" fill="#B76A6A"/>
<path d="M41.5032 17.942C41.5032 17.942 41.4777 18.0768 41.415 18.3068C41.3241 18.6224 41.2155 18.9326 41.0897 19.2361C40.9162 19.6704 40.7152 20.0933 40.488 20.5022C40.3556 20.7346 40.2371 20.9669 40.0837 21.1829C39.9304 21.399 39.784 21.6476 39.6191 21.859C39.5378 21.9682 39.4565 22.0913 39.3705 22.1866L39.1103 22.5002C38.943 22.714 38.7525 22.8998 38.576 23.0857C38.4051 23.2651 38.2252 23.4357 38.037 23.5968L37.7814 23.8291L37.5258 24.0243C37.3609 24.1474 37.2122 24.2566 37.0728 24.3542L36.7057 24.5865C36.5013 24.7096 36.3828 24.7747 36.3828 24.7747C36.3828 24.7747 36.4781 24.6771 36.6523 24.5145L36.9636 24.2241L37.3516 23.8314L37.5723 23.5991L37.8046 23.3505C37.9603 23.1833 38.1252 23.0067 38.2832 22.8139C38.4412 22.621 38.6131 22.4259 38.7758 22.2191L39.022 21.9101L39.2543 21.5872C39.417 21.3758 39.568 21.1574 39.719 20.939C39.87 20.7206 40.0071 20.5046 40.1465 20.2978C40.2859 20.091 40.4113 19.8796 40.5298 19.6821C40.6483 19.4846 40.7621 19.2965 40.8597 19.1222C41.2593 18.4322 41.5032 17.942 41.5032 17.942Z" fill="#B76A6A"/>
<path d="M42.486 15.5538C42.4546 15.5614 42.4235 15.5707 42.3931 15.5817C42.3304 15.6003 42.2421 15.6374 42.1306 15.6769C42.0191 15.7164 41.8843 15.7745 41.7356 15.8488C41.5869 15.9232 41.422 16.0091 41.2431 16.1044C41.1548 16.1485 41.0689 16.2113 40.9759 16.267C40.883 16.3228 40.7854 16.3809 40.6925 16.4506L40.4044 16.6573L40.1186 16.8897C39.9165 17.0383 39.7446 17.2358 39.5494 17.4101C39.3543 17.5843 39.187 17.7957 39.0151 18.0002C38.8432 18.2046 38.6782 18.4137 38.5342 18.6367C38.3901 18.8598 38.2368 19.0665 38.116 19.2896C37.9952 19.5126 37.8837 19.7217 37.7582 19.9238C37.6328 20.1259 37.5654 20.335 37.4771 20.5186C37.433 20.6115 37.3912 20.6998 37.3493 20.7834C37.3075 20.867 37.282 20.9507 37.2494 21.0157C37.1844 21.1714 37.1286 21.3061 37.0845 21.4177C36.9892 21.6384 36.9312 21.7661 36.9312 21.7661C36.9312 21.7661 36.9521 21.6291 36.9962 21.3921C37.0218 21.2713 37.0496 21.1272 37.0845 20.9623C37.1031 20.8787 37.1193 20.7904 37.1426 20.6974C37.1658 20.6045 37.2006 20.5116 37.2332 20.414C37.2982 20.2142 37.3656 19.9982 37.4492 19.7728C37.5329 19.5474 37.6514 19.3221 37.7652 19.0758C37.8227 18.9553 37.8871 18.8382 37.958 18.725C38.0254 18.6089 38.0974 18.4927 38.1694 18.3719C38.3158 18.1396 38.4993 17.9188 38.6643 17.6912C38.8292 17.4635 39.0453 17.2707 39.2428 17.0755C39.4415 16.889 39.6518 16.7152 39.8724 16.5551C39.9816 16.4808 40.0838 16.3994 40.193 16.3228L40.5159 16.1369C40.7148 16.0265 40.9204 15.9287 41.1316 15.8442C41.309 15.7723 41.4905 15.711 41.6752 15.6607C41.8174 15.6211 41.9617 15.5893 42.1073 15.5654C42.2332 15.5529 42.3597 15.549 42.486 15.5538Z" fill="#B76A6A"/>
</g>
<path d="M35.7604 24.1684H34.3943C34.3943 24.0568 34.5662 12.9424 45.0092 12.9424C55.4522 12.9424 55.5428 24.0592 55.5428 24.1707H54.1767C54.1767 23.7688 54.0513 14.3085 45.0092 14.3085C41.1967 14.3085 38.4878 15.951 36.9545 19.1873C36.237 20.7544 35.8314 22.4463 35.7604 24.1684Z" fill="#5D93F4"/>
<path opacity="0.5" d="M35.7602 24.1683C35.8277 22.4452 36.2302 20.7518 36.9451 19.1826C38.4784 15.944 41.1873 14.3038 44.9998 14.3038C54.0418 14.3038 54.1673 23.7641 54.1673 24.166H54.8852C54.8341 22.7418 54.0558 13.8136 45.0067 13.8136C35.9577 13.8136 35.1144 22.7604 35.0447 24.1706L35.7602 24.1683Z" fill="#1A65D3"/>
<path d="M54.0046 29.5304L50.2619 32.7318C49.9599 32.9897 50.3432 33.4776 50.6475 33.2174L54.3903 30.016C54.6923 29.7558 54.309 29.2702 54.0046 29.5304Z" fill="#5D93F4"/>
<path d="M51.6905 32.0117C51.7971 32.15 51.8455 32.3245 51.8255 32.498C51.8056 32.6715 51.7188 32.8304 51.5836 32.941L50.5405 33.768C50.4026 33.8757 50.2278 33.9249 50.054 33.9049C49.8801 33.8849 49.7211 33.7974 49.6112 33.6612C49.5035 33.5232 49.4543 33.3485 49.4743 33.1746C49.4943 33.0008 49.5819 32.8418 49.7181 32.7319L50.7612 31.9025C50.8994 31.7954 51.074 31.7466 51.2476 31.7665C51.4213 31.7865 51.5803 31.8737 51.6905 32.0093V32.0117Z" fill="#1A65D3"/>
<path opacity="0.5" d="M51.6906 32.0116C51.6155 31.9195 51.5169 31.8493 51.4053 31.8085C51.2937 31.7676 51.1732 31.7575 51.0564 31.7793C51.093 31.809 51.1265 31.8425 51.1563 31.8792C51.2111 31.9479 51.2518 32.0268 51.2761 32.1114C51.3004 32.1959 51.3078 32.2844 51.2979 32.3718C51.288 32.4592 51.2609 32.5437 51.2183 32.6207C51.1756 32.6976 51.1182 32.7653 51.0494 32.8201L50.0062 33.6495C49.9177 33.7187 49.813 33.7643 49.7019 33.7819C49.8206 33.8779 49.9686 33.9303 50.1212 33.9303C50.2739 33.9303 50.4219 33.8779 50.5406 33.7819L51.5837 32.9548C51.7229 32.8439 51.8124 32.6822 51.8324 32.5053C51.8525 32.3285 51.8015 32.1509 51.6906 32.0116Z" fill="#0952AA"/>
<path d="M35.5906 23.4457H35.0865V23.7083C34.5614 24.2635 34.1897 25.6412 34.1897 27.2535C34.1897 28.8659 34.5614 30.2435 35.0865 30.7988V31.0637H35.5999C36.3805 31.0637 37.0124 29.3584 37.0124 27.2535C37.0124 25.1487 36.3712 23.4457 35.5906 23.4457Z" fill="#1A65D3"/>
<path d="M35.0863 23.4457C34.9538 23.4502 34.8261 23.4966 34.7216 23.5782C34.1895 23.8593 33.2649 24.7119 33.2649 27.2535C33.2649 29.5419 34.013 30.4317 34.5496 30.7779C34.6136 30.861 34.6946 30.9295 34.7871 30.9787C34.8797 31.028 34.9817 31.057 35.0863 31.0637C35.8669 31.0637 36.4988 29.3584 36.4988 27.2535C36.4988 25.1487 35.8576 23.4457 35.0863 23.4457Z" fill="#5D93F4"/>
<path opacity="0.2" d="M35.4836 23.6061C35.8414 24.3031 36.0737 25.4252 36.0737 26.703C36.0737 28.8079 35.4418 30.5131 34.6635 30.5131C34.5589 30.5065 34.4569 30.4775 34.3643 30.4282C34.2718 30.379 34.1908 30.3105 34.1269 30.2274C34.0157 30.1552 33.9122 30.0719 33.8179 29.9788C33.9899 30.3002 34.2379 30.5746 34.5404 30.778C34.6044 30.8611 34.6853 30.9296 34.7779 30.9788C34.8704 31.0281 34.9724 31.0571 35.0771 31.0638C35.8577 31.0638 36.4896 29.3585 36.4896 27.2536C36.4803 25.5321 36.0645 24.0778 35.4836 23.6061Z" fill="#814C4A"/>
<path opacity="0.2" d="M34.5846 24.4681L34.5405 24.6586C34.5149 24.7794 34.4801 24.9443 34.4452 25.1395C34.4289 25.2394 34.408 25.3416 34.3918 25.4531C34.3755 25.5647 34.3546 25.6855 34.3383 25.7993C34.3221 25.9131 34.3081 26.0456 34.2872 26.1687L34.2454 26.5497C34.2346 26.6798 34.2229 26.8076 34.2106 26.933C34.2106 27.0608 34.1896 27.1886 34.1827 27.3117C34.1757 27.4349 34.1664 27.5441 34.1571 27.6695C34.1478 27.795 34.1432 27.9018 34.1362 27.9948C34.1153 28.2015 34.1107 28.3735 34.0944 28.4989C34.0781 28.6244 34.0688 28.6987 34.0688 28.6987C34.0688 28.6987 34.0386 28.6383 33.9945 28.5245C33.9309 28.3676 33.8796 28.2061 33.8412 28.0412C33.8179 27.9367 33.79 27.8228 33.7715 27.702C33.7529 27.5812 33.7389 27.4511 33.7273 27.3141C33.7157 27.177 33.7134 27.0376 33.7134 26.8935C33.7134 26.7495 33.7273 26.6055 33.7366 26.4591C33.7459 26.3127 33.7738 26.1687 33.8017 26.0293C33.8281 25.8929 33.8615 25.758 33.9016 25.6251C33.9388 25.5037 33.9823 25.3843 34.0317 25.2673C34.0754 25.165 34.1242 25.0649 34.178 24.9676C34.2561 24.8289 34.3497 24.6996 34.4568 24.5819C34.495 24.5393 34.5379 24.5012 34.5846 24.4681Z" fill="white"/>
<path d="M54.1371 23.4457H54.6506V23.7083C55.1756 24.2635 55.5497 25.6412 55.5497 27.2535C55.5497 28.8659 55.1756 30.2435 54.6506 30.7988V31.0637H54.1371C53.3565 31.0637 52.7246 29.3584 52.7246 27.2535C52.7246 25.1487 53.3612 23.4457 54.1371 23.4457Z" fill="#1A65D3"/>
<path d="M54.6551 23.4457C54.7883 23.4502 54.9168 23.4965 55.0222 23.5782C55.5519 23.8593 56.4765 24.7119 56.4765 27.2535C56.4765 29.5419 55.7284 30.4317 55.1918 30.7779C55.1278 30.861 55.0468 30.9295 54.9543 30.9787C54.8617 31.028 54.7597 31.057 54.6551 31.0637C53.8768 31.0637 53.2449 29.3584 53.2449 27.2535C53.2449 25.1487 53.8768 23.4457 54.6551 23.4457Z" fill="#5D93F4"/>
<path opacity="0.2" d="M54.2508 23.6061C53.8931 24.3031 53.6584 25.4252 53.6584 26.703C53.6584 28.8079 54.2903 30.5131 55.0709 30.5131C55.1752 30.5061 55.2767 30.477 55.3689 30.4278C55.461 30.3785 55.5416 30.3102 55.6053 30.2274C55.7177 30.1559 55.822 30.0726 55.9166 29.9788C55.7432 30.2999 55.4945 30.5742 55.1918 30.778C55.1278 30.8611 55.0468 30.9296 54.9543 30.9788C54.8617 31.0281 54.7597 31.0571 54.6551 31.0638C53.8768 31.0638 53.2449 29.3585 53.2449 27.2536C53.2449 25.5321 53.6723 24.0778 54.2508 23.6061Z" fill="#814C4A"/>
<path opacity="0.2" d="M55.1499 24.4681C55.1499 24.4681 55.1638 24.5378 55.1917 24.6586C55.2196 24.7794 55.2521 24.9443 55.287 25.1395C55.3032 25.2394 55.3265 25.3416 55.3427 25.4531C55.359 25.5647 55.3776 25.6855 55.3962 25.7993C55.4148 25.9131 55.4264 26.0456 55.445 26.1687L55.4868 26.5497L55.5216 26.933C55.5216 27.0608 55.5425 27.1886 55.5518 27.3117C55.5611 27.4349 55.5658 27.5441 55.5751 27.6695C55.5844 27.795 55.589 27.9018 55.596 27.9948C55.6169 28.2015 55.6215 28.3735 55.6378 28.4989C55.654 28.6244 55.6633 28.6987 55.6633 28.6987C55.6633 28.6987 55.6935 28.6383 55.7377 28.5245C55.8022 28.3677 55.8543 28.2062 55.8933 28.0412C55.9166 27.9367 55.9421 27.8228 55.963 27.702C55.9839 27.5812 55.9932 27.4511 56.0072 27.3141C56.0211 27.177 56.0188 27.0376 56.0188 26.8935C56.0188 26.7495 56.0049 26.6055 55.9956 26.4591C55.9863 26.3127 55.9584 26.1687 55.9328 26.0293C55.9073 25.8899 55.8724 25.7528 55.8306 25.6251C55.762 25.396 55.6694 25.1748 55.5542 24.9653C55.4767 24.8268 55.384 24.6974 55.2777 24.5796C55.2387 24.5385 55.1959 24.5012 55.1499 24.4681Z" fill="white"/>
<path d="M85.6264 71.7716H4.36401V75.7606H85.6264V71.7716Z" fill="#5D93F4"/>
<path d="M89.3247 72.8565C89.3168 73.1511 89.1926 73.4305 88.9793 73.6338C88.766 73.8371 88.4809 73.9477 88.1863 73.9415H1.80114C1.65269 73.9512 1.50383 73.9303 1.36376 73.8802C1.22369 73.8301 1.0954 73.7517 0.986819 73.65C0.878242 73.5483 0.791692 73.4254 0.732522 73.289C0.673352 73.1525 0.642822 73.0053 0.642822 72.8565C0.642822 72.7077 0.673352 72.5605 0.732522 72.4241C0.791692 72.2876 0.878242 72.1647 0.986819 72.063C1.0954 71.9613 1.22369 71.8829 1.36376 71.8328C1.50383 71.7827 1.65269 71.7618 1.80114 71.7715H88.1863C88.4809 71.7653 88.766 71.8759 88.9793 72.0792C89.1926 72.2825 89.3168 72.562 89.3247 72.8565Z" fill="#2D80E2"/>
<path d="M65.1027 70.812C65.1021 71.0667 65.0005 71.3108 64.8201 71.4906C64.6398 71.6705 64.3955 71.7715 64.1409 71.7715H25.8468C25.7206 71.7718 25.5956 71.7473 25.4789 71.6992C25.3623 71.6511 25.2562 71.5805 25.1669 71.4913C25.0775 71.4022 25.0066 71.2963 24.9583 71.1798C24.9099 71.0632 24.885 70.9382 24.885 70.812C24.885 70.5569 24.9863 70.3123 25.1667 70.1319C25.3471 69.9515 25.5917 69.8502 25.8468 69.8502H64.1409C64.396 69.8502 64.6406 69.9515 64.821 70.1319C65.0013 70.3123 65.1027 70.5569 65.1027 70.812Z" fill="#184A7C"/>
<path d="M60.2449 49.8123H29.7431C28.7371 49.8123 27.9216 50.6277 27.9216 51.6337V68.3448C27.9216 69.3507 28.7371 70.1662 29.7431 70.1662H60.2449C61.2509 70.1662 62.0663 69.3507 62.0663 68.3448V51.6337C62.0663 50.6277 61.2509 49.8123 60.2449 49.8123Z" fill="#1D5393"/>
<path d="M46.3405 59.8463C46.3409 60.113 46.2622 60.3739 46.1143 60.5958C45.9665 60.8178 45.756 60.9908 45.5097 61.0931C45.2634 61.1954 44.9923 61.2223 44.7307 61.1703C44.4691 61.1184 44.2288 60.99 44.0402 60.8015C43.8516 60.6129 43.7232 60.3726 43.6713 60.1109C43.6194 59.8493 43.6462 59.5782 43.7485 59.3319C43.8508 59.0856 44.0239 58.8752 44.2458 58.7273C44.4678 58.5794 44.7286 58.5007 44.9953 58.5012C45.3521 58.5012 45.6942 58.6429 45.9465 58.8951C46.1987 59.1474 46.3405 59.4896 46.3405 59.8463Z" fill="#5D93F4"/>
<path opacity="0.6" d="M60.245 49.8239H53.6725C53.2892 62.1882 36.4596 68.0125 28.9602 69.9966C29.2034 70.1151 29.4703 70.177 29.7408 70.1778H60.245C60.7275 70.176 61.1897 69.9835 61.5309 69.6423C61.8721 69.3011 62.0646 68.8389 62.0664 68.3564V51.6337C62.0615 51.1532 61.8677 50.6939 61.5269 50.3552C61.186 50.0165 60.7255 49.8257 60.245 49.8239Z" fill="#114068"/>
<path d="M19.8297 11.8226H9.63535C9.04239 11.8232 8.47392 12.0592 8.05485 12.4787C7.63578 12.8982 7.40039 13.4669 7.40039 14.0599V21.2782C7.40039 21.8711 7.63578 22.4398 8.05485 22.8594C8.47392 23.2789 9.04239 23.5148 9.63535 23.5155H14.6117L17.4624 25.6064V23.5155H19.8297C20.4231 23.5155 20.9922 23.2797 21.4117 22.8602C21.8313 22.4406 22.067 21.8715 22.067 21.2782V14.0599C22.067 13.4665 21.8313 12.8974 21.4117 12.4779C20.9922 12.0583 20.4231 11.8226 19.8297 11.8226Z" fill="#5D93F4"/>
<path d="M15.1065 14.6732C15.1065 14.7638 15.0705 14.8507 15.0065 14.9147C14.9424 14.9788 14.8556 15.0147 14.765 15.0147H9.53073C9.44015 15.0147 9.35328 14.9788 9.28924 14.9147C9.22519 14.8507 9.18921 14.7638 9.18921 14.6732C9.18921 14.5826 9.22519 14.4958 9.28924 14.4317C9.35328 14.3677 9.44015 14.3317 9.53073 14.3317H14.7511C14.7971 14.3298 14.843 14.3373 14.886 14.3536C14.9291 14.3699 14.9684 14.3948 15.0016 14.4267C15.0348 14.4586 15.0612 14.4969 15.0792 14.5392C15.0973 14.5816 15.1065 14.6272 15.1065 14.6732Z" fill="#A9D0FF"/>
<path d="M20.6939 16.5365C20.6939 16.627 20.6579 16.7139 20.5939 16.778C20.5298 16.842 20.443 16.878 20.3524 16.878H9.53073C9.44015 16.878 9.35328 16.842 9.28924 16.778C9.22519 16.7139 9.18921 16.627 9.18921 16.5365C9.18921 16.4459 9.22519 16.359 9.28924 16.295C9.35328 16.2309 9.44015 16.1949 9.53073 16.1949H20.3431C20.4337 16.1949 20.5205 16.2309 20.5846 16.295C20.6486 16.359 20.6846 16.4459 20.6846 16.5365H20.6939Z" fill="#A9D0FF"/>
<path d="M20.6939 18.402C20.6939 18.4926 20.6579 18.5794 20.5939 18.6435C20.5298 18.7075 20.443 18.7435 20.3524 18.7435H9.53073C9.44015 18.7435 9.35328 18.7075 9.28924 18.6435C9.22519 18.5794 9.18921 18.4926 9.18921 18.402C9.18921 18.3114 9.22519 18.2246 9.28924 18.1605C9.35328 18.0965 9.44015 18.0605 9.53073 18.0605H20.3431C20.4337 18.0605 20.5205 18.0965 20.5846 18.1605C20.6486 18.2246 20.6846 18.3114 20.6846 18.402H20.6939Z" fill="#A9D0FF"/>
<path d="M18.8237 20.2652C18.8237 20.3558 18.7877 20.4427 18.7237 20.5067C18.6596 20.5708 18.5728 20.6067 18.4822 20.6067H9.53073C9.44015 20.6067 9.35328 20.5708 9.28924 20.5067C9.22519 20.4427 9.18921 20.3558 9.18921 20.2652C9.18921 20.1746 9.22519 20.0878 9.28924 20.0237C9.35328 19.9597 9.44015 19.9237 9.53073 19.9237H18.4775C18.5681 19.9237 18.655 19.9597 18.719 20.0237C18.7831 20.0878 18.8191 20.1746 18.8191 20.2652H18.8237Z" fill="#A9D0FF"/>
<path opacity="0.1" d="M19.8297 11.8226H19.6485C19.7414 17.863 15.0252 21.5663 11.4172 23.5155H14.6117L17.4623 25.3741V23.5155H19.8297C20.4231 23.5155 20.9921 23.2797 21.4117 22.8602C21.8313 22.4406 22.067 21.8715 22.067 21.2782V14.0599C22.067 13.4665 21.8313 12.8974 21.4117 12.4779C20.9921 12.0583 20.4231 11.8226 19.8297 11.8226Z" fill="#114068"/>
<path d="M17.676 40.5379H7.65356V46.7781H17.676V40.5379Z" fill="#FAC849"/>
<path d="M7.65576 40.5379H17.6759L12.6647 44.901L7.65576 40.5379Z" fill="#F4B425"/>
<mask id="mask0_53_2615" style="mask-type:luminance" maskUnits="userSpaceOnUse" x="7" y="40" width="11" height="7">
<path d="M17.676 40.5403H7.65356V46.7805H17.676V40.5403Z" fill="white"/>
</mask>
<g mask="url(#mask0_53_2615)">
<path d="M7.82063 46.9804L11.2149 42.4663C11.417 42.1945 11.0871 41.7903 10.8827 42.0621L7.4884 46.5715C7.28396 46.841 7.61618 47.2476 7.82063 46.9734V46.9804Z" fill="#F4B425"/>
<path d="M17.7666 46.5714L14.3724 42.055C14.1679 41.7831 13.8357 42.1874 14.0402 42.4592L17.4298 46.9802C17.6342 47.2544 17.9641 46.8478 17.762 46.5783L17.7666 46.5714Z" fill="#F4B425"/>
</g>
<path opacity="0.1" d="M11.157 46.7781H17.6853V40.5309H14.7162C15.2924 43.644 13.2665 45.6049 11.157 46.7781Z" fill="#114068"/>
<path d="M72.0399 30.2088H63.042C62.7555 30.2088 62.4807 30.3226 62.2781 30.5252C62.0755 30.7278 61.9617 31.0026 61.9617 31.2891V34.774C61.9617 35.0605 62.0755 35.3353 62.2781 35.5379C62.4807 35.7405 62.7555 35.8543 63.042 35.8543H67.4817L68.8594 37.5224V35.8543H72.0399C72.3264 35.8543 72.6012 35.7405 72.8038 35.5379C73.0064 35.3353 73.1202 35.0605 73.1202 34.774V31.2891C73.1202 31.0026 73.0064 30.7278 72.8038 30.5252C72.6012 30.3226 72.3264 30.2088 72.0399 30.2088Z" fill="#FAC849"/>
<path d="M65.3073 32.9316C65.3073 33.0538 65.271 33.1733 65.2031 33.2749C65.1352 33.3765 65.0387 33.4557 64.9258 33.5025C64.8128 33.5493 64.6886 33.5615 64.5687 33.5377C64.4488 33.5138 64.3387 33.455 64.2523 33.3686C64.1659 33.2821 64.107 33.172 64.0832 33.0521C64.0593 32.9323 64.0716 32.808 64.1183 32.6951C64.1651 32.5822 64.2443 32.4857 64.3459 32.4177C64.4476 32.3498 64.5671 32.3136 64.6893 32.3136C64.7704 32.3136 64.8508 32.3296 64.9258 32.3606C65.0007 32.3917 65.0689 32.4372 65.1263 32.4946C65.1836 32.552 65.2292 32.6201 65.2602 32.6951C65.2913 32.7701 65.3073 32.8504 65.3073 32.9316Z" fill="white"/>
<path d="M68.1576 32.9316C68.1576 33.0538 68.1214 33.1733 68.0534 33.2749C67.9855 33.3765 67.889 33.4557 67.7761 33.5025C67.6632 33.5493 67.5389 33.5615 67.419 33.5377C67.2992 33.5138 67.1891 33.455 67.1026 33.3686C67.0162 33.2821 66.9574 33.172 66.9335 33.0521C66.9097 32.9323 66.9219 32.808 66.9687 32.6951C67.0154 32.5822 67.0947 32.4857 67.1963 32.4177C67.2979 32.3498 67.4174 32.3136 67.5396 32.3136C67.7035 32.3136 67.8607 32.3787 67.9766 32.4946C68.0925 32.6105 68.1576 32.7677 68.1576 32.9316Z" fill="white"/>
<path d="M71.0084 32.9316C71.0084 33.0539 70.9721 33.1735 70.9041 33.2752C70.8361 33.3768 70.7395 33.456 70.6264 33.5027C70.5133 33.5494 70.389 33.5616 70.269 33.5375C70.1491 33.5135 70.039 33.4544 69.9526 33.3677C69.8663 33.2811 69.8076 33.1707 69.7841 33.0507C69.7605 32.9307 69.773 32.8064 69.8202 32.6935C69.8673 32.5806 69.9469 32.4842 70.0488 32.4166C70.1507 32.349 70.2704 32.3131 70.3928 32.3136C70.5563 32.3142 70.7129 32.3796 70.8282 32.4954C70.9436 32.6113 71.0084 32.7681 71.0084 32.9316Z" fill="white"/>
<path opacity="0.1" d="M72.0398 30.2088H70.7179C70.913 33.387 67.7929 35.0342 65.1421 35.8566H67.4816L68.8593 37.5247V35.8566H72.0398C72.3263 35.8566 72.6011 35.7428 72.8037 35.5402C73.0063 35.3376 73.1201 35.0628 73.1201 34.7763V31.2914C73.1204 31.1494 73.0927 31.0086 73.0385 30.8773C72.9844 30.746 72.9049 30.6266 72.8045 30.526C72.7042 30.4255 72.585 30.3457 72.4538 30.2913C72.3225 30.2368 72.1819 30.2088 72.0398 30.2088Z" fill="#114068"/>
<path d="M71.171 11.6995C70.9527 11.5903 70.5229 11.6855 70.1256 11.8179C70.0073 11.4143 69.8453 11.0248 69.6423 10.6563C70.0164 10.4681 70.3858 10.2335 70.4694 10.0035C70.6646 9.45288 69.6238 8.40974 69.6238 8.40974C69.6238 8.40974 68.5876 7.3759 68.0277 7.56408C67.7954 7.64307 67.563 8.01247 67.3749 8.38883C67.0069 8.18492 66.6173 8.02284 66.2132 7.9056C66.3433 7.51065 66.4456 7.08085 66.3364 6.86014C66.0855 6.33276 64.6102 6.33276 64.6102 6.33276C64.6102 6.33276 63.1466 6.33276 62.884 6.86014C62.7772 7.07853 62.8724 7.50833 63.0048 7.9056C62.6008 8.02284 62.2112 8.18492 61.8432 8.38883C61.655 8.01479 61.4204 7.64539 61.1904 7.56176C60.6398 7.36661 59.5966 8.40742 59.5966 8.40742C59.5966 8.40742 58.5628 9.44359 58.751 10.0035C58.8276 10.2358 59.1994 10.4681 59.5734 10.6563C59.3715 11.025 59.2103 11.4145 59.0925 11.8179C58.6975 11.6878 58.2677 11.5856 58.047 11.6948C57.5173 11.9457 57.5173 13.421 57.5173 13.421C57.5173 13.421 57.5173 14.8846 58.047 15.1472C58.2654 15.254 58.6952 15.1472 59.0925 15.0263C59.21 15.4299 59.3712 15.8195 59.5734 16.188C59.2017 16.3761 58.83 16.6108 58.7487 16.8408C58.5535 17.3914 59.5943 18.4345 59.5943 18.4345C59.5943 18.4345 60.6282 19.4684 61.1904 19.2802C61.4227 19.2035 61.655 18.8318 61.8432 18.4554C62.2112 18.6594 62.6008 18.8214 63.0048 18.9387C62.8747 19.3336 62.7725 19.7634 62.8817 19.9841C63.1326 20.5138 64.6079 20.5138 64.6079 20.5138C64.6079 20.5138 66.0692 20.5138 66.334 19.9841C66.4409 19.7658 66.3457 19.336 66.2132 18.9387C66.6173 18.8214 67.0069 18.6594 67.3749 18.4554C67.563 18.8295 67.7977 19.1989 68.0277 19.2825C68.5783 19.48 69.6214 18.4369 69.6214 18.4369C69.6214 18.4369 70.6553 17.403 70.4671 16.8408C70.3881 16.6085 70.0164 16.3761 69.6423 16.188C69.8453 15.8195 70.0073 15.43 70.1256 15.0263C70.5205 15.1564 70.9503 15.2587 71.171 15.1495C71.6984 14.8986 71.6984 13.4233 71.6984 13.4233C71.6984 13.4233 71.6984 11.955 71.171 11.6995ZM64.6056 16.0834C64.0789 16.0834 63.564 15.9272 63.1261 15.6346C62.6883 15.3419 62.347 14.9259 62.1456 14.4393C61.9441 13.9527 61.8915 13.4172 61.9944 12.9007C62.0974 12.3842 62.3512 11.9098 62.7238 11.5375C63.0963 11.1653 63.571 10.9119 64.0876 10.8094C64.6042 10.707 65.1396 10.76 65.626 10.9619C66.1125 11.1637 66.5281 11.5054 66.8204 11.9435C67.1127 12.3816 67.2684 12.8966 67.268 13.4233C67.268 13.7728 67.1991 14.1189 67.0653 14.4418C66.9315 14.7647 66.7353 15.0581 66.488 15.3051C66.2408 15.5522 65.9473 15.748 65.6242 15.8816C65.3012 16.0151 64.9551 16.0837 64.6056 16.0834Z" fill="#5D93F4"/>
<g opacity="0.5">
<path d="M64.6055 17.5006C63.7985 17.5006 63.0097 17.2613 62.3387 16.8129C61.6678 16.3645 61.1449 15.7272 60.8362 14.9816C60.5275 14.2361 60.4468 13.4157 60.6044 12.6242C60.762 11.8328 61.1508 11.1059 61.7216 10.5354C62.2924 9.96499 63.0195 9.57663 63.811 9.41948C64.6026 9.26233 65.4229 9.34345 66.1683 9.65258C66.9137 9.96171 67.5507 10.485 67.9987 11.1562C68.4467 11.8274 68.6856 12.6163 68.6851 13.4233C68.6839 14.5047 68.2536 15.5414 67.4887 16.3059C66.7238 17.0703 65.6869 17.5 64.6055 17.5006ZM64.6055 10.1545C63.959 10.1545 63.327 10.3462 62.7894 10.7054C62.2519 11.0646 61.8329 11.5751 61.5855 12.1724C61.3381 12.7697 61.2734 13.4269 61.3995 14.061C61.5256 14.6951 61.837 15.2776 62.2941 15.7347C62.7513 16.1919 63.3337 16.5032 63.9678 16.6293C64.6019 16.7554 65.2591 16.6907 65.8564 16.4433C66.4537 16.1959 66.9642 15.7769 67.3234 15.2394C67.6826 14.7018 67.8743 14.0698 67.8743 13.4233C67.8737 12.5566 67.5291 11.7255 66.9162 11.1126C66.3033 10.4997 65.4722 10.1551 64.6055 10.1545Z" fill="#1A65D3"/>
</g>
<path opacity="0.1" d="M61.1854 19.2826C61.4178 19.2059 61.6501 18.8342 61.8383 18.4578C62.2062 18.6617 62.5959 18.8238 62.9999 18.941C62.8698 19.336 62.7676 19.7658 62.8768 19.9865C63.1277 20.5162 64.6029 20.5162 64.6029 20.5162C64.6029 20.5162 66.0642 20.5162 66.3291 19.9865C66.436 19.7681 66.3407 19.3383 66.2083 18.941C66.6123 18.8238 67.0019 18.6617 67.3699 18.4578C67.5581 18.8319 67.7927 19.2012 68.0227 19.2849C68.5733 19.4824 69.6165 18.4392 69.6165 18.4392C69.6165 18.4392 70.6503 17.4054 70.4621 16.8432C70.3831 16.6108 70.0114 16.3785 69.6374 16.1903C69.8403 15.8219 70.0024 15.4324 70.1206 15.0287C70.5156 15.1588 70.9454 15.261 71.1661 15.1518C71.6935 14.9009 71.6935 13.4257 71.6935 13.4257C71.6935 13.4257 71.6935 11.962 71.1661 11.7018C70.9477 11.5926 70.5179 11.6879 70.1206 11.8203C70.0024 11.4166 69.8403 11.0271 69.6374 10.6587C70.0114 10.4705 70.3808 10.2358 70.4645 10.0058C70.6596 9.45524 69.6188 8.4121 69.6188 8.4121C69.6188 8.4121 69.5073 8.30291 69.3423 8.16351C68.8988 9.75257 68.1351 11.2342 67.0981 12.5173C67.2065 12.8087 67.2624 13.117 67.263 13.428C67.2634 13.8754 67.1508 14.3156 66.9357 14.7079C66.7206 15.1002 66.4099 15.4319 66.0325 15.6721C65.6551 15.9124 65.2231 16.0535 64.7767 16.0823C64.3302 16.1112 63.8837 16.0269 63.4785 15.8372C62.1618 16.7346 60.7613 17.5026 59.2966 18.1302C59.4523 18.3138 59.5777 18.4415 59.5777 18.4415C59.5777 18.4415 60.6232 19.4707 61.1854 19.2826Z" fill="#114068"/>
<path d="M24.6064 3.37528C24.4278 3.33909 24.2424 3.36023 24.0767 3.43569C24.0176 3.23126 23.9357 3.0341 23.8327 2.8479C24.0209 2.75265 24.2091 2.63417 24.2509 2.518C24.3508 2.23689 23.8211 1.70952 23.8211 1.70952C23.8211 1.70952 23.2984 1.18678 23.0149 1.28204C22.8988 1.32153 22.7826 1.51436 22.6827 1.6979C22.4956 1.59986 22.2985 1.52198 22.0949 1.46557C22.1691 1.30026 22.1902 1.11601 22.1553 0.938198C22.0299 0.668702 21.2841 0.668701 21.2841 0.668701C21.2841 0.668701 20.543 0.668702 20.4083 0.938198C20.3733 1.11622 20.3952 1.30072 20.471 1.46557C20.2668 1.5224 20.069 1.60026 19.8809 1.6979C19.7856 1.50972 19.6671 1.32153 19.551 1.27972C19.2722 1.18214 18.7425 1.70952 18.7425 1.70952C18.7425 1.70952 18.2198 2.23225 18.315 2.51568C18.3545 2.63417 18.5473 2.74801 18.7332 2.8479C18.6302 3.0341 18.5484 3.23126 18.4893 3.43569C18.3231 3.36159 18.1381 3.3405 17.9596 3.37528C17.6924 3.50074 17.6924 4.24882 17.6924 4.24882C17.6924 4.24882 17.6924 4.98761 17.9596 5.12236C18.1381 5.15714 18.3231 5.13605 18.4893 5.06196C18.5484 5.26638 18.6302 5.46354 18.7332 5.64974C18.5427 5.74499 18.3568 5.86347 18.315 5.97964C18.2151 6.26075 18.7425 6.78812 18.7425 6.78812C18.7425 6.78812 19.2652 7.31086 19.5487 7.2156C19.6671 7.17611 19.781 6.98328 19.8809 6.79974C20.0685 6.89841 20.2664 6.97631 20.471 7.03207C20.3952 7.19773 20.3733 7.38298 20.4083 7.56177C20.536 7.83126 21.2818 7.83126 21.2818 7.83126C21.2818 7.83126 22.0229 7.83126 22.1553 7.56177C22.1925 7.38329 22.1713 7.19759 22.0949 7.03207C22.2989 6.97672 22.496 6.8988 22.6827 6.79974C22.778 6.98792 22.8988 7.17611 23.0149 7.2156C23.2937 7.3155 23.8211 6.78812 23.8211 6.78812C23.8211 6.78812 24.3438 6.2654 24.2486 5.98196C24.2091 5.86347 24.0163 5.74964 23.8327 5.64974C23.9353 5.46334 24.0171 5.26623 24.0767 5.06196C24.2428 5.1362 24.4278 5.15729 24.6064 5.12236C24.8735 4.9969 24.8735 4.24882 24.8735 4.24882C24.8735 4.24882 24.8642 3.51003 24.6064 3.37528ZM21.2818 5.5963C21.0153 5.5963 20.7548 5.51727 20.5332 5.36921C20.3116 5.22115 20.1389 5.0107 20.0369 4.76448C19.9349 4.51826 19.9082 4.24733 19.9602 3.98594C20.0122 3.72455 20.1405 3.48446 20.329 3.29601C20.5174 3.10756 20.7575 2.97922 21.0189 2.92723C21.2803 2.87524 21.5512 2.90192 21.7975 3.00391C22.0437 3.1059 22.2541 3.27861 22.4022 3.5002C22.5502 3.72179 22.6293 3.98231 22.6293 4.24882C22.6293 4.60619 22.4873 4.94893 22.2346 5.20163C21.9819 5.45434 21.6392 5.5963 21.2818 5.5963Z" fill="#FAC849"/>
<g opacity="0.5">
<path d="M21.2819 6.3142C20.8734 6.3142 20.4741 6.19307 20.1345 5.96612C19.7948 5.73918 19.5301 5.41661 19.3738 5.03922C19.2174 4.66182 19.1765 4.24655 19.2562 3.8459C19.3359 3.44526 19.5326 3.07725 19.8215 2.7884C20.1103 2.49956 20.4783 2.30285 20.879 2.22316C21.2796 2.14347 21.6949 2.18437 22.0723 2.34069C22.4497 2.49701 22.7723 2.76174 22.9992 3.10138C23.2261 3.44103 23.3473 3.84035 23.3473 4.24884C23.3467 4.79642 23.1289 5.32139 22.7417 5.70859C22.3545 6.09579 21.8295 6.31359 21.2819 6.3142ZM21.2819 2.59701C20.9549 2.59747 20.6353 2.69487 20.3636 2.87691C20.0918 3.05895 19.8802 3.31746 19.7553 3.61975C19.6305 3.92205 19.5981 4.25457 19.6622 4.57529C19.7262 4.89601 19.884 5.19053 20.1154 5.42164C20.3468 5.65274 20.6416 5.81006 20.9624 5.87369C21.2832 5.93733 21.6157 5.90444 21.9178 5.77917C22.2199 5.6539 22.4781 5.44189 22.6598 5.16991C22.8414 4.89794 22.9384 4.57822 22.9384 4.25116C22.9387 4.03354 22.8961 3.818 22.8129 3.61689C22.7298 3.41578 22.6078 3.23305 22.4539 3.07917C22.3 2.9253 22.1173 2.80329 21.9162 2.72016C21.7151 2.63702 21.4995 2.59438 21.2819 2.59469V2.59701Z" fill="#F4B425"/>
</g>
<path opacity="0.1" d="M19.5487 7.2156C19.6672 7.1761 19.7811 6.98327 19.881 6.79974C20.0686 6.8984 20.2665 6.9763 20.4711 7.03206C20.3953 7.19773 20.3733 7.38298 20.4083 7.56176C20.5361 7.83126 21.2819 7.83126 21.2819 7.83126C21.2819 7.83126 22.023 7.83126 22.1554 7.56176C22.1926 7.38328 22.1714 7.19759 22.095 7.03206C22.299 6.97672 22.4961 6.8988 22.6828 6.79974C22.778 6.98792 22.8988 7.1761 23.015 7.2156C23.2938 7.3155 23.8212 6.78812 23.8212 6.78812C23.8212 6.78812 24.3439 6.26539 24.2487 5.98195C24.2092 5.86347 24.0163 5.74963 23.8328 5.64973C23.9354 5.46333 24.0172 5.26622 24.0767 5.06195C24.2429 5.13619 24.4279 5.15729 24.6064 5.12235C24.8736 4.9969 24.8736 4.24881 24.8736 4.24881C24.8736 4.24881 24.8736 3.51002 24.6064 3.37527C24.4279 3.33909 24.2425 3.36023 24.0767 3.43568C24.0176 3.23126 23.9358 3.0341 23.8328 2.8479C24.021 2.75265 24.2092 2.63416 24.251 2.518C24.3509 2.23688 23.8212 1.70951 23.8212 1.70951L23.7584 1.65143C23.429 2.37193 23.0005 3.04286 22.4853 3.64477C22.617 3.90615 22.6599 4.20335 22.6075 4.49131C22.555 4.77926 22.41 5.04224 22.1946 5.24035C21.9791 5.43847 21.7049 5.5609 21.4136 5.58908C21.1223 5.61726 20.8297 5.54964 20.5802 5.3965C19.9501 5.85276 19.2851 6.25902 18.5916 6.61155C18.6752 6.71378 18.7449 6.78347 18.7449 6.78347C18.7449 6.78347 19.2653 7.30853 19.5487 7.2156Z" fill="#114068"/>
<path d="M19.3997 28.8288H27.3568C27.61 28.8288 27.8529 28.9294 28.032 29.1085C28.211 29.2875 28.3116 29.5304 28.3116 29.7836V32.8643C28.3116 32.9897 28.2869 33.1138 28.239 33.2297C28.191 33.3455 28.1206 33.4508 28.032 33.5395C27.9433 33.6281 27.838 33.6985 27.7222 33.7464C27.6063 33.7944 27.4822 33.8191 27.3568 33.8191H23.4305L22.2131 35.2944V33.8191H19.3997C19.2743 33.8191 19.1501 33.7944 19.0343 33.7464C18.9184 33.6985 18.8132 33.6281 18.7245 33.5395C18.6358 33.4508 18.5655 33.3455 18.5175 33.2297C18.4695 33.1138 18.4448 32.9897 18.4448 32.8643V29.7836C18.4448 29.5304 18.5454 29.2875 18.7245 29.1085C18.9036 28.9294 19.1464 28.8288 19.3997 28.8288Z" fill="#FC8B3F"/>
<path d="M23.2377 30.3087C22.945 30.1391 22.5152 30.3087 22.1667 30.706C21.8182 30.3157 21.3884 30.1391 21.0957 30.3087C20.7263 30.5224 20.7216 31.2031 21.0957 31.8281C21.3861 32.3299 21.8252 32.6366 22.1783 32.6296C22.5315 32.6226 22.9705 32.3299 23.261 31.8281C23.6071 31.2031 23.6025 30.5224 23.2377 30.3087Z" fill="white"/>
<path opacity="0.1" d="M28.3116 29.7836C28.3116 29.5304 28.211 29.2875 28.0319 29.1085C27.8528 28.9294 27.61 28.8288 27.3567 28.8288H25.7304C25.8536 31.6167 23.2469 33.0827 20.9539 33.8214H22.2224V35.2967L23.4397 33.8214H27.366C27.4914 33.8214 27.6156 33.7967 27.7314 33.7488C27.8473 33.7008 27.9525 33.6304 28.0412 33.5418C28.1299 33.4531 28.2002 33.3478 28.2482 33.232C28.2962 33.1162 28.3209 32.992 28.3209 32.8666L28.3116 29.7836Z" fill="#114068"/>
<path d="M27.989 5.59161H35.9438C36.1973 5.59223 36.4401 5.69335 36.6191 5.87278C36.7981 6.05222 36.8987 6.29533 36.8987 6.54879V9.63173C36.8987 9.88498 36.7981 10.1278 36.619 10.3069C36.4399 10.486 36.1971 10.5866 35.9438 10.5866H32.0175L30.8002 12.0618V10.5866H27.989C27.7358 10.5866 27.4929 10.486 27.3139 10.3069C27.1348 10.1278 27.0342 9.88498 27.0342 9.63173V6.54879C27.0342 6.29533 27.1347 6.05222 27.3137 5.87278C27.4927 5.69335 27.7356 5.59223 27.989 5.59161Z" fill="#FC8B3F"/>
<path d="M31.6153 7.27137H29.989C29.9422 7.27106 29.8959 7.28004 29.8526 7.2978C29.8094 7.31555 29.77 7.34173 29.737 7.3748C29.7039 7.40786 29.6777 7.44717 29.66 7.49044C29.6422 7.5337 29.6332 7.58006 29.6336 7.62683V8.77451C29.6336 8.86878 29.671 8.95919 29.7377 9.02586C29.8043 9.09252 29.8947 9.12996 29.989 9.12996H30.7789L31.2319 9.67825V9.12996H31.6083C31.7028 9.12997 31.7934 9.09259 31.8605 9.026C31.9275 8.9594 31.9655 8.86899 31.9661 8.77451V7.62683C31.9661 7.53335 31.9293 7.44364 31.8636 7.37711C31.798 7.31058 31.7087 7.27259 31.6153 7.27137Z" fill="white"/>
<path d="M86.6981 22.3278C86.7788 19.0941 84.2229 16.4072 80.9892 16.3265C77.7555 16.2458 75.0687 18.8018 74.988 22.0354C74.9072 25.2691 77.4632 27.9559 80.6969 28.0367C83.9305 28.1174 86.6174 25.5614 86.6981 22.3278Z" fill="#FC8B3F"/>
<path d="M83.763 19.6798L80.4942 22.628L78.4033 21.5848C77.9805 21.3734 77.6064 22.0077 78.0316 22.2214L80.3548 23.383C80.4261 23.4221 80.5079 23.4376 80.5885 23.4271C80.6691 23.4167 80.7443 23.3809 80.8032 23.325L84.2718 20.1955C84.6389 19.8819 84.1069 19.3638 83.763 19.6798Z" fill="white"/>
<path d="M80.8476 17.6144C81.0156 17.6144 81.1519 17.4782 81.1519 17.3101C81.1519 17.142 81.0156 17.0057 80.8476 17.0057C80.6795 17.0057 80.5432 17.142 80.5432 17.3101C80.5432 17.4782 80.6795 17.6144 80.8476 17.6144Z" fill="#F46C0F"/>
<path d="M81.1519 27.1235C81.1528 27.1842 81.1355 27.2437 81.1023 27.2945C81.0691 27.3453 81.0215 27.3851 80.9656 27.4086C80.9097 27.4321 80.848 27.4384 80.7884 27.4266C80.7289 27.4148 80.6743 27.3855 80.6315 27.3424C80.5888 27.2994 80.5599 27.2445 80.5486 27.1849C80.5372 27.1253 80.544 27.0636 80.568 27.0079C80.5919 26.9521 80.632 26.9048 80.6831 26.872C80.7341 26.8392 80.7938 26.8224 80.8545 26.8238C80.9334 26.825 81.0087 26.8571 81.0642 26.9131C81.1198 26.9691 81.1513 27.0446 81.1519 27.1235Z" fill="#F46C0F"/>
<path d="M85.754 22.5211C85.6939 22.5211 85.635 22.5033 85.585 22.4698C85.5349 22.4364 85.4959 22.3888 85.4729 22.3332C85.4498 22.2776 85.4438 22.2164 85.4556 22.1574C85.4673 22.0983 85.4963 22.0441 85.5388 22.0016C85.5814 21.959 85.6356 21.93 85.6947 21.9183C85.7537 21.9065 85.8149 21.9125 85.8705 21.9356C85.9261 21.9586 85.9737 21.9976 86.0071 22.0477C86.0405 22.0977 86.0584 22.1566 86.0584 22.2168C86.0584 22.2975 86.0263 22.3749 85.9693 22.432C85.9122 22.489 85.8348 22.5211 85.754 22.5211Z" fill="#F46C0F"/>
<path d="M75.943 22.5211C75.8828 22.5211 75.824 22.5033 75.7739 22.4698C75.7239 22.4364 75.6849 22.3888 75.6618 22.3332C75.6388 22.2776 75.6328 22.2164 75.6445 22.1574C75.6563 22.0983 75.6852 22.0441 75.7278 22.0016C75.7704 21.959 75.8246 21.93 75.8836 21.9183C75.9427 21.9065 76.0039 21.9125 76.0595 21.9356C76.1151 21.9586 76.1626 21.9976 76.1961 22.0477C76.2295 22.0977 76.2474 22.1566 76.2474 22.2168C76.2474 22.2975 76.2153 22.3749 76.1582 22.432C76.1011 22.489 76.0237 22.5211 75.943 22.5211Z" fill="#F46C0F"/>
<path d="M83.5867 18.1371C83.5457 18.2068 83.4787 18.2573 83.4005 18.2775C83.3223 18.2978 83.2393 18.2862 83.1696 18.2452C83.1 18.2042 83.0495 18.1372 83.0293 18.059C83.009 17.9808 83.0206 17.8978 83.0616 17.8282C83.1026 17.7585 83.1696 17.708 83.2478 17.6878C83.326 17.6675 83.409 17.6792 83.4786 17.7201C83.5483 17.7611 83.5988 17.8281 83.619 17.9063C83.6393 17.9845 83.6276 18.0675 83.5867 18.1371Z" fill="#F46C0F"/>
<path d="M78.6332 26.6055C78.6029 26.6575 78.5578 26.6994 78.5037 26.7258C78.4496 26.7522 78.3888 26.7619 78.3292 26.7538C78.2695 26.7457 78.2136 26.72 78.1685 26.6801C78.1234 26.6402 78.0912 26.5878 78.0759 26.5295C78.0606 26.4713 78.0629 26.4098 78.0826 26.3529C78.1022 26.296 78.1384 26.2462 78.1863 26.2098C78.2343 26.1734 78.292 26.152 78.3521 26.1484C78.4122 26.1448 78.4721 26.1592 78.524 26.1896C78.5587 26.2095 78.5891 26.2362 78.6134 26.2679C78.6377 26.2997 78.6554 26.336 78.6656 26.3747C78.6757 26.4134 78.6781 26.4537 78.6725 26.4933C78.667 26.5329 78.6536 26.571 78.6332 26.6055Z" fill="#F46C0F"/>
<path d="M84.9295 24.9652C84.8948 24.9452 84.8645 24.9186 84.8402 24.8868C84.8159 24.855 84.7981 24.8188 84.788 24.7801C84.7778 24.7414 84.7754 24.7011 84.781 24.6614C84.7866 24.6218 84.7999 24.5837 84.8203 24.5493C84.8629 24.4836 84.9291 24.4368 85.0053 24.4186C85.0815 24.4005 85.1617 24.4124 85.2293 24.4519C85.2969 24.4914 85.3467 24.5554 85.3683 24.6307C85.3899 24.7059 85.3817 24.7866 85.3454 24.856C85.3254 24.8907 85.2988 24.921 85.267 24.9453C85.2352 24.9696 85.199 24.9874 85.1603 24.9975C85.1216 25.0077 85.0813 25.01 85.0416 25.0045C85.002 24.9989 84.9639 24.9856 84.9295 24.9652Z" fill="#F46C0F"/>
<path d="M76.461 20.0027C76.4263 19.9828 76.396 19.9561 76.3717 19.9244C76.3474 19.8926 76.3296 19.8563 76.3195 19.8176C76.3093 19.7789 76.3069 19.7386 76.3125 19.699C76.318 19.6594 76.3314 19.6213 76.3518 19.5869C76.3821 19.5348 76.4272 19.493 76.4813 19.4665C76.5355 19.4401 76.5962 19.4304 76.6559 19.4385C76.7155 19.4466 76.7714 19.4723 76.8165 19.5122C76.8616 19.5521 76.8939 19.6045 76.9091 19.6628C76.9244 19.721 76.9221 19.7825 76.9025 19.8394C76.8828 19.8963 76.8467 19.9462 76.7987 19.9826C76.7507 20.0189 76.693 20.0403 76.6329 20.0439C76.5728 20.0475 76.513 20.0331 76.461 20.0027Z" fill="#F46C0F"/>
<path d="M78.1083 18.1372C78.1389 18.1889 78.1841 18.2304 78.2383 18.2564C78.2924 18.2825 78.3531 18.2919 78.4126 18.2836C78.4721 18.2752 78.5278 18.2495 78.5727 18.2095C78.6175 18.1696 78.6496 18.1172 78.6648 18.0591C78.6799 18.001 78.6776 17.9396 78.658 17.8828C78.6383 17.826 78.6023 17.7763 78.5545 17.74C78.5067 17.7036 78.4492 17.6822 78.3892 17.6784C78.3292 17.6747 78.2695 17.6888 78.2175 17.719C78.1483 17.7606 78.0981 17.8276 78.0777 17.9058C78.0572 17.984 78.0683 18.067 78.1083 18.1372Z" fill="#F46C0F"/>
<path d="M83.0617 26.6054C83.1029 26.6745 83.1695 26.7246 83.2473 26.7451C83.3251 26.7655 83.4078 26.7545 83.4776 26.7146C83.5296 26.6843 83.5715 26.6392 83.5979 26.5851C83.6243 26.531 83.6341 26.4702 83.6259 26.4105C83.6178 26.3509 83.5921 26.295 83.5522 26.2499C83.5123 26.2048 83.4599 26.1726 83.4017 26.1573C83.3434 26.142 83.2819 26.1443 83.225 26.1639C83.1681 26.1836 83.1183 26.2197 83.0819 26.2677C83.0455 26.3157 83.0241 26.3734 83.0206 26.4335C83.017 26.4936 83.0313 26.5534 83.0617 26.6054Z" fill="#F46C0F"/>
<path d="M76.7679 24.9652C76.8199 24.9349 76.8618 24.8898 76.8882 24.8357C76.9146 24.7816 76.9243 24.7208 76.9162 24.6611C76.9081 24.6015 76.8824 24.5456 76.8425 24.5005C76.8026 24.4554 76.7502 24.4232 76.6919 24.4079C76.6337 24.3926 76.5722 24.3949 76.5153 24.4146C76.4584 24.4342 76.4086 24.4703 76.3722 24.5183C76.3358 24.5663 76.3144 24.624 76.3108 24.6841C76.3073 24.7442 76.3216 24.804 76.352 24.856C76.372 24.8907 76.3986 24.921 76.4304 24.9453C76.4621 24.9696 76.4984 24.9874 76.5371 24.9975C76.5758 25.0077 76.6161 25.0101 76.6557 25.0045C76.6953 24.999 76.7335 24.9856 76.7679 24.9652Z" fill="#F46C0F"/>
<path d="M85.2361 20.0027C85.2882 19.9724 85.33 19.9273 85.3564 19.8732C85.3828 19.8191 85.3926 19.7584 85.3845 19.6987C85.3763 19.639 85.3507 19.5831 85.3108 19.538C85.2708 19.4929 85.2184 19.4607 85.1602 19.4454C85.102 19.4301 85.0405 19.4324 84.9836 19.4521C84.9266 19.4718 84.8768 19.5079 84.8404 19.5558C84.804 19.6038 84.7827 19.6615 84.7791 19.7216C84.7755 19.7817 84.7898 19.8416 84.8203 19.8935C84.861 19.9631 84.9277 20.0137 85.0056 20.0341C85.0836 20.0546 85.1665 20.0433 85.2361 20.0027Z" fill="#F46C0F"/>
<path d="M76.6723 56.3523C75.5246 55.3788 73.8263 58.018 73.4848 59.3725C73.3011 58.2807 73.0529 57.2009 72.7414 56.1385C73.3826 56.171 75.6663 53.504 74.4536 52.8442C73.4755 52.3121 72.6345 54.3984 72.5416 55.4973C72.2546 54.6111 71.9108 53.7443 71.5124 52.9022C72.3766 52.6699 74.3862 48.3905 72.5648 47.9584C71.1848 47.6308 70.7805 50.2816 70.9594 51.8289C70.5518 51.0956 70.0856 50.3963 69.5655 49.738C70.2625 49.1967 71.2034 45.505 69.6421 45.4191C68.4271 45.3517 68.4805 47.6238 68.8546 48.9248C68.5551 48.6067 68.2378 48.3058 67.9044 48.0234C68.1901 47.1197 64.315 43.0099 63.0836 44.8127C61.922 46.5296 66.6057 48.5299 67.693 48.2023C68.1049 48.5515 68.493 48.928 68.8546 49.3291C67.6813 48.8273 65.2117 48.5462 65.2048 49.7937C65.2048 51.3178 68.8685 50.6092 69.3866 49.9633C69.9472 50.6796 70.4425 51.4447 70.8665 52.2494C69.6329 51.4386 66.8705 50.6115 66.608 52.038C66.2944 53.7386 70.4553 53.713 71.3056 53.1206C71.6363 53.8308 71.9264 54.5591 72.1745 55.3021C71.359 54.5378 69.8512 53.7177 69.447 54.5796C68.915 55.6855 71.6518 56.4545 72.4835 56.2756C72.7367 57.1445 72.9481 58.0296 73.1084 58.9078C72.2651 57.7113 70.5529 56.2523 69.7978 57.249C68.7965 58.5593 72.3092 60.332 73.3245 60.2228C73.4828 61.3194 73.5821 62.4238 73.6219 63.5311C73.6219 63.7123 73.9123 63.7146 73.9076 63.5311C73.8701 62.3888 73.77 61.2495 73.6079 60.1182C74.4141 60.3366 78.0662 57.5208 76.6723 56.3523Z" fill="#B6CDEF"/>
<path d="M83.7676 46.7805C84.144 46.1749 84.5413 45.5794 84.9595 44.9939C86.0282 45.1496 90.2867 42.1015 88.7463 40.6704C87.1689 39.2067 84.3647 43.9043 84.7341 44.829C84.446 45.2332 84.1688 45.6436 83.9024 46.0603C84.1184 44.7709 83.9767 42.9378 82.9034 43.0517C81.4026 43.2097 82.4782 46.7131 83.1775 47.2196C83.0126 47.4961 82.85 47.7702 82.6896 48.0443C82.3528 48.6275 82.0345 49.2176 81.7301 49.817C81.9114 48.3812 81.5489 45.8675 80.2549 46.1788C78.5403 46.5807 80.4872 50.6719 81.2585 50.7741C80.7567 51.8304 80.3037 52.9084 79.8994 54.0081C79.9227 52.2378 79.0747 49.1037 77.5111 49.6962C75.4597 50.4675 78.5496 55.2232 79.4952 55.1558C79.1328 56.24 78.8153 57.3373 78.5427 58.4478C78.3103 57.2583 77.474 55.5577 76.5586 56.0735C75.3528 56.7495 77.5135 59.3005 78.2987 59.4956C77.8338 61.6178 77.5232 63.7709 77.3694 65.938C77.3578 66.1192 77.6366 66.1703 77.6505 65.9844C77.8022 63.8141 78.1128 61.6577 78.5798 59.5328C79.3209 59.8511 82.7199 58.9218 82.0763 57.63C81.5443 56.5613 79.544 57.8484 78.7587 58.7661C79.0422 57.5859 79.3775 56.4204 79.7647 55.2696C80.91 55.8435 85.912 55.2255 85.2685 53.2205C84.7318 51.5455 81.5513 52.9533 80.1573 54.1219C80.56 53.0378 81.0076 51.9683 81.5001 50.9135C82.4294 51.4758 86.4022 51.4827 86.1025 49.8286C85.8493 48.4346 83.2008 49.2036 81.9532 49.9866C82.225 49.4453 82.5061 48.9086 82.8058 48.3789C82.9963 48.0374 83.1961 47.6958 83.4006 47.3543C83.9396 47.9979 87.8147 48.5578 87.7241 46.978C87.6707 45.6142 84.8433 46.1579 83.7676 46.7805Z" fill="#B6CDEF"/>
<path d="M81.189 70.7981C81.1454 71.0643 81.0105 71.3071 80.8074 71.4847C80.6044 71.6623 80.3458 71.7638 80.0762 71.7715H71.666C71.3976 71.7657 71.1401 71.6641 70.9399 71.4852C70.7398 71.3063 70.61 71.0618 70.5741 70.7958L69.5635 61.7467C69.547 61.6234 69.5575 61.4979 69.5941 61.379C69.6307 61.2601 69.6927 61.1505 69.7757 61.0578C69.8587 60.9651 69.9607 60.8914 70.0749 60.8419C70.1891 60.7924 70.3126 60.7682 70.437 60.771H81.5514C81.6749 60.7677 81.7976 60.7917 81.9108 60.8413C82.024 60.8908 82.1248 60.9646 82.2062 61.0576C82.2876 61.1505 82.3475 61.2602 82.3817 61.3789C82.4159 61.4976 82.4236 61.6224 82.4041 61.7444L81.189 70.7981Z" fill="#FC8B3F"/>
<path opacity="0.1" d="M81.5512 60.771H79.5323C79.8343 63.919 79.1861 68.6166 73.7637 71.7716H80.0759C80.3456 71.7638 80.6041 71.6624 80.8072 71.4848C81.0103 71.3071 81.1452 71.0644 81.1888 70.7981L82.4038 61.7375C82.4222 61.616 82.4137 61.492 82.379 61.3742C82.3443 61.2563 82.2842 61.1475 82.2029 61.0554C82.1216 60.9633 82.0212 60.8901 81.9086 60.8409C81.796 60.7918 81.674 60.7679 81.5512 60.771Z" fill="#114068"/>
<path d="M83.6957 61.6306C83.6961 61.7988 83.6632 61.9654 83.5989 62.1209C83.5347 62.2763 83.4404 62.4176 83.3215 62.5365C83.2026 62.6554 83.0613 62.7497 82.9059 62.8139C82.7504 62.8781 82.5838 62.911 82.4156 62.9107H69.5542C69.3859 62.911 69.2192 62.8782 69.0636 62.814C68.908 62.7498 68.7666 62.6555 68.6475 62.5366C68.5284 62.4177 68.4339 62.2765 68.3694 62.121C68.3049 61.9656 68.2717 61.7989 68.2717 61.6306C68.2723 61.2909 68.4077 60.9653 68.6482 60.7253C68.8886 60.4853 69.2144 60.3505 69.5542 60.3505H82.4156C82.7551 60.3505 83.0807 60.4854 83.3208 60.7255C83.5609 60.9655 83.6957 61.2911 83.6957 61.6306Z" fill="#F46C0F"/>
<path d="M17.346 71.3534C17.1824 71.3538 17.019 71.339 16.8581 71.3092C15.0901 70.9747 13.9959 68.8768 14.421 66.6326C14.8044 64.5997 16.2796 63.1221 17.9059 63.1221C18.0704 63.1225 18.2345 63.1381 18.3961 63.1686C20.1641 63.5031 21.256 65.5987 20.8332 67.843C20.4498 69.8781 18.9816 71.3534 17.346 71.3534ZM17.9059 64.2605C16.8349 64.2605 15.815 65.371 15.5385 66.844C15.2318 68.4702 15.9172 69.9711 17.0695 70.1894C17.1606 70.2073 17.2532 70.2158 17.346 70.215C18.4193 70.215 19.4369 69.1045 19.7134 67.6315C20.0224 66.0053 19.3347 64.5045 18.1847 64.2861C18.0927 64.2696 17.9994 64.261 17.9059 64.2605Z" fill="#FC8B3F"/>
<path d="M17.253 62.1627H8.71042C8.71042 62.1627 7.57203 68.8629 10.95 71.7716H15.0134C18.3914 68.8745 17.253 62.1627 17.253 62.1627Z" fill="#FC8B3F"/>
<path opacity="0.1" d="M13.1877 71.7716H15.0137C18.3917 68.8629 17.2533 62.1627 17.2533 62.1627H14.9812C14.3144 64.6416 12.8299 68.4679 9.75391 70.294C10.0675 70.8471 10.472 71.3435 10.9504 71.7623H13.1877V71.7716Z" fill="#114068"/>
<path d="M11.6543 61.4587C11.6543 61.4587 10.4927 60.6804 10.7715 59.621C11.0503 58.5616 12.4256 56.6356 11.1897 55.3392C11.1897 55.3392 13.176 56.401 12.5395 57.9227C11.9029 59.4444 11.1246 60.081 11.6543 61.4587Z" fill="#CEDDF4"/>
<path d="M14.6836 59.9881C14.6836 59.9881 13.522 59.2098 13.8008 58.1481C14.0796 57.0863 15.4549 55.165 14.219 53.8687C14.219 53.8687 16.2053 54.9304 15.5688 56.4521C14.9322 57.9738 14.1539 58.6081 14.6836 59.9881Z" fill="#CEDDF4"/>
<path d="M17.2532 62.1626C17.2532 62.6273 15.3273 63.006 12.9529 63.006C10.5786 63.006 8.65259 62.6273 8.65259 62.1626C8.65259 61.698 10.5762 61.317 12.9529 61.317C15.3296 61.317 17.2532 61.6956 17.2532 62.1626Z" fill="#F46C0F"/>
<path d="M9.2312 62.5832C9.97464 62.8364 11.3616 63.006 12.9484 63.006C14.5352 63.006 15.9245 62.8364 16.6656 62.5832C15.9221 62.3323 14.5352 62.1627 12.9484 62.1627C11.3616 62.1627 9.97464 62.3323 9.2312 62.5832Z" fill="#AF622E"/>
<path d="M61.5644 25.6389L61.0858 24.0196L60.6095 25.6389L59.1296 26.1477L60.6095 26.6565L61.0858 28.2735L61.5644 26.6565L63.0443 26.1477L61.5644 25.6389Z" fill="white"/>
<path d="M68.9338 23.3412L68.6852 22.4955L68.4366 23.3412L67.6653 23.6061L68.4366 23.8709L68.6852 24.7142L68.9338 23.8709L69.7051 23.6061L68.9338 23.3412Z" fill="white"/>
<path d="M73.9263 41.6484L73.3733 39.7782L72.8204 41.6484L71.1082 42.2362L72.8204 42.8263L73.3733 44.6965L73.9263 42.8263L75.6362 42.2362L73.9263 41.6484Z" fill="white"/>
<path d="M61.3367 40.1243L61.0858 39.281L60.8372 40.1243L60.0659 40.3892L60.8372 40.654L61.0858 41.4997L61.3367 40.654L62.108 40.3892L61.3367 40.1243Z" fill="white"/>
<path d="M29.7314 17.2403L28.9624 14.636L28.1935 17.2403L25.8145 18.0581L28.1935 18.8782L28.9624 21.4803L29.7314 18.8782L32.1104 18.0581L29.7314 17.2403Z" fill="white"/>
<path d="M9.13093 32.5599L8.65234 30.9406L8.17375 32.5599L6.69385 33.0687L8.17375 33.5775L8.65234 35.1945L9.13093 33.5775L10.6085 33.0687L9.13093 32.5599Z" fill="white"/>
<path d="M27.2825 40.1243L27.0339 39.281L26.783 40.1243L26.0117 40.3892L26.783 40.654L27.0339 41.4997L27.2825 40.654L28.0539 40.3892L27.2825 40.1243Z" fill="white"/>
<path d="M21.1726 51.4292L20.694 49.8123L20.2154 51.4292L18.7378 51.938L20.2154 52.4468L20.694 54.0638L21.1726 52.4468L22.6501 51.938L21.1726 51.4292Z" fill="white"/>
</svg>
