<svg width="108" height="61" viewBox="0 0 108 61" fill="none" xmlns="http://www.w3.org/2000/svg">
<path d="M53.79 60.8101C83.4974 60.8101 107.58 58.9513 107.58 56.6584C107.58 54.3654 83.4974 52.5066 53.79 52.5066C24.0826 52.5066 0 54.3654 0 56.6584C0 58.9513 24.0826 60.8101 53.79 60.8101Z" fill="#E0EDF3"/>
<path d="M25.4413 52.6574C24.8377 52.6574 7.3762 45.3219 11.1872 30.7525C15.0305 16.0696 33.9449 8.71371 50.5486 7.50496C67.1523 6.29622 60.0812 23.2475 83.2779 19.745C99.7121 17.2648 99.0442 37.1845 78.3175 41.4448C57.5908 45.705 25.4413 52.6574 25.4413 52.6574Z" fill="#E0EDF3"/>
<path d="M17.0393 25.1208C17.3784 25.2327 51.7725 51.3368 51.7725 51.3368L54.3358 49.0973L21.8489 20.3027L17.0393 25.1208Z" fill="#D64D8B"/>
<path d="M21.8488 20.3028L17.0393 25.1208C13.1503 25.9515 10.1496 23.7544 9.1748 19.1212C9.08685 18.7112 9.02008 18.297 8.97476 17.8802C8.49838 13.6657 10.3937 11.3177 10.3937 11.3177C10.5887 13.6098 11.1261 14.9762 16.685 13.9031C16.8781 13.8656 17.0735 13.8413 17.2698 13.8302C21.4674 13.5945 21.8488 20.3028 21.8488 20.3028Z" fill="#373B54"/>
<path d="M17.2615 13.8353C16.8157 16.5325 14.7186 19.0517 10.0243 18.1329C9.64344 18.0583 9.29082 17.9758 8.96645 17.8854C8.49008 13.6709 10.3854 11.3229 10.3854 11.3229C10.5804 13.6149 11.1178 14.9813 16.6767 13.9082C16.8698 13.8708 17.0652 13.8464 17.2615 13.8353Z" fill="#F3C700"/>
<path d="M47.4649 53.8917L41.4381 55.821C31.2799 53.7307 25.5023 48.2311 22.266 43.2182L25.4871 39.536L20.6368 40.3667C18.7347 36.5234 18.2939 33.5194 18.2939 33.5194C39.3885 29.5422 46.9834 53.7714 47.4649 53.8917Z" fill="#55C0BF"/>
<path d="M41.1127 33.9651L35.0283 32.2122C20.3521 17.2936 28.2132 0.803467 28.2132 0.803467C30.2995 1.67756 32.2489 2.84807 34.0009 4.27882C32.5328 6.21146 30.6731 9.39183 33.3601 9.55289C35.0249 9.65291 35.8878 8.20682 36.3303 6.52678C45.6561 17.08 40.8347 33.6701 41.1127 33.9651Z" fill="#55C0BF"/>
<path d="M22.0474 35.9589C22.3474 35.9589 28.32 36.954 35.8827 45.7136" stroke="white" stroke-width="0.508588" stroke-miterlimit="10" stroke-linecap="round"/>
<path d="M29.6116 4.77393C29.6116 4.77393 29.9116 11.7416 35.8842 23.2865" stroke="white" stroke-width="0.508588" stroke-miterlimit="10" stroke-linecap="round"/>
<path d="M61.363 55.3887H43.2471L45.4306 43.3385H63.5465L61.363 55.3887Z" fill="#373B54"/>
<path d="M63.2278 54.8191H40.1599C39.7601 54.8191 39.436 55.1428 39.436 55.5421C39.436 55.9415 39.7601 56.2652 40.1599 56.2652H63.2278C63.6276 56.2652 63.9517 55.9415 63.9517 55.5421C63.9517 55.1428 63.6276 54.8191 63.2278 54.8191Z" fill="#494F70"/>
<path d="M27.1129 48.9448L33.0091 16.4155C33.0874 15.9819 33.3154 15.5896 33.6535 15.307C33.9915 15.0244 34.4181 14.8695 34.8587 14.8694H84.1104C84.3857 14.8694 84.6576 14.9299 84.907 15.0466C85.1563 15.1633 85.377 15.3333 85.5534 15.5447C85.7298 15.756 85.8577 16.0035 85.9279 16.2697C85.9982 16.5359 86.0091 16.8143 85.9599 17.0851L80.0654 49.6161C79.9868 50.0494 79.7586 50.4414 79.4206 50.7236C79.0826 51.0058 78.6562 51.1605 78.2158 51.1606H28.9641C28.6888 51.1605 28.4168 51.0999 28.1674 50.9833C27.918 50.8666 27.6972 50.6966 27.5207 50.4853C27.3442 50.274 27.2161 50.0265 27.1457 49.7604C27.0752 49.4942 27.064 49.2158 27.1129 48.9448Z" fill="#494F70"/>
<path d="M78.6363 44.8592H30.3204C30.2012 44.8591 30.0835 44.8329 29.9756 44.7823C29.8677 44.7318 29.7722 44.6581 29.6959 44.5666C29.6195 44.4751 29.5643 44.3679 29.5339 44.2526C29.5036 44.1374 29.4989 44.0169 29.5202 43.8996L34.4366 17.0665C34.4714 16.8796 34.5704 16.7107 34.7165 16.589C34.8626 16.4674 35.0467 16.4006 35.2368 16.4003H83.5527C83.672 16.4003 83.7899 16.4265 83.898 16.4772C84.0061 16.5279 84.1016 16.6017 84.178 16.6934C84.2544 16.7851 84.3096 16.8925 84.3398 17.008C84.37 17.1234 84.3745 17.2441 84.3529 17.3615L79.4365 44.1811C79.4048 44.3705 79.3071 44.5425 79.1606 44.6666C79.0141 44.7908 78.8284 44.859 78.6363 44.8592Z" fill="white"/>
<path d="M79.345 23.4747H37.9526V20.6113H79.9993L79.345 23.4747Z" fill="#55C0BF"/>
<path d="M42.0635 26.0872H36.5962L37.6134 20.6182H43.0807L42.0635 26.0872Z" fill="#F3C700"/>
<path d="M45.4526 42.7841L55.9346 26.7856L63.1057 42.7994L45.4526 42.7841Z" fill="#F2A14D"/>
<path d="M48.243 39.2986C51.4573 39.2986 54.063 36.6929 54.063 33.4786C54.063 30.2644 51.4573 27.6587 48.243 27.6587C45.0288 27.6587 42.4231 30.2644 42.4231 33.4786C42.4231 36.6929 45.0288 39.2986 48.243 39.2986Z" fill="#D64D8B"/>
<path d="M36.1047 33.616H48.243L57.145 20.4808" stroke="#373B54" stroke-width="0.508588" stroke-miterlimit="10"/>
<path d="M37.1422 32.8463H35.6096V34.3789H37.1422V32.8463Z" fill="#373B54"/>
<path d="M49.2076 32.8463H47.675V34.3789H49.2076V32.8463Z" fill="#373B54"/>
<path d="M57.9603 19.6925H56.4277V21.2251H57.9603V19.6925Z" fill="#373B54"/>
<path d="M64.1533 33.9126C65.1214 33.9126 65.9063 33.1278 65.9063 32.1597C65.9063 31.1916 65.1214 30.4067 64.1533 30.4067C63.1852 30.4067 62.4004 31.1916 62.4004 32.1597C62.4004 33.1278 63.1852 33.9126 64.1533 33.9126Z" fill="#55C0BF"/>
<path d="M92.141 46.724C90.8831 53.0814 84.4935 58.369 77.8836 58.369C71.2736 58.369 65.6232 54.4325 64.7925 48.0057C63.2244 35.8945 76.6698 26.6111 84.085 31.6257C86.9517 33.5652 82.644 38.7748 86.6449 39.1495C90.2762 39.4885 93.1039 41.8704 92.141 46.724Z" fill="#55C0BF"/>
<path d="M78.0465 36.4997C78.8929 36.4997 79.579 35.6541 79.579 34.6111C79.579 33.5681 78.8929 32.7225 78.0465 32.7225C77.2001 32.7225 76.5139 33.5681 76.5139 34.6111C76.5139 35.6541 77.2001 36.4997 78.0465 36.4997Z" fill="#F3C700"/>
<path d="M72.15 42.1501C73.679 42.1501 74.9184 41.0465 74.9184 39.6852C74.9184 38.3238 73.679 37.2202 72.15 37.2202C70.6211 37.2202 69.3816 38.3238 69.3816 39.6852C69.3816 41.0465 70.6211 42.1501 72.15 42.1501Z" fill="#D64D8B"/>
<path d="M71.0023 51.1504C72.329 51.1504 73.4046 49.9519 73.4046 48.4735C73.4046 46.9951 72.329 45.7966 71.0023 45.7966C69.6756 45.7966 68.6001 46.9951 68.6001 48.4735C68.6001 49.9519 69.6756 51.1504 71.0023 51.1504Z" fill="#373B54"/>
<path d="M78.2346 56.0718C79.5744 56.0718 80.6605 55.0592 80.6605 53.8102C80.6605 52.5612 79.5744 51.5487 78.2346 51.5487C76.8947 51.5487 75.8086 52.5612 75.8086 53.8102C75.8086 55.0592 76.8947 56.0718 78.2346 56.0718Z" fill="#71FFFE"/>
<path d="M88.7722 46.1983C88.7722 48.3039 86.7142 50.0111 84.178 50.0111C83.982 50.0106 83.7862 49.9999 83.5914 49.9789C82.1267 49.8246 80.8789 49.0956 80.1788 48.0733C79.794 47.5236 79.5864 46.8694 79.5837 46.1983C79.5837 44.2979 81.2604 42.723 83.4541 42.4348C83.6941 42.4035 83.9359 42.3877 84.178 42.3873C86.0428 42.3873 87.6601 43.3147 88.3722 44.6472C88.6335 45.1225 88.7711 45.6559 88.7722 46.1983Z" fill="white"/>
<path d="M95.4095 36.8048L88.3723 44.6472L83.5916 49.9789C82.1268 49.8246 80.8791 49.0957 80.179 48.0734L83.4543 42.4349L89.0064 32.8853L95.4095 36.8048Z" fill="#494F70"/>
<path d="M99.363 35.1587C97.9457 36.515 95.4095 36.8049 95.4095 36.8049L89.0064 32.8837C89.0064 32.8837 87.2247 27.7062 91.9427 26.5992C92.3712 26.5006 92.8073 26.4383 93.2463 26.4127C97.1031 26.1635 97.3252 22.9357 97.3252 22.9357C102.286 28.9879 101.508 33.099 99.363 35.1587Z" fill="#373B54"/>
<path d="M99.4308 35.096C96.4352 35.4046 97.9745 30.2543 96.7387 29.3727C95.3112 28.3555 92.909 31.9377 93.031 29.1286C93.0853 27.8944 92.5581 27.0942 91.9478 26.5992C92.3763 26.5006 92.8124 26.4383 93.2514 26.4127C97.1082 26.1635 97.3303 22.9357 97.3303 22.9357C102.286 28.9879 101.57 33.0362 99.4308 35.096Z" fill="#D64D8B"/>
<path d="M70.1631 28.0994C71.8484 28.0994 73.2146 26.7332 73.2146 25.0479C73.2146 23.3626 71.8484 21.9963 70.1631 21.9963C68.4778 21.9963 67.1116 23.3626 67.1116 25.0479C67.1116 26.7332 68.4778 28.0994 70.1631 28.0994Z" fill="#373B54"/>
<path d="M77.0664 14.6202C77.0693 16.3566 76.4131 18.0295 75.2304 19.3009C74.6461 19.9267 74.1813 20.654 73.8589 21.4471C73.59 22.1041 73.4292 22.8003 73.3825 23.5086C73.3724 23.651 73.3673 23.7934 73.3673 23.9375H66.9913C66.9913 23.7934 66.9913 23.651 66.9777 23.5086C66.8903 21.9649 66.2604 20.5018 65.1994 19.3772C64.063 18.1911 63.3899 16.6368 63.3023 14.9965C63.2905 14.7707 63.2905 14.5443 63.3023 14.3184C63.3876 12.5518 64.1461 10.8849 65.4221 9.66C66.698 8.43514 68.3945 7.74531 70.1632 7.73221C71.069 7.72953 71.9665 7.9057 72.8042 8.25061C73.6418 8.59552 74.4031 9.10239 75.0445 9.74215C75.6858 10.3819 76.1946 11.142 76.5415 11.9788C76.8885 12.8156 77.0669 13.7126 77.0664 14.6185V14.6202Z" fill="#F2A14D"/>
<path d="M73.3485 23.9562H67.0471V25.8108H73.3485V23.9562Z" fill="#373B54"/>
<path d="M73.3775 23.5103H66.9778C66.6753 23.5103 66.4302 23.7554 66.4302 24.0578V24.0595C66.4302 24.362 66.6753 24.6071 66.9778 24.6071H73.3775C73.6799 24.6071 73.9251 24.362 73.9251 24.0595V24.0578C73.9251 23.7554 73.6799 23.5103 73.3775 23.5103Z" fill="#494F70"/>
<path d="M73.3775 25.2598H66.9778C66.6753 25.2598 66.4302 25.5049 66.4302 25.8073V25.809C66.4302 26.1115 66.6753 26.3566 66.9778 26.3566H73.3775C73.6799 26.3566 73.9251 26.1115 73.9251 25.809V25.8073C73.9251 25.5049 73.6799 25.2598 73.3775 25.2598Z" fill="#494F70"/>
<path d="M74.5828 12.6486C74.5823 14.0009 74.116 15.3118 73.2624 16.3607C72.4088 17.4095 71.2199 18.1324 69.8959 18.4076C68.5719 18.6828 67.1934 18.4935 65.9926 17.8717C64.7917 17.2498 63.8417 16.2333 63.3023 14.9932C63.2905 14.7673 63.2905 14.5409 63.3023 14.3151C63.3885 12.549 64.1474 10.8829 65.4232 9.65879C66.6991 8.43464 68.3951 7.74529 70.1632 7.73223C70.9412 7.72922 71.714 7.85879 72.4484 8.11537C73.1164 8.66686 73.6542 9.35927 74.0232 10.143C74.3922 10.9267 74.5833 11.7823 74.5828 12.6486Z" fill="#F3C700"/>
<path d="M69.8734 5.75383L67.9238 1.46304L72.2146 0L69.8734 5.75383Z" fill="#F3C700"/>
<path d="M65.6808 6.92346L62.853 4.77722L61.9749 7.50834L65.6808 6.92346Z" fill="#F3C700"/>
<path d="M74.4182 6.20473L77.8291 4.9909L76.7577 3.33459L74.4182 6.20473Z" fill="#F3C700"/>
<path d="M67.3625 14.5133C67.3625 14.5133 67.5066 16.8613 70.3819 16.8613C73.2571 16.8613 74.02 14.1844 72.2467 14.0827C70.8582 14.003 70.2818 15.4728 70.2818 16.1425C70.2818 16.8121 70.2615 22.2896 70.2615 22.2896" stroke="white" stroke-width="0.508588" stroke-miterlimit="10" stroke-linecap="round"/>
<path d="M11.3481 48.3226H32.0782C33.3371 48.3226 34.5445 48.8227 35.4347 49.7129C36.3249 50.6031 36.825 51.8105 36.825 53.0695C36.825 54.3284 36.3249 55.5358 35.4347 56.426C34.5445 57.3162 33.3371 57.8163 32.0782 57.8163H11.3481V48.3226Z" fill="#F2A14D"/>
<path d="M11.345 56.2922V49.8501H32.0784C32.9327 49.8501 33.752 50.1895 34.3561 50.7935C34.9601 51.3976 35.2995 52.2169 35.2995 53.0712C35.2995 53.9254 34.9601 54.7447 34.3561 55.3488C33.752 55.9529 32.9327 56.2922 32.0784 56.2922H11.345Z" fill="white"/>
<path d="M20.5893 58.9063L18.6905 58.1773L16.8291 58.9063V51.9149H20.5893V58.9063Z" fill="#D64D8B"/>
</svg>
