<svg width="73" height="73" viewBox="0 0 73 73" fill="none" xmlns="http://www.w3.org/2000/svg">
<path opacity="0.3" d="M68.1545 47.4947C61.0812 64.0275 42.4103 71.1286 27.7814 69.9181C23.7869 69.5873 15.7503 68.9222 9.47527 62.988C-2.57566 51.5928 -0.719624 27.7708 10.8163 13.7463C12.3021 11.9401 22.5853 -0.1604 38.6098 0.00161194C50.3409 0.120214 58.5766 6.74773 59.5782 7.57252C60.8443 8.61565 63.6329 11.0942 66.1473 15.0261C72.0552 24.2657 72.5746 37.1634 68.1545 47.4947Z" fill="url(#paint0_linear_53_2410)"/>
<path d="M30.6294 56.4485L29.0579 67.2943H47.2914L44.9165 56.4485H30.6294Z" fill="url(#paint1_linear_53_2410)"/>
<path d="M1.11383e-07 21.7213V54.0026C-8.63963e-05 55.2796 0.498658 56.5061 1.3899 57.4207C2.28115 58.3353 3.49439 58.8655 4.77097 58.8984C16.5617 59.2025 57.7999 59.9397 69.024 59.7741C69.9524 59.7601 70.8397 59.3883 71.5006 58.736C72.1616 58.0838 72.5452 57.2016 72.5715 56.2734C72.788 48.774 73.1399 30.7405 71.8387 22.3681C71.7063 21.5137 71.2795 20.7324 70.6321 20.1593C69.9847 19.5863 69.1574 19.2574 68.2933 19.2297C58.4139 18.9136 14.6987 17.91 3.47978 18.162C2.54964 18.1828 1.66461 18.5669 1.01422 19.2322C0.363827 19.8975 -0.000232483 20.791 1.11383e-07 21.7213Z" fill="url(#paint2_linear_53_2410)"/>
<path d="M2.02563 21.5642V52.2336C2.02562 52.9788 2.31877 53.6941 2.84175 54.225C3.36473 54.7559 4.07555 55.0597 4.82067 55.0708L67.4094 55.8439C67.7746 55.8494 68.1372 55.7823 68.4763 55.6467C68.8154 55.5111 69.1242 55.3095 69.3848 55.0537C69.6455 54.7978 69.8528 54.4928 69.9948 54.1563C70.1367 53.8199 70.2105 53.4585 70.2119 53.0933L70.3153 22.6978C70.3172 22.1694 70.1121 21.6613 69.7437 21.2824C69.3754 20.9035 68.8733 20.6841 68.345 20.6712L4.2659 19.3767C3.97424 19.3697 3.68413 19.4211 3.41265 19.5279C3.14116 19.6348 2.89377 19.7948 2.68503 19.9986C2.4763 20.2024 2.31043 20.4459 2.19719 20.7148C2.08395 20.9837 2.02562 21.2725 2.02563 21.5642Z" fill="url(#paint3_linear_53_2410)"/>
<path opacity="0.65" d="M70.6831 57.101H70.6805L2.02548 55.931C2.01408 55.9308 2.00282 55.9284 1.99235 55.9239C1.98188 55.9194 1.97241 55.9128 1.96446 55.9047C1.95652 55.8965 1.95027 55.8868 1.94606 55.8762C1.94186 55.8656 1.93978 55.8543 1.93995 55.8429C1.94076 55.82 1.95042 55.7983 1.96691 55.7824C1.98339 55.7665 2.00541 55.7576 2.02832 55.7576L70.6856 56.9274C70.7087 56.9275 70.7307 56.9369 70.7468 56.9533C70.763 56.9697 70.772 56.9918 70.7718 57.0148C70.7716 57.0379 70.7623 57.0599 70.7459 57.076C70.7295 57.0922 70.7074 57.1012 70.6843 57.101H70.6831Z" fill="white"/>
<path opacity="0.65" d="M37.0315 58.5296C36.8731 58.5296 36.7182 58.4827 36.5865 58.3947C36.4547 58.3066 36.3521 58.1815 36.2914 58.0352C36.2308 57.8888 36.215 57.7277 36.2459 57.5724C36.2768 57.417 36.3531 57.2743 36.4651 57.1622C36.5771 57.0502 36.7198 56.9739 36.8752 56.943C37.0306 56.9121 37.1917 56.928 37.338 56.9886C37.4844 57.0492 37.6095 57.1519 37.6975 57.2836C37.7855 57.4153 37.8325 57.5702 37.8325 57.7286C37.8325 57.9411 37.7481 58.1448 37.5979 58.295C37.4477 58.4453 37.2439 58.5296 37.0315 58.5296ZM37.0315 57.101C36.9074 57.101 36.786 57.1378 36.6828 57.2068C36.5796 57.2757 36.4991 57.3738 36.4516 57.4884C36.4041 57.6031 36.3917 57.7293 36.4159 57.8511C36.4401 57.9728 36.4999 58.0847 36.5877 58.1724C36.6755 58.2602 36.7873 58.32 36.909 58.3442C37.0308 58.3684 37.157 58.356 37.2717 58.3085C37.3864 58.261 37.4844 58.1805 37.5533 58.0773C37.6223 57.9741 37.6591 57.8528 37.6591 57.7286C37.6589 57.5622 37.5927 57.4027 37.4751 57.2851C37.3574 57.1674 37.1979 57.1012 37.0315 57.101Z" fill="white"/>
<path d="M51.2189 70.1781H24.5328C23.8078 70.1781 23.2634 69.6613 23.4034 69.1078L23.746 67.7536C23.8494 67.3461 24.2969 67.0471 24.8292 67.0301L50.5556 66.2272C51.1117 66.2099 51.6039 66.505 51.7251 66.9282L52.3424 69.0853C52.5026 69.6463 51.9556 70.1781 51.2189 70.1781Z" fill="url(#paint4_linear_53_2410)"/>
<path d="M38.8983 67.3972C38.8753 67.3972 38.8532 67.388 38.837 67.3718C38.8207 67.3555 38.8115 67.3334 38.8115 67.3104C38.8115 67.2873 38.8207 67.2653 38.837 67.249C38.8532 67.2327 38.8753 67.2235 38.8983 67.2235L40.0006 67.2075C40.0235 67.2076 40.0455 67.2166 40.0619 67.2326C40.0783 67.2485 40.088 67.2702 40.0888 67.293C40.089 67.3045 40.0869 67.3158 40.0827 67.3264C40.0785 67.337 40.0723 67.3467 40.0643 67.3549C40.0564 67.3631 40.0469 67.3696 40.0364 67.3741C40.0259 67.3786 40.0146 67.381 40.0032 67.3812L38.9009 67.3972H38.8983Z" fill="white"/>
<path d="M24.3916 69.4302C24.387 69.4306 24.3824 69.4306 24.3779 69.4302C24.3666 69.4285 24.3558 69.4245 24.3461 69.4186C24.3364 69.4126 24.3279 69.4048 24.3212 69.3956C24.3145 69.3864 24.3097 69.3759 24.3071 69.3648C24.3044 69.3538 24.304 69.3423 24.3058 69.331L24.4631 68.346C24.5035 68.0901 24.6332 67.8566 24.8291 67.687C25.025 67.5174 25.2746 67.4225 25.5337 67.4192L37.2265 67.2481C37.2486 67.2491 37.2696 67.2586 37.285 67.2747C37.3004 67.2907 37.3091 67.312 37.3092 67.3342C37.3094 67.3564 37.301 67.3778 37.2859 67.3941C37.2707 67.4103 37.2499 67.4201 37.2277 67.4215L25.535 67.5925C25.3167 67.5954 25.1065 67.6753 24.9415 67.8182C24.7765 67.961 24.6673 68.1576 24.6332 68.3732L24.4758 69.3581C24.4724 69.3781 24.4621 69.3962 24.4467 69.4094C24.4313 69.4225 24.4118 69.4299 24.3916 69.4302Z" fill="white"/>
<path d="M55.4612 55.7354L13.4949 55.1517V9.95695C13.4948 9.49677 13.6775 9.0554 14.0028 8.72988C14.328 8.40436 14.7693 8.22134 15.2295 8.22107H53.8773C54.308 8.22107 54.721 8.39213 55.0256 8.69662C55.3302 9.00112 55.5014 9.41412 55.5015 9.84481L55.4612 55.7354Z" fill="url(#paint5_linear_53_2410)"/>
<path opacity="0.49" d="M54.1157 55.7241L14.7366 55.1693V11.1544C14.7366 10.2043 15.4973 9.43427 16.4355 9.43427H52.5255C53.404 9.43427 54.1157 10.1549 54.1157 11.0441V55.7241Z" fill="white"/>
<g opacity="0.75">
<path opacity="0.76" d="M50.6684 21.9479H19.0352C18.9099 21.9479 18.8083 22.0494 18.8083 22.1747V37.2414C18.8083 37.3667 18.9099 37.4682 19.0352 37.4682H50.6684C50.7937 37.4682 50.8953 37.3667 50.8953 37.2414V22.1747C50.8953 22.0494 50.7937 21.9479 50.6684 21.9479Z" fill="white"/>
<path opacity="0.76" d="M52.2849 40.2607H16.8373C16.7749 40.2607 16.7244 40.3112 16.7244 40.3736V43.5836C16.7244 43.646 16.7749 43.6965 16.8373 43.6965H52.2849C52.3473 43.6965 52.3978 43.646 52.3978 43.5836V40.3736C52.3978 40.3112 52.3473 40.2607 52.2849 40.2607Z" fill="white"/>
<path opacity="0.76" d="M52.1474 45.9547H16.8347C16.735 45.9547 16.6543 46.0354 16.6543 46.135V49.2101C16.6543 49.3098 16.735 49.3905 16.8347 49.3905H52.1474C52.247 49.3905 52.3278 49.3098 52.3278 49.2101V46.135C52.3278 46.0354 52.247 45.9547 52.1474 45.9547Z" fill="white"/>
<path opacity="0.76" d="M52.2016 51.2664H16.9406C16.8267 51.2664 16.7344 51.3587 16.7344 51.4726V54.4961C16.7344 54.61 16.8267 54.7023 16.9406 54.7023H52.2016C52.3155 54.7023 52.4078 54.61 52.4078 54.4961V51.4726C52.4078 51.3587 52.3155 51.2664 52.2016 51.2664Z" fill="white"/>
</g>
<path d="M4.16455 38.7939C4.16455 38.7939 8.66756 50.6709 10.0903 53.1409C11.7419 56.0091 16.5651 54.1812 16.325 51.7812C16.085 49.3813 10.4492 39.4605 10.4492 39.4605L4.16455 38.7939Z" fill="url(#paint6_linear_53_2410)"/>
<path d="M10.249 30.1426L38.2378 20.4384L37.944 46.6994L9.48413 40.3494L10.249 30.1426Z" fill="url(#paint7_linear_53_2410)"/>
<path d="M38.2642 47.1407C39.7829 47.1407 41.014 41.0986 41.014 33.6451C41.014 26.1917 39.7829 20.1495 38.2642 20.1495C36.7455 20.1495 35.5144 26.1917 35.5144 33.6451C35.5144 41.0986 36.7455 47.1407 38.2642 47.1407Z" fill="url(#paint8_linear_53_2410)"/>
<path d="M38.4728 46.218C38.2242 45.9653 37.6829 44.9901 37.2188 42.4687C36.77 40.0318 36.5229 36.8712 36.5229 33.5689C36.5229 30.2666 36.77 27.1062 37.2188 24.6693C37.6839 22.1479 38.2242 21.1728 38.4728 20.92C38.7214 21.1728 39.2627 22.1479 39.727 24.6693C40.1756 27.1062 40.4226 30.2666 40.4226 33.5689C40.4226 36.8712 40.1756 40.0318 39.727 42.4687C39.2627 44.9901 38.7214 45.9653 38.4728 46.218Z" fill="url(#paint9_linear_53_2410)"/>
<mask id="mask0_53_2410" style="mask-type:luminance" maskUnits="userSpaceOnUse" x="36" y="20" width="8" height="27">
<path d="M38.4728 46.218C38.2242 45.9653 37.6829 44.9901 37.2188 42.4687C36.77 40.0318 36.5229 36.8712 36.5229 33.5689C36.5229 30.2666 36.77 27.1062 37.2188 24.6693C37.6839 22.1479 38.2242 21.1728 38.4728 20.92C38.7214 21.1728 39.2627 22.1479 39.727 24.6693C40.1756 27.1062 43.7156 30.2666 43.7156 33.5689C43.7156 36.8712 40.1756 40.0318 39.727 42.4687C39.2627 44.9901 38.7214 45.9653 38.4728 46.218Z" fill="white"/>
</mask>
<g mask="url(#mask0_53_2410)">
<path d="M41.9972 33.4684C41.9972 35.7616 40.7621 37.6205 38.3172 37.6205C35.8723 37.6205 33.8901 35.7616 33.8901 33.4684C33.8901 31.1751 35.8723 29.3165 38.3172 29.3165C40.7621 29.3165 41.9972 31.1754 41.9972 33.4684Z" fill="url(#paint10_linear_53_2410)"/>
</g>
<path d="M5.73497 29.578C7.05277 29.4253 8.93904 29.3713 10.9803 29.8364C10.3085 33.3506 10.4093 37.0115 11.1871 40.8034H5.43006C4.98565 40.8036 4.55572 40.6453 4.21766 40.3568C3.87959 40.0683 3.65557 39.6687 3.58591 39.2298C3.2991 37.4122 2.9482 34.3575 3.32235 31.9038C3.41387 31.3053 3.6996 30.7534 4.13553 30.3331C4.57147 29.9129 5.13345 29.6476 5.73497 29.578Z" fill="url(#paint11_linear_53_2410)"/>
<path d="M9.19061 32.2689H4.70465C4.63106 32.2689 4.55884 32.2491 4.49558 32.2115C4.43232 32.1739 4.38037 32.1199 4.3452 32.0553C4.31002 31.9906 4.29292 31.9177 4.2957 31.8442C4.29848 31.7706 4.32103 31.6992 4.36099 31.6374C4.37802 31.6126 4.40407 31.5954 4.4336 31.5895C4.46312 31.5836 4.49379 31.5894 4.51906 31.6058C4.54433 31.6222 4.56221 31.6478 4.56888 31.6771C4.57556 31.7065 4.5705 31.7373 4.55478 31.763C4.53735 31.7899 4.5275 31.8211 4.52628 31.8531C4.52506 31.8852 4.53252 31.917 4.54787 31.9452C4.56321 31.9733 4.58588 31.9968 4.61347 32.0132C4.64107 32.0296 4.67257 32.0382 4.70465 32.0382H9.19061C9.23787 32.0381 9.28318 32.0193 9.31661 31.9859C9.35003 31.9525 9.36883 31.9071 9.3689 31.8599V31.5405C9.36883 31.4932 9.35003 31.4479 9.31661 31.4145C9.28318 31.3811 9.23787 31.3623 9.19061 31.3622H4.67132C4.65571 31.363 4.64011 31.3605 4.62547 31.3551C4.61083 31.3496 4.59745 31.3412 4.58614 31.3304C4.57483 31.3196 4.56583 31.3067 4.55968 31.2923C4.55353 31.2779 4.55035 31.2625 4.55035 31.2468C4.55035 31.2312 4.55353 31.2158 4.55968 31.2014C4.56583 31.187 4.57483 31.1741 4.58614 31.1633C4.59745 31.1525 4.61083 31.1441 4.62547 31.1386C4.64011 31.1332 4.65571 31.1307 4.67132 31.1315H9.19061C9.29905 31.1316 9.40301 31.1748 9.47969 31.2514C9.55637 31.3281 9.59951 31.4321 9.59965 31.5405V31.8599C9.59951 31.9683 9.55637 32.0723 9.47969 32.149C9.40301 32.2256 9.29905 32.2688 9.19061 32.2689Z" fill="white"/>
<path d="M8.79046 34.2557H4.30425C4.23068 34.2557 4.15849 34.2358 4.09527 34.1982C4.03205 34.1606 3.98013 34.1066 3.94499 34.042C3.90984 33.9773 3.89277 33.9044 3.89556 33.8309C3.89835 33.7574 3.9209 33.686 3.96084 33.6242C3.97787 33.5994 4.00392 33.5822 4.03345 33.5763C4.06298 33.5704 4.09365 33.5762 4.11892 33.5926C4.14419 33.609 4.16206 33.6346 4.16874 33.6639C4.17541 33.6933 4.17035 33.7241 4.15464 33.7498C4.13721 33.7767 4.12737 33.8078 4.12614 33.8399C4.12491 33.8719 4.13235 33.9037 4.14766 33.9319C4.16297 33.96 4.1856 33.9835 4.21316 33.9999C4.24072 34.0163 4.27218 34.025 4.30425 34.025H8.79046C8.83773 34.0249 8.88304 34.0061 8.91646 33.9727C8.94988 33.9393 8.96869 33.894 8.96876 33.8467V33.5273C8.96869 33.4801 8.94988 33.4348 8.91646 33.4013C8.88304 33.3679 8.83773 33.3491 8.79046 33.349H4.27117C4.25556 33.3498 4.23996 33.3473 4.22532 33.3419C4.21068 33.3364 4.1973 33.328 4.18599 33.3172C4.17468 33.3065 4.16568 33.2935 4.15953 33.2791C4.15338 33.2648 4.15021 33.2493 4.15021 33.2337C4.15021 33.218 4.15338 33.2026 4.15953 33.1882C4.16568 33.1738 4.17468 33.1609 4.18599 33.1501C4.1973 33.1393 4.21068 33.1309 4.22532 33.1255C4.23996 33.12 4.25556 33.1176 4.27117 33.1183H8.79046C8.8989 33.1184 9.00287 33.1616 9.07955 33.2382C9.15623 33.3149 9.19936 33.4189 9.1995 33.5273V33.8467C9.19936 33.9551 9.15623 34.0591 9.07955 34.1358C9.00287 34.2125 8.8989 34.2556 8.79046 34.2557Z" fill="white"/>
<path d="M14.316 29.431C14.2886 29.4308 14.2622 29.4209 14.2414 29.4029C14.2207 29.385 14.207 29.3603 14.2028 29.3332C14.1986 29.3061 14.2042 29.2784 14.2185 29.2551C14.2329 29.2317 14.2551 29.2142 14.2811 29.2057L35.4794 22.4601C35.5081 22.4524 35.5387 22.456 35.5648 22.4702C35.591 22.4845 35.6106 22.5082 35.6196 22.5366C35.6286 22.5649 35.6264 22.5956 35.6133 22.6224C35.6002 22.6491 35.5774 22.6697 35.5495 22.68L14.3509 29.4264C14.3396 29.4298 14.3278 29.4313 14.316 29.431Z" fill="white"/>
<path d="M11.4494 30.6036C11.4227 30.6036 11.3967 30.5944 11.3761 30.5774C11.3554 30.5604 11.3413 30.5368 11.3362 30.5106C11.331 30.4844 11.3351 30.4572 11.3478 30.4336C11.3605 30.4101 11.381 30.3917 11.4057 30.3816L12.4967 29.9357C12.5107 29.9299 12.5257 29.927 12.5408 29.9271C12.556 29.9271 12.5709 29.9302 12.5849 29.936C12.5989 29.9419 12.6115 29.9504 12.6222 29.9612C12.6329 29.9719 12.6413 29.9847 12.647 29.9987C12.6528 30.0127 12.6557 30.0277 12.6556 30.0429C12.6556 30.058 12.6525 30.073 12.6467 30.087C12.6408 30.1009 12.6323 30.1136 12.6215 30.1242C12.6108 30.1349 12.598 30.1434 12.584 30.1491L11.4931 30.5951C11.4792 30.6008 11.4644 30.6037 11.4494 30.6036Z" fill="white"/>
<path d="M9.19061 36.5826H4.70465C4.63106 36.5826 4.55884 36.5627 4.49558 36.5251C4.43232 36.4875 4.38037 36.4336 4.3452 36.3689C4.31002 36.3043 4.29292 36.2314 4.2957 36.1578C4.29848 36.0843 4.32103 36.0129 4.36099 35.9511C4.37822 35.9268 4.40416 35.9101 4.43339 35.9045C4.46262 35.8989 4.49289 35.9048 4.51788 35.921C4.54287 35.9371 4.56066 35.9623 4.56754 35.9913C4.57441 36.0202 4.56984 36.0507 4.55478 36.0764C4.53737 36.1033 4.52754 36.1345 4.52633 36.1666C4.52512 36.1986 4.53258 36.2304 4.54791 36.2586C4.56325 36.2868 4.5859 36.3103 4.61348 36.3267C4.64107 36.3432 4.67256 36.3518 4.70465 36.3518H9.19061C9.2379 36.3517 9.28321 36.3328 9.31662 36.2994C9.35004 36.2659 9.36883 36.2206 9.3689 36.1733V35.8542C9.36883 35.8069 9.35003 35.7616 9.31661 35.7282C9.28318 35.6948 9.23787 35.676 9.19061 35.6759H4.67132C4.65571 35.6766 4.64011 35.6742 4.62547 35.6687C4.61083 35.6633 4.59745 35.6549 4.58614 35.6441C4.57483 35.6333 4.56583 35.6203 4.55968 35.606C4.55353 35.5916 4.55035 35.5761 4.55035 35.5605C4.55035 35.5449 4.55353 35.5294 4.55968 35.515C4.56583 35.5007 4.57483 35.4877 4.58614 35.4769C4.59745 35.4661 4.61083 35.4578 4.62547 35.4523C4.64011 35.4468 4.65571 35.4444 4.67132 35.4451H9.19061C9.29905 35.4453 9.40301 35.4884 9.47969 35.5651C9.55637 35.6418 9.59951 35.7457 9.59965 35.8542V36.1733C9.59958 36.2818 9.55647 36.3858 9.47978 36.4625C9.4031 36.5393 9.29909 36.5824 9.19061 36.5826Z" fill="white"/>
<path d="M9.61049 39.1652H5.12453C5.05093 39.1652 4.97868 39.1454 4.91541 39.1078C4.85214 39.0702 4.80018 39.0162 4.76502 38.9516C4.72986 38.8869 4.7128 38.814 4.71564 38.7404C4.71847 38.6669 4.74109 38.5955 4.78113 38.5337C4.79774 38.508 4.82388 38.49 4.85378 38.4836C4.86858 38.4805 4.88386 38.4802 4.89875 38.483C4.91364 38.4857 4.92785 38.4914 4.94055 38.4996C4.95326 38.5078 4.96422 38.5185 4.97282 38.5309C4.98141 38.5434 4.98746 38.5574 4.99063 38.5722C4.99379 38.5871 4.99401 38.6023 4.99128 38.6172C4.98854 38.6321 4.98289 38.6463 4.97466 38.659C4.95734 38.686 4.94758 38.7171 4.94641 38.7492C4.94525 38.7812 4.95272 38.813 4.96804 38.8411C4.98336 38.8693 5.00597 38.8928 5.0335 38.9092C5.06103 38.9257 5.09247 38.9344 5.12453 38.9345H9.61049C9.65778 38.9344 9.70311 38.9156 9.73658 38.8822C9.77004 38.8488 9.7889 38.8035 9.78904 38.7562V38.4368C9.78897 38.3895 9.77013 38.3442 9.73665 38.3107C9.70317 38.2773 9.6578 38.2585 9.61049 38.2585H5.0912C5.06154 38.2571 5.03357 38.2443 5.01308 38.2229C4.99259 38.2014 4.98116 38.1728 4.98116 38.1431C4.98116 38.1135 4.99259 38.0849 5.01308 38.0634C5.03357 38.0419 5.06154 38.0292 5.0912 38.0278H9.61049C9.71893 38.0279 9.82289 38.071 9.89957 38.1477C9.97625 38.2244 10.0194 38.3284 10.0195 38.4368V38.7562C10.0194 38.8646 9.97625 38.9686 9.89957 39.0453C9.82289 39.1219 9.71893 39.1651 9.61049 39.1652Z" fill="white"/>
<path d="M13.6171 53.207C13.4072 53.2069 13.198 53.1842 12.9931 53.1393C12.5474 53.0446 12.1304 52.8457 11.7763 52.5589C11.4223 52.2721 11.1411 51.9055 10.9559 51.4892L7.37171 43.5269C7.3655 43.513 7.36208 43.4981 7.36162 43.483C7.36117 43.4679 7.36371 43.4528 7.36908 43.4386C7.37445 43.4245 7.38257 43.4115 7.39295 43.4005C7.40333 43.3895 7.41578 43.3806 7.42959 43.3744C7.4434 43.3682 7.4583 43.3648 7.47344 43.3643C7.48857 43.3639 7.50365 43.3664 7.51781 43.3718C7.53196 43.3771 7.54492 43.3853 7.55595 43.3956C7.56697 43.406 7.57583 43.4185 7.58204 43.4323L11.1662 51.3944C11.3368 51.7777 11.5957 52.1152 11.9218 52.3792C12.2478 52.6432 12.6318 52.8263 13.0421 52.9135C13.4433 53.0037 13.86 52.9977 14.2583 52.8958C14.6567 52.794 15.0252 52.5993 15.3338 52.3277C15.3677 52.298 15.4015 52.2675 15.4372 52.2365C15.46 52.2174 15.4893 52.2079 15.5189 52.2099C15.5486 52.2119 15.5764 52.2253 15.5964 52.2473C15.6164 52.2693 15.6271 52.2981 15.6264 52.3279C15.6256 52.3576 15.6134 52.3859 15.5922 52.4068C15.5569 52.4392 15.5217 52.4707 15.4865 52.5014C14.9702 52.9566 14.3054 53.2075 13.6171 53.207Z" fill="white"/>
<path d="M6.94724 42.4176C6.925 42.4176 6.90324 42.4111 6.88455 42.3991C6.86586 42.387 6.85103 42.3699 6.84181 42.3496L6.44208 41.4615C6.43585 41.4477 6.43241 41.4328 6.43194 41.4177C6.43147 41.4025 6.43399 41.3875 6.43935 41.3733C6.44472 41.3591 6.45282 41.3462 6.46319 41.3351C6.47357 41.3241 6.48602 41.3152 6.49983 41.309C6.51364 41.3027 6.52854 41.2993 6.54368 41.2988C6.55883 41.2984 6.57391 41.3009 6.58808 41.3062C6.60225 41.3116 6.61522 41.3197 6.62626 41.3301C6.6373 41.3405 6.64618 41.3529 6.65241 41.3667L7.0524 42.2548C7.06036 42.2724 7.06378 42.2917 7.06235 42.3109C7.06092 42.3301 7.05469 42.3487 7.04423 42.3649C7.03376 42.3811 7.0194 42.3944 7.00245 42.4036C6.98551 42.4128 6.96652 42.4176 6.94724 42.4176Z" fill="white"/>
<path d="M41.3422 33.349C41.313 33.349 41.2849 33.3379 41.2636 33.318C41.2423 33.2981 41.2293 33.2709 41.2272 33.2418C41.1476 32.1183 40.7579 31.2806 40.0698 30.7522C38.8794 29.8383 37.181 30.1522 37.164 30.1556C37.1491 30.1584 37.1338 30.1583 37.119 30.1553C37.1042 30.1523 37.0901 30.1463 37.0775 30.1379C37.065 30.1294 37.0542 30.1185 37.0459 30.1059C37.0376 30.0932 37.0318 30.0791 37.0289 30.0642C37.0261 30.0494 37.0262 30.0341 37.0292 30.0192C37.0322 30.0044 37.0382 29.9903 37.0467 29.9778C37.0551 29.9653 37.066 29.9545 37.0786 29.9462C37.0913 29.9378 37.1054 29.9321 37.1203 29.9292C37.1939 29.915 38.9386 29.5933 40.2101 30.569C40.9533 31.1395 41.3729 32.0333 41.4574 33.2255C41.4595 33.2561 41.4495 33.2862 41.4294 33.3093C41.4094 33.3324 41.381 33.3466 41.3504 33.3488L41.3422 33.349Z" fill="white"/>
<path d="M26.8762 11.8954H28.3317C28.9247 11.8954 29.3564 12.0105 29.6271 12.2407C29.8977 12.4708 30.0329 12.8369 30.0327 13.3391C30.0327 13.6693 29.9613 13.9456 29.8183 14.168C29.6753 14.3904 29.4806 14.525 29.2343 14.5719V14.6109C29.5568 14.6915 29.7893 14.8424 29.932 15.0636C30.0746 15.2848 30.1461 15.5787 30.1464 15.9452C30.1464 16.4631 30.0079 16.8679 29.7309 17.1597C29.4539 17.4515 29.075 17.5979 28.594 17.599H26.8773L26.8762 11.8954ZM27.8752 14.1895H28.363C28.587 14.1895 28.7443 14.1297 28.8351 14.0101C28.9259 13.8906 28.9714 13.7124 28.9715 13.4755C28.9715 13.2388 28.9198 13.0691 28.8165 12.9662C28.7131 12.8634 28.5495 12.8117 28.3255 12.8112H27.8752V14.1895ZM27.8752 15.0752V16.6711H28.4098C28.6308 16.6711 28.7953 16.6035 28.9033 16.4682C29.0113 16.333 29.0653 16.1236 29.0653 15.8401C29.0653 15.3302 28.8414 15.0752 28.3935 15.0752H27.8752Z" fill="url(#paint12_linear_53_2410)"/>
<path d="M30.9263 17.5997V11.8954H31.9877V16.6711H33.4585V17.5997H30.9263Z" fill="url(#paint13_linear_53_2410)"/>
<path d="M38.0628 14.7396C38.0628 15.6841 37.8859 16.4098 37.5321 16.9168C37.1782 17.4237 36.6723 17.6774 36.0143 17.6777C35.3535 17.6777 34.8463 17.4248 34.4926 16.9188C34.1389 16.4129 33.9624 15.6839 33.9629 14.7318C33.9629 13.7876 34.1398 13.0641 34.4936 12.5613C34.8475 12.0585 35.3573 11.8068 36.0231 11.8063C36.6811 11.8063 37.1857 12.0592 37.537 12.5652C37.8882 13.0711 38.0635 13.7959 38.0628 14.7396ZM35.0466 14.7396C35.0466 15.3898 35.1286 15.8854 35.2926 16.2263C35.4566 16.5672 35.6971 16.7376 36.0143 16.7374C36.6541 16.7374 36.974 16.0715 36.9742 14.7396C36.9744 13.4076 36.657 12.7417 36.022 12.7419C35.6995 12.7419 35.4564 12.9117 35.2926 13.2512C35.1288 13.5907 35.0468 14.0869 35.0466 14.7396Z" fill="url(#paint14_linear_53_2410)"/>
<path d="M40.6183 14.4354H42.3624V17.3617C41.864 17.5732 41.3277 17.6807 40.7862 17.6777C40.1227 17.6777 39.6122 17.4254 39.2547 16.9206C38.8973 16.4159 38.7181 15.6889 38.7173 14.7395C38.7173 13.824 38.9222 13.1073 39.332 12.5897C39.7418 12.0721 40.3147 11.8132 41.0506 11.8132C41.5083 11.8139 41.9578 11.935 42.3539 12.1644L42.018 13.0308C41.6955 12.8435 41.3941 12.7498 41.1136 12.7496C40.7104 12.7496 40.3911 12.9298 40.1558 13.2902C39.9204 13.6506 39.8027 14.1415 39.8025 14.763C39.8025 15.403 39.8877 15.8933 40.0581 16.2341C40.2285 16.5748 40.4763 16.7452 40.8015 16.7452C40.9778 16.7447 41.1534 16.7224 41.3242 16.6788V15.3718H40.618L40.6183 14.4354Z" fill="url(#paint15_linear_53_2410)"/>
<path d="M52.6483 26.5192L45.8818 26.9035C45.6095 26.9189 45.3421 26.8267 45.1373 26.6466C44.9325 26.4666 44.8067 26.2132 44.7872 25.9412L44.2226 18.0915C44.2124 17.9492 44.2316 17.8064 44.279 17.6719C44.3264 17.5373 44.4011 17.414 44.4982 17.3096C44.5954 17.2052 44.713 17.1219 44.8438 17.065C44.9746 17.008 45.1156 16.9786 45.2583 16.9786H52.5894C52.7258 16.9785 52.8608 17.0054 52.9868 17.0575C53.1128 17.1097 53.2273 17.1862 53.3237 17.2826C53.4201 17.379 53.4966 17.4935 53.5488 17.6194C53.601 17.7454 53.6279 17.8804 53.6279 18.0168V25.4825C53.6278 25.7477 53.5264 26.0029 53.3442 26.1956C53.1621 26.3884 52.9131 26.5042 52.6483 26.5192Z" fill="url(#paint16_linear_53_2410)"/>
<path d="M48.9239 25.9685C48.7571 25.9693 48.5931 25.9266 48.4478 25.8447C48.3025 25.7629 48.181 25.6446 48.0952 25.5016C47.0976 23.8531 45.9082 21.6821 45.9082 20.7002C45.9082 19.1658 47.2611 17.9175 48.9239 17.9175C50.5867 17.9175 51.9396 19.1658 51.9396 20.7002C51.9396 21.6821 50.751 23.8526 49.7526 25.5016C49.6668 25.6447 49.5453 25.7629 49.4 25.8448C49.2548 25.9266 49.0907 25.9693 48.9239 25.9685ZM48.9239 18.3033C47.4738 18.3033 46.2942 19.3788 46.2942 20.7002C46.2942 21.3867 47.071 23.064 48.4255 25.3016C48.4773 25.3874 48.5505 25.4584 48.6378 25.5076C48.7251 25.5569 48.8237 25.5828 48.9239 25.5828C49.0242 25.5828 49.1227 25.5569 49.21 25.5076C49.2974 25.4584 49.3705 25.3874 49.4223 25.3016C50.7768 23.064 51.5538 21.3867 51.5538 20.7002C51.5538 19.3775 50.374 18.302 48.9239 18.302V18.3033Z" fill="white"/>
<path d="M48.6914 22.6417C48.1957 22.6412 47.7204 22.444 47.3699 22.0935C47.0194 21.743 46.8222 21.2677 46.8217 20.772C46.8207 20.7461 46.825 20.7202 46.8343 20.696C46.8435 20.6718 46.8576 20.6497 46.8756 20.631C46.8936 20.6123 46.9152 20.5975 46.9391 20.5873C46.9629 20.5772 46.9886 20.5719 47.0146 20.5719C47.0405 20.5719 47.0662 20.5772 47.09 20.5873C47.1139 20.5975 47.1355 20.6123 47.1535 20.631C47.1715 20.6497 47.1856 20.6718 47.1948 20.696C47.2041 20.7202 47.2084 20.7461 47.2074 20.772C47.2076 21.1245 47.3331 21.4654 47.5617 21.7336C47.7903 22.0019 48.1069 22.18 48.4549 22.2361C48.8028 22.2922 49.1594 22.2225 49.4607 22.0396C49.762 21.8567 49.9883 21.5725 50.0991 21.238C50.2099 20.9034 50.198 20.5403 50.0654 20.2137C49.9329 19.8871 49.6884 19.6184 49.3758 19.4557C49.0631 19.293 48.7028 19.2469 48.3592 19.3257C48.0157 19.4045 47.7114 19.603 47.501 19.8857C47.4704 19.9268 47.4247 19.9541 47.374 19.9616C47.3233 19.969 47.2717 19.956 47.2306 19.9254C47.1895 19.8948 47.1622 19.8491 47.1547 19.7984C47.1473 19.7477 47.1603 19.6961 47.1909 19.655C47.3815 19.3992 47.6343 19.1964 47.9254 19.0659C48.2165 18.9354 48.5361 18.8815 48.8539 18.9095C49.1717 18.9374 49.477 19.0461 49.7409 19.2254C50.0047 19.4046 50.2184 19.6484 50.3614 19.9335C50.5045 20.2186 50.5722 20.5356 50.5582 20.8542C50.5442 21.1729 50.4489 21.4827 50.2813 21.7542C50.1137 22.0256 49.8795 22.2497 49.6009 22.405C49.3223 22.5604 49.0086 22.6419 48.6896 22.6417H48.6914Z" fill="white"/>
<path d="M68.4551 31.6031L60.2021 31.4674C60.0617 31.4651 59.9232 31.4343 59.795 31.3769C59.6668 31.3195 59.5516 31.2367 59.4564 31.1335C59.3611 31.0303 59.2878 30.9089 59.2408 30.7765C59.1938 30.6442 59.1741 30.5037 59.183 30.3635L59.7256 21.7635C59.7408 21.5234 59.8388 21.2961 60.003 21.1204C60.1671 20.9446 60.3872 20.8312 60.6256 20.7996L69.9182 19.5687C70.0785 19.5473 70.2416 19.5637 70.3945 19.6165C70.5474 19.6694 70.6858 19.7572 70.7987 19.873C70.9117 19.9888 70.996 20.1294 71.045 20.2835C71.094 20.4377 71.1063 20.6011 71.0809 20.7609L69.4983 30.7279C69.459 30.975 69.3319 31.1996 69.1402 31.3604C68.9486 31.5212 68.7053 31.6073 68.4551 31.6031Z" fill="url(#paint17_linear_53_2410)"/>
<g opacity="0.9">
<path d="M64.6898 29.3075C64.0478 29.3075 63.4202 29.1172 62.8864 28.7605C62.3525 28.4039 61.9364 27.897 61.6907 27.3038C61.445 26.7107 61.3807 26.058 61.506 25.4284C61.6312 24.7987 61.9403 24.2203 62.3943 23.7663C62.8483 23.3124 63.4267 23.0032 64.0563 22.878C64.686 22.7527 65.3387 22.817 65.9318 23.0627C66.5249 23.3085 67.0319 23.7245 67.3885 24.2584C67.7452 24.7922 67.9355 25.4198 67.9355 26.0618C67.9344 26.9223 67.5922 27.7472 66.9837 28.3557C66.3752 28.9642 65.5503 29.3064 64.6898 29.3075ZM64.6898 23.3598C64.1554 23.3597 63.6329 23.5182 63.1886 23.815C62.7442 24.1119 62.3978 24.5339 62.1933 25.0276C61.9887 25.5213 61.9352 26.0646 62.0394 26.5888C62.1436 27.1129 62.401 27.5944 62.7788 27.9723C63.1567 28.3502 63.6382 28.6076 64.1623 28.7119C64.6865 28.8162 65.2297 28.7627 65.7235 28.5582C66.2172 28.3537 66.6392 28.0073 66.9362 27.563C67.2331 27.1186 67.3915 26.5962 67.3915 26.0618C67.391 25.3453 67.1062 24.6583 66.5997 24.1515C66.0932 23.6448 65.4063 23.3596 64.6898 23.3588V23.3598Z" fill="white"/>
<path fill-rule="evenodd" clip-rule="evenodd" d="M63.6731 27.3121V24.9788C63.6731 24.922 63.6881 24.8663 63.7166 24.8172C63.7452 24.7681 63.7862 24.7274 63.8356 24.6993C63.8849 24.6712 63.9408 24.6566 63.9976 24.6571C64.0544 24.6576 64.11 24.6731 64.1589 24.7021L66.1252 25.8687C66.1733 25.8972 66.2131 25.9377 66.2407 25.9862C66.2684 26.0347 66.2829 26.0896 66.2829 26.1455C66.2829 26.2013 66.2684 26.2562 66.2407 26.3047C66.2131 26.3533 66.1733 26.3937 66.1252 26.4222L64.1589 27.5889C64.11 27.6178 64.0544 27.6333 63.9976 27.6338C63.9408 27.6343 63.8849 27.6198 63.8356 27.5917C63.7862 27.5636 63.7452 27.5229 63.7166 27.4738C63.6881 27.4247 63.6731 27.3689 63.6731 27.3121Z" fill="white"/>
</g>
<path d="M48.8814 43.9817L43.9244 44.5039C43.7795 44.5191 43.6331 44.5038 43.4946 44.4587C43.3562 44.4137 43.2287 44.3401 43.1205 44.2427C43.0123 44.1452 42.9258 44.0261 42.8667 43.893C42.8075 43.7599 42.777 43.6159 42.7771 43.4703V37.7497C42.777 37.4999 42.867 37.2585 43.0306 37.0697C43.1941 36.8809 43.4203 36.7574 43.6675 36.7219L48.6245 36.0082C48.7719 35.9869 48.922 35.9976 49.0649 36.0395C49.2077 36.0815 49.3399 36.1536 49.4524 36.251C49.5649 36.3485 49.6551 36.469 49.717 36.6044C49.7788 36.7398 49.8108 36.8869 49.8108 37.0358V42.9491C49.8108 43.2056 49.7159 43.4531 49.5442 43.6438C49.3726 43.8344 49.1365 43.9548 48.8814 43.9817Z" fill="url(#paint18_linear_53_2410)"/>
<path d="M45.8947 42.084C45.3371 42.084 44.7578 41.8429 44.5859 41.484C44.3895 41.0732 44.7808 40.7807 44.9053 40.7008C45.2833 40.4584 45.6195 40.3752 45.9042 40.4535C45.9945 40.4772 46.079 40.5188 46.1528 40.5758C46.2265 40.6329 46.2881 40.7042 46.3337 40.7856L45.9489 40.9783L45.9513 40.9827C45.912 40.9235 45.8513 40.8819 45.782 40.8664C45.6709 40.8388 45.4689 40.8507 45.1376 41.0631C44.9975 41.153 44.9425 41.2321 44.9743 41.2982C45.0851 41.5308 45.7681 41.7657 46.2717 41.598C46.4394 41.5421 46.5851 41.0535 46.444 39.8603C46.3708 39.2788 46.2663 38.7018 46.1309 38.1316C46.1214 38.0931 46.1227 38.0527 46.1347 38.0149C46.1468 37.9771 46.169 37.9434 46.199 37.9174C46.229 37.8915 46.2656 37.8743 46.3047 37.8678C46.3439 37.8613 46.384 37.8658 46.4208 37.8807C46.4724 37.9014 47.676 38.3998 48.0034 39.3409C48.152 39.7683 48.0985 40.2122 47.8443 40.6608C47.8153 40.7088 47.7688 40.7437 47.7145 40.758C47.6602 40.7722 47.6025 40.7647 47.5537 40.737C47.5049 40.7094 47.4688 40.6638 47.4532 40.6099C47.4375 40.556 47.4435 40.4982 47.4698 40.4486C47.6629 40.1083 47.7045 39.7926 47.5975 39.4835C47.4386 39.0254 46.9856 38.6825 46.6502 38.4817C46.7205 38.8195 46.8117 39.3065 46.8714 39.8099C47.0301 41.1499 46.8828 41.8478 46.4078 42.0062C46.242 42.0594 46.0688 42.0856 45.8947 42.084Z" fill="white"/>
<path d="M64.7118 18.285H57.2143C56.9389 18.2849 56.6748 18.1755 56.4801 17.9807C56.2854 17.786 56.176 17.5219 56.176 17.2465V9.72727C56.176 9.46636 56.2741 9.21499 56.451 9.02318C56.6279 8.83137 56.8705 8.71319 57.1305 8.69215L65.1195 8.04617C65.2677 8.03418 65.4167 8.05414 65.5565 8.10471C65.6963 8.15528 65.8236 8.23527 65.9299 8.33929C66.0361 8.4433 66.1187 8.56891 66.1722 8.70762C66.2257 8.84633 66.2488 8.99491 66.2399 9.1433L65.749 17.3085C65.7331 17.5728 65.6169 17.8211 65.4241 18.0026C65.2313 18.184 64.9765 18.2851 64.7118 18.285Z" fill="url(#paint19_linear_53_2410)"/>
<path d="M62.9439 11.3564C62.3964 10.8185 61.5426 10.9802 60.9543 11.4737C60.9135 11.508 60.8621 11.527 60.8088 11.5274C60.7556 11.5278 60.7039 11.5097 60.6626 11.4761C60.067 10.9929 59.214 10.8458 58.676 11.3931C58.5371 11.5344 58.4274 11.7017 58.3531 11.8854C58.2789 12.0691 58.2415 12.2657 58.2432 12.4638C58.2449 12.662 58.2856 12.8578 58.3631 13.0403C58.4405 13.2227 58.553 13.388 58.6944 13.5269L60.6827 15.4817C60.7262 15.5242 60.7847 15.5478 60.8456 15.5473C60.9064 15.5467 60.9645 15.5221 61.0072 15.4788L62.9617 13.4892C63.242 13.2039 63.3976 12.8191 63.3943 12.4191C63.3909 12.0192 63.2289 11.637 62.9439 11.3564Z" fill="white"/>
<path d="M58.5689 32.6676C59.1583 30.6124 57.9699 28.4686 55.9147 27.8793C53.8595 27.2899 51.7157 28.4783 51.1264 30.5335C50.5371 32.5887 51.7254 34.7325 53.7806 35.3218C55.8358 35.9111 57.9796 34.7228 58.5689 32.6676Z" fill="url(#paint20_linear_53_2410)"/>
<path d="M53.7304 30.1364H53.0749C52.9752 30.1364 52.8943 30.2173 52.8943 30.317V33.1759C52.8943 33.2756 52.9752 33.3565 53.0749 33.3565H53.7304C53.8302 33.3565 53.9111 33.2756 53.9111 33.1759V30.317C53.9111 30.2173 53.8302 30.1364 53.7304 30.1364Z" fill="white"/>
<path d="M56.1307 30.1364H55.4932V29.3654C55.4932 29.115 55.3454 28.9501 55.0951 28.9501H55.079C54.8284 28.9501 54.6253 29.1341 54.6253 29.3845L54.4013 30.1576C54.3015 30.1576 54.1375 30.2289 54.1375 30.3287V33.2922C54.1375 33.3919 54.385 33.5247 54.4847 33.5247H56.1307C56.5054 33.5247 56.7927 33.1676 56.7927 32.793V30.8263C56.7927 30.4519 56.5054 30.1364 56.1307 30.1364Z" fill="white"/>
<path d="M63.3314 70.2886C63.3314 70.2886 63.4629 70.9924 63.5306 71.6901C63.5366 71.7548 63.5295 71.82 63.5097 71.8819C63.4898 71.9438 63.4577 72.001 63.4151 72.0501C63.3726 72.0992 63.3206 72.1392 63.2622 72.1676C63.2037 72.1961 63.1402 72.2124 63.0753 72.2157C62.1451 72.2632 60.158 72.3575 59.4444 72.3325C59.4194 72.3315 59.3951 72.3246 59.3734 72.3123C59.3517 72.3 59.3333 72.2827 59.3196 72.2619C59.3059 72.241 59.2974 72.2172 59.2948 72.1924C59.2922 72.1676 59.2955 72.1425 59.3046 72.1193C59.3369 72.0353 59.4004 71.9671 59.4818 71.9289L62.7523 70.3878L63.3314 70.2886Z" fill="url(#paint21_linear_53_2410)"/>
<path d="M63.4296 69.8731L63.3376 70.7175C63.3376 70.7175 62.7648 70.9909 62.3689 70.6932L62.5981 69.7509L63.4296 69.8731Z" fill="url(#paint22_linear_53_2410)"/>
<path d="M63.203 54.0148C63.2485 54.2347 63.5389 65.0055 62.4346 69.8442C62.4256 69.8823 62.4305 69.9224 62.4485 69.9571C62.4664 69.9919 62.4962 70.0191 62.5325 70.0339C62.8333 70.1466 63.1511 70.2078 63.4723 70.2147C63.5348 70.2162 63.596 70.1968 63.6463 70.1596C63.6966 70.1225 63.7332 70.0697 63.7503 70.0096C64.0686 68.8863 65.5924 63.2593 65.7469 57.8964C65.9198 51.904 65.7451 57.6925 65.7451 57.6925L65.5748 53.991L63.203 54.0148Z" fill="url(#paint23_linear_53_2410)"/>
<path d="M67.1147 70.6204C67.1147 70.6204 67.3165 70.9744 67.5176 71.9188C67.5262 71.959 67.5264 72.0005 67.518 72.0407C67.5096 72.0809 67.4929 72.119 67.4688 72.1523C67.4448 72.1856 67.4141 72.2136 67.3786 72.2343C67.3431 72.255 67.3036 72.268 67.2628 72.2725C66.9561 72.3056 66.4837 72.35 66.1052 72.35C66.064 72.3503 66.0232 72.3419 65.9855 72.3253C65.9478 72.3087 65.914 72.2844 65.8864 72.2538C65.8588 72.2233 65.8379 72.1872 65.8252 72.1481C65.8124 72.1089 65.8081 72.0675 65.8124 72.0265C65.8512 71.6808 65.9763 71.1129 66.3757 70.6674L67.1147 70.6204Z" fill="url(#paint24_linear_53_2410)"/>
<path d="M67.2772 69.5336L67.0558 70.8116C67.0558 70.8116 66.8261 70.9858 66.3674 70.8656L66.4659 69.492L67.2772 69.5336Z" fill="url(#paint25_linear_53_2410)"/>
<path d="M67.7637 54.3019C68.7598 59.9767 67.6934 68.3517 67.3226 69.9925C67.3117 70.0417 67.2864 70.0865 67.2501 70.1214C67.2137 70.1562 67.1678 70.1795 67.1182 70.1884C66.9461 70.2186 66.6622 70.2445 66.3813 70.1659C66.334 70.1527 66.2921 70.125 66.2615 70.0865C66.231 70.0481 66.2134 70.001 66.2113 69.952C66.1467 68.629 66.1624 60.503 65.2552 57.3003C65.2093 57.1383 65.1089 56.9971 64.971 56.9005L63.2563 55.706L63.1069 53.7499L67.7637 54.3019Z" fill="url(#paint26_linear_53_2410)"/>
<path d="M61.66 43.5894C64.4819 43.516 67.603 44.2738 67.603 44.2738C68.4911 49.1748 67.8511 54.8434 67.8511 54.8434C65.6715 55.4377 63.1979 54.5375 63.1979 54.5375C62.815 52.4892 61.0656 46.7309 61.0656 46.7309C59.6851 46.5728 58.5453 46.1859 57.6047 45.6686C58.3104 44.8348 58.6368 43.779 58.7768 43.1555C59.7783 43.456 60.7897 43.6121 61.66 43.5894Z" fill="url(#paint27_linear_53_2410)"/>
<path d="M53.2837 39.512C53.5576 39.1742 53.91 39.3293 53.91 39.3293C54.3421 41.0799 56.5335 42.4817 58.7774 43.1556C58.6373 43.7791 58.311 44.8351 57.6053 45.6687C53.8723 43.6168 53.2837 39.512 53.2837 39.512Z" fill="url(#paint28_linear_53_2410)"/>
<path d="M53.3516 39.5965C53.3235 39.689 53.6617 39.8262 53.855 39.4471C53.8601 39.2662 53.9627 38.491 53.8534 38.3443C53.2705 37.5655 52.1457 36.5929 52.1457 36.5929C51.9589 36.7807 52.116 36.9619 52.116 36.9619L52.6625 37.5205C52.5514 37.7272 52.4149 37.9001 52.3524 38.1482C52.3067 38.3374 52.3357 38.537 52.4333 38.7055C52.5299 38.8755 52.6615 39.097 52.7857 39.2698C53.0211 39.597 53.3516 39.5965 53.3516 39.5965Z" fill="url(#paint29_linear_53_2410)"/>
<path d="M52.9031 37.8841L53.4 38.2975L53.5589 38.711L53.124 39.2019C53.124 39.2019 52.969 38.3776 52.8566 38.1998C52.7442 38.0221 52.801 37.9373 52.9031 37.8841Z" fill="url(#paint30_linear_53_2410)"/>
<path d="M66.5461 47.0172L67.6024 44.2739C67.6024 44.2739 70.2559 46.04 70.7109 48.3069C70.2133 48.3482 69.3081 48.4864 68.4252 48.943C68.221 47.8725 66.5461 47.0172 66.5461 47.0172Z" fill="url(#paint31_linear_53_2410)"/>
<path d="M64.2681 49.6115C64.2681 49.6115 67.2437 51.2559 68.229 49.8182C68.4333 49.5198 68.4801 49.2239 68.4264 48.9441C69.3093 48.4875 70.2144 48.3498 70.7121 48.3079C70.8496 48.9914 70.7873 49.7203 70.392 50.4601C68.6731 53.6768 63.8833 50.3451 63.8833 50.3451L64.2681 49.6115Z" fill="url(#paint32_linear_53_2410)"/>
<path d="M64.497 41.2708L65.42 43.8594C65.4274 43.8801 65.4274 43.9029 65.4198 43.9236C65.4122 43.9443 65.3975 43.9616 65.3784 43.9726C65.1347 44.11 64.2567 44.5098 63.1875 43.846C63.1321 43.8123 63.0848 43.7668 63.0491 43.7128C63.0133 43.6587 62.99 43.5974 62.9807 43.5333L62.6704 41.2884L64.497 41.2708Z" fill="url(#paint33_linear_53_2410)"/>
<path d="M62.5199 38.8846C62.5199 38.8846 61.5514 40.7502 61.685 41.499C61.8186 42.2478 63.0403 42.1822 64.1018 41.5628L64.8284 39.5515L62.5199 38.8846Z" fill="url(#paint34_linear_53_2410)"/>
<path d="M64.0452 40.5791C64.0351 40.5746 64.026 40.568 64.0187 40.5597C64.0113 40.5514 64.0058 40.5416 64.0026 40.531C63.9993 40.5204 63.9984 40.5092 63.9998 40.4982C64.0012 40.4872 64.005 40.4766 64.0109 40.4672C64.0884 40.3458 64.2344 40.0982 64.2796 39.8822C64.2796 39.8822 64.4558 39.767 63.8259 39.6238C63.1959 39.4807 62.2564 39.2548 62.0543 38.7218C61.8574 38.2021 62.3494 36.8856 63.1654 37.9231C63.1727 37.9322 63.1819 37.9395 63.1924 37.9446C63.2029 37.9496 63.2144 37.9522 63.226 37.9522C63.2376 37.9522 63.2491 37.9496 63.2596 37.9446C63.2701 37.9395 63.2793 37.9322 63.2866 37.9231C63.4158 37.7502 63.7605 37.3903 64.2445 37.6019C64.6972 37.7998 64.7509 38.1298 64.7465 38.2962C64.746 38.3077 64.7481 38.3191 64.7527 38.3297C64.7573 38.3402 64.7642 38.3496 64.773 38.3571C64.7817 38.3645 64.792 38.3699 64.8032 38.3728C64.8143 38.3757 64.826 38.376 64.8372 38.3737C65.0649 38.3282 65.6124 38.2856 65.8721 38.8442C66.0868 39.3044 65.9527 39.5677 65.8294 39.6969C65.8206 39.7065 65.8144 39.7182 65.8113 39.7309C65.8082 39.7436 65.8083 39.7568 65.8117 39.7694C65.8151 39.782 65.8216 39.7935 65.8306 39.803C65.8396 39.8124 65.8509 39.8194 65.8633 39.8233C66.0134 39.8677 66.208 39.9931 66.192 40.3442C66.17 40.8297 65.6271 40.792 65.4723 40.7713C65.4598 40.7698 65.4471 40.7714 65.4353 40.7759C65.4235 40.7804 65.413 40.7877 65.4047 40.7972C65.2736 40.945 64.683 41.5724 64.0377 41.654C64.0249 41.6554 64.0119 41.6535 64 41.6486C63.988 41.6436 63.9775 41.6358 63.9694 41.6257C63.9612 41.6157 63.9557 41.6038 63.9533 41.5911C63.951 41.5784 63.9518 41.5653 63.9558 41.553L64.2277 40.7377C64.2336 40.7195 64.2325 40.6997 64.2247 40.6822C64.2169 40.6647 64.2028 40.6507 64.1853 40.6429L64.0452 40.5791Z" fill="url(#paint35_linear_53_2410)"/>
<path d="M63.9339 40.6954C63.9339 40.6954 64.6316 40.207 64.6869 40.6122C64.7422 41.0173 64.06 41.2065 63.72 41.0577L63.9339 40.6954Z" fill="url(#paint36_linear_53_2410)"/>
<path d="M64.8759 52.2096L63.255 46.5485C63.246 46.5171 63.228 46.4891 63.2031 46.4679C63.1782 46.4468 63.1476 46.4335 63.1152 46.4297C62.8217 46.3955 61.9705 46.2992 60.9879 46.2162C59.8044 46.116 58.4298 46.0353 57.6086 46.1038C57.5816 46.106 57.5556 46.1147 57.5328 46.1292C57.5099 46.1437 57.491 46.1636 57.4776 46.1872C57.4643 46.2107 57.4569 46.2371 57.4561 46.2642C57.4553 46.2912 57.4612 46.3181 57.4732 46.3423C57.9401 47.2873 59.8615 51.1311 60.8235 52.3903C60.8392 52.4108 60.8594 52.4275 60.8826 52.4389C60.9057 52.4503 60.9313 52.4561 60.9571 52.4559L64.7183 52.4207C64.7438 52.4205 64.7689 52.4144 64.7917 52.4029C64.8144 52.3914 64.8342 52.3748 64.8495 52.3543C64.8647 52.3339 64.8751 52.3102 64.8797 52.2851C64.8842 52.26 64.883 52.2342 64.8759 52.2096Z" fill="url(#paint37_linear_53_2410)"/>
<path d="M64.4845 50.842C64.4845 50.842 64.7104 49.9133 64.6191 49.5838C64.5279 49.2544 64.3515 48.8309 63.7633 48.9252C63.1752 49.0195 62.4812 49.267 62.4812 49.267C62.4812 49.267 62.5161 49.6962 62.9634 49.5577L62.6861 49.7722C62.6861 49.7722 62.7256 50.1159 63.1034 49.9321L62.845 50.2164C62.845 50.2164 63.007 50.4985 63.2843 50.3177C63.5615 50.1368 63.6964 50.9551 64.4845 50.842Z" fill="url(#paint38_linear_53_2410)"/>
<path d="M61.0962 47.9061C61.0962 48.0002 61.0683 48.0922 61.016 48.1705C60.9637 48.2488 60.8894 48.3098 60.8024 48.3458C60.7154 48.3818 60.6197 48.3913 60.5274 48.3729C60.4351 48.3545 60.3503 48.3092 60.2837 48.2426C60.2171 48.1761 60.1718 48.0913 60.1534 47.9989C60.1351 47.9066 60.1445 47.8109 60.1805 47.7239C60.2165 47.637 60.2775 47.5626 60.3558 47.5103C60.4341 47.458 60.5261 47.4301 60.6202 47.4301C60.6827 47.4301 60.7446 47.4424 60.8024 47.4663C60.8601 47.4903 60.9126 47.5253 60.9568 47.5695C61.001 47.6137 61.0361 47.6662 61.06 47.7239C61.0839 47.7817 61.0962 47.8436 61.0962 47.9061Z" fill="url(#paint39_linear_53_2410)"/>
<path d="M63.0722 48.2195L63.1926 48.1841L62.8624 47.0645C62.8369 46.9758 62.7877 46.8957 62.7202 46.8328C62.6526 46.7699 62.5692 46.7266 62.4789 46.7074C61.4327 46.4891 58.6774 46.4444 58.5606 46.4426L58.5588 46.5681C58.5873 46.5681 61.4187 46.6144 62.4531 46.8304C62.5212 46.845 62.584 46.8777 62.6349 46.9253C62.6858 46.9728 62.7228 47.0332 62.742 47.1002L63.0722 48.2195Z" fill="white"/>
<defs>
<linearGradient id="paint0_linear_53_2410" x1="75.328" y1="79.1572" x2="23.8517" y2="23.5955" gradientUnits="userSpaceOnUse">
<stop stop-color="#B37CFF"/>
<stop offset="1" stop-color="#F895E7"/>
</linearGradient>
<linearGradient id="paint1_linear_53_2410" x1="38.4631" y1="73.0082" x2="37.7228" y2="58.3483" gradientUnits="userSpaceOnUse">
<stop stop-color="#2B3582"/>
<stop offset="1" stop-color="#150E42"/>
</linearGradient>
<linearGradient id="paint2_linear_53_2410" x1="1.11383e-07" y1="38.96" x2="72.7836" y2="38.96" gradientUnits="userSpaceOnUse">
<stop stop-color="#2B3582"/>
<stop offset="1" stop-color="#150E42"/>
</linearGradient>
<linearGradient id="paint3_linear_53_2410" x1="55.5827" y1="12.6902" x2="-42.1301" y2="136.853" gradientUnits="userSpaceOnUse">
<stop stop-color="#FDF53F"/>
<stop offset="1" stop-color="#D93C65"/>
</linearGradient>
<linearGradient id="paint4_linear_53_2410" x1="38.5959" y1="67.3996" x2="29.8904" y2="86.5139" gradientUnits="userSpaceOnUse">
<stop stop-color="#2B3582"/>
<stop offset="1" stop-color="#150E42"/>
</linearGradient>
<linearGradient id="paint5_linear_53_2410" x1="68.6253" y1="-46.5755" x2="11.3528" y2="86.332" gradientUnits="userSpaceOnUse">
<stop stop-color="#53D8FF"/>
<stop offset="1" stop-color="#3840F7"/>
</linearGradient>
<linearGradient id="paint6_linear_53_2410" x1="3.23485" y1="55.0938" x2="13.0747" y2="41.8938" gradientUnits="userSpaceOnUse">
<stop stop-color="#2B3582"/>
<stop offset="1" stop-color="#150E42"/>
</linearGradient>
<linearGradient id="paint7_linear_53_2410" x1="19.8062" y1="23.1722" x2="37.7172" y2="55.0719" gradientUnits="userSpaceOnUse">
<stop stop-color="#CB236D"/>
<stop offset="1" stop-color="#4C246D"/>
</linearGradient>
<linearGradient id="paint8_linear_53_2410" x1="77.5942" y1="19.7229" x2="57.8558" y2="26.7101" gradientUnits="userSpaceOnUse">
<stop stop-color="#A737D5"/>
<stop offset="1" stop-color="#EF497A"/>
</linearGradient>
<linearGradient id="paint9_linear_53_2410" x1="20.6649" y1="55.8064" x2="45.1571" y2="25.222" gradientUnits="userSpaceOnUse">
<stop stop-color="#CB236D"/>
<stop offset="1" stop-color="#4C246D"/>
</linearGradient>
<linearGradient id="paint10_linear_53_2410" x1="44.7775" y1="29.6411" x2="30.2225" y2="38.1412" gradientUnits="userSpaceOnUse">
<stop stop-color="#2B3582"/>
<stop offset="1" stop-color="#150E42"/>
</linearGradient>
<linearGradient id="paint11_linear_53_2410" x1="7.37834" y1="40.0574" x2="6.65846" y2="21.9376" gradientUnits="userSpaceOnUse">
<stop stop-color="#2B3582"/>
<stop offset="1" stop-color="#150E42"/>
</linearGradient>
<linearGradient id="paint12_linear_53_2410" x1="26.2791" y1="21.0053" x2="35.9536" y2="-8.89769" gradientUnits="userSpaceOnUse">
<stop stop-color="#CB236D"/>
<stop offset="1" stop-color="#4C246D"/>
</linearGradient>
<linearGradient id="paint13_linear_53_2410" x1="29.7994" y1="22.1443" x2="39.4739" y2="-7.75869" gradientUnits="userSpaceOnUse">
<stop stop-color="#CB236D"/>
<stop offset="1" stop-color="#4C246D"/>
</linearGradient>
<linearGradient id="paint14_linear_53_2410" x1="33.2541" y1="23.2619" x2="42.9286" y2="-6.64118" gradientUnits="userSpaceOnUse">
<stop stop-color="#CB236D"/>
<stop offset="1" stop-color="#4C246D"/>
</linearGradient>
<linearGradient id="paint15_linear_53_2410" x1="37.6274" y1="24.6768" x2="47.3019" y2="-5.22623" gradientUnits="userSpaceOnUse">
<stop stop-color="#CB236D"/>
<stop offset="1" stop-color="#4C246D"/>
</linearGradient>
<linearGradient id="paint16_linear_53_2410" x1="53.3522" y1="15.6716" x2="44.3813" y2="27.9846" gradientUnits="userSpaceOnUse">
<stop stop-color="#A737D5"/>
<stop offset="1" stop-color="#EF497A"/>
</linearGradient>
<linearGradient id="paint17_linear_53_2410" x1="72.2747" y1="18.162" x2="59.7858" y2="31.2666" gradientUnits="userSpaceOnUse">
<stop stop-color="#A737D5"/>
<stop offset="1" stop-color="#EF497A"/>
</linearGradient>
<linearGradient id="paint18_linear_53_2410" x1="49.8682" y1="33.5392" x2="43.3598" y2="45.9403" gradientUnits="userSpaceOnUse">
<stop stop-color="#A737D5"/>
<stop offset="1" stop-color="#EF497A"/>
</linearGradient>
<linearGradient id="paint19_linear_53_2410" x1="66.436" y1="7.20045" x2="55.7941" y2="19.4255" gradientUnits="userSpaceOnUse">
<stop stop-color="#A737D5"/>
<stop offset="1" stop-color="#EF497A"/>
</linearGradient>
<linearGradient id="paint20_linear_53_2410" x1="56.9923" y1="26.3559" x2="53.0348" y2="36.0304" gradientUnits="userSpaceOnUse">
<stop stop-color="#A737D5"/>
<stop offset="1" stop-color="#EF497A"/>
</linearGradient>
<linearGradient id="paint21_linear_53_2410" x1="59.5599" y1="69.489" x2="71.7192" y2="82.4524" gradientUnits="userSpaceOnUse">
<stop stop-color="#2B3582"/>
<stop offset="1" stop-color="#150E42"/>
</linearGradient>
<linearGradient id="paint22_linear_53_2410" x1="63.474" y1="70.4217" x2="62.4056" y2="70.4324" gradientUnits="userSpaceOnUse">
<stop stop-color="#F9B776"/>
<stop offset="1" stop-color="#F47960"/>
</linearGradient>
<linearGradient id="paint23_linear_53_2410" x1="59.7718" y1="101.127" x2="64.3255" y2="57.8677" gradientUnits="userSpaceOnUse">
<stop stop-color="#8D55D1"/>
<stop offset="1" stop-color="#1C2873"/>
</linearGradient>
<linearGradient id="paint24_linear_53_2410" x1="62.2335" y1="66.9809" x2="74.3933" y2="79.9446" gradientUnits="userSpaceOnUse">
<stop stop-color="#2B3582"/>
<stop offset="1" stop-color="#150E42"/>
</linearGradient>
<linearGradient id="paint25_linear_53_2410" x1="67.3239" y1="70.3283" x2="66.4015" y2="70.3375" gradientUnits="userSpaceOnUse">
<stop stop-color="#F9B776"/>
<stop offset="1" stop-color="#F47960"/>
</linearGradient>
<linearGradient id="paint26_linear_53_2410" x1="61.131" y1="101.27" x2="65.6844" y2="58.0108" gradientUnits="userSpaceOnUse">
<stop stop-color="#8D55D1"/>
<stop offset="1" stop-color="#1C2873"/>
</linearGradient>
<linearGradient id="paint27_linear_53_2410" x1="54.5508" y1="28.4331" x2="67.0637" y2="54.1292" gradientUnits="userSpaceOnUse">
<stop stop-color="#53D8FF"/>
<stop offset="1" stop-color="#3840F7"/>
</linearGradient>
<linearGradient id="paint28_linear_53_2410" x1="58.7973" y1="42.5909" x2="53.3385" y2="42.6455" gradientUnits="userSpaceOnUse">
<stop stop-color="#F9B776"/>
<stop offset="1" stop-color="#F47960"/>
</linearGradient>
<linearGradient id="paint29_linear_53_2410" x1="54.5158" y1="41.574" x2="58.2572" y2="49.8728" gradientUnits="userSpaceOnUse">
<stop stop-color="#F9B776"/>
<stop offset="1" stop-color="#F47960"/>
</linearGradient>
<linearGradient id="paint30_linear_53_2410" x1="53.3277" y1="38.9551" x2="51.7758" y2="36.6203" gradientUnits="userSpaceOnUse">
<stop stop-color="#F9B776"/>
<stop offset="1" stop-color="#F47960"/>
</linearGradient>
<linearGradient id="paint31_linear_53_2410" x1="58.4192" y1="26.5494" x2="70.9321" y2="52.2453" gradientUnits="userSpaceOnUse">
<stop stop-color="#53D8FF"/>
<stop offset="1" stop-color="#3840F7"/>
</linearGradient>
<linearGradient id="paint32_linear_53_2410" x1="70.8194" y1="50.2031" x2="63.9115" y2="50.2721" gradientUnits="userSpaceOnUse">
<stop stop-color="#F9B776"/>
<stop offset="1" stop-color="#F47960"/>
</linearGradient>
<linearGradient id="paint33_linear_53_2410" x1="65.441" y1="42.8712" x2="62.7098" y2="42.8985" gradientUnits="userSpaceOnUse">
<stop stop-color="#F9B776"/>
<stop offset="1" stop-color="#F47960"/>
</linearGradient>
<linearGradient id="paint34_linear_53_2410" x1="61.9713" y1="40.6175" x2="64.9585" y2="38.7664" gradientUnits="userSpaceOnUse">
<stop stop-color="#F9B776"/>
<stop offset="1" stop-color="#F47960"/>
</linearGradient>
<linearGradient id="paint35_linear_53_2410" x1="66.5331" y1="36.8264" x2="62.6788" y2="39.9148" gradientUnits="userSpaceOnUse">
<stop stop-color="#2B3582"/>
<stop offset="1" stop-color="#150E42"/>
</linearGradient>
<linearGradient id="paint36_linear_53_2410" x1="62.7643" y1="41.2943" x2="65.452" y2="39.629" gradientUnits="userSpaceOnUse">
<stop stop-color="#F9B776"/>
<stop offset="1" stop-color="#F47960"/>
</linearGradient>
<linearGradient id="paint37_linear_53_2410" x1="62.0289" y1="45.6803" x2="58.2171" y2="61.5627" gradientUnits="userSpaceOnUse">
<stop stop-color="#2B3582"/>
<stop offset="1" stop-color="#150E42"/>
</linearGradient>
<linearGradient id="paint38_linear_53_2410" x1="64.6408" y1="49.882" x2="62.4812" y2="49.882" gradientUnits="userSpaceOnUse">
<stop stop-color="#F9B776"/>
<stop offset="1" stop-color="#F47960"/>
</linearGradient>
<linearGradient id="paint39_linear_53_2410" x1="60.4926" y1="47.3743" x2="61.0621" y2="49.7479" gradientUnits="userSpaceOnUse">
<stop stop-color="#53D8FF"/>
<stop offset="1" stop-color="#3840F7"/>
</linearGradient>
</defs>
</svg>
