<svg width="100" height="70" viewBox="0 0 100 70" fill="none" xmlns="http://www.w3.org/2000/svg">
<mask id="mask0_64_36" style="mask-type:alpha" maskUnits="userSpaceOnUse" x="0" y="0" width="100" height="70">
<rect width="100" height="70" fill="#D9D9D9"/>
</mask>
<g mask="url(#mask0_64_36)">
<path d="M7.95742 62.9157C7.95742 62.9157 1.7394 54.5562 3.88604 43.4102C6.17974 31.4953 21.0411 29.8673 28.3814 18.3833C35.7218 6.89932 48.0056 2.46414 60.7797 4.5566C76.4744 7.13669 78.3114 28.3502 83.9695 33.9155C89.6277 39.4807 99.2462 53.7822 88.0564 62.926L7.95742 62.9157Z" fill="#D8DCE5"/>
<path d="M87.7029 63.0446H8.22059C8.16988 63.0423 8.12036 63.0285 8.07569 63.0044C8.03103 62.9803 7.99237 62.9464 7.96258 62.9053L7.87744 62.7866H88.2138L88.0383 62.9259C87.9435 63.0029 87.825 63.0448 87.7029 63.0446Z" fill="#A6AAAD"/>
<path d="M44.1613 6.2334H3.29005C2.57757 6.2334 2 6.81097 2 7.52344V67.7067C2 68.4192 2.57757 68.9967 3.29005 68.9967H44.1613C44.8738 68.9967 45.4513 68.4192 45.4513 67.7067V7.52344C45.4513 6.81097 44.8738 6.2334 44.1613 6.2334Z" fill="#F0F0F0"/>
<path d="M28.3041 16.9385H4.24731V51.9168H28.3041V16.9385Z" fill="white"/>
<path d="M44.1639 6.2334H3.29005C2.9479 6.2334 2.61978 6.36931 2.37785 6.61124C2.13592 6.85317 2 7.1813 2 7.52344V14.9464H45.4539V7.52344C45.4539 7.1813 45.318 6.85317 45.0761 6.61124C44.8341 6.36931 44.506 6.2334 44.1639 6.2334Z" fill="#6695FF"/>
<path d="M8.1819 20.2875H6.81445V19.7896H10.1686V20.2875H8.77532V24.315H8.1819V20.2875Z" fill="#6695FF"/>
<path d="M25.7677 20.3828H11.5669V21.1052H25.7677V20.3828Z" fill="#455A64"/>
<path d="M21.1339 21.8691H11.5669V22.5916H21.1339V21.8691Z" fill="#455A64"/>
<path d="M25.7677 23.4248H11.5669V24.1472H25.7677V23.4248Z" fill="#455A64"/>
<path d="M25.7703 24.9883H6.78345V25.7107H25.7703V24.9883Z" fill="#455A64"/>
<path d="M22.9787 26.5259H6.78345V27.2483H22.9787V26.5259Z" fill="#455A64"/>
<path d="M24.5061 28.064H6.78345V28.7864H24.5061V28.064Z" fill="#455A64"/>
<path d="M25.7703 39.0884H6.78345V39.8108H25.7703V39.0884Z" fill="#455A64"/>
<path d="M22.9787 40.6289H6.78345V41.3513H22.9787V40.6289Z" fill="#455A64"/>
<path d="M24.5061 42.1665H6.78345V42.8889H24.5061V42.1665Z" fill="#455A64"/>
<path d="M22.9787 45.1777H6.78345V45.9002H22.9787V45.1777Z" fill="#455A64"/>
<path d="M24.5061 46.7153H6.78345V47.4378H24.5061V46.7153Z" fill="#455A64"/>
<path d="M25.7677 29.8569H6.80664V37.8888H25.7677V29.8569Z" fill="#6695FF"/>
<path d="M43.7279 16.9385H29.8547V20.3855H43.7279V16.9385Z" fill="#6695FF"/>
<path d="M43.7279 42.6104H29.8547V46.0574H43.7279V42.6104Z" fill="#6695FF"/>
<path d="M43.7305 53.3564H4.24731V56.8034H43.7305V53.3564Z" fill="#6695FF"/>
<path d="M43.7279 21.126H29.8547V41.6093H43.7279V21.126Z" fill="#AFAFAF"/>
<path d="M4.24731 56.8032H43.7227V63.9011C43.7227 64.5101 43.4808 65.0941 43.0502 65.5248C42.6195 65.9554 42.0355 66.1973 41.4264 66.1973H6.5436C5.93458 66.1973 5.35052 65.9554 4.91988 65.5248C4.48924 65.0941 4.24731 64.5101 4.24731 63.9011V56.8032Z" fill="#AFAFAF"/>
<path d="M5.65601 9.5774C5.84906 9.54095 6.04524 9.52367 6.24169 9.5258C6.48375 9.5036 6.72588 9.56756 6.92541 9.70641C6.99311 9.75702 7.04733 9.82349 7.08332 9.89997C7.11931 9.97645 7.13597 10.0606 7.13182 10.145C7.12825 10.2689 7.08567 10.3884 7.01015 10.4866C6.93463 10.5849 6.83003 10.6567 6.71126 10.692C6.85588 10.721 6.98611 10.7989 7.08007 10.9126C7.17404 11.0263 7.22602 11.1689 7.22728 11.3164C7.22884 11.4096 7.21082 11.502 7.17437 11.5878C7.13793 11.6736 7.08387 11.7508 7.01571 11.8143C6.76788 11.9953 6.46179 12.078 6.15654 12.0465C5.99014 12.0471 5.82385 12.0377 5.65858 12.0182L5.65601 9.5774ZM5.97594 10.6094H6.26749C6.60806 10.6094 6.80673 10.4314 6.80673 10.1915C6.80673 9.89991 6.58484 9.78639 6.25975 9.78639C6.1647 9.7841 6.06965 9.79101 5.97594 9.80703V10.6094ZM5.97594 11.8014C6.06146 11.8128 6.14768 11.8179 6.23395 11.8169C6.56678 11.8169 6.87123 11.6957 6.87123 11.3319C6.87123 10.9681 6.57968 10.852 6.22879 10.852H5.97078L5.97594 11.8014Z" fill="white"/>
<path d="M7.65552 9.54395H7.97803V11.7628H9.04103V12.0337H7.65552V9.54395Z" fill="white"/>
<path d="M11.3811 10.7615C11.3811 11.6181 10.8651 12.0722 10.2252 12.0722C9.58537 12.0722 9.10547 11.5562 9.10547 10.8106C9.10547 10.0649 9.59827 9.50244 10.2614 9.50244C10.9244 9.50244 11.3811 10.0236 11.3811 10.7615ZM9.44862 10.8028C9.44862 11.3343 9.73759 11.8116 10.2433 11.8116C10.749 11.8116 11.0405 11.342 11.0405 10.7796C11.0405 10.2842 10.7825 9.76819 10.2484 9.76819C9.71437 9.76819 9.44862 10.2558 9.44862 10.8028Z" fill="white"/>
<path d="M13.6905 11.9303C13.4422 12.0198 13.1804 12.0661 12.9164 12.0671C12.7455 12.085 12.5727 12.0651 12.4104 12.0088C12.248 11.9525 12.1 11.8611 11.9769 11.7412C11.8538 11.6213 11.7585 11.4758 11.698 11.3149C11.6374 11.1541 11.613 10.9819 11.6264 10.8105C11.6264 10.0675 12.1424 9.5205 12.9732 9.5205C13.1861 9.51518 13.3977 9.55383 13.595 9.63403L13.5176 9.89204C13.3446 9.8161 13.1569 9.77911 12.968 9.78367C12.8339 9.7732 12.6991 9.79191 12.5729 9.83852C12.4467 9.88513 12.3321 9.95852 12.2369 10.0537C12.1418 10.1488 12.0684 10.2634 12.0218 10.3896C11.9752 10.5158 11.9565 10.6506 11.967 10.7847C11.9533 10.9163 11.9684 11.0492 12.0111 11.1743C12.0539 11.2994 12.1233 11.4138 12.2145 11.5095C12.3058 11.6052 12.4167 11.6799 12.5397 11.7285C12.6627 11.7771 12.7947 11.7984 12.9268 11.791C13.0726 11.7981 13.2184 11.7753 13.355 11.7239V10.9808H12.839V10.7228H13.6569L13.6905 11.9303Z" fill="white"/>
<path d="M94.4034 29.5088V28.8148C94.7156 28.7477 95.3039 28.5877 95.229 28.3478C95.1258 28.0201 94.4112 28.1078 94.4112 28.1078C94.4112 28.1078 95.3477 28.0021 95.2161 27.6125C95.1233 27.339 94.6666 27.2848 94.4034 27.2745V27.1867C95.0407 27.0758 95.2342 26.6888 95.1233 26.4127C95.0123 26.1366 94.4034 26.1908 94.4034 26.1908C94.4034 26.1908 93.6294 29.3437 93.6294 29.4263C93.6294 29.5088 94.0732 30.5589 94.4034 30.5047C94.7337 30.4506 95.4355 30.0068 95.1516 29.6198C94.8678 29.2328 94.4034 29.5088 94.4034 29.5088Z" fill="#DD8762"/>
<path d="M90.3502 33.0304C90.3495 33.0515 90.3531 33.0725 90.3607 33.0922C90.3683 33.1119 90.3797 33.1299 90.3944 33.145C90.4091 33.1602 90.4267 33.1723 90.4461 33.1805C90.4656 33.1887 90.4865 33.193 90.5076 33.193H94.1197C94.2162 33.1923 94.3086 33.1538 94.3771 33.0858C94.4456 33.0178 94.4847 32.9257 94.4861 32.8292L94.5661 23.8685C94.5678 23.7813 94.5474 23.6951 94.5068 23.618C94.4662 23.5408 94.4067 23.4752 94.3338 23.4273C94.3029 23.4062 94.2653 23.397 94.2281 23.4015L90.6675 23.7756C90.6287 23.7794 90.5926 23.7972 90.566 23.8257C90.5394 23.8542 90.5241 23.8914 90.5231 23.9304L90.3502 33.0304Z" fill="#455A64"/>
<path d="M93.7273 24.2529V32.3467C93.7273 32.3898 93.7102 32.4311 93.6797 32.4616C93.6492 32.4921 93.6079 32.5092 93.5648 32.5092L91.0234 32.4782C90.98 32.4776 90.9387 32.4599 90.9083 32.429C90.8779 32.3981 90.8608 32.3565 90.8608 32.3131L90.9408 24.449C90.9412 24.4086 90.9564 24.3698 90.9835 24.3398C91.0106 24.3098 91.0477 24.2909 91.0879 24.2864L93.5467 24.0904C93.5695 24.0878 93.5926 24.0901 93.6145 24.0971C93.6363 24.1042 93.6565 24.1157 93.6735 24.1311C93.6906 24.1464 93.7042 24.1652 93.7135 24.1862C93.7227 24.2072 93.7275 24.23 93.7273 24.2529Z" fill="#9FC2FF"/>
<path d="M94.3338 23.4327C94.3029 23.4116 94.2653 23.4024 94.2281 23.4069H94.1945L94.0913 33.1906H94.1171C94.2136 33.1906 94.3063 33.1528 94.3753 33.0853C94.4443 33.0177 94.484 32.9259 94.4861 32.8294L94.566 23.8687C94.5669 23.7824 94.5461 23.6973 94.5055 23.6211C94.4649 23.5449 94.4059 23.4801 94.3338 23.4327Z" fill="#263238"/>
<path d="M91.1422 24.0102C91.1379 24.029 91.1283 24.0462 91.1147 24.0599C91.1011 24.0735 91.0839 24.0831 91.0651 24.0875C91.0463 24.0919 91.0266 24.0909 91.0084 24.0846C90.9901 24.0784 90.9739 24.0672 90.9617 24.0522C90.9495 24.0373 90.9418 24.0192 90.9393 24C90.9369 23.9809 90.9398 23.9615 90.9479 23.9439C90.9559 23.9264 90.9687 23.9114 90.9849 23.9008C91.001 23.8902 91.0197 23.8843 91.039 23.8838C91.0694 23.887 91.0973 23.9021 91.1166 23.9258C91.1359 23.9495 91.1451 23.9798 91.1422 24.0102Z" fill="#263238"/>
<path d="M91.5861 24.0568C91.5631 24.053 91.5423 24.0412 91.5272 24.0235C91.5122 24.0058 91.5039 23.9833 91.5039 23.96C91.5039 23.9368 91.5122 23.9143 91.5272 23.8965C91.5423 23.8788 91.5631 23.867 91.5861 23.8633L93.0077 23.7446C93.0214 23.7415 93.0356 23.7414 93.0494 23.7443C93.0631 23.7472 93.0761 23.753 93.0874 23.7613C93.0987 23.7696 93.1081 23.7803 93.1149 23.7925C93.1218 23.8048 93.1259 23.8184 93.127 23.8324C93.1281 23.8464 93.1262 23.8605 93.1214 23.8737C93.1166 23.8869 93.109 23.8989 93.0992 23.9089C93.0894 23.9189 93.0775 23.9267 93.0644 23.9318C93.0513 23.9368 93.0372 23.939 93.0232 23.9381L91.6016 24.0568H91.5861Z" fill="#263238"/>
<path d="M91.1395 33.193C91.5704 32.3519 91.4311 31.5108 91.4466 31.0876C91.462 30.6645 92.2619 29.6866 92.3677 28.7784C92.4734 27.8702 91.9239 27.4884 91.6143 28.0767C91.2753 28.6338 90.8932 29.1635 90.4713 29.6608V26.9595C90.3301 27.1176 90.1765 27.2643 90.012 27.3981C89.6638 27.6873 89.3824 28.0485 89.1873 28.457C88.9922 28.8655 88.888 29.3114 88.882 29.764C88.9078 31.0825 88.6239 33.6858 88.3943 34.3876C88.2468 34.8197 88.0269 35.2236 87.7441 35.5821L90.0662 36.7251C90.5501 36.505 91.0108 36.237 91.4414 35.9253C91.8207 35.5873 91.9987 34.2095 91.9987 34.2095L92.3754 33.1981L91.1395 33.193Z" fill="#FFBE9D"/>
<path d="M92.378 33.1929H91.137L92.1793 33.727L92.378 33.1929Z" fill="#DD8762"/>
<path d="M89.8727 31.1545C89.8402 30.8758 89.8793 30.5935 89.9862 30.334C90.0808 30.0681 90.249 29.8346 90.4713 29.6606C90.3655 29.9187 90.2597 30.156 90.1668 30.4037C90.0739 30.6514 89.9836 30.8965 89.8727 31.1545Z" fill="#DD8762"/>
<path d="M91.4544 31.5391C91.5774 32.0152 91.5476 32.5179 91.3693 32.9762C91.286 33.206 91.1742 33.4244 91.0364 33.6264C90.9001 33.8266 90.7379 34.0079 90.554 34.1656C90.6778 33.9566 90.7991 33.7554 90.9074 33.549C91.0149 33.3428 91.1088 33.13 91.1887 32.9117C91.2671 32.693 91.3292 32.4687 91.3744 32.2408C91.422 32.0098 91.4488 31.7749 91.4544 31.5391Z" fill="#DD8762"/>
<path d="M91.0415 36.8799L88.144 35.3086C88.0509 35.2572 87.9419 35.2427 87.8387 35.268C87.7354 35.2934 87.6454 35.3567 87.5867 35.4453L83.4586 41.5601C83.1077 42.1097 82.9426 42.1794 82.3982 41.8182L78.1591 39.6586C75.579 38.464 73.8529 37.2875 71.3373 37.2875H68.3186C68.3186 37.2875 68.1844 37.2875 67.9419 37.2875C65.5277 37.3409 63.1902 38.1457 61.2548 39.59C59.3194 41.0342 57.8826 43.046 57.1442 45.3451L51.8086 61.8758H56.4115L62.0283 45.8586L61.8761 61.8835H75.2074V44.5634L78.6596 46.0805C80.832 47.2131 84.2739 48.5754 86.1419 45.291C86.2244 45.149 86.3044 45.0046 86.3999 44.8678L91.1834 37.4862C91.2159 37.4377 91.2381 37.383 91.2486 37.3255C91.259 37.268 91.2576 37.209 91.2442 37.1522C91.2309 37.0953 91.2061 37.0418 91.1712 36.9949C91.1363 36.9481 91.0921 36.9089 91.0415 36.8799Z" fill="#3362CC"/>
<path d="M64.3506 32.6021V38.1673C64.3958 39.1904 64.834 40.1567 65.5739 40.8647C66.3139 41.5727 67.2985 41.9678 68.3226 41.9678C69.3468 41.9678 70.3314 41.5727 71.0713 40.8647C71.8113 40.1567 72.2495 39.1904 72.2947 38.1673V32.6021H64.3506Z" fill="#EB996E"/>
<path d="M58.9531 26.4772C58.9531 26.4772 57.2915 24.6892 57.2915 19.9263C57.2915 15.1635 61.3913 11.928 65.1556 11.621C68.92 11.314 69.5418 9.85365 70.3803 10.5451C71.2188 11.2366 68.7394 12.7717 68.7394 12.7717C68.7394 12.7717 75.8372 10.0833 76.6809 11.007C77.5246 11.9306 73.915 13.2336 73.915 13.2336C73.915 13.2336 78.2393 14.3378 79.0081 16.6419C79.777 18.9459 77.7568 19.0233 77.7568 19.0233C77.7568 19.0233 79.1836 22.7077 77.3956 27.7079C75.4476 33.1519 63.1561 33.753 62.9238 33.5982C62.6916 33.4434 58.9531 26.4772 58.9531 26.4772Z" fill="#263238"/>
<path d="M76.4899 25.3469H76.477C76.4615 25.6049 76.4512 25.7468 76.4512 25.7468L76.1287 28.3269C76.1192 28.4087 76.0839 28.4853 76.0279 28.5457C75.9719 28.606 75.8981 28.6469 75.8173 28.6625C75.7364 28.678 75.6527 28.6674 75.5784 28.6321C75.504 28.5968 75.4428 28.5387 75.4037 28.4663C74.9676 27.6458 74.5574 26.1648 75.1689 23.8479C74.8203 23.2854 74.5675 22.669 74.4207 22.0238L74.3329 21.6316C72.5888 22.0831 72.5062 21.6316 71.3478 21.1156C71.3478 21.1156 71.3271 21.1156 71.3349 21.1285C71.7683 21.5155 72.9397 22.6894 72.1089 23.3396C71.1852 24.0569 68.1897 21.629 67.604 21.2214C67.5991 21.2173 67.5929 21.2151 67.5866 21.215C67.5802 21.2149 67.5739 21.2169 67.5689 21.2208C67.5638 21.2247 67.5602 21.2302 67.5586 21.2363C67.557 21.2425 67.5576 21.2491 67.5602 21.2549C67.6969 21.6213 68.1201 22.8933 67.506 23.11C66.5643 23.4428 64.8434 20.8395 64.3531 20.0603C64.3476 20.0519 64.3394 20.0457 64.3299 20.0426C64.3203 20.0396 64.31 20.0399 64.3006 20.0435C64.2913 20.0471 64.2834 20.0538 64.2784 20.0625C64.2734 20.0712 64.2716 20.0814 64.2732 20.0913C64.366 20.6073 64.5002 21.7632 63.8526 22.047C63.2463 22.305 62.5858 21.0433 62.2658 20.3209C62.2543 20.2967 62.2352 20.2768 62.2114 20.2644C62.1876 20.252 62.1604 20.2476 62.1339 20.252C62.1074 20.2563 62.083 20.2692 62.0645 20.2886C62.0459 20.308 62.0342 20.3329 62.0311 20.3596C61.8837 21.406 61.5664 22.4213 61.0919 23.3654C61.8969 25.9636 61.4609 27.5942 60.9964 28.4688C60.9573 28.5413 60.8961 28.5994 60.8218 28.6347C60.7474 28.6699 60.6637 28.6806 60.5828 28.6651C60.502 28.6495 60.4282 28.6086 60.3722 28.5483C60.3162 28.4879 60.2809 28.4113 60.2714 28.3295L59.9489 25.7494C59.9489 25.7494 59.9489 25.5972 59.9231 25.3495C59.1252 25.355 58.3622 25.6772 57.8019 26.2452C57.2416 26.8133 56.9299 27.5807 56.9354 28.3785C56.9408 29.1764 57.263 29.9394 57.8311 30.4997C58.3992 31.0601 59.1665 31.3718 59.9644 31.3663H60.0753C60.7513 35.2545 64.1416 38.4719 68.2233 38.4719C72.305 38.4719 75.7055 35.2545 76.3738 31.3663H76.5002C76.9029 31.3781 77.3038 31.3089 77.6792 31.163C78.0547 31.0171 78.3971 30.7973 78.686 30.5166C78.975 30.236 79.2047 29.9002 79.3616 29.5292C79.5185 29.1582 79.5993 28.7594 79.5993 28.3566C79.5993 27.9538 79.5185 27.5551 79.3616 27.184C79.2047 26.813 78.975 26.4772 78.686 26.1966C78.3971 25.916 78.0547 25.6962 77.6792 25.5502C77.3038 25.4043 76.9029 25.3351 76.5002 25.3469H76.4899Z" fill="#FFBE9D"/>
<path d="M65.4832 32.1943C65.9464 32.6583 66.477 33.0497 67.057 33.3554C67.3398 33.4985 67.6411 33.6018 67.9523 33.6624C68.2778 33.7175 68.6079 33.7408 68.9379 33.7321C68.6219 33.883 68.2739 33.9547 67.9239 33.9411C67.565 33.9327 67.2125 33.8445 66.8919 33.6831C66.5768 33.525 66.2914 33.3138 66.0482 33.0587C65.8068 32.8089 65.6151 32.5156 65.4832 32.1943Z" fill="#263238"/>
<path d="M64.5699 27.4988C64.5699 27.6381 64.5286 27.7743 64.4512 27.8901C64.3738 28.006 64.2638 28.0962 64.1351 28.1495C64.0063 28.2029 63.8647 28.2168 63.7281 28.1896C63.5915 28.1625 63.4659 28.0954 63.3674 27.9969C63.2689 27.8984 63.2018 27.7728 63.1747 27.6362C63.1475 27.4996 63.1614 27.358 63.2148 27.2292C63.2681 27.1005 63.3583 26.9905 63.4742 26.9131C63.59 26.8357 63.7262 26.7944 63.8655 26.7944C64.0523 26.7944 64.2315 26.8686 64.3636 27.0007C64.4957 27.1328 64.5699 27.312 64.5699 27.4988Z" fill="#263238"/>
<path d="M63.1637 26.7944C63.1615 26.6411 63.1982 26.4896 63.2704 26.3543C63.3426 26.2189 63.4479 26.1041 63.5765 26.0204C63.8363 25.8484 64.1396 25.7536 64.4511 25.7469C64.6083 25.7383 64.7658 25.754 64.9181 25.7934C65.0752 25.837 65.2224 25.9106 65.3516 26.0101C65.4738 26.1041 65.5733 26.2243 65.643 26.3618C65.7126 26.4993 65.7506 26.6507 65.7541 26.8048C65.5874 26.6068 65.3796 26.4475 65.1452 26.3378C64.9301 26.2507 64.6981 26.2136 64.4666 26.2294C64.2255 26.2285 63.9859 26.2668 63.7571 26.3429C63.5168 26.4274 63.3091 26.5854 63.1637 26.7944Z" fill="#263238"/>
<path d="M62.8024 25.1199C63.7065 24.9678 64.6235 24.9064 65.5399 24.9367C65.6973 24.9367 65.7979 24.8129 65.7231 24.7123C65.5192 24.4542 65.0677 24.0982 64.175 24.155C63.143 24.222 62.7405 24.6271 62.5779 24.9109C62.5057 25.027 62.6424 25.1509 62.8024 25.1199Z" fill="#263238"/>
<path d="M70.5686 27.4988C70.5686 27.6381 70.6099 27.7743 70.6873 27.8901C70.7647 28.006 70.8747 28.0962 71.0034 28.1495C71.1321 28.2029 71.2738 28.2168 71.4104 28.1896C71.547 28.1625 71.6725 28.0954 71.771 27.9969C71.8695 27.8984 71.9366 27.7728 71.9638 27.6362C71.991 27.4996 71.977 27.358 71.9237 27.2292C71.8704 27.1005 71.7801 26.9905 71.6643 26.9131C71.5485 26.8357 71.4123 26.7944 71.273 26.7944C71.0862 26.7944 70.907 26.8686 70.7749 27.0007C70.6428 27.1328 70.5686 27.312 70.5686 27.4988Z" fill="#263238"/>
<path d="M73.1615 26.7944C73.1636 26.6411 73.1269 26.4896 73.0547 26.3543C72.9825 26.2189 72.8772 26.1041 72.7486 26.0204C72.4898 25.8484 72.1873 25.7535 71.8766 25.7469C71.7186 25.7383 71.5602 25.754 71.407 25.7934C71.251 25.8379 71.1048 25.9114 70.9761 26.0101C70.8535 26.1038 70.7534 26.2239 70.6833 26.3614C70.6132 26.4989 70.5748 26.6504 70.571 26.8048C70.739 26.607 70.9475 26.4477 71.1825 26.3378C71.3967 26.2509 71.6279 26.2138 71.8585 26.2294C72.1005 26.2285 72.3409 26.2668 72.5706 26.3429C72.8106 26.4267 73.0176 26.5849 73.1615 26.7944Z" fill="#263238"/>
<path d="M73.2156 25.1199C72.3124 24.9679 71.3962 24.9065 70.4807 24.9367C70.3207 24.9367 70.2227 24.8129 70.2975 24.7123C70.4988 24.4542 70.9503 24.0982 71.8456 24.155C72.8776 24.222 73.2801 24.6271 73.4427 24.9109C73.5175 25.027 73.3807 25.1509 73.2156 25.1199Z" fill="#263238"/>
<path d="M68.3936 26.9648C68.6516 27.4809 68.858 28.0356 69.0619 28.58C69.2657 29.1244 69.454 29.6739 69.6372 30.2261L69.7662 30.6415C69.823 30.815 69.823 31.002 69.7662 31.1756C69.7101 31.3467 69.6007 31.4953 69.454 31.5998C69.3073 31.7042 69.131 31.759 68.9509 31.7561C68.3678 31.7303 67.7873 31.6916 67.2068 31.6167C67.7873 31.5393 68.3704 31.5006 68.9483 31.4748C69.0322 31.4697 69.1136 31.4452 69.1863 31.4031C69.259 31.3611 69.321 31.3028 69.3673 31.2327C69.4135 31.1627 69.4429 31.0828 69.453 30.9995C69.4632 30.9161 69.4538 30.8315 69.4257 30.7524L69.2889 30.337C69.1135 29.7849 68.9406 29.2276 68.791 28.6651C68.6413 28.1027 68.4994 27.5402 68.3936 26.9648Z" fill="#263238"/>
<path d="M59.2393 26.5698C58.8488 26.7224 58.5085 26.9806 58.2563 27.3155C58.0217 27.6456 57.9012 28.0433 57.9131 28.4481C57.8988 28.853 58.0126 29.2521 58.2382 29.5885C58.488 29.9244 58.8388 30.1713 59.2393 30.2929C59.0186 30.2754 58.8036 30.2143 58.6065 30.1134C58.4095 30.0124 58.2343 29.8735 58.0912 29.7046C57.8065 29.3489 57.6574 28.9036 57.6706 28.4481C57.6562 27.9972 57.8081 27.5566 58.0973 27.2103C58.3866 26.864 58.793 26.636 59.2393 26.5698Z" fill="#DD8762"/>
<path d="M77.0833 30.2929C77.4737 30.1403 77.8141 29.8822 78.0663 29.5472C78.3006 29.217 78.421 28.8194 78.4094 28.4146C78.4238 28.0097 78.31 27.6106 78.0843 27.2742C77.8346 26.9383 77.4837 26.6914 77.0833 26.5698C77.3036 26.5867 77.5184 26.6469 77.7154 26.747C77.9124 26.847 78.0878 26.985 78.2314 27.1529C78.5161 27.5087 78.6651 27.954 78.6519 28.4094C78.6663 28.8604 78.5145 29.3009 78.2252 29.6473C77.936 29.9936 77.5296 30.2215 77.0833 30.2877V30.2929Z" fill="#DD8762"/>
<path d="M67.9833 21.5179C68.3987 21.794 68.8089 22.0726 69.2398 22.3229C69.6554 22.5792 70.0862 22.8101 70.5298 23.0143C70.7485 23.1114 70.9745 23.1907 71.2058 23.2517C71.414 23.3161 71.6355 23.325 71.8482 23.2775C71.9316 23.2514 72.0059 23.2022 72.0624 23.1356C72.1182 23.0661 72.1522 22.9818 72.1604 22.8931C72.1632 22.6803 72.106 22.4711 71.9953 22.2893C71.7601 21.87 71.4722 21.4824 71.1387 21.136C70.8136 20.7697 70.4576 20.4291 70.1067 20.0885C69.3817 19.4125 68.6334 18.7598 67.8723 18.1147C68.726 18.6351 69.5393 19.219 70.3053 19.8615C70.6934 20.1844 71.063 20.5289 71.4122 20.8935C71.7772 21.2582 72.0914 21.6704 72.3462 22.1191C72.4893 22.3688 72.5565 22.6548 72.5397 22.9421C72.523 23.1016 72.4593 23.2525 72.3565 23.3756C72.2529 23.5019 72.1121 23.5922 71.954 23.6336C71.6776 23.6911 71.3909 23.6741 71.1232 23.5845C70.8756 23.5089 70.6354 23.4104 70.406 23.2904C69.5232 22.8099 68.7084 22.2138 67.9833 21.5179Z" fill="#455A64"/>
<path d="M71.2651 20.9917C71.5745 21.1836 71.9053 21.3386 72.2507 21.4535C72.5834 21.5653 72.9319 21.6228 73.2828 21.6238C73.3687 21.6302 73.4549 21.6302 73.5408 21.6238C73.6275 21.6234 73.714 21.6139 73.7988 21.5954L74.0568 21.5542C74.1394 21.5284 74.2254 21.5051 74.3148 21.4845C74.4033 21.4667 74.4898 21.4399 74.5728 21.4045L74.8308 21.3168C75.0011 21.2497 75.1637 21.1671 75.3468 21.1052C75.2135 21.2401 75.0713 21.366 74.9211 21.4819C74.7633 21.5923 74.5958 21.6882 74.4206 21.7683C74.0644 21.9382 73.6748 22.0264 73.2802 22.0263C72.8846 22.024 72.495 21.9295 72.1424 21.7502C71.7901 21.5762 71.4882 21.3151 71.2651 20.9917Z" fill="#455A64"/>
<path d="M66.2158 19.2529C66.497 19.4791 66.7491 19.739 66.9666 20.027C67.1907 20.3088 67.3877 20.6111 67.5549 20.93C67.7256 21.2536 67.8448 21.6018 67.9084 21.962C67.9393 22.1491 67.9393 22.34 67.9084 22.5271C67.8764 22.7144 67.7861 22.8868 67.6504 23.0199C67.7475 22.6941 67.7321 22.345 67.6065 22.0291C67.4952 21.7097 67.3598 21.3992 67.2014 21.1003C66.8995 20.4862 66.5383 19.8954 66.2158 19.2529Z" fill="#455A64"/>
<path d="M71.1619 12.9003C71.4711 12.8664 71.7823 12.8543 72.0933 12.8642C72.4055 12.8822 72.7151 12.908 73.0247 12.9519C74.2653 13.1299 75.4596 13.547 76.5414 14.18C76.8123 14.3322 77.0574 14.5129 77.3154 14.696C77.5734 14.8792 77.803 15.0831 78.0378 15.2843C77.5201 14.9496 76.9853 14.6422 76.4356 14.3632C75.3414 13.8116 74.18 13.4049 72.9808 13.1531C72.3816 13.024 71.7736 12.9394 71.1619 12.9003Z" fill="#455A64"/>
<path d="M77.767 19.023C77.3214 19.1915 76.8475 19.2729 76.3712 19.2629C75.8956 19.2623 75.4214 19.2095 74.9573 19.1055C74.4956 19.0006 74.0447 18.8529 73.6105 18.6643C73.3912 18.574 73.1848 18.4605 72.9732 18.3547C72.7616 18.2489 72.5707 18.1122 72.3772 17.978C72.6068 18.0348 72.8287 18.1096 73.048 18.1793L73.7137 18.3805C73.9356 18.4373 74.1523 18.5147 74.3768 18.5637C74.6012 18.6127 74.818 18.6798 75.0399 18.7288C75.4871 18.8303 75.936 18.9086 76.3867 18.9636C76.8444 19.021 77.306 19.0409 77.767 19.023Z" fill="#455A64"/>
<path d="M63.161 21.8199C62.8829 21.594 62.6471 21.3206 62.4644 21.0124C62.2779 20.7083 62.1215 20.3869 61.9974 20.0526C61.8726 19.7165 61.7734 19.3715 61.7006 19.0205C61.6645 18.8477 61.6413 18.6722 61.6129 18.5045C61.5845 18.3368 61.5794 18.1536 61.5742 17.9756C61.6877 18.311 61.7909 18.6464 61.8967 18.9767C62.0025 19.3069 62.1109 19.6372 62.2399 19.9597C62.3689 20.2822 62.4979 20.6021 62.6424 20.9143C62.7895 21.2302 62.9629 21.5332 63.161 21.8199Z" fill="#455A64"/>
<path d="M82.7801 69.2704H52.9723C52.5111 69.27 52.0663 69.0994 51.723 68.7914C51.3798 68.4834 51.1622 68.0596 51.112 67.6011L49.4582 52.4818C49.4292 52.2202 49.4556 51.9555 49.5359 51.7049C49.6162 51.4542 49.7484 51.2234 49.924 51.0274C50.0995 50.8313 50.3145 50.6746 50.5548 50.5673C50.7951 50.46 51.0553 50.4046 51.3184 50.4048H84.4339C84.6972 50.4047 84.9575 50.4601 85.1979 50.5673C85.4383 50.6746 85.6534 50.8313 85.8292 51.0273C86.005 51.2232 86.1374 51.4541 86.218 51.7047C86.2986 51.9553 86.3254 52.2201 86.2968 52.4818L84.6429 67.6011C84.5921 68.0598 84.3741 68.4836 84.0304 68.7916C83.6867 69.0996 83.2416 69.27 82.7801 69.2704Z" fill="#455A64"/>
<path d="M86.2297 51.749C86.1151 51.3595 85.8769 51.0178 85.5512 50.7753C85.2255 50.5329 84.8297 50.4028 84.4237 50.4048H51.3185C50.9124 50.4028 50.5167 50.5329 50.191 50.7753C49.8652 51.0178 49.6271 51.3595 49.5125 51.749H86.2297Z" fill="#263238"/>
<path d="M69.5107 60.6944C69.5107 61.0166 69.4152 61.3314 69.2362 61.5992C69.0572 61.867 68.8027 62.0757 68.5051 62.1988C68.2075 62.3219 67.88 62.354 67.5641 62.291C67.2482 62.228 66.9581 62.0727 66.7306 61.8447C66.503 61.6168 66.3481 61.3265 66.2856 61.0105C66.2231 60.6945 66.2557 60.3671 66.3793 60.0696C66.5029 59.7722 66.712 59.5181 66.9801 59.3395C67.2481 59.1609 67.5632 59.0659 67.8853 59.0664C68.0989 59.0664 68.3105 59.1085 68.5079 59.1904C68.7053 59.2722 68.8846 59.3922 69.0355 59.5434C69.1865 59.6946 69.3062 59.8741 69.3877 60.0716C69.4693 60.2691 69.5111 60.4808 69.5107 60.6944Z" fill="#E0E0E0"/>
<path d="M65.4831 0H48.8157V9.45604H65.4831V0Z" fill="#6695FF"/>
<path d="M58.1413 6.89012C59.4056 6.34221 59.9863 4.87313 59.4384 3.60882C58.8905 2.34451 57.4215 1.76375 56.1571 2.31165C54.8928 2.85955 54.3121 4.32864 54.86 5.59294C55.4079 6.85725 56.877 7.43802 58.1413 6.89012Z" fill="#244A96"/>
<path d="M56.7004 4.06125V5.22229C56.704 5.26681 56.719 5.30963 56.7441 5.34659C56.7692 5.38354 56.8034 5.41336 56.8434 5.43312C56.8835 5.45288 56.928 5.46191 56.9726 5.45933C57.0171 5.45674 57.0603 5.44263 57.0978 5.41838L57.8718 4.82496C57.9001 4.80074 57.9229 4.77067 57.9385 4.73682C57.954 4.70297 57.9621 4.66614 57.9621 4.62887C57.9621 4.5916 57.954 4.55478 57.9385 4.52093C57.9229 4.48708 57.9001 4.45701 57.8718 4.43279L57.0978 3.86C57.0599 3.8356 57.0163 3.82153 56.9714 3.81919C56.9264 3.81686 56.8816 3.82634 56.8414 3.84669C56.8012 3.86704 56.7671 3.89755 56.7423 3.9352C56.7176 3.97284 56.7032 4.0163 56.7004 4.06125Z" fill="#F0F0F0"/>
<path d="M63.8346 8.31852H49.9666C49.9157 8.31784 49.8671 8.29715 49.8314 8.26094C49.7957 8.22472 49.7756 8.17589 49.7756 8.12501C49.7756 8.09994 49.7806 8.07511 49.7902 8.05195C49.7998 8.02878 49.8138 8.00774 49.8316 7.99001C49.8493 7.97228 49.8703 7.95821 49.8935 7.94862C49.9167 7.93902 49.9415 7.93408 49.9666 7.93408H63.8346C63.8596 7.93408 63.8845 7.93902 63.9076 7.94862C63.9308 7.95821 63.9518 7.97228 63.9696 7.99001C63.9873 8.00774 64.0014 8.02878 64.011 8.05195C64.0206 8.07511 64.0255 8.09994 64.0255 8.12501C64.0255 8.17589 64.0055 8.22472 63.9697 8.26094C63.934 8.29715 63.8854 8.31784 63.8346 8.31852Z" fill="#244A96"/>
<path d="M63.8346 7.93408H54.1721V8.31852H63.8346C63.8854 8.31784 63.934 8.29715 63.9697 8.26094C64.0055 8.22472 64.0255 8.17589 64.0255 8.12501C64.0255 8.09994 64.0206 8.07511 64.011 8.05195C64.0014 8.02878 63.9873 8.00774 63.9696 7.99001C63.9518 7.97228 63.9308 7.95821 63.9076 7.94862C63.8845 7.93902 63.8596 7.93408 63.8346 7.93408Z" fill="#F0F0F0"/>
<path d="M54.1515 7.93408H49.9666C49.9415 7.93408 49.9167 7.93902 49.8935 7.94862C49.8703 7.95821 49.8493 7.97228 49.8316 7.99001C49.8138 8.00774 49.7998 8.02878 49.7902 8.05195C49.7806 8.07511 49.7756 8.09994 49.7756 8.12501C49.7756 8.17589 49.7957 8.22472 49.8314 8.26094C49.8671 8.29715 49.9157 8.31784 49.9666 8.31852H54.1515V7.93408Z" fill="#244A96"/>
<path d="M54.6546 8.12478C54.6546 8.21918 54.6266 8.31147 54.5741 8.38996C54.5217 8.46846 54.4471 8.52964 54.3599 8.56576C54.2727 8.60189 54.1767 8.61134 54.0841 8.59293C53.9916 8.57451 53.9065 8.52905 53.8398 8.46229C53.773 8.39554 53.7275 8.31049 53.7091 8.2179C53.6907 8.12531 53.7002 8.02934 53.7363 7.94212C53.7724 7.8549 53.8336 7.78035 53.9121 7.7279C53.9906 7.67546 54.0829 7.64746 54.1773 7.64746C54.3039 7.64746 54.4253 7.69775 54.5148 7.78726C54.6043 7.87678 54.6546 7.99819 54.6546 8.12478Z" fill="#244A96"/>
<path d="M54.4043 8.125C54.4043 8.1699 54.391 8.2138 54.366 8.25114C54.3411 8.28848 54.3056 8.31758 54.2641 8.33476C54.2226 8.35195 54.177 8.35645 54.1329 8.34769C54.0889 8.33893 54.0485 8.3173 54.0167 8.28555C53.9849 8.25379 53.9633 8.21334 53.9546 8.16929C53.9458 8.12525 53.9503 8.0796 53.9675 8.03811C53.9847 7.99662 54.0138 7.96116 54.0511 7.93622C54.0884 7.91127 54.1323 7.89795 54.1772 7.89795C54.2375 7.89795 54.2952 7.92187 54.3378 7.96445C54.3804 8.00703 54.4043 8.06478 54.4043 8.125Z" fill="#8CB0FF"/>
<path d="M77.8752 58.1657V63.5839C77.8752 63.8093 77.9646 64.0255 78.1237 64.1851C78.2828 64.3447 78.4987 64.4347 78.7241 64.4354H88.6033C88.7895 64.435 88.9708 64.4957 89.1193 64.6082L91.2866 66.2672C91.4124 66.3636 91.5628 66.4228 91.7206 66.4381C91.8783 66.4534 92.0373 66.4243 92.1793 66.3539C92.3214 66.2835 92.4409 66.1748 92.5243 66.04C92.6078 65.9052 92.6518 65.7498 92.6514 65.5913V58.1657C92.6514 57.9406 92.562 57.7247 92.4028 57.5655C92.2436 57.4063 92.0277 57.3169 91.8026 57.3169H78.7241C78.499 57.3169 78.2831 57.4063 78.1239 57.5655C77.9647 57.7247 77.8752 57.9406 77.8752 58.1657Z" fill="#6695FF"/>
<path d="M82.9942 61.551C83.3063 61.551 83.5593 61.298 83.5593 60.9859C83.5593 60.6739 83.3063 60.4209 82.9942 60.4209C82.6822 60.4209 82.4292 60.6739 82.4292 60.9859C82.4292 61.298 82.6822 61.551 82.9942 61.551Z" fill="#F0F0F0"/>
<path d="M86.0234 60.9859C86.0234 61.0977 85.9903 61.2069 85.9282 61.2999C85.8661 61.3928 85.7778 61.4652 85.6746 61.508C85.5713 61.5507 85.4577 61.5619 85.3481 61.5401C85.2385 61.5183 85.1378 61.4645 85.0588 61.3855C84.9798 61.3065 84.926 61.2058 84.9042 61.0962C84.8824 60.9866 84.8936 60.873 84.9363 60.7697C84.9791 60.6665 85.0515 60.5782 85.1444 60.5161C85.2373 60.454 85.3466 60.4209 85.4584 60.4209C85.608 60.4216 85.7513 60.4813 85.8571 60.5871C85.963 60.693 86.0227 60.8363 86.0234 60.9859Z" fill="#F0F0F0"/>
<path d="M88.477 60.9859C88.4775 61.0983 88.4447 61.2083 88.3826 61.302C88.3206 61.3957 88.2321 61.4688 88.1284 61.5122C88.0247 61.5555 87.9105 61.5672 87.8003 61.5455C87.69 61.5239 87.5886 61.4701 87.509 61.3908C87.4293 61.3115 87.375 61.2104 87.3529 61.1002C87.3308 60.99 87.3419 60.8758 87.3848 60.7719C87.4276 60.668 87.5004 60.5792 87.5938 60.5167C87.6872 60.4543 87.797 60.4209 87.9094 60.4209C88.0593 60.4216 88.2029 60.4812 88.3091 60.587C88.4154 60.6927 88.4757 60.8361 88.477 60.9859Z" fill="#F0F0F0"/>
<path d="M98.3199 15.3772V21.0122C98.3192 21.2097 98.2405 21.399 98.1008 21.5387C97.9611 21.6784 97.7718 21.7571 97.5743 21.7578H86.3818C86.2188 21.7582 86.0603 21.8116 85.9303 21.91L83.5669 23.7161C83.4564 23.801 83.3243 23.8532 83.1856 23.8668C83.0469 23.8804 82.9072 23.8548 82.7823 23.793C82.6573 23.7312 82.5522 23.6357 82.4789 23.5172C82.4055 23.3987 82.3668 23.262 82.3672 23.1227V15.3824C82.3679 15.1844 82.447 14.9948 82.5873 14.855C82.7275 14.7152 82.9174 14.6368 83.1154 14.6368H97.5639C97.6622 14.6357 97.7597 14.6541 97.8509 14.6907C97.942 14.7274 98.0251 14.7817 98.0953 14.8504C98.1655 14.9192 98.2215 15.0011 98.26 15.0915C98.2985 15.1819 98.3189 15.279 98.3199 15.3772Z" fill="#6695FF"/>
<path d="M86.7252 18.1692C86.7252 18.4586 86.6395 18.7415 86.4789 18.9823C86.3183 19.223 86.09 19.4109 85.8229 19.5221C85.5557 19.6333 85.2615 19.6629 84.9775 19.6072C84.6936 19.5515 84.4324 19.4129 84.2271 19.209C84.0217 19.0051 83.8813 18.7449 83.8236 18.4613C83.7659 18.1777 83.7935 17.8834 83.9028 17.6155C84.0121 17.3475 84.1984 17.1179 84.438 16.9557C84.6776 16.7934 84.96 16.7057 85.2494 16.7037C85.4428 16.702 85.6346 16.7386 85.8138 16.8115C85.9929 16.8845 86.1558 16.9922 86.2931 17.1285C86.4303 17.2648 86.5392 17.4269 86.6133 17.6055C86.6875 17.7842 86.7255 17.9757 86.7252 18.1692Z" fill="#355EAF"/>
<path d="M87.7854 17.6994L88.0279 16.9873H88.4175L88.224 17.6994H87.7854ZM88.3324 17.6994L88.5749 16.9873H88.9645L88.7736 17.6994H88.3324Z" fill="white"/>
<path d="M95.1001 19.4929L95.34 18.7808H95.7296L95.5387 19.4929H95.1001ZM95.6471 19.4929L95.8896 18.7808H96.2792L96.0857 19.4929H95.6471Z" fill="white"/>
<path d="M96.7979 17.2324H89.2356V17.5704H96.7979V17.2324Z" fill="#244A96"/>
<path d="M96.3771 18.0527H87.7854V18.3907H96.3771V18.0527Z" fill="#244A96"/>
<path d="M94.8678 18.8711H87.7854V19.2091H94.8678V18.8711Z" fill="#244A96"/>
<path d="M51.6899 28.2832H33.2139V38.7661H51.6899V28.2832Z" fill="#6695FF"/>
<path d="M50.6759 29.2222H34.0859V37.7803H50.6759V29.2222Z" fill="#355EAF"/>
<path d="M34.0859 37.7804L38.7869 31.4721C38.907 31.3119 39.0628 31.1818 39.242 31.0922C39.4211 31.0027 39.6186 30.9561 39.8189 30.9561C40.0192 30.9561 40.2167 31.0027 40.3958 31.0922C40.575 31.1818 40.7308 31.3119 40.8509 31.4721L44.3005 36.0053L46.2021 34.2173C46.334 34.0939 46.4903 33.9996 46.661 33.9404C46.8317 33.8813 47.0129 33.8586 47.1928 33.8739C47.3728 33.8893 47.5476 33.9422 47.7058 34.0294C47.864 34.1165 48.0022 34.2359 48.1113 34.3798L50.6914 37.7907L34.0859 37.7804Z" fill="#244A96"/>
<path d="M45.8126 31.846C45.8131 32.1172 45.7331 32.3824 45.5828 32.6081C45.4324 32.8338 45.2185 33.0098 44.968 33.1138C44.7176 33.2178 44.4419 33.2452 44.1759 33.1924C43.9099 33.1396 43.6655 33.0091 43.4738 32.8173C43.282 32.6255 43.1515 32.3812 43.0987 32.1152C43.0459 31.8492 43.0733 31.5735 43.1773 31.3231C43.2813 31.0726 43.4573 30.8587 43.683 30.7083C43.9087 30.558 44.1739 30.478 44.4451 30.4785C44.8078 30.4785 45.1556 30.6226 45.4121 30.879C45.6685 31.1355 45.8126 31.4833 45.8126 31.846Z" fill="white"/>
</g>
</svg>
