<svg width="82" height="89" viewBox="0 0 82 89" fill="none" xmlns="http://www.w3.org/2000/svg">
<g style="mix-blend-mode:multiply" opacity="0.5">
<path d="M48.1785 15.9442L39.3255 8.39859C40.0224 8.08361 40.3987 7.43135 40.6635 6.87386C40.8148 6.52032 40.8624 6.13103 40.8007 5.75147C40.739 5.3719 40.5706 5.01773 40.3151 4.73031C39.7576 4.09198 39.3423 3.81881 38.3025 3.81881L38.5311 3.41463H39.2419V0.557495H36.2203V3.40906H37.0984L37.6865 4.70801C37.8801 4.65253 38.0828 4.63645 38.2827 4.66073C38.4826 4.68501 38.6756 4.74915 38.8503 4.84936C39.025 4.94957 39.1777 5.08381 39.2996 5.24412C39.4215 5.40444 39.5099 5.58758 39.5597 5.78269C39.6095 5.9778 39.6197 6.18093 39.5895 6.38003C39.5594 6.57914 39.4897 6.77018 39.3844 6.94184C39.2792 7.1135 39.1405 7.2623 38.9767 7.37942C38.8129 7.49654 38.6273 7.5796 38.4308 7.62368C38.151 7.48912 37.8315 7.46232 37.5332 7.54842C37.2948 7.45046 37.0854 7.2929 36.9253 7.09083C36.7653 6.88876 36.6597 6.64897 36.6189 6.39442H36.9478L36.2872 5.41602L35.6127 6.39442H36.0503C36.1478 7.05783 36.421 7.85225 37.1653 8.27595L27.4399 15.9442H26.9214V27.8076H49.2043V15.9442H48.1785ZM38.2635 8.57978L44.6579 15.9442H30.9576L37.943 8.5519C38.0433 8.56584 38.1492 8.5742 38.2635 8.57978ZM45.5109 15.9442L40.2147 9.83971L47.3506 15.9442H45.5109ZM35.2726 10.4725L30.1047 15.9442H28.2956L35.2726 10.4725Z" fill="#808080"/>
</g>
<path d="M27.4729 15.6598L38.0959 7.32808L37.9175 7.15526C37.8457 7.08746 37.7499 7.05086 37.6512 7.05348C37.5525 7.05609 37.4588 7.0977 37.3907 7.1692L26.6172 15.6598H27.4729Z" fill="#16131B"/>
<path d="M44.4124 15.6598L37.165 7.32808L37.3434 7.15526C37.4153 7.08746 37.511 7.05086 37.6097 7.05348C37.7085 7.05609 37.8021 7.0977 37.8703 7.1692L45.257 15.6598H44.4124Z" fill="#16131B"/>
<path d="M30.2245 15.6598L38.0962 7.32808L37.9178 7.15526C37.846 7.08746 37.7503 7.05086 37.6515 7.05348C37.5528 7.05609 37.4591 7.0977 37.391 7.1692L29.3604 15.6598H30.2245Z" fill="#16131B"/>
<path d="M37.8286 3.25575L38.1519 2.68433H36.5463L37.2125 4.15053C37.506 4.06563 37.8183 4.07204 38.108 4.16888C38.3977 4.26572 38.6511 4.44842 38.8345 4.69271C39.018 4.93699 39.1227 5.2313 39.1349 5.53654C39.147 5.84177 39.066 6.14348 38.9026 6.40158C38.7392 6.65969 38.5012 6.86197 38.2201 6.98155C37.939 7.10114 37.6282 7.13236 37.3289 7.07109C37.0296 7.00981 36.7561 6.85893 36.5446 6.63849C36.3331 6.41805 36.1937 6.13848 36.1449 5.83693H36.4739L35.8132 4.85854L35.1387 5.83693H35.5652C35.7045 6.79024 36.2063 8.01393 37.9122 8.01393C39.2418 8.01393 39.816 7.0662 40.1812 6.29686C40.3325 5.94332 40.38 5.55404 40.3183 5.17447C40.2566 4.79491 40.0882 4.44073 39.8327 4.15331C39.2892 3.52892 38.8683 3.25575 37.8286 3.25575Z" fill="white"/>
<path d="M38.7705 0H35.7461V2.85156H38.7705V0Z" fill="#16131B"/>
<path d="M38.7705 2.12122H35.7461V2.85153H38.7705V2.12122Z" fill="#D4D6DF"/>
<path d="M48.0361 15.6598L37.965 7.08007C37.6844 6.94506 37.3639 6.91826 37.0647 7.00481L47.1999 15.6598H48.0361Z" fill="#16131B"/>
<path d="M48.7303 15.3867H26.4502V27.2501H48.7303V15.3867Z" fill="#A14B07"/>
<path d="M48.73 15.3867H30.1768V27.2501H48.73V15.3867Z" fill="#CD8555"/>
<path d="M47.6041 16.7524H31.3003V25.8869H47.6041V16.7524Z" fill="#B75F22"/>
<g style="mix-blend-mode:multiply" opacity="0.75">
<path d="M31.3003 16.7496V17.1259H47.2696V25.8869H47.6041V16.7496H31.3003Z" fill="#AF8555"/>
</g>
<path d="M33.6223 16.7496H32.7944V25.8841H33.6223V16.7496Z" fill="#CD8555"/>
<path d="M36.1199 16.7496H35.292V25.8841H36.1199V16.7496Z" fill="#CD8555"/>
<path d="M38.6174 16.7496H37.7896V25.8841H38.6174V16.7496Z" fill="#CD8555"/>
<path d="M41.1147 16.7496H40.2869V25.8841H41.1147V16.7496Z" fill="#CD8555"/>
<path d="M43.6123 16.7496H42.7844V25.8841H43.6123V16.7496Z" fill="#CD8555"/>
<path d="M46.1101 16.7496H45.2822V25.8841H46.1101V16.7496Z" fill="#CD8555"/>
<g style="mix-blend-mode:multiply" opacity="0.55">
<path d="M33.0815 16.7496H32.7944V25.8841H33.0815V16.7496Z" fill="#CD8555"/>
</g>
<g style="mix-blend-mode:multiply" opacity="0.55">
<path d="M35.5791 16.7496H35.292V25.8841H35.5791V16.7496Z" fill="#CD8555"/>
</g>
<g style="mix-blend-mode:multiply" opacity="0.55">
<path d="M38.0737 16.7496H37.7866V25.8841H38.0737V16.7496Z" fill="#CD8555"/>
</g>
<g style="mix-blend-mode:multiply" opacity="0.55">
<path d="M40.5713 16.7496H40.2842V25.8841H40.5713V16.7496Z" fill="#CD8555"/>
</g>
<g style="mix-blend-mode:multiply" opacity="0.55">
<path d="M43.0688 16.7496H42.7817V25.8841H43.0688V16.7496Z" fill="#CD8555"/>
</g>
<g style="mix-blend-mode:multiply" opacity="0.55">
<path d="M45.5664 16.7496H45.2793V25.8841H45.5664V16.7496Z" fill="#CD8555"/>
</g>
<g style="mix-blend-mode:multiply" opacity="0.5">
<path d="M58.7288 37.1623V38.3163L58.7149 38.3386H53.7476V31.4452H44.3288V34.5616H33.4968V38.5699H32.7303V31.4452H23.3115V34.5616H19.1526V31.2808H8.00278V38.3386H7.92752V37.1623H6.93797V38.3386H1.48572V38.3163V37.1623H0.473877V87.6681H1.46063V85.4381V85.4158H6.91568V87.6597H7.90522V85.4158H13.3603V85.4381V87.6681H14.3498V78.0152H45.8062V87.6681H46.7957V85.4381V85.4158H52.2731V87.6597H53.2598V85.4158H58.7149L58.7288 85.4381V87.6681H59.7156V37.1623H58.7288ZM31.4954 66.6563V68.3985H23.7184V64.3901H14.3749V63.1831H45.8062V65.3518H38.3358V66.6563H31.4954ZM9.06201 75.604L8.01114 73.7253L9.06201 71.8437V75.604ZM45.8062 48.1867V52.0055H38.6006V53.5553H32.1059V49.5581H18.2717V48.9086H14.3693V48.1867H45.8062ZM56.1198 45.0536L58.7093 40.4208V45.7755H56.1198V45.0536ZM9.06201 64.3901V69.7392L7.91916 71.788V63.1831H12.7275L12.0529 64.3901H9.06201ZM12.6355 48.9086H8.64111L9.04529 48.1867H13.3853V48.9086H12.6355ZM6.81811 60.772H2.01255L6.81254 52.1811L6.81811 60.772ZM6.93519 63.1831V71.788L2.12126 63.1831H6.93519ZM13.2348 64.3901L13.3909 64.1114V64.3901H13.2348ZM51.9804 71.2556L51.7518 70.8458V65.3518H48.6856L47.4731 63.1831H52.2731V71.2667L51.9804 71.2556ZM50.0626 60.772V55.9358L52.2787 51.9748V60.772H50.0626ZM51.1497 48.1867L52.1839 50.0375L50.0571 53.834V52.0082H46.8041V48.1894L51.1497 48.1867ZM47.5037 65.3518H46.8097V64.1086L47.5037 65.3518ZM53.5637 71.2556H53.2654V63.172H58.071L53.5637 71.2556ZM53.2654 60.772V51.9748L58.1825 60.772H53.2654ZM1.46621 40.4236L4.45993 45.7783H1.46063L1.46621 40.4236ZM1.46621 48.1894H5.80627L6.81811 49.9985V50.0793L1.46621 59.657V48.1894ZM1.46621 78.0152H4.44321L1.46621 83.3392V78.0152ZM1.46621 75.604V64.1086L6.84041 73.7253L5.78955 75.604H1.46621ZM58.7344 83.3392L55.7574 78.0152H58.7344V83.3392ZM58.7344 75.604H56.3372V71.2556H54.726L58.7204 64.1086L58.7344 75.604ZM53.3602 50.0375L54.3943 48.1867H58.7344V59.6542L53.3602 50.0375ZM56.1476 42.949V39.7072H57.9595L56.1476 42.949ZM4.47666 39.7072V43.7128L2.2467 39.7072H4.47666ZM2.2467 84.0528L5.6223 78.0152H6.93797V84.0528H2.2467ZM7.92752 84.0528V78.0152H9.2432L12.616 84.0528H7.92752ZM13.3937 83.3392L10.4056 78.0152H13.3798L13.3937 83.3392ZM49.7895 78.0152L46.8125 83.3392V78.0152H49.7895ZM47.5902 84.0528L50.9658 78.0152H52.2814V84.0528H47.5902ZM53.2682 84.0528V78.0152H54.5839L57.9595 84.0528H53.2682Z" fill="#808080"/>
</g>
<path d="M59.1917 38.1908L58.3248 37.6361L52.2927 48.4291L46.2635 37.6361L45.3938 38.1908L51.7046 49.48L45.3938 60.772L46.2635 61.3239L52.2927 50.5336L58.3248 61.3239L59.1917 60.772L52.8809 49.48L59.1917 38.1908Z" fill="#16131B"/>
<path d="M59.1917 61.8758L58.3248 61.3239L52.2927 72.1141L46.2635 61.3239L45.3938 61.8758L51.7046 73.1677L45.3938 84.4569L46.2635 85.0116L52.2927 74.2186L58.3248 85.0116L59.1917 84.4569L52.8809 73.1677L59.1917 61.8758Z" fill="#16131B"/>
<path d="M46.3328 36.6075H45.3433V87.1134H46.3328V36.6075Z" fill="#F4F9FF"/>
<path d="M52.7889 36.6075H51.7993V87.1134H52.7889V36.6075Z" fill="#F4F9FF"/>
<path d="M59.2444 36.6075H58.2549V87.1134H59.2444V36.6075Z" fill="#F4F9FF"/>
<path d="M58.7509 37.781H45.8367V39.1524H58.7509V37.781Z" fill="#F4F9FF"/>
<path d="M58.7509 60.6382H45.8367V62.0096H58.7509V60.6382Z" fill="#F4F9FF"/>
<path d="M58.7509 83.4952H45.8367V84.8667H58.7509V83.4952Z" fill="#F4F9FF"/>
<path d="M48.3678 64.7942H37.873V75.0492H48.3678V64.7942Z" fill="#C97E43"/>
<path d="M51.2724 64.7942H40.8696V75.0492H51.2724V64.7942Z" fill="#F3C37C"/>
<path opacity="0.9" d="M46.8987 64.7942H45.2429V67.4339H46.8987V64.7942Z" fill="white"/>
<path opacity="0.9" d="M46.8987 72.4095H45.2429V75.0493H46.8987V72.4095Z" fill="white"/>
<path d="M50.5364 72.9447H47.8381V74.5754H50.5364V72.9447Z" fill="#FFFFF3"/>
<path d="M48.248 73.1733H47.9609V74.3469H48.248V73.1733Z" fill="#16131B"/>
<path d="M48.521 73.1733H48.4207V74.3469H48.521V73.1733Z" fill="#16131B"/>
<path d="M49.1677 73.1733H48.9336V74.3469H49.1677V73.1733Z" fill="#16131B"/>
<path d="M48.7803 73.1733H48.6382V74.3469H48.7803V73.1733Z" fill="#16131B"/>
<path d="M49.4411 73.1733H49.3435V74.3469H49.4411V73.1733Z" fill="#16131B"/>
<path d="M49.9986 73.1733H49.8035V74.3469H49.9986V73.1733Z" fill="#16131B"/>
<path d="M50.1601 73.1733H50.0625V74.3469H50.1601V73.1733Z" fill="#16131B"/>
<path d="M49.717 73.1733H49.5833V74.3469H49.717V73.1733Z" fill="#16131B"/>
<path d="M50.4053 73.1733H50.2632V74.3469H50.4053V73.1733Z" fill="#16131B"/>
<path d="M51.2723 69.5997H37.873V75.0492H51.2723V69.5997Z" fill="#C97E43"/>
<path d="M51.2306 30.8877H43.855V38.096H51.2306V30.8877Z" fill="#C97E43"/>
<path d="M53.2736 30.8877H45.9622V38.096H53.2736V30.8877Z" fill="#F3C37C"/>
<path opacity="0.9" d="M50.202 30.8877H49.0369V32.7414H50.202V30.8877Z" fill="white"/>
<path opacity="0.9" d="M50.202 36.2423H49.0369V38.096H50.202V36.2423Z" fill="white"/>
<path d="M52.7553 36.6188H50.8599V37.7644H52.7553V36.6188Z" fill="#FFFFF3"/>
<path d="M51.147 36.7803H50.9463V37.6054H51.147V36.7803Z" fill="#16131B"/>
<path d="M51.3392 36.7803H51.2695V37.6054H51.3392V36.7803Z" fill="#16131B"/>
<path d="M51.7936 36.7803H51.6292V37.6054H51.7936V36.7803Z" fill="#16131B"/>
<path d="M51.5232 36.7803H51.4229V37.6054H51.5232V36.7803Z" fill="#16131B"/>
<path d="M51.9858 36.7803H51.9189V37.6054H51.9858V36.7803Z" fill="#16131B"/>
<path d="M52.3788 36.7803H52.2422V37.6054H52.3788V36.7803Z" fill="#16131B"/>
<path d="M52.4907 36.7803H52.4238V37.6054H52.4907V36.7803Z" fill="#16131B"/>
<path d="M52.1812 36.7803H52.0864V37.6054H52.1812V36.7803Z" fill="#16131B"/>
<path d="M52.666 36.7803H52.5657V37.6054H52.666V36.7803Z" fill="#16131B"/>
<path d="M53.8143 70.7008H46.4387V75.0492H53.8143V70.7008Z" fill="#C97E43"/>
<path d="M55.8576 70.7008H48.5461V75.0492H55.8576V70.7008Z" fill="#F3C37C"/>
<path opacity="0.9" d="M53.1845 70.7008H51.2222V71.9886H53.1845V70.7008Z" fill="white"/>
<path d="M50.7929 73.5692H48.8975V74.7149H50.7929V73.5692Z" fill="#FFFFF3"/>
<path d="M49.1843 73.7308H48.9836V74.5559H49.1843V73.7308Z" fill="#16131B"/>
<path d="M49.3768 73.7308H49.3071V74.5559H49.3768V73.7308Z" fill="#16131B"/>
<path d="M49.8312 73.7308H49.6667V74.5559H49.8312V73.7308Z" fill="#16131B"/>
<path d="M49.5584 73.7308H49.458V74.5559H49.5584V73.7308Z" fill="#16131B"/>
<path d="M50.0208 73.7308H49.9539V74.5559H50.0208V73.7308Z" fill="#16131B"/>
<path d="M50.4137 73.7308H50.2771V74.5559H50.4137V73.7308Z" fill="#16131B"/>
<path d="M50.5281 73.7308H50.4612V74.5559H50.5281V73.7308Z" fill="#16131B"/>
<path d="M50.2188 73.7308H50.124V74.5559H50.2188V73.7308Z" fill="#16131B"/>
<path d="M50.7009 73.7308H50.6006V74.5559H50.7009V73.7308Z" fill="#16131B"/>
<path d="M53.6222 38.0123H46.2466V45.2207H53.6222V38.0123Z" fill="#C97E43"/>
<path d="M55.6655 38.0123H48.354V45.2207H55.6655V38.0123Z" fill="#F3C37C"/>
<path opacity="0.9" d="M52.9924 38.0123H51.03V39.866H52.9924V38.0123Z" fill="white"/>
<path opacity="0.9" d="M52.9924 43.3643H51.03V45.2179H52.9924V43.3643Z" fill="white"/>
<path d="M50.6033 43.7434H48.7051V44.8891H50.6033V43.7434Z" fill="#FFFFF3"/>
<path d="M48.9924 43.9022H48.7917V44.7273H48.9924V43.9022Z" fill="#16131B"/>
<path d="M49.1847 43.9022H49.115V44.7273H49.1847V43.9022Z" fill="#16131B"/>
<path d="M49.6391 43.9022H49.4746V44.7273H49.6391V43.9022Z" fill="#16131B"/>
<path d="M49.3687 43.9022H49.2683V44.7273H49.3687V43.9022Z" fill="#16131B"/>
<path d="M49.8311 43.9022H49.7642V44.7273H49.8311V43.9022Z" fill="#16131B"/>
<path d="M50.2213 43.9022H50.0847V44.7273H50.2213V43.9022Z" fill="#16131B"/>
<path d="M50.3357 43.9022H50.2688V44.7273H50.3357V43.9022Z" fill="#16131B"/>
<path d="M50.0264 43.9022H49.9316V44.7273H50.0264V43.9022Z" fill="#16131B"/>
<path d="M50.5086 43.9022H50.4082V44.7273H50.5086V43.9022Z" fill="#16131B"/>
<path d="M44.4989 34.0067H33.0229V45.2206H44.4989V34.0067Z" fill="#C97E43"/>
<path d="M47.6766 34.0067H36.301V45.2206H47.6766V34.0067Z" fill="#F3C37C"/>
<path opacity="0.9" d="M43.5149 34.0067H40.4626V36.8917H43.5149V34.0067Z" fill="white"/>
<path opacity="0.9" d="M43.5149 42.3357H40.4626V45.2207H43.5149V42.3357Z" fill="white"/>
<path d="M39.7993 42.921H36.8474V44.705H39.7993V42.921Z" fill="#FFFFF3"/>
<path d="M37.2932 43.1692H36.981V44.4514H37.2932V43.1692Z" fill="#16131B"/>
<path d="M37.5943 43.1692H37.4856V44.4514H37.5943V43.1692Z" fill="#16131B"/>
<path d="M38.3023 43.1692H38.0459V44.4514H38.3023V43.1692Z" fill="#16131B"/>
<path d="M37.8788 43.1692H37.7227V44.4514H37.8788V43.1692Z" fill="#16131B"/>
<path d="M38.6008 43.1692H38.4949V44.4514H38.6008V43.1692Z" fill="#16131B"/>
<path d="M39.2084 43.1692H38.9966V44.4514H39.2084V43.1692Z" fill="#16131B"/>
<path d="M39.3867 43.1692H39.2808V44.4514H39.3867V43.1692Z" fill="#16131B"/>
<path d="M38.8989 43.1692H38.7539V44.4514H38.8989V43.1692Z" fill="#16131B"/>
<path d="M39.6541 43.1692H39.498V44.4514H39.6541V43.1692Z" fill="#16131B"/>
<path d="M40.1868 66.0959H31.0244V75.0492H40.1868V66.0959Z" fill="#C97E43"/>
<path d="M42.7231 66.0959H33.6416V75.0492H42.7231V66.0959Z" fill="#F3C37C"/>
<path opacity="0.9" d="M38.9045 66.0959H37.4578V68.3984H38.9045V66.0959Z" fill="white"/>
<path opacity="0.9" d="M38.9045 72.7441H37.4578V75.0466H38.9045V72.7441Z" fill="white"/>
<path d="M42.0793 73.2123H39.7239V74.6367H42.0793V73.2123Z" fill="#FFFFF3"/>
<path d="M40.0807 73.413H39.8298V74.436H40.0807V73.413Z" fill="#16131B"/>
<path d="M40.3205 73.413H40.2341V74.436H40.3205V73.413Z" fill="#16131B"/>
<path d="M40.8864 73.413H40.6802V74.436H40.8864V73.413Z" fill="#16131B"/>
<path d="M40.5463 73.413H40.4209V74.436H40.5463V73.413Z" fill="#16131B"/>
<path d="M41.1205 73.413H41.0369V74.436H41.1205V73.413Z" fill="#16131B"/>
<path d="M41.6083 73.413H41.4382V74.436H41.6083V73.413Z" fill="#16131B"/>
<path d="M41.7506 73.413H41.667V74.436H41.7506V73.413Z" fill="#16131B"/>
<path d="M41.3632 73.413H41.2461V74.436H41.3632V73.413Z" fill="#16131B"/>
<path d="M41.965 73.413H41.8396V74.436H41.965V73.413Z" fill="#16131B"/>
<path d="M29.19 67.8408H21.8145V75.0492H29.19V67.8408Z" fill="#C97E43"/>
<path d="M31.2334 67.8408H23.9219V75.0492H31.2334V67.8408Z" fill="#F3C37C"/>
<path opacity="0.9" d="M28.5603 67.8408H26.5979V69.6945H28.5603V67.8408Z" fill="white"/>
<path opacity="0.9" d="M28.5603 73.1927H26.5979V75.0464H28.5603V73.1927Z" fill="white"/>
<path d="M26.1687 73.5692H24.2732V74.7149H26.1687V73.5692Z" fill="#FFFFF3"/>
<path d="M24.5601 73.7308H24.3594V74.5559H24.5601V73.7308Z" fill="#16131B"/>
<path d="M24.7525 73.7308H24.6829V74.5559H24.7525V73.7308Z" fill="#16131B"/>
<path d="M25.2069 73.7308H25.0425V74.5559H25.2069V73.7308Z" fill="#16131B"/>
<path d="M24.9338 73.7308H24.8335V74.5559H24.9338V73.7308Z" fill="#16131B"/>
<path d="M25.3965 73.7308H25.3296V74.5559H25.3965V73.7308Z" fill="#16131B"/>
<path d="M25.7897 73.7308H25.6531V74.5559H25.7897V73.7308Z" fill="#16131B"/>
<path d="M25.9038 73.7308H25.8369V74.5559H25.9038V73.7308Z" fill="#16131B"/>
<path d="M25.5945 73.7308H25.4998V74.5559H25.5945V73.7308Z" fill="#16131B"/>
<path d="M26.0764 73.7308H25.9761V74.5559H26.0764V73.7308Z" fill="#16131B"/>
<path d="M20.0668 63.8326H8.59082V75.0466H20.0668V63.8326Z" fill="#C97E43"/>
<path d="M23.2445 63.8326H11.8689V75.0466H23.2445V63.8326Z" fill="#F3C37C"/>
<path opacity="0.9" d="M19.083 63.8326H16.0308V66.7177H19.083V63.8326Z" fill="white"/>
<path opacity="0.9" d="M19.083 72.1615H16.0308V75.0465H19.083V72.1615Z" fill="white"/>
<path d="M15.3672 72.7495H12.4153V74.5335H15.3672V72.7495Z" fill="#FFFFF3"/>
<path d="M12.8613 72.9977H12.5491V74.2799H12.8613V72.9977Z" fill="#16131B"/>
<path d="M13.1624 72.9977H13.0537V74.2799H13.1624V72.9977Z" fill="#16131B"/>
<path d="M13.8678 72.9977H13.6113V74.2799H13.8678V72.9977Z" fill="#16131B"/>
<path d="M13.4439 72.9977H13.2878V74.2799H13.4439V72.9977Z" fill="#16131B"/>
<path d="M14.166 72.9977H14.0601V74.2799H14.166V72.9977Z" fill="#16131B"/>
<path d="M14.7734 72.9977H14.5615V74.2799H14.7734V72.9977Z" fill="#16131B"/>
<path d="M14.9546 72.9977H14.8486V74.2799H14.9546V72.9977Z" fill="#16131B"/>
<path d="M14.467 72.9977H14.322V74.2799H14.467V72.9977Z" fill="#16131B"/>
<path d="M15.2223 72.9977H15.0662V74.2799H15.2223V72.9977Z" fill="#16131B"/>
<path d="M16.2592 30.7261H7.52051V39.264H16.2592V30.7261Z" fill="#C97E43"/>
<path d="M18.6787 30.7261H10.0181V39.264H18.6787V30.7261Z" fill="#F3C37C"/>
<path opacity="0.9" d="M15.5122 30.7261H13.1875V32.9226H15.5122V30.7261Z" fill="white"/>
<path opacity="0.9" d="M15.5122 37.0674H13.1875V39.2639H15.5122V37.0674Z" fill="white"/>
<path d="M12.68 37.5134H10.4333V38.8709H12.68V37.5134Z" fill="#FFFFF3"/>
<path d="M10.7766 37.703H10.5369V38.6786H10.7766V37.703Z" fill="#16131B"/>
<path d="M11.0021 37.703H10.9185V38.6786H11.0021V37.703Z" fill="#16131B"/>
<path d="M11.5401 37.703H11.345V38.6786H11.5401V37.703Z" fill="#16131B"/>
<path d="M11.2195 37.703H11.0996V38.6786H11.2195V37.703Z" fill="#16131B"/>
<path d="M11.7686 37.703H11.6877V38.6786H11.7686V37.703Z" fill="#16131B"/>
<path d="M12.2315 37.703H12.0698V38.6786H12.2315V37.703Z" fill="#16131B"/>
<path d="M12.3679 37.703H12.2871V38.6786H12.3679V37.703Z" fill="#16131B"/>
<path d="M11.9972 37.703H11.8857V38.6786H11.9972V37.703Z" fill="#16131B"/>
<path d="M12.5713 37.703H12.4514V38.6786H12.5713V37.703Z" fill="#16131B"/>
<path d="M18.6787 32.8195H10.6174V39.264H18.6787V32.8195Z" fill="#C97E43"/>
<path d="M30.2132 30.8877H22.8376V38.096H30.2132V30.8877Z" fill="#C97E43"/>
<path d="M32.2563 30.8877H24.9448V38.096H32.2563V30.8877Z" fill="#F3C37C"/>
<path opacity="0.9" d="M29.1847 30.8877H28.0195V32.7414H29.1847V30.8877Z" fill="white"/>
<path opacity="0.9" d="M29.1847 36.2423H28.0195V38.096H29.1847V36.2423Z" fill="white"/>
<path d="M31.738 36.6188H29.8425V37.7644H31.738V36.6188Z" fill="#FFFFF3"/>
<path d="M30.1294 36.7803H29.9287V37.6054H30.1294V36.7803Z" fill="#16131B"/>
<path d="M30.3219 36.7803H30.2522V37.6054H30.3219V36.7803Z" fill="#16131B"/>
<path d="M30.7763 36.7803H30.6118V37.6054H30.7763V36.7803Z" fill="#16131B"/>
<path d="M30.5056 36.7803H30.4053V37.6054H30.5056V36.7803Z" fill="#16131B"/>
<path d="M30.9685 36.7803H30.9016V37.6054H30.9685V36.7803Z" fill="#16131B"/>
<path d="M31.359 36.7803H31.2224V37.6054H31.359V36.7803Z" fill="#16131B"/>
<path d="M31.4732 36.7803H31.4062V37.6054H31.4732V36.7803Z" fill="#16131B"/>
<path d="M31.1636 36.7803H31.0688V37.6054H31.1636V36.7803Z" fill="#16131B"/>
<path d="M31.646 36.7803H31.5457V37.6054H31.646V36.7803Z" fill="#16131B"/>
<path d="M32.6048 38.0123H25.2292V45.2207H32.6048V38.0123Z" fill="#C97E43"/>
<path d="M34.6482 38.0123H27.3367V45.2207H34.6482V38.0123Z" fill="#F3C37C"/>
<path opacity="0.9" d="M31.9748 38.0123H30.0125V39.866H31.9748V38.0123Z" fill="white"/>
<path opacity="0.9" d="M31.9748 43.3643H30.0125V45.2179H31.9748V43.3643Z" fill="white"/>
<path d="M29.5835 43.7434H27.688V44.8891H29.5835V43.7434Z" fill="#FFFFF3"/>
<path d="M27.9749 43.9022H27.7742V44.7273H27.9749V43.9022Z" fill="#16131B"/>
<path d="M28.1671 43.9022H28.0974V44.7273H28.1671V43.9022Z" fill="#16131B"/>
<path d="M28.6217 43.9022H28.4573V44.7273H28.6217V43.9022Z" fill="#16131B"/>
<path d="M28.3484 43.9022H28.248V44.7273H28.3484V43.9022Z" fill="#16131B"/>
<path d="M28.811 43.9022H28.7441V44.7273H28.811V43.9022Z" fill="#16131B"/>
<path d="M29.204 43.9022H29.0674V44.7273H29.204V43.9022Z" fill="#16131B"/>
<path d="M29.3184 43.9022H29.2515V44.7273H29.3184V43.9022Z" fill="#16131B"/>
<path d="M29.0088 43.9022H28.9141V44.7273H29.0088V43.9022Z" fill="#16131B"/>
<path d="M29.4912 43.9022H29.3909V44.7273H29.4912V43.9022Z" fill="#16131B"/>
<path d="M23.4816 34.0067H12.0056V45.2206H23.4816V34.0067Z" fill="#C97E43"/>
<path d="M26.6593 34.0067H15.2837V45.2206H26.6593V34.0067Z" fill="#F3C37C"/>
<path opacity="0.9" d="M22.4976 34.0067H19.4453V36.8917H22.4976V34.0067Z" fill="white"/>
<path opacity="0.9" d="M22.4976 42.3357H19.4453V45.2207H22.4976V42.3357Z" fill="white"/>
<path d="M18.7817 42.921H15.8298V44.705H18.7817V42.921Z" fill="#FFFFF3"/>
<path d="M16.2758 43.1692H15.9636V44.4514H16.2758V43.1692Z" fill="#16131B"/>
<path d="M16.577 43.1692H16.4683V44.4514H16.577V43.1692Z" fill="#16131B"/>
<path d="M17.285 43.1692H17.0286V44.4514H17.285V43.1692Z" fill="#16131B"/>
<path d="M16.8585 43.1692H16.7024V44.4514H16.8585V43.1692Z" fill="#16131B"/>
<path d="M17.5835 43.1692H17.4775V44.4514H17.5835V43.1692Z" fill="#16131B"/>
<path d="M18.1879 43.1692H17.9761V44.4514H18.1879V43.1692Z" fill="#16131B"/>
<path d="M18.3694 43.1692H18.2634V44.4514H18.3694V43.1692Z" fill="#16131B"/>
<path d="M17.8813 43.1692H17.7363V44.4514H17.8813V43.1692Z" fill="#16131B"/>
<path d="M18.6368 43.1692H18.4807V44.4514H18.6368V43.1692Z" fill="#16131B"/>
<path d="M47.0998 51.4479H38.127V60.2144H47.0998V51.4479Z" fill="#C97E43"/>
<path d="M49.5859 51.4479H40.6912V60.2144H49.5859V51.4479Z" fill="#F3C37C"/>
<path opacity="0.9" d="M46.3304 51.4479H43.9443V53.7029H46.3304V51.4479Z" fill="white"/>
<path opacity="0.9" d="M46.3304 57.9594H43.9443V60.2144H46.3304V57.9594Z" fill="white"/>
<path d="M43.423 58.4165H41.115V59.8102H43.423V58.4165Z" fill="#FFFFF3"/>
<path d="M41.466 58.6145H41.2207V59.618H41.466V58.6145Z" fill="#16131B"/>
<path d="M41.7029 58.6145H41.6165V59.618H41.7029V58.6145Z" fill="#16131B"/>
<path d="M42.2549 58.6145H42.0542V59.618H42.2549V58.6145Z" fill="#16131B"/>
<path d="M41.9232 58.6145H41.8005V59.618H41.9232V58.6145Z" fill="#16131B"/>
<path d="M42.4865 58.6145H42.4028V59.618H42.4865V58.6145Z" fill="#16131B"/>
<path d="M42.9631 58.6145H42.7959V59.618H42.9631V58.6145Z" fill="#16131B"/>
<path d="M43.1024 58.6145H43.0188V59.618H43.1024V58.6145Z" fill="#16131B"/>
<path d="M42.7232 58.6145H42.6089V59.618H42.7232V58.6145Z" fill="#16131B"/>
<path d="M43.3114 58.6145H43.1887V59.618H43.3114V58.6145Z" fill="#16131B"/>
<path d="M15.3117 48.3511H6.33887V60.2145H15.3117V48.3511Z" fill="#C97E43"/>
<path d="M17.7978 48.3511H8.90308V60.2145H17.7978V48.3511Z" fill="#F3C37C"/>
<path opacity="0.9" d="M14.5423 48.3511H12.1562V50.6061H14.5423V48.3511Z" fill="white"/>
<path opacity="0.9" d="M14.5423 57.9594H12.1562V60.2144H14.5423V57.9594Z" fill="white"/>
<path d="M11.6376 58.4165H9.32959V59.8102H11.6376V58.4165Z" fill="#FFFFF3"/>
<path d="M9.68109 58.6145H9.43579V59.618H9.68109V58.6145Z" fill="#16131B"/>
<path d="M9.91478 58.6145H9.82837V59.618H9.91478V58.6145Z" fill="#16131B"/>
<path d="M10.4668 58.6145H10.2661V59.618H10.4668V58.6145Z" fill="#16131B"/>
<path d="M10.1351 58.6145H10.0125V59.618H10.1351V58.6145Z" fill="#16131B"/>
<path d="M10.7011 58.6145H10.6174V59.618H10.7011V58.6145Z" fill="#16131B"/>
<path d="M11.1775 58.6145H11.0103V59.618H11.1775V58.6145Z" fill="#16131B"/>
<path d="M11.317 58.6145H11.2334V59.618H11.317V58.6145Z" fill="#16131B"/>
<path d="M10.9351 58.6145H10.8208V59.618H10.9351V58.6145Z" fill="#16131B"/>
<path d="M11.5262 58.6145H11.4036V59.618H11.5262V58.6145Z" fill="#16131B"/>
<path d="M17.798 48.3511H14.6147V60.2145H17.798V48.3511Z" fill="#C97E43"/>
<path d="M37.5777 53.0089H30.2021V60.2173H37.5777V53.0089Z" fill="#C97E43"/>
<path d="M39.6208 53.0089H32.3093V60.2173H39.6208V53.0089Z" fill="#F3C37C"/>
<path opacity="0.9" d="M36.9477 53.0089H34.9854V54.8626H36.9477V53.0089Z" fill="white"/>
<path opacity="0.9" d="M36.9477 58.3608H34.9854V60.2145H36.9477V58.3608Z" fill="white"/>
<path d="M34.5559 58.7371H32.6604V59.8827H34.5559V58.7371Z" fill="#FFFFF3"/>
<path d="M32.9478 58.8988H32.7471V59.7239H32.9478V58.8988Z" fill="#16131B"/>
<path d="M33.14 58.8988H33.0703V59.7239H33.14V58.8988Z" fill="#16131B"/>
<path d="M33.5944 58.8988H33.4299V59.7239H33.5944V58.8988Z" fill="#16131B"/>
<path d="M33.3211 58.8988H33.2207V59.7239H33.3211V58.8988Z" fill="#16131B"/>
<path d="M33.7842 58.8988H33.7173V59.7239H33.7842V58.8988Z" fill="#16131B"/>
<path d="M34.1769 58.8988H34.0403V59.7239H34.1769V58.8988Z" fill="#16131B"/>
<path d="M34.2913 58.8988H34.2244V59.7239H34.2913V58.8988Z" fill="#16131B"/>
<path d="M33.982 58.8988H33.8872V59.7239H33.982V58.8988Z" fill="#16131B"/>
<path d="M34.4641 58.8988H34.3638V59.7239H34.4641V58.8988Z" fill="#16131B"/>
<path d="M28.4542 49.0006H16.9783V60.2145H28.4542V49.0006Z" fill="#C97E43"/>
<path d="M31.6319 49.0006H20.2563V60.2145H31.6319V49.0006Z" fill="#F3C37C"/>
<path opacity="0.9" d="M27.4702 49.0006H24.418V51.8856H27.4702V49.0006Z" fill="white"/>
<path opacity="0.9" d="M27.4702 57.3295H24.418V60.2145H27.4702V57.3295Z" fill="white"/>
<path d="M23.7546 57.9148H20.8027V59.6988H23.7546V57.9148Z" fill="#FFFFF3"/>
<path d="M21.2487 58.1658H20.9365V59.448H21.2487V58.1658Z" fill="#16131B"/>
<path d="M21.5499 58.1658H21.4412V59.448H21.5499V58.1658Z" fill="#16131B"/>
<path d="M22.255 58.1658H21.9985V59.448H22.255V58.1658Z" fill="#16131B"/>
<path d="M21.8314 58.1658H21.6753V59.448H21.8314V58.1658Z" fill="#16131B"/>
<path d="M22.5559 58.1658H22.45V59.448H22.5559V58.1658Z" fill="#16131B"/>
<path d="M23.1611 58.1658H22.9492V59.448H23.1611V58.1658Z" fill="#16131B"/>
<path d="M23.342 58.1658H23.2361V59.448H23.342V58.1658Z" fill="#16131B"/>
<path d="M22.8542 58.1658H22.7092V59.448H22.8542V58.1658Z" fill="#16131B"/>
<path d="M23.6097 58.1658H23.4536V59.448H23.6097V58.1658Z" fill="#16131B"/>
<path d="M11.3812 38.0123H4.00562V45.2207H11.3812V38.0123Z" fill="#C97E43"/>
<path d="M13.4245 38.0123H6.11304V45.2207H13.4245V38.0123Z" fill="#F3C37C"/>
<path opacity="0.9" d="M10.7485 38.0123H8.78613V39.866H10.7485V38.0123Z" fill="white"/>
<path opacity="0.9" d="M10.7485 43.3643H8.78613V45.2179H10.7485V43.3643Z" fill="white"/>
<path d="M8.35689 43.7434H6.46143V44.8891H8.35689V43.7434Z" fill="#FFFFF3"/>
<path d="M6.75148 43.9022H6.55078V44.7273H6.75148V43.9022Z" fill="#16131B"/>
<path d="M6.94347 43.9022H6.87378V44.7273H6.94347V43.9022Z" fill="#16131B"/>
<path d="M7.3981 43.9022H7.23364V44.7273H7.3981V43.9022Z" fill="#16131B"/>
<path d="M7.12476 43.9022H7.02441V44.7273H7.12476V43.9022Z" fill="#16131B"/>
<path d="M7.58741 43.9022H7.52051V44.7273H7.58741V43.9022Z" fill="#16131B"/>
<path d="M7.98034 43.9022H7.84375V44.7273H7.98034V43.9022Z" fill="#16131B"/>
<path d="M8.09473 43.9022H8.02783V44.7273H8.09473V43.9022Z" fill="#16131B"/>
<path d="M7.78276 43.9022H7.68799V44.7273H7.78276V43.9022Z" fill="#16131B"/>
<path d="M8.26758 43.9022H8.16724V44.7273H8.26758V43.9022Z" fill="#16131B"/>
<path d="M13.4215 38.0123H11.4146V45.2207H13.4215V38.0123Z" fill="#C97E43"/>
<path d="M58.255 45.2207H0.493408V47.6319H58.255V45.2207Z" fill="#FFA910"/>
<path d="M58.255 60.2145H0.493408V62.6256H58.255V60.2145Z" fill="#FFA910"/>
<path d="M58.255 75.0493H0.493408V77.4605H58.255V75.0493Z" fill="#FFA910"/>
<path d="M13.8481 38.1908L12.9812 37.6361L6.94913 48.4291L0.919876 37.6361L0.0529785 38.1908L6.36377 49.48L0.0529785 60.772L0.919876 61.3239L6.94913 50.5336L12.9812 61.3239L13.8481 60.772L7.54007 49.48L13.8481 38.1908Z" fill="#16131B"/>
<path d="M13.8481 61.8758L12.9812 61.3239L6.94913 72.1141L0.919876 61.3239L0.0529785 61.8758L6.36377 73.1677L0.0529785 84.4569L0.919876 85.0116L6.94913 74.2186L12.9812 85.0116L13.8481 84.4569L7.54007 73.1677L13.8481 61.8758Z" fill="#16131B"/>
<path d="M0.989545 36.6075H0V87.1134H0.989545V36.6075Z" fill="#F4F9FF"/>
<path d="M7.44536 36.6075H6.45581V87.1134H7.44536V36.6075Z" fill="#F4F9FF"/>
<path d="M13.9039 36.6075H12.9143V87.1134H13.9039V36.6075Z" fill="#F4F9FF"/>
<path d="M13.4077 37.781H0.493408V39.1524H13.4077V37.781Z" fill="#F4F9FF"/>
<path d="M13.4077 60.6382H0.493408V62.0096H13.4077V60.6382Z" fill="#F4F9FF"/>
<path d="M13.4077 83.4952H0.493408V84.8667H13.4077V83.4952Z" fill="#F4F9FF"/>
<g style="mix-blend-mode:multiply" opacity="0.5">
<path d="M78.9992 61.4827V61.3796C81.926 61.1427 82.0989 59.8242 81.9706 59.5009L78.8877 51.7824C78.8877 51.7211 78.8598 51.657 78.8403 51.5984C78.8403 51.5817 78.8264 51.565 78.8208 51.5455C78.7901 51.4618 78.7567 51.3782 78.7177 51.2946L78.701 51.2639C78.6759 51.2138 78.6508 51.1664 78.6229 51.119L78.5727 50.9935C78.479 50.7589 78.3287 50.5511 78.1351 50.3887C78.0118 50.29 77.877 50.2067 77.7337 50.1406C76.9473 49.5757 76.0567 49.1721 75.1135 48.9531L75.0745 47.4786C75.5659 47.1103 75.9647 46.6327 76.2395 46.0836C76.5144 45.5344 76.6575 44.9289 76.6577 44.3148V43.7295C76.7001 43.737 76.743 43.7417 76.786 43.7434C77.0075 43.7434 77.2268 43.6994 77.4312 43.614C77.6356 43.5285 77.8209 43.4033 77.9765 43.2457C78.1321 43.088 78.2549 42.901 78.3376 42.6955C78.4203 42.49 78.4614 42.2701 78.4584 42.0486C78.4593 41.6123 78.2927 41.1922 77.9929 40.8751C77.9929 40.8751 78.372 39.8214 78.2354 37.8368C78.2354 37.8368 77.809 34.2744 73.7922 35.027C69.7755 35.7796 67.7546 35.8828 67.2083 35.1971C67.2083 35.1971 66.4334 37.7309 68.6466 38.6424V44.3148C68.6475 45.344 69.0484 46.3325 69.7646 47.0716C70.4808 47.8107 71.4563 48.2425 72.4849 48.2758L72.524 49.1538C71.9816 49.3916 71.4967 49.7434 71.1024 50.1852C70.6962 50.4413 70.3472 50.7785 70.0771 51.1756C69.8071 51.5727 69.6219 52.0213 69.533 52.4932L68.8947 55.7629L68.839 55.6597L62.793 56.6604L64.3149 59.0688L64.2285 59.1245C64.0362 59.2779 64.1449 59.997 64.4431 60.6465C64.7414 61.296 65.232 61.8813 65.4215 61.8061C65.5861 61.7393 65.7323 61.6342 65.848 61.4995L67.6989 64.4263L69.6835 63.9663L70.1686 63.9859C69.0703 66.8737 67.0187 72.2228 67.2362 73.0785L67.6961 84.4959L67.8996 84.4736C67.8243 84.5377 67.7491 84.6046 67.671 84.666L67.5511 84.7635C67.448 84.8388 67.3477 84.9112 67.2445 84.9809L67.0745 85.0924C66.5425 85.4276 65.9739 85.7007 65.3797 85.9064C64.9283 86.0676 64.5389 86.3668 64.2668 86.7614C63.9947 87.1561 63.8535 87.6264 63.8633 88.1057V88.1196H77.9037V84.4123H78.5058C78.5058 84.4123 78.7846 65.7503 78.6285 65.0116C78.6062 64.9141 78.8097 63.5315 78.9908 61.5831L78.9992 61.4827ZM71.4731 86.0625V84.0471L72.0473 83.9802L72.1727 73.7559C72.0975 73.427 72.9923 69.675 73.77 68.2953L73.8257 84.4123H74.4083C74.3135 84.4987 74.2159 84.5823 74.1295 84.6604L74.0097 84.7579L73.703 84.9754L73.533 85.0869C73.0004 85.4226 72.4308 85.6958 71.8355 85.9008C71.7072 85.9433 71.5831 85.9975 71.4647 86.0625H71.4731Z" fill="#808080"/>
</g>
<path d="M74.5811 45.9679L74.7177 50.8766L72.1533 50.9268L71.9414 46.0069L74.5811 45.9679Z" fill="#EEC293"/>
<path d="M76.1895 37.2793V39.8075C76.2313 39.8075 76.2731 39.8075 76.3177 39.8075C76.7672 39.8075 77.1982 39.9861 77.5161 40.3039C77.8339 40.6217 78.0125 41.0528 78.0125 41.5023C78.0125 41.9518 77.8339 42.3828 77.5161 42.7007C77.1982 43.0185 76.7672 43.1971 76.3177 43.1971C76.2747 43.1953 76.2318 43.1907 76.1895 43.1831V43.7685C76.1895 44.8205 75.7716 45.8294 75.0277 46.5733C74.2838 47.3171 73.2749 47.735 72.2229 47.735H72.1421C71.6212 47.735 71.1054 47.6324 70.6242 47.4331C70.1429 47.2338 69.7056 46.9416 69.3373 46.5733C68.969 46.2049 68.6768 45.7677 68.4775 45.2864C68.2781 44.8052 68.1755 44.2894 68.1755 43.7685V37.2793H76.1895Z" fill="#FED7A6"/>
<path d="M72.248 41.2904C72.248 41.4007 72.2807 41.5084 72.342 41.6001C72.4033 41.6918 72.4903 41.7633 72.5922 41.8055C72.6941 41.8477 72.8062 41.8587 72.9143 41.8372C73.0224 41.8157 73.1218 41.7626 73.1997 41.6846C73.2777 41.6066 73.3308 41.5073 73.3523 41.3992C73.3738 41.291 73.3628 41.1789 73.3206 41.0771C73.2784 40.9752 73.2069 40.8881 73.1153 40.8269C73.0236 40.7656 72.9158 40.7329 72.8055 40.7329C72.6577 40.7329 72.5159 40.7916 72.4113 40.8962C72.3068 41.0007 72.248 41.1425 72.248 41.2904Z" fill="#16131B"/>
<path d="M69.2207 41.2904C69.2207 41.4007 69.2534 41.5084 69.3147 41.6001C69.3759 41.6918 69.463 41.7633 69.5648 41.8055C69.6667 41.8477 69.7788 41.8587 69.887 41.8372C69.9951 41.8157 70.0944 41.7626 70.1724 41.6846C70.2504 41.6066 70.3035 41.5073 70.325 41.3992C70.3465 41.291 70.3354 41.1789 70.2932 41.0771C70.251 40.9752 70.1796 40.8881 70.0879 40.8269C69.9962 40.7656 69.8885 40.7329 69.7782 40.7329C69.6303 40.7329 69.4885 40.7916 69.384 40.8962C69.2794 41.0007 69.2207 41.1425 69.2207 41.2904Z" fill="#16131B"/>
<path d="M73.0282 44.0305H69.8672C69.8672 44.0305 69.9703 45.572 71.4086 45.572C72.847 45.572 73.0282 44.0305 73.0282 44.0305Z" fill="white"/>
<path d="M70.3943 39.735H69.2904C69.1811 39.735 69.0925 39.8236 69.0925 39.9329V39.9663C69.0925 40.0756 69.1811 40.1643 69.2904 40.1643H70.3943C70.5036 40.1643 70.5922 40.0756 70.5922 39.9663V39.9329C70.5922 39.8236 70.5036 39.735 70.3943 39.735Z" fill="#16131B"/>
<path d="M73.3489 39.735H72.245C72.1357 39.735 72.0471 39.8236 72.0471 39.9329V39.9663C72.0471 40.0756 72.1357 40.1643 72.245 40.1643H73.3489C73.4582 40.1643 73.5468 40.0756 73.5468 39.9663V39.9329C73.5468 39.8236 73.4582 39.735 73.3489 39.735Z" fill="#16131B"/>
<path d="M77.7642 37.2794C77.7642 37.2794 77.3377 33.717 73.321 34.4697C69.3043 35.2223 67.2834 35.3254 66.737 34.6397C66.737 34.6397 65.5802 38.4083 70.0959 38.4083C74.6116 38.4083 74.4081 37.8508 74.8178 38.7512C75.2276 39.6515 74.9907 41.1149 74.9907 41.1149H76.0164C76.0164 41.1149 76.0164 39.5205 77.5217 40.3177C77.5217 40.3177 77.9008 39.2641 77.7642 37.2794Z" fill="#16131B"/>
<path d="M66.1937 60.4459C66.1268 60.3427 66.0599 60.2424 65.9902 60.1476C66.4697 59.6486 66.9937 59.0967 67.3505 58.7065C67.6168 58.4147 67.8166 58.0685 67.9359 57.6918L69.0509 51.9386C69.1397 51.4666 69.3249 51.0181 69.595 50.621C69.865 50.2239 70.214 49.8867 70.6202 49.6305C70.6607 49.6042 70.7026 49.58 70.7456 49.5581C72.6272 48.6382 73.2543 51.0382 73.2794 51.8828C73.2914 52.1359 73.2396 52.388 73.1289 52.6159L69.9178 59.7769C69.8351 59.9501 69.7046 60.096 69.5415 60.1973C69.3785 60.2986 69.1898 60.351 68.9979 60.3483L66.8655 61.9344C66.7105 61.4099 66.4845 60.9091 66.1937 60.4459Z" fill="#273D72"/>
<path d="M70.9908 83.3557V87.562H63.3894V87.5425C63.3796 87.0632 63.5207 86.5929 63.7928 86.1983C64.065 85.8036 64.4543 85.5045 64.9058 85.3432C66.2826 84.9033 67.488 84.0448 68.3539 82.8875L70.9908 83.3557Z" fill="#16131B"/>
<g style="mix-blend-mode:multiply" opacity="0.55">
<path d="M68.3539 82.8875L70.9908 83.3557L70.9713 84.8219L66.6006 84.5293C67.2872 84.1025 67.883 83.5446 68.3539 82.8875Z" fill="#33415F"/>
</g>
<path d="M77.4298 83.3557V87.562H69.8284V87.5425C69.8184 87.0635 69.9591 86.5935 70.2307 86.1989C70.5023 85.8042 70.891 85.5049 71.342 85.3432C72.7216 84.9059 73.9295 84.047 74.7956 82.8875L77.4298 83.3557Z" fill="#16131B"/>
<g style="mix-blend-mode:multiply" opacity="0.55">
<path d="M74.7957 82.8875L77.4354 83.3557L77.4159 84.8219L73.0452 84.5293C73.7315 84.1032 74.3265 83.5451 74.7957 82.8875Z" fill="#33415F"/>
</g>
<path d="M69.6947 63.4339L69.1373 63.4116C68.7312 59.4793 68.8955 55.5089 69.6251 51.6235C69.7557 50.9586 70.0459 50.3355 70.4708 49.8077C70.8957 49.2798 71.4424 48.8632 72.0641 48.5936C72.8278 48.8862 73.7142 48.9727 74.4223 48.5155C74.4842 48.4756 74.543 48.4309 74.5979 48.3817C76.1756 48.7664 78.1714 49.7141 78.4585 51.3559C79.356 56.5239 78.1073 64.2144 78.1574 64.4569C78.3052 65.1956 78.0348 83.8576 78.0348 83.8576H73.3435L73.2878 67.7406C72.5101 69.1203 71.6153 72.8723 71.6905 73.2012L71.5651 83.4255L67.2223 83.9384L66.7623 72.5322C66.5449 71.6736 68.5965 66.3217 69.6947 63.4339Z" fill="#546796"/>
<path d="M75.9276 62.0318C74.4642 62.2102 73.0119 62.4945 71.5318 62.4861C71.2224 62.4861 70.9186 62.4861 70.6175 62.4861C69.9234 61.8645 70.2719 61.0562 70.52 60.6687C71.1722 59.6513 74.467 59.5704 74.8823 58.422C75.3367 57.1621 75.1973 55.813 75.1611 54.5029C75.1025 52.6882 75.3534 51.3614 77.0788 50.5307C77.3576 50.3997 77.6224 50.2854 77.8983 50.174C78.1826 50.5103 78.3747 50.9147 78.4558 51.3475C79.0133 54.5614 78.7346 58.7482 78.4698 61.5133C77.6404 61.7649 76.7893 61.9385 75.9276 62.0318Z" fill="#273D72"/>
<path d="M81.5053 58.9434L78.1074 50.4361C78.0137 50.2014 77.8634 49.9936 77.6698 49.8312C77.0203 49.2877 75.1611 48.7943 74.5674 50.8041C74.478 51.2085 74.4952 51.6292 74.6175 52.025L77.6001 57.756C77.7088 58.0709 71.9583 57.4772 71.9583 57.4772L71.7966 60.6521C71.7966 60.6521 75.3618 60.8138 77.3353 60.8472C81.4161 60.9253 81.6503 59.3086 81.5053 58.9434Z" fill="#546796"/>
<path d="M71.5983 57.4382C71.7194 57.4446 71.8397 57.4614 71.9579 57.4884L71.7962 60.6633C71.6746 60.6718 71.5526 60.6718 71.431 60.6633C70.3606 60.6076 69.53 59.8271 69.5774 58.9463C69.6248 58.0654 70.5279 57.3825 71.5983 57.4382Z" fill="#FED7A6"/>
<path d="M68.3651 55.1078L72.5323 62.6451L67.225 63.8743L62.3191 56.1057L68.3651 55.1078Z" fill="#F4F9FF"/>
<path d="M63.7546 58.5726C63.5623 58.7259 63.671 59.4451 63.9692 60.0945C64.2675 60.744 64.7581 61.3294 64.9476 61.2541C65.6083 60.9921 65.8647 60.1391 65.5358 59.4116C65.2069 58.6841 64.3205 58.1266 63.7546 58.5726Z" fill="#FED7A6"/>
</svg>
