<svg width="95" height="88" viewBox="0 0 95 88" fill="none" xmlns="http://www.w3.org/2000/svg">
<path opacity="0.22" d="M92.0421 23.0962C89.4474 14.4318 82.9034 7.05105 74.1638 4.15531C67.6381 1.99148 60.5834 1.87519 53.7636 2.72112C48.5353 3.37323 43.047 4.77322 39.4672 8.64942C34.5969 13.9096 34.2868 22.6562 28.4931 26.8767C23.5543 30.4747 16.1804 29.4988 11.6202 33.5642C10.361 34.714 9.42281 36.1718 8.89788 37.7941C8.37296 39.4164 8.2794 41.1475 8.62641 42.8169C9.43357 46.4879 10.9818 49.712 7.98113 52.7514C5.63034 55.1318 1.72906 56.0485 0.37923 59.3774C-0.532816 61.6439 0.292586 64.3253 1.87043 66.1927C3.44827 68.0601 5.64402 69.2503 7.85345 70.3151C17.1062 74.7933 27.1706 77.5933 37.4516 78.1496C48.5261 78.7493 59.4707 76.4669 70.4791 75.7099C75.0963 75.393 80.0693 74.6815 83.3709 71.4369C88.2868 66.6054 87.4226 58.7025 89.0301 52.4481C90.9044 45.1632 93.5402 37.8714 93.2392 30.2398C93.1407 27.8179 92.7386 25.4179 92.0421 23.0962Z" fill="#CC2B2B"/>
<path opacity="0.22" d="M44.0276 66.6053C63.6546 66.6053 79.5655 65.7264 79.5655 64.6421C79.5655 63.5579 63.6546 62.679 44.0276 62.679C24.4006 62.679 8.48975 63.5579 8.48975 64.6421C8.48975 65.7264 24.4006 66.6053 44.0276 66.6053Z" fill="#CC2B2B"/>
<path d="M24.6055 46.5267C24.6055 46.5267 25.1459 44.8166 25.823 42.9903C26.4227 41.3782 27.1136 39.5313 27.8752 39.0639C28.68 38.5691 32.1595 38.633 35.281 38.8017C38.4731 38.975 41.533 39.0571 42.4177 39.6681C43.5441 40.4434 43.9819 41.9483 44.3467 43.3004C44.6315 44.363 44.8598 45.44 45.0307 46.5267H24.6055Z" fill="#E04E4E"/>
<path d="M25.344 47.3406C25.344 47.3406 25.8456 45.7103 26.4841 43.9729C27.0404 42.4384 27.6834 40.6827 28.3925 40.2358C29.1404 39.7661 32.3759 39.8253 35.2807 39.9872C38.2449 40.1514 41.095 40.2289 41.9182 40.8104C42.9647 41.5491 43.3729 42.9901 43.7126 44.2693C43.9736 45.2816 44.1821 46.3068 44.3374 47.3406H25.344Z" fill="#EDEDED"/>
<path d="M35.2856 39.9851C34.3895 39.9349 33.4615 39.8939 32.5882 39.8779L27.0908 47.3407H30.283L35.4383 39.9965L35.2856 39.9851Z" fill="white"/>
<path d="M37.9007 40.1287L33.8604 47.3407H35.0574L38.9017 40.1993C38.5779 40.172 38.2496 40.1492 37.9007 40.1287Z" fill="white"/>
<path d="M39.0681 47.3405H39.7522L42.1258 40.9858C41.7867 40.6718 41.3508 40.4828 40.8899 40.45L37.9258 47.1193L39.0681 47.3405Z" fill="white"/>
<path d="M13.9207 57.8863C13.9207 54.1925 16.7548 51.1987 20.2503 51.1987C23.7457 51.1987 26.5821 54.1925 26.5821 57.8863C26.5821 61.5801 23.7479 64.5762 20.2503 64.5762C16.7526 64.5762 13.9207 61.5801 13.9207 57.8863Z" fill="#292A2E"/>
<path d="M46.4968 57.8863C46.4968 54.1925 49.331 51.1987 52.8287 51.1987C56.3264 51.1987 59.1583 54.1925 59.1583 57.8863C59.1583 61.5801 56.3241 64.5762 52.8287 64.5762C49.3333 64.5762 46.4968 61.5801 46.4968 57.8863Z" fill="#292A2E"/>
<path d="M61.89 58.3535C61.89 59.0261 61.345 59.7421 60.6724 59.7421H6.26886C5.59623 59.7421 5.05128 59.0261 5.05128 58.3535V49.6206L3.02198 47.4728C3.02161 47.3163 3.05346 47.1614 3.11554 47.0178C3.17762 46.8742 3.2686 46.7449 3.38282 46.6379C3.49703 46.531 3.63204 46.4487 3.77943 46.3962C3.92683 46.3437 4.08345 46.3221 4.23956 46.3327H60.6724C61.3564 46.3327 61.89 46.7067 61.89 47.3793V58.3535Z" fill="#E04E4E"/>
<path d="M80.9698 58.4381C80.9727 58.7701 80.848 59.0906 80.6214 59.3333C80.3948 59.576 80.0836 59.7225 79.7522 59.7423L23.6568 59.7286C22.9842 59.7286 24.1447 59.0264 24.1447 58.3606V50.0359L21.29 47.4776C21.2897 47.3209 21.3216 47.1658 21.3838 47.022C21.446 46.8782 21.5372 46.7488 21.6517 46.6418C21.7661 46.5349 21.9014 46.4526 22.0491 46.4003C22.1967 46.3479 22.3536 46.3265 22.5099 46.3375H83.8131C83.9707 46.3326 84.1276 46.3594 84.2747 46.4161C84.4218 46.4728 84.556 46.5585 84.6695 46.6679C84.783 46.7773 84.8734 46.9084 84.9354 47.0533C84.9974 47.1982 85.0298 47.3541 85.0307 47.5118L80.9698 58.4381Z" fill="#CC2B2B"/>
<path d="M3.20874 50.4169C3.20874 48.6703 4.12079 47.2498 5.24488 47.2429C6.36898 47.2361 7.29699 48.6475 7.31523 50.3941C7.33347 52.1406 6.40318 53.5611 5.27909 53.568C4.15499 53.5748 3.22014 52.1634 3.20874 50.4169Z" fill="#E0E0E0"/>
<path d="M3.75122 50.4144C3.75122 49.1285 4.41473 48.0842 5.24926 48.0796C6.08378 48.075 6.76553 49.1125 6.77237 50.3962C6.77921 51.6799 6.09974 52.7265 5.27434 52.731C4.44894 52.7356 3.75806 51.6982 3.75122 50.4144Z" fill="white"/>
<path d="M22.2888 50.4169C22.2888 48.6703 23.2009 47.2498 24.3227 47.2429C25.4445 47.2361 26.3748 48.6475 26.3953 50.3941C26.4158 52.1406 25.4833 53.5611 24.3592 53.568C23.2351 53.5748 22.3002 52.1634 22.2888 50.4169Z" fill="#E0E0E0"/>
<path d="M22.8335 50.4144C22.8335 49.1285 23.497 48.0842 24.3293 48.0796C25.1615 48.075 25.8478 49.1125 25.8546 50.3962C25.8615 51.6799 25.1911 52.7265 24.3566 52.731C23.5221 52.7356 22.8403 51.6982 22.8335 50.4144Z" fill="white"/>
<path d="M42.5385 57.5422L41.4783 59.9318L63.9465 59.8315L63.6501 57.5422H42.5385Z" fill="white"/>
<path d="M23.1533 57.5422L22.2344 59.8315L44.2626 59.5715V57.5422H23.1533Z" fill="white"/>
<path d="M81.5242 59.1973C81.4143 59.3539 81.2714 59.4846 81.1055 59.5799C80.9397 59.6752 80.7549 59.733 80.5642 59.7491H70.0096C69.3255 59.7491 68.792 59.0331 68.792 58.3605V55.9162C68.792 55.2436 69.3369 54.8696 70.0096 54.8696H81.7818C82.4658 54.8696 83.232 55.3553 82.9743 56.1237C82.5611 57.1799 82.0766 58.2068 81.5242 59.1973Z" fill="white"/>
<path d="M24.1337 58.9282C24.1337 59.3842 24.0926 59.9314 23.6457 59.9314L3.42793 59.7422C3.32115 59.7422 3.21541 59.7211 3.11678 59.6802C3.01814 59.6392 2.92856 59.5792 2.85315 59.5036C2.77775 59.428 2.71801 59.3382 2.67735 59.2395C2.63669 59.1408 2.61591 59.035 2.61621 58.9282V55.28C2.61621 55.0647 2.70173 54.8582 2.85396 54.706C3.00619 54.5538 3.21265 54.4683 3.42793 54.4683H23.3219C23.5372 54.4683 23.7437 54.5538 23.8959 54.706C24.0481 54.8582 24.1337 55.0647 24.1337 55.28V58.9282Z" fill="white"/>
<path d="M21.1421 55.2756H5.19953C4.44522 55.2756 3.83374 55.8871 3.83374 56.6414V57.5626C3.83374 58.3169 4.44522 58.9284 5.19953 58.9284H21.1421C21.8964 58.9284 22.5079 58.3169 22.5079 57.5626V56.6414C22.5079 55.8871 21.8964 55.2756 21.1421 55.2756Z" fill="#292A2E"/>
<path d="M22.7129 56.5273H3.63062V57.3391H22.7129V56.5273Z" fill="white"/>
<path d="M83.0015 50.4029C83.0015 50.5106 82.9587 50.6138 82.8826 50.6899C82.8065 50.766 82.7033 50.8088 82.5956 50.8088H27.7862C27.6786 50.8088 27.5754 50.766 27.4992 50.6899C27.4231 50.6138 27.3804 50.5106 27.3804 50.4029C27.3804 50.2953 27.4231 50.1921 27.4992 50.1159C27.5754 50.0398 27.6786 49.9971 27.7862 49.9971H82.5956C82.7033 49.9971 82.8065 50.0398 82.8826 50.1159C82.9587 50.1921 83.0015 50.2953 83.0015 50.4029Z" fill="white"/>
<path d="M62.4189 57.3047C62.4189 53.2894 65.4994 50.0356 69.3003 50.0356C73.1013 50.0356 76.1817 53.2894 76.1817 57.3047C76.1817 61.3199 73.1013 64.5759 69.3003 64.5759C65.4994 64.5759 62.4189 61.3199 62.4189 57.3047Z" fill="#292A2E"/>
<path d="M69.3092 61.6529C71.5822 61.6529 73.4248 59.7062 73.4248 57.3047C73.4248 54.9033 71.5822 52.9565 69.3092 52.9565C67.0362 52.9565 65.1936 54.9033 65.1936 57.3047C65.1936 59.7062 67.0362 61.6529 69.3092 61.6529Z" fill="white"/>
<path d="M66.8442 57.3051C66.8442 55.8686 67.9478 54.7012 69.309 54.7012C70.6703 54.7012 71.767 55.8686 71.767 57.3051C71.767 58.7415 70.6634 59.909 69.3022 59.909C67.941 59.909 66.8442 58.7415 66.8442 57.3051Z" fill="#CC2B2B"/>
<path d="M30.6616 57.3047C30.6616 53.2894 33.7443 50.0356 37.543 50.0356C41.3417 50.0356 44.4267 53.2894 44.4267 57.3047C44.4267 61.3199 41.344 64.5759 37.543 64.5759C33.7421 64.5759 30.6616 61.3199 30.6616 57.3047Z" fill="#292A2E"/>
<path d="M37.5451 61.6529C39.818 61.6529 41.6607 59.7062 41.6607 57.3047C41.6607 54.9033 39.818 52.9565 37.5451 52.9565C35.2721 52.9565 33.4294 54.9033 33.4294 57.3047C33.4294 59.7062 35.2721 61.6529 37.5451 61.6529Z" fill="white"/>
<path d="M35.0803 57.3051C35.0803 55.8686 36.1816 54.7012 37.5428 54.7012C38.9041 54.7012 40.0077 55.8686 40.0077 57.3051C40.0077 58.7415 38.9064 59.909 37.5428 59.909C36.1793 59.909 35.0803 58.7415 35.0803 57.3051Z" fill="#CC2B2B"/>
<path d="M85.7101 47.9426L82.9694 52.9566L73.3245 50.1657L85.7101 47.9426Z" fill="white"/>
<path d="M9.72095 50.7928C10.031 50.8944 10.3355 51.0123 10.633 51.1463C10.9294 51.2808 11.2235 51.4176 11.5108 51.5658C12.0831 51.8622 12.6509 52.186 13.1822 52.5303H12.7558C13.3304 52.1715 13.9202 51.8402 14.5252 51.5362C14.8284 51.3811 15.1385 51.2443 15.4509 51.1052C15.7633 50.9661 16.0848 50.843 16.4199 50.7427C16.1805 50.998 15.9206 51.2215 15.6629 51.4472C15.4053 51.673 15.1362 51.8804 14.8626 52.0834C14.3199 52.4892 13.759 52.8655 13.1822 53.2234L12.9542 53.358L12.7398 53.2212C12.1994 52.8723 11.675 52.5029 11.1643 52.1062C10.9112 51.9078 10.6626 51.6958 10.4187 51.4837C10.1747 51.2717 9.9444 51.0391 9.72095 50.7928Z" fill="white"/>
<path d="M20.3806 45.195C19.9684 44.9683 19.5783 44.7034 19.2155 44.4038C19.0325 44.2426 18.8783 44.0514 18.7595 43.8384C18.6341 43.6103 18.5862 43.3458 18.4813 43.1042C18.4813 43.0175 18.3354 42.9856 18.3103 43.0859C18.0481 44.0846 17.2386 44.723 16.3813 45.2155C16.3525 45.2328 16.3293 45.258 16.3145 45.2882C16.2997 45.3183 16.2941 45.3522 16.2982 45.3855C16.3023 45.4188 16.316 45.4503 16.3376 45.476C16.3593 45.5016 16.3879 45.5205 16.4201 45.5302C16.9169 45.7112 17.3455 46.0418 17.6468 46.4764C17.7966 46.7093 17.9032 46.9673 17.9614 47.238C18.0207 47.466 18.1894 48.5491 18.3855 47.7579C18.5109 47.2243 18.5611 46.7181 18.9806 46.3168C19.4002 45.9155 19.8927 45.7377 20.3692 45.4755C20.3939 45.4618 20.4147 45.4421 20.4295 45.4181C20.4443 45.3941 20.4527 45.3666 20.4538 45.3385C20.455 45.3103 20.4489 45.2823 20.436 45.2571C20.4232 45.232 20.4041 45.2106 20.3806 45.195Z" fill="white" stroke="white" stroke-width="0.136807" stroke-miterlimit="10"/>
<path d="M23.169 41.4763C22.9325 41.3456 22.7088 41.1929 22.5009 41.0202C22.3974 40.9282 22.311 40.8186 22.2455 40.6965C22.1748 40.5642 22.1475 40.4137 22.0859 40.2769C22.0852 40.2652 22.0803 40.2541 22.0722 40.2456C22.0641 40.2371 22.0533 40.2317 22.0416 40.2303C22.03 40.229 22.0182 40.2317 22.0084 40.2382C21.9985 40.2446 21.9913 40.2543 21.9879 40.2655C21.8397 40.8378 21.3745 41.2027 20.882 41.4854C20.8659 41.4956 20.8531 41.5102 20.845 41.5274C20.8369 41.5446 20.8339 41.5638 20.8362 41.5827C20.8386 41.6016 20.8464 41.6194 20.8585 41.6341C20.8706 41.6487 20.8867 41.6596 20.9048 41.6655C21.1888 41.7705 21.4333 41.9609 21.6048 42.2105C21.6906 42.3447 21.7524 42.4928 21.7872 42.6482C21.8191 42.7828 21.9217 43.3984 22.0289 42.9447C22.1019 42.6391 22.1292 42.3496 22.3709 42.1193C22.6147 41.927 22.8812 41.7655 23.1644 41.6382C23.1783 41.6299 23.1899 41.6183 23.1981 41.6043C23.2063 41.5904 23.2109 41.5746 23.2113 41.5585C23.2118 41.5423 23.2081 41.5263 23.2007 41.5119C23.1933 41.4975 23.1824 41.4853 23.169 41.4763Z" fill="white"/>
<path d="M17.9429 39.1779C17.8114 39.1052 17.687 39.0204 17.5712 38.9248C17.513 38.8738 17.4643 38.8128 17.4275 38.7446C17.3888 38.6717 17.3728 38.5873 17.3386 38.5166C17.3386 38.5094 17.3357 38.5024 17.3306 38.4973C17.3255 38.4921 17.3185 38.4893 17.3113 38.4893C17.304 38.4893 17.297 38.4921 17.2919 38.4973C17.2868 38.5024 17.2839 38.5094 17.2839 38.5166C17.2336 38.6664 17.1533 38.8043 17.0478 38.9219C16.9423 39.0395 16.814 39.1344 16.6705 39.2007C16.6608 39.2049 16.6525 39.2119 16.6466 39.2208C16.6408 39.2297 16.6377 39.2402 16.6377 39.2508C16.6377 39.2615 16.6408 39.2719 16.6466 39.2808C16.6525 39.2897 16.6608 39.2967 16.6705 39.301C16.8293 39.3582 16.9664 39.4634 17.0627 39.602C17.11 39.6769 17.144 39.7594 17.1631 39.8459C17.1813 39.9212 17.2383 40.2632 17.2976 40.0101C17.3125 39.8423 17.3786 39.6831 17.4868 39.5541C17.6225 39.4464 17.7711 39.356 17.9292 39.285C17.9434 39.2868 17.9577 39.2829 17.9691 39.2742C17.9804 39.2654 17.9878 39.2525 17.9896 39.2383C17.9914 39.2241 17.9875 39.2097 17.9787 39.1984C17.97 39.1871 17.9571 39.1797 17.9429 39.1779Z" fill="white" stroke="white" stroke-width="0.0889245" stroke-miterlimit="10"/>
<path opacity="0.22" d="M93.7431 79.4906C93.7431 80.2635 91.194 80.7629 88.7702 80.7629C86.3464 80.7629 84.9692 80.2727 84.9692 79.4906C84.9692 78.7085 86.9324 78.0906 89.3562 78.0906C91.7799 78.0906 93.7431 78.7267 93.7431 79.4906Z" fill="#CC2B2B"/>
<path d="M91.9463 71.3528C89.762 73.0104 86.2233 71.501 84.2624 69.8046C83.9156 69.5098 83.6753 69.1092 83.5783 68.6645C83.1223 66.5372 86.49 66.015 86.5904 64.1043C86.6314 63.2698 86.0044 62.5789 85.5415 61.8835C84.4835 60.2874 84.1848 58.2923 84.4014 56.3975C84.6181 54.5027 85.334 52.7014 86.1617 50.9822C86.8457 49.5777 88.0428 47.9884 89.5659 48.3259C90.5441 48.5425 91.162 49.5161 91.4561 50.4783C91.8483 51.7985 91.7913 53.2145 91.5291 54.5711C91.4128 55.1685 91.2578 55.791 91.4174 56.3793C91.8301 57.8864 93.9437 58.2284 94.7121 59.5897C95.4805 60.9509 94.5616 62.6633 93.6998 63.9994C92.961 65.1395 92.5095 65.8531 92.9929 66.8313C93.1244 67.088 93.3058 67.3159 93.5265 67.5017C93.9962 67.9144 94.8672 69.1365 91.9463 71.3528Z" fill="#624FB5"/>
<path d="M85.9177 70.9742L87.2197 79.2852H91.6226L92.8014 70.6641L85.9177 70.9742Z" fill="#E04E4E"/>
<path d="M88.9183 50.6742C88.7906 53.9621 88.8156 57.2569 88.8225 60.5448C88.8225 63.6184 88.6697 66.7535 88.8749 69.8203C88.8784 69.8423 88.8896 69.8623 88.9065 69.8768C88.9235 69.8913 88.945 69.8992 88.9673 69.8992C88.9896 69.8992 89.0111 69.8913 89.028 69.8768C89.0449 69.8623 89.0562 69.8423 89.0596 69.8203C89.3971 66.7809 89.1486 63.5979 89.1349 60.5448C89.1212 57.2569 89.0915 53.9621 89.2124 50.6742C89.2124 50.4849 88.9274 50.4849 88.9183 50.6742Z" fill="#232049"/>
<path opacity="0.22" d="M62.0609 87.4115C70.8304 87.4115 77.9396 86.2825 77.9396 84.8897C77.9396 83.497 70.8304 82.3679 62.0609 82.3679C53.2913 82.3679 46.1821 83.497 46.1821 84.8897C46.1821 86.2825 53.2913 87.4115 62.0609 87.4115Z" fill="#CC2B2B"/>
<path d="M54.2653 83.8591C54.2653 83.8591 48.3826 83.8591 47.4135 84.6731C46.4445 85.4871 54.3861 85.006 54.3861 85.006L54.2653 83.8591Z" fill="#232049"/>
<path d="M75.9035 80.2429C75.9035 80.2429 69.6081 82.8514 69.2342 84.0621C68.8603 85.2729 76.3801 81.2827 76.3801 81.2827L75.9035 80.2429Z" fill="#232049"/>
<path d="M52.0784 33.2842C52.0784 33.2842 46.9686 55.4902 51.4742 83.978H54.265C54.265 83.978 54.2468 53.5407 58.3852 45.0473C58.3852 45.0473 66.9516 70.0305 73.4864 81.3558L76.0196 80.4278C76.0196 80.4278 66.4431 51.5798 64.4845 33.9386L52.0784 33.2842Z" fill="#624FB5"/>
<path d="M33.7739 31.0517C33.7739 31.0517 31.1974 29.1501 31.0377 29.2709C30.5817 29.6198 31.8563 30.68 31.8563 30.68C31.8563 30.68 28.7052 29.6334 28.5547 30.0963C28.4612 30.379 30.1622 31.1269 30.1622 31.1269C30.1622 31.1269 28.4931 30.94 28.3381 31.323C28.183 31.7061 30.2625 32.1621 30.2625 32.1621C30.2625 32.1621 29.0791 32.1872 28.9628 32.5543C28.8808 32.8051 33.5231 33.4663 33.5231 33.4663L33.7739 31.0517Z" fill="white"/>
<path d="M57.3545 14.1675C57.3545 14.1675 50.3705 15.2688 47.9809 18.5772C45.5914 21.8857 45.051 31.0449 37.8435 30.7644C35.3354 30.6664 33.8282 29.9732 33.8282 29.9732L32.5149 33.8882C32.5149 33.8882 38.9745 37.3243 44.1207 34.2006C49.2669 31.0768 52.0236 25.0094 52.0236 25.0094L50.505 40.5849L66.4658 41.3533C66.4658 41.3533 67.2752 24.827 66.1717 17.4759L61.9626 14.1606L57.3545 14.1675Z" fill="#232049"/>
<path d="M55.7861 2.13306C55.2161 4.41317 54.206 6.69329 54.2471 9.09197C54.2471 9.83073 54.4751 10.6105 55.0519 11.0802C55.6288 11.5499 56.3356 11.6183 56.9444 11.9604C57.0351 12.0023 57.1135 12.0667 57.1724 12.1473C57.2202 12.2461 57.2444 12.3546 57.2431 12.4643C57.2865 13.048 57.3366 13.6408 57.3708 14.204C57.3959 14.6121 57.9545 15.3053 57.9545 15.6222C58.5679 16.3063 59.5506 15.962 59.5506 15.962C60.8343 16.0235 61.8991 15.4444 61.9607 14.1607L62.4532 3.98679L55.7861 2.13306Z" fill="white"/>
<path d="M55.5263 4.15305C55.0155 3.89084 54.2357 2.92179 54.0624 2.37684C53.8891 1.83189 54.2198 0.415941 54.7191 0.135487C55.3028 -0.190569 56.0119 0.158288 56.6686 0.283694C57.6536 0.470664 58.6546 0.130926 59.6556 0.0716433C60.6565 0.0123603 61.849 0.39542 62.109 1.36219C62.1637 1.56284 62.2024 1.81821 62.3985 1.87749C62.4852 1.89353 62.5741 1.89353 62.6607 1.87749C63.436 1.84329 63.9331 2.77358 63.851 3.54426C63.7689 4.31494 63.3334 5.00353 63.1191 5.74913C62.6471 7.38169 63.0666 9.31751 62.2708 10.8178C61.6438 11.9989 62.4533 8.45791 61.2562 7.5299L60.6976 5.08106C60.6976 5.08106 56.6937 4.755 55.5263 4.15305Z" fill="#E04E4E"/>
<path d="M60.8228 7.24262C60.8228 7.24262 62.6605 5.58726 63.397 6.87552C64.1335 8.16379 60.8228 9.08039 60.8228 9.08039V7.24262Z" fill="white"/>
<path d="M57.2866 17.5578L58.071 28.158L61.1469 17.2317L58.9876 16.4451L57.2866 17.5578Z" fill="#E0E0E0"/>
<path d="M58.7024 18.251L57.0151 34.4945L57.7881 35.304L58.5246 34.5835L59.4115 18.3399L59.0558 17.4507L58.7024 18.251Z" fill="#CC2B2B"/>
<path d="M57.7446 24.2318L58.0068 27.6338L59.5117 23.1191L62.5214 24.494L59.3156 38.0379L55.2593 36.077L56.3058 24.9524L57.7446 24.2318Z" fill="#232049"/>
<path d="M59.6304 28.7281L68.6528 27.417L70.1371 39.4925L60.7066 40.4L59.6304 28.7281Z" fill="#CC2B2B"/>
<path d="M61.9627 14.1284C61.9627 14.1284 75.4382 17.5942 75.3607 28.7713C75.2968 37.967 66.1878 37.324 66.1878 37.324V33.6599C66.1878 33.6599 73.5388 32.0045 69.8633 25.5723C66.1878 19.1401 60.4897 24.471 60.4897 24.471L61.9627 14.1284Z" fill="#232049"/>
<path d="M66.3544 34.1022C66.3544 34.1022 63.3059 33.1309 63.1964 33.2951C62.8818 33.7716 64.4254 34.3667 64.4254 34.3667C64.4254 34.3667 61.1056 34.3872 61.1101 34.8752C61.1101 35.1739 62.9661 35.3312 62.9661 35.3312C62.9661 35.3312 61.3244 35.6892 61.2971 36.1019C61.2697 36.5146 63.3879 36.2797 63.3879 36.2797C63.3879 36.2797 62.2752 36.6833 62.2821 37.0686C62.2821 37.3331 66.8993 36.4576 66.8993 36.4576L66.3544 34.1022Z" fill="white"/>
<path d="M66.1765 33.6487V37.3242L67.4488 36.9685V34.1457L66.1765 33.6487Z" fill="#232049"/>
<path d="M57.4161 9.26309C57.4077 9.21056 57.3887 9.16029 57.3601 9.11539C57.3316 9.07049 57.2942 9.0319 57.2502 9.00199C57.2062 8.97209 57.1565 8.95151 57.1043 8.94151C57.052 8.93152 56.9983 8.93232 56.9464 8.94387C56.7571 8.98492 56.5815 9.12172 56.39 9.14908C56.1278 9.18785 55.8633 9.0214 55.6034 9.08752C55.5774 9.09274 55.5529 9.10361 55.5316 9.11938C55.5103 9.13514 55.4928 9.15541 55.4802 9.17872C55.461 9.22641 55.4532 9.27796 55.4574 9.32921C55.4666 9.51405 55.5452 9.68862 55.6775 9.81799C55.8098 9.94736 55.9861 10.022 56.1711 10.0269C56.6363 10.0839 57.5187 9.90608 57.4161 9.26309Z" fill="#681D1D"/>
<path d="M57.4026 9.54345C57.343 9.52472 57.282 9.51099 57.2202 9.50241C56.828 9.45453 56.1485 9.57309 55.998 9.98579C56.0577 10.0043 56.1187 10.018 56.1805 10.0268C56.5612 10.0747 57.243 9.94703 57.4026 9.54345Z" fill="#BA3232"/>
<path d="M60.6974 5.08807C60.6974 5.08807 60.1706 6.40141 60.7635 7.01932C60.7635 7.01932 60.4169 8.13202 60.7886 8.18218C61.1602 8.23234 61.6276 6.2532 61.6276 6.2532C61.6276 6.2532 61.7918 4.51348 60.6974 5.08807Z" fill="#E04E4E"/>
<path d="M59.3751 5.65575C60.2165 5.35022 61.0989 5.088 61.9129 4.71407C61.9904 4.67758 61.9357 4.55446 61.8559 4.57726C61.0008 4.82351 60.1663 5.19973 59.3477 5.51667C59.2634 5.54859 59.2976 5.68539 59.3865 5.65575H59.3751Z" fill="white"/>
<path d="M57.2133 14.2926L54.6915 15.5398C54.6704 15.5504 54.6527 15.5667 54.6403 15.5869C54.6279 15.607 54.6213 15.6302 54.6213 15.6538C54.6213 15.6774 54.6279 15.7006 54.6403 15.7207C54.6527 15.7409 54.6704 15.7572 54.6915 15.7678C55.4918 16.3629 56.5042 16.4222 55.4713 17.4779C55.3208 17.6307 54.7052 17.9978 54.6528 18.244C54.5547 18.7 54.9993 19.5574 55.1293 19.9837C55.9114 22.5283 56.7071 25.0752 57.5713 27.5925C57.5789 27.6143 57.5945 27.6324 57.6149 27.6432C57.6354 27.654 57.6592 27.6566 57.6815 27.6505C57.7037 27.6444 57.7229 27.6301 57.735 27.6105C57.7472 27.5908 57.7514 27.5673 57.7469 27.5446C57.1609 25.3853 56.4335 23.2648 55.7632 21.1329C55.5352 20.417 55.0677 19.4958 55.0335 18.7434C55.0085 18.2075 55.0062 18.2759 55.469 17.8313C55.8441 17.4832 56.1674 17.0832 56.429 16.6434C56.4453 16.6135 56.4497 16.5785 56.4412 16.5455C56.4328 16.5124 56.4121 16.4839 56.3834 16.4655C55.998 16.1851 55.0153 15.631 55.0153 15.631L57.2954 14.4362C57.3866 14.3861 57.3068 14.2515 57.2133 14.2971V14.2926Z" fill="#624FB5"/>
<path d="M62.3003 14.815C62.6606 15.1456 64.2247 16.5684 64.2247 16.5684C64.2247 16.5684 63.1029 16.8352 62.6697 17.0153C62.6371 17.0254 62.6095 17.0475 62.5926 17.0771C62.5756 17.1067 62.5706 17.1417 62.5785 17.1749C62.8316 18.0505 63.6319 18.7915 63.3856 19.626C63.1394 20.4606 62.4189 21.3475 61.9856 22.1C60.8684 24.0381 59.7055 25.9511 58.602 27.8937C58.5958 27.9041 58.5918 27.9155 58.5901 27.9274C58.5883 27.9393 58.589 27.9514 58.5919 27.9631C58.5949 27.9747 58.6001 27.9856 58.6073 27.9953C58.6145 28.0049 58.6235 28.013 58.6339 28.0191C58.6442 28.0253 58.6556 28.0293 58.6675 28.031C58.6794 28.0328 58.6915 28.0321 58.7032 28.0292C58.7148 28.0262 58.7258 28.021 58.7354 28.0138C58.745 28.0066 58.7531 27.9976 58.7593 27.9872C60.2573 25.7071 61.6026 23.3244 62.9433 20.9553C63.2009 20.4993 63.8553 19.7332 63.8895 19.1928C63.9055 18.9648 63.6615 18.844 63.5658 18.6456C63.3241 18.1531 62.6811 17.6036 63.1553 17.0951C63.3309 16.9036 64.227 16.8671 64.4824 16.7554C64.503 16.7496 64.5219 16.7386 64.537 16.7234C64.5521 16.7081 64.5629 16.6892 64.5685 16.6684C64.574 16.6477 64.574 16.6259 64.5685 16.6051C64.563 16.5844 64.5522 16.5654 64.5371 16.5502C63.8325 15.9323 63.1211 15.3189 62.4143 14.7033C62.3368 14.6349 62.2251 14.7443 62.3003 14.815Z" fill="#624FB5"/>
<path d="M58.2802 30.1714C58.2284 30.1105 58.157 30.0696 58.0783 30.0559C57.9996 30.0421 57.9185 30.0564 57.8492 30.0962C57.8133 30.1163 57.7836 30.1459 57.7631 30.1816C57.7426 30.2173 57.7322 30.2579 57.7329 30.2991C57.7329 30.5453 58.0043 30.5681 58.189 30.5271C58.2235 30.5165 58.2547 30.4972 58.2797 30.4711C58.3047 30.4451 58.3226 30.413 58.3317 30.3781C58.3409 30.3431 58.3409 30.3064 58.3319 30.2715C58.3229 30.2365 58.3051 30.2044 58.2802 30.1782V30.1714Z" fill="#624FB5"/>
<path d="M58.3147 34.4651C58.2577 34.3789 58.2168 34.2832 58.1939 34.1824C58.1879 34.1575 58.1751 34.1347 58.157 34.1166C58.1389 34.0985 58.1162 34.0858 58.0913 34.0798C57.6809 34.0205 57.5988 34.6521 58.0252 34.6156C58.0674 34.6108 58.1079 34.5964 58.1436 34.5734C58.1794 34.5505 58.2094 34.5197 58.2314 34.4834C58.2534 34.4471 58.2668 34.4062 58.2706 34.3639C58.2744 34.3216 58.2684 34.279 58.2532 34.2394C58.231 34.1507 58.18 34.072 58.1081 34.0154C58.0363 33.9589 57.9478 33.9278 57.8564 33.927C57.8274 33.9267 57.7988 33.9342 57.7735 33.9486C57.7483 33.9631 57.7273 33.9839 57.7128 34.0091C57.6781 34.0744 57.6625 34.1482 57.6677 34.222C57.673 34.2958 57.6989 34.3666 57.7424 34.4264C57.7805 34.4867 57.8407 34.5298 57.9102 34.5465C57.9796 34.5631 58.0528 34.5519 58.1141 34.5153C58.1449 34.4955 58.1689 34.4668 58.1828 34.4329C58.1966 34.399 58.1997 34.3617 58.1916 34.326C58.1861 34.2957 58.1732 34.2671 58.1542 34.2429C58.1351 34.2187 58.1104 34.1995 58.0822 34.1869C58.0496 34.1682 58.0113 34.162 57.9745 34.1694C57.9376 34.1767 57.9047 34.1973 57.8819 34.2271C57.859 34.2569 57.8478 34.294 57.8502 34.3315C57.8527 34.369 57.8687 34.4043 57.8952 34.4309L57.9134 34.4537L57.8724 34.2964V34.326L57.9499 34.2257C57.9955 34.2257 58.0138 34.2097 58.0046 34.1778L57.861 34.2622C57.9066 34.2622 57.9568 34.3078 57.934 34.3557L58.032 34.2804C58.032 34.2804 58.0639 34.3602 58.0981 34.3602C58.1323 34.3602 58.1528 34.3146 58.1711 34.3146C58.2235 34.3146 58.2714 34.4241 58.2988 34.4788C58.2988 34.4925 58.3284 34.4788 58.3216 34.4651H58.3147Z" fill="#624FB5"/>
<path d="M57.5942 37.8646C57.6008 37.8646 57.6072 37.862 57.6119 37.8573C57.6166 37.8526 57.6193 37.8462 57.6193 37.8395C57.6193 37.8329 57.6166 37.8265 57.6119 37.8218C57.6072 37.8171 57.6008 37.8145 57.5942 37.8145C57.5875 37.8145 57.5811 37.8171 57.5764 37.8218C57.5717 37.8265 57.5691 37.8329 57.5691 37.8395C57.5691 37.8462 57.5717 37.8526 57.5764 37.8573C57.5811 37.862 57.5875 37.8646 57.5942 37.8646Z" fill="#624FB5"/>
<path d="M57.5645 37.8283C57.3843 38.0859 57.7925 38.323 57.9475 38.0449C58.1756 37.6618 57.414 37.5182 57.3593 37.9445C57.3045 38.3709 58.0433 38.3869 57.9681 37.9445C57.9615 37.8996 57.9459 37.8564 57.9221 37.8177C57.8984 37.7789 57.867 37.7454 57.8299 37.7192C57.7927 37.693 57.7507 37.6746 57.7063 37.6651C57.6618 37.6556 57.6159 37.6553 57.5713 37.6641C57.5251 37.6777 57.482 37.7003 57.4446 37.7306C57.4071 37.7609 57.376 37.7984 57.3531 37.8408C57.3302 37.8832 57.316 37.9297 57.3112 37.9776C57.3063 38.0256 57.3111 38.074 57.3251 38.1201C57.3316 38.1434 57.3427 38.1652 57.3578 38.1842C57.3729 38.2032 57.3915 38.219 57.4128 38.2306C57.434 38.2423 57.4573 38.2496 57.4814 38.2522C57.5055 38.2547 57.5299 38.2525 57.5531 38.2455C57.5926 38.2393 57.6301 38.2235 57.6623 38.1996C57.6945 38.1758 57.7204 38.1445 57.7379 38.1084C57.7553 38.0724 57.7638 38.0326 57.7626 37.9926C57.7614 37.9525 57.7505 37.9134 57.7309 37.8784C57.7171 37.8558 57.6976 37.8371 57.6745 37.8241C57.6513 37.8111 57.6252 37.8043 57.5987 37.8043C57.5721 37.8043 57.546 37.8111 57.5229 37.8241C57.4997 37.8371 57.4803 37.8558 57.4664 37.8784C57.4368 37.9081 57.4345 37.9149 57.4664 37.9012L57.6944 38.0266C57.6878 38.0173 57.6842 38.0062 57.6842 37.9947C57.6842 37.9833 57.6878 37.9721 57.6944 37.9628C57.7104 37.9035 57.7218 37.9172 57.7264 38.0084C57.7264 38.0084 57.8221 37.9924 57.8358 37.9947L57.7309 37.9514C57.756 37.9856 57.7492 37.997 57.7127 37.9879C57.6762 37.9787 57.642 37.9628 57.6762 37.8784C57.7104 37.7941 57.6238 37.7713 57.585 37.826L57.5645 37.8283Z" fill="#624FB5"/>
<path d="M52.0375 36.941C53.0863 36.9844 54.2811 37.185 55.314 36.973C55.3298 36.9681 55.3437 36.9583 55.3536 36.9449C55.3634 36.9316 55.3687 36.9154 55.3687 36.8989C55.3687 36.8823 55.3634 36.8661 55.3536 36.8528C55.3437 36.8395 55.3298 36.8296 55.314 36.8248C54.2925 36.5671 53.0863 36.713 52.0375 36.7108C52.0111 36.716 51.9874 36.7303 51.9704 36.7511C51.9534 36.7719 51.9441 36.7979 51.9441 36.8248C51.9441 36.8516 51.9534 36.8777 51.9704 36.8984C51.9874 36.9192 52.0111 36.9335 52.0375 36.9388V36.941Z" fill="#624FB5"/>
<path d="M34.079 33.5895C34.5875 32.8417 35.137 31.9433 35.2624 31.029C35.2624 30.9469 35.1552 30.8716 35.1119 30.9651C34.7106 31.8179 34.453 32.7071 33.9719 33.5234C33.9285 33.5964 34.038 33.6579 34.0836 33.5895H34.079Z" fill="#624FB5"/>
<path d="M45.1446 28.1695C45.3241 28.2528 45.4978 28.348 45.6645 28.4545C45.808 28.5695 45.9659 28.6653 46.1342 28.7395C46.1525 28.7439 46.1718 28.743 46.1896 28.7367C46.2074 28.7304 46.223 28.7192 46.2346 28.7042C46.2462 28.6893 46.2532 28.6713 46.2548 28.6525C46.2564 28.6337 46.2525 28.6148 46.2436 28.5982C46.1346 28.448 45.9906 28.3267 45.8241 28.2448C45.6458 28.137 45.4599 28.0425 45.2677 27.962C45.1287 27.9005 45.0033 28.1011 45.1446 28.1695Z" fill="#624FB5"/>
<path d="M45.9746 27.5975C46.1849 27.7701 46.4144 27.9177 46.6587 28.0375C46.7567 28.0763 46.8114 27.9395 46.7544 27.8733C46.5573 27.6882 46.3392 27.5268 46.1046 27.3922C45.9815 27.3056 45.8629 27.5108 45.986 27.5975H45.9746Z" fill="#624FB5"/>
<path d="M72.0911 28.302C72.2872 28.302 72.481 28.3179 72.6771 28.3202C72.8532 28.3393 73.0313 28.3285 73.2038 28.2883C73.224 28.2827 73.2419 28.2707 73.2546 28.254C73.2673 28.2373 73.2742 28.2169 73.2742 28.1959C73.2742 28.1749 73.2673 28.1545 73.2546 28.1379C73.2419 28.1212 73.224 28.1091 73.2038 28.1036C73.0313 28.0634 72.8532 28.0526 72.6771 28.0717C72.481 28.0717 72.2872 28.0717 72.0911 28.0899C72.0656 28.0936 72.0424 28.1064 72.0256 28.1259C72.0088 28.1453 71.9995 28.1702 71.9995 28.1959C71.9995 28.2216 72.0088 28.2465 72.0256 28.266C72.0424 28.2854 72.0656 28.2982 72.0911 28.302Z" fill="#624FB5"/>
<path d="M72.0295 27.6724C72.3681 27.6665 72.7042 27.6136 73.0282 27.515C73.0421 27.5066 73.0533 27.4944 73.0604 27.4798C73.0676 27.4652 73.0703 27.4489 73.0684 27.4328C73.0665 27.4166 73.0599 27.4014 73.0496 27.3889C73.0392 27.3764 73.0254 27.3671 73.0099 27.3623C72.6701 27.35 72.3302 27.3846 71.9998 27.4649C71.8835 27.4808 71.9109 27.6929 72.0295 27.6724Z" fill="#624FB5"/>
<path d="M66.9335 36.9252C67.3062 36.2406 67.4141 35.4429 67.2368 34.6839C67.2325 34.6536 67.2165 34.6263 67.1921 34.6079C67.1677 34.5895 67.137 34.5816 67.1068 34.5858C67.0766 34.5901 67.0493 34.6061 67.0309 34.6305C67.0125 34.6549 67.0045 34.6856 67.0088 34.7158C66.9814 35.0806 67.0088 35.45 66.9632 35.8148C66.9176 36.1796 66.8264 36.5262 66.7876 36.8865C66.7876 36.964 66.8925 36.9845 66.929 36.9252H66.9335Z" fill="#624FB5"/>
<path d="M57.6033 41.8868C57.5713 42.7556 57.4847 43.6973 57.6283 44.5569C57.6324 44.5731 57.6418 44.5875 57.6551 44.5978C57.6683 44.6081 57.6845 44.6137 57.7013 44.6137C57.7181 44.6137 57.7343 44.6081 57.7476 44.5978C57.7608 44.5875 57.7702 44.5731 57.7743 44.5569C57.9179 43.6973 57.829 42.7556 57.7971 41.8868C57.7935 41.8637 57.7818 41.8426 57.764 41.8273C57.7462 41.8121 57.7236 41.8037 57.7002 41.8037C57.6767 41.8037 57.6541 41.8121 57.6363 41.8273C57.6186 41.8426 57.6068 41.8637 57.6033 41.8868Z" fill="#232049"/>
<path d="M61.087 42.1921C61.7505 43.5077 63.1003 44.8279 64.5596 45.1927C64.5783 45.1969 64.5978 45.1945 64.6149 45.1858C64.632 45.1771 64.6455 45.1627 64.653 45.1451C64.6606 45.1275 64.6618 45.1078 64.6564 45.0894C64.651 45.0711 64.6393 45.0552 64.6234 45.0445C63.9759 44.6409 63.3169 44.3103 62.7355 43.8064C62.1734 43.2991 61.6784 42.7221 61.2625 42.0895C61.2472 42.0699 61.2254 42.0565 61.201 42.0519C61.1766 42.0472 61.1514 42.0515 61.1299 42.0641C61.1085 42.0766 61.0923 42.0965 61.0844 42.12C61.0765 42.1435 61.0774 42.1691 61.087 42.1921Z" fill="#232049"/>
<path d="M51.2648 44.1095C52.5439 43.633 54.2996 43.031 54.9563 41.7222C54.9643 41.7067 54.9666 41.6888 54.9629 41.6717C54.9592 41.6546 54.9496 41.6394 54.9358 41.6286C54.9221 41.6178 54.905 41.6121 54.8875 41.6126C54.87 41.613 54.8532 41.6195 54.84 41.631C54.2563 42.1281 53.7501 42.6343 53.0752 43.0196C52.4629 43.3561 51.8335 43.6605 51.1896 43.9317C51.0869 43.9773 51.1599 44.1597 51.2648 44.1118V44.1095Z" fill="#232049"/>
<path d="M65.6522 60.2054C66.2872 60.2558 66.9263 60.2034 67.5447 60.0504C67.5619 60.046 67.5769 60.0354 67.5869 60.0207C67.5969 60.006 67.6012 59.9882 67.5989 59.9705C67.5967 59.9529 67.5881 59.9367 67.5747 59.9249C67.5614 59.9132 67.5442 59.9067 67.5264 59.9067C66.8994 59.9204 66.2815 60.023 65.6522 60.0139C65.6268 60.0139 65.6024 60.024 65.5844 60.042C65.5665 60.0599 65.5564 60.0843 65.5564 60.1097C65.5564 60.1351 65.5665 60.1594 65.5844 60.1774C65.6024 60.1954 65.6268 60.2054 65.6522 60.2054Z" fill="#232049"/>
<path d="M66.2949 61.0601C66.7327 61.1194 67.2799 61.1696 67.6858 60.9644C67.7007 60.9547 67.7122 60.9406 67.7186 60.924C67.725 60.9074 67.726 60.8892 67.7215 60.872C67.7169 60.8548 67.7071 60.8394 67.6933 60.8282C67.6795 60.8169 67.6625 60.8103 67.6447 60.8093C67.4167 60.8093 67.207 60.88 66.9858 60.9028C66.7635 60.9222 66.54 60.9222 66.3177 60.9028C66.2265 60.9028 66.206 61.0487 66.2949 61.0601Z" fill="#232049"/>
<path d="M50.6355 60.1869C51.1257 60.2416 51.6911 60.3716 52.1814 60.3123C52.2062 60.3116 52.2301 60.302 52.2485 60.2854C52.267 60.2687 52.279 60.246 52.2823 60.2213C52.2855 60.1967 52.28 60.1716 52.2665 60.1507C52.253 60.1298 52.2325 60.1143 52.2087 60.1071C51.7253 59.968 51.1348 60.0045 50.6355 59.9817C50.5009 59.9817 50.5078 60.1732 50.6355 60.1869Z" fill="#232049"/>
<path d="M50.9386 59.1016C51.405 59.2725 51.8918 59.3813 52.3865 59.4254C52.4023 59.4258 52.4177 59.4209 52.4304 59.4115C52.4431 59.4021 52.4522 59.3888 52.4564 59.3736C52.4606 59.3584 52.4596 59.3422 52.4536 59.3276C52.4475 59.313 52.4367 59.3009 52.423 59.2932C51.9593 59.1086 51.4732 58.9859 50.9774 58.9284C50.9561 58.9245 50.9342 58.9288 50.9159 58.9404C50.8976 58.9519 50.8843 58.9699 50.8786 58.9908C50.8729 59.0116 50.8751 59.0338 50.885 59.0531C50.8948 59.0724 50.9115 59.0872 50.9318 59.0948L50.9386 59.1016Z" fill="#232049"/>
<path d="M58.0593 6.87546C58.1198 6.87546 58.1778 6.85143 58.2205 6.80867C58.2633 6.76591 58.2873 6.70792 58.2873 6.64745C58.2873 6.58697 58.2633 6.52898 58.2205 6.48622C58.1778 6.44346 58.1198 6.41943 58.0593 6.41943C57.9988 6.41943 57.9408 6.44346 57.8981 6.48622C57.8553 6.52898 57.8313 6.58697 57.8313 6.64745C57.8313 6.70792 57.8553 6.76591 57.8981 6.80867C57.9408 6.85143 57.9988 6.87546 58.0593 6.87546Z" fill="#232049"/>
<path d="M55.6948 6.48117C55.7553 6.48117 55.8133 6.45715 55.856 6.41439C55.8988 6.37163 55.9228 6.31363 55.9228 6.25316C55.9228 6.19269 55.8988 6.13469 55.856 6.09193C55.8133 6.04917 55.7553 6.02515 55.6948 6.02515C55.6343 6.02515 55.5763 6.04917 55.5336 6.09193C55.4908 6.13469 55.4668 6.19269 55.4668 6.25316C55.4668 6.31363 55.4908 6.37163 55.5336 6.41439C55.5763 6.45715 55.6343 6.48117 55.6948 6.48117Z" fill="#232049"/>
<g opacity="0.17">
<path d="M59.2425 8.23662C59.3908 7.81024 58.8754 7.41578 58.4855 7.56627C58.4026 7.59084 58.3262 7.63377 58.2621 7.69186C58.1979 7.74996 58.1477 7.82173 58.1151 7.90187C58.0825 7.98201 58.0683 8.06847 58.0736 8.15483C58.0789 8.2412 58.1036 8.32526 58.1458 8.40079C58.2002 8.5135 58.2811 8.61136 58.3816 8.68601C58.482 8.76066 58.5991 8.80987 58.7227 8.82945C58.8814 8.84767 59.0415 8.80976 59.1752 8.7223C59.3088 8.63484 59.4077 8.50335 59.4546 8.35063C59.4935 8.20659 59.4843 8.05376 59.4283 7.91544C59.3723 7.77713 59.2727 7.66091 59.1445 7.58451C58.9337 7.47607 58.6968 7.42869 58.4605 7.4477C58.3148 7.4512 58.1762 7.51077 58.0734 7.61399C57.9706 7.71721 57.9116 7.85612 57.9087 8.00177C57.854 8.60144 58.4696 9.11675 59.0259 8.77017C59.3223 8.58776 59.4227 8.09982 59.0829 7.90145C59.0299 7.8707 58.9707 7.85201 58.9096 7.84672C58.8595 7.84672 58.6452 7.87637 58.7774 7.84672C58.5197 7.89005 58.7318 7.83076 58.8253 7.90145C58.9188 7.97213 58.9963 8.08842 58.9621 8.17962L58.823 8.40763L58.8526 8.37799L58.3145 8.51936C58.3782 8.5388 58.4429 8.55478 58.5083 8.56724C58.7113 8.61512 58.538 8.63564 58.4012 8.41675L58.3237 8.1249L58.3351 8.04509L58.4833 7.792L58.5403 7.74412L58.8298 7.66431C59.1126 7.89233 59.2106 7.94477 59.1194 7.8034C59.1377 7.94933 59.1559 8.09526 59.1764 8.24118C59.165 8.26854 59.1559 8.29819 59.1468 8.32555L58.953 8.51708C58.8435 8.5604 58.8595 8.55128 59.0031 8.49428C59.0093 8.48765 59.0172 8.48291 59.0259 8.4806C59.1249 8.41953 59.1986 8.32482 59.2334 8.21382L59.2425 8.23662Z" fill="#CC2B2B"/>
</g>
<g opacity="0.17">
<path d="M55.0975 7.06462C55.0356 7.04832 54.9708 7.04711 54.9084 7.06109C54.8461 7.07507 54.788 7.10383 54.739 7.14495C54.6901 7.18607 54.6517 7.23834 54.6272 7.29738C54.6027 7.35641 54.5927 7.42047 54.5981 7.48416C54.6077 7.55531 54.6339 7.62319 54.6747 7.68229C54.7154 7.74138 54.7696 7.79002 54.8327 7.82424C54.8958 7.85846 54.9661 7.8773 55.0378 7.87922C55.1096 7.88114 55.1808 7.86609 55.2457 7.8353C55.3201 7.81114 55.3854 7.76475 55.4327 7.70238C55.4799 7.64001 55.507 7.56465 55.5102 7.48644C55.5135 7.37048 55.4748 7.25721 55.4013 7.1675C55.3277 7.07779 55.2242 7.01769 55.1098 6.99825C54.9955 6.97882 54.8779 7.00137 54.7789 7.06175C54.6798 7.12213 54.6059 7.21627 54.5707 7.32684C54.4043 7.93335 55.3027 8.08611 55.4965 7.54345C55.5118 7.48294 55.5112 7.41948 55.4946 7.3593C55.4781 7.29911 55.4462 7.24426 55.402 7.20012C55.3579 7.15598 55.303 7.12407 55.2428 7.10751C55.1827 7.09095 55.1192 7.09031 55.0587 7.10566L54.9789 7.13759C54.8786 7.17179 54.9219 7.18319 55.1134 7.16723L55.2981 7.48872L55.2799 7.55485L55.1476 7.68709H54.9401L54.8945 7.66657L54.801 7.50468V7.49328C54.8626 7.39068 54.9219 7.28579 54.9812 7.18319H55.0769L55.232 7.27439L55.2115 7.25159C55.2434 7.30175 55.273 7.3542 55.3027 7.40664V7.5024L55.2137 7.65289L55.232 7.63693L55.004 7.73498H55.0291C55.1079 7.73202 55.1832 7.70134 55.2417 7.64832C55.3001 7.59531 55.338 7.52337 55.3486 7.44517C55.3593 7.36697 55.342 7.28752 55.2998 7.22083C55.2576 7.15414 55.1932 7.10447 55.118 7.08058L55.0975 7.06462Z" fill="#CC2B2B"/>
</g>
<path d="M56.8212 6.10249C56.5362 6.90509 56.1372 7.92658 55.1658 8.04059C55.1287 8.04136 55.0925 8.05293 55.0618 8.07388C55.0311 8.09483 55.0072 8.12426 54.9929 8.15859C54.9787 8.19291 54.9747 8.23064 54.9815 8.26718C54.9883 8.30372 55.0056 8.33748 55.0313 8.36436C55.2958 8.69954 55.7951 8.88651 56.1394 8.56501C56.1514 8.5526 56.1594 8.53698 56.1626 8.52007C56.1659 8.50316 56.1641 8.48568 56.1576 8.46974C56.1511 8.45381 56.1401 8.44011 56.1259 8.43031C56.1118 8.4205 56.0951 8.41502 56.0779 8.41452C55.7609 8.37804 55.5147 8.3598 55.3003 8.09531L55.216 8.41224C56.356 8.25264 56.7505 7.12398 57.015 6.15493C57.0184 6.14221 57.0193 6.12893 57.0177 6.11585C57.016 6.10278 57.0117 6.09016 57.0052 6.07873C56.9986 6.0673 56.9898 6.05727 56.9794 6.04922C56.969 6.04116 56.957 6.03525 56.9443 6.03181C56.9316 6.02836 56.9183 6.02746 56.9052 6.02915C56.8922 6.03084 56.8795 6.03508 56.8681 6.04165C56.8567 6.04821 56.8467 6.05696 56.8386 6.0674C56.8305 6.07784 56.8246 6.08976 56.8212 6.10249Z" fill="#E04E4E"/>
<path d="M61.6892 8.01324C61.8582 7.86231 62.0469 7.73499 62.2501 7.63474C62.4474 7.57006 62.6408 7.49393 62.8293 7.40673C62.8431 7.39817 62.8543 7.38577 62.8612 7.37103C62.8682 7.35629 62.8708 7.33985 62.8686 7.32368C62.8664 7.30752 62.8596 7.29233 62.849 7.27995C62.8384 7.26758 62.8244 7.25855 62.8087 7.25396C62.5823 7.23149 62.355 7.28613 62.1635 7.40901C61.9359 7.52743 61.7361 7.69299 61.5775 7.89467C61.566 7.91004 61.5604 7.92905 61.5617 7.94821C61.5631 7.96737 61.5713 7.9854 61.5849 7.99899C61.5985 8.01257 61.6165 8.0208 61.6357 8.02216C61.6548 8.02352 61.6738 8.01792 61.6892 8.0064V8.01324Z" fill="#CC2B2B"/>
<path d="M58.4353 16.5637L58.7021 18.251L59.4112 18.3399L60.0337 16.5637H58.4353Z" fill="#CC2B2B"/>
<path d="M57.3546 14.1672C57.3546 14.1672 56.6706 17.0789 57.0308 17.9681C57.3911 18.8574 59.1445 16.6525 59.1445 16.6525C59.1445 16.6525 59.9927 18.0913 60.7907 18.447C61.5888 18.8027 61.9627 15.5489 61.9627 14.1284C61.9627 14.1284 59.1149 18.2486 57.3546 14.1672Z" fill="#EDEDED"/>
<path d="M57.8974 5.63724C57.996 5.71071 58.1032 5.77196 58.2166 5.81965C58.3221 5.89669 58.4391 5.9567 58.5632 5.9975C58.6275 6.01293 58.6948 6.00976 58.7574 5.98836C58.82 5.96696 58.8752 5.92822 58.9166 5.87666C58.9562 5.82376 58.9797 5.7605 58.9842 5.69454C58.9886 5.62858 58.9739 5.56274 58.9417 5.505C58.8364 5.35221 58.6792 5.24283 58.4993 5.19718C58.348 5.13633 58.1816 5.12359 58.0228 5.1607C57.9751 5.17455 57.9319 5.20051 57.8972 5.23604C57.8626 5.27157 57.8378 5.31547 57.8251 5.36346C57.8125 5.41145 57.8125 5.46189 57.8252 5.50987C57.8378 5.55785 57.8627 5.60173 57.8974 5.63724Z" fill="#E04E4E"/>
<path d="M56.338 4.93048C56.1442 4.70247 55.6676 4.71843 55.426 4.84611C55.3665 4.88205 55.3188 4.93451 55.2887 4.99709C55.2585 5.05967 55.2472 5.12967 55.2562 5.19855C55.2651 5.26744 55.2939 5.33223 55.339 5.38504C55.3842 5.43785 55.4437 5.47638 55.5103 5.49595C55.6493 5.51369 55.7903 5.50829 55.9276 5.47999C56.0054 5.47854 56.0821 5.46167 56.1533 5.43036C56.2246 5.39905 56.2889 5.35392 56.3426 5.29758C56.3885 5.24751 56.4141 5.18201 56.4141 5.11403C56.4141 5.04605 56.3885 4.98055 56.3426 4.93048H56.338Z" fill="#E04E4E"/>
<path d="M59.9108 31.8018C60.5606 31.2363 61.1375 30.5796 61.7668 29.9777C62.3961 29.3757 63.0961 28.8604 63.6912 28.2402C63.7125 28.2142 63.7244 28.1817 63.7248 28.1481C63.7252 28.1144 63.7141 28.0816 63.6935 28.0551C63.6728 28.0286 63.6437 28.0099 63.6109 28.0021C63.5782 27.9943 63.5438 27.9979 63.5133 28.0122C62.7854 28.5083 62.1107 29.0784 61.5 29.7132C60.8505 30.3052 60.2482 30.9471 59.6987 31.633C59.6029 31.7607 59.8013 31.8884 59.9108 31.7949V31.8018Z" fill="white"/>
<path d="M60.093 36.5739C61.1646 37.8668 62.5145 39.3101 63.9829 40.156C64.0078 40.1712 64.0376 40.1767 64.0663 40.1714C64.0951 40.166 64.1209 40.1502 64.1387 40.127C64.1565 40.1038 64.1651 40.0749 64.1629 40.0457C64.1606 40.0165 64.1477 39.9892 64.1265 39.969C63.5565 39.3169 62.8086 38.797 62.1656 38.2156C61.5226 37.6342 60.8819 37.0231 60.2845 36.3915C60.1637 36.2616 59.9835 36.4508 60.093 36.5831V36.5739Z" fill="white"/>
<path d="M53.1777 23.6046L55.1888 23.4974L55.1364 22.4941L53.1869 22.6218L53.1777 23.6046Z" fill="white"/>
</svg>
