<svg width="84" height="79" viewBox="0 0 84 79" fill="none" xmlns="http://www.w3.org/2000/svg">
<path d="M10.2283 63.9706H77.4031C79.8833 60.1214 80.4031 55.3258 79.6849 50.8019C78.9406 46.2346 76.5579 42.0949 72.9825 39.1571C70.171 36.8654 66.7186 35.4011 64.1312 32.8614C57.5062 26.3554 58.4963 15.0855 52.9169 7.66289C51.2938 5.50375 49.1754 3.7665 46.7402 2.59759C44.305 1.42867 41.6245 0.862358 38.9246 0.946389C36.2248 1.03042 33.5847 1.76233 31.2269 3.08042C28.8692 4.39851 26.8629 6.26414 25.3771 8.52003C22.0041 13.653 21.5378 20.4248 17.6231 25.1649C15.5239 27.7046 12.6053 29.4308 10.3136 31.7979C6.34533 35.909 4.4981 41.7979 4.62906 47.5182C4.76001 53.2385 7.45645 58.9666 10.2283 63.9706Z" fill="#FCF0DE"/>
<path d="M23.1171 4.2168H8.29956V21.5998H23.1171V4.2168Z" stroke="#FCDBBA" stroke-width="0.198413" stroke-miterlimit="10"/>
<path d="M15.7085 17.6435C14.9089 17.658 14.1144 17.513 13.3714 17.2171C12.6285 16.9211 11.9519 16.4801 11.3813 15.9198C10.8107 15.3594 10.3575 14.691 10.0481 13.9535C9.7387 13.2161 9.57935 12.4243 9.57935 11.6246C9.57935 10.8249 9.7387 10.0331 10.0481 9.29568C10.3575 8.55822 10.8107 7.88979 11.3813 7.32945C11.9519 6.76911 12.6285 6.32808 13.3714 6.03212C14.1144 5.73616 14.9089 5.59121 15.7085 5.60573V7.51446C15.043 7.51422 14.3874 7.67554 13.798 7.98457C13.2086 8.29359 12.703 8.74108 12.3247 9.2886C11.9464 9.83612 11.7067 10.4673 11.6261 11.1279C11.5455 11.7885 11.6265 12.4588 11.8622 13.0812C12.0978 13.7036 12.481 14.2595 12.9789 14.7011C13.4767 15.1427 14.0743 15.4569 14.7204 15.6166C15.3664 15.7763 16.0416 15.7768 16.6879 15.618C17.3342 15.4592 17.9322 15.1459 18.4307 14.705L19.6966 16.1335C18.5963 17.1071 17.1777 17.6442 15.7085 17.6435Z" fill="#FCEBCF"/>
<path d="M21.4525 18.5005H9.96436V18.7445H21.4525V18.5005Z" fill="#FCEBCF"/>
<path d="M21.4525 19.3018H9.96436V19.5458H21.4525V19.3018Z" fill="#FCEBCF"/>
<path d="M21.4525 20.1016H9.96436V20.3456H21.4525V20.1016Z" fill="#FCEBCF"/>
<path d="M83.0001 13.6038H68.5774V30.5225H83.0001V13.6038Z" stroke="#FCDBBA" stroke-width="0.198413" stroke-miterlimit="10"/>
<path d="M75.7898 26.6751C74.2359 26.6751 72.7456 26.0578 71.6468 24.959C70.548 23.8602 69.9307 22.3699 69.9307 20.8159C69.9307 19.262 70.548 17.7717 71.6468 16.6729C72.7456 15.5741 74.2359 14.9568 75.7898 14.9568V16.8139C74.9982 16.8135 74.2243 17.0479 73.5659 17.4874C72.9075 17.9269 72.3942 18.5518 72.091 19.2831C71.7878 20.0143 71.7083 20.819 71.8625 21.5955C72.0167 22.3719 72.3977 23.0852 72.9573 23.6451C73.5169 24.205 74.23 24.5863 75.0063 24.7409C75.7827 24.8955 76.5875 24.8163 77.3189 24.5135C78.0503 24.2106 78.6754 23.6977 79.1152 23.0395C79.5551 22.3814 79.7898 21.6075 79.7898 20.8159H81.647C81.6454 22.3691 81.0279 23.8581 79.9298 24.9565C78.8318 26.0549 77.3429 26.673 75.7898 26.6751Z" fill="#FCEBCF"/>
<path d="M81.3811 27.5083H70.1985V27.7464H81.3811V27.5083Z" fill="#FCEBCF"/>
<path d="M81.3811 28.2881H70.1985V28.5262H81.3811V28.2881Z" fill="#FCEBCF"/>
<path d="M81.3811 29.0659H70.1985V29.304H81.3811V29.0659Z" fill="#FCEBCF"/>
<path d="M50.4447 11.2127C47.2243 12.919 44.5009 15.4305 42.5399 18.5024C42.09 19.2108 41.6845 19.9463 41.3256 20.7048C40.8757 19.6694 40.3498 18.6686 39.7522 17.7108C39.0389 16.5731 38.2255 15.5014 37.3216 14.5084C36.9744 14.1254 36.4089 14.6949 36.7541 15.0758C38.7379 17.265 40.26 19.8316 41.2295 22.6223C42.199 25.413 42.5961 28.3704 42.397 31.318C42.3613 31.8338 43.1649 31.8319 43.1907 31.318C43.4005 28.0385 42.899 24.7525 41.7204 21.685C41.7453 21.6611 41.7654 21.6329 41.7799 21.6017C43.6166 17.4369 46.8119 14.0184 50.8435 11.9052C51.3078 11.6651 50.903 10.9826 50.4447 11.2127Z" fill="#226356"/>
<path d="M36.6706 15.0401C35.4398 12.6174 35.1001 9.83908 35.7109 7.19122C36.3218 4.54337 37.8442 2.19461 40.0119 0.555908C41.9266 2.02814 43.1072 4.45275 43.2818 6.86149C43.4226 8.81983 42.9583 10.8595 41.7798 12.431C40.6012 14.0024 38.6429 15.1492 36.6706 15.0401Z" fill="#039C8A"/>
<path d="M42.0338 9.03797C41.2527 9.78608 40.2445 10.2525 39.1687 10.3634C39.3671 9.69869 39.5278 9.0221 39.6627 8.34154C39.6648 8.3284 39.6648 8.31501 39.6627 8.30186C39.8442 7.36029 39.9767 6.40994 40.0596 5.45463C40.8195 5.25339 41.5251 4.88534 42.1251 4.37724C42.1624 4.33988 42.1834 4.28921 42.1834 4.23637C42.1834 4.18353 42.1624 4.13286 42.1251 4.0955C42.0877 4.05813 42.037 4.03714 41.9842 4.03714C41.9313 4.03714 41.8807 4.05813 41.8433 4.0955C41.3325 4.52574 40.7379 4.84531 40.0973 5.03399C40.1846 3.91891 40.2203 2.80184 40.2302 1.68279C40.2302 1.63017 40.2093 1.5797 40.1721 1.54249C40.1349 1.50528 40.0844 1.48438 40.0318 1.48438C39.9792 1.48438 39.9287 1.50528 39.8915 1.54249C39.8543 1.5797 39.8334 1.63017 39.8334 1.68279C39.8435 3.79016 39.6722 5.89449 39.3215 7.97249C38.5274 7.45243 37.8999 6.7147 37.5139 5.84749C37.5008 5.82492 37.4833 5.80516 37.4626 5.78935C37.4418 5.77354 37.4181 5.76198 37.3928 5.75534C37.3676 5.74871 37.3413 5.74712 37.3154 5.75068C37.2895 5.75423 37.2646 5.76286 37.2421 5.77606C37.2195 5.78919 37.1998 5.80664 37.184 5.82742C37.1682 5.8482 37.1566 5.87189 37.15 5.89714C37.1433 5.9224 37.1417 5.94871 37.1453 5.97458C37.1488 6.00044 37.1575 6.02536 37.1707 6.04788C37.6099 7.01882 38.3309 7.83525 39.2401 8.39115C38.9421 9.94814 38.4509 11.4618 37.7778 12.8971L37.7361 12.9804C37.0951 12.2319 36.604 11.3669 36.2897 10.4328C36.2084 10.1927 35.8254 10.2959 35.9068 10.538C36.2456 11.5399 36.7736 12.4674 37.4623 13.2701C37.4872 13.2999 37.5215 13.3202 37.5596 13.3277C37.1759 14.0744 36.7305 14.7879 36.2282 15.4606C36.0734 15.659 36.4266 15.8574 36.5695 15.659C37.6619 14.1849 38.4971 12.5367 39.0397 10.784C40.2658 10.6935 41.4221 10.1785 42.3096 9.32766C42.4981 9.14115 42.2143 8.8594 42.0338 9.03797Z" fill="#226356"/>
<path d="M59.1312 18.1869C58.968 17.5291 58.6244 16.9299 58.1391 16.4567C57.6523 15.988 57.0987 15.5942 56.4963 15.2881C55.0035 14.4991 53.3659 14.0219 51.6829 13.8855C50 13.749 48.3069 13.9562 46.7066 14.4944C46.6649 15.4231 46.9041 16.3427 47.3931 17.1333C47.8786 17.8904 48.5248 18.5312 49.2859 19.0103C50.7481 19.9555 52.4844 20.3844 54.2185 20.2286C55.9387 20.0679 57.8891 19.3794 59.1312 18.1869Z" fill="#039C8A"/>
<path d="M57.9326 17.5861C55.9347 17.9369 53.8826 17.8215 51.9366 17.2488C52.5451 16.7306 53.2831 16.3877 54.0715 16.2567C54.1223 16.2427 54.1655 16.2092 54.1915 16.1634C54.2176 16.1177 54.2244 16.0634 54.2104 16.0126C54.1965 15.9619 54.1629 15.9187 54.1171 15.8927C54.0714 15.8666 54.0171 15.8598 53.9664 15.8738C53.0386 16.0312 52.1784 16.4599 51.4941 17.1059C50.5656 16.7983 49.675 16.3862 48.8394 15.8777C48.6826 15.7825 48.5278 15.6793 48.3751 15.5781C49.1489 15.2639 49.9608 15.0531 50.7898 14.9511C50.8424 14.9511 50.8928 14.9302 50.9301 14.893C50.9673 14.8558 50.9882 14.8053 50.9882 14.7527C50.9882 14.7001 50.9673 14.6496 50.9301 14.6124C50.8928 14.5752 50.8424 14.5543 50.7898 14.5543C49.8259 14.6726 48.8839 14.9278 47.9921 15.3122C47.5802 15.0168 47.186 14.6975 46.8116 14.3559C46.6231 14.1853 46.3413 14.465 46.5298 14.6376C47.3479 15.3815 48.2533 16.0231 49.2263 16.5484C49.1867 17.3979 49.3499 18.2447 49.7025 19.0186C49.7156 19.0412 49.733 19.0609 49.7538 19.0767C49.7746 19.0926 49.7983 19.1041 49.8235 19.1107C49.8488 19.1174 49.8751 19.119 49.901 19.1154C49.9268 19.1119 49.9518 19.1032 49.9743 19.09C49.9969 19.0769 50.0166 19.0595 50.0324 19.0387C50.0482 19.0179 50.0598 18.9942 50.0664 18.969C50.0731 18.9437 50.0746 18.9174 50.0711 18.8915C50.0675 18.8657 50.0589 18.8407 50.0457 18.8182C49.7542 18.1684 49.6073 17.4629 49.6152 16.7507C51.1544 17.5237 52.8274 17.9951 54.5437 18.1396C54.546 18.1557 54.5514 18.1712 54.5596 18.1853C54.8971 18.6914 55.3563 19.1049 55.8949 19.3877C55.9175 19.402 55.9428 19.4117 55.9692 19.416C55.9956 19.4203 56.0226 19.4193 56.0486 19.4129C56.0746 19.4066 56.099 19.395 56.1204 19.379C56.1418 19.3629 56.1598 19.3427 56.1732 19.3195C56.1866 19.2963 56.1951 19.2707 56.1983 19.2441C56.2016 19.2176 56.1994 19.1906 56.1919 19.1649C56.1845 19.1392 56.1719 19.1153 56.155 19.0946C56.138 19.0739 56.1171 19.0568 56.0934 19.0444C55.8543 18.9214 55.6316 18.7687 55.4306 18.59C55.3275 18.4982 55.2301 18.4001 55.139 18.2964L55.0338 18.1694L55.1767 18.1793C56.1344 18.2087 57.0927 18.1382 58.0358 17.969C58.2858 17.9273 58.1826 17.5424 57.9326 17.5861Z" fill="#226356"/>
<path d="M49.7542 11.812C51.7046 10.5362 53.8613 9.52826 56.155 9.11556C58.4486 8.70286 60.8911 8.91715 62.9744 9.95882C62.9447 11.4092 62.1629 12.8676 61.0597 13.81C59.9287 14.7386 58.5341 15.2877 57.0736 15.3795C54.2462 15.5997 51.4149 14.1076 49.7542 11.812Z" fill="#039C8A"/>
<path d="M62.0218 10.3617C61.498 10.7145 60.9404 11.0143 60.3571 11.2565C60.4519 10.9334 60.5922 10.6254 60.7738 10.3418C60.7975 10.2965 60.8028 10.2437 60.7885 10.1946C60.7743 10.1454 60.7416 10.1037 60.6973 10.0781C60.653 10.0525 60.6005 10.045 60.5508 10.0571C60.5011 10.0693 60.458 10.1002 60.4305 10.1434C60.1802 10.5401 60.0021 10.9781 59.9047 11.4371C58.1904 12.066 56.3333 12.2565 54.4801 12.2307C54.7529 11.4136 55.2712 10.7006 55.9642 10.189C55.9895 10.1776 56.0122 10.161 56.0306 10.1403C56.0491 10.1195 56.063 10.0952 56.0715 10.0687C56.08 10.0423 56.0828 10.0144 56.0798 9.98677C56.0768 9.95917 56.068 9.9325 56.054 9.9085C56.0401 9.8845 56.0213 9.8637 55.9988 9.84743C55.9763 9.83117 55.9506 9.8198 55.9234 9.81408C55.8963 9.80835 55.8682 9.80839 55.8411 9.8142C55.8139 9.82 55.7883 9.83143 55.7658 9.84776C54.9585 10.4327 54.3632 11.2641 54.0694 12.2168C53.5813 12.2029 53.0972 12.1752 52.617 12.1375C51.6413 12.0658 50.6699 11.9452 49.7063 11.7763C49.4563 11.7307 49.3491 12.1136 49.6011 12.1593C50.5436 12.3279 51.494 12.4549 52.4483 12.5343C52.4509 12.5501 52.4555 12.5654 52.4622 12.5799C52.9097 13.553 53.6811 14.3406 54.6448 14.8081C54.6673 14.8213 54.6922 14.8299 54.7181 14.8335C54.744 14.837 54.7703 14.8354 54.7955 14.8288C54.8208 14.8222 54.8445 14.8106 54.8653 14.7948C54.886 14.779 54.9035 14.7592 54.9166 14.7367C54.9298 14.7141 54.9384 14.6892 54.942 14.6634C54.9455 14.6375 54.944 14.6112 54.9373 14.5859C54.9307 14.5607 54.9191 14.537 54.9033 14.5162C54.8875 14.4954 54.8678 14.478 54.8452 14.4648C54.0081 14.0619 53.3249 13.3975 52.8987 12.572C53.5601 12.6183 54.2169 12.6401 54.869 12.6375C55.6597 12.6384 56.4497 12.5887 57.2341 12.4886C57.6042 13.2312 58.2157 13.8259 58.9682 14.1752C58.9907 14.1884 59.0156 14.197 59.0415 14.2005C59.0674 14.2041 59.0937 14.2025 59.119 14.1959C59.1442 14.1892 59.1679 14.1777 59.1887 14.1619C59.2095 14.1461 59.2269 14.1263 59.24 14.1037C59.2661 14.0584 59.2732 14.0046 59.2598 13.9541C59.2464 13.9036 59.2137 13.8604 59.1686 13.8339C58.5258 13.5386 57.994 13.0457 57.6507 12.4271C58.3923 12.3146 59.1226 12.1373 59.8333 11.8974C60.6753 11.6058 61.4758 11.2056 62.2143 10.7069C62.4325 10.5621 62.2341 10.2188 62.0218 10.3617Z" fill="#226356"/>
<path d="M49.0995 12.1731C50.8197 10.6532 52.3852 8.9072 53.4011 6.84766C54.4169 4.78813 54.8554 2.38733 54.2919 0.161131C53.473 -0.0800256 52.598 -0.0493956 51.7979 0.248433C51.0084 0.540563 50.2842 0.985567 49.6669 1.55796C48.159 2.89328 47.0776 4.7544 46.8713 6.75838C46.7873 7.77289 46.9455 8.79284 47.3329 9.73423C47.7203 10.6756 48.3258 11.5115 49.0995 12.1731Z" fill="#039C8A"/>
<path d="M52.6232 5.00238C51.9536 5.38258 51.1839 5.5494 50.4169 5.48056C50.8134 4.69217 51.2782 3.93996 51.8058 3.23254C51.9447 3.03412 52.0915 2.85952 52.2403 2.67896C52.6728 2.88382 53.153 2.96683 53.6292 2.91904C53.6807 2.90896 53.7261 2.87886 53.7555 2.83535C53.7849 2.79184 53.7958 2.73846 53.7859 2.6869C53.7759 2.63537 53.7458 2.58994 53.7023 2.56056C53.6587 2.53119 53.6054 2.52025 53.5538 2.53015C53.1967 2.56347 52.8369 2.50827 52.5062 2.36944C52.8995 1.91494 53.3196 1.48428 53.7641 1.07975C53.9526 0.90713 53.6947 0.605542 53.5062 0.778161C52.5769 1.62459 51.7498 2.57683 51.0419 3.61547C50.7013 3.1872 50.4912 2.66989 50.4367 2.12539C50.4318 2.09933 50.4217 2.07451 50.4072 2.05233C50.3926 2.03015 50.3739 2.01105 50.3519 1.99613C50.33 1.98121 50.3054 1.97075 50.2794 1.96535C50.2534 1.95995 50.2267 1.95972 50.2006 1.96467C50.1746 1.96962 50.1497 1.97966 50.1275 1.9942C50.1054 2.00875 50.0863 2.02752 50.0713 2.04944C50.0564 2.07137 50.046 2.09602 50.0406 2.12199C50.0352 2.14795 50.0349 2.17473 50.0399 2.20078C50.1103 2.85262 50.3782 3.46738 50.8078 3.9627C50.4789 4.474 50.1802 5.004 49.9129 5.55L49.903 5.57183C49.5475 6.29905 49.256 7.05589 49.0319 7.83374C48.7212 7.59482 48.4612 7.29625 48.2674 6.95554C48.0735 6.61483 47.9496 6.23883 47.903 5.84961C47.898 5.82389 47.888 5.79942 47.8735 5.77759C47.859 5.75577 47.8403 5.73703 47.8186 5.72246C47.7968 5.70789 47.7724 5.69777 47.7467 5.69269C47.721 5.68761 47.6945 5.68767 47.6689 5.69286C47.6173 5.70294 47.5719 5.73304 47.5425 5.77655C47.5131 5.82006 47.5022 5.87345 47.5121 5.925C47.57 6.39066 47.7259 6.83877 47.9694 7.2399C48.2128 7.64103 48.5385 7.98609 48.9248 8.25239C48.7907 8.78219 48.6926 9.32046 48.6312 9.86351C48.5223 10.809 48.5773 11.7661 48.7939 12.6929C48.8554 12.9409 49.2443 12.8675 49.1907 12.6175C48.9969 11.7918 48.9386 10.9401 49.0181 10.0957C50.0611 9.89532 50.9976 9.32712 51.657 8.49446C51.8157 8.29604 51.4883 8.06787 51.3296 8.26827C50.757 8.98384 49.9567 9.48171 49.0617 9.67899C49.1485 9.03308 49.2905 8.39582 49.4863 7.77422C49.6894 7.12229 49.9374 6.48519 50.2284 5.86746C51.1141 5.98449 52.0138 5.8104 52.7919 5.37143C53.0181 5.22857 52.8455 4.8754 52.6232 5.00238Z" fill="#226356"/>
<path d="M32.1669 12.673C34.7641 13.4925 37.1828 15.1433 39.0737 17.1016C38.5939 18.3946 37.7265 19.5079 36.59 20.2892C35.4535 21.0705 34.1035 21.4818 32.7245 21.4667C31.2443 21.4509 29.7998 20.9389 28.5181 20.1969C27.2974 19.5182 26.2491 18.5678 25.4546 17.4191C24.6847 16.2623 24.1272 14.7326 24.274 13.3516C26.6074 11.9746 29.5697 11.8536 32.1669 12.673Z" fill="#039C8A"/>
<path d="M39.3933 17.1511C38.715 16.5357 37.9322 16.0466 37.0818 15.7066C36.1955 15.3258 35.2886 14.9946 34.3655 14.7146C34.183 14.659 34.0024 14.6054 33.8199 14.5538C33.7553 14.1213 33.5584 13.7193 33.2564 13.403C33.2176 13.3705 33.1678 13.354 33.1173 13.357C33.0668 13.3599 33.0193 13.3821 32.9845 13.4189C32.9514 13.4578 32.9346 13.508 32.9375 13.559C32.9405 13.61 32.963 13.6579 33.0004 13.6927C33.0004 13.6927 33.0302 13.7245 33.0361 13.7284L33.0758 13.7761C33.1056 13.8138 33.1333 13.8534 33.1611 13.8931C33.1889 13.9328 33.2127 13.9725 33.2365 14.0142L33.2722 14.0776C33.2713 14.0822 33.2713 14.087 33.2722 14.0915V14.1054C33.3118 14.1897 33.3456 14.2765 33.3734 14.3653C33.3734 14.3911 33.3853 14.4169 33.3933 14.4427C32.0818 14.0944 30.746 13.845 29.3972 13.6967C29.1842 13.2168 28.796 12.8364 28.3119 12.6332C28.2661 12.6119 28.214 12.6089 28.166 12.6248C28.1181 12.6406 28.078 12.6742 28.054 12.7185C28.0321 12.7645 28.0288 12.8171 28.0447 12.8655C28.0605 12.9139 28.0944 12.9543 28.1393 12.9784C28.2488 13.0246 28.3543 13.0797 28.4548 13.1431L28.4865 13.1669L28.5579 13.2225C28.6036 13.2582 28.6472 13.2979 28.6909 13.3395L28.7524 13.403L28.7682 13.4209L28.7841 13.4407C28.8225 13.4856 28.8583 13.5326 28.8913 13.5816L28.9329 13.6471L28.4845 13.6074C27.3787 13.5241 26.2688 13.5082 25.1611 13.5598C25.1186 13.5729 25.0817 13.6 25.0564 13.6366C25.0311 13.6732 25.0189 13.7172 25.0216 13.7616C25.0244 13.806 25.042 13.8482 25.0716 13.8814C25.1012 13.9146 25.1411 13.9369 25.1849 13.9447C27.0429 13.8596 28.9047 13.9673 30.7405 14.2661C29.6007 14.8848 28.3472 15.2655 27.0559 15.3852C27.0124 15.3977 26.9745 15.4248 26.9485 15.4619C26.9225 15.499 26.9099 15.5438 26.9129 15.589C26.9159 15.6342 26.9343 15.677 26.965 15.7103C26.9957 15.7436 27.0369 15.7654 27.0817 15.7721C28.5851 15.6331 30.0382 15.1585 31.3337 14.3832C33.1082 14.7094 34.8443 15.2181 36.5143 15.9011L36.798 16.0181C34.6732 17.2712 32.2835 18.0073 29.8218 18.1669C29.7793 18.1801 29.7425 18.2071 29.7172 18.2437C29.6919 18.2803 29.6796 18.3244 29.6823 18.3688C29.6851 18.4132 29.7027 18.4554 29.7323 18.4886C29.7619 18.5218 29.8018 18.5441 29.8456 18.5519C32.4584 18.3825 34.9908 17.5803 37.2246 16.2146C37.9204 16.5186 38.5608 16.9364 39.1195 17.4507C39.3179 17.6134 39.5738 17.3316 39.3933 17.1511Z" fill="#226356"/>
<path d="M28.0338 38.7206C27.7025 37.1849 28.3473 35.5678 29.3711 34.3773C30.3949 33.1869 31.7521 32.3456 33.1092 31.548C34.4664 30.7503 35.8434 29.9607 36.9366 28.8257C37.6628 28.0757 38.2402 27.1968 38.9327 26.415C39.6251 25.6333 40.4704 24.9269 41.4862 24.6888C43.1112 24.3079 44.7898 25.2087 45.9545 26.4031C47.1192 27.5976 47.9386 29.0857 49.0339 30.3456C50.0914 31.5638 51.395 32.5539 52.395 33.8178C53.395 35.0817 54.0875 36.7563 53.6252 38.3C45.2442 40.4334 36.4804 40.5774 28.0338 38.7206Z" fill="#945541"/>
<path d="M51.6765 63.9728H30.0415L27.1367 39.5938H54.5813L51.6765 63.9728Z" fill="#E89417"/>
<path d="M56.143 36.2029H25.5754V41.5839H56.143V36.2029Z" fill="#FCBF1E"/>
<path d="M64.572 77.719L64.5621 77.7844C64.5621 77.8816 64.5422 77.9729 64.5264 78.0741C64.5105 78.1753 64.4926 78.2487 64.4767 78.342L54.5164 78.4432C54.5049 78.3557 54.4989 78.2675 54.4985 78.1793C54.5007 78.081 54.5087 77.983 54.5223 77.8856C54.5253 77.8635 54.5299 77.8416 54.5362 77.8201C54.6374 77.2606 55.0382 76.4828 56.3954 76.2189C56.4641 76.2032 56.5336 76.1912 56.6037 76.1832C56.7089 76.1654 56.816 76.1555 56.9311 76.1435H57.0422C59.7624 75.9015 60.9569 74.9749 60.9569 74.9749C61.97 75.1449 63.0053 75.1335 64.0144 74.9412C64.1559 75.1924 64.269 75.4586 64.3517 75.7348C64.3756 75.8201 64.4014 75.9094 64.4271 76.0066C64.4271 76.0245 64.4371 76.0443 64.443 76.0642C64.449 76.084 64.4629 76.1455 64.4708 76.1892C64.4718 76.2024 64.4718 76.2157 64.4708 76.2289C64.4708 76.2289 64.4708 76.2428 64.4708 76.2507C64.516 76.4719 64.5451 76.696 64.5581 76.9213C64.5838 77.1864 64.5884 77.4531 64.572 77.719Z" fill="#E89417"/>
<path d="M59.9843 75.0702C60.0006 75.0534 60.02 75.0401 60.0414 75.0309C60.0629 75.0217 60.086 75.0168 60.1093 75.0166C60.1559 75.019 60.2004 75.0364 60.2363 75.0662L60.3196 75.1297C60.4506 75.2309 60.5855 75.3281 60.7164 75.4214C60.7573 75.4447 60.7873 75.4832 60.8 75.5285C60.8126 75.5739 60.8068 75.6223 60.7839 75.6634C60.7599 75.7041 60.7209 75.7337 60.6752 75.746C60.6296 75.7582 60.581 75.7521 60.5399 75.7289C60.3414 75.5999 60.1629 75.463 59.9803 75.3202C59.9469 75.2871 59.9276 75.2422 59.9268 75.1952C59.9289 75.1476 59.9495 75.1027 59.9843 75.0702Z" fill="white"/>
<path d="M59.2778 75.3875C59.3112 75.3548 59.356 75.3364 59.4028 75.3364C59.4495 75.3364 59.4944 75.3548 59.5278 75.3875C59.6602 75.5371 59.8071 75.6734 59.9663 75.7942L60.0437 75.8498C60.0821 75.8744 60.1108 75.9116 60.125 75.9549C60.1319 75.9776 60.1341 76.0015 60.1313 76.025C60.1286 76.0486 60.121 76.0713 60.1091 76.0918C60.0858 76.1327 60.0473 76.1627 60.002 76.1753C59.9567 76.188 59.9082 76.1822 59.8671 76.1593C59.6479 76.0121 59.4479 75.8381 59.2718 75.6414C59.2387 75.6081 59.2196 75.5634 59.2183 75.5164C59.2191 75.4921 59.2247 75.4681 59.235 75.4459C59.2452 75.4238 59.2597 75.4039 59.2778 75.3875Z" fill="white"/>
<path d="M58.639 75.6258C58.6553 75.6091 58.6747 75.5957 58.6961 75.5865C58.7176 75.5773 58.7407 75.5725 58.764 75.5723C58.7872 75.571 58.8104 75.5748 58.8319 75.5834C58.8535 75.5919 58.873 75.6051 58.889 75.6219L59.2997 76.1357C59.3314 76.1706 59.3497 76.2156 59.3513 76.2627C59.3518 76.2858 59.3477 76.3088 59.3392 76.3303C59.3306 76.3517 59.3179 76.3713 59.3017 76.3877C59.268 76.4206 59.2228 76.439 59.1757 76.439C59.1286 76.439 59.0834 76.4206 59.0497 76.3877L58.641 75.8719C58.609 75.8378 58.59 75.7935 58.5874 75.7469C58.5882 75.7013 58.6067 75.6579 58.639 75.6258Z" fill="white"/>
<path d="M57.9228 75.8002C57.9636 75.7772 58.0117 75.7707 58.0571 75.7821C58.1025 75.7936 58.1418 75.8221 58.1668 75.8617L58.4347 76.3101C58.4477 76.3298 58.4567 76.3518 58.4612 76.375C58.4657 76.3981 58.4656 76.422 58.4609 76.4451C58.4562 76.4682 58.447 76.4902 58.4339 76.5097C58.4207 76.5293 58.4037 76.5461 58.3841 76.5591C58.3644 76.5721 58.3424 76.5812 58.3192 76.5857C58.296 76.5902 58.2722 76.5901 58.2491 76.5854C58.226 76.5807 58.204 76.5715 58.1844 76.5583C58.1649 76.5451 58.1481 76.5282 58.1351 76.5085L57.8672 76.0621C57.8518 76.0419 57.8409 76.0186 57.8354 75.9938C57.8298 75.969 57.8296 75.9432 57.8349 75.9184C57.8402 75.8935 57.8508 75.8701 57.8659 75.8497C57.8811 75.8293 57.9005 75.8124 57.9228 75.8002Z" fill="white"/>
<path d="M60.9426 73.8379C60.9585 74.5661 60.9704 74.9709 60.9704 74.9709C60.9704 74.9709 62.2759 75.5661 64.0279 74.9411C64.0279 74.9411 64.0795 74.5304 64.1747 73.7962C64.8771 68.324 67.8752 44.8418 68.5696 38.5005H60.8315C60.3116 46.5739 60.8116 68.5919 60.9426 73.8379Z" fill="#E0AC8F"/>
<path d="M70.1172 77.7191V77.7846C70.1271 77.8818 70.137 77.9731 70.1549 78.0743C70.1728 78.1755 70.1886 78.2489 70.2045 78.3421L80.1549 78.4493C80.1679 78.3619 80.1745 78.2737 80.1748 78.1854C80.1718 78.0871 80.1632 77.989 80.149 77.8917C80.1477 77.8695 80.1437 77.8475 80.1371 77.8262C80.0339 77.2667 79.6351 76.4889 78.2779 76.225C78.2092 76.2095 78.1396 76.1975 78.0696 76.1893C77.9625 76.1715 77.8573 76.1616 77.7422 76.1497H77.6291C74.9109 75.9076 73.7144 74.981 73.7144 74.981C72.7013 75.1511 71.666 75.1396 70.6569 74.9473C70.5157 75.1984 70.4032 75.4646 70.3216 75.7409C70.2978 75.8262 70.27 75.9155 70.2462 76.0127C70.2462 76.0306 70.2362 76.0504 70.2283 76.0703C70.2204 76.0901 70.2105 76.1516 70.2025 76.1953C70.2016 76.2085 70.2016 76.2218 70.2025 76.235C70.2025 76.235 70.2025 76.2489 70.2025 76.2568C70.1567 76.4779 70.1268 76.702 70.1132 76.9274C70.0938 77.191 70.0952 77.4557 70.1172 77.7191Z" fill="#E89417"/>
<path d="M74.7045 75.0702C74.6716 75.0365 74.6266 75.0173 74.5795 75.0166C74.5329 75.0186 74.4882 75.036 74.4526 75.0662L74.3692 75.1297C74.2363 75.2309 74.1033 75.3281 73.9724 75.4214C73.9315 75.4447 73.9015 75.4832 73.8889 75.5285C73.8762 75.5739 73.882 75.6223 73.9049 75.6634C73.9286 75.704 73.9672 75.7336 74.0125 75.7458C74.0578 75.7581 74.1061 75.752 74.147 75.7289C74.3454 75.5999 74.524 75.463 74.7065 75.3202C74.7235 75.3041 74.7369 75.2847 74.7461 75.2632C74.7553 75.2417 74.7601 75.2185 74.7601 75.1952C74.7587 75.1478 74.7387 75.1029 74.7045 75.0702Z" fill="white"/>
<path d="M75.405 75.3874C75.3713 75.3546 75.3261 75.3362 75.279 75.3362C75.232 75.3362 75.1868 75.3546 75.153 75.3874C75.0218 75.5375 74.8755 75.6738 74.7165 75.7942L74.6392 75.8497C74.6 75.874 74.5705 75.9112 74.5558 75.9549C74.5476 75.9886 74.5494 76.0239 74.561 76.0566C74.5726 76.0893 74.5934 76.1179 74.621 76.1389C74.6486 76.16 74.6817 76.1725 74.7162 76.1751C74.7508 76.1776 74.7854 76.1701 74.8157 76.1533C75.0341 76.005 75.2339 75.8312 75.411 75.6354C75.443 75.6014 75.462 75.5571 75.4646 75.5104C75.4599 75.4637 75.4388 75.4201 75.405 75.3874Z" fill="white"/>
<path d="M76.05 75.6258C76.0337 75.609 76.0143 75.5956 75.9929 75.5865C75.9714 75.5773 75.9483 75.5724 75.925 75.5722C75.9015 75.5712 75.8781 75.575 75.8563 75.5836C75.8344 75.5921 75.8146 75.6051 75.798 75.6218L75.3893 76.1357C75.3579 76.1709 75.3391 76.2156 75.3357 76.2627C75.3356 76.2859 75.34 76.3089 75.3489 76.3304C75.3578 76.3518 75.3708 76.3713 75.3873 76.3877C75.421 76.4205 75.4662 76.4389 75.5133 76.4389C75.5603 76.4389 75.6056 76.4205 75.6393 76.3877L76.048 75.8718C76.08 75.8377 76.099 75.7935 76.1016 75.7468C76.1 75.7014 76.0816 75.6583 76.05 75.6258Z" fill="white"/>
<path d="M76.7661 75.8004C76.7255 75.7768 76.6772 75.7701 76.6316 75.7816C76.5861 75.7931 76.5468 75.8219 76.5221 75.8619L76.2542 76.3103C76.2412 76.33 76.2322 76.352 76.2277 76.3752C76.2232 76.3983 76.2233 76.4222 76.228 76.4453C76.2327 76.4684 76.2419 76.4904 76.2551 76.5099C76.2683 76.5295 76.2852 76.5463 76.3048 76.5593C76.3245 76.5723 76.3466 76.5814 76.3697 76.5859C76.3929 76.5904 76.4167 76.5903 76.4398 76.5856C76.4629 76.5809 76.4849 76.5717 76.5045 76.5585C76.524 76.5453 76.5408 76.5284 76.5538 76.5087L76.8217 76.0603C76.8365 76.04 76.8468 76.0169 76.852 75.9923C76.8572 75.9678 76.8572 75.9425 76.8519 75.9179C76.8467 75.8934 76.8363 75.8703 76.8215 75.85C76.8068 75.8298 76.7879 75.8128 76.7661 75.8004Z" fill="white"/>
<path d="M67.917 38.5005C68.6174 44.8656 70.2265 68.5026 70.5876 73.8578C70.6333 74.5542 70.661 74.9411 70.661 74.9411C72.415 75.5681 73.7186 74.9709 73.7186 74.9709C73.7186 74.9709 73.7563 74.574 73.8198 73.8459C74.2861 68.6077 76.175 46.5303 75.6591 38.5005H67.917Z" fill="#E0AC8F"/>
<path d="M74.5557 73.911C74.2462 73.9348 73.8335 73.9467 73.3791 73.9507H73.3037C72.1926 73.9606 70.8494 73.919 70.0994 73.8674C69.8176 69.661 69.0676 54.1709 68.4188 44.6331C68.395 44.2581 68.3692 43.8911 68.3434 43.5339C68.3434 43.4367 68.3295 43.3355 68.3216 43.2403C68.268 42.4684 68.2144 41.7502 68.1609 41.0915V41.0161C68.0795 40.024 68.0021 39.1669 67.9287 38.5042H75.6668C76.1748 46.53 75.016 68.6729 74.5557 73.911Z" fill="#039C8A"/>
<path d="M68.891 38.5005C68.774 39.5858 68.5974 41.1771 68.3851 43.0978C68.3692 43.2406 68.3533 43.3835 68.3375 43.5303C68.3375 43.5303 68.3375 43.5521 68.3375 43.564C67.2998 52.9371 65.4585 69.4034 64.887 73.8618C64.6132 73.8796 64.264 73.8895 63.8791 73.8935H63.8017C62.6847 73.8935 61.2839 73.8618 60.4981 73.83C60.3692 68.584 60.3156 46.572 60.8315 38.4985L68.891 38.5005Z" fill="#039C8A"/>
<path d="M68.3176 41.828C68.3037 41.574 68.2918 41.32 68.2779 41.0661C68.2938 41.0442 68.2878 41.0085 68.258 41.0065C68.2513 41.0021 68.2433 40.9997 68.2352 40.9997C68.2271 40.9997 68.2192 41.0021 68.2124 41.0065C68.0791 41.0218 67.9441 41.0089 67.8161 40.9687C67.6882 40.9284 67.5701 40.8616 67.4696 40.7728C67.3691 40.6839 67.2885 40.5748 67.2329 40.4527C67.1773 40.3306 67.148 40.1982 67.1469 40.0641C67.1469 40.0541 67.143 40.0445 67.1359 40.0374C67.1288 40.0303 67.1192 40.0264 67.1092 40.0264C67.0992 40.0264 67.0896 40.0303 67.0826 40.0374C67.0755 40.0445 67.0715 40.0541 67.0715 40.0641C67.0731 40.2071 67.1043 40.3483 67.1632 40.4787C67.2221 40.6091 67.3073 40.7259 67.4136 40.8218C67.5198 40.9176 67.6448 40.9903 67.7806 41.0355C67.9164 41.0806 68.06 41.0971 68.2025 41.0839C68.2501 41.9913 68.2984 42.8987 68.3473 43.8061L68.389 44.5998C68.389 44.6494 68.4684 44.6474 68.4644 44.5998C68.4168 43.6752 68.3678 42.7512 68.3176 41.828Z" fill="#226356"/>
<path d="M75.0278 40.6035C74.6862 40.6503 74.3384 40.6034 74.0214 40.4678C73.7045 40.3322 73.4303 40.113 73.2282 39.8337C73.1227 39.6858 73.0391 39.5234 72.9802 39.3516C72.9643 39.3059 72.8909 39.3258 72.9068 39.3714C73.023 39.7033 73.2253 39.9984 73.4931 40.2264C73.7608 40.4544 74.0844 40.6072 74.4306 40.669C74.6351 40.7008 74.8432 40.7008 75.0477 40.669C75.0973 40.669 75.0754 40.5956 75.0278 40.6035Z" fill="#226356"/>
<path d="M74.5557 40.6515V40.6852C74.5081 43.1363 74.4518 45.5834 74.387 48.0265C74.2719 52.3916 74.1291 56.7567 73.9584 61.1218C73.7878 65.3943 73.5901 69.6707 73.3652 73.9512H73.2898C73.4102 71.598 73.5226 69.2442 73.6271 66.8896C73.8215 62.5246 73.9889 58.1634 74.1291 53.8063C74.2693 49.4491 74.3817 45.0721 74.4664 40.6753V40.6515C74.4763 40.6019 74.5557 40.6019 74.5557 40.6515Z" fill="#226356"/>
<path d="M67.4944 42.1335C67.2299 44.4788 66.9653 46.8234 66.7008 49.1673L65.2841 61.588C64.8172 65.6885 64.3502 69.7891 63.8833 73.8896H63.8059C64.0705 71.6039 64.331 69.3202 64.5877 67.0384L66.0043 54.6177C66.4739 50.4616 66.9435 46.3002 67.4131 42.1335C67.423 42.0919 67.4984 42.0919 67.4944 42.1335Z" fill="#226356"/>
<path d="M64.0044 17.169C62.1472 17.8575 58.1948 25.3555 58.1948 25.3555L53.0361 15.7305L50.2742 17.3178C50.2742 17.3178 54.1373 25.3595 55.0619 27.1968C56.1909 29.4389 59.5956 30.2107 61.1929 28.0321C62.0778 26.8536 62.8573 25.5994 63.5222 24.2841L64.0044 17.169Z" fill="#FCBF1E"/>
<path d="M55.7087 23.1332L47.8694 20.405L51.8873 11.7185L57.9547 13.8316L55.7087 23.1332Z" fill="#E89417"/>
<path d="M47.1191 10.5699C47.3708 10.5555 47.6222 10.602 47.8519 10.7057C48.0816 10.8093 48.2829 10.967 48.4386 11.1652C48.7357 11.5841 48.8697 12.097 48.8156 12.6076C48.7578 13.1127 48.644 13.6098 48.4763 14.0898C48.3068 14.5698 48.2066 15.0716 48.1787 15.5799C48.1793 16.1102 48.3254 16.6302 48.6011 17.0832C48.8768 17.5363 49.2715 17.905 49.7422 18.1493C50.5981 16.957 51.3126 15.6693 51.8711 14.312C51.7106 14.2901 51.5573 14.231 51.4237 14.1394C51.29 14.0477 51.1796 13.9261 51.1013 13.7842C50.9319 13.4961 50.822 13.177 50.7779 12.8457C50.7337 12.5158 50.6715 12.1886 50.5914 11.8656C50.4163 11.277 50.0455 10.7658 49.5404 10.4165C49.0353 10.0673 48.4261 9.90091 47.8136 9.94493L47.1191 10.5699Z" fill="#E89417"/>
<path d="M57.3631 22.2349C56.6281 21.9599 56.0017 21.4546 55.5774 20.7945L56.2421 20.3818C56.2837 20.4492 57.3036 22.0385 58.9603 21.5028C59.8949 21.2012 60.9544 19.231 61.1429 17.4472C61.2143 16.7726 61.2103 15.5722 60.3929 15.104C60.1458 14.9687 59.8737 14.8853 59.5933 14.8587C59.3129 14.8321 59.03 14.8629 58.7619 14.9492C58.4293 15.047 58.1193 15.2098 57.85 15.4281C57.5806 15.6464 57.3571 15.9159 57.1925 16.221L56.498 15.8599C56.7101 15.46 57.0005 15.1069 57.352 14.8215C57.7034 14.5362 58.1087 14.3246 58.5437 14.1992C58.9126 14.0834 59.3012 14.0437 59.6859 14.0826C60.0707 14.1215 60.4435 14.2381 60.7818 14.4254C61.6726 14.9373 62.0754 16.0385 61.9207 17.5286C61.7223 19.4472 60.5794 21.8024 59.2044 22.2468C58.6066 22.4489 57.9583 22.4447 57.3631 22.2349Z" fill="#E89417"/>
<path d="M60.6333 38.6193C62.9686 39.9249 70.9409 39.5876 74.3675 39.1074C74.5084 39.0876 74.6353 39.0697 74.7643 39.0479C75.4647 38.9368 75.9012 38.8217 75.9548 38.7205L75.7782 37.5499L75.6353 36.6035L75.5441 36.0082L75.4032 35.0638L72.6651 16.9347L71.8179 16.7363L70.8714 16.5002L69.681 16.2046L66.8516 16.2284L65.7067 16.6094L64.7385 16.9288L63.9964 17.1768L61.2186 34.7999L61.0678 35.7562L60.9706 36.3753L60.8198 37.3336L60.6333 38.6193Z" fill="#FCEBCF"/>
<path d="M69.9663 16.2661L68.5774 40.0281C68.5774 40.0281 72.8929 40.288 76.8949 39.5341L72.6647 16.9348L69.9663 16.2661Z" fill="#FCBF1E"/>
<path d="M66.2661 16.417L63.5657 40.0718C63.5657 40.0718 60.5756 39.9746 59.5637 39.3258L64.0042 17.169L66.2661 16.417Z" fill="#FCBF1E"/>
<path d="M63.7442 18.1255C63.6595 18.6652 63.5709 19.2049 63.4783 19.7445C63.3851 20.2822 63.2898 20.8219 63.1906 21.3596C63.0914 21.8973 62.9922 22.4271 62.8811 22.9608C62.77 23.4946 62.6628 24.0323 62.5478 24.568C62.4327 25.1037 62.3136 25.6354 62.1906 26.1692C62.1767 26.2346 62.1609 26.3001 62.145 26.3676C62.1291 26.435 62.1966 26.4231 62.2065 26.3854C62.3295 25.8563 62.4486 25.3226 62.5636 24.7842C62.6807 24.2505 62.7918 23.7148 62.9009 23.1791C63.0101 22.6434 63.1113 22.1116 63.2124 21.5779C63.3136 21.0441 63.4109 20.5005 63.5041 19.9628C63.5974 19.4251 63.6867 18.8854 63.772 18.3437C63.7819 18.2783 63.7918 18.2108 63.8037 18.1453C63.8156 18.0799 63.7501 18.0918 63.7442 18.1255Z" fill="#E89417"/>
<path d="M61.4152 19.6909C61.035 19.4439 60.7421 19.0837 60.5779 18.6611C59.8735 18.7207 58.4846 21.5977 59.8537 22.2663C60.435 22.5401 60.9092 22.4846 61.1513 22.6631L62.3735 20.8496C62.4013 20.3556 62.0997 19.6988 61.4152 19.6909Z" fill="#E0AC8F"/>
<path d="M72.6649 16.9348C74.405 17.5479 72.7978 25.7206 72.5042 27.2404C72.2105 28.7603 71.0458 30.2682 68.5161 29.2622C66.2184 28.3515 60.5994 22.7146 60.5994 22.7146L62.5458 20.3336L69.3038 25.4031L70.7482 17.5459L72.6649 16.9348Z" fill="#FCBF1E"/>
<path d="M73.0719 24.5818C73.0283 25.7445 72.9806 26.9727 72.4033 28.0144C72.1684 28.4532 71.8358 28.832 71.431 29.1215C70.9813 29.4305 70.4422 29.5825 69.8973 29.5541C68.6731 29.5045 67.6334 28.7386 66.679 28.0481C65.7247 27.3576 64.7604 26.5918 63.8516 25.8001C62.9429 25.0084 62.0778 24.183 61.2484 23.318L60.9429 22.9965C60.9151 22.9668 60.8715 23.0104 60.8973 23.0402C61.7385 23.937 62.6195 24.7935 63.5401 25.6096C64.4608 26.4258 65.4072 27.191 66.3794 27.9053C66.8715 28.2684 67.3715 28.6334 67.8973 28.9469C68.4118 29.2694 68.985 29.4872 69.5838 29.5878C70.1346 29.6758 70.6991 29.5876 71.1969 29.3358C71.6268 29.1003 71.9931 28.764 72.2644 28.3557C72.933 27.3854 73.058 26.1731 73.1156 25.0342C73.1156 24.8834 73.1294 24.7326 73.1354 24.5818C73.1374 24.5422 73.0739 24.5422 73.0719 24.5818Z" fill="#E89417"/>
<path d="M70.298 26.1252L69.3516 25.4149L69.6849 23.3038C69.796 22.5934 69.9078 21.8838 70.0202 21.1748L70.2087 19.9724C70.2087 19.9327 70.1552 19.9168 70.1492 19.9545C70.0381 20.6675 69.9257 21.3798 69.8119 22.0915C69.6981 22.8031 69.5864 23.5128 69.4766 24.2204C69.4171 24.6053 69.3556 24.9883 69.296 25.3732L68.8218 25.0161L67.3436 23.9069L65.8734 22.8018L64.3972 21.6966L62.927 20.5914L62.7405 20.4526C62.7087 20.4287 62.677 20.4823 62.7087 20.5061L64.1869 21.6153L65.6631 22.7224L67.1333 23.8276L68.6095 24.9367L69.298 25.4546L70.0718 26.0359L70.2583 26.1768C70.298 26.2026 70.3298 26.149 70.298 26.1252Z" fill="#E89417"/>
<path d="M63.9506 9.30783C63.48 8.74204 63.2043 8.03953 63.1646 7.30463C63.125 6.56973 63.3234 5.84163 63.7304 5.22845C64.1606 4.60029 64.7636 4.11028 65.4665 3.81773C66.1676 3.52779 66.9202 3.38268 67.6788 3.39114C68.4335 3.37064 69.1821 3.53192 69.8614 3.86138C70.1991 4.02793 70.4999 4.26081 70.7457 4.54614C70.9915 4.83147 71.1772 5.1634 71.2919 5.5221C71.8472 5.87266 72.2884 6.37724 72.5618 6.97428C72.8351 7.57132 72.9288 8.23502 72.8314 8.88441C72.734 9.53379 72.4498 10.1408 72.0133 10.6314C71.5768 11.1219 71.0069 11.4749 70.3733 11.6471C69.0241 11.2285 67.7126 10.8832 66.3792 10.415C65.6034 10.1471 64.4744 9.93878 63.9506 9.30783Z" fill="#381A08"/>
<path d="M70.7482 11.8436C70.0494 13.4268 69.673 15.1333 69.641 16.8635C69.5175 17.1347 69.3166 17.3634 69.0636 17.5208C68.8105 17.6782 68.5166 17.7573 68.2188 17.7482C67.9209 17.739 67.6324 17.6421 67.3894 17.4695C67.1465 17.297 66.96 17.0564 66.8533 16.7782C66.885 15.6869 66.6985 15.173 66.3553 14.794L66.268 14.7048C66.2481 14.6829 66.2263 14.6651 66.2045 14.6432C66.1827 14.6214 66.1172 14.5718 66.0715 14.5321L65.8731 14.3794C65.5481 14.1522 65.2355 13.9078 64.9366 13.6472C64.4247 13.1889 64.0458 12.5619 63.8989 11.5837V11.548V11.5043C63.8989 11.4786 63.8989 11.4547 63.8989 11.4289C63.898 11.4184 63.898 11.4078 63.8989 11.3972C63.7918 10.4389 63.887 9.16307 64.2739 7.40116C64.6708 5.57575 69.1271 4.92297 70.3196 7.2702C70.7859 8.24044 70.7482 11.8436 70.7482 11.8436Z" fill="#E0AC8F"/>
<path d="M64.1052 7.09755C64.2503 7.26818 64.4454 7.38894 64.6628 7.4428C66.0303 7.89328 67.517 7.8147 68.8295 7.22256C68.8212 7.38439 68.8298 7.54665 68.8552 7.70668C68.8838 7.87996 68.9609 8.04162 69.0775 8.17296C69.1367 8.23722 69.2099 8.28695 69.2915 8.31827C69.373 8.34959 69.4607 8.36165 69.5477 8.35351C69.4719 8.88576 69.5461 9.42861 69.762 9.92098C69.9782 10.4042 70.3261 10.8168 70.766 11.1115C71.0221 10.3003 71.1395 9.45175 71.1132 8.60153C71.0833 7.74171 70.7453 6.92129 70.1608 6.29001C69.7561 5.89883 69.2603 5.6145 68.7183 5.46263C67.8742 5.21295 66.9737 5.22888 66.139 5.50826C65.316 5.82025 64.6069 6.37438 64.1052 7.09755Z" fill="#381A08"/>
<path d="M65.9865 11.0976C65.9253 11.0644 65.8576 11.0448 65.7881 11.04C65.7227 11.0323 65.6567 11.0478 65.6016 11.0837C65.5742 11.104 65.5517 11.1303 65.5359 11.1605C65.5201 11.1907 65.5114 11.2242 65.5103 11.2583C65.5077 11.3266 65.5213 11.3946 65.55 11.4567C65.5551 11.4734 65.5663 11.4876 65.5814 11.4964C65.5964 11.5052 65.6143 11.508 65.6313 11.5043C65.6489 11.4996 65.6638 11.4883 65.6731 11.4727C65.6824 11.4572 65.6852 11.4386 65.6809 11.421C65.6597 11.3775 65.6469 11.3303 65.6433 11.2821C65.6422 11.2565 65.6499 11.2313 65.6651 11.2106C65.6723 11.2009 65.6815 11.1928 65.6921 11.187C65.7027 11.1812 65.7145 11.1777 65.7266 11.1769H65.8198C65.8598 11.1872 65.8989 11.2004 65.9369 11.2166C65.9516 11.2222 65.9677 11.2224 65.9826 11.2173C65.9974 11.2123 66.01 11.2022 66.0183 11.1888C66.0223 11.1808 66.0247 11.172 66.0252 11.163C66.0258 11.154 66.0246 11.145 66.0216 11.1365C66.0187 11.128 66.014 11.1202 66.008 11.1135C66.002 11.1068 65.9947 11.1014 65.9865 11.0976Z" fill="#C16B5B"/>
<path d="M64.5023 9.40915C64.676 9.31218 64.8709 9.2593 65.0698 9.25515C65.2687 9.251 65.4655 9.2957 65.6432 9.38534C65.6869 9.40903 65.7201 9.44828 65.7363 9.49531C65.7525 9.54235 65.7504 9.59374 65.7305 9.63931C65.7173 9.66423 65.699 9.68605 65.6767 9.70333C65.6544 9.7206 65.6287 9.73294 65.6013 9.73951C65.5739 9.74608 65.5454 9.74673 65.5177 9.74143C65.49 9.73613 65.4638 9.72499 65.4408 9.70876C65.3436 9.6648 65.2396 9.63795 65.1332 9.62939C64.9968 9.62192 64.8606 9.6478 64.7364 9.70479L64.7086 9.71868C64.6666 9.7444 64.6165 9.75358 64.5681 9.74441C64.5197 9.73524 64.4764 9.70839 64.4467 9.66907C64.4222 9.62655 64.4143 9.57645 64.4245 9.52844C64.4348 9.48043 64.4625 9.43793 64.5023 9.40915Z" fill="black"/>
<path d="M66.79 9.42515C66.9744 9.35065 67.1744 9.32255 67.3723 9.34331C67.5701 9.36406 67.7599 9.43304 67.9249 9.54419C67.9652 9.57303 67.9932 9.6159 68.0035 9.66436C68.0138 9.71283 68.0055 9.76339 67.9804 9.8061C67.9516 9.84639 67.9087 9.87443 67.8603 9.88471C67.8118 9.89499 67.7612 9.88677 67.7185 9.86165C67.6841 9.83652 67.6484 9.81334 67.6114 9.79221H67.5915L67.5499 9.77634C67.5122 9.76056 67.4729 9.74859 67.4328 9.74062C67.4328 9.74062 67.3594 9.7188 67.409 9.74062C67.3912 9.73856 67.3732 9.73856 67.3554 9.74062C67.3178 9.73865 67.28 9.73865 67.2423 9.74062H67.163C67.1256 9.74512 67.0885 9.75175 67.0519 9.76046L66.9923 9.77634H66.9705C66.9256 9.79675 66.8748 9.79973 66.8278 9.78469C66.7809 9.76965 66.7412 9.73768 66.7165 9.69499C66.6907 9.64943 66.6839 9.59549 66.6976 9.54494C66.7114 9.49438 66.7446 9.45132 66.79 9.42515Z" fill="black"/>
<path d="M66.6689 12.0163C66.4259 12.2002 66.123 12.2865 65.8197 12.2584C65.7363 12.2584 65.7284 12.3794 65.8197 12.3873C66.1576 12.4171 66.4945 12.3195 66.7641 12.1135C66.8177 12.0619 66.7363 11.9746 66.6689 12.0163Z" fill="#8E4136"/>
<path d="M67.5299 10.7108C67.5322 10.7718 67.5164 10.832 67.4844 10.884C67.4524 10.9359 67.4057 10.9771 67.3503 11.0024C67.2948 11.0277 67.233 11.036 67.1729 11.0261C67.1127 11.0163 67.0568 10.9887 67.0123 10.947C66.9678 10.9053 66.9367 10.8514 66.923 10.792C66.9092 10.7325 66.9134 10.6704 66.9351 10.6134C66.9568 10.5564 66.9949 10.5071 67.0446 10.4718C67.0944 10.4365 67.1535 10.4168 67.2144 10.4152C67.2546 10.4139 67.2946 10.4205 67.3321 10.4346C67.3697 10.4488 67.4041 10.4702 67.4334 10.4976C67.4627 10.5251 67.4863 10.5581 67.5029 10.5946C67.5194 10.6312 67.5286 10.6707 67.5299 10.7108Z" fill="black"/>
<path d="M67.2024 10.6234C67.2032 10.6411 67.1987 10.6585 67.1895 10.6736C67.1804 10.6887 67.167 10.7008 67.151 10.7082C67.135 10.7157 67.1171 10.7182 67.0997 10.7156C67.0822 10.7129 67.066 10.7051 67.0529 10.6932C67.0399 10.6813 67.0307 10.6658 67.0265 10.6486C67.0223 10.6315 67.0233 10.6135 67.0293 10.5969C67.0353 10.5803 67.0461 10.5658 67.0603 10.5554C67.0745 10.5449 67.0915 10.5389 67.1092 10.5381C67.1327 10.5376 67.1556 10.5461 67.1729 10.562C67.1903 10.5779 67.2009 10.5999 67.2024 10.6234Z" fill="white"/>
<path d="M65.2919 10.6491C65.2942 10.7099 65.2784 10.7701 65.2465 10.822C65.2146 10.8738 65.168 10.915 65.1126 10.9404C65.0573 10.9658 64.9956 10.9741 64.9355 10.9644C64.8754 10.9547 64.8195 10.9274 64.775 10.8859C64.7304 10.8444 64.6991 10.7906 64.6852 10.7313C64.6712 10.672 64.6752 10.61 64.6965 10.5529C64.7179 10.4959 64.7557 10.4465 64.8052 10.411C64.8546 10.3755 64.9135 10.3554 64.9744 10.3534C65.0556 10.3508 65.1346 10.3804 65.1941 10.4357C65.2536 10.4911 65.2888 10.5678 65.2919 10.6491Z" fill="black"/>
<path d="M64.9625 10.562C64.9631 10.5737 64.9613 10.5854 64.9573 10.5965C64.9533 10.6075 64.9471 10.6176 64.9392 10.6263C64.9313 10.635 64.9217 10.642 64.9111 10.6469C64.9005 10.6519 64.8889 10.6547 64.8772 10.6552C64.8533 10.6558 64.8302 10.6469 64.8128 10.6306C64.7953 10.6143 64.785 10.5918 64.784 10.5679C64.7837 10.5562 64.7857 10.5445 64.79 10.5336C64.7942 10.5227 64.8006 10.5127 64.8087 10.5042C64.8168 10.4957 64.8265 10.4889 64.8372 10.4842C64.848 10.4795 64.8595 10.4769 64.8713 10.4767C64.8829 10.4761 64.8945 10.4779 64.9054 10.4819C64.9164 10.486 64.9264 10.4921 64.9349 10.5001C64.9434 10.508 64.9502 10.5176 64.9549 10.5282C64.9597 10.5389 64.9623 10.5503 64.9625 10.562Z" fill="white"/>
<path d="M71.7165 11.9549C71.3197 12.3974 70.7244 12.5005 70.3693 12.189C70.0141 11.8775 70.0538 11.2644 70.4466 10.8239C70.8395 10.3835 71.4387 10.2783 71.7939 10.5898C72.149 10.9013 72.1094 11.5144 71.7165 11.9549Z" fill="#E0AC8F"/>
<path d="M71.5398 10.8037C71.4499 10.7598 71.3512 10.7371 71.2511 10.7371C71.1511 10.7371 71.0524 10.7598 70.9625 10.8037C70.8749 10.8385 70.7977 10.8952 70.7382 10.9684C70.7055 11.0097 70.6832 11.0584 70.6732 11.1102C70.6632 11.162 70.6658 11.2154 70.6807 11.266C70.7126 11.3448 70.7654 11.4134 70.8335 11.4644C70.8739 11.4946 70.9088 11.5315 70.9367 11.5735C70.954 11.6047 70.9609 11.6405 70.9564 11.6759C70.9519 11.7112 70.9361 11.7442 70.9115 11.7699C70.8869 11.7957 70.8546 11.8128 70.8195 11.8189C70.7844 11.825 70.7483 11.8197 70.7164 11.8037C70.7076 11.7974 70.6975 11.793 70.6868 11.791C70.6762 11.7889 70.6652 11.7892 70.6546 11.7918C70.6441 11.7944 70.6342 11.7992 70.6257 11.806C70.6172 11.8127 70.6102 11.8212 70.6053 11.8309C70.6004 11.8406 70.5977 11.8512 70.5972 11.8621C70.5968 11.8729 70.5987 11.8837 70.6029 11.8938C70.607 11.9038 70.6133 11.9129 70.6212 11.9202C70.6292 11.9276 70.6386 11.9332 70.649 11.9366C70.6892 11.9562 70.7332 11.967 70.7779 11.9684C70.8336 11.9711 70.889 11.9588 70.9384 11.9329C70.9878 11.9071 71.0294 11.8685 71.0589 11.8212C71.0885 11.7739 71.1048 11.7196 71.1063 11.6638C71.1079 11.6081 71.0945 11.5529 71.0676 11.5041C71.0312 11.4456 70.9848 11.3939 70.9307 11.3513C70.8842 11.3188 70.8467 11.2752 70.8216 11.2243C70.8143 11.1968 70.8135 11.1679 70.8194 11.14C70.8252 11.1121 70.8375 11.0859 70.8553 11.0636C70.8727 11.0427 70.8927 11.024 70.9148 11.0081C70.9924 11.0072 71.0675 11.0355 71.1252 11.0874C71.1503 11.1177 71.1685 11.1531 71.1785 11.1911C71.1884 11.2292 71.1899 11.269 71.1827 11.3077C71.1807 11.3173 71.1806 11.3273 71.1826 11.3369C71.1845 11.3466 71.1884 11.3558 71.1939 11.364C71.1995 11.3721 71.2066 11.379 71.2149 11.3844C71.2232 11.3897 71.2325 11.3933 71.2422 11.395H71.2541C71.2715 11.3957 71.2886 11.39 71.3021 11.3791C71.3156 11.3681 71.3247 11.3526 71.3275 11.3354C71.3394 11.2749 71.3376 11.2124 71.3221 11.1527C71.3067 11.0929 71.278 11.0374 71.2382 10.9902C71.2068 10.9575 71.1699 10.9307 71.1291 10.9108C71.2419 10.8809 71.3618 10.8929 71.4664 10.9446C71.5271 10.9778 71.5739 11.0317 71.5983 11.0965C71.6227 11.1613 71.6231 11.2327 71.5994 11.2977C71.5937 11.3149 71.5944 11.3334 71.6013 11.3501C71.6081 11.3668 71.6208 11.3804 71.6368 11.3886C71.6529 11.3967 71.6714 11.3989 71.6889 11.3946C71.7064 11.3903 71.7218 11.3799 71.7323 11.3652C71.7774 11.2646 71.7826 11.1507 71.7469 11.0465C71.7112 10.9422 71.6371 10.8554 71.5398 10.8037Z" fill="#C16B5B"/>
<path d="M29.387 26.7803H0V43.193H29.387V26.7803Z" fill="#FCDBBA"/>
<path d="M29.387 24.2209H0V26.7805H29.387V24.2209Z" fill="#FCBF1E"/>
<path d="M9.1846 33.1692H6.60522V39.8121H9.1846V33.1692Z" fill="#039C8A"/>
<path d="M12.5833 31.2544H10.0039V39.812H12.5833V31.2544Z" fill="#039C8A"/>
<path d="M15.9842 30.1611H13.4048V39.8139H15.9842V30.1611Z" fill="#039C8A"/>
<path d="M19.3828 32.1533H16.8035V39.8121H19.3828V32.1533Z" fill="#039C8A"/>
<path d="M22.784 34.2249H20.2046V39.8122H22.784V34.2249Z" fill="#039C8A"/>
<path d="M23.6432 28.7643C23.767 28.7643 23.8674 28.664 23.8674 28.5401C23.8674 28.4163 23.767 28.3159 23.6432 28.3159C23.5193 28.3159 23.4189 28.4163 23.4189 28.5401C23.4189 28.664 23.5193 28.7643 23.6432 28.7643Z" fill="#039C8A"/>
<path d="M28.1806 28.447H24.4365V28.6335H28.1806V28.447Z" fill="#226356"/>
<path d="M23.8672 29.8143C23.8676 29.8591 23.8546 29.903 23.83 29.9405C23.8054 29.978 23.7702 30.0073 23.7289 30.0247C23.6876 30.0421 23.6421 30.0469 23.5981 30.0384C23.5541 30.0299 23.5136 30.0085 23.4817 29.9769C23.4499 29.9454 23.4282 29.9051 23.4193 29.8611C23.4104 29.8172 23.4148 29.7716 23.4318 29.7302C23.4489 29.6887 23.4779 29.6533 23.5151 29.6284C23.5523 29.6034 23.5962 29.5901 23.641 29.5901C23.7006 29.5901 23.7579 29.6136 23.8002 29.6556C23.8426 29.6976 23.8666 29.7547 23.8672 29.8143Z" fill="#039C8A"/>
<path d="M28.1806 29.7207H24.4365V29.9072H28.1806V29.7207Z" fill="#226356"/>
<path d="M23.6432 31.3139C23.767 31.3139 23.8674 31.2135 23.8674 31.0897C23.8674 30.9659 23.767 30.8655 23.6432 30.8655C23.5193 30.8655 23.4189 30.9659 23.4189 31.0897C23.4189 31.2135 23.5193 31.3139 23.6432 31.3139Z" fill="#039C8A"/>
<path d="M28.1806 30.9966H24.4365V31.1831H28.1806V30.9966Z" fill="#226356"/>
<path d="M32.3654 74.3616H6.00415V78.4489H32.3654V74.3616Z" fill="#FCBF1E"/>
<g style="mix-blend-mode:soft-light">
<path d="M14.8033 74.3616H12.4858V78.4489H14.8033V74.3616Z" fill="white"/>
</g>
<g style="mix-blend-mode:soft-light">
<path d="M22.0836 74.3616H20.0916V78.4489H22.0836V74.3616Z" fill="white"/>
</g>
<g style="mix-blend-mode:soft-light">
<path d="M19.1865 74.3616H15.3472V78.4489H19.1865V74.3616Z" fill="white"/>
</g>
<path d="M35.4801 70.2722H9.1189V74.3595H35.4801V70.2722Z" fill="#E89417"/>
<g style="mix-blend-mode:soft-light">
<path d="M17.9185 70.2722H15.6011V74.3595H17.9185V70.2722Z" fill="white"/>
</g>
<g style="mix-blend-mode:soft-light">
<path d="M25.1967 70.2722H23.2046V74.3595H25.1967V70.2722Z" fill="white"/>
</g>
<g style="mix-blend-mode:soft-light">
<path d="M22.2995 70.2722H18.4602V74.3595H22.2995V70.2722Z" fill="white"/>
</g>
<path d="M27.6588 66.1851H1.29761V70.2724H27.6588V66.1851Z" fill="#FCBF1E"/>
<g style="mix-blend-mode:soft-light">
<path d="M10.0973 66.1851H7.77979V70.2724H10.0973V66.1851Z" fill="white"/>
</g>
<g style="mix-blend-mode:soft-light">
<path d="M17.3751 66.1851H15.3831V70.2724H17.3751V66.1851Z" fill="white"/>
</g>
<g style="mix-blend-mode:soft-light">
<path d="M14.4782 66.1851H10.6389V70.2724H14.4782V66.1851Z" fill="white"/>
</g>
<path d="M36.7284 45.2009H34.8633V75.9213H36.7284V45.2009Z" fill="#87470B"/>
<path d="M37.7859 72.334H33.8037V75.5701H37.7859V72.334Z" fill="#039C8A"/>
<path d="M28.2478 75.5723H43.3431C43.7373 75.5723 44.1153 75.7288 44.394 76.0075C44.6727 76.2862 44.8292 76.6642 44.8292 77.0584V78.487H26.7617V77.0584C26.7617 76.6642 26.9183 76.2862 27.197 76.0075C27.4757 75.7288 27.8537 75.5723 28.2478 75.5723Z" fill="#E89417"/>
<path d="M35.7957 45.6673C37.3408 45.6673 38.5933 44.4147 38.5933 42.8697C38.5933 41.3246 37.3408 40.072 35.7957 40.072C34.2506 40.072 32.998 41.3246 32.998 42.8697C32.998 44.4147 34.2506 45.6673 35.7957 45.6673Z" fill="#87470B"/>
<path d="M37.8138 45.2009H33.7781V46.1196H37.8138V45.2009Z" fill="#226356"/>
<path d="M13.4961 54.6534L13.3711 54.5363L21.2739 46.1196L29.014 54.5363L28.887 54.6514L21.2719 46.3716L13.4961 54.6534Z" fill="#226356"/>
<path d="M12.8789 53.7625V55.4529C12.8789 55.9628 13.0815 56.4519 13.442 56.8124C13.8026 57.173 14.2916 57.3756 14.8015 57.3756H27.7401C27.9927 57.3758 28.2429 57.3263 28.4764 57.2298C28.7099 57.1333 28.9221 56.9917 29.1009 56.8131C29.2796 56.6346 29.4214 56.4225 29.5181 56.1892C29.6149 55.9558 29.6647 55.7056 29.6647 55.4529V53.7625H12.8789Z" fill="#039C8A"/>
<path d="M58.0953 54.6534L58.2203 54.5363L50.3175 46.1196L42.5774 54.5363L42.7024 54.6514L50.3195 46.3716L58.0953 54.6534Z" fill="#226356"/>
<path d="M58.7108 53.7625V55.4529C58.7108 55.9628 58.5083 56.4519 58.1477 56.8124C57.7871 57.173 57.2981 57.3756 56.7882 57.3756H43.8497C43.597 57.3758 43.3468 57.3263 43.1133 57.2298C42.8798 57.1333 42.6676 56.9917 42.4889 56.8131C42.3101 56.6346 42.1683 56.4225 42.0716 56.1892C41.9748 55.9558 41.925 55.7056 41.925 55.4529V53.7625H58.7108Z" fill="#039C8A"/>
<path d="M51.5559 46.1196H20.0339C19.8444 46.1196 19.6907 46.2733 19.6907 46.4629V46.6216C19.6907 46.8112 19.8444 46.9649 20.0339 46.9649H51.5559C51.7454 46.9649 51.8991 46.8112 51.8991 46.6216V46.4629C51.8991 46.2733 51.7454 46.1196 51.5559 46.1196Z" fill="#87470B"/>
<path d="M51.2801 46.5424C51.2801 46.7327 51.2236 46.9188 51.1179 47.077C51.0122 47.2353 50.8619 47.3586 50.686 47.4314C50.5102 47.5043 50.3167 47.5233 50.13 47.4862C49.9434 47.4491 49.7719 47.3574 49.6373 47.2228C49.5027 47.0883 49.4111 46.9168 49.374 46.7301C49.3368 46.5435 49.3559 46.35 49.4287 46.1741C49.5016 45.9983 49.6249 45.848 49.7831 45.7423C49.9414 45.6365 50.1274 45.5801 50.3178 45.5801C50.4441 45.5801 50.5693 45.605 50.686 45.6533C50.8028 45.7017 50.9089 45.7726 50.9982 45.8619C51.0876 45.9513 51.1585 46.0574 51.2068 46.1741C51.2552 46.2909 51.2801 46.416 51.2801 46.5424Z" fill="#226356"/>
<path d="M22.2342 46.5424C22.2342 46.7327 22.1777 46.9188 22.072 47.077C21.9663 47.2353 21.816 47.3586 21.6401 47.4314C21.4643 47.5043 21.2708 47.5233 21.0841 47.4862C20.8975 47.4491 20.726 47.3574 20.5914 47.2228C20.4568 47.0883 20.3652 46.9168 20.3281 46.7301C20.2909 46.5435 20.31 46.35 20.3828 46.1741C20.4557 45.9983 20.579 45.848 20.7372 45.7423C20.8955 45.6365 21.0815 45.5801 21.2719 45.5801C21.5271 45.5801 21.7719 45.6815 21.9523 45.8619C22.1328 46.0424 22.2342 46.2872 22.2342 46.5424Z" fill="#226356"/>
</svg>
