<svg width="113" height="59" viewBox="0 0 113 59" fill="none" xmlns="http://www.w3.org/2000/svg">
<path d="M107.701 58.759C107.701 58.759 111.825 54.8255 111.95 46.4276C112.075 38.0297 108.92 29.6977 100.809 26.1214C92.6988 22.5451 85.577 20.1618 82.297 16.6372C79.017 13.1126 73.1116 8.05453 66.1364 7.4631C60.8394 7.0142 56.5153 8.46154 52.6794 6.13547C47.0898 2.74625 37.2165 -1.3313 24.2556 0.420175C9.01228 9.90252 -7.22682 41.9576 10.9953 58.6228L107.701 58.759Z" fill="#DAF2F1"/>
<path d="M24.2574 0.420166C25.6849 1.80765 28.0465 4.92716 29.654 5.1778C31.5727 5.47707 35.7763 10.127 37.0298 12.9869C38.2834 15.8467 40.6585 17.5391 44.5228 20.2303C48.3871 22.9215 49.8056 26.9639 51.1924 29.6472C52.5791 32.3305 51.0405 31.901 51.4086 36.3968C51.7767 40.8926 54.8566 40.431 56.9339 43.231C59.0112 46.031 58.8971 48.2875 59.0662 49.4749C59.2352 50.6461 61.7824 56.9705 62.7659 58.6928L10.7499 58.6228C-7.65518 42.4899 -1.95934 5.2268 24.2574 0.420166Z" fill="#A8725E"/>
<path d="M33.3774 58.7589C31.8811 56.8511 32.6375 55.1127 33.1309 50.7463C33.6243 46.38 33.5394 41.129 31.9806 38.2825C30.4218 35.4361 28.9711 31.2546 28.7466 28.7059C28.5222 26.1573 28.8588 24.0448 28.466 22.4358C28.0733 20.8269 23.1791 15.1666 22.5865 15.3578C25.4921 32.1614 25.2115 44.4493 25.2115 44.4493L25.8646 58.6347L33.3774 58.7589Z" fill="#946454"/>
<path d="M7.67505 51.0405C5.89514 49.4098 6.36985 45.4819 6.81876 42.848C7.26766 40.214 9.39995 39.2231 11.6995 36.3987C13.999 33.5744 11.4204 34.4845 10.8701 30.4781C10.3198 26.4716 10.747 27.638 13.7375 23.1112C16.7279 18.5843 15.6483 21.5961 14.2264 18.7879C12.8045 15.9796 14.6753 17.6488 17.3687 16.1244C20.0622 14.6 19.2766 14.5061 18.0376 9.90442C18.0376 9.90442 21.5215 13.2712 22.8379 14.8274C22.8379 14.8274 22.0826 21.3526 22.5222 21.9672C22.9617 22.5818 14.388 57.9959 14.388 57.9959C14.388 57.9959 9.45495 52.6715 7.67505 51.0405Z" fill="#946454"/>
<path d="M26.5379 5.32739C22.9467 4.13031 26.5379 5.32739 25.2773 1.49487C26.6543 3.00356 28.3878 4.98024 29.6541 5.17776C29.8523 5.21325 30.0449 5.27502 30.2268 5.36143C29.3817 5.31542 28.7047 6.04975 26.5379 5.32739Z" fill="#946454"/>
<path d="M52.2275 39.116C51.393 38.5953 50.3691 37.9062 49.0392 36.8341C44.7492 33.3708 43.3033 35.5708 41.3008 35.698C39.2984 35.8252 43.6647 34.8612 47.6678 34.0445C51.6709 33.2279 49.8813 33.161 50.0994 30.3785C50.3175 27.596 48.6947 26.7267 43.1687 21.5964C37.6427 16.4662 41.9503 20.742 37.8738 19.3893C33.7974 18.0366 37.0134 17.7508 35.9469 13.6984C34.8804 9.64588 35.5354 10.4894 32.5801 7.1062C34.3668 8.78959 36.2567 11.2298 37.0284 12.9906C38.2823 15.8505 40.657 17.5428 44.5214 20.234C48.3857 22.9252 49.8042 26.9676 51.1909 29.6509C52.5777 32.3342 51.0391 31.9048 51.4072 36.4005C51.5082 37.6111 51.8056 38.4633 52.2275 39.116Z" fill="#946454"/>
<path d="M55.785 47.9827C58.8451 45.8975 58.092 45.1606 56.265 42.4623C56.5074 42.7009 56.7311 42.9579 56.9339 43.231C59.0112 46.0311 58.8971 48.2876 59.0662 49.4749C59.141 49.9893 59.6733 51.495 60.3306 53.172C57.2477 51.4377 54.0414 49.1697 55.785 47.9827Z" fill="#946454"/>
<path d="M13.1225 57.4373C4.12498 48.2026 9.33114 42.8778 9.55522 37.944C9.7793 33.0102 13.3709 27.6656 13.8198 26.522C14.2687 25.3784 14.6701 22.22 15.6491 21.5942C18.4921 19.7795 16.2271 18.1036 19.2871 16.8867C22.3471 15.6698 22.839 14.8254 22.839 14.8254C27.695 20.4502 28.0112 22.5552 27.5974 27.8354C27.4538 29.6684 29.7278 32.8856 30.6851 36.2741C31.6424 39.6625 32.3895 41.5113 32.593 45.33C32.7965 49.1486 30.0555 58.7597 30.0555 58.7597C29.6298 58.8865 14.7195 59.0765 13.1225 57.4373Z" fill="#66493F"/>
<path d="M9.55539 37.9439C9.77984 33.0097 13.3711 27.6655 13.82 26.5219C14.2689 25.3784 14.6703 22.2199 15.6493 21.5941C16.8041 20.8571 17.116 20.143 17.2844 19.473C17.2634 20.345 17.0741 21.1785 16.5845 21.7407C15.4622 23.0291 15.4622 24.4933 15.5812 25.3428C15.7001 26.1924 13.3295 30.3294 13.1234 30.7166C12.9173 31.1037 13.554 35.1559 15.0997 35.8318C16.6454 36.5078 18.3857 43.4392 18.3857 44.8982C18.3857 46.3571 21.4158 47.311 22.0892 47.8161C22.7625 48.3211 24.6704 51.3497 25.5117 52.3425C26.353 53.3353 26.5763 56.9685 25.8656 58.6332L25.6897 58.8348C21.029 58.8026 14.1772 58.5176 13.1234 57.4357C4.12514 48.2025 9.33131 42.8777 9.55539 37.9439Z" fill="#543C34"/>
<path d="M90.5209 58.759C90.7079 58.6385 93.7597 53.8696 95.77 56.1246C95.77 56.1246 98.7859 47.8573 102.918 48.2471C107.051 48.6369 103.551 54.7716 103.551 54.7716C103.551 54.7716 107.088 53.5988 106.269 56.6959C106.269 56.6959 110.774 56.0341 110.439 58.6501L90.5209 58.759Z" fill="#3F9896"/>
<path d="M107.002 52.1904C106.739 51.8688 107.013 51.2095 107.614 50.7178C108.215 50.2261 108.915 50.0883 109.179 50.4099C109.442 50.7315 109.167 51.3908 108.566 51.8825C107.965 52.3741 107.265 52.512 107.002 52.1904Z" fill="#3F9896"/>
<path d="M108.023 53.7639C107.868 53.5736 108.03 53.1834 108.386 52.8924C108.742 52.6013 109.156 52.5197 109.312 52.71C109.468 52.9003 109.305 53.2905 108.949 53.5815C108.594 53.8726 108.179 53.9542 108.023 53.7639Z" fill="#3F9896"/>
<path d="M103.388 55.376C103.377 55.3744 103.368 55.3693 103.361 55.3614C103.358 55.3577 103.355 55.3532 103.354 55.3485C103.353 55.3438 103.353 55.3389 103.355 55.3341C103.356 55.3294 103.358 55.3251 103.361 55.3214C103.364 55.3176 103.368 55.3147 103.373 55.3128C103.41 55.2934 104.266 54.837 105.019 54.9686C105.023 54.9692 105.028 54.9707 105.033 54.9731C105.037 54.9755 105.041 54.9787 105.044 54.9826C105.047 54.9864 105.049 54.9909 105.05 54.9956C105.052 55.0003 105.052 55.0053 105.052 55.0102C105.048 55.0201 105.04 55.0284 105.031 55.0333C105.022 55.0383 105.011 55.0396 105 55.0371C104.284 54.9114 103.429 55.3663 103.421 55.3712C103.411 55.3763 103.399 55.378 103.388 55.376Z" fill="black"/>
<path d="M103.963 55.4285C103.953 55.4267 103.943 55.4214 103.936 55.4135C103.933 55.4097 103.931 55.4053 103.93 55.4006C103.929 55.3959 103.929 55.391 103.931 55.3863C103.932 55.3816 103.934 55.3772 103.937 55.3736C103.94 55.3699 103.944 55.3671 103.949 55.3652C103.965 55.3563 104.36 55.1494 105.064 55.1846C105.069 55.1841 105.075 55.1848 105.08 55.1865C105.084 55.1882 105.089 55.1909 105.093 55.1944C105.097 55.1979 105.1 55.2022 105.102 55.2069C105.104 55.2117 105.105 55.2168 105.105 55.222C105.103 55.2323 105.097 55.2414 105.088 55.2475C105.08 55.2535 105.069 55.2561 105.059 55.2545C104.385 55.2208 104 55.4217 103.996 55.4236C103.986 55.4289 103.975 55.4306 103.963 55.4285Z" fill="black"/>
<path d="M93.2278 56.7789C93.217 56.779 93.2064 56.7755 93.1979 56.7688C93.1939 56.766 93.1907 56.7623 93.1885 56.758C93.1863 56.7537 93.1851 56.7489 93.1851 56.7441C93.1851 56.7393 93.1863 56.7345 93.1885 56.7302C93.1907 56.7259 93.1939 56.7222 93.1979 56.7194C93.2282 56.6944 93.9461 56.1014 94.7159 56.1014C94.7216 56.0993 94.7277 56.0985 94.7337 56.0993C94.7397 56.1 94.7455 56.1022 94.7504 56.1056C94.7554 56.1091 94.7595 56.1137 94.7623 56.119C94.7651 56.1244 94.7666 56.1304 94.7666 56.1364C94.7666 56.1425 94.7651 56.1484 94.7623 56.1538C94.7595 56.1592 94.7554 56.1638 94.7504 56.1672C94.7455 56.1706 94.7397 56.1728 94.7337 56.1735C94.7277 56.1743 94.7216 56.1735 94.7159 56.1714C93.9823 56.1714 93.2671 56.7621 93.26 56.7699C93.2507 56.7767 93.2393 56.7798 93.2278 56.7789Z" fill="black"/>
<path d="M93.8045 56.7311C93.7936 56.7311 93.783 56.7277 93.7742 56.7213C93.7703 56.7185 93.7672 56.7148 93.765 56.7105C93.7629 56.7062 93.7617 56.7014 93.7617 56.6966C93.7617 56.6918 93.7629 56.6871 93.765 56.6828C93.7672 56.6785 93.7703 56.6748 93.7742 56.6719C93.7881 56.6603 94.1206 56.3903 94.8168 56.3046C94.8272 56.3024 94.838 56.3042 94.8471 56.3096C94.8562 56.315 94.863 56.3236 94.8662 56.3338C94.8699 56.3529 94.8535 56.3712 94.8288 56.3734C94.1633 56.4557 93.8382 56.718 93.8352 56.7206C93.8265 56.7275 93.8156 56.7312 93.8045 56.7311Z" fill="black"/>
<path d="M70.1045 58.6228C69.5688 58.1765 65.391 51.9266 62.4978 55.1415C62.4978 55.1415 57.7705 46.0812 51.7847 47.8551C51.7847 47.8551 47.969 49.6963 50.7399 54.2823C50.7399 54.2823 41.5 53.7911 41.6204 58.6217L70.1045 58.6228Z" fill="#258D8C"/>
<path d="M56.2795 49.5665C56.2886 49.5667 56.2976 49.565 56.3061 49.5616C56.3145 49.5582 56.3221 49.5531 56.3285 49.5467C56.3335 49.5416 56.3373 49.5355 56.3395 49.5287C56.3417 49.522 56.3423 49.5148 56.3413 49.5078C56.3403 49.5008 56.3377 49.4941 56.3336 49.4882C56.3296 49.4824 56.3243 49.4775 56.3181 49.4741C56.2563 49.4333 54.7892 48.4802 53.4481 48.3459C53.4329 48.3432 53.4174 48.3465 53.4045 48.3549C53.3917 48.3633 53.3825 48.3762 53.3789 48.3911C53.3785 48.3985 53.3796 48.4059 53.3821 48.4129C53.3846 48.4199 53.3885 48.4263 53.3936 48.4317C53.3987 48.4371 53.4048 48.4414 53.4116 48.4444C53.4184 48.4474 53.4257 48.449 53.4331 48.4491C54.7394 48.5797 56.2264 49.5456 56.241 49.5553C56.2525 49.5626 56.2659 49.5665 56.2795 49.5665Z" fill="black"/>
<path d="M56.2795 50.1685C56.2884 50.1686 56.2972 50.167 56.3055 50.1637C56.3138 50.1605 56.3213 50.1556 56.3277 50.1494C56.3332 50.1444 56.3373 50.1382 56.3399 50.1313C56.3424 50.1244 56.3433 50.117 56.3424 50.1097C56.3416 50.1024 56.339 50.0954 56.3348 50.0893C56.3307 50.0832 56.3252 50.0781 56.3188 50.0746C56.3087 50.0678 55.3031 49.3948 54.0204 49.0829C54.0052 49.0787 53.989 49.0802 53.9748 49.0871C53.9607 49.094 53.9495 49.1058 53.9433 49.1203C53.9414 49.1273 53.941 49.1346 53.9421 49.1418C53.9432 49.149 53.9459 49.1559 53.9499 49.162C53.9539 49.1681 53.9591 49.1733 53.9653 49.1772C53.9715 49.1811 53.9784 49.1836 53.9856 49.1846C55.2436 49.4902 56.2301 50.1501 56.2406 50.1572C56.2521 50.1648 56.2657 50.1688 56.2795 50.1685Z" fill="black"/>
<path d="M77.16 16.9047C75.2761 16.8014 68.8179 16.5021 64.3905 16.9769C63.8163 17.0386 63.4617 16.4793 63.8646 16.143C64.1002 15.9463 64.5005 15.7888 65.1649 15.7592C65.1649 15.7592 64.9981 12.4254 68.1179 12.2428C71.6964 12.0333 71.6781 15.3066 71.6781 15.3066C71.6781 15.3066 73.3241 14.0814 74.4673 15.6743C74.4673 15.6743 76.5094 14.7544 77.4974 16.5122C77.604 16.7038 77.4185 16.9193 77.16 16.9047Z" fill="white"/>
<path d="M92.5349 35.13C93.9677 35.0638 97.3262 34.9482 100.246 35.1468C101.454 35.2291 102.497 34.4499 102.47 33.4713C102.459 33.0707 102.283 32.6046 101.821 32.0763C100.048 30.0432 96.9664 31.9851 96.9948 33.0172C96.9948 33.0172 96.3716 31.4628 94.4794 31.7352C92.5873 32.0075 93.2566 34.2674 93.2566 34.2674C93.2566 34.2674 92.646 34.163 92.2226 34.3964C91.8081 34.625 92.0322 35.1521 92.5349 35.13Z" fill="white"/>
<path d="M87.2602 54.4607H80.7908V53.7099H87.2602V54.4607Z" fill="#FFC931"/>
<path d="M87.9113 53.7103H81.4419V52.9595H87.9113V53.7103Z" fill="#FFC931"/>
<path d="M87.3701 52.9595H80.9006V52.2087H87.3701V52.9595Z" fill="#FFC931"/>
<path d="M88.1198 52.2095H81.6504V51.4587H88.1198V52.2095Z" fill="#FFC931"/>
<path d="M87.3701 51.4597H80.9006V50.7089H87.3701V51.4597Z" fill="#FFC931"/>
<path d="M87.9113 50.7094H81.4419V49.9586H87.9113V50.7094Z" fill="#FFC931"/>
<path d="M87.101 49.9583H80.6316V49.2075H87.101V49.9583Z" fill="#FFC931"/>
<path d="M87.9113 49.2078H81.4419V48.457H87.9113V49.2078Z" fill="#FFC931"/>
<path d="M87.48 48.457H81.0105V47.7062H87.48V48.457Z" fill="#FFC931"/>
<path d="M87.9113 47.7065H81.4419V46.9558H87.9113V47.7065Z" fill="#FFC931"/>
<g style="mix-blend-mode:multiply" opacity="0.5">
<path d="M88.1179 52.2094V51.459H87.3697V50.7109H87.9092V49.9601H87.0989V49.2096H87.9092V48.4589H87.4779V47.7084H87.9092V46.9576H84.9434C84.8862 46.9577 84.8314 46.9805 84.7909 47.021C84.7504 47.0614 84.7277 47.1163 84.7276 47.1735V47.4926C84.7276 47.5209 84.7221 47.549 84.7113 47.5752C84.7005 47.6013 84.6846 47.6251 84.6646 47.6452C84.6446 47.6652 84.6208 47.6811 84.5946 47.692C84.5685 47.7028 84.5404 47.7084 84.5121 47.7084C84.4549 47.7084 84.4 47.7312 84.3595 47.7717C84.319 47.8121 84.2963 47.867 84.2963 47.9243V48.2434C84.2963 48.2717 84.3018 48.2998 84.3127 48.3259C84.3235 48.3521 84.3394 48.3759 84.3595 48.3959C84.3795 48.4159 84.4033 48.4317 84.4295 48.4426C84.4557 48.4534 84.4838 48.4589 84.5121 48.4589C84.5693 48.459 84.6241 48.4817 84.6645 48.5222C84.7049 48.5627 84.7276 48.6175 84.7276 48.6747V48.9938C84.7276 49.0221 84.7221 49.0502 84.7113 49.0764C84.7005 49.1026 84.6846 49.1264 84.6646 49.1464C84.6446 49.1664 84.6208 49.1823 84.5946 49.1932C84.5685 49.2041 84.5404 49.2096 84.5121 49.2096H84.1331C84.0759 49.2096 84.021 49.2324 83.9805 49.2729C83.94 49.3133 83.9173 49.3682 83.9173 49.4255V49.7446C83.9174 49.8018 83.9402 49.8566 83.9807 49.897C84.0211 49.9374 84.076 49.9601 84.1331 49.9601H84.5121C84.5693 49.9602 84.6241 49.9829 84.6645 50.0234C84.7049 50.0639 84.7276 50.1187 84.7276 50.1759V50.495C84.7276 50.5233 84.7221 50.5514 84.7113 50.5776C84.7005 50.6038 84.6846 50.6276 84.6646 50.6476C84.6446 50.6677 84.6208 50.6836 84.5946 50.6944C84.5685 50.7053 84.5404 50.7109 84.5121 50.7109H84.4021C84.3449 50.7109 84.29 50.7336 84.2495 50.7741C84.209 50.8145 84.1863 50.8695 84.1863 50.9267V51.245C84.1863 51.3023 84.209 51.3572 84.2495 51.3977C84.29 51.4382 84.3449 51.4609 84.4021 51.4609H84.7205C84.7777 51.4609 84.8326 51.4836 84.8731 51.5241C84.9136 51.5646 84.9363 51.6195 84.9363 51.6767V51.9955C84.9363 52.0527 84.9136 52.1076 84.8731 52.1481C84.8326 52.1886 84.7777 52.2113 84.7205 52.2113H84.4021C84.3449 52.2113 84.29 52.2341 84.2495 52.2745C84.209 52.315 84.1863 52.3699 84.1863 52.4272V52.7455C84.1863 52.8028 84.209 52.8577 84.2495 52.8981C84.29 52.9386 84.3449 52.9614 84.4021 52.9614H84.5121C84.5404 52.9614 84.5685 52.9669 84.5946 52.9778C84.6208 52.9886 84.6446 53.0045 84.6646 53.0246C84.6846 53.0446 84.7005 53.0684 84.7113 53.0946C84.7221 53.1208 84.7276 53.1489 84.7276 53.1772V53.4963C84.7276 53.5535 84.7049 53.6083 84.6645 53.6488C84.6241 53.6893 84.5693 53.712 84.5121 53.7121H84.2921C84.235 53.7121 84.1801 53.7348 84.1396 53.7752C84.0992 53.8156 84.0764 53.8704 84.0763 53.9276V54.246C84.0763 54.3032 84.099 54.3581 84.1395 54.3986C84.18 54.4391 84.2349 54.4618 84.2921 54.4618H87.2579V53.7114H87.9092V52.9606H87.3679V52.2124L88.1179 52.2094Z" fill="#F99247"/>
</g>
<path d="M81.0106 47.6801H87.4778V47.7332H81.0106V47.6801Z" fill="black"/>
<path d="M81.442 48.4309H87.9092V48.484H81.442V48.4309Z" fill="black"/>
<path d="M80.6317 49.1813H87.0989V49.2344H80.6317V49.1813Z" fill="black"/>
<path d="M81.442 49.932H87.9092V49.9851H81.442V49.932Z" fill="black"/>
<path d="M80.9007 50.6824H87.3679V50.7355H80.9007V50.6824Z" fill="black"/>
<path d="M81.6507 51.4325H88.1179V51.4856H81.6507V51.4325Z" fill="black"/>
<path d="M81.6507 52.1832H88.1179V52.2363H81.6507V52.1832Z" fill="black"/>
<path d="M80.9007 52.9329H87.3679V52.986H80.9007V52.9329Z" fill="black"/>
<path d="M80.7908 53.6837H87.2581V53.7368H80.7908V53.6837Z" fill="black"/>
<path d="M72.1109 53.7103H78.5803V54.4611H72.1109V53.7103Z" fill="#FFC931"/>
<path d="M71.4597 52.9595H77.9292V53.7103H71.4597V52.9595Z" fill="#FFC931"/>
<path d="M72.0013 52.209H78.4707V52.9598H72.0013V52.209Z" fill="#FFC931"/>
<path d="M71.251 51.459H77.7205V52.2098H71.251V51.459Z" fill="#FFC931"/>
<path d="M72.0013 50.709H78.4707V51.4598H72.0013V50.709Z" fill="#FFC931"/>
<path d="M71.4597 49.9585H77.9292V50.7093H71.4597V49.9585Z" fill="#FFC931"/>
<path d="M72.2698 49.2078H78.7393V49.9586H72.2698V49.2078Z" fill="#FFC931"/>
<path d="M71.4597 48.4573H77.9292V49.2081H71.4597V48.4573Z" fill="#FFC931"/>
<path d="M71.8911 47.7065H78.3606V48.4573H71.8911V47.7065Z" fill="#FFC931"/>
<path d="M71.4597 46.9562H77.9292V47.707H71.4597V46.9562Z" fill="#FFC931"/>
<g style="mix-blend-mode:multiply" opacity="0.5">
<path d="M71.253 52.2094V51.459H72.003V50.7109H71.4617V49.9601H72.272V49.2096H71.4617V48.4589H71.8934V47.7084H71.4617V46.9576H74.429C74.4862 46.9576 74.5411 46.9804 74.5816 47.0209C74.6221 47.0613 74.6448 47.1162 74.6448 47.1735V47.4926C74.6448 47.5498 74.6675 47.6047 74.708 47.6452C74.7485 47.6857 74.8034 47.7084 74.8607 47.7084C74.889 47.7084 74.917 47.714 74.9432 47.7249C74.9694 47.7357 74.9931 47.7516 75.0131 47.7717C75.0332 47.7917 75.049 47.8155 75.0598 47.8417C75.0706 47.8679 75.0762 47.896 75.0761 47.9243V48.2434C75.0761 48.3005 75.0534 48.3553 75.013 48.3957C74.9726 48.4361 74.9178 48.4589 74.8607 48.4589C74.8034 48.4589 74.7485 48.4816 74.708 48.5221C74.6675 48.5625 74.6448 48.6174 74.6448 48.6747V48.9938C74.6448 49.051 74.6675 49.1059 74.708 49.1464C74.7485 49.1869 74.8034 49.2096 74.8607 49.2096H75.2392C75.2965 49.2096 75.3514 49.2324 75.3919 49.2729C75.4323 49.3133 75.4551 49.3682 75.4551 49.4255V49.7446C75.4551 49.7729 75.4495 49.801 75.4386 49.8271C75.4278 49.8533 75.4119 49.8771 75.3918 49.8971C75.3718 49.9171 75.348 49.933 75.3218 49.9438C75.2956 49.9546 75.2676 49.9601 75.2392 49.9601H74.8607C74.8034 49.9601 74.7485 49.9828 74.708 50.0233C74.6675 50.0638 74.6448 50.1187 74.6448 50.1759V50.495C74.6448 50.5522 74.6675 50.6072 74.708 50.6476C74.7485 50.6881 74.8034 50.7109 74.8607 50.7109H74.9703C75.0275 50.7109 75.0824 50.7336 75.1229 50.7741C75.1634 50.8145 75.1861 50.8695 75.1861 50.9267V51.245C75.1861 51.3023 75.1634 51.3572 75.1229 51.3977C75.0824 51.4382 75.0275 51.4609 74.9703 51.4609H74.6519C74.5947 51.4609 74.5398 51.4836 74.4993 51.5241C74.4588 51.5646 74.4361 51.6195 74.4361 51.6767V51.9955C74.4361 52.0527 74.4588 52.1076 74.4993 52.1481C74.5398 52.1886 74.5947 52.2113 74.6519 52.2113H74.9703C75.0275 52.2113 75.0824 52.2341 75.1229 52.2745C75.1634 52.315 75.1861 52.3699 75.1861 52.4272V52.7455C75.1861 52.8028 75.1634 52.8577 75.1229 52.8981C75.0824 52.9386 75.0275 52.9614 74.9703 52.9614H74.8607C74.8034 52.9614 74.7485 52.9841 74.708 53.0246C74.6675 53.0651 74.6448 53.12 74.6448 53.1772V53.4963C74.6448 53.5535 74.6675 53.6084 74.708 53.6489C74.7485 53.6894 74.8034 53.7121 74.8607 53.7121H75.0802C75.1374 53.7121 75.1923 53.7348 75.2327 53.7752C75.2732 53.8156 75.296 53.8704 75.2961 53.9276V54.246C75.2961 54.3032 75.2733 54.3581 75.2329 54.3986C75.1924 54.4391 75.1375 54.4618 75.0802 54.4618H72.1145V53.7114H71.4632V52.9606H72.0045V52.2124L71.253 52.2094Z" fill="#F99247"/>
</g>
<path d="M71.8934 47.6801H78.3606V47.7332H71.8934V47.6801Z" fill="black"/>
<path d="M71.462 48.4309H77.9292V48.484H71.462V48.4309Z" fill="black"/>
<path d="M72.272 49.1813H78.7393V49.2344H72.272V49.1813Z" fill="black"/>
<path d="M71.462 49.932H77.9292V49.9851H71.462V49.932Z" fill="black"/>
<path d="M72.0035 50.6824H78.4707V50.7355H72.0035V50.6824Z" fill="black"/>
<path d="M71.2533 51.4325H77.7205V51.4856H71.2533V51.4325Z" fill="black"/>
<path d="M71.2533 52.1832H77.7205V52.2363H71.2533V52.1832Z" fill="black"/>
<path d="M72.0035 52.9329H78.4707V52.986H72.0035V52.9329Z" fill="black"/>
<path d="M72.1131 53.6837H78.5803V53.7368H72.1131V53.6837Z" fill="black"/>
<path d="M72.1109 46.2053H78.5803V46.9561H72.1109V46.2053Z" fill="#FFC931"/>
<path d="M71.4597 45.4546H77.9292V46.2054H71.4597V45.4546Z" fill="#FFC931"/>
<path d="M72.0013 44.7041H78.4707V45.4549H72.0013V44.7041Z" fill="#FFC931"/>
<path d="M71.251 43.9541H77.7205V44.7049H71.251V43.9541Z" fill="#FFC931"/>
<path d="M72.0013 43.2041H78.4707V43.9549H72.0013V43.2041Z" fill="#FFC931"/>
<path d="M71.4597 42.4537H77.9292V43.2045H71.4597V42.4537Z" fill="#FFC931"/>
<path d="M72.2698 41.7029H78.7393V42.4537H72.2698V41.7029Z" fill="#FFC931"/>
<path d="M71.4597 40.9524H77.9292V41.7032H71.4597V40.9524Z" fill="#FFC931"/>
<path d="M71.8911 40.2017H78.3606V40.9524H71.8911V40.2017Z" fill="#FFC931"/>
<path d="M71.4597 39.4512H77.9292V40.202H71.4597V39.4512Z" fill="#FFC931"/>
<g style="mix-blend-mode:multiply" opacity="0.5">
<path d="M71.253 44.7067V43.9559H72.003V43.2059H71.4617V42.4555H72.272V41.7028H71.4617V40.9524H71.8934V40.2016H71.4617V39.4512H74.429C74.4862 39.4512 74.5411 39.4739 74.5816 39.5144C74.6221 39.5549 74.6448 39.6098 74.6448 39.667V39.9861C74.6448 40.0144 74.6504 40.0425 74.6612 40.0687C74.6721 40.0948 74.688 40.1186 74.708 40.1386C74.7281 40.1586 74.7519 40.1745 74.7781 40.1853C74.8043 40.1961 74.8323 40.2016 74.8607 40.2016C74.9178 40.2017 74.9726 40.2245 75.013 40.2649C75.0534 40.3054 75.0761 40.3603 75.0761 40.4174V40.7365C75.0762 40.7649 75.0706 40.7929 75.0598 40.8191C75.049 40.8453 75.0332 40.8691 75.0131 40.8891C74.9931 40.9092 74.9694 40.9251 74.9432 40.9359C74.917 40.9468 74.889 40.9524 74.8607 40.9524C74.8034 40.9524 74.7485 40.9751 74.708 41.0156C74.6675 41.0561 74.6448 41.111 74.6448 41.1682V41.4873C74.6448 41.5157 74.6504 41.5437 74.6612 41.5699C74.6721 41.596 74.688 41.6198 74.708 41.6398C74.7281 41.6598 74.7519 41.6757 74.7781 41.6865C74.8043 41.6973 74.8323 41.7028 74.8607 41.7028H75.2392C75.2965 41.7028 75.3514 41.7255 75.3919 41.766C75.4323 41.8065 75.4551 41.8614 75.4551 41.9186V42.2377C75.4551 42.295 75.4323 42.3499 75.3919 42.3904C75.3514 42.4308 75.2965 42.4536 75.2392 42.4536H74.8607C74.8034 42.4536 74.7485 42.4763 74.708 42.5168C74.6675 42.5573 74.6448 42.6122 74.6448 42.6694V42.9885C74.6448 43.0169 74.6504 43.0449 74.6612 43.0711C74.6721 43.0972 74.688 43.121 74.708 43.141C74.7281 43.161 74.7519 43.1769 74.7781 43.1877C74.8043 43.1985 74.8323 43.2041 74.8607 43.204H74.9703C75.0275 43.204 75.0824 43.2268 75.1229 43.2672C75.1634 43.3077 75.1861 43.3626 75.1861 43.4199V43.7382C75.1861 43.7954 75.1634 43.8504 75.1229 43.8908C75.0824 43.9313 75.0275 43.9541 74.9703 43.9541H74.6519C74.5947 43.9541 74.5398 43.9768 74.4993 44.0173C74.4588 44.0577 74.4361 44.1127 74.4361 44.1699V44.489C74.4361 44.5462 74.4588 44.6011 74.4993 44.6416C74.5398 44.6821 74.5947 44.7048 74.6519 44.7048H74.9703C74.9986 44.7048 75.0266 44.7103 75.0528 44.7211C75.079 44.7319 75.1028 44.7478 75.1229 44.7678C75.1429 44.7878 75.1588 44.8116 75.1697 44.8378C75.1805 44.8639 75.1861 44.892 75.1861 44.9203V45.239C75.1861 45.2674 75.1805 45.2954 75.1697 45.3216C75.1588 45.3477 75.1429 45.3715 75.1229 45.3915C75.1028 45.4115 75.079 45.4274 75.0528 45.4382C75.0266 45.449 74.9986 45.4546 74.9703 45.4545H74.8607C74.8034 45.4545 74.7485 45.4773 74.708 45.5177C74.6675 45.5582 74.6448 45.6131 74.6448 45.6704V45.9895C74.6448 46.0467 74.6675 46.1016 74.708 46.1421C74.7485 46.1826 74.8034 46.2053 74.8607 46.2053H75.0802C75.1375 46.2053 75.1924 46.228 75.2329 46.2685C75.2733 46.309 75.2961 46.3639 75.2961 46.4212V46.7402C75.296 46.7974 75.2732 46.8522 75.2327 46.8926C75.1923 46.933 75.1374 46.9557 75.0802 46.9557H72.1145V46.2053H71.4632V45.4549H72.0045V44.7067H71.253Z" fill="#F99247"/>
</g>
<path d="M71.8934 40.1755H78.3606V40.2287H71.8934V40.1755Z" fill="black"/>
<path d="M71.462 40.9258H77.9292V40.9789H71.462V40.9258Z" fill="black"/>
<path d="M72.272 41.6766H78.7393V41.7298H72.272V41.6766Z" fill="black"/>
<path d="M71.462 42.427H77.9292V42.4801H71.462V42.427Z" fill="black"/>
<path d="M72.0035 43.1779H78.4707V43.231H72.0035V43.1779Z" fill="black"/>
<path d="M71.2533 43.9275H77.7205V43.9806H71.2533V43.9275Z" fill="black"/>
<path d="M71.2533 44.6783H77.7205V44.7315H71.2533V44.6783Z" fill="black"/>
<path d="M72.0035 45.4283H78.4707V45.4815H72.0035V45.4283Z" fill="black"/>
<path d="M72.1131 46.1788H78.5803V46.232H72.1131V46.1788Z" fill="black"/>
<path d="M77.9068 53.7103H84.3762V54.4611H77.9068V53.7103Z" fill="#FFC931"/>
<path d="M77.2554 52.9595H83.7249V53.7103H77.2554V52.9595Z" fill="#FFC931"/>
<path d="M77.7964 52.209H84.2659V52.9598H77.7964V52.209Z" fill="#FFC931"/>
<path d="M77.0467 51.459H83.5161V52.2098H77.0467V51.459Z" fill="#FFC931"/>
<path d="M77.7964 50.709H84.2659V51.4598H77.7964V50.709Z" fill="#FFC931"/>
<path d="M77.2554 49.9585H83.7249V50.7093H77.2554V49.9585Z" fill="#FFC931"/>
<path d="M78.0655 49.2078H84.5349V49.9586H78.0655V49.2078Z" fill="#FFC931"/>
<path d="M77.2554 48.4573H83.7249V49.2081H77.2554V48.4573Z" fill="#FFC931"/>
<path d="M77.687 47.7065H84.1565V48.4573H77.687V47.7065Z" fill="#FFC931"/>
<path d="M77.2554 46.9562H83.7249V47.707H77.2554V46.9562Z" fill="#FFC931"/>
<g style="mix-blend-mode:multiply" opacity="0.5">
<path d="M77.0475 52.2094V51.459H77.7956V50.7109H77.2543V49.9601H78.0646V49.2096H77.2543V48.4589H77.6857V47.7084H77.2543V46.9576H80.2201C80.2773 46.9577 80.3321 46.9805 80.3725 47.021C80.4129 47.0615 80.4356 47.1163 80.4356 47.1735V47.4926C80.4356 47.5498 80.4583 47.6047 80.4988 47.6452C80.5393 47.6857 80.5942 47.7084 80.6514 47.7084C80.7087 47.7084 80.7636 47.7312 80.8041 47.7717C80.8445 47.8121 80.8673 47.867 80.8673 47.9243V48.2434C80.8673 48.2717 80.8617 48.2998 80.8508 48.3259C80.84 48.3521 80.8241 48.3759 80.804 48.3959C80.784 48.4159 80.7602 48.4317 80.734 48.4426C80.7078 48.4534 80.6798 48.4589 80.6514 48.4589C80.5942 48.459 80.5394 48.4817 80.4989 48.5222C80.4585 48.5626 80.4357 48.6175 80.4356 48.6747V48.9938C80.4356 49.051 80.4583 49.1059 80.4988 49.1464C80.5393 49.1869 80.5942 49.2096 80.6514 49.2096H81.0304C81.0587 49.2096 81.0868 49.2152 81.1129 49.2261C81.1391 49.2369 81.1629 49.2528 81.1829 49.2729C81.2029 49.2929 81.2187 49.3167 81.2296 49.3429C81.2404 49.3691 81.2459 49.3972 81.2458 49.4255V49.7446C81.2458 49.8017 81.2231 49.8565 81.1827 49.8969C81.1423 49.9374 81.0875 49.9601 81.0304 49.9601H80.6514C80.5942 49.9602 80.5394 49.9829 80.4989 50.0234C80.4585 50.0638 80.4357 50.1187 80.4356 50.1759V50.495C80.4356 50.5522 80.4583 50.6072 80.4988 50.6476C80.5393 50.6881 80.5942 50.7109 80.6514 50.7109H80.7614C80.8187 50.7109 80.8736 50.7336 80.914 50.7741C80.9545 50.8145 80.9773 50.8695 80.9773 50.9267V51.245C80.9773 51.3023 80.9545 51.3572 80.914 51.3977C80.8736 51.4382 80.8187 51.4609 80.7614 51.4609H80.4431C80.3858 51.4609 80.3309 51.4836 80.2904 51.5241C80.25 51.5646 80.2272 51.6195 80.2272 51.6767V51.9955C80.2272 52.0527 80.25 52.1076 80.2904 52.1481C80.3309 52.1886 80.3858 52.2113 80.4431 52.2113H80.7614C80.8187 52.2113 80.8736 52.2341 80.914 52.2745C80.9545 52.315 80.9773 52.3699 80.9773 52.4272V52.7455C80.9773 52.8028 80.9545 52.8577 80.914 52.8981C80.8736 52.9386 80.8187 52.9614 80.7614 52.9614H80.6514C80.5942 52.9614 80.5393 52.9841 80.4988 53.0246C80.4583 53.0651 80.4356 53.12 80.4356 53.1772V53.4963C80.4357 53.5535 80.4585 53.6084 80.4989 53.6488C80.5394 53.6893 80.5942 53.712 80.6514 53.7121H80.871C80.8993 53.7121 80.9274 53.7176 80.9536 53.7284C80.9798 53.7392 81.0036 53.7551 81.0236 53.7751C81.0437 53.7951 81.0596 53.8189 81.0704 53.8451C81.0813 53.8712 81.0869 53.8993 81.0869 53.9276V54.246C81.0869 54.3032 81.0641 54.3581 81.0236 54.3986C80.9832 54.4391 80.9283 54.4618 80.871 54.4618H77.9079V53.7114H77.2566V52.9606H77.7979V52.2124L77.0475 52.2094Z" fill="#F99247"/>
</g>
<path d="M77.6893 47.6801H84.1565V47.7332H77.6893V47.6801Z" fill="black"/>
<path d="M77.2576 48.4309H83.7249V48.484H77.2576V48.4309Z" fill="black"/>
<path d="M78.0677 49.1813H84.5349V49.2344H78.0677V49.1813Z" fill="black"/>
<path d="M77.2576 49.932H83.7249V49.9851H77.2576V49.932Z" fill="black"/>
<path d="M77.7987 50.6824H84.2659V50.7355H77.7987V50.6824Z" fill="black"/>
<path d="M77.0489 51.4325H83.5161V51.4856H77.0489V51.4325Z" fill="black"/>
<path d="M77.0489 52.1832H83.5161V52.2363H77.0489V52.1832Z" fill="black"/>
<path d="M77.7987 52.9329H84.2659V52.986H77.7987V52.9329Z" fill="black"/>
<path d="M77.909 53.6837H84.3762V53.7368H77.909V53.6837Z" fill="black"/>
<path d="M77.4417 46.2053H83.9111V46.9561H77.4417V46.2053Z" fill="#FFC931"/>
<path d="M76.7903 45.4546H83.2598V46.2054H76.7903V45.4546Z" fill="#FFC931"/>
<path d="M77.3316 44.7041H83.801V45.4549H77.3316V44.7041Z" fill="#FFC931"/>
<path d="M76.5818 43.9541H83.0513V44.7049H76.5818V43.9541Z" fill="#FFC931"/>
<path d="M77.3316 43.2041H83.801V43.9549H77.3316V43.2041Z" fill="#FFC931"/>
<path d="M76.7903 42.4537H83.2598V43.2045H76.7903V42.4537Z" fill="#FFC931"/>
<path d="M77.6004 41.7029H84.0698V42.4537H77.6004V41.7029Z" fill="#FFC931"/>
<path d="M76.7903 40.9524H83.2598V41.7032H76.7903V40.9524Z" fill="#FFC931"/>
<path d="M77.222 40.2017H83.6914V40.9524H77.222V40.2017Z" fill="#FFC931"/>
<path d="M76.7903 39.4512H83.2598V40.202H76.7903V39.4512Z" fill="#FFC931"/>
<g style="mix-blend-mode:multiply" opacity="0.5">
<path d="M76.5838 44.7067V43.9559H77.3338V43.2059H76.7925V42.4555H77.6028V41.7028H76.7925V40.9524H77.2242V40.2016H76.7925V39.4512H79.7583C79.8155 39.4512 79.8705 39.4739 79.9109 39.5144C79.9514 39.5549 79.9742 39.6098 79.9742 39.667V39.9861C79.9742 40.0433 79.9969 40.0981 80.0373 40.1385C80.0777 40.1789 80.1325 40.2016 80.1896 40.2016C80.2469 40.2016 80.3018 40.2243 80.3423 40.2648C80.3827 40.3053 80.4055 40.3602 80.4055 40.4174V40.7365C80.4055 40.7938 80.3827 40.8487 80.3423 40.8892C80.3018 40.9296 80.2469 40.9524 80.1896 40.9524C80.1613 40.9524 80.1332 40.958 80.1071 40.9688C80.0809 40.9797 80.0571 40.9956 80.0371 41.0156C80.0171 41.0357 80.0013 41.0595 79.9904 41.0857C79.9796 41.1118 79.9741 41.1399 79.9742 41.1682V41.4873C79.9742 41.5445 79.9969 41.5993 80.0373 41.6397C80.0777 41.6801 80.1325 41.7028 80.1896 41.7028H80.5686C80.6258 41.7029 80.6806 41.7257 80.7211 41.7661C80.7616 41.8066 80.7843 41.8614 80.7844 41.9186V42.2377C80.7844 42.295 80.7617 42.3499 80.7212 42.3904C80.6807 42.4308 80.6258 42.4536 80.5686 42.4536H80.19C80.1617 42.4536 80.1336 42.4592 80.1075 42.47C80.0813 42.4809 80.0575 42.4968 80.0375 42.5168C80.0175 42.5369 80.0016 42.5607 79.9908 42.5869C79.98 42.613 79.9745 42.6411 79.9745 42.6694V42.9885C79.9745 43.0457 79.9972 43.1005 80.0376 43.1409C80.078 43.1813 80.1329 43.204 80.19 43.204H80.3C80.3572 43.204 80.4121 43.2268 80.4526 43.2672C80.4931 43.3077 80.5158 43.3626 80.5158 43.4199V43.7382C80.5158 43.7954 80.4931 43.8504 80.4526 43.8908C80.4121 43.9313 80.3572 43.9541 80.3 43.9541H79.9816C79.9244 43.9541 79.8695 43.9768 79.829 44.0173C79.7885 44.0577 79.7658 44.1127 79.7658 44.1699V44.489C79.7658 44.5462 79.7885 44.6011 79.829 44.6416C79.8695 44.6821 79.9244 44.7048 79.9816 44.7048H80.3C80.3283 44.7048 80.3564 44.7103 80.3826 44.7211C80.4087 44.7319 80.4325 44.7478 80.4526 44.7678C80.4726 44.7878 80.4885 44.8116 80.4994 44.8378C80.5102 44.8639 80.5158 44.892 80.5158 44.9203V45.239C80.5158 45.2674 80.5102 45.2954 80.4994 45.3216C80.4885 45.3477 80.4726 45.3715 80.4526 45.3915C80.4325 45.4115 80.4087 45.4274 80.3826 45.4382C80.3564 45.449 80.3283 45.4546 80.3 45.4545H80.19C80.1328 45.4546 80.078 45.4774 80.0376 45.5179C79.9972 45.5583 79.9745 45.6132 79.9745 45.6704V45.9895C79.9745 46.0178 79.98 46.0458 79.9908 46.072C80.0016 46.0982 80.0175 46.122 80.0375 46.1421C80.0575 46.1621 80.0813 46.178 80.1075 46.1889C80.1336 46.1997 80.1617 46.2053 80.19 46.2053H80.41C80.4672 46.2053 80.5221 46.228 80.5626 46.2685C80.6031 46.309 80.6258 46.3639 80.6258 46.4212V46.7402C80.6257 46.7974 80.6029 46.8522 80.5625 46.8926C80.522 46.933 80.4671 46.9557 80.41 46.9557H77.4442V46.2053H76.7929V45.4549H77.3342V44.7067H76.5838Z" fill="#F99247"/>
</g>
<path d="M77.2242 40.1755H83.6914V40.2287H77.2242V40.1755Z" fill="black"/>
<path d="M76.7926 40.9258H83.2598V40.9789H76.7926V40.9258Z" fill="black"/>
<path d="M77.6026 41.6766H84.0698V41.7298H77.6026V41.6766Z" fill="black"/>
<path d="M76.7926 42.427H83.2598V42.4801H76.7926V42.427Z" fill="black"/>
<path d="M77.3338 43.1779H83.801V43.231H77.3338V43.1779Z" fill="black"/>
<path d="M76.5841 43.9275H83.0513V43.9806H76.5841V43.9275Z" fill="black"/>
<path d="M76.5841 44.6783H83.0513V44.7315H76.5841V44.6783Z" fill="black"/>
<path d="M77.3338 45.4283H83.801V45.4815H77.3338V45.4283Z" fill="black"/>
<path d="M77.4439 46.1788H83.9111V46.232H77.4439V46.1788Z" fill="black"/>
<path d="M72.1109 38.7532H78.5803V39.504H72.1109V38.7532Z" fill="#FFC931"/>
<path d="M71.4597 38.0027H77.9292V38.7535H71.4597V38.0027Z" fill="#FFC931"/>
<path d="M72.0013 37.252H78.4707V38.0027H72.0013V37.252Z" fill="#FFC931"/>
<path d="M71.251 36.5023H77.7205V37.2531H71.251V36.5023Z" fill="#FFC931"/>
<path d="M72.0013 35.7522H78.4707V36.503H72.0013V35.7522Z" fill="#FFC931"/>
<path d="M71.4597 35.0015H77.9292V35.7523H71.4597V35.0015Z" fill="#FFC931"/>
<path d="M72.2698 34.251H78.7393V35.0018H72.2698V34.251Z" fill="#FFC931"/>
<path d="M71.4597 33.5002H77.9292V34.251H71.4597V33.5002Z" fill="#FFC931"/>
<path d="M71.8911 32.7499H78.3606V33.5007H71.8911V32.7499Z" fill="#FFC931"/>
<path d="M71.4597 31.999H77.9292V32.7498H71.4597V31.999Z" fill="#FFC931"/>
<g style="mix-blend-mode:multiply" opacity="0.5">
<path d="M71.253 37.2527V36.5023H72.003V35.7541H71.4617V35.0033H72.272V34.251H71.4617V33.5002H71.8934V32.7498H71.4617V31.999H74.429C74.4862 31.999 74.5411 32.0218 74.5816 32.0622C74.6221 32.1027 74.6448 32.1576 74.6448 32.2149V32.534C74.6448 32.5912 74.6675 32.6461 74.708 32.6866C74.7485 32.7271 74.8034 32.7498 74.8607 32.7498C74.889 32.7498 74.917 32.7554 74.9432 32.7663C74.9694 32.7771 74.9931 32.793 75.0131 32.8131C75.0332 32.8331 75.049 32.8569 75.0598 32.8831C75.0706 32.9093 75.0762 32.9373 75.0761 32.9657V33.2848C75.0761 33.3419 75.0534 33.3967 75.013 33.4371C74.9726 33.4775 74.9178 33.5002 74.8607 33.5002C74.8034 33.5002 74.7485 33.523 74.708 33.5635C74.6675 33.6039 74.6448 33.6588 74.6448 33.7161V34.0352C74.6448 34.0924 74.6675 34.1473 74.708 34.1878C74.7485 34.2283 74.8034 34.251 74.8607 34.251H75.2392C75.2965 34.251 75.3514 34.2738 75.3919 34.3142C75.4323 34.3547 75.4551 34.4096 75.4551 34.4669V34.786C75.4551 34.8143 75.4495 34.8423 75.4386 34.8685C75.4278 34.8947 75.4119 34.9184 75.3918 34.9385C75.3718 34.9585 75.348 34.9743 75.3218 34.9851C75.2956 34.996 75.2676 35.0015 75.2392 35.0014H74.8607C74.8034 35.0014 74.7485 35.0242 74.708 35.0647C74.6675 35.1051 74.6448 35.16 74.6448 35.2173V35.5364C74.6448 35.5936 74.6675 35.6485 74.708 35.689C74.7485 35.7295 74.8034 35.7522 74.8607 35.7522H74.9703C75.0275 35.7522 75.0824 35.775 75.1229 35.8155C75.1634 35.8559 75.1861 35.9108 75.1861 35.9681V36.2864C75.1861 36.3437 75.1634 36.3986 75.1229 36.4391C75.0824 36.4795 75.0275 36.5023 74.9703 36.5023H74.6519C74.6236 36.5022 74.5955 36.5078 74.5693 36.5186C74.5432 36.5294 74.5194 36.5452 74.4993 36.5653C74.4793 36.5853 74.4634 36.609 74.4525 36.6352C74.4416 36.6614 74.4361 36.6894 74.4361 36.7177V37.038C74.4361 37.0952 74.4588 37.1501 74.4993 37.1906C74.5398 37.2311 74.5947 37.2538 74.6519 37.2538H74.9703C75.0275 37.2538 75.0824 37.2766 75.1229 37.317C75.1634 37.3575 75.1861 37.4124 75.1861 37.4697V37.7861C75.1861 37.8434 75.1634 37.8983 75.1229 37.9388C75.0824 37.9792 75.0275 38.002 74.9703 38.002H74.8607C74.8034 38.002 74.7485 38.0247 74.708 38.0652C74.6675 38.1057 74.6448 38.1606 74.6448 38.2178V38.5369C74.6448 38.5653 74.6504 38.5933 74.6612 38.6195C74.6721 38.6456 74.688 38.6694 74.708 38.6894C74.7281 38.7094 74.7519 38.7253 74.7781 38.7361C74.8043 38.7469 74.8323 38.7525 74.8607 38.7524H75.0802C75.1375 38.7525 75.1923 38.7753 75.2328 38.8157C75.2732 38.8562 75.296 38.911 75.2961 38.9683V39.2874C75.2961 39.3446 75.2733 39.3995 75.2329 39.44C75.1924 39.4805 75.1375 39.5032 75.0802 39.5032H72.1145V38.7524H71.4632V38.002H72.0045V37.2538L71.253 37.2527Z" fill="#F99247"/>
</g>
<path d="M71.8934 32.7233H78.3606V32.7764H71.8934V32.7233Z" fill="black"/>
<path d="M71.462 33.474H77.9292V33.5271H71.462V33.474Z" fill="black"/>
<path d="M72.272 34.2245H78.7393V34.2776H72.272V34.2245Z" fill="black"/>
<path d="M71.462 34.9753H77.9292V35.0285H71.462V34.9753Z" fill="black"/>
<path d="M72.0035 35.7257H78.4707V35.7788H72.0035V35.7257Z" fill="black"/>
<path d="M71.2533 36.4757H77.7205V36.5288H71.2533V36.4757Z" fill="black"/>
<path d="M71.2533 37.2261H77.7205V37.2792H71.2533V37.2261Z" fill="black"/>
<path d="M72.0035 37.9762H78.4707V38.0293H72.0035V37.9762Z" fill="black"/>
<path d="M72.1131 38.7271H78.5803V38.7802H72.1131V38.7271Z" fill="black"/>
<path d="M62.1878 30.4739C62.1878 30.4739 63.5637 31.035 63.7665 31.0758C63.9692 31.1166 65.3107 31.3129 65.6081 31.5834C65.9055 31.8539 65.7914 32.1651 65.7877 32.4812C65.7877 32.5602 65.6066 33.0345 65.4308 33.0345C65.255 33.0345 64.2711 32.2721 64.2711 32.2721L63.6075 32.5688L61.7292 32.4607L62.1878 30.4739Z" fill="#F9956E"/>
<path d="M43.8341 56.1653L42.3231 54.4457L43.8213 52.9329L45.5234 54.5489L43.8341 56.1653Z" fill="#FE9F73"/>
<path d="M52.5164 34.5316C52.5164 34.5316 51.5105 39.9387 50.5936 46.0063C47.9417 48.5625 45.1809 51.3184 43.1194 53.6059C43.1194 53.6059 43.6917 54.9347 45.4387 55.7188L49.7575 52.0213L49.7497 52.0868C50.9363 51.1411 54.0038 48.7615 55.1141 47.8794C55.2883 47.7408 55.409 47.5458 55.4552 47.328L56.2483 35.6632L52.5164 34.5316Z" fill="#F43144"/>
<path d="M52.876 17.2839L53.2632 19.4753C53.2632 19.4753 53.393 20.066 52.8854 20.2325L53.2112 21.2979C53.2995 21.5867 53.0844 21.6117 52.8169 21.7517C52.6667 21.8301 52.5054 21.885 52.3385 21.9144C51.7437 22.0195 51.3423 21.6301 51.2536 21.4157C51.165 21.2014 51.1253 20.1087 51.1253 20.1087L51.0131 19.5879L50.7224 17.5462L52.876 17.2839Z" fill="#FE9F73"/>
<path d="M51.6709 18.8488C51.6662 18.8496 51.6613 18.849 51.657 18.8471C51.6526 18.8452 51.6489 18.8421 51.6462 18.8382C51.6436 18.8342 51.6421 18.8296 51.6421 18.8249C51.642 18.8201 51.6433 18.8154 51.6458 18.8114C51.6484 18.8073 51.9279 18.3999 52.284 18.594C52.2898 18.5973 52.2941 18.6028 52.2959 18.6093C52.2977 18.6157 52.2969 18.6226 52.2937 18.6285C52.2905 18.6343 52.2851 18.6385 52.2787 18.6404C52.2723 18.6422 52.2655 18.6414 52.2597 18.6382C51.9443 18.4646 51.6985 18.8252 51.6877 18.8394C51.6835 18.8446 51.6775 18.8479 51.6709 18.8488Z" fill="#4C222E"/>
<path d="M52.6665 18.5208C52.6615 18.5217 52.6563 18.521 52.6516 18.5189C52.647 18.5168 52.6431 18.5133 52.6405 18.5089C52.6379 18.5045 52.6367 18.4994 52.6371 18.4943C52.6374 18.4892 52.6394 18.4843 52.6426 18.4804C52.6512 18.4699 52.8521 18.2256 53.0241 18.3274C53.0299 18.3308 53.0341 18.3364 53.0358 18.3429C53.0375 18.3494 53.0365 18.3563 53.0331 18.3621C53.0314 18.365 53.0292 18.3674 53.0265 18.3694C53.0239 18.3714 53.0209 18.3728 53.0177 18.3736C53.0145 18.3744 53.0112 18.3745 53.0079 18.3741C53.0046 18.3736 53.0015 18.3724 52.9987 18.3707C52.8636 18.2911 52.6837 18.5095 52.6818 18.5118C52.678 18.5166 52.6726 18.5198 52.6665 18.5208Z" fill="#4C222E"/>
<path d="M52.1902 18.8607C52.1926 18.8752 52.1906 18.8902 52.1846 18.9036C52.1785 18.917 52.1687 18.9284 52.1562 18.9362C52.1437 18.9441 52.1292 18.9481 52.1145 18.9477C52.0998 18.9473 52.0855 18.9426 52.0734 18.9342C52.0613 18.9257 52.052 18.9139 52.0467 18.9002C52.0413 18.8865 52.0401 18.8715 52.0432 18.8571C52.0463 18.8427 52.0536 18.8295 52.0642 18.8192C52.0748 18.809 52.0881 18.8021 52.1026 18.7994C52.1124 18.7975 52.1225 18.7977 52.1322 18.7998C52.1419 18.8019 52.1511 18.8059 52.1593 18.8116C52.1674 18.8174 52.1744 18.8246 52.1797 18.8331C52.185 18.8415 52.1885 18.8509 52.1902 18.8607Z" fill="#4C222E"/>
<path d="M52.9677 18.6464C52.9702 18.6609 52.9683 18.6758 52.9623 18.6893C52.9563 18.7028 52.9465 18.7142 52.934 18.7221C52.9216 18.73 52.9071 18.734 52.8923 18.7337C52.8776 18.7334 52.8633 18.7287 52.8512 18.7203C52.8391 18.7119 52.8297 18.7001 52.8243 18.6864C52.8189 18.6726 52.8177 18.6576 52.8208 18.6432C52.8239 18.6288 52.8312 18.6156 52.8417 18.6053C52.8523 18.595 52.8657 18.5881 52.8801 18.5854C52.8899 18.5836 52.8999 18.5837 52.9096 18.5858C52.9194 18.5879 52.9285 18.5919 52.9367 18.5975C52.9448 18.6032 52.9518 18.6105 52.9571 18.6188C52.9624 18.6272 52.966 18.6366 52.9677 18.6464Z" fill="#4C222E"/>
<path d="M50.7913 17.3794C50.7913 17.3794 50.2141 17.4542 50.1516 18.0322C50.0891 18.6101 50.3551 18.8619 50.3895 19.0254C50.4239 19.1889 50.5081 20.3156 51.2712 20.0956L51.159 18.2293L50.7587 17.5481L50.7913 17.3794Z" fill="#4C222E"/>
<path d="M51.5725 18.9434C51.588 19.0317 51.577 19.1226 51.5409 19.2047C51.5048 19.2867 51.4451 19.3562 51.3695 19.4043C51.2938 19.4524 51.2056 19.477 51.116 19.475C51.0264 19.4729 50.9394 19.4443 50.866 19.3928C50.7926 19.3413 50.7362 19.2692 50.7039 19.1856C50.6715 19.102 50.6647 19.0107 50.6842 18.9232C50.7038 18.8357 50.7489 18.756 50.8138 18.6941C50.8787 18.6323 50.9604 18.5911 51.0488 18.5757C51.167 18.5551 51.2885 18.5822 51.3867 18.6512C51.4849 18.7201 51.5518 18.8253 51.5725 18.9434Z" fill="#FE9F73"/>
<path d="M51.1398 19.3014C51.0993 19.3077 51.0578 19.3005 51.0218 19.2809C50.9858 19.2613 50.9572 19.2304 50.9404 19.1929C50.921 19.1583 50.9137 19.1181 50.92 19.0788C50.9262 19.0396 50.9456 19.0036 50.9749 18.9767C51.0063 18.9483 51.0456 18.9299 51.0876 18.924C51.1296 18.918 51.1724 18.9248 51.2105 18.9434C51.1866 18.8999 51.1476 18.8665 51.1009 18.8495C51.0338 18.8322 50.9626 18.8401 50.9008 18.8716C50.8979 18.8728 50.8947 18.8729 50.8917 18.8719C50.8887 18.8709 50.8863 18.8688 50.8847 18.8661C50.8832 18.8634 50.8827 18.8602 50.8834 18.8571C50.8841 18.854 50.8859 18.8513 50.8884 18.8495C50.9563 18.8142 51.0349 18.8057 51.1088 18.8256C51.1413 18.8378 51.1709 18.8569 51.1955 18.8814C51.22 18.906 51.2391 18.9356 51.2513 18.9681L51.27 19.0093L51.2326 18.9834C51.2274 18.9797 51.1032 18.8955 50.9913 18.9954C50.9664 19.019 50.9501 19.0502 50.9449 19.084C50.9398 19.1179 50.9461 19.1526 50.9629 19.1825C50.9772 19.215 51.0019 19.242 51.033 19.2592C51.0642 19.2764 51.1002 19.2828 51.1353 19.2775H51.138C51.1396 19.2772 51.1412 19.2771 51.1428 19.2775C51.1444 19.2778 51.1459 19.2784 51.1473 19.2793C51.1486 19.2802 51.1498 19.2814 51.1507 19.2827C51.1516 19.2841 51.1522 19.2856 51.1526 19.2872C51.1529 19.2889 51.1529 19.2905 51.1525 19.2922C51.1522 19.2938 51.1516 19.2954 51.1506 19.2968C51.1497 19.2982 51.1485 19.2994 51.1471 19.3003C51.1457 19.3012 51.1441 19.3019 51.1425 19.3022L51.1398 19.3014Z" fill="#F07162"/>
<path d="M51.5889 19.9399C51.5889 19.9399 51.7999 20.9301 53.0605 20.8056L52.8855 20.2325C52.8855 20.2325 52.1074 20.537 51.5889 19.9399Z" fill="#F07162"/>
<path d="M52.5408 19.3161C52.5382 19.3166 52.5355 19.3163 52.5331 19.3151C52.5308 19.314 52.5289 19.3121 52.5277 19.3097C52.5269 19.3082 52.5264 19.3066 52.5262 19.305C52.5261 19.3033 52.5262 19.3016 52.5267 19.3C52.5272 19.2984 52.528 19.2969 52.5291 19.2956C52.5301 19.2944 52.5314 19.2933 52.5329 19.2925L52.7667 19.1664L52.5849 18.5956C52.5844 18.594 52.5842 18.5924 52.5843 18.5907C52.5845 18.5891 52.5849 18.5874 52.5857 18.586C52.5865 18.5845 52.5875 18.5832 52.5888 18.5822C52.5901 18.5811 52.5916 18.5803 52.5931 18.5799C52.5947 18.5793 52.5963 18.579 52.598 18.5791C52.5996 18.5792 52.6012 18.5796 52.6027 18.5804C52.6042 18.5811 52.6055 18.5821 52.6066 18.5834C52.6076 18.5847 52.6084 18.5861 52.6089 18.5877L52.7959 19.1788L52.5434 19.3149L52.5408 19.3161Z" fill="#F07162"/>
<path d="M52.3911 19.5917C52.3986 19.5887 52.8796 19.4922 52.8796 19.4922C52.8796 19.4922 52.8542 19.7024 52.6754 19.7391C52.4966 19.7757 52.3911 19.5917 52.3911 19.5917Z" fill="#FBFDFC"/>
<path d="M50.9143 17.8332C50.9143 17.8332 52.3732 18.2323 53.0585 17.367C53.7439 16.5018 53.5235 16.3854 53.2056 16.4494C52.8876 16.5134 52.4518 16.6582 52.0923 16.5616C51.7328 16.4651 50.9996 16.4793 50.7661 16.9006C50.5327 17.3218 50.2937 17.5825 50.9143 17.8332Z" fill="#4C222E"/>
<path d="M63.7714 31.0758L59.3048 29.3726L58.116 25.1907L57.1059 26.0092L55.6126 26.8834L54.7413 27.2201C54.7413 27.2201 55.9081 31.1252 56.9922 31.8872C58.0763 32.6492 64.6797 32.9208 64.6797 32.9208L63.7714 31.0758Z" fill="#F9956E"/>
<path d="M56.433 22.1932C56.433 22.1932 57.7184 23.195 58.5653 25.8592L59.0632 27.3971C59.0632 27.3971 57.617 28.3458 55.8397 28.4236C54.0624 28.5014 54.3161 23.9346 54.591 23.3012C54.866 22.6679 55.4851 21.7379 55.4851 21.7379C55.4851 21.7379 56.1192 21.8902 56.433 22.1932Z" fill="#7FC6A6"/>
<path d="M50.5859 57.8769L48.3175 57.9079L48.2849 55.7685L50.5444 55.4861L50.5859 57.8769Z" fill="#FE9F73"/>
<path d="M48.0697 33.8695C48.0697 33.8695 47.4023 47.7896 48.0809 56.033C48.0809 56.033 49.431 56.9154 51.1989 56.2125L52.9351 39.8893L54.2444 36.4293V30.7343L48.0697 33.8695Z" fill="#FF424D"/>
<path d="M49.8922 56.5278C49.2817 56.5218 48.6789 56.3913 48.1206 56.1444L48.0992 56.1339L48.0948 56.1103C47.5138 52.9658 47.8845 37.47 47.8886 37.314C47.8888 37.3015 47.8939 37.2896 47.9028 37.2809C47.9117 37.2721 47.9237 37.2672 47.9361 37.2672C47.9488 37.2676 47.9608 37.273 47.9696 37.2821C47.9783 37.2913 47.9831 37.3035 47.9829 37.3162C47.9792 37.4718 47.6088 52.8782 48.183 56.0688C48.3768 56.1567 49.835 56.7773 51.178 56.1672C51.1895 56.1621 51.2026 56.1618 51.2143 56.1663C51.2261 56.1708 51.2356 56.1797 51.2408 56.1912C51.246 56.2027 51.2465 56.2157 51.2422 56.2275C51.2378 56.2394 51.229 56.249 51.2176 56.2543C50.8005 56.4393 50.3485 56.5325 49.8922 56.5278Z" fill="black"/>
<path d="M47.4508 28.8036L47.3273 36.6007C47.3273 36.6007 52.5601 36.9983 56.1726 36.2266C56.1726 36.2266 55.6253 22.5253 55.5187 21.9219C55.393 21.2111 51.9275 21.1707 50.4816 21.3522C50.4816 21.3522 49.6007 21.2171 48.3991 21.9675L47.4508 28.8036Z" fill="#D6E8F4"/>
<path d="M48.9223 56.4157C48.9098 56.4157 48.8977 56.4107 48.8887 56.4019C48.8798 56.3931 48.8747 56.3811 48.8745 56.3685L48.7907 50.7573C48.7906 50.751 48.7917 50.7447 48.794 50.7389C48.7963 50.733 48.7998 50.7277 48.8042 50.7232C48.8085 50.7187 48.8138 50.715 48.8195 50.7125C48.8253 50.7101 48.8315 50.7087 48.8378 50.7086C48.8504 50.7086 48.8624 50.7136 48.8714 50.7224C48.8804 50.7312 48.8855 50.7432 48.8857 50.7558L48.9695 56.3671C48.9696 56.3733 48.9684 56.3796 48.9661 56.3854C48.9638 56.3913 48.9604 56.3966 48.956 56.4011C48.9516 56.4056 48.9464 56.4093 48.9406 56.4118C48.9348 56.4143 48.9286 56.4156 48.9223 56.4157Z" fill="black"/>
<path d="M51.0664 21.2587C51.0664 21.2587 51.4779 22.0304 52.1584 22.0323C53.2058 22.0353 53.3801 21.2605 53.3801 21.2605L52.2235 21.2067L51.0664 21.2587Z" fill="#FE9F73"/>
<path d="M47.3955 26.09L47.1583 37.5468C47.1583 37.5468 50.2524 37.7656 51.6392 37.2101C51.6392 37.2101 51.6309 21.7304 51.0646 21.2583C50.9946 21.2583 49.5682 21.2875 48.5526 21.415C47.5369 21.5426 47.3955 26.09 47.3955 26.09Z" fill="#7FC6A6"/>
<path d="M53.3634 21.2587C53.3634 21.2587 53.6499 35.1463 53.9331 37.2105C53.9331 37.2105 55.0872 37.2901 56.5588 36.7616C56.5588 36.7616 56.294 22.2736 55.9143 21.8868C55.5346 21.5 53.3634 21.2587 53.3634 21.2587Z" fill="#7FC6A6"/>
<path d="M53.4256 24.0441C53.4131 24.0441 53.4011 24.0392 53.3921 24.0305C53.3832 24.0217 53.378 24.0099 53.3777 23.9974L53.3145 21.2067L53.3672 21.2112C53.4645 21.2186 55.7562 21.4061 56.4348 22.1931C56.4419 22.2028 56.4451 22.2149 56.4438 22.2269C56.4425 22.2388 56.4367 22.2499 56.4275 22.2578C56.4184 22.2656 56.4067 22.2698 56.3946 22.2694C56.3826 22.269 56.3711 22.2641 56.3626 22.2556C55.7663 21.562 53.7656 21.3443 53.4144 21.311L53.475 23.9951C53.4751 24.0014 53.474 24.0077 53.4718 24.0135C53.4695 24.0194 53.4661 24.0247 53.4618 24.0293C53.4574 24.0338 53.4522 24.0375 53.4465 24.04C53.4407 24.0426 53.4345 24.044 53.4282 24.0441H53.4256Z" fill="black"/>
<path d="M51.6408 37.2583C51.6345 37.2583 51.6283 37.2571 51.6225 37.2547C51.6167 37.2523 51.6115 37.2487 51.6071 37.2443C51.6027 37.2398 51.5992 37.2346 51.5968 37.2287C51.5944 37.2229 51.5932 37.2167 51.5933 37.2105C51.6169 27.3551 51.3471 23.9304 51.3445 23.8963C51.3435 23.8837 51.3475 23.8711 51.3557 23.8615C51.3639 23.8518 51.3756 23.8458 51.3883 23.8447C51.4009 23.8439 51.4133 23.848 51.423 23.8561C51.4326 23.8643 51.4387 23.8759 51.4399 23.8885C51.4425 23.9221 51.7126 27.3499 51.6887 37.2108C51.6887 37.2171 51.6874 37.2233 51.685 37.2291C51.6826 37.2349 51.6791 37.2401 51.6746 37.2446C51.6702 37.249 51.6649 37.2525 51.6591 37.2548C51.6533 37.2572 51.6471 37.2584 51.6408 37.2583Z" fill="black"/>
<path d="M56.5829 36.8043C56.5766 36.8042 56.5705 36.8028 56.5647 36.8003C56.559 36.7978 56.5538 36.7942 56.5494 36.7897C56.5451 36.7852 56.5417 36.7799 56.5394 36.774C56.5371 36.7682 56.536 36.7619 56.5362 36.7557C56.6293 32.4402 55.871 23.1086 55.8628 23.0147C55.8618 23.0021 55.8658 22.9895 55.874 22.9798C55.8822 22.9702 55.8939 22.9641 55.9066 22.9631C55.9128 22.9625 55.9191 22.9632 55.9251 22.9651C55.9311 22.967 55.9366 22.9701 55.9414 22.9742C55.9462 22.9783 55.9501 22.9832 55.9529 22.9889C55.9557 22.9945 55.9574 23.0006 55.9578 23.0068C55.9657 23.1007 56.7247 32.4376 56.6312 36.7575C56.6311 36.7638 56.6298 36.7699 56.6273 36.7756C56.6248 36.7814 56.6212 36.7866 56.6167 36.7909C56.6123 36.7952 56.607 36.7987 56.6012 36.801C56.5954 36.8033 56.5892 36.8044 56.5829 36.8043Z" fill="black"/>
<path d="M47.3953 29.5435C47.3827 29.5435 47.3706 29.5385 47.3617 29.5296C47.3528 29.5207 47.3478 29.5086 47.3478 29.496V27.2369C47.3472 27.2303 47.348 27.2236 47.3501 27.2173C47.3523 27.2111 47.3557 27.2053 47.3602 27.2004C47.3646 27.1955 47.3701 27.1916 47.3762 27.1889C47.3823 27.1862 47.3888 27.1848 47.3955 27.1848C47.4021 27.1848 47.4087 27.1862 47.4148 27.1889C47.4209 27.1916 47.4263 27.1955 47.4308 27.2004C47.4353 27.2053 47.4387 27.2111 47.4408 27.2173C47.443 27.2236 47.4438 27.2303 47.4432 27.2369V29.4953C47.4433 29.5016 47.4421 29.5079 47.4397 29.5138C47.4374 29.5197 47.4339 29.525 47.4294 29.5295C47.4249 29.534 47.4196 29.5376 47.4138 29.54C47.4079 29.5424 47.4016 29.5436 47.3953 29.5435Z" fill="black"/>
<path d="M45.629 26.136C45.629 26.136 44.7068 29.2925 44.5834 29.6352C44.3047 30.4088 44.1098 36.4062 44.1098 36.4062L46.2574 36.5838L47.2259 30.8622L48.3108 27.9443L45.629 26.136Z" fill="#FE9F73"/>
<path d="M48.962 21.3712C48.962 21.3712 48.0552 21.3944 47.4432 21.9035C46.8312 22.4127 45.2013 26.1895 44.6305 28.3666L49.5078 29.8877L48.962 21.3712Z" fill="#7FC6A6"/>
<path d="M47.7687 28.278C47.7638 28.278 47.7589 28.2772 47.7541 28.2758L44.907 27.446C44.9003 27.4442 44.8942 27.4411 44.8888 27.4369C44.8834 27.4327 44.8788 27.4275 44.8755 27.4215C44.8721 27.4155 44.87 27.4089 44.8692 27.4021C44.8685 27.3953 44.869 27.3884 44.8709 27.3818C44.8729 27.3752 44.8761 27.3691 44.8804 27.3638C44.8847 27.3584 44.89 27.354 44.896 27.3508C44.9021 27.3475 44.9087 27.3455 44.9155 27.3448C44.9223 27.3442 44.9292 27.3449 44.9358 27.3469L47.7829 28.1766C47.795 28.18 47.8055 28.1876 47.8123 28.1981C47.8192 28.2085 47.822 28.2211 47.8203 28.2336C47.8186 28.246 47.8124 28.2573 47.8029 28.2655C47.7934 28.2737 47.7812 28.2781 47.7687 28.278Z" fill="black"/>
<path d="M47.5427 22.569C47.5478 22.569 47.5528 22.5679 47.5574 22.5656C47.5619 22.5633 47.5659 22.56 47.5689 22.5559C47.882 22.1384 48.3919 21.9686 48.399 21.9671C48.4071 21.9643 48.4139 21.9584 48.4178 21.9507C48.4217 21.9431 48.4225 21.9342 48.4199 21.9259C48.4172 21.9177 48.4113 21.911 48.4036 21.9071C48.3959 21.9033 48.387 21.9026 48.3788 21.9054C48.3571 21.9121 47.8427 22.0827 47.5184 22.517C47.5158 22.5204 47.5139 22.5243 47.5128 22.5284C47.5118 22.5326 47.5115 22.5369 47.5121 22.5411C47.5127 22.5454 47.5141 22.5494 47.5163 22.5531C47.5185 22.5568 47.5213 22.56 47.5248 22.5626C47.53 22.5664 47.5362 22.5686 47.5427 22.569Z" fill="#21111D"/>
<path d="M47.604 22.8691C47.609 22.8691 47.6139 22.8679 47.6184 22.8657C47.6229 22.8635 47.6268 22.8603 47.6298 22.8564C47.943 22.4385 48.4547 22.269 48.4599 22.2672C48.4644 22.2662 48.4685 22.2643 48.4721 22.2616C48.4758 22.2589 48.4788 22.2555 48.4811 22.2516C48.4833 22.2477 48.4847 22.2433 48.4852 22.2388C48.4856 22.2343 48.4852 22.2298 48.4838 22.2255C48.4824 22.2212 48.4801 22.2172 48.4771 22.2138C48.4741 22.2104 48.4705 22.2077 48.4664 22.2058C48.4623 22.204 48.4578 22.203 48.4533 22.2029C48.4488 22.2028 48.4443 22.2037 48.4401 22.2055C48.4184 22.2126 47.9037 22.3828 47.5797 22.8175C47.5772 22.8209 47.5753 22.8247 47.5743 22.8289C47.5732 22.833 47.573 22.8373 47.5736 22.8415C47.5743 22.8457 47.5757 22.8498 47.5779 22.8534C47.5801 22.857 47.583 22.8602 47.5865 22.8627C47.5915 22.8666 47.5977 22.8689 47.604 22.8691Z" fill="#21111D"/>
<path d="M49.7188 37.8538C48.7088 37.8538 47.3995 37.589 47.3853 37.5856C47.3783 37.5846 47.3717 37.5822 47.3657 37.5785C47.3597 37.5748 47.3545 37.57 47.3505 37.5642C47.3464 37.5585 47.3436 37.552 47.3421 37.5451C47.3407 37.5382 47.3407 37.5311 47.3421 37.5242C47.3435 37.5173 47.3463 37.5108 47.3503 37.505C47.3543 37.4993 47.3595 37.4944 47.3654 37.4907C47.3714 37.487 47.3781 37.4845 47.385 37.4835C47.392 37.4824 47.3991 37.4828 47.4059 37.4846C47.4231 37.488 49.1472 37.8363 50.1445 37.7304C50.1582 37.7289 50.1719 37.7329 50.1826 37.7415C50.1933 37.7501 50.2001 37.7626 50.2016 37.7762C50.2031 37.7899 50.1991 37.8035 50.1905 37.8142C50.1819 37.8249 50.1694 37.8318 50.1558 37.8333C50.0106 37.8477 49.8647 37.8546 49.7188 37.8538Z" fill="black"/>
<path d="M48.1835 29.529L44.5672 28.4012L44.5806 28.3529C44.59 28.3196 45.5218 25.0235 46.4058 23.4554C46.4806 23.3222 46.5498 23.1973 46.6153 23.0813C47.3361 21.7825 47.5539 21.3904 49.1325 21.3055C49.1462 21.3048 49.1596 21.3095 49.1698 21.3186C49.18 21.3278 49.1862 21.3406 49.1869 21.3543C49.1877 21.368 49.183 21.3814 49.1738 21.3916C49.1646 21.4018 49.1518 21.408 49.1381 21.4087C47.6163 21.4907 47.405 21.8711 46.7066 23.1314C46.6411 23.2489 46.5719 23.3742 46.4967 23.5055C45.6771 24.9588 44.8133 27.9197 44.6947 28.3312L48.1079 29.3951C48.3028 28.4805 48.556 27.5794 48.8662 26.6972C48.886 26.6392 48.9036 26.585 48.9215 26.536C48.9263 26.5236 48.9358 26.5135 48.9478 26.5079C48.9599 26.5023 48.9737 26.5015 48.9863 26.5058C48.9989 26.5101 49.0094 26.5191 49.0155 26.5309C49.0216 26.5428 49.0229 26.5565 49.0192 26.5693C49.0023 26.619 48.9818 26.6729 48.9638 26.7309C48.6487 27.627 48.3924 28.5427 48.1965 29.4722L48.1835 29.529Z" fill="black"/>
<path d="M48.7532 27.2415C48.7426 27.2414 48.7323 27.2381 48.7236 27.232C48.7149 27.2259 48.7084 27.2173 48.7048 27.2074C48.7012 27.1974 48.7007 27.1865 48.7035 27.1763C48.7063 27.1661 48.7121 27.157 48.7203 27.1502L49.1033 26.8337C49.1085 26.8289 49.1145 26.8252 49.1212 26.8228C49.1278 26.8205 49.1348 26.8195 49.1418 26.8199C49.1489 26.8204 49.1557 26.8222 49.162 26.8254C49.1682 26.8286 49.1738 26.8331 49.1783 26.8385C49.1828 26.8439 49.1861 26.8502 49.1881 26.8569C49.1901 26.8636 49.1907 26.8707 49.1898 26.8777C49.189 26.8847 49.1867 26.8914 49.1831 26.8975C49.1796 26.9036 49.1748 26.9088 49.1692 26.913L48.7872 27.2295C48.7778 27.2375 48.7656 27.2418 48.7532 27.2415Z" fill="black"/>
<path d="M56.3057 28.4759C56.2928 28.4762 56.2804 28.4716 56.2707 28.4631C56.261 28.4547 56.2549 28.4429 56.2534 28.4301C56.252 28.4174 56.2554 28.4045 56.2629 28.3941C56.2704 28.3837 56.2815 28.3764 56.2941 28.3738C56.3113 28.3701 57.9906 27.9788 58.9998 27.3735L58.3328 25.3444C58.3304 25.3379 58.3293 25.331 58.3296 25.324C58.3299 25.3171 58.3316 25.3102 58.3346 25.304C58.3376 25.2977 58.3419 25.2921 58.3471 25.2875C58.3523 25.2829 58.3585 25.2794 58.3651 25.2772C58.3717 25.2751 58.3787 25.2743 58.3856 25.2748C58.3925 25.2754 58.3993 25.2774 58.4054 25.2807C58.4116 25.284 58.417 25.2885 58.4214 25.2939C58.4257 25.2993 58.429 25.3056 58.4309 25.3123L59.1233 27.4191L59.0885 27.4404C58.0691 28.0663 56.3348 28.4703 56.3173 28.4744C56.3135 28.4755 56.3096 28.476 56.3057 28.4759Z" fill="black"/>
<path d="M56.7723 27.5361C56.7598 27.536 56.7479 27.5313 56.7386 27.5231C56.7293 27.5148 56.7233 27.5035 56.7217 27.4911C56.7201 27.4788 56.723 27.4663 56.7299 27.4559C56.7368 27.4456 56.7472 27.4381 56.7592 27.4348C56.773 27.4314 58.1265 27.079 58.7953 26.6697C58.8011 26.6658 58.8076 26.663 58.8145 26.6616C58.8214 26.6603 58.8285 26.6603 58.8353 26.6618C58.8422 26.6632 58.8487 26.6661 58.8544 26.6701C58.8601 26.6742 58.865 26.6793 58.8686 26.6853C58.8723 26.6913 58.8747 26.6979 58.8757 26.7049C58.8767 26.7118 58.8763 26.7189 58.8745 26.7256C58.8726 26.7324 58.8695 26.7388 58.8651 26.7443C58.8608 26.7498 58.8554 26.7543 58.8492 26.7577C58.1672 27.1751 56.8411 27.52 56.785 27.5346C56.7808 27.5357 56.7766 27.5362 56.7723 27.5361Z" fill="black"/>
<path d="M45.4395 55.7718C45.4321 55.7718 45.4249 55.7703 45.4182 55.7674C43.6469 54.9649 43.0775 53.6407 43.0719 53.6272L43.0588 53.5965L43.0816 53.5722C43.116 53.5348 46.5299 49.8688 47.7846 48.6825C47.7946 48.6736 47.8077 48.6689 47.8211 48.6695C47.8345 48.67 47.8472 48.6758 47.8564 48.6855C47.8656 48.6952 47.8707 48.7082 47.8706 48.7216C47.8705 48.735 47.8651 48.7478 47.8557 48.7573C46.6586 49.8893 43.4864 53.289 43.1796 53.6171C43.2743 53.8154 43.8747 54.9548 45.4615 55.6746C45.4721 55.6795 45.4807 55.6879 45.4859 55.6984C45.4911 55.7089 45.4926 55.7208 45.4901 55.7323C45.4877 55.7437 45.4814 55.754 45.4723 55.7614C45.4632 55.7687 45.4519 55.7728 45.4402 55.773L45.4395 55.7718Z" fill="black"/>
<path d="M43.6387 54.4431C43.6317 54.4433 43.6248 54.4421 43.6184 54.4395C43.612 54.4369 43.6061 54.4331 43.6013 54.4281C43.5964 54.4233 43.5926 54.4177 43.59 54.4114C43.5874 54.4051 43.586 54.3984 43.586 54.3916C43.586 54.3849 43.5874 54.3781 43.59 54.3719C43.5926 54.3656 43.5964 54.3599 43.6013 54.3552L46.7619 51.129C46.7667 51.1241 46.7723 51.1202 46.7786 51.1175C46.7848 51.1148 46.7916 51.1133 46.7984 51.1132C46.8052 51.113 46.812 51.1143 46.8184 51.1168C46.8247 51.1193 46.8305 51.123 46.8354 51.1277C46.8403 51.1325 46.8443 51.1381 46.847 51.1444C46.8497 51.1507 46.8512 51.1574 46.8513 51.1642C46.8514 51.171 46.8502 51.1778 46.8477 51.1842C46.8452 51.1905 46.8415 51.1963 46.8367 51.2012L43.6757 54.4274C43.6709 54.4323 43.6652 54.4363 43.6588 54.439C43.6524 54.4417 43.6456 54.4431 43.6387 54.4431Z" fill="black"/>
<path d="M72.8149 58.5914C72.1754 58.5914 71.6571 58.073 71.6571 57.4336C71.6571 56.7941 72.1754 56.2758 72.8149 56.2758C73.4543 56.2758 73.9727 56.7941 73.9727 57.4336C73.9727 58.073 73.4543 58.5914 72.8149 58.5914Z" fill="#4CB7D8"/>
<path d="M73.4336 57.4334C73.4336 57.5558 73.3973 57.6754 73.3293 57.7772C73.2613 57.8789 73.1647 57.9582 73.0516 58.0051C72.9386 58.0519 72.8142 58.0642 72.6941 58.0403C72.5741 58.0164 72.4639 57.9575 72.3773 57.8709C72.2908 57.7844 72.2319 57.6742 72.208 57.5541C72.1841 57.4341 72.1964 57.3097 72.2432 57.1967C72.29 57.0836 72.3694 56.987 72.4711 56.919C72.5729 56.851 72.6925 56.8147 72.8149 56.8147C72.979 56.8147 73.1363 56.8799 73.2524 56.9959C73.3684 57.112 73.4336 57.2693 73.4336 57.4334Z" fill="#4C222E"/>
<path d="M71.3542 55.6495C71.3542 55.6495 71.3096 56.226 71.9258 56.5391C72.5419 56.8522 72.5419 57.1552 72.5419 57.1552C72.5419 57.1552 72.482 57.6221 72.8198 57.6322C73.1576 57.6423 73.1778 57.205 73.1479 56.8466C73.118 56.4882 72.8486 56.1213 72.7951 56.0319C72.7416 55.9425 72.7753 55.6492 72.7753 55.6492L71.3542 55.6495Z" fill="#8CD2F9"/>
<path d="M72.8942 55.7838H71.1255V55.3764H72.8942V55.7838Z" fill="#4CB7D8"/>
<path d="M72.1206 55.3768H71.8464V54.4521H72.1206V55.3768Z" fill="#8CD2F9"/>
<path d="M87.071 58.5914C86.4315 58.5914 85.9132 58.073 85.9132 57.4336C85.9132 56.7941 86.4315 56.2758 87.071 56.2758C87.7104 56.2758 88.2288 56.7941 88.2288 57.4336C88.2288 58.073 87.7104 58.5914 87.071 58.5914Z" fill="#4CB7D8"/>
<path d="M87.6895 57.4334C87.6895 57.5558 87.6532 57.6755 87.5852 57.7772C87.5171 57.879 87.4205 57.9583 87.3074 58.0051C87.1943 58.0519 87.0699 58.0642 86.9499 58.0403C86.8298 58.0164 86.7196 57.9574 86.6331 57.8708C86.5465 57.7842 86.4877 57.674 86.4638 57.5539C86.44 57.4339 86.4523 57.3094 86.4992 57.1964C86.5461 57.0833 86.6254 56.9867 86.7272 56.9188C86.829 56.8508 86.9487 56.8146 87.0711 56.8147C87.1523 56.8147 87.2328 56.8307 87.3078 56.8618C87.3829 56.8929 87.451 56.9385 87.5085 56.9959C87.5659 57.0534 87.6114 57.1216 87.6425 57.1967C87.6735 57.2718 87.6895 57.3522 87.6895 57.4334Z" fill="#4C222E"/>
<path d="M85.6101 55.6495C85.6101 55.6495 85.5652 56.226 86.1813 56.5391C86.7975 56.8522 86.7975 57.1552 86.7975 57.1552C86.7975 57.1552 86.738 57.6221 87.0758 57.6322C87.4136 57.6423 87.4334 57.205 87.4035 56.8466C87.3736 56.4882 87.1042 56.1213 87.0507 56.0319C86.9972 55.9425 87.0309 55.6492 87.0309 55.6492L85.6101 55.6495Z" fill="#8CD2F9"/>
<path d="M87.1503 55.7838H85.3816V55.3764H87.1503V55.7838Z" fill="#4CB7D8"/>
<path d="M86.3767 55.3768H86.1025V54.4521H86.3767V55.3768Z" fill="#8CD2F9"/>
<path d="M87.7769 54.4626C87.6115 54.442 82.3829 54.4394 72.2354 54.4547L69.6628 54.4588C69.5962 54.4588 69.5306 54.4422 69.4719 54.4107C69.4132 54.3791 69.3632 54.3335 69.3264 54.278C69.2896 54.2224 69.2671 54.1586 69.2609 54.0923C69.2548 54.0259 69.2651 53.9591 69.291 53.8977L70.7151 50.5425L71.1188 49.5732L71.0773 49.2904L68.8137 34.5582L68.7175 33.9334L64.0927 31.8419L63.8791 32.3144L68.2477 34.2899L70.5876 49.5153L68.8133 53.6931C68.7538 53.8333 68.73 53.9861 68.7439 54.1378C68.7579 54.2895 68.8092 54.4353 68.8932 54.5624C68.9773 54.6894 69.0915 54.7937 69.2257 54.8658C69.3598 54.9379 69.5098 54.9757 69.6621 54.9758L72.2343 54.9717C81.8285 54.9571 87.472 54.959 87.7177 54.9766H87.7106L87.7769 54.4626Z" fill="#8CD2F9"/>
<path d="M66.6107 32.8194L64.067 31.7719C64.0123 31.7493 63.9537 31.738 63.8946 31.7385C63.8355 31.7391 63.7771 31.7517 63.7229 31.7754C63.6688 31.7991 63.62 31.8335 63.5794 31.8766C63.5389 31.9197 63.5075 31.9705 63.4871 32.026L63.4718 32.0675C63.4325 32.1741 63.4361 32.2918 63.4817 32.3958C63.5273 32.4999 63.6114 32.5822 63.7164 32.6256L66.2557 33.6731C66.3596 33.7159 66.4759 33.7173 66.5808 33.677C66.6856 33.6367 66.771 33.5578 66.8195 33.4565L66.8386 33.4164C66.8646 33.3626 66.8794 33.3039 66.8819 33.2441C66.8845 33.1844 66.8748 33.1247 66.8535 33.0688C66.8321 33.0129 66.7996 32.9619 66.7579 32.919C66.7161 32.8761 66.6661 32.8422 66.6107 32.8194Z" fill="#223749"/>
<path d="M70.5516 49.3364C70.5392 49.3364 70.5272 49.3319 70.5179 49.3238C70.5085 49.3157 70.5023 49.3045 70.5004 49.2923L68.1964 34.2985C68.1948 34.2915 68.1946 34.2843 68.1959 34.2772C68.1972 34.2702 68.2 34.2635 68.204 34.2576C68.208 34.2517 68.2132 34.2466 68.2193 34.2428C68.2253 34.239 68.2321 34.2364 68.2392 34.2353C68.2462 34.2343 68.2535 34.2346 68.2604 34.2365C68.2673 34.2383 68.2738 34.2416 68.2794 34.246C68.285 34.2505 68.2896 34.256 68.293 34.2624C68.2963 34.2687 68.2983 34.2756 68.2989 34.2828L70.6029 49.2765C70.6039 49.2833 70.6037 49.2902 70.6021 49.2968C70.6004 49.3034 70.5975 49.3096 70.5935 49.3151C70.5895 49.3206 70.5844 49.3253 70.5785 49.3288C70.5727 49.3323 70.5662 49.3346 70.5595 49.3356L70.5516 49.3364Z" fill="black"/>
<path d="M87.7764 54.5146L69.6627 54.5109C69.6489 54.5109 69.6357 54.5054 69.626 54.4956C69.6162 54.4859 69.6107 54.4726 69.6107 54.4589C69.6107 54.4451 69.6162 54.4318 69.626 54.4221C69.6357 54.4123 69.6489 54.4069 69.6627 54.4069L87.7764 54.4106C87.7902 54.4106 87.8034 54.4161 87.8131 54.4258C87.8229 54.4356 87.8284 54.4488 87.8284 54.4626C87.8284 54.4764 87.8229 54.4896 87.8131 54.4994C87.8034 54.5091 87.7902 54.5146 87.7764 54.5146Z" fill="black"/>
<path d="M69.5446 39.3693C69.5323 39.3693 69.5203 39.3649 69.5109 39.3568C69.5015 39.3488 69.4953 39.3377 69.4934 39.3255L68.6704 33.9697L67.5036 33.4423C67.4919 33.4361 67.4829 33.4257 67.4786 33.4132C67.4743 33.4007 67.4749 33.387 67.4804 33.3749C67.4858 33.3628 67.4956 33.3532 67.5079 33.3482C67.5201 33.3431 67.5339 33.3429 67.5462 33.3476L68.7643 33.8983L68.7687 33.9263L69.5959 39.3098C69.5979 39.3234 69.5945 39.3373 69.5864 39.3483C69.5782 39.3594 69.566 39.3668 69.5525 39.3689L69.5446 39.3693Z" fill="black"/>
<path d="M48.2453 58.1301H50.2542L51.0686 57.2428L52.5582 58.1301H52.8788C52.9327 58.1291 52.9854 58.1468 53.0278 58.1802C53.0702 58.2136 53.0998 58.2607 53.1114 58.3134C53.1182 58.3467 53.1174 58.3809 53.1092 58.4138C53.101 58.4467 53.0857 58.4774 53.0642 58.5036C53.0427 58.5298 53.0156 58.5509 52.985 58.5654C52.9544 58.5799 52.9209 58.5873 52.887 58.5873H48.2161C48.1997 58.5873 48.1839 58.5807 48.1722 58.5691C48.1606 58.5574 48.154 58.5416 48.154 58.5252V58.221C48.154 58.2091 48.1564 58.1972 48.161 58.1862C48.1656 58.1751 48.1723 58.1651 48.1808 58.1566C48.1893 58.1482 48.1993 58.1415 48.2104 58.1369C48.2215 58.1324 48.2334 58.1301 48.2453 58.1301Z" fill="#FF424D"/>
<path d="M48.2629 58.1328V57.3098C48.2629 57.3098 48.5995 56.8541 49.1165 57.0853C49.1165 57.0853 49.8954 57.6379 50.5822 56.969L52.2877 57.725C52.2877 57.725 52.7553 57.8814 52.8821 58.1324L48.2629 58.1328Z" fill="#223749"/>
<path d="M48.246 57.3082H48.28V58.1286H48.246V57.3082Z" fill="black"/>
<path d="M49.8143 57.3172C49.8497 57.3177 49.8851 57.3157 49.9202 57.3112L49.9153 57.2775C49.6361 57.3019 49.3571 57.229 49.1256 57.071L49.1065 57.0991C49.3153 57.241 49.5619 57.317 49.8143 57.3172Z" fill="black"/>
<path d="M48.4791 57.8031L48.697 57.9497L48.678 57.978L48.4601 57.8314L48.4791 57.8031Z" fill="black"/>
<path d="M48.6368 57.7669L48.8545 57.9137L48.8355 57.9419L48.6177 57.7951L48.6368 57.7669Z" fill="black"/>
<path d="M53.0463 58.5479C53.0847 58.5154 53.1121 58.4718 53.1249 58.4232C53.1378 58.3745 53.1353 58.3231 53.118 58.2758C53.1007 58.2286 53.0692 58.1878 53.028 58.159C52.9867 58.1302 52.9376 58.1147 52.8873 58.1147H48.2688C48.2339 58.1148 48.2005 58.1287 48.1758 58.1534C48.1511 58.1781 48.1372 58.2115 48.1371 58.2464V58.4746H48.1716V58.2464C48.1717 58.2207 48.1819 58.196 48.2002 58.1778C48.2184 58.1595 48.2431 58.1493 48.2688 58.1492H52.8873C52.931 58.1487 52.9737 58.1618 53.0096 58.1867C53.0455 58.2115 53.0728 58.2469 53.0878 58.2879C53.1028 58.3289 53.1048 58.3735 53.0934 58.4157C53.082 58.4578 53.0578 58.4954 53.0242 58.5232L53.0463 58.5479Z" fill="black"/>
<path d="M52.8719 58.1391L52.9026 58.1245C52.8988 58.1163 52.8053 57.9244 52.4563 57.7755C52.1133 57.6292 50.6042 56.96 50.5892 56.9525L50.5754 56.9839C50.5904 56.9907 52.0994 57.6599 52.4428 57.8069C52.7788 57.9495 52.8708 58.1365 52.8719 58.1391Z" fill="black"/>
<path d="M41.8195 54.9234L43.2523 56.3315L44.4549 56.2698L44.8952 57.9464L45.1242 58.1709C45.1634 58.208 45.1886 58.2575 45.1954 58.311C45.2022 58.3646 45.1903 58.4188 45.1616 58.4645C45.143 58.4928 45.1184 58.5167 45.0895 58.5343C45.0606 58.5519 45.0281 58.5629 44.9944 58.5665C44.9608 58.5701 44.9267 58.5662 44.8948 58.555C44.8628 58.5438 44.8337 58.5257 44.8096 58.502L41.4802 55.2279C41.4686 55.2163 41.4621 55.2005 41.4621 55.184C41.4621 55.1675 41.4686 55.1517 41.4802 55.14L41.6934 54.9231C41.7104 54.9067 41.733 54.8976 41.7565 54.8977C41.7801 54.8978 41.8027 54.907 41.8195 54.9234Z" fill="#FF424D"/>
<path d="M41.8305 54.9376L42.4073 54.3496C42.4073 54.3496 42.9684 54.262 43.1719 54.7887C43.1719 54.7887 43.3403 55.7292 44.2987 55.7337L44.9848 57.4687C44.9848 57.4687 45.2092 57.9079 45.1232 58.1757L41.8305 54.9376Z" fill="#223749"/>
<path d="M42.3956 54.3438L42.4199 54.3677L41.8449 54.9528L41.8206 54.9289L42.3956 54.3438Z" fill="black"/>
<path d="M43.5089 55.4431C43.5339 55.468 43.5603 55.4914 43.5882 55.513L43.6084 55.4853C43.3921 55.3072 43.2444 55.0596 43.1902 54.7847L43.1565 54.7914C43.2062 55.039 43.3289 55.2659 43.5089 55.4431Z" fill="black"/>
<path d="M42.2194 54.8501L42.272 55.1074L42.2386 55.1142L42.186 54.857L42.2194 54.8501Z" fill="black"/>
<path d="M42.3541 54.9371L42.4065 55.1945L42.3731 55.2012L42.3208 54.9439L42.3541 54.9371Z" fill="black"/>
<path d="M44.951 58.5854C45.0012 58.5892 45.0514 58.5775 45.0947 58.5518C45.1379 58.5261 45.1723 58.4877 45.193 58.4419C45.2138 58.396 45.2199 58.3449 45.2106 58.2954C45.2013 58.2459 45.1771 58.2005 45.1411 58.1653L41.8491 54.928C41.8369 54.9157 41.8223 54.9059 41.8062 54.8993C41.7902 54.8926 41.773 54.8892 41.7556 54.8892C41.7382 54.8892 41.721 54.8926 41.705 54.8993C41.6889 54.9059 41.6743 54.9157 41.6621 54.928L41.5023 55.0907L41.5267 55.1147L41.6864 54.9519C41.7048 54.9337 41.7296 54.9235 41.7554 54.9235C41.7813 54.9235 41.8061 54.9337 41.8244 54.9519L45.1164 58.1893C45.1474 58.2196 45.1683 58.2587 45.1762 58.3013C45.1842 58.3439 45.1789 58.388 45.161 58.4275C45.1431 58.4669 45.1135 58.5 45.0762 58.5221C45.039 58.5442 44.9958 58.5543 44.9525 58.551L44.951 58.5854Z" fill="black"/>
<path d="M45.1131 58.1739L45.1453 58.1855C45.1483 58.1769 45.216 57.9745 45.0704 57.6244C44.9283 57.2798 44.3223 55.7446 44.3152 55.7292L44.2834 55.7416C44.2894 55.7573 44.8965 57.2926 45.0386 57.6375C45.1789 57.9734 45.1138 58.1709 45.1131 58.1739Z" fill="black"/>
<path d="M54.4502 35.9924C54.506 36.1509 54.4968 36.3251 54.4246 36.4768C54.3524 36.6286 54.2231 36.7456 54.0649 36.8023L37.7173 42.5632L37.3081 41.4114L46.6198 38.1033L53.6418 35.6086C53.8 35.5531 53.9736 35.5623 54.125 35.6342C54.2763 35.7061 54.3932 35.8348 54.4502 35.9924Z" fill="#3A1F33"/>
<path d="M53.3059 36.6471L53.7619 37.9306C53.9695 38.5148 54.0229 39.1426 53.917 39.7535C53.8111 40.3643 53.5495 40.9376 53.1574 41.4178L52.4466 42.2887L52.6374 40.489C52.7022 39.8783 52.6291 39.2608 52.4234 38.6821L51.771 36.8454L53.3059 36.6471Z" fill="#3AA1C9"/>
<path d="M53.1758 36.2812L52.7198 34.9973C52.5122 34.4131 52.1576 33.8923 51.69 33.4852C51.2225 33.078 50.6578 32.7984 50.0507 32.6731L48.9497 32.446L50.2336 33.7221C50.6687 34.155 51.0011 34.6802 51.2062 35.2588L51.859 37.0956L53.1758 36.2812Z" fill="#3AA1C9"/>
<path d="M53.1473 35.4739L51.2057 36.1637C51.1532 36.1824 51.1102 36.2212 51.0862 36.2715C51.0623 36.3219 51.0592 36.3797 51.0778 36.4323L51.5477 37.7539C51.5569 37.7799 51.5711 37.8038 51.5896 37.8243C51.6081 37.8448 51.6304 37.8615 51.6553 37.8733C51.6802 37.8852 51.7072 37.892 51.7348 37.8934C51.7623 37.8948 51.7899 37.8907 51.8159 37.8815L53.7574 37.1917C53.805 37.1748 53.8448 37.1413 53.8698 37.0974C53.8947 37.0535 53.903 37.0021 53.8932 36.9526L53.4031 35.5737C53.3797 35.5291 53.3409 35.4944 53.2939 35.476C53.2468 35.4577 53.1948 35.4569 53.1473 35.4739Z" fill="#2A8AA8"/>
<path d="M51.0541 36.4394L51.5236 37.7614C51.5446 37.8199 51.5878 37.8677 51.6438 37.8944C51.6999 37.9212 51.7642 37.9247 51.8229 37.9043L53.7644 37.2145C53.8175 37.1954 53.862 37.1578 53.8899 37.1087C53.9178 37.0596 53.9271 37.0021 53.9162 36.9467V36.9429L53.4247 35.5611C53.3982 35.5111 53.3547 35.4724 53.302 35.4518C53.2494 35.4312 53.1911 35.4302 53.1378 35.4488L53.1546 35.4963C53.1962 35.4821 53.2415 35.4829 53.2826 35.4987C53.3236 35.5145 53.3578 35.5443 53.3791 35.5828L53.8676 36.9583C53.8754 37.0016 53.8677 37.0463 53.8458 37.0844C53.8239 37.1226 53.7892 37.1519 53.7479 37.167L51.8064 37.8568C51.7601 37.8728 51.7095 37.8699 51.6653 37.8489C51.6211 37.828 51.5869 37.7905 51.57 37.7446L51.1005 36.423C51.0846 36.3767 51.0874 36.326 51.1084 36.2818C51.1294 36.2376 51.1668 36.2034 51.2127 36.1865L51.1959 36.139C51.1374 36.1602 51.0896 36.2037 51.0631 36.26C51.0365 36.3163 51.0333 36.3808 51.0541 36.4394Z" fill="black"/>
<path d="M52.9123 35.5274L52.9292 35.575L51.5036 36.0812L51.4867 36.0336L52.9123 35.5274Z" fill="black"/>
<path d="M52.4289 42.2707L52.4645 42.3063C52.475 42.2962 53.5022 41.2528 53.8112 40.2735C54.1105 39.3233 54.0413 38.4779 53.5568 37.2617L53.5101 37.2804C53.9896 38.4854 54.0603 39.3203 53.7633 40.2582C53.4581 41.2278 52.4391 42.2606 52.4289 42.2707Z" fill="black"/>
<path d="M48.9471 32.4712C48.9617 32.4712 50.406 32.6324 51.2537 33.1898C52.052 33.7135 52.5334 34.4067 52.915 35.5809L52.9629 35.5652C52.5772 34.3794 52.0901 33.6791 51.2795 33.1475C50.4191 32.5834 48.9654 32.4225 48.9508 32.421L48.9471 32.4712Z" fill="black"/>
<path d="M37.3069 41.5117L37.6926 42.5981L37.7166 42.5898L51.5327 37.7383L51.5159 37.6908L37.7233 42.5337L37.3545 41.4949L37.3069 41.5117Z" fill="black"/>
<path d="M45.5206 39.8564C45.919 40.3427 46.0069 39.8504 46.0069 39.8504C46.2478 40.089 46.3656 40.0397 46.4221 39.957C46.442 39.9267 46.4545 39.8922 46.4587 39.8562C46.4628 39.8202 46.4585 39.7838 46.4461 39.7498C46.3712 39.5305 46.1333 38.8613 45.9597 38.4517C45.99 38.1655 46.4704 38.2736 46.7135 38.4105C46.8388 38.4808 47.0502 38.4928 46.8482 38.1741C46.6832 37.9141 46.1255 37.512 46.1255 37.512L46.4303 35.5637L44.1237 36.0811C44.1237 36.0811 44.0863 37.9063 44.0785 38.1812C44.0706 38.4562 44.3527 39.3876 44.585 39.6742C45.0066 40.1938 45.0402 39.8773 45.0402 39.8773C45.5288 40.376 45.5206 39.8564 45.5206 39.8564Z" fill="#FE9F73"/>
<path d="M45.6619 39.2613C45.6615 39.2543 45.6634 39.2474 45.6672 39.2415C45.6711 39.2357 45.6767 39.2312 45.6832 39.2287C45.6915 39.2257 45.7006 39.226 45.7086 39.2297C45.7165 39.2333 45.7228 39.24 45.7259 39.2482C45.8153 39.4883 46.0311 39.8295 46.0334 39.8329C46.0358 39.8365 46.0375 39.8407 46.0384 39.845C46.0393 39.8493 46.0393 39.8537 46.0384 39.8581C46.0376 39.8624 46.0359 39.8665 46.0334 39.8702C46.031 39.8738 46.0279 39.877 46.0242 39.8795C46.0205 39.8819 46.0164 39.8836 46.0121 39.8845C46.0078 39.8854 46.0033 39.8854 45.999 39.8845C45.9947 39.8837 45.9906 39.882 45.9869 39.8795C45.9832 39.8771 45.9801 39.874 45.9776 39.8703C45.9687 39.8561 45.7558 39.5198 45.6638 39.2718C45.6626 39.2684 45.6619 39.2649 45.6619 39.2613Z" fill="#F07162"/>
<path d="M45.2438 39.2795C45.2434 39.2717 45.2458 39.2641 45.2505 39.2579C45.2552 39.2518 45.262 39.2475 45.2696 39.2458C45.2781 39.2439 45.287 39.2454 45.2944 39.25C45.3019 39.2546 45.3072 39.262 45.3092 39.2705C45.3598 39.4708 45.4404 39.6622 45.5483 39.8384C45.5532 39.8457 45.555 39.8548 45.5533 39.8635C45.5516 39.8723 45.5465 39.88 45.5391 39.8849C45.5317 39.8899 45.5226 39.8917 45.5139 39.89C45.5052 39.8883 45.4975 39.8832 45.4925 39.8758C45.3803 39.6933 45.2966 39.4947 45.2445 39.287C45.244 39.2845 45.2437 39.282 45.2438 39.2795Z" fill="#F07162"/>
<path d="M44.7697 39.3738C44.7697 39.3659 44.7726 39.3582 44.7778 39.3522C44.783 39.3462 44.7902 39.3422 44.7981 39.3411C44.8059 39.3399 44.814 39.3416 44.8207 39.3458C44.8274 39.35 44.8324 39.3565 44.8348 39.3641C44.886 39.5399 44.9644 39.7067 45.0671 39.8583C45.0707 39.8655 45.0715 39.8737 45.0695 39.8814C45.0675 39.8891 45.0627 39.8959 45.0562 39.9004C45.0496 39.905 45.0416 39.907 45.0336 39.9061C45.0257 39.9053 45.0183 39.9016 45.0129 39.8957C44.9056 39.7377 44.8239 39.5637 44.7708 39.3802C44.7703 39.3781 44.77 39.376 44.7697 39.3738Z" fill="#F07162"/>
<path d="M47.0594 37.9407L46.0389 38.3155L47.135 39.0353L47.0594 37.9407Z" fill="#3A1F33"/>
<path d="M22.9529 58.759C22.8141 58.6692 20.5404 55.1176 19.0433 56.7969C19.0433 56.7969 16.8998 52.7942 14.0586 53.2023C12.1298 53.4795 13.248 55.7891 13.248 55.7891C13.248 55.7891 10.614 54.916 11.2241 57.2222C11.2241 57.2222 7.86896 56.7296 8.11922 58.6778L22.9529 58.759Z" fill="#3F9896"/>
<path d="M10.0617 54.5149C9.61389 54.1487 9.40974 53.6576 9.60568 53.418C9.80162 53.1785 10.3235 53.2812 10.7712 53.6474C11.219 54.0136 11.4232 54.5048 11.2272 54.7443C11.0313 54.9839 10.5095 54.8812 10.0617 54.5149Z" fill="#3F9896"/>
<path d="M9.77607 55.7801C9.51108 55.5633 9.39031 55.2726 9.50633 55.1308C9.62235 54.9889 9.93123 55.0496 10.1962 55.2664C10.4612 55.4831 10.582 55.7738 10.466 55.9157C10.3499 56.0575 10.0411 55.9968 9.77607 55.7801Z" fill="#3F9896"/>
<path d="M13.37 56.2396C13.3776 56.2384 13.3846 56.2345 13.3898 56.2287C13.3924 56.226 13.3942 56.2226 13.3952 56.2189C13.3962 56.2153 13.3963 56.2114 13.3954 56.2077C13.3946 56.2041 13.3928 56.2006 13.3903 56.1978C13.3879 56.1949 13.3847 56.1927 13.3812 56.1913C13.3543 56.1771 12.7157 55.8371 12.1553 55.9351C12.1516 55.9353 12.1479 55.9363 12.1446 55.938C12.1413 55.9397 12.1383 55.9421 12.136 55.9451C12.1337 55.948 12.132 55.9514 12.1311 55.955C12.1301 55.9586 12.13 55.9624 12.1306 55.9661C12.1335 55.9733 12.1388 55.9793 12.1457 55.9829C12.1525 55.9866 12.1604 55.9876 12.168 55.9859C12.7018 55.8924 13.3382 56.2313 13.3445 56.2347C13.3522 56.2393 13.3612 56.241 13.37 56.2396Z" fill="black"/>
<path d="M12.9408 56.2784C12.9487 56.2771 12.9558 56.2732 12.961 56.2672C12.9636 56.2644 12.9654 56.2609 12.9663 56.2572C12.9673 56.2535 12.9673 56.2497 12.9664 56.246C12.9654 56.2423 12.9636 56.2389 12.961 56.236C12.9585 56.2332 12.9553 56.2311 12.9517 56.2298C12.9397 56.2234 12.6446 56.0689 12.1212 56.0955C12.1174 56.0952 12.1136 56.0957 12.11 56.097C12.1064 56.0982 12.1031 56.1002 12.1003 56.1027C12.0975 56.1053 12.0952 56.1084 12.0936 56.1118C12.0919 56.1152 12.0911 56.119 12.0909 56.1228C12.0924 56.1305 12.0967 56.1373 12.103 56.1419C12.1094 56.1465 12.1172 56.1485 12.1249 56.1475C12.6273 56.122 12.9135 56.2717 12.9161 56.2732C12.9235 56.2777 12.9322 56.2796 12.9408 56.2784Z" fill="black"/>
<path d="M20.9348 57.2843C20.9429 57.2843 20.9508 57.2817 20.9572 57.2768C20.9603 57.2748 20.9629 57.272 20.9646 57.2688C20.9664 57.2655 20.9673 57.2618 20.9673 57.2581C20.9673 57.2544 20.9664 57.2508 20.9646 57.2475C20.9629 57.2443 20.9603 57.2415 20.9572 57.2394C20.9348 57.2204 20.4002 56.7789 19.8268 56.7789C19.808 56.7789 19.7942 56.7905 19.7942 56.8051C19.7951 56.8128 19.799 56.8197 19.8051 56.8246C19.8111 56.8294 19.8187 56.8317 19.8264 56.8309C20.3726 56.8309 20.9053 57.2709 20.9112 57.2753C20.9178 57.281 20.9261 57.2841 20.9348 57.2843Z" fill="black"/>
<path d="M20.5071 57.2489C20.5152 57.2489 20.523 57.2462 20.5295 57.2414C20.5326 57.2393 20.5351 57.2366 20.5369 57.2333C20.5386 57.23 20.5396 57.2264 20.5396 57.2227C20.5396 57.219 20.5386 57.2153 20.5369 57.2121C20.5351 57.2088 20.5326 57.206 20.5295 57.204C20.519 57.1954 20.2714 56.9941 19.7529 56.9301C19.745 56.9285 19.7368 56.9298 19.7299 56.9339C19.723 56.938 19.7179 56.9445 19.7155 56.9522C19.7125 56.9664 19.7249 56.9795 19.7424 56.9818C20.2381 57.0427 20.4801 57.2384 20.4824 57.2403C20.4893 57.246 20.4981 57.2491 20.5071 57.2489Z" fill="black"/>
<path d="M3.72295 58.9175H112.89C112.951 58.9175 113 58.8311 113 58.7245C113 58.6179 112.951 58.5315 112.89 58.5315H3.72295C3.66235 58.5315 3.49438 58.6179 3.49438 58.7245C3.49438 58.8311 3.66235 58.9175 3.72295 58.9175Z" fill="#21111D"/>
</svg>
