<svg width="99" height="82" viewBox="0 0 99 82" fill="none" xmlns="http://www.w3.org/2000/svg">
<path d="M80.649 14.6748C80.6487 13.9349 80.5746 13.1969 80.4278 12.4718L84.1112 10.3535L80.6608 4.36595L76.9868 6.4842C75.862 5.47646 74.5416 4.71131 73.108 4.2365V0H66.2072V4.2365C65.5673 4.44878 64.9481 4.719 64.3573 5.04379C64.2867 5.08145 64.2184 5.12381 64.1502 5.16147L63.9431 5.28151C63.3667 5.62998 62.8239 6.03102 62.3214 6.4795L58.6545 4.36124L55.2041 10.3394L58.871 12.4577C58.731 13.1174 58.6522 13.7887 58.6357 14.4629V14.9337C58.6521 15.6072 58.7309 16.2777 58.871 16.9366L55.2041 19.0548L58.6545 25.0424L62.3214 22.9242C63.449 23.929 64.7719 24.6902 66.2072 25.1601V29.3966H73.108V25.146C74.5313 24.6685 75.8429 23.907 76.9633 22.9077L80.6608 25.0424L84.1112 19.0643L80.416 16.9295C80.5703 16.1878 80.6484 15.4323 80.649 14.6748ZM74.1883 19.5397L74.0965 19.6221C73.9789 19.728 73.8612 19.8292 73.7294 19.928C73.6705 19.9751 73.6117 20.0198 73.5505 20.0622C73.447 20.1375 73.341 20.2081 73.2351 20.2764C73.1292 20.3446 73.0633 20.3846 72.9762 20.4341C72.8891 20.4835 72.7997 20.5329 72.7103 20.58C72.6208 20.6271 72.4749 20.693 72.3666 20.7471L72.1619 20.8342C72.0136 20.893 71.863 20.9495 71.71 20.9989L71.5947 21.0366C70.6019 21.3368 69.5528 21.4007 68.5309 21.2232C67.5091 21.0457 66.543 20.6316 65.7096 20.0142C64.8763 19.3968 64.199 18.593 63.7316 17.6672C63.2643 16.7413 63.0199 15.719 63.0181 14.6818C63.0175 13.811 63.1895 12.9486 63.5241 12.1446C63.5382 12.107 63.5547 12.0717 63.5712 12.034C63.63 11.8975 63.6959 11.7634 63.7642 11.6292C63.8089 11.5468 63.8536 11.4644 63.9007 11.3938C63.9478 11.3232 63.9972 11.2314 64.049 11.1585C64.129 11.0314 64.2114 10.909 64.3008 10.7866L64.3714 10.6925C65.1387 9.69495 66.1733 8.93566 67.355 8.50284C68.5367 8.07003 69.8169 7.98146 71.0469 8.24743C72.277 8.5134 73.4063 9.123 74.3036 10.0054C75.2009 10.8877 75.8294 12.0066 76.1159 13.232C76.1159 13.272 76.1324 13.312 76.1418 13.352C76.1748 13.5074 76.2007 13.6651 76.2242 13.8228C76.2242 13.8957 76.243 13.9687 76.2501 14.0417C76.2611 14.1687 76.2705 14.2958 76.2783 14.4229C76.2783 14.5249 76.2783 14.6261 76.2783 14.7266C76.2783 14.827 76.2783 14.9282 76.2783 15.0302C76.2783 15.1573 76.2619 15.2844 76.2501 15.4091C76.2501 15.4844 76.2336 15.5597 76.2242 15.6327C76.2007 15.7904 76.1748 15.9481 76.1418 16.1034C76.1418 16.1434 76.123 16.1834 76.1159 16.2235C75.9714 16.8591 75.7334 17.4698 75.4099 18.0357C75.078 18.5938 74.6665 19.1004 74.1883 19.5397Z" fill="#EBEBF2"/>
<path d="M97.0464 35.6995C97.0469 35.2829 97.0051 34.8673 96.9217 34.4591L98.9999 33.2588L97.0535 29.8884L94.9823 31.084C94.3483 30.5162 93.6039 30.0851 92.7958 29.8178V27.4265H88.9053V29.8154C88.5446 29.9348 88.1956 30.0868 87.8626 30.2697C87.8226 30.2909 87.785 30.3144 87.7473 30.3379C87.7097 30.3615 87.6673 30.3803 87.6296 30.4038C87.3048 30.601 86.9984 30.8271 86.7141 31.0793L84.6476 29.886L82.7012 33.2564L84.77 34.4497C84.6927 34.8215 84.6501 35.1997 84.6429 35.5794C84.6429 35.6265 84.6429 35.6712 84.6429 35.7159C84.6429 35.7607 84.6429 35.8054 84.6429 35.8501C84.6503 36.2298 84.6929 36.608 84.77 36.9798L82.7012 38.1731L84.6476 41.5435L86.7141 40.3502C87.3509 40.915 88.0966 41.3435 88.9053 41.6094V44.0006H92.7958V41.6C93.5994 41.3316 94.3395 40.9014 94.9705 40.3361L97.0535 41.5411L98.9999 38.1708L96.9146 36.9681C97.0025 36.5509 97.0467 36.1258 97.0464 35.6995ZM93.3983 38.4438L93.3489 38.4885C93.2807 38.5497 93.2124 38.6062 93.1418 38.6627L93.0406 38.738C92.9817 38.7803 92.9229 38.8203 92.8617 38.858L92.7158 38.9474C92.6664 38.9757 92.6169 39.0039 92.5652 39.0298L92.3722 39.124L92.2568 39.1734C92.1745 39.2063 92.0897 39.2393 92.0026 39.2652L91.9367 39.2864C91.2579 39.4929 90.5343 39.5023 89.8502 39.3135C89.1662 39.1247 88.5499 38.7454 88.0732 38.2198C87.5964 37.6942 87.2788 37.0439 87.1574 36.3448C87.0359 35.6457 87.1156 34.9264 87.3872 34.2708L87.4131 34.2073C87.4484 34.1296 87.4837 34.0543 87.5237 33.9719C87.5637 33.8895 87.5731 33.8778 87.6014 33.8307C87.6296 33.7836 87.6555 33.7389 87.6838 33.6942C87.712 33.6495 87.7756 33.553 87.825 33.4847C87.8396 33.4676 87.853 33.4496 87.865 33.4306C88.1652 33.0427 88.5376 32.7166 88.9618 32.4703C89.4684 32.177 90.0367 32.0065 90.6212 31.9726C91.2056 31.9386 91.7898 32.0422 92.327 32.275C92.8641 32.5077 93.3392 32.8632 93.7141 33.3128C94.089 33.7624 94.3533 34.2937 94.4857 34.8639L94.4998 34.9298C94.5187 35.0193 94.5351 35.1087 94.5469 35.1981C94.5469 35.2382 94.5587 35.2805 94.561 35.3229C94.5701 35.394 94.5756 35.4654 94.5775 35.5371C94.5775 35.5935 94.5775 35.65 94.5775 35.7065C94.5775 35.763 94.5775 35.8218 94.5775 35.8783C94.5775 35.9348 94.5775 36.0219 94.561 36.0925C94.5445 36.1631 94.561 36.1772 94.5469 36.2173C94.5351 36.3067 94.5187 36.3961 94.4998 36.4832L94.4857 36.5515C94.3188 37.2734 93.9402 37.929 93.3983 38.4344V38.4438Z" fill="#EBEBF2"/>
<path d="M21.3637 58.7862C21.155 58.2446 20.8916 57.7257 20.5776 57.2375L22.6699 54.6368L18.4523 51.2335L16.367 53.8224C15.2597 53.4034 14.0777 53.2182 12.8954 53.2788L11.695 50.1814L6.63948 52.149L7.84688 55.2346C7.43872 55.5706 7.06214 55.9433 6.72185 56.3479C6.68184 56.3949 6.64418 56.4444 6.60417 56.4938L6.48885 56.6397C6.16467 57.0575 5.88096 57.5051 5.64155 57.9766L2.36061 57.4658L1.52979 62.8156L4.81072 63.324C4.8965 63.8454 5.03125 64.3576 5.21319 64.8538C5.23437 64.915 5.25791 64.9739 5.28144 65.0327C5.30498 65.0915 5.32381 65.148 5.34734 65.2045C5.54718 65.6973 5.79304 66.1701 6.08167 66.6167L3.99872 69.2056L8.2164 72.5948L10.297 70.0059C11.4063 70.4189 12.589 70.5984 13.7709 70.5331L14.9736 73.6351L20.0198 71.6816L18.8147 68.5702C19.7183 67.82 20.4605 66.8944 20.9965 65.8494L24.2916 66.3625L25.1224 61.0151L21.8273 60.4996C21.7324 59.914 21.577 59.3398 21.3637 58.7862ZM18.0098 64.1783L17.9674 64.2631C17.9109 64.376 17.8497 64.4843 17.7838 64.5926C17.7556 64.642 17.7226 64.6914 17.692 64.7408C17.6379 64.8256 17.5814 64.9056 17.5226 64.988C17.4637 65.0703 17.4261 65.1151 17.3767 65.1763C17.3272 65.2375 17.2755 65.2987 17.2237 65.3575C17.1719 65.4163 17.0895 65.5058 17.0189 65.5764C16.9483 65.647 16.9365 65.6587 16.8942 65.6988C16.8024 65.7835 16.7106 65.8682 16.6117 65.9459L16.5364 66.0071C15.7595 66.6164 14.8254 66.9923 13.843 67.091C12.8606 67.1897 11.8703 67.0071 10.9877 66.5646C10.1051 66.122 9.36646 65.4378 8.85787 64.5915C8.34929 63.7452 8.09172 62.7718 8.11519 61.7847C8.11519 61.7541 8.11519 61.7212 8.11519 61.6906C8.11519 61.5729 8.13167 61.4552 8.14344 61.3399C8.14344 61.2669 8.15991 61.194 8.17168 61.121C8.18345 61.048 8.19757 60.9727 8.21169 60.9021C8.23523 60.7868 8.26112 60.6667 8.29171 60.5585C8.29171 60.5279 8.30819 60.4996 8.3176 60.469C8.50908 59.8132 8.8291 59.2019 9.25905 58.6709C9.76935 58.0368 10.421 57.531 11.1619 57.1941C11.9028 56.8571 12.7122 56.6982 13.5255 56.7303C14.3388 56.7623 15.1333 56.9843 15.8453 57.3785C16.5574 57.7727 17.1673 58.3282 17.6261 59.0004L17.6779 59.0804C17.7462 59.1863 17.8121 59.2946 17.8733 59.4028C17.9015 59.4546 17.9274 59.5041 17.9533 59.5582C17.9792 59.6123 18.0427 59.7371 18.0827 59.8289C18.1228 59.9206 18.1463 59.9724 18.1745 60.0477C18.2028 60.1231 18.2287 60.196 18.2546 60.2713C18.2804 60.3466 18.3157 60.4596 18.3416 60.5561C18.3581 60.6126 18.3722 60.6714 18.3864 60.7279C18.4146 60.848 18.4381 60.9633 18.4593 61.0951L18.4734 61.1916C18.5487 61.698 18.5487 62.2127 18.4734 62.7191C18.3907 63.2255 18.2345 63.7171 18.0098 64.1783Z" fill="#EBEBF2"/>
<path d="M47.6748 12.1494H0.602524C0.442725 12.1494 0.28947 12.0859 0.176475 11.9729C0.0634798 11.8599 0 11.7067 0 11.5469C0 11.3871 0.0634798 11.2338 0.176475 11.1208C0.28947 11.0078 0.442725 10.9443 0.602524 10.9443H47.6748C47.8346 10.9443 47.9878 11.0078 48.1008 11.1208C48.2138 11.2338 48.2773 11.3871 48.2773 11.5469C48.2776 11.6261 48.2622 11.7046 48.2321 11.7778C48.2019 11.851 48.1575 11.9176 48.1015 11.9736C48.0455 12.0296 47.979 12.074 47.9057 12.1042C47.8325 12.1343 47.754 12.1497 47.6748 12.1494Z" fill="#EBEBF2"/>
<path d="M47.6748 16.4658H0.602524C0.442725 16.4658 0.28947 16.4023 0.176475 16.2893C0.0634798 16.1763 0 16.0231 0 15.8633C0 15.7035 0.0634798 15.5502 0.176475 15.4372C0.28947 15.3242 0.442725 15.2607 0.602524 15.2607H47.6748C47.8346 15.2607 47.9878 15.3242 48.1008 15.4372C48.2138 15.5502 48.2773 15.7035 48.2773 15.8633C48.2773 16.0231 48.2138 16.1763 48.1008 16.2893C47.9878 16.4023 47.8346 16.4658 47.6748 16.4658Z" fill="#EBEBF2"/>
<path d="M47.6748 20.7824H0.602524C0.442725 20.7824 0.28947 20.719 0.176475 20.606C0.0634798 20.493 0 20.3397 0 20.1799C0 20.0201 0.0634798 19.8669 0.176475 19.7539C0.28947 19.6409 0.442725 19.5774 0.602524 19.5774H47.6748C47.754 19.5771 47.8325 19.5925 47.9057 19.6226C47.979 19.6528 48.0455 19.6972 48.1015 19.7532C48.1575 19.8092 48.2019 19.8757 48.2321 19.949C48.2622 20.0222 48.2776 20.1007 48.2773 20.1799C48.2773 20.3397 48.2138 20.493 48.1008 20.606C47.9878 20.719 47.8346 20.7824 47.6748 20.7824Z" fill="#EBEBF2"/>
<path d="M47.6748 23.8914H0.609605C0.27684 23.8914 0.00708008 24.1611 0.00708008 24.4939C0.00708008 24.8266 0.27684 25.0964 0.609605 25.0964H47.6748C48.0076 25.0964 48.2773 24.8266 48.2773 24.4939C48.2773 24.1611 48.0076 23.8914 47.6748 23.8914Z" fill="#EBEBF2"/>
<path d="M47.6748 29.4131H0.602524C0.442725 29.4131 0.28947 29.3496 0.176475 29.2366C0.0634798 29.1236 0 28.9703 0 28.8105C0 28.6507 0.0634798 28.4975 0.176475 28.3845C0.28947 28.2715 0.442725 28.208 0.602524 28.208H47.6748C47.8346 28.208 47.9878 28.2715 48.1008 28.3845C48.2138 28.4975 48.2773 28.6507 48.2773 28.8105C48.2773 28.9703 48.2138 29.1236 48.1008 29.2366C47.9878 29.3496 47.8346 29.4131 47.6748 29.4131Z" fill="#EBEBF2"/>
<path d="M47.6748 33.7295H0.602524C0.442725 33.7295 0.28947 33.666 0.176475 33.553C0.0634798 33.44 0 33.2867 0 33.1269C0 32.9671 0.0634798 32.8139 0.176475 32.7009C0.28947 32.5879 0.442725 32.5244 0.602524 32.5244H47.6748C47.754 32.5241 47.8325 32.5395 47.9057 32.5697C47.979 32.5998 48.0455 32.6442 48.1015 32.7002C48.1575 32.7562 48.2019 32.8228 48.2321 32.896C48.2622 32.9692 48.2776 33.0477 48.2773 33.1269C48.2773 33.2867 48.2138 33.44 48.1008 33.553C47.9878 33.666 47.8346 33.7295 47.6748 33.7295Z" fill="#EBEBF2"/>
<path d="M47.6748 38.0529H0.602524C0.442725 38.0529 0.28947 37.9895 0.176475 37.8765C0.0634798 37.7635 0 37.6102 0 37.4504C0 37.2906 0.0634798 37.1374 0.176475 37.0244C0.28947 36.9114 0.442725 36.8479 0.602524 36.8479H47.6748C47.8346 36.8479 47.9878 36.9114 48.1008 37.0244C48.2138 37.1374 48.2773 37.2906 48.2773 37.4504C48.2776 37.5296 48.2622 37.6081 48.2321 37.6814C48.2019 37.7546 48.1575 37.8212 48.1015 37.8772C48.0455 37.9332 47.979 37.9776 47.9057 38.0077C47.8325 38.0379 47.754 38.0533 47.6748 38.0529Z" fill="#EBEBF2"/>
<path d="M47.6748 42.3601H0.602524C0.442725 42.3601 0.28947 42.2966 0.176475 42.1836C0.0634798 42.0706 0 41.9174 0 41.7576C0 41.5978 0.0634798 41.4445 0.176475 41.3315C0.28947 41.2185 0.442725 41.155 0.602524 41.155H47.6748C47.8346 41.155 47.9878 41.2185 48.1008 41.3315C48.2138 41.4445 48.2773 41.5978 48.2773 41.7576C48.2773 41.9174 48.2138 42.0706 48.1008 42.1836C47.9878 42.2966 47.8346 42.3601 47.6748 42.3601Z" fill="#EBEBF2"/>
<path d="M47.6748 46.6767H0.602524C0.442725 46.6767 0.28947 46.6133 0.176475 46.5003C0.0634798 46.3873 0 46.234 0 46.0742C0 45.9144 0.0634798 45.7612 0.176475 45.6482C0.28947 45.5352 0.442725 45.4717 0.602524 45.4717H47.6748C47.754 45.4714 47.8325 45.4868 47.9057 45.5169C47.979 45.5471 48.0455 45.5915 48.1015 45.6475C48.1575 45.7035 48.2019 45.77 48.2321 45.8433C48.2622 45.9165 48.2776 45.995 48.2773 46.0742C48.2773 46.234 48.2138 46.3873 48.1008 46.5003C47.9878 46.6133 47.8346 46.6767 47.6748 46.6767Z" fill="#EBEBF2"/>
<path d="M47.8277 77.4195C67.7871 77.4195 83.9674 75.8915 83.9674 74.0067C83.9674 72.1219 67.7871 70.594 47.8277 70.594C27.8683 70.594 11.688 72.1219 11.688 74.0067C11.688 75.8915 27.8683 77.4195 47.8277 77.4195Z" fill="#EBEBF2"/>
<path d="M58.299 74.188H37.3542L40.9553 63.8015H54.698L58.299 74.188Z" fill="url(#paint0_linear_30_9727)"/>
<path d="M14.2676 32.2065H81.3879V65.4348C81.3879 66.3899 81.0085 67.3058 80.3332 67.9812C79.6579 68.6565 78.7419 69.0359 77.7869 69.0359H17.8686C16.9136 69.0359 15.9976 68.6565 15.3223 67.9812C14.647 67.3058 14.2676 66.3899 14.2676 65.4348V32.2065Z" fill="url(#paint1_linear_30_9727)"/>
<path d="M17.8686 21.8813H77.7845C78.7396 21.8813 79.6555 22.2607 80.3308 22.9361C81.0062 23.6114 81.3856 24.5273 81.3856 25.4824V60.523H14.2676V25.4824C14.2676 24.5273 14.647 23.6114 15.3223 22.9361C15.9976 22.2607 16.9136 21.8813 17.8686 21.8813Z" fill="#3D3D89"/>
<path d="M78.8038 25.5178H16.965V56.8138H78.8038V25.5178Z" fill="url(#paint2_linear_30_9727)"/>
<path style="mix-blend-mode:multiply" d="M47.8278 66.2964C48.9067 66.2964 49.7813 65.4218 49.7813 64.3429C49.7813 63.264 48.9067 62.3894 47.8278 62.3894C46.7489 62.3894 45.8743 63.264 45.8743 64.3429C45.8743 65.4218 46.7489 66.2964 47.8278 66.2964Z" fill="url(#paint3_linear_30_9727)"/>
<path d="M63.7571 74.188H31.8986C31.8986 73.6743 32.1026 73.1816 32.4659 72.8183C32.8292 72.4551 33.3219 72.251 33.8356 72.251H61.82C62.3338 72.251 62.8265 72.4551 63.1897 72.8183C63.553 73.1816 63.7571 73.6743 63.7571 74.188Z" fill="url(#paint4_linear_30_9727)"/>
<path d="M77.975 81.7646C86.0627 81.7646 92.6192 80.8268 92.6192 79.6699C92.6192 78.513 86.0627 77.5752 77.975 77.5752C69.8872 77.5752 63.3308 78.513 63.3308 79.6699C63.3308 80.8268 69.8872 81.7646 77.975 81.7646Z" fill="#EBEBF2"/>
<path d="M85.3019 46.5283H70.6483C69.4927 46.5283 68.5559 47.4651 68.5559 48.6207V76.7675C68.5559 77.9231 69.4927 78.8599 70.6483 78.8599H85.3019C86.4574 78.8599 87.3942 77.9231 87.3942 76.7675V48.6207C87.3942 47.4651 86.4574 46.5283 85.3019 46.5283Z" fill="#4B4BA0"/>
<path d="M87.3942 48.7783H68.5559V76.4756H87.3942V48.7783Z" fill="url(#paint5_linear_30_9727)"/>
<path d="M82.6661 55.9102H73.2869C72.1314 55.9102 71.1946 56.8469 71.1946 58.0025V67.3817C71.1946 68.5372 72.1314 69.474 73.2869 69.474H82.6661C83.8217 69.474 84.7585 68.5372 84.7585 67.3817V58.0025C84.7585 56.8469 83.8217 55.9102 82.6661 55.9102Z" fill="url(#paint6_linear_30_9727)"/>
<path d="M77.9775 67.8874C76.95 67.8879 75.9454 67.5835 75.0908 67.0129C74.2362 66.4424 73.5701 65.6311 73.1766 64.6819C72.7832 63.7326 72.6801 62.688 72.8805 61.6802C73.0808 60.6723 73.5756 59.7465 74.3022 59.02C75.0288 58.2934 75.9545 57.7986 76.9624 57.5982C77.9702 57.3979 79.0148 57.5009 79.9641 57.8944C80.9133 58.2878 81.7246 58.954 82.2952 59.8086C82.8658 60.6631 83.1701 61.6678 83.1696 62.6953C83.1677 64.0718 82.6201 65.3913 81.6468 66.3646C80.6735 67.3379 79.354 67.8855 77.9775 67.8874ZM77.9775 58.4612C77.1396 58.4612 76.3206 58.7096 75.6239 59.1751C74.9272 59.6407 74.3842 60.3023 74.0635 61.0764C73.7429 61.8505 73.659 62.7024 73.8224 63.5242C73.9859 64.346 74.3894 65.1008 74.9819 65.6933C75.5744 66.2858 76.3292 66.6893 77.151 66.8528C77.9728 67.0162 78.8247 66.9323 79.5988 66.6117C80.3729 66.291 81.0346 65.748 81.5001 65.0513C81.9656 64.3547 82.214 63.5356 82.214 62.6977C82.214 61.5741 81.7677 60.4965 80.9732 59.702C80.1787 58.9075 79.1011 58.4612 77.9775 58.4612Z" fill="white"/>
<path d="M77.6009 64.6679L75.7839 63.0698L76.5465 62.206L77.4927 63.0392L79.3002 60.9751L80.1664 61.7306L77.6009 64.6679Z" fill="white"/>
<path d="M80.3384 49.8776H75.6147C75.4416 49.8776 75.2702 49.8435 75.1103 49.7773C74.9504 49.711 74.8051 49.6139 74.6827 49.4915C74.5603 49.3692 74.4632 49.2239 74.397 49.064C74.3307 48.904 74.2966 48.7327 74.2966 48.5596H81.6564C81.6564 48.9091 81.5175 49.2444 81.2703 49.4915C81.0232 49.7387 80.6879 49.8776 80.3384 49.8776Z" fill="#4B4BA0"/>
<path opacity="0.15" d="M79.6794 48.7809H76.2737C76.2155 48.7809 76.1595 48.758 76.1181 48.717C76.0767 48.676 76.0531 48.6203 76.0525 48.5621C76.0525 48.5034 76.0758 48.4471 76.1173 48.4056C76.1588 48.3641 76.215 48.3408 76.2737 48.3408H79.6794C79.7381 48.3408 79.7944 48.3641 79.8358 48.4056C79.8773 48.4471 79.9006 48.5034 79.9006 48.5621C79.9 48.6203 79.8764 48.676 79.835 48.717C79.7936 48.758 79.7377 48.7809 79.6794 48.7809Z" fill="white"/>
<path d="M64.143 18.6077H27.1042C25.9486 18.6077 25.0118 19.5444 25.0118 20.7V43.0947C25.0118 44.2502 25.9486 45.187 27.1042 45.187H64.143C65.2986 45.187 66.2354 44.2502 66.2354 43.0947V20.7C66.2354 19.5444 65.2986 18.6077 64.143 18.6077Z" fill="url(#paint7_linear_30_9727)"/>
<path d="M64.143 20.7H27.1042V43.0946H64.143V20.7Z" fill="#3D3D89"/>
<path d="M34.9065 23.6914H31.0536V24.2116H34.9065V23.6914Z" fill="#FFC700"/>
<path d="M44.0101 23.6914H36.1255V24.2116H44.0101V23.6914Z" fill="#FFC700"/>
<path d="M36.5422 25.8003H32.6893V26.3204H36.5422V25.8003Z" fill="white"/>
<path d="M60.2903 25.8003H37.7615V26.3204H60.2903V25.8003Z" fill="#1E9AFF"/>
<path d="M36.5422 27.7583H32.6893V28.2784H36.5422V27.7583Z" fill="white"/>
<path d="M60.2903 27.7583H37.7615V28.2784H60.2903V27.7583Z" fill="#1E9AFF"/>
<path d="M36.5422 29.7166H32.6893V30.2367H36.5422V29.7166Z" fill="white"/>
<path d="M60.2903 29.7166H37.7615V30.2367H60.2903V29.7166Z" fill="#1E9AFF"/>
<path d="M36.5422 31.6726H32.6893V32.1928H36.5422V31.6726Z" fill="white"/>
<path d="M34.9065 33.7437H31.0536V34.2638H34.9065V33.7437Z" fill="#FFC700"/>
<path d="M44.0101 33.7437H36.1255V34.2638H44.0101V33.7437Z" fill="#FFC700"/>
<path d="M52.288 35.8525H37.7615V36.3727H52.288V35.8525Z" fill="white"/>
<path d="M52.288 37.8108H37.7615V38.3309H52.288V37.8108Z" fill="white"/>
<path d="M36.5399 37.8108H35.2618V38.3309H36.5399V37.8108Z" fill="#1E9AFF"/>
<path d="M36.5422 39.769H32.6893V40.2892H36.5422V39.769Z" fill="#1E9AFF"/>
<path d="M52.288 39.769H37.7615V40.2892H52.288V39.769Z" fill="white"/>
<path d="M60.4549 35.8525H53.3352V36.3727H60.4549V35.8525Z" fill="white"/>
<path d="M60.4549 37.8108H53.3352V38.3309H60.4549V37.8108Z" fill="white"/>
<path d="M60.4549 39.769H53.3352V40.2892H60.4549V39.769Z" fill="white"/>
<path d="M60.2903 31.6726H37.7615V32.1928H60.2903V31.6726Z" fill="#1E9AFF"/>
<path d="M18.2901 29.0671H6.35493C5.19936 29.0671 4.26257 30.0039 4.26257 31.1595V43.0947C4.26257 44.2502 5.19936 45.187 6.35493 45.187H18.2901C19.4457 45.187 20.3825 44.2502 20.3825 43.0947V31.1595C20.3825 30.0039 19.4457 29.0671 18.2901 29.0671Z" fill="url(#paint8_linear_30_9727)"/>
<path d="M16.0375 37.1118C16.0376 36.862 16.0124 36.6128 15.9622 36.368L17.2096 35.6478L16.0328 33.6284L14.7901 34.3345C14.4114 33.9935 13.9657 33.7354 13.4815 33.5766V32.1692H11.1561V33.6002C10.9403 33.6709 10.7315 33.7615 10.5324 33.8709L10.4618 33.9109L10.3912 33.9532C10.1961 34.0706 10.0124 34.2062 9.84279 34.358L8.60478 33.652L7.42798 35.6714L8.66833 36.3774C8.62159 36.6005 8.59559 36.8274 8.59066 37.0553V37.2153C8.59546 37.4432 8.62146 37.6701 8.66833 37.8932L7.42798 38.5993L8.60478 40.621L9.84279 39.9149C10.2249 40.2531 10.6717 40.5102 11.1561 40.6704V42.1038H13.4909V40.6657C13.7273 40.5859 13.9552 40.4826 14.1711 40.3574C14.393 40.2291 14.6012 40.0785 14.7924 39.9079L16.0422 40.6304L17.219 38.6087L15.9692 37.8885C16.0192 37.6327 16.0421 37.3724 16.0375 37.1118ZM13.851 38.7593L13.8204 38.7852C13.7804 38.8229 13.738 38.8558 13.6956 38.8888L13.6368 38.9358C13.6015 38.9594 13.5662 38.9853 13.5285 39.0064C13.4909 39.0276 13.4721 39.0441 13.4415 39.0606L13.352 39.11L13.2343 39.1665L13.1661 39.1947C13.1167 39.2159 13.0649 39.2347 13.0131 39.2512H12.9754C12.7643 39.3164 12.5445 39.3498 12.3235 39.3501C11.7292 39.3494 11.1593 39.1137 10.7381 38.6944C10.317 38.275 10.0789 37.7061 10.0758 37.1118C10.0755 36.8176 10.1339 36.5264 10.2476 36.2551L10.2617 36.2174C10.2829 36.1703 10.3064 36.1256 10.3276 36.0809L10.3747 35.9962L10.4241 35.9138L10.5089 35.789L10.5347 35.7561C10.7134 35.5231 10.9366 35.3279 11.1914 35.1818C11.4951 35.0066 11.8356 34.9048 12.1857 34.8847C12.5358 34.8646 12.8857 34.9267 13.2075 35.0659C13.5293 35.2052 13.8141 35.4179 14.039 35.6869C14.2639 35.9559 14.4228 36.2738 14.5029 36.6152C14.5016 36.6285 14.5016 36.6419 14.5029 36.6552C14.5029 36.7093 14.5218 36.7611 14.5288 36.8152C14.5359 36.8694 14.5288 36.8646 14.5288 36.8905C14.5288 36.9164 14.5288 36.9753 14.5288 37.02C14.5288 37.0647 14.5288 37.0882 14.5288 37.1212C14.5288 37.1541 14.5288 37.1894 14.5288 37.2247C14.5288 37.2601 14.5288 37.3095 14.5288 37.3518C14.5301 37.3769 14.5301 37.4021 14.5288 37.4272C14.5288 37.4813 14.5124 37.5331 14.5029 37.5872C14.5018 37.6005 14.5018 37.6139 14.5029 37.6272C14.4547 37.8416 14.3754 38.0477 14.2676 38.2392C14.1557 38.4325 14.0152 38.6079 13.851 38.7593Z" fill="white"/>
<path d="M36.9047 48.8586H20.7872C19.6316 48.8586 18.6948 49.7954 18.6948 50.951V60.7938C18.6948 61.9494 19.6316 62.8862 20.7872 62.8862H36.9047C38.0603 62.8862 38.9971 61.9494 38.9971 60.7938V50.951C38.9971 49.7954 38.0603 48.8586 36.9047 48.8586Z" fill="url(#paint9_linear_30_9727)"/>
<path d="M25.911 52.563L22.0911 55.8722L25.911 59.179V57.3879L24.1599 55.8722L25.911 54.3564V52.563Z" fill="white"/>
<path d="M31.7832 59.179L35.6055 55.8722L31.7832 52.563V54.3564L33.5343 55.8722L31.7832 57.3879V59.179Z" fill="white"/>
<path d="M28.4787 60.2594H26.8594L29.2177 51.4851H30.8346L28.4787 60.2594Z" fill="white"/>
<path d="M91.1956 10.2898H72.9857C71.8301 10.2898 70.8933 11.2266 70.8933 12.3822V30.5921C70.8933 31.7476 71.8301 32.6844 72.9857 32.6844H91.1956C92.3512 32.6844 93.2879 31.7476 93.2879 30.5921V12.3822C93.2879 11.2266 92.3512 10.2898 91.1956 10.2898Z" fill="url(#paint10_linear_30_9727)"/>
<path d="M87.6414 17.3578C87.1948 17.3574 86.7536 17.4555 86.3492 17.645C86.0834 16.6973 85.5175 15.8613 84.7363 15.2626C83.9551 14.6638 83.0007 14.3346 82.0165 14.3242C81.0323 14.3139 80.0713 14.623 79.2776 15.2052C78.484 15.7874 77.9006 16.6113 77.615 17.5532C77.1551 17.3797 76.66 17.3205 76.1722 17.3808C75.6844 17.441 75.2185 17.6189 74.8147 17.8991C74.4108 18.1793 74.0811 18.5534 73.8539 18.9892C73.6267 19.425 73.5088 19.9095 73.5103 20.4011H90.6634C90.6659 19.5968 90.349 18.8245 89.7823 18.2539C89.2156 17.6833 88.4456 17.361 87.6414 17.3578Z" fill="white"/>
<path d="M78.9353 25.4966L82.0915 28.6528L85.2477 25.4966H83.12V21.7732H81.0606V25.4966H78.9353Z" fill="white"/>
<path d="M18.2901 9.27783H6.35493C5.19936 9.27783 4.26257 10.2146 4.26257 11.3702V23.3054C4.26257 24.4609 5.19936 25.3977 6.35493 25.3977H18.2901C19.4457 25.3977 20.3825 24.4609 20.3825 23.3054V11.3702C20.3825 10.2146 19.4457 9.27783 18.2901 9.27783Z" fill="url(#paint11_linear_30_9727)"/>
<path d="M18.4783 11.1819H6.1665V23.4936H18.4783V11.1819Z" fill="#3D3D89"/>
<path d="M9.38148 13.5779H8.24939V14.098H9.38148V13.5779Z" fill="white"/>
<path d="M15.7668 13.5779H9.97461V14.098H15.7668V13.5779Z" fill="#1E9AFF"/>
<path d="M10.0099 15.3267H8.24939V15.8468H10.0099V15.3267Z" fill="white"/>
<path d="M16.3953 15.3267H10.603V15.8468H16.3953V15.3267Z" fill="#1E9AFF"/>
<path d="M9.38148 18.6147H8.24939V19.1349H9.38148V18.6147Z" fill="white"/>
<path d="M15.7668 18.6147H9.97461V19.1349H15.7668V18.6147Z" fill="#1E9AFF"/>
<path d="M10.0099 20.3611H8.24939V20.8812H10.0099V20.3611Z" fill="white"/>
<path d="M16.3953 20.3611H10.603V20.8812H16.3953V20.3611Z" fill="#1E9AFF"/>
<path d="M8.96497 17.0752H7.20447V17.5953H8.96497V17.0752Z" fill="white"/>
<path d="M17.4404 17.0752H9.55579V17.5953H17.4404V17.0752Z" fill="#1E9AFF"/>
<g style="mix-blend-mode:multiply">
<path d="M52.987 48.4185H48.2656V53.1398H52.987V48.4185Z" fill="#A7C8FF"/>
</g>
<g style="mix-blend-mode:multiply">
<path d="M59.8451 48.4185H55.1238V53.1398H59.8451V48.4185Z" fill="#A7C8FF"/>
</g>
<g style="mix-blend-mode:multiply">
<path d="M66.7062 48.4185H61.9849V53.1398H66.7062V48.4185Z" fill="#A7C8FF"/>
</g>
<g style="mix-blend-mode:multiply">
<path d="M76.1089 35.5935H68.9893V36.1137H76.1089V35.5935Z" fill="#A7C8FF"/>
</g>
<g style="mix-blend-mode:multiply">
<path d="M76.1089 37.5496H68.9893V38.0697H76.1089V37.5496Z" fill="#A7C8FF"/>
</g>
<g style="mix-blend-mode:multiply">
<path d="M76.1089 39.5078H68.9893V40.028H76.1089V39.5078Z" fill="#A7C8FF"/>
</g>
<defs>
<linearGradient id="paint0_linear_30_9727" x1="40.8941" y1="63.8627" x2="54.7592" y2="77.7278" gradientUnits="userSpaceOnUse">
<stop offset="0.23" stop-color="#A7C8FF"/>
<stop offset="0.45" stop-color="#ABCBFF"/>
<stop offset="0.67" stop-color="#B7D3FF"/>
<stop offset="0.89" stop-color="#CBE0FF"/>
<stop offset="1" stop-color="#D8E9FF"/>
</linearGradient>
<linearGradient id="paint1_linear_30_9727" x1="22.364" y1="24.1101" x2="73.2891" y2="75.0352" gradientUnits="userSpaceOnUse">
<stop stop-color="#D8E9FF"/>
<stop offset="1" stop-color="#A7C8FF"/>
</linearGradient>
<linearGradient id="paint2_linear_30_9727" x1="24.6024" y1="17.8827" x2="71.1687" y2="64.4489" gradientUnits="userSpaceOnUse">
<stop stop-color="#562BFF"/>
<stop offset="1" stop-color="#7DA5FF"/>
</linearGradient>
<linearGradient id="paint3_linear_30_9727" x1="46.4462" y1="62.9613" x2="49.2093" y2="65.7245" gradientUnits="userSpaceOnUse">
<stop stop-color="#A7C8FF"/>
<stop offset="1" stop-color="#D8E9FF"/>
</linearGradient>
<linearGradient id="paint4_linear_30_9727" x1="39.6631" y1="65.6232" x2="55.9925" y2="81.9526" gradientUnits="userSpaceOnUse">
<stop stop-color="#A7C8FF"/>
<stop offset="1" stop-color="#73ABFF"/>
</linearGradient>
<linearGradient id="paint5_linear_30_9727" x1="66.3412" y1="50.9954" x2="89.609" y2="74.2632" gradientUnits="userSpaceOnUse">
<stop stop-color="#562BFF"/>
<stop offset="1" stop-color="#7DA5FF"/>
</linearGradient>
<linearGradient id="paint6_linear_30_9727" x1="71.8065" y1="56.5244" x2="84.1465" y2="68.8644" gradientUnits="userSpaceOnUse">
<stop stop-color="#35FFFF" stop-opacity="0.5"/>
<stop offset="1" stop-color="#35E6BB"/>
</linearGradient>
<linearGradient id="paint7_linear_30_9727" x1="29.286" y1="15.5597" x2="61.9612" y2="48.2349" gradientUnits="userSpaceOnUse">
<stop stop-color="#35C9E2" stop-opacity="0.5"/>
<stop offset="1" stop-color="#35E6BB"/>
</linearGradient>
<linearGradient id="paint8_linear_30_9727" x1="4.87687" y1="29.6814" x2="19.7705" y2="44.5751" gradientUnits="userSpaceOnUse">
<stop stop-color="#35C9E2" stop-opacity="0.5"/>
<stop offset="1" stop-color="#35E6BB"/>
</linearGradient>
<linearGradient id="paint9_linear_30_9727" x1="20.8766" y1="47.9031" x2="36.8176" y2="63.8417" gradientUnits="userSpaceOnUse">
<stop stop-color="#35C9E2" stop-opacity="0.5"/>
<stop offset="1" stop-color="#35E6BB"/>
</linearGradient>
<linearGradient id="paint10_linear_30_9727" x1="71.5076" y1="10.9041" x2="92.676" y2="32.0725" gradientUnits="userSpaceOnUse">
<stop stop-color="#35C9E2" stop-opacity="0.5"/>
<stop offset="1" stop-color="#35E6BB"/>
</linearGradient>
<linearGradient id="paint11_linear_30_9727" x1="4.87687" y1="9.88977" x2="19.7705" y2="24.7834" gradientUnits="userSpaceOnUse">
<stop stop-color="#35C9E2" stop-opacity="0.5"/>
<stop offset="1" stop-color="#35E6BB"/>
</linearGradient>
</defs>
</svg>
