<svg width="107" height="62" viewBox="0 0 107 62" fill="none" xmlns="http://www.w3.org/2000/svg">
<path d="M11.9896 61.1277C-1.58451 42.5508 4.9914 17.8884 13.4889 12.085C25.8223 3.6651 34.2222 13.4427 47.0019 13.4292C60.7417 13.4143 59.4879 -1.18728 78.6979 0.243163C97.4088 1.63611 104.665 20.8956 105.642 35.238C106.638 49.8556 103.405 57.7837 101.47 61.1277H11.9896Z" fill="#FEEFDC"/>
<g style="mix-blend-mode:multiply">
<path d="M78.975 27.1965C79.2981 26.6764 79.534 26.107 79.6733 25.5108L81.1442 25.2399V23.1949L79.6733 22.924C79.5339 22.3279 79.2981 21.7585 78.975 21.2384L79.8237 20.0067L79.1006 19.2837L78.3776 18.5606L77.1459 19.4093C76.6258 19.0863 76.0564 18.8505 75.4603 18.711L75.1894 17.2401H73.1462L72.8753 18.711C72.2792 18.8505 71.7098 19.0863 71.1897 19.4093L69.958 18.5606L69.235 19.2837L68.5119 20.0067L69.3598 21.2384C69.0368 21.7585 68.8009 22.3279 68.6615 22.924L67.1907 23.1949V25.2399L68.6615 25.5112C68.8009 26.1072 69.0368 26.6765 69.3598 27.1965L68.5112 28.4281L69.2342 29.1512L69.9573 29.8742L71.1889 29.0259C71.7091 29.3489 72.2785 29.5847 72.8746 29.7242L73.1455 31.1947H75.1905L75.4614 29.7242C76.0575 29.5847 76.6269 29.3489 77.147 29.0259L78.3787 29.8742L79.1017 29.1512L79.8248 28.4281L78.975 27.1965ZM71.4544 26.93C70.9178 26.3935 70.5523 25.7099 70.4042 24.9657C70.2561 24.2216 70.3321 23.4502 70.6224 22.7491C70.9127 22.0481 71.4044 21.4489 72.0353 21.0274C72.6662 20.6058 73.4079 20.3808 74.1667 20.3808C74.9255 20.3808 75.6672 20.6058 76.2981 21.0274C76.929 21.4489 77.4207 22.0481 77.711 22.7491C78.0014 23.4502 78.0773 24.2216 77.9292 24.9657C77.7811 25.7099 77.4157 26.3935 76.8791 26.93C76.1597 27.6493 75.184 28.0534 74.1667 28.0534C73.1494 28.0534 72.1737 27.6493 71.4544 26.93Z" fill="#FEEFDC"/>
</g>
<g style="mix-blend-mode:multiply">
<path d="M25.872 55.1767C26.1106 54.7923 26.2848 54.3716 26.3879 53.9312L27.4746 53.7309V52.22L26.3879 52.0198C26.2849 51.5793 26.1106 51.1586 25.872 50.7743L26.4989 49.8641L25.9648 49.33L25.4304 48.7955L24.5202 49.4228C24.1359 49.184 23.7152 49.0096 23.2747 48.9066L23.0744 47.8198H21.5635L21.3633 48.9066C20.9227 49.0095 20.502 49.1839 20.1178 49.4228L19.2076 48.7959L18.6739 49.33L18.1394 49.8641L18.7664 50.7743C18.5278 51.1586 18.3535 51.5793 18.2505 52.0198L17.1637 52.22V53.7309L18.2505 53.9312C18.3535 54.3716 18.5278 54.7923 18.7664 55.1767L18.1394 56.0869L18.6739 56.6213L19.208 57.1554L20.1182 56.5285C20.5025 56.7671 20.9232 56.9414 21.3637 57.0444L21.5639 58.1311H23.0748L23.275 57.0444C23.7155 56.9413 24.1362 56.7671 24.5205 56.5285L25.4307 57.1554L25.9652 56.6213L26.4993 56.0869L25.872 55.1767ZM20.3151 54.9797C19.9188 54.5833 19.6488 54.0783 19.5395 53.5285C19.4301 52.9787 19.4863 52.4088 19.7008 51.8909C19.9153 51.373 20.2786 50.9304 20.7447 50.6189C21.2108 50.3075 21.7588 50.1413 22.3194 50.1413C22.8799 50.1413 23.4279 50.3075 23.894 50.6189C24.3601 50.9304 24.7234 51.373 24.9379 51.8909C25.1524 52.4088 25.2086 52.9787 25.0992 53.5285C24.9899 54.0783 24.72 54.5833 24.3236 54.9797C24.0604 55.243 23.748 55.4518 23.4041 55.5943C23.0602 55.7367 22.6916 55.8101 22.3194 55.8101C21.9471 55.8101 21.5785 55.7367 21.2346 55.5943C20.8907 55.4518 20.5783 55.243 20.3151 54.9797Z" fill="#FEEFDC"/>
</g>
<g style="mix-blend-mode:multiply">
<path d="M16.8085 18.0017C16.4384 18.597 16.1679 19.2488 16.0076 19.9313L14.3219 20.2418V22.5857L16.0083 22.8981C16.1684 23.5813 16.4389 24.2338 16.8093 24.8299L15.8368 26.2414L16.6654 27.07L17.4941 27.8987L18.9056 26.9266C19.5017 27.2968 20.1542 27.5674 20.8374 27.7276L21.1479 29.4129H23.4918L23.802 27.7276C24.4852 27.5674 25.1377 27.2969 25.7338 26.9266L27.1453 27.8987L27.974 27.07L28.8019 26.241L27.8294 24.8295C28.1999 24.2335 28.4704 23.581 28.6304 22.8977L30.3157 22.5876V20.2436L28.6304 19.9331C28.4704 19.2498 28.1998 18.5973 27.8294 18.0013L28.8019 16.5898L27.9732 15.7623L27.1446 14.9336L25.7331 15.9061C25.137 15.5358 24.4845 15.2652 23.8013 15.1051L23.4911 13.4194H21.1472L20.8366 15.1051C20.1535 15.2653 19.501 15.5358 18.9049 15.9061L17.4934 14.9336L16.6647 15.7623L15.8361 16.5909L16.8085 18.0017ZM25.428 18.3068C26.0429 18.9216 26.4616 19.705 26.6312 20.5579C26.8009 21.4107 26.7138 22.2947 26.3811 23.0981C26.0483 23.9015 25.4848 24.5881 24.7618 25.0712C24.0387 25.5543 23.1887 25.8122 22.3192 25.8122C21.4496 25.8122 20.5996 25.5543 19.8766 25.0712C19.1535 24.5881 18.59 23.9015 18.2573 23.0981C17.9245 22.2947 17.8374 21.4107 18.0071 20.5579C18.1767 19.705 18.5955 18.9216 19.2103 18.3068C20.0349 17.4824 21.1532 17.0194 22.3192 17.0194C23.4851 17.0194 24.6034 17.4824 25.428 18.3068Z" fill="#FEEFDC"/>
</g>
<path d="M86.4115 21.2431C87.9042 21.1641 93.0231 20.9482 96.523 21.4674C96.977 21.5343 97.266 20.9904 96.9518 20.6558C96.7698 20.46 96.4549 20.3005 95.9281 20.2637C95.9281 20.2637 96.1101 16.9965 93.6413 16.7799C90.811 16.532 90.7768 19.7416 90.7768 19.7416C90.7768 19.7416 89.4901 18.5205 88.5621 20.0693C88.5621 20.0693 86.9602 19.1424 86.1497 20.8542C86.1298 20.897 86.1212 20.9442 86.1248 20.9912C86.1285 21.0383 86.1443 21.0836 86.1706 21.1227C86.197 21.1619 86.233 21.1935 86.2752 21.2146C86.3174 21.2357 86.3644 21.2455 86.4115 21.2431Z" fill="white"/>
<path d="M78.8014 6.39622C78.133 6.358 76.566 6.29101 75.2036 6.40605C75.0703 6.41765 74.9361 6.40111 74.8096 6.35751C74.6831 6.31391 74.5671 6.24422 74.4693 6.15295C74.3714 6.06169 74.2938 5.95088 74.2415 5.82772C74.1892 5.70455 74.1634 5.57177 74.1657 5.43798C74.1708 5.20643 74.2538 4.93701 74.4686 4.63228C75.2958 3.45742 76.7335 4.57913 76.7196 5.17548C76.7196 5.17548 77.0109 4.27767 77.8931 4.43496C78.7752 4.59224 78.4636 5.89781 78.4636 5.89781C78.4636 5.89781 78.7486 5.83773 78.946 5.97244C78.9877 6.00122 79.0188 6.04283 79.0347 6.09095C79.0506 6.13906 79.0504 6.19105 79.034 6.23901C79.0176 6.28697 78.9861 6.32828 78.9441 6.35665C78.9021 6.38503 78.852 6.39892 78.8014 6.39622Z" fill="white"/>
<path d="M52.6467 42.1479H43.74V60.8082H52.6467V42.1479Z" fill="#34629B"/>
<path d="M75.0172 48.9295V23.3678C75.0171 22.7847 74.7854 22.2255 74.3731 21.8131C73.9608 21.4008 73.4017 21.169 72.8185 21.1688H23.2553C22.672 21.1688 22.1127 21.4005 21.7002 21.8129C21.2878 22.2253 21.056 22.7846 21.0559 23.3678V48.9295H75.0172Z" fill="#34629B"/>
<path d="M21.0559 48.9294V53.0256C21.0559 53.8776 21.6191 54.5682 22.3138 54.5682H73.7593C74.454 54.5682 75.0172 53.8765 75.0172 53.0256V48.9294H21.0559Z" fill="#5780BC"/>
<path d="M73.7538 47.8202V23.4363C73.7538 22.797 73.2172 22.2789 72.5549 22.2789H23.5181C22.8559 22.2789 22.3192 22.797 22.3192 23.4363V47.8202H73.7538Z" fill="#DCF4FF"/>
<path d="M60.2412 61.3405C60.3927 60.4587 59.8003 59.7437 58.9182 59.7437H37.4837C36.6019 59.7437 35.7645 60.4587 35.613 61.3405H60.2412Z" fill="#5780BC"/>
<path d="M73.7593 54.6334H22.3141C21.586 54.6334 20.9915 53.9126 20.9915 53.0264V23.3678C20.9921 22.7677 21.2309 22.1923 21.6553 21.7679C22.0797 21.3436 22.6551 21.1049 23.2553 21.1044V21.2333C22.6892 21.2337 22.1465 21.4588 21.7462 21.8589C21.3459 22.2591 21.1206 22.8018 21.12 23.3678V53.0264C21.12 53.8416 21.6555 54.5046 22.3138 54.5046H73.7575L73.7593 54.6334Z" fill="#21111D"/>
<path d="M99.2102 39.77C100.601 38.3788 100.601 36.1232 99.2102 34.7319C97.819 33.3407 95.5633 33.3407 94.1721 34.7319C92.7809 36.1232 92.7809 38.3788 94.1721 39.77C95.5634 41.1613 97.819 41.1613 99.2102 39.77Z" fill="white"/>
<path d="M95.6332 38.8672L94.7507 36.7417C94.7331 36.694 94.7346 36.6412 94.755 36.5945C94.7754 36.5479 94.813 36.5109 94.8601 36.4913C94.9071 36.4718 94.9598 36.4712 95.0073 36.4896C95.0548 36.508 95.0933 36.5441 95.1148 36.5903L95.7963 38.2323L99.073 35.6186C99.114 35.5874 99.1656 35.5735 99.2167 35.5799C99.2678 35.5862 99.3144 35.6123 99.3466 35.6526C99.3787 35.6929 99.3938 35.7441 99.3887 35.7954C99.3836 35.8466 99.3586 35.8939 99.3191 35.9269L95.6332 38.8672Z" fill="#5AB3BF"/>
<path d="M9.94893 40.3893C10.0024 38.3625 8.40269 36.6763 6.37598 36.6228C4.34927 36.5694 2.66298 38.1691 2.60955 40.1958C2.55613 42.2225 4.1558 43.9088 6.18251 43.9622C8.20922 44.0156 9.8955 42.416 9.94893 40.3893Z" fill="#FEC786"/>
<path d="M9.49956 41.0974C9.94161 39.3192 8.8584 37.5193 7.08014 37.0772C5.30189 36.6352 3.50198 37.7184 3.05992 39.4966C2.61787 41.2749 3.70108 43.0748 5.47934 43.5168C7.25759 43.9589 9.05751 42.8757 9.49956 41.0974Z" fill="white"/>
<path d="M7.38481 37.8588C5.94817 39.7305 6.28894 40.3064 6.28894 40.3064C7.08991 40.001 7.38481 37.8588 7.38481 37.8588Z" fill="#FEC786"/>
<path d="M4.53198 39.9077C4.53198 39.9077 6.07566 39.9234 6.364 40.4629C6.364 40.4629 5.98682 40.756 4.53198 39.9077Z" fill="#FEC786"/>
<path d="M6.4659 40.3624C6.47703 40.3274 6.47753 40.2899 6.46731 40.2546C6.4571 40.2193 6.43664 40.1878 6.40853 40.1641C6.38041 40.1404 6.34591 40.1257 6.30938 40.1216C6.27286 40.1176 6.23595 40.1245 6.20334 40.1414C6.17073 40.1583 6.14388 40.1846 6.1262 40.2168C6.10851 40.249 6.10078 40.2857 6.10398 40.3223C6.10718 40.359 6.12118 40.3938 6.14419 40.4224C6.1672 40.4511 6.1982 40.4723 6.23326 40.4833C6.28014 40.498 6.33095 40.4936 6.37456 40.4709C6.41816 40.4483 6.45101 40.4092 6.4659 40.3624Z" fill="#EFA04B"/>
<path d="M4.67748 37.5612L4.62671 37.5945L5.02879 38.2086L5.07956 38.1753L4.67748 37.5612Z" fill="#EFA04B"/>
<path d="M7.72175 42.4397L7.67114 42.4728L8.0707 43.085L8.12131 43.052L7.72175 42.4397Z" fill="#EFA04B"/>
<path d="M9.24263 38.5051L8.62854 38.9072L8.66178 38.958L9.27587 38.5559L9.24263 38.5051Z" fill="#EFA04B"/>
<path d="M4.09915 41.6797L3.48694 42.0792L3.51997 42.1298L4.13218 41.7303L4.09915 41.6797Z" fill="#EFA04B"/>
<path d="M6.93322 37.0373L6.85803 37.395L6.91718 37.4075L6.99236 37.0497L6.93322 37.0373Z" fill="#EFA04B"/>
<path d="M5.64306 43.1729L5.56787 43.5306L5.62702 43.5431L5.7022 43.1854L5.64306 43.1729Z" fill="#EFA04B"/>
<path d="M8.68679 42.0019L8.65125 42.0508L8.94685 42.2658L8.9824 42.2169L8.68679 42.0019Z" fill="#EFA04B"/>
<path d="M3.61416 38.3198L3.57861 38.3687L3.87422 38.5837L3.90977 38.5348L3.61416 38.3198Z" fill="#EFA04B"/>
<path d="M6.76807 43.2059L6.70837 43.2153L6.76537 43.5764L6.82506 43.567L6.76807 43.2059Z" fill="#EFA04B"/>
<path d="M5.79114 37.0122L5.73145 37.0216L5.78844 37.3827L5.84813 37.3732L5.79114 37.0122Z" fill="#EFA04B"/>
<path d="M4.51884 42.6651L4.30383 42.9607L4.35271 42.9962L4.56772 42.7006L4.51884 42.6651Z" fill="#EFA04B"/>
<path d="M8.20695 37.594L7.99194 37.8896L8.04082 37.9252L8.25583 37.6296L8.20695 37.594Z" fill="#EFA04B"/>
<path d="M3.36349 40.722L3.00244 40.7791L3.01188 40.8387L3.37293 40.7817L3.36349 40.722Z" fill="#EFA04B"/>
<path d="M9.55015 39.7468L9.18909 39.8038L9.19851 39.8635L9.55957 39.8065L9.55015 39.7468Z" fill="#EFA04B"/>
<path d="M3.05236 39.5287L3.03894 39.5876L3.39534 39.6688L3.40876 39.6099L3.05236 39.5287Z" fill="#EFA04B"/>
<path d="M9.16528 40.9184L9.15186 40.9773L9.50826 41.0585L9.52168 40.9995L9.16528 40.9184Z" fill="#EFA04B"/>
<path d="M6.93413 30.0052C5.58342 27.1706 9.56675 24.9628 11.2164 27.7844C12.5671 30.6187 8.58375 32.8265 6.93413 30.0052Z" fill="#7FC6A6"/>
<path d="M9.78447 28.1554C9.69272 27.9228 10.0087 27.8114 10.1023 27.993C10.1941 28.2257 9.8784 28.3371 9.78447 28.1554Z" fill="#4C222E"/>
<path d="M7.78021 29.1967C7.68846 28.964 8.00412 28.8526 8.09768 29.0343C8.18943 29.2655 7.87378 29.3787 7.78021 29.1967Z" fill="#4C222E"/>
<path d="M8.47852 29.7753L10.1915 28.7744C10.5388 29.8124 9.08543 30.5074 8.47852 29.7753Z" fill="white"/>
<path d="M80.6235 11.0446C83.2197 6.56361 89.8979 9.93531 87.6159 14.7717C85.0197 19.2527 78.3414 15.881 80.6235 11.0446Z" fill="#FEC786"/>
<path d="M85.7796 13.18C85.9923 12.8501 86.4586 13.1359 86.2952 13.4589C86.0836 13.7887 85.6169 13.5025 85.7796 13.18Z" fill="#4C222E"/>
<path d="M82.5072 11.4353C82.7198 11.1055 83.1866 11.3913 83.0231 11.7142C82.8101 12.0441 82.3438 11.7576 82.5072 11.4353Z" fill="#4C222E"/>
<path d="M81.8877 12.5978L85.5805 14.566C84.1315 16.3143 81.2538 14.5489 81.8877 12.5978Z" fill="white"/>
<path d="M87.4853 42.5054C88.3525 42.2371 88.5557 43.1673 88.5921 43.3989C88.7625 43.2379 89.491 42.6245 90.0142 43.3665C90.7168 44.3626 88.7399 45.7264 87.707 46.0002C87.0539 45.1526 86.321 42.8662 87.4853 42.5054Z" fill="#4CB7D8"/>
<path d="M14.0006 44.6178C14.8441 44.2821 15.1194 45.1941 15.174 45.4217C15.3309 45.248 16.0092 44.5796 16.5892 45.2782C17.3675 46.2165 15.5035 47.7306 14.495 48.0842C13.7785 47.2912 12.868 45.0704 14.0006 44.6178Z" fill="#F7597F"/>
<path d="M79.5153 33.4058C79.3846 33.2831 78.8265 32.8167 78.4289 33.3847C77.8944 34.1492 79.4082 35.1843 80.1979 35.3907C80.6934 34.7419 81.2486 32.9933 80.3581 32.721C79.6951 32.5174 79.5426 33.2288 79.5153 33.4058Z" fill="#F7597F"/>
<path d="M87.5867 2.30541L87.0858 1.28528L86.5808 2.30359L85.4558 2.46452L86.2681 3.25965L86.074 4.37918L87.081 3.85237L88.0859 4.38319L87.8958 3.26257L88.7114 2.47107L87.5867 2.30541Z" fill="#F7597F"/>
<path d="M106.206 37.4925L105.942 36.7101L105.482 37.3953L104.656 37.4044L105.165 38.0542L104.919 38.8421L105.694 38.5585L106.368 39.0365L106.337 38.2115L107 37.7189L106.206 37.4925Z" fill="#7FC6A6"/>
<path d="M79.1338 43.2736L79.531 43.9166L79.7993 43.2099L80.5336 43.0308L79.9445 42.5571L80.001 41.8035L79.3686 42.2171L78.6692 41.9309L78.8672 42.6601L78.3787 43.2368L79.1338 43.2736Z" fill="#4CB7D8"/>
<path d="M52.8151 38.3463L52.7973 39.5783L52.7456 43.0953L52.7252 44.4817H44.476C44.4203 43.1561 44.3762 42.006 44.3427 41.0903C44.3238 40.5668 44.3063 40.1193 44.2958 39.7574C44.2853 39.4471 44.3718 39.1413 44.5433 38.8825C44.7148 38.6237 44.9627 38.4248 45.2526 38.3135L48.8933 36.9155L50.8229 36.1742C51.712 35.8323 52.4827 36.4207 52.6276 37.3622L52.4871 37.5963C52.4998 37.6797 52.8162 38.2622 52.8151 38.3463Z" fill="#33192C"/>
<path d="M49.7478 34.4347L48.893 36.9151L47.488 40.9928L46.9262 42.6227L46.6018 44.4795H38.1837C38.2136 43.9535 38.2399 43.4517 38.2627 42.9741C38.3286 41.6295 38.3698 40.4911 38.3952 39.6246C38.4317 38.4337 38.436 37.7536 38.436 37.7536L49.7478 34.4347Z" fill="#49263E"/>
<path d="M102.206 24.1735L103.273 25.8996L103.994 24.0024L105.966 23.5203L104.384 22.2486L104.535 20.2244L102.837 21.3359L100.958 20.5666L101.491 22.5253L100.178 24.0741L102.206 24.1735Z" fill="#4CB7D8"/>
<path d="M15.0625 36.6391L15.6953 37.6621L16.1223 36.5375L17.2907 36.2521L16.3535 35.4985L16.4427 34.2988L15.4364 34.9574L14.3235 34.5016L14.6384 35.6623L13.8611 36.5801L15.0625 36.6391Z" fill="#4CB7D8"/>
<path d="M94.2313 25.0197L94.1493 25.4908L94.5731 25.269L94.9962 25.4926L94.9165 25.0208L95.2598 24.6876L94.7861 24.6177L94.5753 24.1885L94.3627 24.617L93.8894 24.6851L94.2313 25.0197Z" fill="#F7597F"/>
<path d="M10.9642 23.3505L10.8823 23.8219L11.306 23.6002L11.7291 23.8234L11.6494 23.3519L11.9923 23.0188L11.519 22.9489L11.3082 22.5193L11.0956 22.9482L10.6219 23.0159L10.9642 23.3505Z" fill="#F7597F"/>
<path d="M99.0814 52.978L98.8808 54.1347L99.9209 53.5904L100.959 54.1391L100.763 52.9813L101.605 52.1636L100.444 51.9925L99.926 50.9385L99.4047 51.9903L98.2422 52.157L99.0814 52.978Z" fill="#FBC758"/>
<path d="M8.60808 17.5907L8.86621 18.3629L9.32239 17.6882L10.1365 17.6813L9.63586 17.0391L9.88088 16.2625L9.1156 16.5403L8.45262 16.0674L8.48029 16.8811L7.82568 17.3653L8.60808 17.5907Z" fill="#FBC758"/>
<g opacity="0.5">
<path d="M73.7593 44.4816H22.3192V47.8198H73.7593V44.4816Z" fill="#5780BC"/>
</g>
<path d="M25.5712 46.1509L24.7677 46.9544V45.3478L25.5712 46.1509Z" fill="white"/>
<path d="M29.0357 46.1509L28.2322 46.9544V45.3478L29.0357 46.1509Z" fill="white"/>
<path d="M29.603 45.3473H29.3663V46.954H29.603V45.3473Z" fill="white"/>
<path d="M32.4216 45.3478L32.0477 45.7217H31.6184V46.5802H32.0477L32.4216 46.9544V45.3478Z" fill="white"/>
<path d="M73.1516 45.911H34.2269V46.3909H73.1516V45.911Z" fill="#DCF4FF"/>
<path d="M57.0278 45.911H34.2269V46.3909H57.0278V45.911Z" fill="#F7597F"/>
<path d="M57.0282 46.7902C57.3813 46.7902 57.6675 46.504 57.6675 46.1509C57.6675 45.7978 57.3813 45.5116 57.0282 45.5116C56.6751 45.5116 56.3889 45.7978 56.3889 46.1509C56.3889 46.504 56.6751 46.7902 57.0282 46.7902Z" fill="white"/>
<path d="M76.5166 45.2654H74.4082V50.7818H76.5166V45.2654Z" fill="#223749"/>
<path d="M93.1253 50.1141H74.52V61.3404H93.1253V50.1141Z" fill="#2D5370"/>
<path d="M86.4419 32.5787L72.4663 46.5543L74.5534 48.6414L88.529 34.6658L86.4419 32.5787Z" fill="white"/>
<path d="M74.9227 44.0858L76.1485 47.0341L74.7512 48.4314L73.5254 45.4835L74.9227 44.0858Z" fill="#2D5370"/>
<path d="M77.718 41.2905L78.9438 44.2388L77.5461 45.6365L76.3203 42.6882L77.718 41.2905Z" fill="#2D5370"/>
<path d="M80.513 38.4955L81.7389 41.4438L80.3412 42.8411L79.1157 39.8932L80.513 38.4955Z" fill="#2D5370"/>
<path d="M83.3083 35.7004L84.5342 38.6484L83.1365 40.046L81.9106 37.0978L83.3083 35.7004Z" fill="#2D5370"/>
<path d="M86.1032 32.9052L87.3291 35.8534L85.9314 37.2511L84.7056 34.3028L86.1032 32.9052Z" fill="#2D5370"/>
<path d="M73.8796 47.1463C74.0935 47.1463 74.2669 46.9729 74.2669 46.759C74.2669 46.545 74.0935 46.3716 73.8796 46.3716C73.6656 46.3716 73.4922 46.545 73.4922 46.759C73.4922 46.9729 73.6656 47.1463 73.8796 47.1463Z" fill="#1D1D1B"/>
<g opacity="0.5">
<path d="M91.6038 54.2079H75.9868V54.489H91.6038V54.2079Z" fill="#DCF4FF"/>
</g>
<g opacity="0.5">
<path d="M91.6038 57.1066H75.9868V57.3876H91.6038V57.1066Z" fill="#DCF4FF"/>
</g>
<g style="mix-blend-mode:multiply" opacity="0.5">
<g style="mix-blend-mode:multiply">
<path d="M93.1253 51.5898H74.52V52.5386H93.1253V51.5898Z" fill="#FEC786"/>
</g>
</g>
<path d="M74.584 48.6939L72.4622 46.5721L72.5321 46.5022L74.584 48.5541L88.4902 34.6483L86.4379 32.5964L86.5078 32.5265L88.6296 34.6483L88.5947 34.6833L74.584 48.6939Z" fill="#1D1D1B"/>
<path d="M93.1749 61.3404H93.0759V51.6393H74.5696V61.3404H74.4709V51.5406H93.1749V61.3404Z" fill="#1D1D1B"/>
<path d="M93.7507 48.5891H93.6545V51.5898H93.7507V48.5891Z" fill="#1D1D1B"/>
<path d="M93.7503 51.4467H73.9363V51.5897H93.7503V51.4467Z" fill="#1D1D1B"/>
<path d="M93.6432 48.6113H73.8787V51.5629H93.6432V48.6113Z" fill="white"/>
<path d="M77.3617 48.6019L76.1432 51.5535L74.167 51.5531L75.3852 48.6016L77.3617 48.6019Z" fill="#2D5370"/>
<path d="M81.3144 48.6022L80.0962 51.5537L78.1196 51.5534L79.3378 48.6022H81.3144Z" fill="#2D5370"/>
<path d="M85.2673 48.6029L84.0491 51.5541L82.0725 51.5537L83.2911 48.6025L85.2673 48.6029Z" fill="#2D5370"/>
<path d="M89.2206 48.6033L88.0024 51.5545H86.0259L87.2441 48.6029L89.2206 48.6033Z" fill="#2D5370"/>
<path d="M93.173 48.6036L91.9548 51.5552L89.9783 51.5548L91.1968 48.6033L93.173 48.6036Z" fill="#2D5370"/>
<path d="M75.1209 49.7541C75.1209 49.8307 75.0981 49.9055 75.0555 49.9692C75.0129 50.0328 74.9523 50.0824 74.8816 50.1117C74.8108 50.141 74.7329 50.1486 74.6578 50.1336C74.5826 50.1186 74.5137 50.0817 74.4595 50.0275C74.4054 49.9733 74.3685 49.9043 74.3536 49.8291C74.3387 49.754 74.3464 49.6761 74.3757 49.6054C74.405 49.5346 74.4547 49.4741 74.5184 49.4316C74.5821 49.389 74.657 49.3663 74.7336 49.3663C74.7845 49.3663 74.8349 49.3764 74.8819 49.3959C74.9289 49.4153 74.9716 49.4439 75.0076 49.4799C75.0436 49.5159 75.0721 49.5587 75.0916 49.6057C75.111 49.6528 75.121 49.7032 75.1209 49.7541Z" fill="#1D1D1B"/>
<path d="M73.8633 51.6208L73.8636 48.6198H73.9623L73.9619 51.5218L93.6278 51.524L93.6281 48.6219H93.7268V51.623H93.6773L73.8633 51.6208Z" fill="#1D1D1B"/>
<path d="M93.7273 48.5891H73.8794V48.694H93.7273V48.5891Z" fill="#1D1D1B"/>
<g style="mix-blend-mode:multiply">
<path d="M69.2731 8.30575C69.2684 8.30629 69.2636 8.30629 69.2589 8.30575C69.2483 8.30395 69.2382 8.30007 69.2292 8.29434C69.2202 8.28861 69.2124 8.28115 69.2062 8.27237C69.2001 8.2636 69.1958 8.2537 69.1935 8.24324C69.1912 8.23278 69.191 8.22198 69.193 8.21145L69.5421 6.2389C69.544 6.22838 69.5479 6.21833 69.5537 6.20933C69.5594 6.20032 69.5669 6.19254 69.5756 6.18642C69.5844 6.1803 69.5943 6.17597 69.6047 6.17367C69.6151 6.17136 69.6259 6.17114 69.6364 6.173C69.6469 6.17487 69.657 6.17878 69.666 6.18453C69.675 6.19028 69.6828 6.19775 69.6889 6.2065C69.695 6.21526 69.6994 6.22513 69.7017 6.23556C69.704 6.246 69.7042 6.25678 69.7023 6.2673L69.3532 8.23985C69.3495 8.25842 69.3396 8.27515 69.325 8.28718C69.3103 8.2992 69.292 8.30576 69.2731 8.30575Z" fill="#F7597F"/>
</g>
<g style="mix-blend-mode:multiply">
<path d="M71.099 8.74883C71.0836 8.74875 71.0686 8.74434 71.0556 8.73609C71.0426 8.72784 71.0323 8.71609 71.0257 8.7022C71.0191 8.68831 71.0166 8.67285 71.0184 8.65758C71.0202 8.64232 71.0263 8.62788 71.036 8.61594L72.5214 6.79193C72.5353 6.77595 72.5549 6.76601 72.576 6.76421C72.5971 6.76241 72.6181 6.76889 72.6345 6.78227C72.6509 6.79565 72.6615 6.8149 72.6639 6.83593C72.6664 6.85696 72.6606 6.87813 72.6478 6.89496L71.1623 8.71861C71.1547 8.72808 71.1451 8.73572 71.1341 8.74095C71.1232 8.74619 71.1111 8.74888 71.099 8.74883Z" fill="#F7597F"/>
</g>
<g style="mix-blend-mode:multiply">
<path d="M72.4938 10.2807C72.4745 10.2807 72.4558 10.2738 72.4411 10.2613C72.4264 10.2488 72.4166 10.2315 72.4134 10.2124C72.4103 10.1934 72.414 10.1738 72.4239 10.1573C72.4338 10.1407 72.4493 10.1282 72.4676 10.122L74.8038 9.32537C74.8141 9.32154 74.825 9.3198 74.8359 9.32026C74.8468 9.32072 74.8575 9.32337 74.8674 9.32805C74.8772 9.33272 74.8861 9.33934 74.8933 9.34749C74.9006 9.35564 74.9061 9.36518 74.9097 9.37552C74.9132 9.38586 74.9146 9.3968 74.9138 9.40769C74.913 9.41859 74.91 9.42921 74.905 9.43893C74.9 9.44865 74.8932 9.45727 74.8848 9.46428C74.8764 9.47129 74.8667 9.47655 74.8563 9.47974L72.52 10.2763C72.5116 10.2792 72.5027 10.2807 72.4938 10.2807Z" fill="#F7597F"/>
</g>
<g style="mix-blend-mode:multiply">
<path d="M73.1221 12.4215C73.1005 12.4215 73.0797 12.4129 73.0644 12.3976C73.0491 12.3823 73.0405 12.3616 73.0405 12.34C73.0405 12.3183 73.0491 12.2976 73.0644 12.2823C73.0797 12.267 73.1005 12.2584 73.1221 12.2584L75.2337 12.2162C75.2544 12.2171 75.274 12.2258 75.2885 12.2407C75.303 12.2555 75.3113 12.2753 75.3117 12.296C75.3121 12.3167 75.3046 12.3369 75.2907 12.3523C75.2769 12.3677 75.2576 12.3772 75.237 12.3789L73.1254 12.4215H73.1221Z" fill="#F7597F"/>
</g>
<g style="mix-blend-mode:multiply">
<path d="M75.0057 15.9079C74.9931 15.9079 74.9806 15.9049 74.9693 15.8992L72.5176 14.6781C72.4996 14.6677 72.4862 14.6508 72.4803 14.6309C72.4743 14.611 72.4761 14.5896 72.4854 14.571C72.4947 14.5524 72.5108 14.538 72.5303 14.5309C72.5498 14.5237 72.5713 14.5243 72.5904 14.5325L75.0418 15.7536C75.0513 15.7583 75.0599 15.7649 75.0669 15.773C75.0739 15.7811 75.0793 15.7905 75.0827 15.8006C75.086 15.8108 75.0874 15.8215 75.0866 15.8321C75.0858 15.8428 75.083 15.8532 75.0782 15.8628C75.0713 15.8762 75.061 15.8875 75.0482 15.8954C75.0355 15.9034 75.0208 15.9077 75.0057 15.9079Z" fill="#F7597F"/>
</g>
<path d="M35.3815 18.8872C35.3815 18.8872 34.0377 22.9284 34.8915 25.4555C34.8915 25.4555 36.5021 20.5281 35.3815 18.8872Z" fill="#E5556A"/>
<path d="M33.0616 9.76489C33.0616 9.76489 30.568 19.3175 30.4606 22.4485C30.3532 25.5796 38.7979 24.5667 38.7531 24.2769C38.7083 23.9871 38.0061 19.4613 38.0061 19.4613L34.429 19.3488L34.9023 10.7727L33.0616 9.76489Z" fill="#FCAF90"/>
<path d="M33.0659 12.0451C33.2479 11.5023 32.9709 10.4115 33.0142 10.291C33.0743 10.1246 33.0681 9.30366 33.0815 8.79832C33.0893 8.56225 33.1568 8.33201 33.2778 8.12915C33.3826 7.95003 33.4209 7.78583 33.5363 7.70209C33.7715 7.53171 34.0565 7.70209 34.0565 7.70209C34.2022 7.36933 34.6201 7.57066 34.6201 7.57066C34.7872 7.14834 35.2562 7.40501 35.2562 7.40501C35.3763 7.15343 35.7859 7.22661 35.8711 7.31217C35.9563 7.39773 35.9039 8.09311 35.9039 8.09311C35.9039 8.09311 36.0706 8.03813 36.1645 8.07673C36.2585 8.11532 36.5475 8.84565 36.5475 8.84565C36.5475 8.84565 36.581 9.12308 36.47 9.33642C36.3589 9.54977 35.641 9.92404 35.2904 10.2393C34.9398 10.5546 34.8411 11.0326 34.8411 11.0326L34.4352 12.1281C33.8068 12.1849 33.7329 12.2308 33.0659 12.0451Z" fill="#FCAF90"/>
<path d="M35.6605 8.76116C35.6607 8.75559 35.6629 8.75028 35.6667 8.74623C35.6708 8.74223 35.6763 8.73999 35.682 8.73999C35.6877 8.73999 35.6932 8.74223 35.6973 8.74623C35.8615 8.9057 36.1538 8.94138 36.1568 8.94174C36.1597 8.94187 36.1626 8.94259 36.1652 8.94388C36.1679 8.94516 36.1702 8.94698 36.1722 8.94922C36.1741 8.95145 36.1755 8.95406 36.1764 8.95687C36.1773 8.95968 36.1775 8.96265 36.1772 8.96558C36.1769 8.9685 36.176 8.97133 36.1745 8.97389C36.173 8.97644 36.1711 8.97867 36.1687 8.98043C36.1663 8.98219 36.1636 8.98344 36.1608 8.98412C36.1579 8.98479 36.1549 8.98486 36.152 8.98434C36.1393 8.98434 35.8422 8.94793 35.6671 8.77718C35.665 8.7751 35.6633 8.7726 35.6621 8.76985C35.661 8.76709 35.6605 8.76414 35.6605 8.76116Z" fill="#F07162"/>
<path d="M35.2349 7.40746C35.2355 7.4022 35.2381 7.39736 35.2421 7.39386C35.2461 7.39036 35.2512 7.38843 35.2565 7.38843C35.2618 7.38843 35.267 7.39036 35.2709 7.39386C35.2749 7.39736 35.2775 7.4022 35.2782 7.40746L35.3233 8.2776C35.3236 8.28329 35.3216 8.28887 35.3178 8.29311C35.314 8.29734 35.3086 8.29988 35.3029 8.30017C35.2973 8.30046 35.2917 8.29847 35.2874 8.29465C35.2832 8.29083 35.2807 8.28548 35.2804 8.27978L35.2349 7.40964V7.40746Z" fill="#F07162"/>
<path d="M35.2539 8.89226C35.2539 8.88675 35.256 8.88144 35.2598 8.87744C35.2636 8.87345 35.2688 8.87106 35.2743 8.87078C35.2771 8.87058 35.28 8.87096 35.2827 8.87188C35.2853 8.87281 35.2878 8.87427 35.2899 8.87617C35.292 8.87808 35.2937 8.88039 35.2949 8.88296C35.2961 8.88554 35.2968 8.88833 35.2969 8.89117C35.3042 9.01095 35.3413 9.20609 35.4112 9.21883L35.4312 9.22284C35.5466 9.2465 35.7614 9.29092 35.8736 8.8868C35.8756 8.88186 35.8793 8.87782 35.8841 8.87545C35.8889 8.87308 35.8943 8.87253 35.8995 8.87392C35.9046 8.87531 35.9091 8.87853 35.912 8.88298C35.915 8.88743 35.9162 8.8928 35.9154 8.89808C35.8626 9.0874 35.7796 9.20791 35.6682 9.25561C35.5894 9.28488 35.5033 9.2882 35.4225 9.26507L35.4032 9.26107C35.2776 9.2374 35.2575 8.92794 35.2539 8.89262V8.89226Z" fill="#F07162"/>
<path d="M34.5984 7.57323C34.5991 7.56797 34.6016 7.56313 34.6056 7.55963C34.6096 7.55613 34.6147 7.5542 34.6201 7.5542C34.6254 7.5542 34.6305 7.55613 34.6345 7.55963C34.6385 7.56313 34.641 7.56797 34.6417 7.57323L34.7327 9.2578C34.7575 9.27965 34.8685 9.36229 35.0968 9.31096C35.2177 9.28401 35.2989 9.12382 35.3 9.12237C35.3012 9.1198 35.3029 9.1175 35.305 9.1156C35.3071 9.11371 35.3096 9.11226 35.3123 9.11134C35.3149 9.11042 35.3178 9.11006 35.3206 9.11026C35.3234 9.11047 35.3262 9.11124 35.3287 9.11254C35.3339 9.11512 35.3378 9.11962 35.3396 9.12508C35.3415 9.13053 35.3411 9.13649 35.3386 9.14166C35.3349 9.14894 35.2472 9.32151 35.1063 9.35319C34.8238 9.41654 34.7003 9.28766 34.6952 9.28219L34.6898 9.27637L34.598 7.57541L34.5984 7.57323Z" fill="#F07162"/>
<path d="M34.0349 7.70464C34.0349 7.69912 34.037 7.69382 34.0408 7.68982C34.0446 7.68582 34.0498 7.68344 34.0553 7.68316C34.0582 7.68296 34.061 7.68333 34.0637 7.68426C34.0664 7.68518 34.0689 7.68663 34.0711 7.68853C34.0732 7.69043 34.0749 7.69274 34.0762 7.69531C34.0774 7.69789 34.0781 7.70069 34.0782 7.70354L34.1642 9.2778C34.1906 9.32777 34.2317 9.36848 34.282 9.3945C34.3322 9.42052 34.3891 9.43061 34.4452 9.42343C34.6502 9.40596 34.6892 9.26652 34.6906 9.26069C34.6913 9.25794 34.6925 9.25536 34.6942 9.25308C34.6959 9.25081 34.698 9.24889 34.7005 9.24743C34.7029 9.24598 34.7056 9.24502 34.7084 9.24461C34.7112 9.2442 34.7141 9.24434 34.7168 9.24504C34.7196 9.24573 34.7222 9.24696 34.7244 9.24865C34.7267 9.25034 34.7286 9.25247 34.7301 9.2549C34.7315 9.25733 34.7325 9.26003 34.7329 9.26284C34.7333 9.26564 34.7332 9.2685 34.7325 9.27125C34.7307 9.27853 34.6855 9.44637 34.4489 9.46639C34.3832 9.47376 34.3169 9.46099 34.2587 9.42978C34.2005 9.39856 34.1532 9.35038 34.123 9.29164V9.288L34.0364 7.70537L34.0349 7.70464Z" fill="#F07162"/>
<path d="M33.4073 8.25433C33.4074 8.24956 33.409 8.24493 33.4119 8.24112C33.4147 8.23732 33.4188 8.23455 33.4234 8.23322C33.4261 8.23245 33.429 8.23223 33.4318 8.23259C33.4347 8.23294 33.4374 8.23386 33.4399 8.23528C33.4423 8.23671 33.4445 8.23861 33.4462 8.24088C33.448 8.24315 33.4492 8.24574 33.4499 8.24851C33.4499 8.2547 33.6163 8.8627 33.6571 9.05639C33.6961 9.24061 33.7732 9.32398 33.9003 9.31925C34.0274 9.31452 34.0878 9.29449 34.1122 9.186C34.1128 9.18323 34.114 9.1806 34.1156 9.17828C34.1172 9.17595 34.1193 9.17397 34.1217 9.17245C34.1241 9.17093 34.1268 9.1699 34.1296 9.16941C34.1324 9.16892 34.1353 9.16899 34.138 9.16962C34.1408 9.17024 34.1434 9.1714 34.1458 9.17303C34.1481 9.17467 34.1501 9.17675 34.1516 9.17915C34.1531 9.18155 34.1541 9.18422 34.1546 9.18702C34.1551 9.18982 34.1551 9.19269 34.1544 9.19546C34.1213 9.34109 34.0204 9.35821 33.9021 9.36257C33.7521 9.36804 33.6582 9.27083 33.6149 9.06513C33.5741 8.87253 33.4099 8.26598 33.4084 8.25979C33.4077 8.25806 33.4074 8.25621 33.4073 8.25433Z" fill="#F07162"/>
<path d="M33.2799 8.63336C33.2799 8.62793 33.282 8.6227 33.2857 8.61879C33.2898 8.61479 33.2953 8.61255 33.301 8.61255C33.3067 8.61255 33.3122 8.61479 33.3163 8.61879C33.3456 8.64399 33.38 8.66252 33.4172 8.67308C33.4543 8.68364 33.4933 8.68599 33.5315 8.67996C33.5368 8.67964 33.542 8.68127 33.5462 8.68454C33.5504 8.68781 33.5533 8.6925 33.5543 8.69773C33.5553 8.70295 33.5543 8.70836 33.5516 8.71293C33.5489 8.7175 33.5446 8.72092 33.5395 8.72255C33.4946 8.72984 33.4487 8.72709 33.405 8.7145C33.3613 8.70191 33.3209 8.67979 33.2868 8.64974C33.2846 8.64766 33.2828 8.64512 33.2816 8.6423C33.2804 8.63947 33.2798 8.63642 33.2799 8.63336Z" fill="#F07162"/>
<g style="mix-blend-mode:multiply" opacity="0.5">
<path d="M35.2363 8.28857C35.2363 8.29695 35.2876 8.46843 35.2549 8.5052C35.2221 8.54197 34.7717 8.6359 34.7128 8.44658L34.7667 8.36976C34.7667 8.36976 35.0692 8.3086 35.0834 8.30714C35.0976 8.30569 35.2363 8.28857 35.2363 8.28857Z" fill="#F9B59D"/>
</g>
<path d="M34.6766 8.45578C34.6764 8.43616 34.6822 8.41694 34.6934 8.40081C34.7331 8.34146 34.8503 8.30615 35.0739 8.28649C35.357 8.26095 35.6342 8.19002 35.8948 8.07642H35.8974C35.9043 8.07424 36.0725 8.01926 36.1726 8.0604C36.2323 8.08479 36.3547 8.3178 36.5316 8.75214C36.5611 8.82339 36.5754 8.90004 36.5735 8.97714C36.5733 9.10601 36.5444 9.23323 36.489 9.34959C36.4235 9.47556 36.1613 9.65068 35.885 9.83599C35.6738 9.97725 35.4554 10.1232 35.305 10.2587C34.9639 10.5656 34.8631 11.0356 34.8623 11.0403C34.8612 11.0459 34.8578 11.0509 34.8531 11.054C34.8483 11.0571 34.8424 11.0583 34.8368 11.0571C34.8312 11.0559 34.8263 11.0526 34.8232 11.0478C34.82 11.043 34.8189 11.0372 34.8201 11.0316C34.8201 11.0269 34.9242 10.543 35.2759 10.2266C35.4288 10.089 35.6484 9.9423 35.861 9.79995C36.1329 9.61791 36.3903 9.4457 36.4508 9.32956C36.5028 9.21896 36.5301 9.09829 36.5305 8.97605C36.5321 8.90507 36.519 8.83453 36.4919 8.76889C36.2982 8.29741 36.1901 8.11356 36.1562 8.10008C36.0747 8.06623 35.9269 8.1121 35.912 8.11683C35.647 8.23205 35.3653 8.30407 35.0775 8.33018C34.874 8.34838 34.76 8.37933 34.7291 8.42557C34.7123 8.45032 34.7214 8.47981 34.732 8.5144C34.7356 8.52642 34.7396 8.53879 34.7422 8.55081C34.7604 8.63491 34.9643 8.87556 35.2519 8.87192C35.5395 8.86828 35.9021 8.60214 35.9072 8.59959C35.912 8.59621 35.918 8.59489 35.9238 8.59592C35.9296 8.59694 35.9348 8.60023 35.9382 8.60506C35.9415 8.60988 35.9429 8.61586 35.9418 8.62166C35.9408 8.62746 35.9375 8.63262 35.9327 8.636C35.9174 8.64729 35.5519 8.9127 35.2541 8.91634C34.9446 8.92071 34.7222 8.66622 34.6996 8.56137C34.6974 8.55081 34.6938 8.53989 34.6905 8.52823C34.6822 8.50493 34.6776 8.4805 34.6766 8.45578Z" fill="#F07162"/>
<path d="M54.7866 25.5712L61.9403 20.1927L63.3209 22.2589C63.3209 22.2589 56.69 31.2581 54.0988 30.7418C52.1328 30.3515 51.3221 28.4558 54.7866 25.5712Z" fill="#FCAF90"/>
<path d="M55.2666 29.4731L54.2453 24.1361L51.063 24.636L50.3101 28.9044C50.3101 28.9044 53.0144 30.8562 54.34 30.7612C55.6656 30.6661 55.2666 29.4731 55.2666 29.4731Z" fill="#FCAF90"/>
<path d="M63.141 19.1421L64.1346 19.1566C64.3071 19.1111 64.6472 18.9975 65.052 18.8872C65.1656 19.2222 65.2621 19.4781 65.3043 19.4697L65.32 19.5462C65.3239 19.5649 65.335 19.5814 65.351 19.5921C65.426 19.9445 65.5111 20.393 65.6058 20.7669C65.6739 21.0312 65.7394 20.9854 65.5694 21.1867C65.4715 21.3032 64.905 21.755 64.6705 21.8107L63.1414 22.3204C63.0383 21.854 61.4808 20.6344 61.5395 20.5448L63.141 19.1421Z" fill="#FCAF90"/>
<path d="M60.7847 15.0856C60.7847 15.0856 58.9512 15.872 59.7358 17.6341C60.4676 19.2775 62.0098 18.4908 62.4066 18.292C62.8035 18.0932 60.7847 15.0856 60.7847 15.0856Z" fill="#91D3E2"/>
<path d="M62.8794 18.5071C62.8794 18.5071 63.6993 19.8906 63.8988 21.0826C64.0863 22.1938 64.2891 22.3332 64.683 22.1908C65.0769 22.0485 65.9893 21.5457 65.9027 21.154C65.816 20.7622 65.1017 18.8239 64.1405 17.9385C63.1794 17.053 62.8794 18.5071 62.8794 18.5071Z" fill="#52B6C6"/>
<path d="M65.591 9.91125C65.591 9.91125 63.045 13.062 62.2094 14.0329L61.8501 15.0833L62.9693 17.563L64.1267 17.7924L69.3868 17.4407L69.1207 16.9102L67.5395 14.6373L66.3089 11.8969L65.702 10.1719L65.591 9.91125Z" fill="#52B6C6"/>
<path d="M62.2094 14.0329C62.2094 14.0329 62.3809 16.3447 64.1266 17.7923C64.1587 17.8347 64.1751 17.8869 64.173 17.94C64.1709 17.9932 64.1504 18.0439 64.115 18.0836L63.2365 18.5769C63.2365 18.5769 62.8407 18.8488 62.3041 18.3198C61.7674 17.7908 60.7386 16.5545 60.7062 14.8943C60.7062 14.8943 60.6872 14.4476 61.1794 14.2324L61.8308 13.9196C61.8308 13.9196 62.1239 13.7908 62.2094 14.0329Z" fill="#D4EBF2"/>
<path d="M65.5908 9.91127C65.5908 9.91127 66.2512 9.08445 66.7307 8.96977C67.2102 8.85509 67.855 9.35969 68.302 9.79331C68.7491 10.2269 70.1017 12.0353 70.5455 13.3824C70.9893 14.7294 71.4983 16.6809 70.8921 17.0923C70.2859 17.5037 69.3866 17.4407 69.3866 17.4407C69.3866 17.4407 68.0574 16.801 66.6528 14.0796C65.2482 11.3581 65.5908 9.91127 65.5908 9.91127Z" fill="#91D3E2"/>
<path d="M70.4392 17.297C70.4392 17.297 70.9405 16.0908 69.825 13.4961C68.0683 9.41078 66.3404 9.18506 66.3404 9.18506C66.3404 9.18506 65.4237 10.3712 67.6249 14.1842C69.4387 17.3279 70.4392 17.297 70.4392 17.297Z" fill="#3B9DA8"/>
<path d="M66.7935 12.5541C67.0398 13.1126 67.3174 13.6568 67.625 14.184C67.8009 14.4884 67.9687 14.7629 68.1289 15.0105C68.5629 14.7163 69.2247 14.0923 68.6113 13.1246C68.043 12.2275 67.23 12.3815 66.7935 12.5541Z" fill="#D4EBF2"/>
<path d="M62.3066 18.3494C61.6727 17.7518 61.1957 17.0074 60.9176 16.1817C60.7123 15.5654 60.697 15.123 60.697 15.1187H60.7356C60.7356 15.123 60.7509 15.561 60.9541 16.1719C61.2307 16.9906 61.7043 17.7287 62.3332 18.3214L62.3066 18.3494Z" fill="#1D1D1B"/>
<path d="M64.1137 17.8071C63.6933 17.4415 63.3299 17.0151 63.0357 16.5419C62.7976 16.1583 62.6047 15.7484 62.4608 15.3205C62.2132 14.5861 62.1899 14.0393 62.1899 14.0338H62.2285C62.2285 14.0389 62.2518 14.5799 62.4983 15.311C62.8172 16.2644 63.3834 17.1161 64.1392 17.779L64.1137 17.8071Z" fill="#1D1D1B"/>
<path d="M61.7136 14.998L61.3728 15.5177L61.4054 15.5391L61.7461 15.0193L61.7136 14.998Z" fill="#1D1D1B"/>
<path d="M61.4629 14.7836L61.1221 15.3032L61.1546 15.3246L61.4955 14.8049L61.4629 14.7836Z" fill="#1D1D1B"/>
<path d="M65.1208 11.6808L64.7803 12.2007L64.8129 12.222L65.1534 11.7022L65.1208 11.6808Z" fill="#1D1D1B"/>
<path d="M64.8682 11.4654L64.5278 11.9854L64.5604 12.0067L64.9008 11.4867L64.8682 11.4654Z" fill="#1D1D1B"/>
<path d="M63.1051 19.6451L64.1744 19.6968L64.225 19.9542L64.2923 20.1774L64.1966 20.3409L63.4874 20.4097L63.061 20.157L63.1051 19.6451Z" fill="#FCAF90"/>
<path d="M62.9309 20.5412C62.9191 20.5356 62.9094 20.5265 62.9029 20.5152C62.8964 20.5039 62.8934 20.4909 62.8945 20.4779C62.8945 20.4433 62.916 20.4163 62.9411 20.4178L64.0857 20.2893C64.195 20.2947 64.2856 20.1884 64.294 20.0472C64.2996 19.975 64.282 19.9029 64.2438 19.8415C64.2291 19.8156 64.2085 19.7937 64.1836 19.7776C64.1587 19.7614 64.1302 19.7515 64.1007 19.7486L63.0474 19.6962C63.0332 19.6929 63.0207 19.6844 63.0124 19.6725C63.0041 19.6605 63.0004 19.6459 63.0023 19.6314C63.0023 19.5968 63.0237 19.5699 63.0489 19.571L64.1025 19.6234C64.1456 19.6278 64.187 19.6424 64.2234 19.666C64.2597 19.6897 64.2899 19.7216 64.3115 19.7592C64.367 19.8492 64.3925 19.9545 64.3843 20.0599C64.3719 20.2667 64.2387 20.424 64.0832 20.4149L62.9382 20.543C62.9357 20.5427 62.9333 20.5421 62.9309 20.5412Z" fill="#F07162"/>
<path d="M65.5306 19.4083C65.6125 19.5903 65.536 19.736 65.5062 19.7509L64.5836 20.202C64.4718 20.2566 64.3215 20.187 64.2439 20.0356C64.1591 19.8699 64.1919 19.6813 64.3124 19.6224L65.2309 19.1735C65.2309 19.1735 65.4487 19.2263 65.5306 19.4083Z" fill="#FCAF90"/>
<path d="M65.7734 19.927C65.8582 20.109 65.836 20.2911 65.8066 20.3078L64.8235 20.8204C64.7143 20.8783 64.5621 20.8121 64.4828 20.6621C64.3954 20.4975 64.4253 20.3075 64.5443 20.2452L65.5517 19.7195C65.5517 19.7195 65.689 19.7464 65.7734 19.927Z" fill="#FCAF90"/>
<path d="M65.6097 19.7601C65.6177 19.7507 65.6226 19.739 65.6238 19.7268C65.6249 19.7145 65.6223 19.7021 65.6163 19.6913C65.6025 19.6611 65.5737 19.6454 65.5519 19.6549L64.5605 20.1457C64.4669 20.1916 64.345 20.1326 64.2834 20.0117C64.2503 19.9505 64.2376 19.8804 64.247 19.8115C64.2499 19.7833 64.2597 19.7562 64.2754 19.7326C64.2911 19.709 64.3124 19.6896 64.3373 19.676L65.2475 19.2315C65.2584 19.2232 65.2659 19.2113 65.2686 19.1978C65.2712 19.1844 65.2689 19.1705 65.2621 19.1587C65.2486 19.1285 65.2198 19.1124 65.198 19.1223L64.2878 19.5668C64.2509 19.5868 64.2194 19.6155 64.196 19.6504C64.1726 19.6853 64.158 19.7253 64.1535 19.7671C64.1392 19.8671 64.1571 19.9691 64.2044 20.0583C64.2951 20.2356 64.472 20.3226 64.6071 20.2564L65.5999 19.7671C65.6035 19.7653 65.6068 19.7629 65.6097 19.7601Z" fill="#F07162"/>
<path d="M65.1805 18.8071C65.2679 18.9866 65.2409 19.1712 65.2115 19.1875L64.2263 19.69C64.117 19.7453 63.9714 19.6841 63.8891 19.5381C63.797 19.371 63.8269 19.1741 63.9485 19.114L64.8681 18.6451C64.9701 18.593 65.1299 18.703 65.1805 18.8071Z" fill="#FCAF90"/>
<path d="M65.2414 19.2319C65.2493 19.2223 65.2541 19.2106 65.2552 19.1983C65.2563 19.1859 65.2536 19.1735 65.2476 19.1627C65.2334 19.1329 65.2046 19.1172 65.1828 19.1285L64.1998 19.636C64.1073 19.6834 63.9853 19.6262 63.9223 19.506C63.8893 19.4449 63.8765 19.3747 63.8859 19.3058C63.8886 19.2775 63.8981 19.2502 63.9135 19.2263C63.929 19.2024 63.95 19.1826 63.9748 19.1685L64.8769 18.7084C64.8875 18.6998 64.8947 18.6878 64.8973 18.6745C64.8998 18.6612 64.8975 18.6473 64.8908 18.6355C64.8766 18.6057 64.8478 18.59 64.826 18.5991L63.9242 19.0593C63.8881 19.0801 63.8576 19.1092 63.835 19.1442C63.8124 19.1791 63.7984 19.2189 63.7942 19.2603C63.7809 19.3606 63.7997 19.4625 63.8477 19.5516C63.9398 19.7281 64.1171 19.8126 64.2511 19.7442L65.2341 19.2363C65.2367 19.2352 65.2392 19.2337 65.2414 19.2319Z" fill="#F07162"/>
<path d="M65.792 20.3435C65.8 20.3338 65.8049 20.3218 65.8059 20.3093C65.807 20.2967 65.8041 20.2841 65.7978 20.2732C65.7836 20.243 65.7545 20.2284 65.733 20.2401L64.7846 20.7582C64.6917 20.8066 64.5821 20.7582 64.5192 20.638C64.486 20.577 64.4732 20.5069 64.4827 20.4381C64.4853 20.4098 64.4945 20.3824 64.5098 20.3583C64.5251 20.3342 64.5459 20.3142 64.5705 20.2998L65.5779 19.7741C65.589 19.7655 65.5965 19.7532 65.599 19.7394C65.6015 19.7256 65.5988 19.7113 65.5913 19.6994C65.5771 19.6692 65.5484 19.6539 65.5265 19.6652L64.5195 20.1909C64.4836 20.2121 64.4532 20.2415 64.4308 20.2767C64.4084 20.3119 64.3946 20.3518 64.3906 20.3934C64.3782 20.4938 64.3975 20.5957 64.446 20.6846C64.5388 20.8597 64.7034 20.9358 64.8377 20.8667L65.7869 20.3497C65.7889 20.3479 65.7907 20.3458 65.792 20.3435Z" fill="#F07162"/>
<path d="M65.9469 20.5473C66.027 20.7152 66.0081 20.8878 65.9808 20.9027L65.0731 21.3953C64.9708 21.4506 64.8299 21.3909 64.7549 21.2518C64.6726 21.0993 64.6985 20.9212 64.8084 20.8619L65.7394 20.3566C65.7394 20.3566 65.8664 20.3799 65.9469 20.5473Z" fill="#FCAF90"/>
<path d="M65.9882 20.9184C65.9962 20.9087 66.0011 20.8967 66.0021 20.8842C66.0032 20.8716 66.0003 20.859 65.994 20.8481C65.9798 20.8183 65.9507 20.8033 65.9292 20.815L65.0216 21.3076C64.9375 21.3531 64.8253 21.3032 64.7667 21.194C64.7357 21.1386 64.723 21.0749 64.7303 21.0119C64.7323 20.9858 64.7406 20.9605 64.7543 20.9382C64.7681 20.9158 64.7869 20.8971 64.8093 20.8834L65.7402 20.3784C65.7511 20.3696 65.7584 20.3572 65.7608 20.3434C65.7631 20.3295 65.7604 20.3154 65.753 20.3035C65.7384 20.2736 65.7097 20.2587 65.6882 20.2703L64.7572 20.7753C64.7237 20.7959 64.6954 20.8241 64.6747 20.8576C64.654 20.8911 64.6415 20.929 64.6382 20.9683C64.6269 21.0636 64.646 21.16 64.6928 21.2439C64.782 21.4084 64.9476 21.4845 65.074 21.4168L65.982 20.9246C65.9843 20.9227 65.9863 20.9207 65.9882 20.9184Z" fill="#F07162"/>
<path d="M49.0444 9.82792C47.7487 9.31093 46.2337 9.86979 46.2337 9.86979C46.2337 9.86979 45.6661 10.6343 45.6101 10.7239C45.554 10.8135 46.2115 10.5419 46.2115 10.5419L50.1883 12.474L50.2265 11.6851C50.2472 11.291 50.1444 10.9003 49.9325 10.5674C49.7206 10.2345 49.4102 9.97601 49.0444 9.82792Z" fill="#FE9F73"/>
<path d="M45.6983 14.1556L45.6837 15.2041C45.6837 15.2041 45.0531 18.9209 45.1303 19.3717C45.2075 19.8224 46.038 19.1437 47.2267 19.2016C47.5599 19.2181 47.8937 19.1831 48.2162 19.0979C48.4948 19.0224 48.7382 18.8519 48.9044 18.616C49.0706 18.3801 49.1491 18.0935 49.1264 17.8058L49.0095 16.2104C50.057 16.1125 50.0654 14.9212 50.0654 14.9212L50.2274 11.5939L46.03 10.1071L45.6983 14.1556Z" fill="#FCAF90"/>
<path d="M47.2778 12.8804C47.2712 12.8875 47.2668 12.8963 47.2651 12.9058C47.2635 12.9154 47.2647 12.9252 47.2685 12.9341C47.2724 12.9429 47.2788 12.9505 47.2869 12.9558C47.295 12.961 47.3045 12.9638 47.3142 12.9638C47.321 12.9638 47.3278 12.9625 47.3341 12.9598C47.3403 12.9571 47.346 12.9531 47.3506 12.9481C47.3754 12.9212 47.9666 12.2993 48.5258 12.7355C48.5362 12.7436 48.5494 12.7473 48.5625 12.7456C48.5755 12.744 48.5874 12.7373 48.5956 12.7269C48.6037 12.7166 48.6073 12.7034 48.6057 12.6903C48.6041 12.6772 48.5974 12.6653 48.587 12.6572C47.9557 12.165 47.2847 12.8731 47.2778 12.8804Z" fill="#4C222E"/>
<path d="M49.5177 12.4193C49.5115 12.4212 49.5056 12.4242 49.5006 12.4283C49.4955 12.4324 49.4913 12.4374 49.4882 12.4431C49.4851 12.4489 49.4831 12.4551 49.4825 12.4616C49.4818 12.4681 49.4824 12.4746 49.4842 12.4809C49.4861 12.4877 49.4895 12.494 49.4942 12.4994C49.4988 12.5047 49.5046 12.509 49.5111 12.5118C49.5218 12.517 49.5341 12.5179 49.5454 12.5143C49.5508 12.5143 50.0875 12.3611 50.2164 12.6414C50.2191 12.6473 50.223 12.6527 50.2277 12.6571C50.2325 12.6615 50.2381 12.665 50.2443 12.6673C50.2504 12.6695 50.2569 12.6706 50.2634 12.6703C50.2699 12.6701 50.2763 12.6685 50.2823 12.6658C50.2882 12.6631 50.2935 12.6592 50.298 12.6544C50.3024 12.6496 50.3058 12.644 50.3081 12.6379C50.3104 12.6318 50.3114 12.6253 50.3112 12.6188C50.3109 12.6122 50.3094 12.6058 50.3067 12.5999C50.141 12.242 49.5421 12.4128 49.5177 12.4193Z" fill="#4C222E"/>
<path d="M48.1342 13.1161C48.1048 13.1147 48.0757 13.1221 48.0506 13.1372C48.0254 13.1523 48.0053 13.1745 47.9927 13.2011C47.9802 13.2276 47.9758 13.2573 47.9801 13.2864C47.9845 13.3154 47.9973 13.3425 48.017 13.3643C48.0367 13.386 48.0625 13.4015 48.0909 13.4086C48.1194 13.4157 48.1494 13.4143 48.177 13.4044C48.2047 13.3945 48.2288 13.3767 48.2463 13.3531C48.2638 13.3295 48.2739 13.3013 48.2754 13.272C48.2764 13.2524 48.2735 13.2329 48.2669 13.2145C48.2604 13.1961 48.2502 13.1792 48.2371 13.1647C48.224 13.1503 48.2081 13.1385 48.1905 13.1302C48.1728 13.1218 48.1537 13.1171 48.1342 13.1161Z" fill="black"/>
<path d="M49.7195 13.0446C49.6902 13.0433 49.6611 13.0506 49.636 13.0658C49.6109 13.081 49.5908 13.1032 49.5783 13.1298C49.5658 13.1564 49.5615 13.186 49.5659 13.2151C49.5702 13.2441 49.5831 13.2712 49.6028 13.2929C49.6226 13.3146 49.6483 13.33 49.6768 13.3371C49.7053 13.3442 49.7352 13.3427 49.7628 13.3328C49.7905 13.3229 49.8145 13.3051 49.832 13.2815C49.8495 13.2579 49.8596 13.2297 49.8611 13.2004C49.863 13.161 49.8491 13.1224 49.8226 13.0932C49.796 13.0639 49.7589 13.0465 49.7195 13.0446Z" fill="black"/>
<path d="M46.2345 9.81633C46.2345 9.81633 44.9792 9.69473 44.6064 10.7797C44.2336 11.8646 44.7491 12.4733 44.7444 12.8021C44.7396 13.1309 44.4091 15.3324 45.9702 15.2414L46.5688 11.609L46.0991 10.1276L46.2345 9.81633Z" fill="#33192C"/>
<path d="M46.201 12.2253C46.0246 12.2167 45.8497 12.2606 45.6983 12.3515C45.5469 12.4423 45.4259 12.576 45.3504 12.7356C45.275 12.8952 45.2486 13.0737 45.2746 13.2483C45.3006 13.4229 45.3777 13.5859 45.4964 13.7167C45.615 13.8475 45.7697 13.9401 45.941 13.983C46.1122 14.0258 46.2924 14.0169 46.4586 13.9574C46.6248 13.8979 46.7696 13.7904 46.8748 13.6486C46.9799 13.5068 47.0406 13.3369 47.0492 13.1606C47.0607 12.9241 46.9778 12.6927 46.8187 12.5173C46.6597 12.3419 46.4375 12.2369 46.201 12.2253Z" fill="#FCAF90"/>
<path d="M46.2136 12.7329C46.0239 12.6164 45.7898 12.6801 45.78 12.6826C45.7768 12.6835 45.7739 12.685 45.7713 12.687C45.7688 12.689 45.7667 12.6915 45.7651 12.6944C45.7635 12.6972 45.7625 12.7003 45.7621 12.7036C45.7617 12.7068 45.762 12.7101 45.7629 12.7132C45.7637 12.7164 45.7652 12.7193 45.7672 12.7219C45.7692 12.7245 45.7717 12.7266 45.7745 12.7282C45.7774 12.7298 45.7805 12.7308 45.7838 12.7312C45.787 12.7316 45.7903 12.7313 45.7934 12.7303C45.7956 12.7303 46.017 12.6699 46.1877 12.7755C46.2702 12.8283 46.3304 12.9095 46.357 13.0037C46.2682 12.9389 46.0931 12.8516 45.8895 12.9644C45.7519 13.0409 45.6889 13.1982 45.7294 13.3649C45.7632 13.5062 45.8801 13.6514 46.0654 13.6602H46.0705C46.0771 13.6605 46.0835 13.6581 46.0883 13.6537C46.0932 13.6492 46.0961 13.6431 46.0963 13.6365C46.0966 13.6299 46.0943 13.6235 46.0899 13.6187C46.0854 13.6138 46.0792 13.6109 46.0727 13.6107H46.0676C45.8972 13.6023 45.8047 13.4672 45.7763 13.3533C45.7479 13.2393 45.7698 13.0871 45.9129 13.0077C46.171 12.8643 46.3727 13.0806 46.3814 13.0904L46.4415 13.1559L46.424 13.0689C46.3942 12.9131 46.3228 12.8002 46.2136 12.7329Z" fill="#F07162"/>
<path d="M46.6484 15.083C46.6484 15.083 46.6215 17.0763 49.0972 17.3872L49.0109 16.2105C49.0109 16.2105 47.3835 16.4541 46.6484 15.083Z" fill="#F07162"/>
<path d="M49.1712 12.9084C49.1647 12.909 49.1587 12.9121 49.1545 12.9171C49.1502 12.922 49.1481 12.9285 49.1486 12.935L49.2488 14.1113L48.7442 14.2511C48.7383 14.2526 48.7332 14.2561 48.7298 14.261C48.7264 14.2659 48.7248 14.2719 48.7255 14.2779C48.7262 14.2839 48.729 14.2894 48.7334 14.2934C48.7379 14.2975 48.7436 14.2998 48.7496 14.2999C48.7522 14.3003 48.7547 14.3003 48.7573 14.2999L49.3034 14.1488L49.2 12.9317C49.1998 12.9282 49.1989 12.9248 49.1973 12.9217C49.1958 12.9186 49.1935 12.9158 49.1908 12.9136C49.1881 12.9114 49.185 12.9098 49.1816 12.9089C49.1782 12.908 49.1747 12.9078 49.1712 12.9084Z" fill="#F07162"/>
<path d="M50.0273 9.80278C50.0273 9.80278 50.2556 8.55036 49.0935 8.8682C47.9314 9.18603 45.8168 9.03385 45.1677 10.0649C44.5185 11.096 46.5661 11.661 46.5661 11.661C46.5661 11.661 50.3634 11.621 50.6401 10.7454C50.9168 9.86977 50.0273 9.80278 50.0273 9.80278Z" fill="#33192C"/>
<path d="M46.3742 10.9806C46.3327 10.9985 45.551 11.3512 45.653 11.3392C45.7549 11.3272 46.5042 11.4208 46.5042 11.4208L46.4641 12.2385C46.4641 12.2385 46.7576 12.7347 46.6225 13.3405C46.6225 13.3405 46.85 13.437 46.8995 13.2473C46.9491 13.0577 46.7725 11.7182 47.2476 11.4976C47.7227 11.277 46.4153 10.9624 46.3742 10.9806Z" fill="#33192C"/>
<path d="M48.4287 14.6078C48.4433 14.6078 49.352 14.6948 49.352 14.6948C49.352 14.6948 49.1929 15.056 48.855 15.0225C48.5172 14.989 48.4287 14.6078 48.4287 14.6078Z" fill="#FBFDFC"/>
<path d="M52.4059 18.1379C53.7981 18.3564 54.2295 19.6164 54.4494 24.8926L53.2036 25.2592L52.9123 39.5237C52.9123 39.5237 45.7237 43.1142 38.1757 39.5237L39.9021 25.0026C39.9021 25.0026 37.1253 25.272 34.8903 25.4555C34.8903 25.4555 35.527 21.1958 35.3803 18.8872C35.3803 18.8872 38.8325 18.3029 42.4306 18.0171C46.8781 17.6639 51.985 18.0717 52.4059 18.1379Z" fill="#F7597F"/>
<path d="M53.0297 37.534L52.8648 37.5304L53.1196 25.256C53.1728 22.7005 52.5422 20.1011 52.5371 20.0752L52.6969 20.0359C52.7035 20.0621 53.3392 22.6823 53.2853 25.2593L53.0297 37.534Z" fill="#1D1D1B"/>
<path d="M40.8496 24.8396L34.8846 25.3719L34.8993 25.5362L40.8643 25.0039L40.8496 24.8396Z" fill="#1D1D1B"/>
<path d="M39.8036 25.1828L39.0471 31.8121L39.211 31.8308L39.9675 25.2015L39.8036 25.1828Z" fill="#1D1D1B"/>
<path d="M43.5735 17.9431C43.5735 17.9431 44.7542 19.493 47.0187 19.5272C49.2833 19.5615 49.9794 17.9643 49.9794 17.9643C49.9794 17.9643 46.7038 17.6825 43.5735 17.9431Z" fill="#FCAF90"/>
<g style="mix-blend-mode:multiply">
<path d="M26.7201 34.0283L24.7679 35.9805V32.0762L26.7201 34.0283Z" fill="#DCF4FF"/>
<path d="M30.4608 34.0283L28.5087 35.9805V32.0762L30.4608 34.0283Z" fill="#DCF4FF"/>
<path d="M34.2013 34.0283L32.2491 35.9805V32.0762L34.2013 34.0283Z" fill="#DCF4FF"/>
<path d="M37.9419 34.0283L35.9897 35.9805V32.0762L37.9419 34.0283Z" fill="#DCF4FF"/>
<path d="M56.6454 34.0283L54.6929 35.9805V32.0762L56.6454 34.0283Z" fill="#DCF4FF"/>
<path d="M60.3858 34.0283L58.4336 35.9805V32.0762L60.3858 34.0283Z" fill="#DCF4FF"/>
<path d="M64.1265 34.0283L62.1743 35.9805V32.0762L64.1265 34.0283Z" fill="#DCF4FF"/>
<path d="M67.8673 34.0283L65.9148 35.9805V32.0762L67.8673 34.0283Z" fill="#DCF4FF"/>
<path d="M71.6077 34.0283L69.6555 35.9805V32.0762L71.6077 34.0283Z" fill="#DCF4FF"/>
</g>
<path d="M102.89 61.1515H0V61.3787H102.89V61.1515Z" fill="#223749"/>
</svg>
