<svg width="93" height="82" viewBox="0 0 93 82" fill="none" xmlns="http://www.w3.org/2000/svg">
<path d="M12.4553 71.654C14.3503 74.0536 16.5335 76.2107 18.9556 78.0768H69.8006C74.2501 75.9463 78.2572 73.1198 81.6542 69.3684C93.5099 56.2714 95.395 32.1595 86.781 16.8544C78.2174 1.6353 55.3384 -1.61485 39.6727 0.649771C31.9646 1.76321 24.3949 4.30462 18.0623 8.67659C14.4993 11.1426 11.363 14.174 8.7774 17.6512C6.49181 20.721 3.64007 24.7533 2.78035 28.448C-0.520127 42.6522 2.99004 58.9973 11.8304 70.8404C12.0338 71.113 12.2435 71.3856 12.4553 71.654Z" fill="#F2ECE9"/>
<path d="M68.3893 48.7563H49.6685V78.1545H68.3893V48.7563Z" fill="#B5A49C"/>
<path d="M68.3977 70.6243H49.6685V70.834H68.3977V70.6243Z" fill="white"/>
<path d="M68.3977 63.0884H49.6685V63.2981H68.3977V63.0884Z" fill="white"/>
<path d="M68.3977 55.552H49.6685V55.7617H68.3977V55.552Z" fill="white"/>
<path d="M59.2323 74.3798C59.0249 74.3798 58.8222 74.3183 58.6498 74.2031C58.4774 74.0879 58.343 73.9242 58.2636 73.7326C58.1843 73.541 58.1635 73.3302 58.204 73.1269C58.2444 72.9235 58.3443 72.7367 58.4909 72.59C58.6375 72.4434 58.8244 72.3436 59.0277 72.3031C59.2311 72.2627 59.4419 72.2834 59.6335 72.3628C59.8251 72.4421 59.9888 72.5765 60.104 72.7489C60.2192 72.9213 60.2807 73.124 60.2807 73.3314C60.2807 73.6095 60.1702 73.8761 59.9736 74.0728C59.777 74.2694 59.5103 74.3798 59.2323 74.3798ZM59.2323 72.4926C59.0664 72.4926 58.9042 72.5418 58.7663 72.634C58.6284 72.7262 58.5209 72.8572 58.4574 73.0104C58.3939 73.1637 58.3773 73.3323 58.4096 73.495C58.442 73.6577 58.5219 73.8072 58.6392 73.9245C58.7565 74.0418 58.9059 74.1217 59.0686 74.154C59.2313 74.1864 59.4 74.1698 59.5533 74.1063C59.7065 74.0428 59.8375 73.9353 59.9297 73.7974C60.0218 73.6595 60.071 73.4973 60.071 73.3314C60.0699 73.1097 59.9811 72.8974 59.8239 72.741C59.6667 72.5846 59.454 72.4968 59.2323 72.4968V72.4926Z" fill="white"/>
<path d="M59.2323 66.4016C59.0249 66.4016 58.8222 66.3401 58.6498 66.2249C58.4774 66.1097 58.343 65.9459 58.2636 65.7543C58.1843 65.5628 58.1635 65.352 58.204 65.1486C58.2444 64.9452 58.3443 64.7584 58.4909 64.6118C58.6375 64.4651 58.8244 64.3653 59.0277 64.3248C59.2311 64.2844 59.4419 64.3051 59.6335 64.3845C59.8251 64.4638 59.9888 64.5982 60.104 64.7706C60.2192 64.9431 60.2807 65.1458 60.2807 65.3531C60.2807 65.6312 60.1702 65.8979 59.9736 66.0945C59.777 66.2911 59.5103 66.4016 59.2323 66.4016ZM59.2323 64.5144C59.0664 64.5144 58.9042 64.5636 58.7663 64.6557C58.6284 64.7479 58.5209 64.8789 58.4574 65.0321C58.3939 65.1854 58.3773 65.3541 58.4096 65.5168C58.442 65.6795 58.5219 65.8289 58.6392 65.9462C58.7565 66.0635 58.9059 66.1434 59.0686 66.1758C59.2313 66.2081 59.4 66.1915 59.5533 66.128C59.7065 66.0645 59.8375 65.957 59.9297 65.8191C60.0218 65.6812 60.071 65.519 60.071 65.3531C60.0699 65.1314 59.9811 64.9191 59.8239 64.7627C59.6667 64.6064 59.454 64.5186 59.2323 64.5186V64.5144Z" fill="white"/>
<path d="M59.2323 58.4226C59.0249 58.4226 58.8222 58.3611 58.6498 58.2459C58.4774 58.1307 58.343 57.9669 58.2636 57.7753C58.1843 57.5838 58.1635 57.373 58.204 57.1696C58.2444 56.9662 58.3443 56.7794 58.4909 56.6328C58.6375 56.4861 58.8244 56.3863 59.0277 56.3458C59.2311 56.3054 59.4419 56.3261 59.6335 56.4055C59.8251 56.4848 59.9888 56.6192 60.104 56.7916C60.2192 56.9641 60.2807 57.1668 60.2807 57.3741C60.2807 57.6522 60.1702 57.9189 59.9736 58.1155C59.777 58.3121 59.5103 58.4226 59.2323 58.4226ZM59.2323 56.5354C59.0664 56.5354 58.9042 56.5846 58.7663 56.6767C58.6284 56.7689 58.5209 56.8999 58.4574 57.0531C58.3939 57.2064 58.3773 57.3751 58.4096 57.5378C58.442 57.7005 58.5219 57.8499 58.6392 57.9672C58.7565 58.0845 58.9059 58.1644 59.0686 58.1968C59.2313 58.2291 59.4 58.2125 59.5533 58.149C59.7065 58.0855 59.8375 57.978 59.9297 57.8401C60.0218 57.7022 60.071 57.54 60.071 57.3741C60.0699 57.1524 59.9811 56.9401 59.8239 56.7837C59.6667 56.6274 59.454 56.5396 59.2323 56.5396V56.5354Z" fill="white"/>
<path d="M25.5754 78.0159C22.4566 78.0159 19.6755 78.0159 17.2319 78.0159C13.1934 78.0159 10.0669 78.0054 7.93861 77.9949C4.34038 77.9761 4.34038 77.974 4.30054 77.8817L4.3236 77.7685L4.39909 77.8419L4.42425 77.7412C5.36365 77.8985 85.5396 77.7412 86.349 77.7412V77.9509C86.1393 77.9509 65.6424 77.9928 45.3971 78.0138C37.7771 78.0117 31.1468 78.0159 25.5754 78.0159Z" fill="black"/>
<path d="M81.5136 42.061H80.1611V77.6345H81.5136V42.061Z" fill="#B5A49C"/>
<path d="M9.73359 42.061H8.3811V77.6345H9.73359V42.061Z" fill="#B5A49C"/>
<path d="M0.0250686 42.061C-0.00281378 42.1578 -0.00762732 42.2597 0.011014 42.3586C0.0296554 42.4575 0.0712325 42.5507 0.132406 42.6306C0.19358 42.7105 0.272646 42.775 0.363254 42.8188C0.453862 42.8627 0.553487 42.8847 0.65413 42.883H87.2759C87.3765 42.8847 87.4762 42.8627 87.5668 42.8188C87.6574 42.775 87.7364 42.7105 87.7976 42.6306C87.8588 42.5507 87.9004 42.4575 87.919 42.3586C87.9376 42.2597 87.9328 42.1578 87.905 42.061H0.0250686Z" fill="#B5A49C"/>
<path d="M37.7205 40.6791H58.037L60.4841 28.7898H40.1675L37.7205 40.6791Z" fill="#1C0C00"/>
<path d="M39.3645 40.4211H56.6951C56.8379 40.4201 56.9761 40.3706 57.087 40.2807C57.1979 40.1907 57.2749 40.0658 57.3053 39.9263L59.2869 30.4379C59.3048 30.3472 59.3024 30.2536 59.28 30.1638C59.2576 30.0741 59.2156 29.9904 59.1572 29.9187C59.0987 29.847 59.0251 29.7891 58.9417 29.7491C58.8583 29.7091 58.7671 29.688 58.6746 29.6873H41.346C41.2033 29.6883 41.0651 29.7378 40.9542 29.8277C40.8433 29.9176 40.7663 30.0426 40.7359 30.1821L38.7543 39.6705C38.7365 39.7611 38.7388 39.8545 38.7611 39.9441C38.7834 40.0337 38.8251 40.1173 38.8834 40.1889C38.9416 40.2605 39.0149 40.3185 39.098 40.3586C39.1812 40.3988 39.2722 40.4201 39.3645 40.4211Z" fill="#2690AD"/>
<path d="M57.729 40.637H33.3528C33.1224 40.637 32.9355 40.8238 32.9355 41.0542V41.1633C32.9355 41.3937 33.1224 41.5806 33.3528 41.5806H57.729C57.9594 41.5806 58.1462 41.3937 58.1462 41.1633V41.0542C58.1462 40.8238 57.9594 40.637 57.729 40.637Z" fill="#1C0C00"/>
<path opacity="0.65" d="M47.5486 40.637H43.3633V41.1088H47.5486V40.637Z" fill="#ACA0B0"/>
<path d="M40.1758 34.7825C39.9983 35.5871 39.8798 36.4035 39.8215 37.2254C39.8067 37.3002 39.8073 37.3773 39.8231 37.4519C39.839 37.5265 39.8698 37.5971 39.9137 37.6594C39.9787 37.715 40.0591 37.7495 40.1442 37.7581C40.2292 37.7667 40.3149 37.7491 40.3897 37.7077C40.8259 37.5147 40.981 36.9863 41.0859 36.5208C41.2998 35.5744 41.5129 34.6301 41.7254 33.688C41.8219 33.2686 41.9351 32.8073 42.2727 32.5305C42.347 32.4618 42.4423 32.4204 42.5432 32.4131C42.6282 32.4191 42.7089 32.4523 42.7735 32.5078C42.8381 32.5634 42.8831 32.6382 42.9018 32.7213C43.0087 33.0966 42.8116 33.7131 42.7927 34.1178L42.7298 35.5751C42.7005 36.2042 42.6732 36.8186 42.6459 37.4393C42.6271 37.8586 43.0066 38.0243 43.1555 37.6657L44.8665 33.5412C44.9944 33.2371 45.309 33.3 45.3698 33.6397L45.7892 36.0113C45.85 36.3531 46.1666 36.4139 46.2903 36.1077L46.9592 34.4785C47.0955 34.1451 47.4436 34.2541 47.4688 34.6378L47.5883 36.4621C47.6155 36.8563 47.9783 36.9549 48.1062 36.6005L49.7669 31.9874C49.9137 31.5848 50.3331 31.7777 50.2828 32.2306L49.7774 36.6571C49.7271 37.1017 50.1423 37.303 50.2911 36.9046L50.8258 35.4703C50.9496 35.139 51.2893 35.2103 51.3375 35.5772L51.3689 35.8205C51.4172 36.179 51.7464 36.2566 51.8764 35.9421L52.0462 35.5227C52.1804 35.1914 52.5264 35.2963 52.5558 35.6737L52.5662 35.81C52.5956 36.1937 52.9458 36.2923 53.0779 35.9568L54.7093 31.7945C54.8623 31.4003 55.2775 31.6162 55.2167 32.0608L54.4618 37.6804C54.4031 38.1291 54.8246 38.343 54.9735 37.9404L55.3278 36.9947C55.4599 36.6362 55.8311 36.7557 55.8437 37.1604C55.8562 37.5651 56.2043 37.6804 56.349 37.3533L56.9047 36.0952C57.0745 35.7114 57.4813 35.9693 57.3995 36.4076C57.3423 36.6843 57.3037 36.9645 57.2842 37.2463" fill="white"/>
<path d="M52.8368 26.1538H51.8387C50.7408 26.1538 49.8508 27.0438 49.8508 28.1416V28.2213C49.8508 29.3192 50.7408 30.2092 51.8387 30.2092H52.8368C53.9346 30.2092 54.8246 29.3192 54.8246 28.2213V28.1416C54.8246 27.0438 53.9346 26.1538 52.8368 26.1538Z" fill="#1C0C00"/>
<path d="M52.254 29.5321C51.9863 29.5325 51.7245 29.4535 51.5018 29.305C51.2791 29.1566 51.1054 28.9454 51.0028 28.6982C50.9001 28.451 50.8732 28.1788 50.9253 27.9163C50.9774 27.6537 51.1063 27.4126 51.2955 27.2233C51.4848 27.034 51.726 26.9052 51.9886 26.853C52.2511 26.8009 52.5232 26.8279 52.7704 26.9305C53.0177 27.0331 53.2289 27.2068 53.3773 27.4295C53.5258 27.6523 53.6048 27.9141 53.6044 28.1817C53.6038 28.5397 53.4614 28.8829 53.2082 29.136C52.9551 29.3891 52.612 29.5316 52.254 29.5321ZM52.254 27.0389C52.0279 27.0385 51.8067 27.1052 51.6185 27.2305C51.4303 27.3558 51.2835 27.5342 51.1967 27.7429C51.1099 27.9517 51.0869 28.1816 51.1308 28.4034C51.1747 28.6252 51.2833 28.829 51.4431 28.9891C51.6028 29.1491 51.8064 29.2581 52.0282 29.3024C52.2499 29.3467 52.4798 29.3242 52.6887 29.2377C52.8977 29.1513 53.0763 29.0048 53.2019 28.8168C53.3276 28.6289 53.3947 28.4078 53.3947 28.1817C53.3941 27.8792 53.2738 27.5891 53.0601 27.375C52.8464 27.1609 52.5565 27.04 52.254 27.0389Z" fill="#1BD3E0"/>
<path d="M52.2518 27.9132C52.2522 28.0192 52.2211 28.1228 52.1625 28.2111C52.1039 28.2993 52.0205 28.3682 51.9227 28.4089C51.8249 28.4496 51.7172 28.4604 51.6133 28.4398C51.5094 28.4193 51.4139 28.3683 51.339 28.2934C51.2641 28.2185 51.2131 28.123 51.1925 28.0191C51.172 27.9152 51.1827 27.8075 51.2235 27.7097C51.2642 27.6119 51.3331 27.5285 51.4213 27.4699C51.5096 27.4113 51.6132 27.3802 51.7192 27.3806C51.8602 27.3812 51.9954 27.4375 52.0952 27.5372C52.1949 27.637 52.2512 27.7721 52.2518 27.9132Z" fill="#8D8794"/>
<path d="M51.5517 26.2694C51.5517 26.3901 51.5158 26.5082 51.4487 26.6086C51.3816 26.709 51.2861 26.7872 51.1745 26.8333C51.0629 26.8794 50.9401 26.8914 50.8217 26.8677C50.7032 26.844 50.5945 26.7856 50.5093 26.7001C50.424 26.6146 50.3661 26.5056 50.3428 26.3871C50.3195 26.2686 50.3318 26.1459 50.3783 26.0344C50.4249 25.9229 50.5034 25.8278 50.604 25.761C50.7046 25.6942 50.8228 25.6588 50.9436 25.6592C51.0236 25.6592 51.1029 25.675 51.1768 25.7057C51.2507 25.7364 51.3178 25.7813 51.3743 25.838C51.4308 25.8947 51.4756 25.962 51.506 26.036C51.5364 26.11 51.552 26.1893 51.5517 26.2694Z" fill="#DB5A5A"/>
<path d="M21.7005 53.0652H21.2811V80.3937H21.7005V53.0652Z" fill="black"/>
<path d="M29.2009 79.6747L21.5452 72.2371L14.051 79.5175L13.7574 79.2176L21.5452 71.6521L29.4945 79.3749L29.2009 79.6747Z" fill="black"/>
<path d="M27.8862 79.3724C27.8779 79.6528 27.9534 79.9294 28.1032 80.1666C28.253 80.4038 28.4701 80.5909 28.7269 80.704C28.9836 80.817 29.2683 80.8509 29.5444 80.8012C29.8205 80.7514 30.0755 80.6204 30.2767 80.4249C30.4779 80.2294 30.6162 79.9783 30.6738 79.7038C30.7314 79.4292 30.7057 79.1437 30.6001 78.8838C30.4945 78.6239 30.3137 78.4014 30.0809 78.2449C29.848 78.0884 29.5738 78.005 29.2932 78.0053C28.9254 78.0002 28.5707 78.1414 28.3069 78.3977C28.043 78.654 27.8918 79.0046 27.8862 79.3724Z" fill="black"/>
<path d="M13.9043 80.7353C14.6826 80.7353 15.3134 80.1223 15.3134 79.3661C15.3134 78.6099 14.6826 77.9968 13.9043 77.9968C13.1261 77.9968 12.4952 78.6099 12.4952 79.3661C12.4952 80.1223 13.1261 80.7353 13.9043 80.7353Z" fill="black"/>
<path d="M21.3818 82C22.16 82 22.7909 81.387 22.7909 80.6307C22.7909 79.8745 22.16 79.2615 21.3818 79.2615C20.6035 79.2615 19.9727 79.8745 19.9727 80.6307C19.9727 81.387 20.6035 82 21.3818 82Z" fill="black"/>
<path d="M17.8652 61.9517C13.5016 59.6745 9.61822 56.2293 7.42909 51.763C6.29887 49.4564 6.38065 47.2254 5.6132 44.8915C4.68638 42.0733 3.0655 39.1587 3.30664 36.114C3.56455 32.91 5.96757 30.0834 8.81092 28.5842C11.6543 27.0849 15.1015 26.9234 18.1839 27.823C21.2663 28.7226 24.0028 30.6202 26.2045 32.9603C28.9451 35.8792 31.2831 38.2319 34.8541 40.14C39.1338 42.4277 43.944 44.8223 45.7012 49.3453C47.2969 53.451 45.6886 58.3723 42.4364 61.3415C39.1841 64.3107 34.5857 65.4996 30.1843 65.3046C25.8843 65.0881 21.6819 63.9443 17.8652 61.9517Z" fill="#AD3131"/>
<path d="M33.2332 35.4304C34.3256 36.6194 35.1709 38.0136 35.7201 39.5319C36.0325 40.3979 38.3517 41.9748 37.6996 42.6227C37.2236 43.0966 34.2041 43.4614 33.5436 43.344C31.3481 42.9498 28.878 39.9492 28.2594 37.7768C27.9596 36.7284 28.2301 35.4703 29.0856 34.7762C29.7271 34.3118 30.5018 34.0676 31.2936 34.08C32.0485 34.08 32.5517 34.7322 33.0718 35.2669L33.2332 35.4304Z" fill="#D98C73"/>
<path d="M76.1185 39.4481C76.0892 39.3055 76.064 39.1629 76.0326 39.0287C75.9026 38.4206 75.6426 36.9633 74.8604 37.0241C71.5977 37.282 68.3832 37.5064 65.1205 37.3512L54.9276 36.8626C53.779 36.7731 52.6248 36.7844 51.4782 36.8962C50.3575 37.0723 49.2539 37.3445 48.1798 37.7098C43.5513 39.1357 38.9305 40.5951 34.3174 42.088L30.824 43.2246C29.9853 43.4992 28.9788 43.6649 28.3204 44.2856C27.0874 45.4493 26.0138 46.9591 26.0369 48.7163C26.0369 48.8379 26.0432 48.9595 26.0557 49.0811C26.2025 50.7733 27.7961 52.8827 28.9746 54.0486C29.7043 54.7699 30.5808 55.399 31.5915 55.5793C32.3736 55.7177 33.1746 55.5793 33.9505 55.4137C37.5956 54.6259 41.081 53.2264 44.2587 51.2744C47.2048 49.4711 50.7422 48.2864 54.0762 47.303C56.9846 46.4474 60.1572 46.3279 62.9942 45.3172C65.4098 44.4617 67.8024 43.5454 70.1509 42.5158C71.6438 41.8616 73.1165 41.1626 74.569 40.4189C75.1218 40.1572 75.6419 39.8313 76.1185 39.4481Z" fill="#E3BD72"/>
<path d="M23.099 29.1167C24.6276 28.7729 26.3492 28.9553 27.8463 29.381C29.117 29.7416 30.6855 30.7083 31.2852 31.9182C31.3533 32.1247 31.4912 32.3012 31.6752 32.4172C31.7549 32.4508 31.8451 32.4592 31.9268 32.4906C32.0882 32.5769 32.2198 32.7099 32.3043 32.8722C32.4259 33.0631 32.5496 33.2539 32.6733 33.4447C33.0557 34.0474 33.4908 34.6151 33.9734 35.1411C33.0885 36.158 31.4299 36.7347 30.1697 37.1226C28.7459 37.5629 27.1585 37.7013 25.7767 37.0492C24.6171 36.504 23.6673 35.6045 22.7383 34.7196C22.2477 34.252 21.5368 33.7718 21.2433 33.1616C20.9665 32.5892 20.9686 31.7819 21 31.1612C21.0567 29.9911 21.9457 29.3789 23.099 29.1167Z" fill="#503444"/>
<path d="M15.7999 33.3209C15.1561 32.8135 14.1643 33.2266 13.4304 32.8638C13.0383 32.6688 6.96156 31.2094 6.67009 31.4233C8.58663 30.0184 10.2536 28.8462 11.5935 26.8102C11.7623 26.5184 11.9744 26.2539 12.2226 26.0259C12.4501 25.8604 12.6974 25.7237 12.9586 25.6191C13.8875 25.1851 14.8458 24.5351 15.3386 23.6103C15.6803 22.9813 16.2318 21.6644 14.9926 21.6833C14.6617 21.7108 14.3403 21.8072 14.049 21.9664C9.20521 24.1933 4.47257 26.5501 0.977087 30.725C-1.06527 33.1595 1.10919 34.8642 3.19977 36.1203C5.08695 37.2589 7.2027 37.976 9.32264 38.5568C11.1176 39.0496 12.9439 39.4082 14.7745 39.7562C15.1645 38.3555 14.7913 35.9567 14.8835 34.7028C14.9653 33.5222 16.7036 34.0255 15.7999 33.3209Z" fill="#D98C73"/>
<path d="M82.9291 38.7227C83.2625 38.3033 83.2877 37.8168 82.5706 37.3031C82.1637 37.0395 81.6797 36.9213 81.1971 36.9676C80.4566 37.0324 79.7401 37.2624 79.1002 37.6407C78.5613 37.9363 77.9805 38.1586 77.4605 38.4668C76.9948 38.7346 76.5602 39.0532 76.1646 39.4167C75.8123 39.7459 75.4831 40.18 75.5356 40.6602C75.588 41.1403 75.9549 41.4591 76.3407 41.7086C76.6351 41.9227 76.9858 42.0459 77.3493 42.063C77.741 42.0197 78.1146 41.8752 78.4334 41.6436C79.2806 41.1431 80.1193 40.6273 80.9497 40.0961C81.4382 39.7837 82.472 39.3056 82.9291 38.7227Z" fill="#CC896F"/>
<path d="M83.6735 38.7687L83.7511 38.6617C84.6821 37.2778 83.4639 35.097 82.9564 33.7655C82.3981 32.2909 81.6839 30.8801 80.826 29.5571C80.6855 29.3474 80.5031 29.1042 80.2452 29.0958C79.8593 29.0811 79.6727 29.5592 79.6161 29.9345C79.4124 31.4967 79.392 33.0772 79.5553 34.6441C79.5826 34.9733 80.1844 38.4185 79.0479 38.2319C79.9369 38.3723 81.237 39.0706 81.3859 40.054C81.8407 39.9401 82.278 39.7651 82.6859 39.534C83.0668 39.3536 83.4038 39.0924 83.6735 38.7687Z" fill="black"/>
<path d="M41.8114 58.9531C46.9173 56.8059 52.7844 51.7629 58.62 53.3817C62.0169 54.3232 63.5644 53.3377 66.456 51.7189C68.4585 50.5971 70.8216 50.2406 72.799 49.0789C75.3152 47.6111 77.1689 44.8852 80.0311 44.3736C79.2322 41.6958 77.8797 39.4438 76.6887 36.9087C72.0861 38.496 67.993 40.0414 63.0779 41.4841C56.5776 43.3943 49.7879 45.3234 43.1115 47.0072C39.6167 47.8879 36.1128 48.7092 32.5999 49.471C29.421 50.1546 27.7771 51.6832 27.0599 55.0655C26.5504 57.4685 27.5842 59.4689 29.6559 60.7585C30.5827 61.3393 31.6919 61.5721 32.7844 61.6245C35.9675 61.7776 38.901 60.1777 41.8114 58.9531Z" fill="#E0BF6B"/>
<path d="M81.042 35.1475C82.5727 34.3087 84.1726 33.1282 85.9466 32.8933C86.1981 32.8376 86.4612 32.8733 86.6889 32.994C86.8441 33.107 86.9558 33.2698 87.0055 33.4553C87.1795 34.0508 86.8839 34.6799 86.5274 35.1873C85.8753 36.1162 84.9694 36.6551 84.1726 37.4205C83.2919 38.2592 82.1911 38.9239 81.2013 39.6369C80.3248 40.2659 79.2177 40.9285 78.2364 40.4756C77.0978 39.9598 76.7832 38.037 77.4815 37.0514C78.1797 36.0659 80.046 35.6948 81.042 35.1475Z" fill="#1F1F1F"/>
<path d="M79.8804 36.9338C79.7803 36.7814 79.6462 36.6541 79.4887 36.5621C79.3312 36.4701 79.1545 36.4157 78.9725 36.4033C78.5175 36.3635 78.0687 36.5061 77.6242 36.613C76.7456 36.8122 75.8398 36.8542 74.9591 37.0324C74.0784 37.2106 73.1914 37.5818 72.619 38.2758C72.2763 38.6938 72.0673 39.2053 72.0193 39.7436C71.9731 40.2532 72.1052 40.8193 72.512 41.1276C73.0593 41.547 73.8372 41.3373 74.4873 41.1276L77.5403 40.1106C78.4147 39.8212 79.3457 39.6283 79.8741 38.7896C80.0453 38.5106 80.1364 38.1899 80.1375 37.8626C80.1386 37.5353 80.0497 37.214 79.8804 36.9338Z" fill="#CC896F"/>
<path d="M31.954 41.9621V41.9349C31.8953 41.7021 31.7653 41.4442 31.5347 41.4022C31.4637 41.3994 31.3933 41.3882 31.325 41.3687C31.2739 41.3361 31.2308 41.2924 31.1988 41.2408C31.1669 41.1893 31.1469 41.1312 31.1405 41.0709C30.8721 40.0036 30.7945 38.9049 30.5491 37.8397C30.287 36.6948 29.8886 35.5583 29.5699 34.426C29.4147 33.8787 29.2617 33.3272 29.0729 32.7904C28.7694 31.9368 28.3069 31.1485 27.71 30.4671C27.1755 29.8471 26.4826 29.384 25.7054 29.1272C23.3128 28.366 21.346 29.6912 19.2176 30.6453C18.2573 31.0647 17.2697 31.5134 16.2191 31.5742C15.7997 31.5973 15.3636 31.5742 15.0113 31.7839C14.7425 31.9805 14.5294 32.2435 14.3927 32.5472C12.9899 35.0739 12.0904 37.6447 12.4238 40.5803C12.7572 43.5159 14.4892 46.0007 15.6823 48.6197C16.7312 50.8639 18.1242 52.9305 19.8111 54.7446C20.6205 55.6274 21.4886 56.571 22.4846 57.2441C23.3485 57.827 24.1285 58.5022 25.2315 58.54C25.4285 58.5239 25.6265 58.5563 25.8081 58.6343C26.3177 58.9321 25.9822 59.7813 26.3218 60.2636C26.6343 60.7081 27.3242 60.6033 27.8148 60.3685C29.3309 59.645 30.394 58.1982 31.0608 56.657C31.7276 55.1158 32.0547 53.453 32.4971 51.8342C33.1933 49.2949 34.1914 46.6948 33.7154 44.1072C33.5393 43.1531 32.8536 43.1196 32.2329 42.587C32.0782 42.4121 31.9809 42.194 31.954 41.9621Z" fill="#503444"/>
<path d="M15.0807 27.1961C15.2589 27.4792 16.2696 27.67 16.5841 27.735C17.073 27.8431 17.5807 27.8324 18.0645 27.7036C19.3436 27.3534 20.4088 26.6132 20.5808 25.2188C20.6347 24.5522 20.5701 23.8813 20.39 23.2372C20.1488 22.2517 19.0522 19.8529 18.2595 19.2175C17.5424 18.6388 17.2405 19.8361 16.3724 20.1171C15.6091 20.3624 15.0073 20.5218 14.4411 21.1215C13.9115 21.6472 13.5967 22.3515 13.5583 23.0967C13.5583 23.2959 13.5583 23.4909 13.5772 23.6797C13.6835 24.2331 13.8314 24.7778 14.0197 25.3089C14.1976 25.7365 14.4036 26.1519 14.6361 26.5524C14.7976 26.7621 14.9423 26.978 15.0807 27.1961Z" fill="#D98C73"/>
<path d="M15.3238 31.7003C16.2374 32.101 17.2288 32.293 18.2259 32.2623C18.6474 32.2434 19.065 32.173 19.4693 32.0526C19.8067 31.9173 20.1269 31.7428 20.4234 31.5326C21.038 31.1031 21.5 30.4891 21.7423 29.7796C21.3023 29.5398 20.9509 29.1649 20.74 28.7102C20.4938 28.2335 20.3132 27.7256 20.2032 27.2004C20.1592 27.0138 20.0481 25.7431 19.9202 25.6865C19.882 25.6704 19.8418 25.6598 19.8006 25.655C19.591 25.6278 19.3813 25.7808 19.203 25.9109C18.5381 26.3989 17.738 26.6685 16.9132 26.6825C16.5184 26.6857 16.1241 26.6541 15.7348 26.5881C15.5125 26.5546 14.9443 26.2778 14.7388 26.4078C14.7178 26.4183 14.7115 26.4393 14.701 26.4581C15.1561 27.538 15.7746 28.404 15.8355 29.6328C15.8666 30.086 15.8133 30.5411 15.6782 30.9748C15.6363 31.247 15.5127 31.5 15.3238 31.7003Z" fill="#D98C73"/>
<path d="M17.2278 18.6115C16.7141 18.6414 16.2039 18.7165 15.7034 18.8358C15.3511 18.8986 15.0052 18.9926 14.6696 19.1168C14.4203 19.2263 14.1786 19.3524 13.9462 19.4943L13.1703 19.9472C13.166 19.7587 13.1155 19.5742 13.0233 19.4098C12.9311 19.2454 12.8 19.1061 12.6415 19.0041C12.483 18.9021 12.302 18.8405 12.1141 18.8247C11.9263 18.8089 11.7375 18.8393 11.5641 18.9134C11.0986 19.1231 10.8156 19.5907 10.6289 20.0625C10.4801 20.442 10.3731 20.8866 10.5744 21.2409C10.7123 21.4522 10.9123 21.6156 11.1469 21.7086C11.2056 21.7358 11.8074 21.9602 11.8053 21.9728C11.5928 23.0045 11.769 24.0784 12.3001 24.9881C12.8432 25.8772 13.7011 26.5292 14.7032 26.8144C14.7443 26.8325 14.7891 26.8405 14.8339 26.838C14.8787 26.8354 14.9223 26.8223 14.9611 26.7998C15.0617 26.7117 14.9988 26.5502 14.9401 26.4307C14.7011 25.9442 14.4767 24.921 14.9946 24.5309C15.3511 24.2604 14.9946 23.8138 14.9296 23.5119C14.8185 23.0715 14.8835 22.8304 15.0114 22.3754C15.0214 22.3061 15.0584 22.2436 15.1141 22.2013C15.1708 22.1835 15.2315 22.1835 15.2882 22.2013C16.4582 22.3775 17.6954 21.6918 18.4062 20.8048C18.7417 20.3854 19.05 19.8423 18.8571 19.337C18.6641 18.8316 18.1148 18.6597 17.5989 18.622C17.4836 18.6115 17.3557 18.6073 17.2278 18.6115Z" fill="black"/>
<path d="M15.0784 24.1599C14.9387 24.001 14.7534 23.889 14.5478 23.8391C14.397 23.7906 14.2362 23.7826 14.0813 23.8157C13.9264 23.8488 13.7829 23.9219 13.6651 24.0278C13.5059 24.1738 13.3925 24.3629 13.3389 24.5722C13.2853 24.7814 13.2937 25.0017 13.3631 25.2063C13.6672 26.1289 14.9064 26.2212 15.288 25.3803C15.372 25.1779 15.3968 24.9558 15.3597 24.7398C15.3226 24.5238 15.2251 24.3227 15.0784 24.1599Z" fill="#D98C73"/>
<path d="M14.4474 25.4413C14.3131 25.4624 14.1759 25.4293 14.066 25.3493C13.9561 25.2693 13.8825 25.1488 13.8613 25.0145C13.8402 24.8802 13.8733 24.743 13.9533 24.6331C14.0333 24.5232 14.1537 24.4496 14.288 24.4285" fill="black"/>
<mask id="mask0_28_9725" style="mask-type:luminance" maskUnits="userSpaceOnUse" x="13" y="25" width="13" height="13">
<path d="M25.3593 29.8086C25.3425 29.775 25.3216 29.7415 25.3027 29.7079C24.5751 29.146 23.5644 29.9176 22.7697 30.0476C22.6154 30.0707 22.4585 30.0707 22.3042 30.0476H22.2455C21.9135 29.9813 21.6095 29.8161 21.3732 29.5737C20.3436 28.5588 20.1633 27.0847 19.92 25.6987C19.8819 25.6826 19.8416 25.672 19.8005 25.6672C19.5908 25.64 19.3811 25.7931 19.2029 25.9231C18.5364 26.4066 17.7365 26.6718 16.9131 26.6821C16.5183 26.6853 16.124 26.6537 15.7347 26.5878C15.5124 26.5542 14.9441 26.2774 14.7387 26.4074C14.7177 26.4179 14.7114 26.4389 14.7009 26.4578C15.1559 27.5377 15.7745 28.4037 15.8353 29.6324C15.8665 30.0856 15.8131 30.5407 15.6781 30.9744C15.6338 31.254 15.5033 31.5128 15.3048 31.7146C15.2479 31.7747 15.1862 31.8301 15.1203 31.8803C15.0972 31.9054 15.0762 31.9306 15.0511 31.9558C15.0245 31.9792 14.9918 31.9945 14.9567 31.9998C14.5374 32.2892 14.032 32.5114 13.8957 32.9895C13.844 33.2207 13.8534 33.4614 13.923 33.6878C14.3423 35.3653 15.9674 36.7534 17.5086 37.395C18.6808 37.8857 20.1968 38.0241 21.3941 37.5523C22.5306 37.1099 23.3484 36.1537 24.0005 35.1577C24.2878 34.7215 24.5541 34.3001 24.7911 33.8681C25.4998 32.5639 26.0177 31.3162 25.3845 29.8841L25.3593 29.8086Z" fill="white"/>
</mask>
<g mask="url(#mask0_28_9725)">
<path d="M17.9615 27.534L20.916 27.9995C20.7651 27.622 20.6267 27.2425 20.4967 26.8567C20.3855 26.517 20.352 26.3492 19.9997 26.5401C19.6474 26.7309 19.3895 26.9469 19.0498 27.1062C18.8213 27.209 18.2237 27.5801 17.9615 27.534Z" fill="black"/>
</g>
<path d="M18.7375 24.7593C18.8683 24.847 19.0198 24.899 19.1768 24.9101C19.3339 24.9211 19.4912 24.8908 19.6329 24.8222C19.7643 24.7434 19.8709 24.6293 19.9406 24.4929C20.0103 24.3564 20.0403 24.2032 20.0271 24.0505" fill="white"/>
<path d="M48.1316 45.7828C51.6313 44.8329 55.3532 46.3007 59.1234 46.3028C65.3249 46.3013 71.4649 45.0734 77.19 42.6899C76.8273 40.5322 75.739 38.7478 75.3783 36.609C75.3553 36.4769 75.3427 36.5314 75.2148 36.4895C75.0827 36.4573 74.9445 36.461 74.8143 36.4999C72.3316 36.9948 69.7818 37.0284 67.2655 37.2129C65.4182 37.3471 63.575 37.5631 61.734 37.779C59.417 38.0516 57.0873 38.3263 54.8332 38.9281" fill="#E3BD72"/>
<path d="M11.0421 40.8131C11.623 41.2241 12.1211 41.7414 12.5099 42.3375C12.7699 42.7569 12.946 43.2391 13.2312 43.6501C13.3465 43.8137 13.5185 43.9814 13.7156 43.9479C13.9441 43.9059 14.0322 43.6333 14.1098 43.4132C14.3677 42.6709 14.7242 42.3417 15.4476 42.3647C16.3896 42.4169 17.3337 42.3105 18.2406 42.0502C19.3373 40.27 19.6141 37.7579 19.4987 35.9693C19.4799 35.6673 19.4442 35.3046 19.3855 34.9208C18.9661 34.5015 18.5328 34.0954 18.0854 33.7026C17.6262 33.2979 17.8883 33.0106 17.3264 32.6269C16.7912 32.243 16.1774 31.983 15.5294 31.8657C13.4291 31.4198 11.2725 31.301 9.136 31.5134C8.98502 32.369 8.83475 33.2245 8.68517 34.08C8.5958 34.716 8.43977 35.3408 8.21966 35.9441C7.87787 36.7829 8.00998 37.7223 7.64722 38.5967L9.32471 39.6786C9.69796 39.9198 10.0712 40.1588 10.4402 40.4084C10.6395 40.53 10.8324 40.6684 11.0421 40.8131Z" fill="#503444"/>
<path d="M79.4378 35.8624L79.3875 35.7701C80.1612 35.3508 80.7441 35.1033 81.3585 34.8328C81.8555 34.6232 82.3671 34.3883 83.0067 34.0696L83.0528 34.1618C82.4111 34.4848 81.8974 34.7091 81.4004 34.9293C80.7882 35.1977 80.2073 35.4535 79.4378 35.8624Z" fill="#E0BF6B"/>
<path d="M81.4278 39.5696L81.3523 39.4983C81.778 39.0748 82.2484 38.6987 82.7551 38.3765C83.3009 38.0447 83.7889 37.6261 84.1998 37.1372L84.2837 37.2022C83.8655 37.698 83.3698 38.1228 82.8159 38.4603C82.3151 38.7797 81.8498 39.1516 81.4278 39.5696Z" fill="#E0BF6B"/>
<path d="M16.9133 32.5201C16.3008 32.3753 15.7038 32.1709 15.131 31.9099L15.1729 31.8135C15.74 32.0714 16.3305 32.2744 16.9364 32.4195L16.9133 32.5201Z" fill="#1C0C00"/>
<path d="M26.3492 59.7479L26.2506 59.7122C26.5526 58.8735 27.1229 58.1417 27.6744 57.4392C28.3349 56.6005 29.0185 55.7261 29.2051 54.6755L29.3099 54.6944C29.117 55.7701 28.4251 56.6508 27.7562 57.5042C27.2047 58.1941 26.6385 58.9217 26.3492 59.7479Z" fill="#1C0C00"/>
<path d="M30.0904 51.1343L29.8458 52.8574L29.9496 52.8722L30.1943 51.149L30.0904 51.1343Z" fill="#1C0C00"/>
<path d="M29.8699 48.5758L29.7734 48.5359C30.073 47.6937 30.4566 46.8837 30.9183 46.1182L31.0379 45.9379C31.1658 45.758 31.2801 45.5688 31.3796 45.3717C31.5461 44.9503 31.6445 44.5051 31.6711 44.0528C31.7014 43.7073 31.761 43.365 31.8493 43.0295L31.95 43.0589C31.8627 43.3887 31.8045 43.7255 31.776 44.0654C31.7492 44.5289 31.6472 44.985 31.474 45.4158C31.3728 45.6179 31.2564 45.8121 31.1259 45.9966L31.0064 46.1748C30.5479 46.935 30.1672 47.7393 29.8699 48.5758Z" fill="#1C0C00"/>
<path d="M14.7157 42.4405C14.4579 41.9721 14.1337 41.5434 13.7532 41.1677C13.372 40.7962 12.8805 40.5585 12.3525 40.4904V40.3877C12.9052 40.456 13.4205 40.7026 13.8203 41.0901C14.2081 41.4726 14.5386 41.9091 14.8017 42.386L14.7157 42.4405Z" fill="#1C0C00"/>
<path d="M30.6813 35.418L30.0564 35.3551L30.4821 31.1194L26.2988 26.3449L26.7706 25.9297L31.1363 30.9098L30.6813 35.418Z" fill="black"/>
<path d="M24.3303 19.857L24.4066 19.8274C24.899 19.636 25.4473 19.648 25.9308 19.8609C26.4144 20.0737 26.7935 20.47 26.9849 20.9624L28.2725 24.2752C28.4637 24.7671 28.4517 25.3148 28.239 25.7978C28.0264 26.2809 27.6306 26.6596 27.1387 26.8508L27.0625 26.8805C26.57 27.0718 26.0217 27.0598 25.5382 26.8469C25.0547 26.6341 24.6755 26.2378 24.4841 25.7454L23.1965 22.4326C23.0053 21.9407 23.0173 21.393 23.23 20.91C23.4426 20.4269 23.8384 20.0482 24.3303 19.857Z" fill="black"/>
<path d="M23.9209 24.3003L24.4703 25.7115C24.5602 25.9688 24.701 26.2054 24.8842 26.4071C25.0675 26.6089 25.2895 26.7717 25.5369 26.8859C25.7844 27.0001 26.0523 27.0634 26.3247 27.0719C26.5972 27.0804 26.8685 27.0341 27.1226 26.9356C27.3768 26.8371 27.6085 26.6884 27.804 26.4985C27.9995 26.3086 28.1548 26.0814 28.2607 25.8302C28.3665 25.579 28.4208 25.3092 28.4202 25.0366C28.4196 24.7641 28.3642 24.4944 28.2572 24.2437L27.7078 22.8325L23.9209 24.3003Z" fill="#DB5A5A"/>
<path d="M26.2863 28.1206C25.1036 28.1206 24.0217 27.4748 23.6023 26.397L22.8243 24.3986L28.5823 22.1592L29.3582 24.1575C29.9181 25.6001 29.0835 27.2735 27.4962 27.892C27.1104 28.0422 26.7002 28.1197 26.2863 28.1206ZM23.3674 24.644L23.9965 26.2523C24.4746 27.4789 25.978 28.043 27.3515 27.5104C28.7249 26.9778 29.4484 25.5456 28.9745 24.3211L28.3454 22.7128L23.3674 24.644Z" fill="#E0BF6B"/>
<path d="M28.9965 21.7899L22.0093 24.4946L22.2886 25.2162L29.2758 22.5114L28.9965 21.7899Z" fill="#E0BF6B"/>
<path d="M23.8769 21.8995C23.894 21.9436 23.8976 21.9917 23.8873 22.0378C23.877 22.0839 23.8533 22.1259 23.8192 22.1585C23.785 22.1912 23.742 22.213 23.6955 22.2212C23.649 22.2294 23.6011 22.2236 23.5578 22.2046C23.5146 22.1856 23.478 22.1542 23.4525 22.1145C23.4271 22.0747 23.414 22.0282 23.415 21.981C23.4159 21.9338 23.4308 21.8879 23.4578 21.8492C23.4848 21.8104 23.5226 21.7805 23.5666 21.7632C23.6258 21.7406 23.6916 21.7422 23.7497 21.7677C23.8078 21.7932 23.8535 21.8406 23.8769 21.8995Z" fill="#DB5A5A"/>
<path d="M24.7891 21.5452C24.8062 21.5892 24.8098 21.6373 24.7995 21.6834C24.7892 21.7295 24.7655 21.7715 24.7314 21.8042C24.6973 21.8368 24.6542 21.8586 24.6077 21.8668C24.5612 21.875 24.5133 21.8692 24.4701 21.8502C24.4268 21.8313 24.3902 21.7999 24.3648 21.7601C24.3393 21.7203 24.3263 21.6739 24.3272 21.6266C24.3281 21.5794 24.343 21.5335 24.37 21.4948C24.397 21.456 24.4349 21.4261 24.4788 21.4089C24.5081 21.3974 24.5394 21.3918 24.5709 21.3924C24.6024 21.393 24.6335 21.3998 24.6623 21.4125C24.6912 21.4252 24.7172 21.4434 24.739 21.4662C24.7607 21.489 24.7778 21.5158 24.7891 21.5452Z" fill="#DB5A5A"/>
<path d="M25.7013 21.1907C25.7183 21.2347 25.7219 21.2828 25.7116 21.3289C25.7013 21.375 25.6776 21.417 25.6435 21.4497C25.6094 21.4823 25.5663 21.5041 25.5198 21.5123C25.4733 21.5205 25.4254 21.5147 25.3822 21.4958C25.3389 21.4768 25.3023 21.4454 25.2769 21.4056C25.2514 21.3658 25.2384 21.3194 25.2393 21.2722C25.2402 21.2249 25.2551 21.1791 25.2821 21.1403C25.3091 21.1015 25.347 21.0716 25.3909 21.0544C25.4202 21.0429 25.4515 21.0373 25.483 21.0379C25.5145 21.0385 25.5456 21.0454 25.5744 21.058C25.6033 21.0707 25.6293 21.0889 25.6511 21.1117C25.6728 21.1345 25.6899 21.1613 25.7013 21.1907Z" fill="#DB5A5A"/>
<path d="M26.6155 20.8362C26.6381 20.8957 26.6362 20.9617 26.6103 21.0199C26.5843 21.078 26.5365 21.1235 26.4771 21.1465C26.433 21.1632 26.3849 21.1664 26.3389 21.1558C26.293 21.1452 26.2512 21.1212 26.2188 21.0869C26.1864 21.0526 26.165 21.0094 26.1571 20.9629C26.1492 20.9164 26.1552 20.8686 26.1744 20.8255C26.1936 20.7824 26.2252 20.746 26.265 20.7208C26.3049 20.6956 26.3514 20.6828 26.3985 20.6839C26.4457 20.685 26.4914 20.7001 26.5301 20.7272C26.5687 20.7543 26.5984 20.7922 26.6155 20.8362Z" fill="#DB5A5A"/>
<path d="M24.1455 22.5894C24.1631 22.6338 24.1671 22.6825 24.157 22.7292C24.1469 22.776 24.1231 22.8187 24.0887 22.8518C24.0543 22.885 24.0108 22.9073 23.9637 22.9157C23.9166 22.9241 23.8681 22.9183 23.8244 22.8991C23.7806 22.8798 23.7435 22.848 23.7178 22.8077C23.6922 22.7673 23.6791 22.7203 23.6802 22.6725C23.6814 22.6246 23.6967 22.5783 23.7243 22.5392C23.7519 22.5001 23.7905 22.4702 23.8351 22.4531C23.8644 22.4416 23.8958 22.4359 23.9272 22.4366C23.9587 22.4372 23.9898 22.444 24.0186 22.4567C24.0475 22.4694 24.0735 22.4876 24.0953 22.5104C24.1171 22.5331 24.1341 22.56 24.1455 22.5894Z" fill="#DB5A5A"/>
<path d="M25.0574 22.235C25.0741 22.2791 25.0773 22.3272 25.0667 22.3732C25.0561 22.4191 25.0321 22.4609 24.9978 22.4933C24.9634 22.5256 24.9203 22.5471 24.8738 22.555C24.8273 22.5629 24.7795 22.5569 24.7364 22.5377C24.6933 22.5185 24.6569 22.4869 24.6317 22.4471C24.6065 22.4072 24.5937 22.3607 24.5948 22.3136C24.5959 22.2664 24.611 22.2207 24.6381 22.182C24.6652 22.1434 24.7031 22.1137 24.7471 22.0966C24.7765 22.0851 24.808 22.0796 24.8396 22.0804C24.8711 22.0812 24.9023 22.0882 24.9311 22.101C24.96 22.1139 24.986 22.1324 25.0077 22.1554C25.0294 22.1784 25.0463 22.2054 25.0574 22.235Z" fill="#DB5A5A"/>
<path d="M25.9697 21.8785C25.9867 21.9226 25.9903 21.9707 25.98 22.0168C25.9698 22.0629 25.9461 22.1049 25.9119 22.1375C25.8778 22.1702 25.8348 22.192 25.7883 22.2002C25.7417 22.2084 25.6938 22.2026 25.6506 22.1836C25.6074 22.1646 25.5707 22.1333 25.5453 22.0935C25.5199 22.0537 25.5068 22.0072 25.5077 21.96C25.5087 21.9128 25.5236 21.8669 25.5506 21.8282C25.5775 21.7894 25.6154 21.7595 25.6594 21.7422C25.7186 21.7196 25.7844 21.7212 25.8425 21.7467C25.9006 21.7722 25.9463 21.8196 25.9697 21.8785Z" fill="#DB5A5A"/>
<path d="M26.8817 21.5239C26.8987 21.568 26.9023 21.6161 26.892 21.6622C26.8818 21.7083 26.858 21.7503 26.8239 21.7829C26.7898 21.8156 26.7467 21.8373 26.7002 21.8455C26.6537 21.8537 26.6058 21.848 26.5626 21.829C26.5194 21.81 26.4827 21.7786 26.4573 21.7388C26.4319 21.6991 26.4188 21.6526 26.4197 21.6054C26.4207 21.5582 26.4356 21.5123 26.4625 21.4736C26.4895 21.4348 26.5274 21.4049 26.5713 21.3876C26.6007 21.3761 26.632 21.3705 26.6635 21.3711C26.6949 21.3718 26.726 21.3786 26.7548 21.3913C26.7837 21.4039 26.8097 21.4222 26.8315 21.4449C26.8533 21.4677 26.8703 21.4946 26.8817 21.5239Z" fill="#DB5A5A"/>
<path d="M24.4138 23.2769C24.4364 23.3364 24.4345 23.4024 24.4086 23.4606C24.3827 23.5187 24.3348 23.5642 24.2755 23.5872C24.2313 23.6039 24.1832 23.6071 24.1373 23.5965C24.0913 23.5858 24.0495 23.5619 24.0172 23.5275C23.9848 23.4932 23.9633 23.4501 23.9554 23.4036C23.9475 23.3571 23.9535 23.3093 23.9728 23.2662C23.992 23.2231 24.0235 23.1867 24.0634 23.1615C24.1033 23.1363 24.1497 23.1234 24.1969 23.1246C24.244 23.1257 24.2898 23.1408 24.3284 23.1679C24.367 23.195 24.3967 23.2329 24.4138 23.2769Z" fill="#DB5A5A"/>
<path d="M25.3258 22.9227C25.3432 22.9671 25.3471 23.0157 25.337 23.0623C25.3268 23.1089 25.3031 23.1514 25.2687 23.1845C25.2344 23.2176 25.191 23.2398 25.144 23.2483C25.0971 23.2567 25.0487 23.251 25.005 23.2319C24.9612 23.2129 24.9241 23.1813 24.8984 23.1411C24.8726 23.1009 24.8594 23.0541 24.8603 23.0064C24.8612 22.9587 24.8762 22.9123 24.9035 22.8732C24.9307 22.834 24.969 22.8038 25.0134 22.7864C25.0729 22.7631 25.1392 22.7643 25.1978 22.7899C25.2564 22.8154 25.3024 22.8632 25.3258 22.9227Z" fill="#DB5A5A"/>
<path d="M26.238 22.5682C26.2556 22.6127 26.2596 22.6614 26.2495 22.7081C26.2394 22.7549 26.2157 22.7975 26.1812 22.8307C26.1468 22.8639 26.1033 22.8861 26.0562 22.8945C26.0092 22.9029 25.9607 22.8972 25.9169 22.8779C25.8731 22.8587 25.836 22.8269 25.8104 22.7866C25.7847 22.7462 25.7716 22.6991 25.7728 22.6513C25.7739 22.6035 25.7893 22.5571 25.8168 22.5181C25.8444 22.479 25.883 22.449 25.9277 22.4319C25.9869 22.4093 26.0527 22.4109 26.1108 22.4364C26.1689 22.4619 26.2146 22.5093 26.238 22.5682Z" fill="#DB5A5A"/>
<path d="M27.1503 22.2139C27.1618 22.2432 27.1674 22.2745 27.1668 22.306C27.1662 22.3375 27.1593 22.3685 27.1467 22.3974C27.134 22.4262 27.1158 22.4523 27.093 22.474C27.0702 22.4958 27.0434 22.5128 27.014 22.5242C26.9841 22.5381 26.9517 22.5456 26.9187 22.5465C26.8858 22.5473 26.853 22.5413 26.8224 22.529C26.7919 22.5167 26.7641 22.4982 26.741 22.4747C26.7178 22.4513 26.6997 22.4233 26.6878 22.3926C26.6759 22.3619 26.6704 22.329 26.6717 22.2961C26.673 22.2631 26.681 22.2308 26.6952 22.2011C26.7095 22.1714 26.7297 22.1449 26.7546 22.1233C26.7795 22.1017 26.8085 22.0854 26.84 22.0755C26.8995 22.0529 26.9655 22.0548 27.0236 22.0807C27.0818 22.1066 27.1273 22.1545 27.1503 22.2139Z" fill="#DB5A5A"/>
<path d="M33.0235 34.7533C32.5287 33.9565 31.3775 33.6482 30.2976 34.0697C29.2177 34.4912 28.574 35.4977 28.7459 36.4182L33.0235 34.7533Z" fill="black"/>
<path d="M36.519 49.6558L36.4917 49.5552L45.4957 47.2256C47.1312 46.8062 48.8255 46.3637 50.438 45.7745L50.7043 45.676C51.2367 45.4591 51.7886 45.2934 52.3524 45.1811C53.1912 45.0427 54.0425 45.1413 54.8687 45.2356L55.4663 45.3048C58.6808 45.676 62.0043 46.0597 65.2838 46.0681H65.3111C66.6384 46.0681 67.9678 45.8332 69.2553 45.6047C71.8366 45.1476 74.4975 44.6758 76.9068 43.5078C77.0536 43.4365 77.1165 43.3652 77.1165 43.2876C77.1153 43.2771 77.1112 43.2672 77.1045 43.259C77.0978 43.2508 77.0888 43.2447 77.0787 43.2415C77.0658 43.2349 77.0514 43.2314 77.0368 43.2314C77.0222 43.2314 77.0079 43.2349 76.9949 43.2415C76.9958 43.2456 76.9958 43.25 76.9949 43.2541L76.8921 43.273C76.8479 42.9596 76.8234 42.6437 76.8187 42.3273C76.7957 41.5955 76.7684 40.7651 76.2735 39.7754L76.3679 39.7292C76.8712 40.7378 76.9005 41.5808 76.9236 42.3231C76.9341 42.6083 76.9425 42.8808 76.9781 43.143C77.0281 43.13 77.0811 43.136 77.127 43.1597C77.1549 43.1714 77.1788 43.1909 77.1959 43.2158C77.213 43.2407 77.2225 43.27 77.2234 43.3002C77.2234 43.4617 77.0683 43.5581 76.9508 43.6148C74.5373 44.7953 71.8596 45.2692 69.27 45.7263C67.9804 45.9549 66.6447 46.1918 65.309 46.1918H65.2817C61.996 46.1918 58.6703 45.7997 55.4537 45.4264L54.854 45.3573C54.0383 45.265 53.1954 45.1664 52.3692 45.3048C51.8126 45.4159 51.2678 45.5795 50.742 45.7934L50.4736 45.892C48.8549 46.4833 47.1606 46.9215 45.5208 47.3451L36.519 49.6558Z" fill="#1C0C00"/>
<path d="M39.1401 38.4459L39.0835 38.2719C38.5924 36.7043 38.017 35.1643 37.3599 33.6588C36.6973 32.191 35.7662 31.1236 34.8059 29.8529C34.3026 29.1861 33.6526 28.3117 32.8893 27.9406C31.9667 27.4898 30.3731 27.5212 29.3729 27.6407C29.0416 27.6827 28.7438 27.6407 28.4167 27.7749C28.0889 27.9155 27.7831 28.1027 27.5088 28.3306C27.0894 28.6556 26.7036 29.0079 26.3135 29.3602C26.1332 29.5237 25.934 29.7607 26.0347 29.9892C26.0676 30.0484 26.1156 30.0978 26.1738 30.1324C26.232 30.167 26.2983 30.1856 26.366 30.1863C26.502 30.185 26.6357 30.1513 26.756 30.0878C26.9541 29.9941 27.1383 29.8735 27.3033 29.7292C27.5697 29.4732 27.8964 29.2886 28.2532 29.1924C28.151 29.2902 28.0409 29.3793 27.9239 29.4587C27.8713 29.5063 27.8293 29.5644 27.8005 29.6292C27.7717 29.694 27.7568 29.7642 27.7568 29.8351C27.7568 29.9061 27.7717 29.9762 27.8005 30.041C27.8293 30.1059 27.8713 30.1639 27.9239 30.2115C28.0345 30.2885 28.1699 30.3214 28.3035 30.3038C28.3592 30.2978 28.4145 30.2887 28.4691 30.2765L28.5614 30.2618C28.476 30.3437 28.4051 30.4394 28.3517 30.5449L28.3307 30.5617C28.2826 30.6035 28.249 30.6596 28.2347 30.7217C28.2204 30.7839 28.2261 30.849 28.2511 30.9077C28.2966 30.9983 28.3701 31.0718 28.4607 31.1174C28.6149 31.1951 28.7906 31.2187 28.9598 31.1845C28.9426 31.2243 28.9327 31.2669 28.9304 31.3103C28.9322 31.4055 28.9645 31.4977 29.0227 31.5733C29.0808 31.6488 29.1617 31.7036 29.2534 31.7296C29.6727 31.8806 30.197 31.7296 30.6163 31.6353C31.0613 31.5236 31.494 31.3676 31.908 31.1698C32.0244 31.2077 32.131 31.2707 32.2204 31.3543C32.6167 31.7338 32.7824 32.8871 32.948 33.4071C33.4821 35.05 33.8702 36.7369 34.1076 38.448C34.2439 39.4797 34.5165 40.3625 33.7784 41.2264C33.0005 42.1364 32.6188 42.5914 33.6505 43.512C34.0929 43.9041 34.5522 44.3088 35.1183 44.4828C35.4612 44.5731 35.819 44.5922 36.1695 44.5388C36.5201 44.4855 36.856 44.3608 37.1565 44.1725C37.7546 43.7942 38.2661 43.2941 38.6578 42.7047C39.6727 41.2662 39.6664 40.0773 39.1401 38.4459Z" fill="#D98C73"/>
<path d="M30.5178 38.0642C30.3594 37.4448 29.9883 36.9007 29.4694 36.5272L29.4065 36.4831C29.3024 36.419 29.2084 36.3399 29.1276 36.2483C29.0397 36.1211 28.9757 35.979 28.9389 35.8289C28.9221 35.7786 28.9074 35.7283 28.8885 35.68C28.7227 35.3127 28.4902 34.9793 28.2029 34.6966C28.1043 34.5876 27.9932 34.4869 27.9093 34.3611C27.6996 34.0969 27.2194 33.4154 27.4773 32.7759L27.5738 32.8157C27.3368 33.4028 27.7835 34.0445 27.9932 34.294C28.0854 34.4072 28.1861 34.5184 28.2846 34.6274C28.5814 34.9187 28.821 35.2629 28.9913 35.6423C29.0101 35.6926 29.0269 35.745 29.0437 35.7975C29.077 35.9312 29.1346 36.0577 29.2135 36.1707C29.2885 36.2524 29.3746 36.3229 29.4694 36.3804L29.5323 36.4244C30.0742 36.8117 30.4624 37.3774 30.6289 38.0223L30.5178 38.0642Z" fill="#1C0C00"/>
<path d="M34.5962 40.2344C34.2187 38.8421 33.8728 37.4204 33.5708 36.0092L33.6735 35.9883C33.9755 37.3974 34.3194 38.817 34.6989 40.2072L34.5962 40.2344Z" fill="#1C0C00"/>
<path d="M6.50864 43.4805C5.17084 40.9643 4.11821 39.0184 3.30881 36.2253C2.88944 38.2006 2.94606 39.5531 3.19349 41.5472C3.50382 44.0236 4.45161 46.5629 5.48117 48.8212C6.82956 51.7948 8.62655 54.5437 10.8093 56.9718C12.9502 59.3538 15.0974 60.5071 17.8653 61.9519C21.6824 63.9455 25.8856 65.09 30.1865 65.3069C34.5899 65.5019 39.1863 64.3129 42.4385 61.3438C42.892 60.9289 43.3126 60.4795 43.6967 59.9997C43.3402 60.4463 41.0043 60.4966 40.4276 60.5784C39.1548 60.7587 37.8715 60.8846 36.5862 60.9454C33.6659 61.0945 30.7388 60.8591 27.88 60.245C18.205 58.1251 10.9393 51.7695 6.50864 43.4805Z" fill="#DB5A5A"/>
<path d="M32.7174 63.2267L31.8913 63.0841C32.7615 58.1124 28.3748 54.5205 24.3425 52.9562C20.3102 51.392 15.5 51.327 10.7611 52.778L10.5157 51.9749C15.435 50.4714 20.4528 50.5406 24.6466 52.1741C28.9745 53.8432 33.6757 57.7476 32.7174 63.2267Z" fill="#DB5A5A"/>
<path d="M32.0361 18.6071C31.796 17.0175 30.9349 15.5881 29.6418 14.6328C28.3488 13.6775 26.7295 13.2743 25.1395 13.5117L25.108 13.302C26.7523 13.0568 28.4267 13.4743 29.7635 14.4627C31.1002 15.4511 31.99 16.9296 32.2374 18.5736L32.0361 18.6071Z" fill="black"/>
<path d="M29.7924 18.9449C29.6428 17.9493 29.104 17.0538 28.2944 16.4553C27.4848 15.8569 26.4706 15.6044 25.4749 15.7535L25.4435 15.5438C26.4942 15.3863 27.5645 15.6526 28.419 16.2841C29.2735 16.9156 29.8421 17.8606 30 18.9114L29.7924 18.9449Z" fill="black"/>
<path d="M27.9701 19.2176C27.8924 18.706 27.6151 18.2461 27.1988 17.9387C26.7825 17.6313 26.2613 17.5015 25.7495 17.5779L25.718 17.3682C25.9994 17.3257 26.2864 17.3393 26.5625 17.4081C26.8387 17.4768 27.0985 17.5995 27.327 17.7691C27.5556 17.9386 27.7484 18.1516 27.8944 18.3959C28.0404 18.6402 28.1366 18.9109 28.1776 19.1925L27.9701 19.2176Z" fill="black"/>
<path d="M26.4519 19.4459C26.4347 19.3368 26.3752 19.2388 26.2862 19.1733C26.2427 19.1403 26.193 19.1163 26.14 19.103C26.0871 19.0897 26.0319 19.0872 25.978 19.0957L25.9465 18.8861C26.1108 18.862 26.2779 18.9038 26.4114 19.0024C26.5449 19.101 26.6341 19.2483 26.6595 19.4124L26.4519 19.4459Z" fill="black"/>
<path d="M46.754 17.2632C47.2658 17.2632 47.6808 16.9299 47.6808 16.5188C47.6808 16.1077 47.2658 15.7744 46.754 15.7744C46.2421 15.7744 45.8271 16.1077 45.8271 16.5188C45.8271 16.9299 46.2421 17.2632 46.754 17.2632Z" fill="black"/>
<path d="M47.4775 16.4916L47.165 11.7065L47.2783 11.9162C47.3471 12.062 47.3849 12.2206 47.3894 12.3817C47.3929 12.5268 47.4264 12.6696 47.488 12.8011C47.5799 12.9321 47.7032 13.0381 47.8465 13.1093C47.9536 13.1715 48.0535 13.2454 48.1443 13.3295C48.4672 13.6587 48.442 14.1683 48.3665 14.6757L48.2617 14.661C48.333 14.1829 48.3603 13.6986 48.0688 13.4029C47.9842 13.3225 47.8906 13.2521 47.7899 13.1932C47.6318 13.1123 47.4969 12.9925 47.3978 12.8451C47.3708 12.7968 47.3497 12.7454 47.3349 12.6921L47.5823 16.479L47.4775 16.4916Z" fill="black"/>
<path d="M55.9152 13.3589C55.9152 13.7783 55.4958 14.1033 54.9883 14.1033C54.4809 14.1033 54.0615 13.7699 54.0615 13.3589C54.0615 12.9479 54.4809 12.6145 54.9883 12.6145C55.4958 12.6145 55.9152 12.9479 55.9152 13.3589Z" fill="black"/>
<path d="M55.7053 13.3317L55.3928 8.54663L55.506 8.75632C55.5749 8.90213 55.6127 9.06064 55.6172 9.22182C55.6212 9.36686 55.6547 9.50956 55.7157 9.6412C55.807 9.77335 55.9304 9.88014 56.0743 9.95153C56.1809 10.0104 56.2807 10.0807 56.3721 10.1612C56.695 10.4883 56.6698 11 56.5943 11.5074L56.4895 11.4927C56.5629 11.0126 56.588 10.5303 56.2966 10.2346C56.2124 10.1537 56.1188 10.0833 56.0177 10.0249C55.8596 9.94398 55.7247 9.82421 55.6256 9.67684C55.5986 9.62925 55.5775 9.57855 55.5627 9.52587L55.8101 13.3002L55.7053 13.3317Z" fill="black"/>
<path d="M44.16 19.771C44.16 20.1904 43.7407 20.5154 43.2332 20.5154C42.7258 20.5154 42.3064 20.182 42.3064 19.771C42.3064 19.36 42.7258 19.0266 43.2332 19.0266C43.7407 19.0266 44.16 19.36 44.16 19.771Z" fill="black"/>
<path d="M43.9631 19.7438L43.6506 14.9587L43.7639 15.1684C43.8327 15.3142 43.8705 15.4727 43.875 15.6339C43.878 15.7791 43.9116 15.922 43.9736 16.0533C44.0648 16.1855 44.1882 16.2923 44.3321 16.3636C44.4387 16.4225 44.5385 16.4928 44.6299 16.5733C44.9528 16.9004 44.9276 17.4121 44.8521 17.9195L44.7473 17.9048C44.8186 17.4247 44.8459 16.9424 44.5544 16.6467C44.4702 16.5658 44.3766 16.4954 44.2755 16.437C44.1174 16.3561 43.9825 16.2363 43.8834 16.089C43.8564 16.0406 43.8353 15.9892 43.8205 15.9359L44.0679 19.7228L43.9631 19.7438Z" fill="black"/>
<path d="M49.5031 22.2644C49.5031 22.6838 49.0837 23.0088 48.5762 23.0088C48.0688 23.0088 47.6494 22.6754 47.6494 22.2644C47.6494 21.8534 48.0688 21.52 48.5762 21.52C49.0837 21.52 49.5031 21.8534 49.5031 22.2644Z" fill="black"/>
<path d="M49.2976 22.237L48.9956 17.4519L49.1088 17.6616C49.1786 17.8071 49.2165 17.9658 49.22 18.1271C49.2241 18.2724 49.2584 18.4152 49.3206 18.5465C49.4113 18.6779 49.534 18.784 49.6771 18.8547C49.7842 18.9169 49.884 18.9907 49.9748 19.0749C50.2978 19.402 50.2726 19.9136 50.1971 20.4211L50.0944 20.4064C50.1657 19.9283 50.1908 19.4439 49.8994 19.1483C49.8152 19.0674 49.7216 18.997 49.6205 18.9386C49.4627 18.8572 49.3279 18.7375 49.2284 18.5905C49.2014 18.5429 49.1802 18.4922 49.1655 18.4395L49.4129 22.2244L49.2976 22.237Z" fill="black"/>
<path d="M67.1565 25.6946C72.0991 25.6946 76.1059 23.7231 76.1059 21.2911C76.1059 18.8592 72.0991 16.8877 67.1565 16.8877C62.2138 16.8877 58.207 18.8592 58.207 21.2911C58.207 23.7231 62.2138 25.6946 67.1565 25.6946Z" fill="#DB5A5A"/>
<path d="M64.8625 23.1345C64.5598 24.464 64.5416 25.8425 64.809 27.1796C65.0764 28.5167 65.6234 29.7821 66.4142 30.8929C65.7685 28.3825 65.9902 25.7275 67.0432 23.3589" fill="#DB5A5A"/>
<path d="M70.48 22.7278C70.3735 22.7277 70.2671 22.7214 70.1613 22.7089C69.7228 22.6457 69.3179 22.4384 69.0101 22.1197C68.5659 22.5131 67.991 22.7269 67.3976 22.7194C67.021 22.6947 66.6642 22.5415 66.3869 22.2853C65.9212 22.5853 65.371 22.727 64.8183 22.6892C64.2656 22.6514 63.7398 22.4362 63.3192 22.0757C63.0318 22.2864 62.697 22.4233 62.3442 22.4741C61.5998 22.5768 60.8596 22.3482 60.1655 22.1071L60.1991 22.0086C60.8827 22.2455 61.6082 22.4699 62.3295 22.3692C62.6595 22.3228 62.9732 22.1968 63.2437 22.0023C63.1872 21.9445 63.134 21.8836 63.0844 21.8198C62.925 21.6101 62.6755 21.2055 62.7971 20.7714C62.8306 20.6662 62.8879 20.5702 62.9647 20.4909C63.0414 20.4116 63.1355 20.3512 63.2395 20.3143C63.3167 20.2833 63.4004 20.2719 63.4831 20.2811C63.5657 20.2902 63.6449 20.3196 63.7134 20.3667C63.8131 20.4534 63.8876 20.5654 63.9289 20.6909C63.9702 20.8164 63.9769 20.9507 63.9483 21.0796C63.8876 21.4443 63.6932 21.7732 63.4031 22.0023C63.8031 22.341 64.3003 22.5439 64.8231 22.5815C65.3458 22.6192 65.867 22.4898 66.3115 22.2119C66.2635 22.1644 66.2194 22.1132 66.1794 22.0589C66.0649 21.9169 65.9837 21.7512 65.9416 21.5738C65.8995 21.3963 65.8976 21.2117 65.9361 21.0335C65.9594 20.9041 66.0177 20.7836 66.1045 20.6849C66.1914 20.5863 66.3035 20.5132 66.4289 20.4736C66.5021 20.4597 66.5774 20.4617 66.6497 20.4794C66.7221 20.4972 66.7898 20.5302 66.8483 20.5764C66.927 20.635 66.9927 20.7091 67.0414 20.7943C67.0901 20.8794 67.1207 20.9737 67.1313 21.0713C67.134 21.2376 67.1024 21.4028 67.0386 21.5564C66.9747 21.7101 66.88 21.849 66.7602 21.9645C66.6739 22.0603 66.5783 22.1474 66.475 22.2245C66.7315 22.4551 67.0578 22.5932 67.4018 22.6166C67.9674 22.6228 68.5151 22.4188 68.9388 22.0442C68.9032 22.0002 68.8675 21.9561 68.834 21.9079C68.7236 21.7593 68.6455 21.5893 68.6046 21.4087C68.5638 21.2282 68.5613 21.0411 68.5971 20.8595C68.6332 20.7212 68.7001 20.5929 68.7927 20.484C68.8852 20.3751 69.0011 20.2884 69.1318 20.2304C69.2121 20.1947 69.3001 20.1792 69.3878 20.1854C69.4756 20.1916 69.5605 20.2193 69.635 20.2661C69.6997 20.3078 69.7545 20.3632 69.7954 20.4285C69.8363 20.4937 69.8625 20.5671 69.8719 20.6435C69.8884 20.9972 69.7675 21.3436 69.5344 21.6101C69.3991 21.7746 69.2504 21.9275 69.0898 22.0673C69.3804 22.3657 69.7616 22.5596 70.1739 22.6187C71.0588 22.732 71.9164 22.3252 72.6524 21.9352L72.7006 22.0274C72.0401 22.3629 71.2789 22.7278 70.48 22.7278ZM66.5274 20.5659C66.5016 20.5637 66.4757 20.5637 66.4499 20.5659C66.3423 20.5999 66.2463 20.6629 66.1723 20.748C66.0982 20.8331 66.0492 20.937 66.0305 21.0482C65.9953 21.2112 65.9972 21.3801 66.036 21.5424C66.0748 21.7046 66.1496 21.856 66.2548 21.9855C66.2962 22.0401 66.341 22.0919 66.389 22.1407C66.4923 22.065 66.5878 21.9793 66.6742 21.8848C66.7843 21.7813 66.8724 21.6566 66.9333 21.5183C66.9942 21.3799 67.0266 21.2308 67.0286 21.0796C67.0189 20.9971 66.9925 20.9173 66.951 20.8452C66.9096 20.7731 66.8539 20.7102 66.7875 20.6603C66.7132 20.6016 66.622 20.5685 66.5274 20.5659ZM69.3603 20.2744C69.2953 20.2746 69.2311 20.2881 69.1716 20.3143C69.0574 20.3662 68.9563 20.4431 68.8757 20.5392C68.7951 20.6354 68.7372 20.7484 68.7061 20.87C68.671 21.0374 68.6716 21.2104 68.7077 21.3777C68.7438 21.5449 68.8147 21.7027 68.9158 21.8408C68.9472 21.8848 68.9808 21.9268 69.0164 21.9687C69.1728 21.8331 69.3174 21.6844 69.4484 21.5242C69.6629 21.2795 69.7761 20.9624 69.765 20.6372C69.7574 20.5754 69.7362 20.516 69.7028 20.4634C69.6695 20.4108 69.6248 20.3663 69.5721 20.3332C69.5087 20.2934 69.4351 20.2729 69.3603 20.2744ZM63.4366 20.3856C63.3816 20.3863 63.327 20.3963 63.2752 20.4149C63.1869 20.446 63.1069 20.4969 63.0415 20.5638C62.976 20.6307 62.9269 20.7118 62.8978 20.8008C62.8665 20.9687 62.8744 21.1417 62.921 21.3061C62.9675 21.4705 63.0514 21.6219 63.1662 21.7485C63.2155 21.8132 63.2694 21.8742 63.3276 21.931C63.6025 21.7181 63.7873 21.4098 63.8455 21.0671C63.8717 20.9568 63.8676 20.8415 63.8337 20.7333C63.7997 20.6252 63.7372 20.5282 63.6526 20.4527C63.5894 20.4084 63.5139 20.3849 63.4366 20.3856Z" fill="black"/>
<path d="M36.6888 10.1819C40.4572 10.1819 43.512 8.48454 43.512 6.39075C43.512 4.29696 40.4572 2.59961 36.6888 2.59961C32.9205 2.59961 29.8656 4.29696 29.8656 6.39075C29.8656 8.48454 32.9205 10.1819 36.6888 10.1819Z" fill="#E3BD72"/>
<path d="M34.8037 7.55249C34.3972 8.58771 34.2278 9.70086 34.308 10.8101C34.3881 11.9194 34.7159 12.9966 35.2671 13.9626C35.1216 12.8208 35.2739 11.6607 35.7093 10.5952C36.1447 9.52964 36.8484 8.59486 37.7519 7.8817" fill="#E3BD72"/>
<path d="M38.9305 7.62192C38.613 7.62875 38.2967 7.58124 37.9953 7.48143C37.7967 7.41254 37.6131 7.30651 37.4543 7.16899C36.9218 7.4413 36.3329 7.58493 35.7348 7.58837C35.2601 7.60961 34.7907 7.48125 34.3928 7.22142C34.2615 7.12698 34.1468 7.01149 34.0531 6.87962C33.8129 6.96197 33.5649 7.01959 33.3129 7.05157C32.9151 7.14274 32.4986 7.10454 32.124 6.94253C32.017 6.88272 31.923 6.80223 31.8474 6.70576C31.7718 6.60929 31.7162 6.49875 31.6837 6.38057C31.6593 6.29617 31.6528 6.20761 31.6648 6.12057C31.6767 6.03353 31.7067 5.94995 31.7529 5.87522L31.8409 5.93184C31.8031 5.99407 31.7787 6.06353 31.7693 6.13576C31.7599 6.20798 31.7657 6.28137 31.7864 6.35121C31.8145 6.45579 31.8634 6.55365 31.93 6.63901C31.9966 6.72438 32.0797 6.7955 32.1743 6.84817C32.5284 6.99893 32.9212 7.03344 33.2962 6.94672C33.5338 6.9165 33.7677 6.86241 33.9944 6.78527C33.8455 6.54272 33.7911 6.25389 33.8413 5.97378C33.8826 5.77824 33.9855 5.6011 34.1349 5.46843C34.2214 5.38847 34.3326 5.3405 34.4501 5.33249C34.5676 5.32448 34.6842 5.35691 34.7808 5.4244C34.8791 5.4876 34.9525 5.58296 34.9885 5.69422C35.0244 5.80549 35.0207 5.92578 34.9779 6.03459C34.901 6.24226 34.7717 6.42648 34.6025 6.56929C34.4669 6.68033 34.3157 6.77077 34.1538 6.83769C34.2375 6.95145 34.3387 7.05124 34.4536 7.13335C34.8263 7.37816 35.2663 7.49991 35.7118 7.48143H35.7243C36.2933 7.47799 36.8539 7.34535 37.3641 7.09351C37.2202 6.94978 37.1142 6.77251 37.0559 6.57767C37.0151 6.42943 37.0081 6.27395 37.0353 6.12264C37.0625 5.97133 37.1233 5.82804 37.2131 5.70328C37.2848 5.60387 37.3795 5.52319 37.489 5.46808C37.5984 5.41296 37.7196 5.38504 37.8422 5.38665C38.0064 5.3825 38.1666 5.438 38.293 5.54286C38.4195 5.64772 38.5036 5.79485 38.53 5.957C38.5803 6.33024 38.2951 6.60074 38.077 6.77268C37.9113 6.90052 37.7361 7.01549 37.5528 7.11657C37.6944 7.23286 37.8556 7.32303 38.0288 7.38287C38.4359 7.50666 38.8636 7.54801 39.2869 7.50449C39.5816 7.50338 39.8727 7.43903 40.1404 7.31577L40.1907 7.40804C39.9103 7.5422 39.604 7.61375 39.2932 7.61772C39.1737 7.61563 39.0479 7.62192 38.9305 7.62192ZM37.8443 5.4915C37.7372 5.49095 37.6316 5.51619 37.5363 5.5651C37.441 5.61401 37.359 5.68514 37.297 5.77248C37.2165 5.88439 37.162 6.01293 37.1377 6.14865C37.1134 6.28436 37.1198 6.4238 37.1565 6.55671C37.2153 6.74238 37.3207 6.90987 37.4626 7.04318C37.6537 6.94111 37.8354 6.82254 38.0057 6.68881C38.3203 6.44348 38.4524 6.21492 38.4251 5.96958C38.4005 5.83249 38.3275 5.70878 38.2194 5.62103C38.1112 5.53327 37.9751 5.4873 37.8359 5.4915H37.8443ZM34.4788 5.43488C34.3768 5.43726 34.2791 5.47678 34.2041 5.54601C34.0722 5.66437 33.9812 5.82146 33.9441 5.99474C33.8987 6.25572 33.9525 6.52424 34.0951 6.74752C34.2541 6.68349 34.4025 6.59583 34.5354 6.48751C34.6906 6.35689 34.8097 6.18869 34.8814 5.99894C34.9128 5.91136 34.9142 5.81583 34.8853 5.72738C34.8565 5.63894 34.799 5.56259 34.722 5.51037C34.6474 5.46113 34.5599 5.43488 34.4704 5.43488H34.4788Z" fill="black"/>
<path d="M86.4245 20.9411H86.3889C86.5001 20.9411 86.6067 20.8969 86.6854 20.8182C86.764 20.7396 86.8082 20.6329 86.8082 20.5217C86.8082 20.4105 86.764 20.3038 86.6854 20.2252C86.6067 20.1465 86.5001 20.1023 86.3889 20.1023C86.0324 20.1023 85.353 20.2239 85.0385 20.0751C84.4933 19.8192 84.9169 18.8987 84.9231 18.4647C84.9355 18.3024 84.9052 18.1397 84.8351 17.9929C84.7992 17.9204 84.7414 17.8611 84.6699 17.8235C84.5983 17.7858 84.5167 17.7717 84.4367 17.7832C84.227 17.8314 84.1389 18.0851 84.076 18.2948C83.9292 18.7855 83.579 19.2363 83.2981 19.6557C82.9729 20.1311 82.7639 20.6763 82.6879 21.2472C82.6292 21.7215 82.6144 22.2003 82.6438 22.6773C82.6732 23.1512 82.8682 23.3567 83.319 23.3672C83.6378 23.3672 83.9586 23.3797 84.2794 23.386L85.0322 23.4028L85.9988 23.4217C86.0539 23.4242 86.109 23.4158 86.1608 23.3971C86.2127 23.3783 86.2603 23.3495 86.301 23.3123C86.3417 23.2751 86.3747 23.2302 86.398 23.1803C86.4214 23.1303 86.4347 23.0763 86.4371 23.0212C86.4388 22.9661 86.4296 22.9112 86.41 22.8597C86.3905 22.8082 86.361 22.761 86.3232 22.7209C86.2854 22.6808 86.2401 22.6485 86.1899 22.6259C86.1396 22.6033 86.0854 22.5908 86.0303 22.5892H86.198C86.293 22.5926 86.3864 22.5636 86.4627 22.507C86.5391 22.4504 86.594 22.3695 86.6183 22.2776C86.6427 22.1857 86.6351 22.0883 86.5969 22.0013C86.5586 21.9143 86.4919 21.8428 86.4077 21.7987C86.5172 21.7987 86.6223 21.756 86.7006 21.6796C86.779 21.6032 86.8244 21.4992 86.8271 21.3898V21.3563C86.8261 21.2486 86.7838 21.1455 86.7088 21.0682C86.6339 20.9909 86.5321 20.9454 86.4245 20.9411Z" fill="#2690AD"/>
<path d="M82.2184 20.6979L81.9249 20.6245C81.82 20.5858 81.7047 20.5858 81.5999 20.6245C81.2056 20.8195 81.3105 21.8155 81.3084 22.172C81.3063 22.5284 81.0987 23.3735 81.6523 23.4301C81.744 23.4512 81.8391 23.4529 81.9315 23.4353C82.0239 23.4176 82.1116 23.3808 82.1891 23.3273C82.2816 23.2206 82.3368 23.0866 82.3463 22.9457C82.4151 22.5345 82.4557 22.119 82.468 21.7023C82.468 21.5093 82.5162 20.9369 82.3778 20.7754C82.3501 20.7489 82.315 20.7314 82.2771 20.7251L82.2184 20.6979Z" fill="#2690AD"/>
<path d="M79.0352 13.751H79.0079C79.0505 13.7515 79.0927 13.7437 79.1323 13.7278C79.1718 13.712 79.2078 13.6885 79.2382 13.6586C79.2686 13.6288 79.2928 13.5933 79.3094 13.5541C79.326 13.5149 79.3347 13.4727 79.335 13.4302C79.3334 13.3449 79.2985 13.2636 79.2377 13.2036C79.177 13.1437 79.0953 13.1099 79.01 13.1093C78.7353 13.1093 78.2111 13.2016 77.9616 13.0884C77.5422 12.8787 77.8651 12.1804 77.8714 11.847C77.8801 11.7224 77.857 11.5976 77.8043 11.4843C77.7766 11.428 77.732 11.382 77.6766 11.3526C77.6213 11.3232 77.5581 11.3121 77.496 11.3207C77.3304 11.3585 77.2675 11.5535 77.2172 11.7149C77.0694 12.0918 76.8674 12.445 76.6175 12.7634C76.3676 13.1301 76.2067 13.5502 76.1478 13.99C76.102 14.3558 76.0907 14.7251 76.1142 15.093C76.1373 15.4578 76.2861 15.6151 76.6342 15.6235L77.3744 15.6382L77.9553 15.6508L78.6996 15.6654C78.785 15.6683 78.8681 15.6377 78.9312 15.5801C78.9943 15.5225 79.0324 15.4425 79.0372 15.3572C79.0392 15.3147 79.0326 15.2723 79.0179 15.2325C79.0031 15.1926 78.9805 15.1562 78.9513 15.1253C78.9222 15.0943 78.8871 15.0696 78.8482 15.0525C78.8093 15.0355 78.7673 15.0264 78.7248 15.0259H78.8527C78.9346 15.028 79.0144 14.9996 79.0764 14.9461C79.1385 14.8926 79.1783 14.8178 79.1882 14.7365C79.1947 14.6718 79.1815 14.6066 79.1505 14.5494C79.1195 14.4922 79.072 14.4456 79.0142 14.4157C79.0991 14.4168 79.1811 14.3844 79.2423 14.3256C79.3035 14.2667 79.3391 14.1861 79.3413 14.1012V14.0739C79.3424 13.9908 79.3111 13.9105 79.2539 13.8502C79.1967 13.7899 79.1182 13.7543 79.0352 13.751Z" fill="#2690AD"/>
<path d="M75.7934 13.5623L75.5649 13.5056C75.4843 13.4763 75.3959 13.4763 75.3153 13.5056C75.0113 13.6566 75.091 14.4241 75.091 14.6988C75.091 14.9734 74.9337 15.6256 75.3552 15.6633C75.4268 15.6797 75.501 15.681 75.5732 15.6673C75.6454 15.6536 75.7139 15.6251 75.7746 15.5836C75.8452 15.5012 75.8878 15.3984 75.8962 15.2901C75.9488 14.9724 75.9796 14.6516 75.9884 14.3297C75.9884 14.1808 76.0262 13.7405 75.9192 13.6147C75.8984 13.5936 75.8711 13.5803 75.8417 13.5769L75.7934 13.5623Z" fill="#2690AD"/>
<path d="M72.5477 58.2654C73.2648 56.2692 73.0761 52.9352 75.324 51.8679C75.7433 51.6582 76.2319 51.5953 76.6785 51.4338C77.6536 51.0836 78.4252 50.3225 79.3562 49.8632C79.578 49.7322 79.8361 49.6763 80.0922 49.7039C80.327 49.7712 80.5383 49.9026 80.7024 50.0834C82.1702 51.4611 83.789 53.3252 84.3342 55.313C84.5532 56.0318 84.537 56.8016 84.2881 57.5105C84.1597 57.8615 83.9464 58.1753 83.6673 58.4237C83.3881 58.6722 83.0517 58.8476 82.6882 58.9343C81.5915 59.144 80.5452 58.4604 79.7525 57.7894C79.3961 57.4875 78.2386 55.6926 77.7794 55.7492C77.2719 55.7995 76.5401 58.3157 76.3116 58.8022C75.7039 60.076 75.0234 61.3138 74.2734 62.5095C73.9882 62.9645 73.5794 63.4698 73.0468 63.409C72.8102 63.3454 72.5783 63.2655 72.3527 63.17C71.7823 63.0148 71.5957 63.7508 71.0778 63.17C70.2978 62.283 72.2164 59.1838 72.5477 58.2654Z" fill="#DB5A5A"/>
<path d="M69.9266 74.2791C69.9156 74.2819 69.9041 74.2819 69.8931 74.2791C69.8838 74.2746 69.8755 74.2683 69.8686 74.2606C69.8618 74.2529 69.8566 74.2439 69.8533 74.2341C69.8499 74.2243 69.8486 74.214 69.8493 74.2037C69.85 74.1935 69.8528 74.1834 69.8574 74.1742C70.6962 72.4527 70.6962 70.5529 70.7088 68.7223C70.7088 67.8836 70.7088 67.0218 70.7968 66.183C71.0254 63.8073 72.0193 61.1904 73.592 58.8146C73.5967 58.8042 73.6037 58.7949 73.6123 58.7874C73.621 58.78 73.6312 58.7744 73.6422 58.7712C73.6532 58.768 73.6648 58.7672 73.6761 58.7689C73.6874 58.7706 73.6983 58.7747 73.7079 58.781C73.7175 58.7872 73.7256 58.7955 73.7318 58.8051C73.7379 58.8148 73.7419 58.8257 73.7434 58.8371C73.7449 58.8484 73.744 58.86 73.7407 58.8709C73.7373 58.8819 73.7317 58.892 73.7241 58.9006C72.164 61.2554 71.1806 63.8471 70.9541 66.1977C70.8723 67.0365 70.8702 67.8899 70.866 68.714C70.866 70.5676 70.8513 72.4883 69.9979 74.2392C69.9911 74.252 69.9808 74.2625 69.9681 74.2696C69.9555 74.2767 69.9411 74.2799 69.9266 74.2791Z" fill="#323232"/>
<path d="M68.0288 76.1644C68.013 76.1642 67.9975 76.1594 67.9845 76.1504C67.9714 76.1414 67.9613 76.1288 67.9554 76.114C67.1669 74.0237 66.9532 71.7602 67.3369 69.5592C67.3725 69.3495 67.4144 69.1398 67.4585 68.9301C67.5749 68.419 67.6507 67.8995 67.6849 67.3764C67.7206 66.5041 67.5235 65.636 67.3327 64.7972L66.2045 59.8486C66.2021 59.8384 66.2017 59.8278 66.2035 59.8175C66.2052 59.8071 66.2091 59.7972 66.2148 59.7884C66.2204 59.7796 66.2279 59.772 66.2366 59.7661C66.2453 59.7603 66.255 59.7562 66.2654 59.7542C66.2854 59.7499 66.3063 59.7536 66.3236 59.7646C66.3409 59.7756 66.3531 59.793 66.3576 59.8129L67.4857 64.7616C67.6786 65.6108 67.8779 66.4894 67.8422 67.3827C67.807 67.9142 67.7298 68.4422 67.6115 68.9616C67.5696 69.1713 67.5277 69.381 67.492 69.5907C67.1129 71.7641 67.3236 73.9994 68.1022 76.0637C68.1059 76.0733 68.1076 76.0836 68.1073 76.0939C68.1069 76.1042 68.1046 76.1143 68.1003 76.1237C68.096 76.1331 68.0899 76.1415 68.0823 76.1485C68.0747 76.1555 68.0658 76.1609 68.0561 76.1644C68.0471 76.1663 68.0378 76.1663 68.0288 76.1644Z" fill="#323232"/>
<path d="M67.4271 67.7914C67.3228 67.8201 67.2136 67.8259 67.1069 67.8085C67.0001 67.7912 66.8984 67.751 66.8085 67.6908C66.4185 67.4161 66.408 66.852 66.343 66.3865C66.2665 65.8445 66.0694 65.3264 65.7664 64.8705C65.3198 64.2079 64.6634 63.7067 64.2168 63.0441C63.5668 62.0754 64.1204 61.1213 64.0574 60.0896C63.8478 56.5249 58.4777 54.7824 59.0417 51.0102C59.1798 50.2768 59.5255 49.5986 60.0377 49.0559C60.2329 48.814 60.4812 48.6203 60.7633 48.4897C61.0357 48.3947 61.3249 48.3576 61.6125 48.3807C62.8703 48.38 64.1013 48.7442 65.1562 49.4291C67.5571 51.0857 69.3227 55.5457 68.5846 58.3953C68.0499 60.4545 68.4106 62.1487 68.6181 64.2855C68.7125 65.271 68.788 66.3467 68.2491 67.177C68.0588 67.4749 67.7666 67.6932 67.4271 67.7914Z" fill="black"/>
<path d="M77.8671 37.7582C77.8389 37.5913 77.799 37.4266 77.7476 37.2654C77.7407 37.2347 77.7246 37.2069 77.7014 37.1857C77.6469 37.148 77.5777 37.1857 77.5295 37.236C77.0973 37.6003 76.5989 37.878 76.0617 38.0538C75.9547 38.0895 75.8017 38.0999 75.7639 37.993C75.7577 37.9655 75.7571 37.937 75.7622 37.9093C75.7672 37.8815 75.7778 37.8551 75.7933 37.8315C75.9575 37.4939 76.2068 37.2048 76.5167 36.9928C76.8417 36.7705 77.28 36.5734 77.303 36.1708C77.3764 34.9127 75.4326 34.5793 74.5771 34.703C71.7086 35.1224 70.2261 37.6093 68.9827 39.9557C68.9616 39.9865 68.9506 40.0232 68.9512 40.0605C68.9512 40.1129 69.0015 40.1507 69.0414 40.1842C69.2982 40.396 69.5061 40.6608 69.6509 40.9605C69.7956 41.2602 69.8739 41.5877 69.8801 41.9204C69.887 41.9929 69.8724 42.0659 69.8382 42.1301C69.8032 42.1737 69.7554 42.2051 69.7015 42.2198C69.6477 42.2345 69.5905 42.2317 69.5383 42.2119C69.4343 42.1667 69.3445 42.0943 69.2783 42.0022C69.031 41.7037 68.8373 41.3646 68.7059 40.9999C67.8671 42.6418 67.5966 45.2335 67.7874 47.0536C67.9028 48.1607 68.3117 49.3706 68.2278 50.4757C68.1271 51.8261 67.5757 53.1031 67.2108 54.3947C66.8145 55.8428 66.7599 57.3631 67.0514 58.8359C67.0925 59.1075 67.1917 59.3671 67.3423 59.5969C67.4928 59.8266 67.6911 60.0213 67.9237 60.1674C68.4039 60.4316 69.0875 60.3519 69.402 59.9032C69.7427 60.0083 70.1095 59.9897 70.4379 59.8509C70.7662 59.712 71.035 59.4618 71.1969 59.1441C71.4381 58.6304 71.3626 58.0328 71.3479 57.4667C71.2955 55.592 71.977 54.0592 73.038 52.5872C74.099 51.1152 73.9858 48.9135 74.3842 47.2109C74.791 45.4725 75.7031 43.9167 76.4811 42.3314C77.2066 40.8573 78.1418 39.3874 77.8671 37.7582ZM71.2221 38.6535V38.6388C71.2295 38.4695 71.2912 38.3069 71.3982 38.1754C71.9246 37.6114 72.107 38.7814 72.1447 39.075C72.3251 40.5554 71.1257 39.681 71.2221 38.6535ZM70.5931 48.5487C70.5658 48.729 70.5343 48.8842 70.505 48.9974C70.4756 49.1106 70.4127 49.2218 70.3121 49.1966C70.2612 49.1758 70.2206 49.1359 70.1988 49.0855C69.6865 48.187 69.3526 47.198 69.2154 46.1729C69.1884 46.0339 69.1927 45.8907 69.228 45.7535C69.2467 45.686 69.2861 45.626 69.3406 45.582C69.3951 45.538 69.4621 45.5122 69.532 45.5082C70.7545 45.5271 70.744 47.4855 70.5931 48.5487ZM72.9583 50.4358C73.0149 50.7336 72.9583 50.9643 72.5977 51.2138C72.3544 51.3836 71.7589 51.7275 71.4633 51.5786C71.3954 51.5435 71.3393 51.4892 71.302 51.4225C71.2647 51.3557 71.2479 51.2795 71.2536 51.2033C71.2745 51.0678 71.3376 50.9423 71.4339 50.8447C71.7977 50.4203 72.307 50.1473 72.8619 50.0794C72.8998 50.1961 72.9299 50.3152 72.952 50.4358H72.9583ZM75.2062 41.283C75.0877 41.7863 74.8616 42.258 74.5434 42.6656C74.2253 43.0732 73.8225 43.407 73.363 43.6441C73.1841 43.7513 72.982 43.8138 72.7738 43.8265C72.6696 43.8306 72.5664 43.8047 72.4765 43.7519C72.3865 43.6992 72.3136 43.6217 72.2664 43.5287C72.2381 43.4151 72.2363 43.2964 72.261 43.182C72.2858 43.0675 72.3363 42.9601 72.4089 42.8682C72.8538 42.181 73.4525 41.6066 74.1577 41.1907C74.5247 40.958 75.397 40.3834 75.2062 41.283Z" fill="#2690AD"/>
<path d="M67.8483 75.5749C67.8351 75.5743 67.8222 75.5707 67.8106 75.5644C67.7924 75.5542 67.7789 75.5373 67.773 75.5173C67.7671 75.4973 67.7693 75.4758 67.7791 75.4574C68.2614 74.5663 68.7604 73.6458 68.9974 72.6434C69.138 71.9529 69.2166 71.2511 69.2322 70.5466C69.2322 70.3893 69.2322 70.2698 69.2322 70.1628C69.2271 69.9141 69.2518 69.6656 69.3056 69.4227C69.8445 66.8708 70.4547 63.9708 69.6537 61.2868C69.5258 60.8548 69.358 60.4229 69.1945 60.0035C68.8842 59.1983 68.5654 58.368 68.4962 57.4873C68.3704 55.7301 69.2406 54.1532 70.3058 52.4191C70.3167 52.4011 70.3343 52.3881 70.3547 52.383C70.3752 52.3779 70.3968 52.3811 70.4149 52.3919C70.4325 52.4031 70.4451 52.4208 70.4498 52.4412C70.4545 52.4616 70.451 52.4831 70.44 52.5009C69.3916 54.212 68.5298 55.7657 68.6535 57.4747C68.7164 58.3281 69.033 59.1522 69.3413 59.9427C69.5048 60.3621 69.6747 60.8003 69.8047 61.2386C70.6162 63.9645 70.0018 66.8792 69.4608 69.452C69.4083 69.6845 69.3844 69.9225 69.3895 70.1608C69.3895 70.2698 69.3895 70.3914 69.3895 70.5508C69.3743 71.266 69.2943 71.9783 69.1505 72.6791C68.9093 73.7024 68.404 74.6334 67.9175 75.5329C67.9108 75.5455 67.9008 75.556 67.8886 75.5633C67.8764 75.5707 67.8625 75.5747 67.8483 75.5749Z" fill="#323232"/>
<path d="M65.1098 81.5973H71.694C72.2308 79.2467 72.6208 77.0597 72.797 76.2482L73.3359 71.5911H63.2939L64.032 76.0301C64.1767 76.892 64.5605 79.1733 65.1098 81.5973Z" fill="#503444"/>
<path d="M77.7751 55.8268H77.7437C77.7341 55.8229 77.7254 55.8172 77.7181 55.8099C77.7108 55.8026 77.705 55.7939 77.7011 55.7843C77.6972 55.7747 77.6952 55.7645 77.6953 55.7541C77.6954 55.7438 77.6976 55.7336 77.7017 55.7241C78.1861 54.6148 78.3643 53.795 78.6118 52.6627L78.6873 52.3083C78.6895 52.2982 78.6937 52.2886 78.6997 52.2801C78.7056 52.2717 78.7133 52.2645 78.722 52.259C78.7308 52.2536 78.7406 52.2499 78.7509 52.2483C78.7611 52.2466 78.7716 52.2471 78.7816 52.2496C78.8017 52.2541 78.8193 52.2662 78.8306 52.2834C78.8419 52.3007 78.8462 52.3216 78.8424 52.3418L78.7648 52.6941C78.572 53.7554 78.2641 54.7925 77.8464 55.787C77.8394 55.7996 77.829 55.81 77.8164 55.8171C77.8038 55.8241 77.7895 55.8275 77.7751 55.8268Z" fill="#323232"/>
<path d="M73.6673 81.4695H59.8699V81.6792H73.6673V81.4695Z" fill="black"/>
<path d="M66.2925 10.9601C64.3025 10.9601 62.667 9.10231 62.6523 9.08553L62.6208 9.04988L62.6523 9.01633C62.667 8.99746 64.3025 7.12915 66.2925 7.12915C68.2824 7.12915 69.9159 8.98698 69.9326 9.01633L69.962 9.04988L69.9326 9.08553C69.9159 9.10231 68.2866 10.9601 66.2925 10.9601ZM62.7613 9.04988C62.9941 9.30361 64.4996 10.8553 66.2925 10.8553C68.0853 10.8553 69.5908 9.30361 69.8215 9.04988C69.5908 8.79826 68.0769 7.24028 66.2925 7.24028C64.508 7.24028 62.9941 8.79826 62.7613 9.04988Z" fill="black"/>
<path d="M67.7518 9.04972C67.7518 10.0751 67.0976 10.9076 66.284 10.9076C65.4704 10.9076 64.8162 10.0688 64.8162 9.04972C64.8162 8.03064 65.4683 7.19189 66.284 7.19189C67.0997 7.19189 67.7518 8.02435 67.7518 9.04972Z" fill="black"/>
</svg>
