<svg width="84" height="76" viewBox="0 0 84 76" fill="none" xmlns="http://www.w3.org/2000/svg">
<path d="M11.2783 43.8128C12.9851 46.0595 14.5894 48.8345 14.0572 52.1298C13.1289 57.8966 6.61917 61.1564 4.26004 66.6512C3.04598 69.4814 3.27461 72.688 4.55567 74.9288H71.037C71.9069 74.2305 72.6833 73.423 73.3469 72.5263C75.6212 69.4439 76.5968 65.2657 75.8321 61.8639C75.0674 58.4622 72.7635 56.0223 71.9554 52.6482C71.0528 48.8818 72.1525 44.406 73.9992 40.5116C75.8459 36.6171 78.3982 33.1326 80.7278 29.5259C82.4444 26.8672 84.1354 23.8203 83.9915 20.8423C83.7944 16.6148 79.9079 14.4685 76.175 14.6065C72.4422 14.7444 68.6404 16.4768 64.8642 17.1371C61.0881 17.7973 56.9059 17.0287 55.3784 13.4358C54.0166 10.2331 55.1498 5.64886 53.4608 2.70241C52.4497 0.940452 50.5597 0.0929787 48.5967 0.00823131C46.6337 -0.076516 44.5919 0.50489 42.5954 1.21046C31.3319 5.1995 20.569 13.2505 12.3485 23.838C9.55379 27.4388 6.88129 31.9186 7.307 36.1678C7.62234 39.3172 9.5735 41.566 11.2783 43.8128Z" fill="#E0F2F1"/>
<path d="M58.8175 1.07441C57.8123 0.721626 56.6495 1.46858 56.3913 2.45402C56.0937 3.54194 56.7618 4.5254 57.7709 4.87819C57.5916 4.81512 57.6251 4.823 57.7828 4.89395L57.834 4.91563C57.845 4.93074 57.8575 4.94462 57.8715 4.95702C57.8872 4.97082 57.9404 5.03389 57.9838 5.08316C58.0271 5.13243 58.0469 5.19747 58.0823 5.25462C58.0252 5.19944 58.1296 5.56799 58.1493 5.48719V5.61529C58.1237 5.70595 58.0863 5.8715 58.0823 5.87939C57.7532 6.89044 58.4765 8.03158 59.4619 8.30356C59.966 8.4329 60.5007 8.36132 60.953 8.10391C61.4053 7.8465 61.7399 7.4234 61.8861 6.92395C62.6823 4.45839 61.1667 1.90218 58.8175 1.07441Z" fill="#E0F2F1"/>
<path d="M79.8605 9.59478C79.7714 9.35676 79.6322 9.14066 79.4524 8.96112C79.2725 8.78158 79.0561 8.6428 78.8179 8.55416C78.585 8.42995 78.3228 8.37136 78.0591 8.38466L77.5349 8.45364C77.2068 8.54569 76.9076 8.72004 76.6657 8.96016C76.3027 9.33484 76.0962 9.83386 76.0883 10.3555V10.5526C76.076 10.8161 76.1345 11.0782 76.2578 11.3114C76.3466 11.5498 76.4857 11.7663 76.6656 11.9462C76.8455 12.1261 77.062 12.2651 77.3004 12.354C77.5336 12.4773 77.7956 12.5358 78.0591 12.5235L78.5834 12.4525C78.9121 12.3617 79.2115 12.1872 79.4526 11.946C79.8158 11.5723 80.0224 11.0738 80.03 10.5526V10.3555C80.0414 10.0915 79.9829 9.82906 79.8605 9.59478Z" fill="#E0F2F1"/>
<path d="M80.1717 56.9229C79.811 55.9198 78.8295 55.2477 77.7475 55.5433C76.7798 55.8094 76.0092 56.9624 76.3679 57.9675C76.9099 59.3764 77.0278 60.9131 76.7069 62.3882C76.1511 64.8596 79.951 65.914 80.5087 63.4367C81.0212 61.2778 80.9043 59.0174 80.1717 56.9229Z" fill="#E0F2F1"/>
<path d="M7.85872 52.3842C7.49017 51.387 6.52247 50.709 5.43455 51.0046C4.47277 51.2687 3.68836 52.4236 4.05495 53.4288C4.57525 54.8439 4.32101 56.6098 3.00447 57.5499C2.13926 58.1668 1.72538 59.2685 2.29693 60.246C2.79753 61.1014 4.12196 61.5744 4.99308 60.9536C7.67346 59.0458 9.02745 55.5613 7.85872 52.3842Z" fill="#E0F2F1"/>
<path d="M4.02746 75.1259C4.08485 72.732 4.44983 70.3553 5.11341 68.0544C4.81004 68.1752 4.51333 68.312 4.22454 68.4644C4.06511 69.3563 3.82229 70.2313 3.49926 71.0778C3.47167 71.1428 3.30218 71.1408 3.30218 71.0778C3.28705 70.3389 3.35782 69.6008 3.51306 68.8783C3.06391 69.1694 2.64353 69.5027 2.25762 69.8736C2.47244 70.5929 2.69515 71.3123 2.87844 72.0415C3.07553 72.8161 3.34159 73.5788 3.3889 74.3809C3.3889 74.4736 3.19181 74.5366 3.14451 74.4479C2.69909 73.7345 2.4823 72.956 2.1709 72.2011C1.9541 71.6789 1.77673 71.1428 1.57964 70.6087C1.1098 71.1915 0.737108 71.8464 0.475952 72.548C1.22893 73.3302 1.89017 74.1957 2.44682 75.1279L4.02746 75.1259Z" fill="#00838F"/>
<path d="M5.24738 75.126C5.24738 74.8974 5.24738 74.6688 5.25921 74.4382C5.28975 73.1421 5.39636 71.849 5.57849 70.5654C5.67309 69.917 5.7539 69.2666 5.90368 68.6182C5.97266 68.3167 6.04953 68.027 6.12639 67.7156C5.95296 67.7648 5.77952 67.8181 5.61002 67.8752L5.52134 68.1807C4.87596 70.444 4.51709 72.7793 4.45312 75.132L5.24738 75.126Z" fill="#006064"/>
<path d="M7.0093 75.1259C7.06843 72.5874 7.00273 70.0601 6.81222 67.5439C6.70776 67.5656 6.61513 67.5893 6.50082 67.6149C6.45549 68.0406 6.41804 68.4663 6.3668 68.89C6.28402 69.5956 6.20322 70.2992 6.14015 71.0028C6.01831 72.3736 5.967 73.7498 5.98642 75.1259H7.0093Z" fill="#006064"/>
<path d="M13.6845 75.1257C14.6517 73.8635 15.7145 72.6774 16.8636 71.5782C16.7867 71.4402 16.7039 71.3082 16.6192 71.184C16.3503 71.5172 16.0464 71.8205 15.7126 72.0886C15.6495 72.1339 15.5352 72.0886 15.5529 72.0413C15.6791 71.6471 16.0673 71.2431 16.3807 70.8864L16.3984 70.8647C16.2841 70.709 16.1619 70.5553 16.0338 70.4055L15.8584 70.6794C15.4209 71.3712 15.0267 72.0748 14.532 72.7528C14.4611 72.8513 14.2246 72.8435 14.2581 72.7272C14.5734 71.7406 15.0245 70.8027 15.5983 69.9404C15.3348 69.6795 15.0536 69.4372 14.7567 69.2151C14.0708 71.186 13.4264 73.1568 12.8055 75.1277L13.6845 75.1257Z" fill="#00838F"/>
<path d="M7.48823 75.1261H9.11025C10.2021 72.7089 11.4674 70.3739 12.8963 68.1394C12.6204 68.0231 12.3385 67.9166 12.0468 67.822L11.8872 68.0625C11.361 68.8705 10.8584 69.6845 10.415 70.5064C9.97152 71.3282 9.6148 72.2033 9.08463 73.0212C9.0058 73.1414 8.7555 73.1158 8.77324 72.9916C8.90134 72.1442 9.3369 71.2652 9.7429 70.4295C10.1568 69.5662 10.6174 68.726 11.1225 67.9127C11.1856 67.8122 11.2506 67.7156 11.3196 67.6151C11.0535 67.552 10.7816 67.4969 10.5056 67.4535C10.413 67.7274 10.342 68.0014 10.2672 68.2773C10.2376 68.3877 9.98532 68.4192 9.97152 68.3049C9.94126 67.9988 9.97003 67.6897 10.0563 67.3944C9.81779 67.3668 9.57538 67.349 9.33099 67.3392C8.99397 68.4488 8.73973 69.5584 8.47761 70.67C8.44607 70.8119 8.16424 70.802 8.16621 70.67C8.20321 69.5396 8.37997 68.4182 8.69243 67.3313C8.21388 67.3404 7.7365 67.3819 7.26355 67.4555C7.28589 67.7182 7.3056 67.981 7.32268 68.2438C7.49217 70.528 7.5375 72.8241 7.48823 75.1261Z" fill="#00838F"/>
<path d="M17.6716 75.1259C17.6815 74.986 17.6854 74.8421 17.6854 74.6983C17.6854 74.5544 17.6854 74.4243 17.6697 74.2883C17.3366 74.5623 17.0114 74.8441 16.6941 75.1259H17.6716Z" fill="#006064"/>
<path d="M15.8724 75.1261C16.415 74.6084 16.9866 74.1039 17.587 73.6125C17.5435 73.3667 17.4849 73.1238 17.4116 72.8852C17.252 73.037 17.0943 73.1907 16.9406 73.3464C16.6351 73.6598 16.3493 74.0618 15.9295 74.3121C15.8783 74.3417 15.8093 74.3121 15.8172 74.2786C15.8763 73.9298 16.2626 73.5474 16.5425 73.236C16.775 72.9732 17.0174 72.7164 17.2697 72.4654C17.2283 72.3531 17.183 72.2407 17.1337 72.1304C16.1769 73.0692 15.2828 74.07 14.4573 75.1261H15.8724Z" fill="#006064"/>
<path d="M2.03091 75.1258C1.55075 74.3325 0.997837 73.5856 0.379322 72.8948C0.285786 73.2044 0.215946 73.5206 0.17041 73.8408C0.573963 74.2179 0.921705 74.6506 1.20314 75.1258H2.03091Z" fill="#006064"/>
<path d="M0.905535 75.126L0.117188 74.4441C0.117188 74.5407 0.117188 74.6412 0.117188 74.7378C0.117188 74.8678 0.117187 74.9979 0.130984 75.1319L0.905535 75.126Z" fill="#006064"/>
<path d="M10.6574 75.1261C10.8544 74.6275 11.0515 74.1269 11.2703 73.6283C11.7019 72.6093 12.1769 71.5963 12.6657 70.5852C12.9928 69.9092 13.2964 69.2056 13.6826 68.5237C13.6156 68.4863 13.5486 68.4488 13.4856 68.4133C12.1053 70.5638 10.8745 72.8067 9.802 75.1261H10.6574Z" fill="#006064"/>
<path d="M12.0765 75.126C12.7387 73.0152 13.4245 70.9064 14.1577 68.7995C14.0887 68.7542 14.0178 68.7147 13.9468 68.6714C13.8404 68.8803 13.73 69.0872 13.6295 69.2942C13.3536 69.8552 13.0849 70.4182 12.8234 70.9832C12.1888 72.3628 11.6232 73.7424 11.1088 75.122L12.0765 75.126Z" fill="#006064"/>
<path d="M76.5553 74.7652H0.371422C0.325561 74.7579 0.278673 74.7607 0.233989 74.7733C0.189304 74.7859 0.147885 74.8081 0.112583 74.8382C0.0772811 74.8684 0.0489359 74.9058 0.0295002 74.948C0.0100645 74.9902 0 75.0361 0 75.0825C0 75.1289 0.0100645 75.1748 0.0295002 75.217C0.0489359 75.2591 0.0772811 75.2966 0.112583 75.3267C0.147885 75.3569 0.189304 75.379 0.233989 75.3917C0.278673 75.4043 0.325561 75.407 0.371422 75.3998H76.5553C76.6012 75.407 76.6481 75.4043 76.6928 75.3917C76.7375 75.379 76.7789 75.3569 76.8142 75.3267C76.8495 75.2966 76.8778 75.2591 76.8973 75.217C76.9167 75.1748 76.9268 75.1289 76.9268 75.0825C76.9268 75.0361 76.9167 74.9902 76.8973 74.948C76.8778 74.9058 76.8495 74.8684 76.8142 74.8382C76.7789 74.8081 76.7375 74.7859 76.6928 74.7733C76.6481 74.7607 76.6012 74.7579 76.5553 74.7652Z" fill="#455A64"/>
<path d="M49.8323 75.1535C49.8892 72.715 50.2595 70.294 50.934 67.95C50.6289 68.0734 50.3303 68.2122 50.0392 68.3658C49.8773 69.2746 49.6298 70.1662 49.3002 71.0284C49.2726 71.0955 49.1031 71.0935 49.1031 71.0284C49.0905 70.2768 49.1646 69.5262 49.3238 68.7915C48.8667 69.0892 48.4385 69.429 48.0447 69.8065C48.2635 70.5397 48.4921 71.2728 48.6774 72.0119C48.8745 72.8003 49.1504 73.5787 49.1977 74.3967C49.1977 74.4913 49.0006 74.5543 48.9494 74.4637C48.4961 73.7364 48.2733 72.9441 47.9639 72.1755C47.7432 71.6434 47.5579 71.0974 47.3727 70.5535C46.894 71.1453 46.5146 71.8109 46.2493 72.5243C47.0144 73.3218 47.6862 74.2039 48.2517 75.1535H49.8323Z" fill="#00838F"/>
<path d="M51.0817 75.1535C51.0817 74.9209 51.0817 74.6864 51.0936 74.4518C51.1249 73.1294 51.2335 71.81 51.4188 70.5002C51.5134 69.842 51.5981 69.1778 51.7499 68.5175C51.8208 68.2101 51.8977 67.9046 51.9785 67.5991C51.7991 67.6484 51.6237 67.7016 51.4503 67.7607C51.4207 67.8632 51.3892 67.9677 51.3596 68.0721C50.7024 70.3778 50.3376 72.7568 50.2737 75.1535H51.0817Z" fill="#006064"/>
<path d="M52.8772 75.1535C52.9364 72.5664 52.8674 69.9918 52.6703 67.4297C52.5639 67.4514 52.4574 67.475 52.353 67.5006C52.3057 67.9342 52.2663 68.3698 52.215 68.8014C52.1303 69.5188 52.0495 70.2362 51.9864 70.9536C51.8603 72.3498 51.8077 73.7518 51.8287 75.1535H52.8772Z" fill="#006064"/>
<path d="M59.667 75.1537C60.6539 73.8679 61.7371 72.6589 62.9071 71.5372C62.8282 71.3973 62.7455 71.2613 62.6587 71.1272C62.3845 71.4668 62.0746 71.7761 61.7344 72.0496C61.6713 72.0949 61.5531 72.0496 61.5708 72.0003C61.7009 71.6062 62.0971 71.1883 62.4144 70.8178L62.4341 70.7981C62.3178 70.6365 62.1936 70.4808 62.0635 70.329C62.0025 70.4217 61.9414 70.5143 61.8822 70.6089C61.4368 71.3125 61.0348 72.0299 60.5322 72.7197C60.4593 72.8202 60.2188 72.8123 60.2523 72.6941C60.5733 71.6885 61.033 70.7326 61.6181 69.8541C61.3494 69.5886 61.0629 69.3417 60.7608 69.115C60.0631 71.1233 59.4068 73.1356 58.7742 75.1478L59.667 75.1537Z" fill="#00838F"/>
<path d="M53.3643 75.1535H55.0158C56.1302 72.6912 57.4212 70.3127 58.8787 68.0367C58.5989 67.9158 58.3111 67.8081 58.0155 67.7135C57.9603 67.7943 57.9051 67.8751 57.8519 67.9579C57.3158 68.7797 56.8054 69.6094 56.3501 70.4471C55.8949 71.2847 55.5361 72.1755 54.9961 73.0092C54.9173 73.1314 54.6611 73.1058 54.6808 72.9796C54.8109 72.1144 55.2543 71.2196 55.6662 70.3722C56.0901 69.4926 56.5625 68.6372 57.0813 67.81C57.1444 67.7095 57.2114 67.613 57.2784 67.5085C57.0077 67.4415 56.7318 67.3863 56.4506 67.3429C56.356 67.6208 56.2831 67.9007 56.2082 68.1825C56.1787 68.2949 55.9205 68.3264 55.9067 68.2101C55.8761 67.898 55.9055 67.5829 55.9934 67.2819C55.749 67.2562 55.5026 67.2365 55.2543 67.2267C54.9094 68.356 54.6493 69.4873 54.3852 70.6205C54.3517 70.7644 54.0659 70.7545 54.0679 70.6205C54.1048 69.4675 54.2848 68.3235 54.6039 67.2148C54.1161 67.2226 53.6294 67.2647 53.1475 67.341C53.1691 67.607 53.1888 67.8751 53.2086 68.1412C53.3682 70.4687 53.4155 72.8082 53.3643 75.1535Z" fill="#00838F"/>
<path d="M63.7447 75.1537C63.7447 75.0098 63.7585 74.864 63.7585 74.7181C63.7585 74.5723 63.7585 74.4383 63.7428 74.2983C63.4025 74.5808 63.074 74.8659 62.7573 75.1537H63.7447Z" fill="#006064"/>
<path d="M61.9036 75.1535C62.4554 74.6279 63.0382 74.1135 63.6518 73.6103C63.6066 73.3608 63.5474 73.1141 63.4744 72.8712C63.3108 73.025 63.1492 73.1807 62.9935 73.3403C62.6821 73.6596 62.4022 74.0695 61.9627 74.3257C61.9115 74.3553 61.8405 74.3257 61.8484 74.2903C61.9095 73.9335 62.3037 73.5453 62.5875 73.228C62.824 72.9639 63.0704 72.6998 63.3285 72.4396C63.2852 72.3233 63.2398 72.209 63.1886 72.0967C62.2148 73.0541 61.3043 74.0739 60.4629 75.1496L61.9036 75.1535Z" fill="#006064"/>
<path d="M47.8042 75.1535C47.3159 74.3447 46.7524 73.5839 46.121 72.8811C46.0257 73.1964 45.9552 73.5186 45.9102 73.8449C46.3211 74.2285 46.6749 74.6693 46.9606 75.1535H47.8042Z" fill="#006064"/>
<path d="M46.6576 75.1535C46.3896 74.9209 46.1235 74.6884 45.8535 74.4578C45.8535 74.5563 45.8535 74.6548 45.8535 74.7573C45.8535 74.8894 45.8535 75.0214 45.8673 75.1515L46.6576 75.1535Z" fill="#006064"/>
<path d="M56.5923 75.1536C56.7894 74.6451 57.0022 74.1347 57.2171 73.6262C57.6566 72.5895 58.1394 71.5568 58.64 70.526C58.9731 69.8401 59.2825 69.1188 59.6747 68.427C59.6058 68.3896 59.5387 68.3502 59.4678 68.3147C58.065 70.5062 56.8138 72.7912 55.7231 75.1536H56.5923Z" fill="#006064"/>
<path d="M58.0291 75.1537C58.7051 73.0035 59.4087 70.8532 60.1498 68.707C60.0808 68.6636 60.0079 68.6202 59.935 68.5789C59.8266 68.7897 59.7162 69.0006 59.6117 69.2115C59.3319 69.785 59.056 70.3585 58.7899 70.934C58.1454 72.3334 57.568 73.7425 57.0437 75.1537H58.0291Z" fill="#006064"/>
<path d="M67.0952 74.574C67.1339 72.8834 67.3903 71.2049 67.8579 69.5798C67.6431 69.6666 67.4361 69.7631 67.2371 69.8676C67.1251 70.4971 66.9542 71.1147 66.7266 71.7123C66.7069 71.7576 66.5926 71.7576 66.5906 71.7123C66.5804 71.1906 66.6307 70.6694 66.7404 70.1593C66.4233 70.3653 66.1263 70.6009 65.8535 70.8629C66.0053 71.3694 66.163 71.8779 66.2911 72.3903C66.429 72.9382 66.6182 73.4762 66.6517 74.0419C66.6517 74.1069 66.5197 74.1503 66.4803 74.0892C66.1649 73.5846 66.0112 73.0348 65.7924 72.5125C65.6387 72.142 65.5106 71.7636 65.3825 71.3871C65.0502 71.7976 64.7873 72.2596 64.604 72.7549C65.1308 73.3082 65.5936 73.9191 65.9836 74.576L67.0952 74.574Z" fill="#00838F"/>
<path d="M67.9567 74.5742C67.9567 74.4126 67.9567 74.251 67.9567 74.0894C67.9816 73.1738 68.0593 72.2605 68.1893 71.3538C68.2563 70.8966 68.3134 70.4374 68.4199 69.9742C68.4691 69.7614 68.5223 69.5505 68.5775 69.3376C68.4534 69.3731 68.3312 69.4106 68.2129 69.45C68.1912 69.5229 68.1696 69.5939 68.1498 69.6668C67.6944 71.2633 67.4415 72.9107 67.397 74.5703L67.9567 74.5742Z" fill="#006064"/>
<path d="M69.2001 74.5743C69.2395 72.7834 69.1916 71.0004 69.0562 69.2253L68.8375 69.2746C68.804 69.5742 68.7783 69.8757 68.7429 70.1753C68.6837 70.672 68.6266 71.1607 68.5832 71.6653C68.4964 72.6324 68.4596 73.6034 68.4729 74.5743H69.2001Z" fill="#006064"/>
<path d="M73.9028 74.574C74.5859 73.6834 75.3357 72.8461 76.1456 72.069C76.0918 71.9718 76.0346 71.8772 75.9741 71.7852C75.7844 72.0206 75.5696 72.2347 75.3336 72.4238C75.2903 72.4553 75.2095 72.4238 75.2213 72.3903C75.31 72.1104 75.5859 71.8286 75.8125 71.5763L75.8244 71.5605C75.7436 71.4502 75.6588 71.3418 75.5682 71.2373C75.5268 71.3004 75.4834 71.3654 75.444 71.4344C75.1346 71.9212 74.8527 72.4198 74.5078 72.8968C74.4566 72.9658 74.291 72.9598 74.3107 72.879C74.5322 72.181 74.8506 71.5176 75.2568 70.9082C75.0711 70.7246 74.8736 70.5535 74.6655 70.3958C74.1826 71.7872 73.7274 73.1806 73.2859 74.574H73.9028Z" fill="#00838F"/>
<path d="M69.537 74.5741H70.6821C71.4534 72.8693 72.3472 71.2226 73.3566 69.647C73.1595 69.5642 72.9624 69.4893 72.7653 69.4242L72.653 69.5937C72.2825 70.1614 71.9277 70.7368 71.6143 71.3163C71.301 71.8957 71.0487 72.5146 70.6762 73.0901C70.621 73.1748 70.4436 73.1551 70.4574 73.0684C70.5461 72.4771 70.8516 71.8504 71.1394 71.2631C71.4364 70.6549 71.7654 70.0628 72.1248 69.4893C72.1682 69.4183 72.2155 69.3494 72.2608 69.2804C72.0735 69.235 71.8824 69.1956 71.6873 69.1661C71.6222 69.3632 71.571 69.5602 71.5178 69.7475C71.4981 69.8243 71.3207 69.846 71.3108 69.7652C71.2886 69.5499 71.3087 69.3323 71.37 69.1247C71.2005 69.105 71.031 69.0912 70.8575 69.0853C70.619 69.8736 70.4377 70.6501 70.2663 71.4345C70.2426 71.535 70.0436 71.5272 70.0455 71.4345C70.0717 70.6371 70.1969 69.846 70.418 69.0793C70.08 69.0846 69.7427 69.1143 69.4089 69.168C69.4227 69.3513 69.4385 69.5366 69.4503 69.7219C69.5462 71.3353 69.5752 72.9528 69.537 74.5741Z" fill="#00838F"/>
<path d="M76.7229 74.5742C76.7229 74.4756 76.7229 74.3771 76.7229 74.2726C76.7229 74.1682 76.7229 74.0755 76.711 73.9829C76.4759 74.1787 76.2459 74.3758 76.0212 74.5742H76.7229Z" fill="#006064"/>
<path d="M75.4518 74.5742C75.8342 74.2103 76.2376 73.8542 76.662 73.506C76.6322 73.3328 76.5914 73.1616 76.5398 72.9936C76.4255 73.1 76.3151 73.2084 76.2067 73.3188C76.0006 73.5771 75.7606 73.8064 75.4932 74.0007C75.4578 74.0204 75.4085 74.0007 75.4144 73.977C75.4558 73.7287 75.7297 73.4607 75.9249 73.2399C76.0884 73.0586 76.2599 72.8753 76.4393 72.698C76.4097 72.6171 76.3762 72.5383 76.3427 72.4595C75.6681 73.1226 75.0374 73.829 74.4546 74.5742H75.4518Z" fill="#006064"/>
<path d="M65.6881 74.574C65.3488 74.0135 64.9582 73.4856 64.5214 72.9973C64.4563 73.2162 64.4069 73.4395 64.3735 73.6654C64.6589 73.9311 64.9045 74.2364 65.1028 74.572L65.6881 74.574Z" fill="#006064"/>
<path d="M64.8917 74.5742L64.3359 74.0933C64.3359 74.1629 64.3359 74.2319 64.3359 74.3002C64.3359 74.3928 64.3359 74.4835 64.3359 74.5742H64.8917Z" fill="#006064"/>
<path d="M71.7742 74.5739C71.9056 74.2218 72.0495 73.8696 72.2059 73.5175C72.5113 72.7981 72.8444 72.0827 73.1913 71.3693C73.4219 70.8943 73.6367 70.3956 73.9087 69.9148C73.8614 69.8891 73.8141 69.8615 73.7648 69.8379C72.7933 71.3538 71.926 72.9342 71.1692 74.568L71.7742 74.5739Z" fill="#006064"/>
<path d="M72.7752 74.5739C73.2403 73.0859 73.7252 71.596 74.2435 70.1099C74.1942 70.0784 74.143 70.0508 74.0937 70.0212C74.0188 70.1671 73.942 70.3129 73.871 70.4588C73.6739 70.8529 73.4768 71.2471 73.3014 71.6512C72.854 72.6208 72.4539 73.5964 72.0913 74.5739H72.7752Z" fill="#006064"/>
<path d="M40.9556 15.0894L9.71533 70.0056L10.1982 70.7467L52.4221 73.3147L71.6775 38.4717L83.1795 17.6574L82.6966 16.9164L40.9556 15.0894Z" fill="#546E7A"/>
<path d="M18.0659 54.895L9.71533 70.0057L51.9392 72.5678L71.1946 37.7307C53.9081 42.1455 36.7773 47.654 18.736 54.6388C18.5113 54.7196 18.2886 54.7984 18.0659 54.895Z" fill="#80CBC4"/>
<path d="M40.4726 14.3481L18.0658 54.8948C18.2885 54.8061 18.5112 54.7194 18.7359 54.6386C36.7772 47.6538 53.908 42.1453 71.1945 37.7305L82.6965 16.9162L40.4726 14.3481Z" fill="#B2DFDB"/>
<path d="M50.5536 70.2875L13.454 68.0308L41.8581 16.6345L78.9558 18.8912L50.5536 70.2875Z" fill="#FFF3E0"/>
<path d="M64.3103 23.9584L41.2511 22.5551C40.7584 22.5256 40.4628 23.2154 40.9654 23.2449L64.0245 24.6482C64.5172 24.6778 64.805 23.9879 64.3103 23.9584Z" fill="white"/>
<path d="M72.7162 26.6585L74.49 23.4381C74.5362 23.3777 74.564 23.3052 74.57 23.2294C74.5759 23.1535 74.5598 23.0776 74.5235 23.0107C74.4873 22.9438 74.4324 22.8888 74.3656 22.8524C74.2988 22.816 74.2229 22.7997 74.147 22.8055L69.1233 22.5C68.9651 22.4964 68.8088 22.5348 68.6703 22.6113C68.5318 22.6879 68.4161 22.7997 68.335 22.9355L66.5612 26.1559C66.5149 26.2164 66.4871 26.2889 66.4812 26.3647C66.4752 26.4406 66.4914 26.5165 66.5276 26.5834C66.5639 26.6503 66.6187 26.7053 66.6855 26.7417C66.7523 26.7781 66.8282 26.7944 66.9041 26.7886L71.9278 27.0941C72.0862 27.0985 72.2428 27.0604 72.3814 26.9838C72.5201 26.9072 72.6356 26.7949 72.7162 26.6585Z" stroke="white" stroke-width="0.59126" stroke-miterlimit="10"/>
<path d="M58.9277 33.787L35.8686 32.3837C35.3758 32.3542 35.0802 33.044 35.5828 33.0735L58.6419 34.4768C59.1347 34.4985 59.4224 33.8166 58.9277 33.787Z" fill="white"/>
<path d="M67.3336 36.4869L69.1074 33.2665C69.1536 33.2061 69.1814 33.1336 69.1874 33.0577C69.1933 32.9819 69.1772 32.9059 69.1409 32.839C69.1047 32.7721 69.0498 32.7172 68.983 32.6807C68.9162 32.6443 68.8403 32.628 68.7644 32.6338L63.7446 32.3303C63.5865 32.3267 63.4302 32.3651 63.2917 32.4417C63.1532 32.5182 63.0375 32.6301 62.9563 32.7659L61.1825 35.9863C61.1363 36.0467 61.1085 36.1192 61.1025 36.195C61.0966 36.2709 61.1127 36.3468 61.149 36.4137C61.1852 36.4806 61.2401 36.5356 61.3069 36.572C61.3737 36.6084 61.4496 36.6247 61.5254 36.6189L66.5492 36.9244C66.707 36.9279 66.863 36.8892 67.0009 36.8123C67.1388 36.7354 67.2536 36.623 67.3336 36.4869Z" stroke="white" stroke-width="0.59126" stroke-miterlimit="10"/>
<path d="M53.5456 43.6154L30.4865 42.2121C29.9938 42.1825 29.6981 42.8723 30.2007 42.9019L53.2599 44.3052C53.7526 44.3347 54.0403 43.6449 53.5456 43.6154Z" fill="white"/>
<path d="M61.9513 46.3238L63.7251 43.1034C63.7713 43.043 63.7991 42.9705 63.8051 42.8946C63.811 42.8188 63.7949 42.7428 63.7586 42.6759C63.7224 42.6091 63.6675 42.5541 63.6007 42.5177C63.5339 42.4813 63.458 42.465 63.3822 42.4708L58.3584 42.1653C58.2002 42.1617 58.0439 42.2001 57.9054 42.2766C57.767 42.3531 57.6512 42.465 57.5701 42.6008L55.7963 45.8212C55.75 45.8816 55.7223 45.9541 55.7163 46.03C55.7103 46.1058 55.7265 46.1818 55.7627 46.2487C55.799 46.3156 55.8538 46.3705 55.9206 46.407C55.9874 46.4434 56.0634 46.4597 56.1392 46.4539L61.163 46.7594C61.3213 46.7638 61.4779 46.7257 61.6165 46.6491C61.7552 46.5725 61.8708 46.4602 61.9513 46.3238Z" stroke="white" stroke-width="0.59126" stroke-miterlimit="10"/>
<path d="M48.1631 53.4425L25.1039 52.0412C24.6112 52.0116 24.3156 52.7014 24.8181 52.731L47.8773 54.1343C48.372 54.1638 48.6578 53.474 48.1631 53.4425Z" fill="white"/>
<path d="M56.5687 56.1447L58.3425 52.9243C58.3888 52.8638 58.4165 52.7913 58.4225 52.7155C58.4285 52.6396 58.4123 52.5637 58.3761 52.4968C58.3398 52.4299 58.285 52.3749 58.2182 52.3385C58.1514 52.3021 58.0754 52.2858 57.9996 52.2916L52.9758 51.9861C52.8176 51.9821 52.6611 52.0204 52.5226 52.0969C52.384 52.1735 52.2683 52.2856 52.1875 52.4217L50.4137 55.6421C50.3675 55.7025 50.3397 55.775 50.3337 55.8508C50.3278 55.9267 50.3439 56.0027 50.3802 56.0695C50.4164 56.1364 50.4713 56.1914 50.5381 56.2278C50.6049 56.2642 50.6808 56.2805 50.7566 56.2747L55.7843 56.5723C55.9412 56.5768 56.0965 56.5396 56.2343 56.4645C56.3721 56.3893 56.4875 56.279 56.5687 56.1447Z" stroke="white" stroke-width="0.59126" stroke-miterlimit="10"/>
<path d="M42.7805 63.2731L19.7214 61.8718C19.2286 61.8422 18.933 62.532 19.4356 62.5616L42.4947 63.9648C42.9875 63.9924 43.2752 63.3026 42.7805 63.2731Z" fill="white"/>
<path d="M51.1862 65.9733L52.9599 62.7529C53.0062 62.6925 53.034 62.62 53.0399 62.5441C53.0459 62.4683 53.0298 62.3923 52.9935 62.3254C52.9572 62.2585 52.9024 62.2036 52.8356 62.1671C52.7688 62.1307 52.6929 62.1144 52.617 62.1202L47.5933 61.8147C47.435 61.8107 47.2786 61.849 47.14 61.9255C47.0014 62.0021 46.8858 62.1142 46.8049 62.2503L45.0311 65.4707C44.9849 65.5311 44.9571 65.6036 44.9512 65.6795C44.9452 65.7553 44.9613 65.8313 44.9976 65.8982C45.0338 65.965 45.0887 66.02 45.1555 66.0564C45.2223 66.0928 45.2982 66.1091 45.3741 66.1033L50.3978 66.4088C50.556 66.4126 50.7124 66.3743 50.8509 66.2977C50.9895 66.2212 51.1052 66.1092 51.1862 65.9733Z" stroke="white" stroke-width="0.59126" stroke-miterlimit="10"/>
<path d="M74.4328 21.5991L71.4312 23.8557C71.0036 24.2123 70.5582 24.5471 70.0969 24.8589C69.7264 25.0796 69.6732 25.2058 69.3598 25.0008C69.1864 24.8865 69.0484 24.5593 68.94 24.4095C68.7075 24.0824 67.9546 24.5357 68.1931 24.8648C68.6681 25.5369 68.9065 26.5065 70.1147 25.6295C71.7485 24.447 73.343 23.2034 74.9551 21.9933C75.3986 21.6523 74.8743 21.268 74.4328 21.5991Z" fill="#1976D2"/>
<path d="M64.1663 40.9352L61.1627 43.1938C60.7344 43.5498 60.2885 43.884 59.8264 44.195C59.4559 44.4177 59.4027 44.5438 59.0913 44.3388C58.9159 44.2245 58.7779 43.8954 58.6695 43.7476C58.437 43.4204 57.6841 43.8737 57.9226 44.2029C58.3975 44.8749 58.636 45.8446 59.8442 44.9676C61.48 43.785 63.0744 42.5414 64.6866 41.3313C65.1241 40.9903 64.6078 40.608 64.1663 40.9352Z" fill="#1976D2"/>
<path d="M24.4889 28.8892C26.2627 32.4958 27.5694 35.6098 28.5529 39.5043C28.677 40.0009 28.5529 40.8464 28.2257 41.2426C27.9478 41.5816 27.4374 41.6466 27.0176 41.5086C26.6099 41.3437 26.2438 41.0906 25.9454 40.7676C24.148 39.049 22.6462 36.2444 21.6095 33.9878L24.4889 28.8892Z" fill="#4DB6AC"/>
<path d="M27.4985 37.2457C27.1222 37.1353 26.7265 37.1075 26.3384 37.1639C25.9504 37.2204 25.579 37.3598 25.2497 37.5728C25.0369 37.7088 25.234 38.0498 25.4468 37.9138C25.7305 37.727 26.0516 37.6045 26.3876 37.5548C26.7236 37.5051 27.0665 37.5294 27.3921 37.626C27.4425 37.6402 27.4965 37.6336 27.5421 37.608C27.5878 37.5823 27.6214 37.5395 27.6355 37.4891C27.6496 37.4386 27.6431 37.3846 27.6174 37.339C27.5917 37.2933 27.5489 37.2598 27.4985 37.2457Z" fill="#00897B"/>
<path d="M13.0932 60.7385C13.0932 60.7385 11.349 62.3054 11.1558 62.9636L8.10889 72.6702L10.3537 72.7096L15.135 63.8072L15.7086 63.0307C16.2391 62.3131 16.6194 61.4959 16.8266 60.628C17.0339 59.76 17.0639 58.8591 16.9147 57.9793C16.5876 56.0577 16.56 53.4463 16.2742 51.9623C19.9459 54.1953 23.1033 56.9446 26.3256 59.8319C26.4339 59.9291 26.5215 60.0471 26.5831 60.1789C26.6447 60.3108 26.679 60.4537 26.6839 60.5991C26.6889 60.7445 26.6644 60.8894 26.612 61.0252C26.5596 61.1609 26.4803 61.2846 26.3788 61.3889C25.6316 62.1516 25.1989 63.1676 25.1668 64.2349L24.6563 72.6702L26.9011 72.7096L30.2279 60.7109C30.3765 60.1972 30.4051 59.6561 30.3114 59.1295C30.2178 58.603 30.0045 58.1049 29.6879 57.6738C27.8767 55.2063 24.0788 49.3449 21.3117 47.1238L20.7205 44.7174L10.602 43.3811C10.5015 43.5979 10.4049 43.8088 10.3301 44.0157C9.11372 47.0947 9.00918 50.5015 10.0344 53.6493C10.8504 56.2174 12.2418 58.202 13.0932 60.7385Z" fill="#6D4C41"/>
<path d="M29.1993 72.8734L27.2107 72.7157L24.6486 72.6704C24.3967 73.3406 24.2633 74.0495 24.2544 74.7654H28.5509L29.1993 72.8734Z" fill="#263238"/>
<path d="M31.0972 74.7651C31.0956 74.2627 30.895 73.7815 30.5392 73.4269C30.1834 73.0722 29.7016 72.873 29.1992 72.873C28.6967 72.873 28.2146 73.0721 27.8586 73.4267C27.5025 73.7813 27.3014 74.2626 27.2993 74.7651H31.0972Z" fill="#556369"/>
<path d="M12.6597 72.8734L10.6731 72.7157L8.11097 72.6704C7.85957 73.3407 7.72621 74.0496 7.7168 74.7654H12.0133L12.6597 72.8734Z" fill="#263238"/>
<path d="M14.5598 74.7651C14.5577 74.2626 14.3567 73.7813 14.0006 73.4267C13.6445 73.0721 13.1624 72.873 12.6599 72.873C12.1576 72.873 11.6757 73.0722 11.3199 73.4269C10.9642 73.7815 10.7635 74.2627 10.762 74.7651H14.5598Z" fill="#556369"/>
<path d="M15.7817 51.4577C14.9864 50.9305 14.1334 50.496 13.2393 50.1628C13.2165 50.1432 13.1896 50.129 13.1605 50.1214L13.0422 50.086C12.7939 50.015 12.7013 50.3816 12.9358 50.4663C13.8694 50.7994 14.7583 51.2462 15.5827 51.7967C15.7935 51.9386 15.9906 51.5976 15.7817 51.4577Z" fill="#4E342E"/>
<path d="M19.617 50.4152L16.4123 51.448C16.1719 51.5248 16.2744 51.9072 16.5168 51.8283L19.7214 50.8035C19.9638 50.7168 19.8594 50.3364 19.617 50.4152Z" fill="#4E342E"/>
<path d="M13.8817 51.2094L12.6676 51.1601C12.4134 51.1502 12.4134 51.5444 12.6676 51.5543L13.8817 51.6035C14.132 51.6134 14.132 51.2192 13.8817 51.2094Z" fill="#4E342E"/>
<path d="M13.8817 62.2009C13.4389 60.837 12.9948 59.4732 12.5494 58.1093C12.4706 57.8689 12.0902 57.9714 12.169 58.2138C12.6144 59.5776 13.0585 60.9415 13.5013 62.3053C13.5841 62.5458 13.9645 62.4433 13.8817 62.2009Z" fill="#4E342E"/>
<path d="M28.0524 60.6854L23.7776 57.0906C23.5805 56.927 23.3046 57.2049 23.4977 57.3685L27.7745 60.9653C27.9676 61.1269 28.2475 60.849 28.0524 60.6854Z" fill="#4E342E"/>
<path d="M27.6779 61.8068L27.1477 60.977C27.0117 60.7642 26.6708 60.9613 26.8087 61.1741L27.3369 62.0039C27.4808 62.2187 27.8178 62.0216 27.6779 61.8068Z" fill="#4E342E"/>
<path d="M10.1076 71.9451C9.79181 71.7787 9.44325 71.6838 9.08666 71.6673C8.83439 71.6554 8.83439 72.0496 9.08666 72.0614C9.3745 72.0745 9.65586 72.1512 9.91049 72.2861C10.1371 72.4044 10.3342 72.0654 10.1076 71.9451Z" fill="#4E342E"/>
<path d="M10.0642 71.2375L9.72325 71.1882C9.69827 71.1813 9.67218 71.1795 9.64648 71.1827C9.62077 71.1859 9.59595 71.1941 9.57343 71.2069C9.55092 71.2198 9.53115 71.2369 9.51526 71.2573C9.49937 71.2778 9.48767 71.3012 9.48083 71.3262C9.47395 71.3512 9.47206 71.3772 9.47528 71.403C9.47849 71.4287 9.48674 71.4535 9.49955 71.476C9.51236 71.4985 9.52949 71.5183 9.54995 71.5342C9.57041 71.5501 9.5938 71.5618 9.61879 71.5686L9.95975 71.6159C10.0099 71.6299 10.0636 71.6234 10.109 71.5979C10.1544 71.5724 10.1879 71.53 10.2022 71.4799C10.209 71.4549 10.2109 71.4289 10.2077 71.4031C10.2045 71.3774 10.1963 71.3526 10.1834 71.3301C10.1706 71.3076 10.1535 71.2878 10.133 71.2719C10.1126 71.256 10.0892 71.2443 10.0642 71.2375Z" fill="#4E342E"/>
<path d="M26.4834 71.9706L25.4132 71.8287C25.1629 71.7952 25.1649 72.1893 25.4132 72.2229L26.4834 72.3648C26.7337 72.3983 26.7317 72.0041 26.4834 71.9706Z" fill="#4E342E"/>
<path d="M26.6293 71.2809L25.9987 71.2317C25.7444 71.212 25.7464 71.6061 25.9987 71.6258L26.6293 71.6751C26.8895 71.6968 26.8895 71.3026 26.6293 71.2809Z" fill="#4E342E"/>
<path d="M13.2905 25.4326C13.2905 25.4326 18.127 25.5745 19.0631 25.7085C20.2626 25.895 21.4102 26.3285 22.4333 26.9817C23.1665 27.435 24.2899 27.9672 24.4811 28.8856C24.5257 29.1917 24.5109 29.5035 24.4377 29.804C24.0061 32.1336 22.7506 32.3523 21.7652 34.4828C21.0971 35.9314 20.9769 41.984 21.3493 46.5859C18.2472 47.2639 12.3109 47.3132 9.62268 45.6202C9.7429 40.4881 11.6152 25.6573 13.2905 25.4326Z" fill="#4DB6AC"/>
<path d="M12.0804 29.4374C12.1711 29.189 12.4746 29.3526 12.38 29.6009C10.5327 34.6854 9.71595 40.0867 9.97753 45.4901C9.98935 45.7542 9.65233 45.8074 9.64051 45.5433C9.37854 40.066 10.2079 34.5913 12.0804 29.4374Z" fill="#00897B"/>
<path d="M13.6531 45.2851C15.8431 45.015 17.9151 44.1423 19.6386 42.7644C19.8002 42.6382 19.9815 42.8984 19.8219 43.0245C18.0533 44.4335 15.929 45.3251 13.6846 45.6004C13.6428 45.6046 13.601 45.592 13.5685 45.5654C13.536 45.5388 13.5153 45.5003 13.5112 45.4585C13.507 45.4167 13.5196 45.3749 13.5462 45.3424C13.5728 45.3099 13.6112 45.2893 13.6531 45.2851Z" fill="#00897B"/>
<path d="M9.865 45.6084C11.4417 46.6628 13.381 46.8047 15.2336 46.8086C17.0513 46.8042 18.8662 46.6652 20.6634 46.3928C20.8605 46.3632 20.894 46.6805 20.6929 46.7101C18.6067 47.0297 16.496 47.1616 14.3862 47.1043C12.7168 47.0471 11.0712 46.785 9.65608 45.8469C9.48856 45.7325 9.6955 45.498 9.865 45.6084Z" fill="#00897B"/>
<path d="M11.4259 42.9397C11.9463 43.3525 12.5549 43.6397 13.2043 43.7792C13.8538 43.9186 14.5266 43.9065 15.1706 43.7438C15.3677 43.6965 15.48 43.9941 15.281 44.0414C14.5847 44.2199 13.8565 44.2353 13.1534 44.0862C12.4502 43.9372 11.7909 43.6278 11.2269 43.1821C11.0594 43.058 11.2643 42.8136 11.4259 42.9397Z" fill="#00897B"/>
<path d="M21.8835 31.9244C20.8792 36.4011 20.6076 41.011 21.0794 45.5747C21.105 45.825 21.4992 45.8269 21.4736 45.5747C21.0014 41.0471 21.2677 36.473 22.2619 32.0308C22.3191 31.7825 21.9387 31.6781 21.8835 31.9244Z" fill="#00897B"/>
<path d="M25.0231 37.7444L26.4618 37.906C26.7486 37.9368 27.024 38.0348 27.2659 38.192C27.5077 38.3491 27.709 38.5611 27.8536 38.8107C27.9982 39.0603 28.0818 39.3404 28.0979 39.6284C28.1139 39.9164 28.0618 40.204 27.9459 40.4681L27.934 40.4918C27.8167 40.7666 27.6152 40.9971 27.3586 41.15C27.2301 41.2248 27.083 41.2617 26.9345 41.2564C26.7859 41.2512 26.6419 41.2041 26.519 41.1205L25.0231 37.7444Z" fill="#FFCCBC"/>
<path d="M18.8088 24.5475L18.9743 21.5203C18.6715 21.4101 18.4076 21.2134 18.2155 20.9546C18.1121 20.8137 18.0543 20.6445 18.05 20.4698C18.0494 20.3829 18.0738 20.2978 18.1203 20.2244C18.1668 20.151 18.2333 20.0925 18.3121 20.0559C18.1862 19.9662 18.074 19.8586 17.979 19.7366C17.928 19.6833 17.8905 19.6185 17.8696 19.5476C17.8487 19.4768 17.8451 19.402 17.859 19.3295C17.8729 19.257 17.9039 19.1889 17.9494 19.1308C17.995 19.0727 18.0538 19.0263 18.1209 18.9956C18.2453 18.9336 18.3781 18.8905 18.5151 18.8675C18.4083 18.705 18.3334 18.5238 18.2944 18.3334C18.2707 18.2404 18.2736 18.1427 18.3029 18.0514C18.3322 17.9601 18.3866 17.8788 18.4599 17.817C18.5641 17.7528 18.6877 17.7276 18.8088 17.7461C18.9308 17.7693 19.0498 17.8063 19.1635 17.8564C19.1153 17.5852 19.1267 17.3068 19.197 17.0405C19.2329 16.9079 19.3091 16.7896 19.415 16.7021C19.5208 16.6146 19.6513 16.562 19.7883 16.5517C19.904 16.5588 20.0137 16.6056 20.0988 16.6842C20.1839 16.7629 20.2392 16.8686 20.2554 16.9833C20.3475 16.6162 20.5547 16.2881 20.8466 16.0472C20.9331 15.9673 21.036 15.9075 21.1482 15.8718C21.204 15.8543 21.2631 15.8494 21.321 15.8576C21.379 15.8658 21.4344 15.8868 21.4832 15.9191C21.5188 15.947 21.5481 15.982 21.5693 16.0219C21.5905 16.0618 21.6032 16.1056 21.6066 16.1507C21.6099 16.1958 21.6038 16.241 21.5887 16.2836C21.5736 16.3262 21.5497 16.3651 21.5187 16.398C21.6387 16.284 21.7709 16.1835 21.9129 16.0984C22.0421 16.001 22.2005 15.9503 22.3622 15.9545C22.4422 15.9576 22.5198 15.9823 22.5868 16.026C22.6538 16.0698 22.7077 16.1309 22.7426 16.2029C22.765 16.2581 22.7738 16.3179 22.7683 16.3772C22.7629 16.4365 22.7432 16.4937 22.7111 16.5438C22.8404 16.4024 22.9859 16.2767 23.1447 16.1694C23.3004 16.0344 23.4967 15.9553 23.7024 15.9447C23.8049 15.9413 23.9064 15.9662 23.9957 16.0166C24.085 16.067 24.1588 16.141 24.2089 16.2305C24.2437 16.3028 24.2593 16.3829 24.2541 16.463C24.2489 16.543 24.2232 16.6204 24.1794 16.6877C24.4284 16.4612 24.7479 16.3276 25.084 16.3093C25.2207 16.2903 25.36 16.3045 25.49 16.3507C25.5544 16.375 25.612 16.4146 25.6576 16.4661C25.7033 16.5176 25.7357 16.5794 25.7521 16.6463C25.7557 16.7447 25.7357 16.8425 25.6939 16.9316C25.6521 17.0207 25.5896 17.0986 25.5117 17.1587C25.8311 17.1534 26.1504 17.1699 26.4676 17.208C26.6019 17.2157 26.7327 17.2541 26.8499 17.3203C26.9333 17.3749 26.9971 17.4546 27.0321 17.5478C27.0672 17.641 27.0716 17.743 27.0448 17.839C27.0181 17.9349 26.9614 18.0198 26.8831 18.0814C26.8049 18.143 26.709 18.1781 26.6095 18.1816C26.7218 18.2841 26.8341 18.357 26.9524 18.4516C27.0764 18.542 27.1777 18.6601 27.248 18.7965C27.2817 18.8655 27.2977 18.9418 27.2947 19.0185C27.2916 19.0952 27.2694 19.17 27.2303 19.236C27.1884 19.2983 27.1251 19.3429 27.0524 19.3614C26.9797 19.38 26.9027 19.3711 26.8361 19.3365C26.8938 19.464 26.9709 19.5817 27.0647 19.6854C27.1132 19.7332 27.151 19.7908 27.1754 19.8544C27.1999 19.9179 27.2105 19.986 27.2066 20.0539C27.191 20.1173 27.1591 20.1755 27.1142 20.2228C27.0693 20.2702 27.0129 20.305 26.9504 20.324C26.8261 20.362 26.6958 20.3767 26.5661 20.3673C26.6272 20.4481 26.6075 20.5644 26.6489 20.657C26.6939 20.7487 26.7058 20.8532 26.6824 20.9527C26.6329 21.081 26.5353 21.1849 26.4104 21.2424C26.2516 21.3308 26.0767 21.3865 25.896 21.406C25.963 21.5104 25.8586 21.6799 25.7659 21.7627C25.6668 21.839 25.5491 21.8873 25.425 21.9026C25.0309 21.9771 24.627 21.9838 24.2306 21.9223L18.8088 24.5475Z" fill="#E64A19"/>
<path d="M19.1813 22.6218C19.0365 23.7775 18.7389 24.9088 18.2964 25.9861C18.2234 25.854 17.8371 25.8659 17.7268 25.9684C17.6745 26.0224 17.6387 26.0902 17.6237 26.1639C17.6086 26.2376 17.615 26.314 17.642 26.3842C17.6941 26.5255 17.7769 26.6534 17.8844 26.7587C18.6151 27.5618 19.5808 28.1136 20.6437 28.3354C20.8369 28.3847 21.0382 28.3934 21.2349 28.361C21.3323 28.3442 21.4238 28.3033 21.5013 28.242C21.5788 28.1807 21.6396 28.101 21.6784 28.0102C21.7075 27.9068 21.7086 27.7976 21.6816 27.6937C21.6546 27.5898 21.6004 27.495 21.5246 27.4189C21.3728 27.2679 21.1952 27.1451 21.0004 27.0563C21.2428 26.2246 21.3827 25.4185 21.6252 24.5868L19.1813 22.6218Z" fill="#FFCCBC"/>
<path d="M20.3442 26.3468C20.5513 26.5808 20.7717 26.8026 21.0045 27.011C21.237 26.1951 21.3789 25.4028 21.6154 24.5868L19.1814 22.616C19.1558 22.8131 19.1243 23.0101 19.0908 23.223C18.9905 23.8181 19.1036 24.4295 19.41 24.9495C19.6729 25.446 19.9859 25.9142 20.3442 26.3468Z" fill="#FFAB91"/>
<path d="M25.3758 19.6006C25.4352 19.6454 25.4803 19.7065 25.5055 19.7765C25.5307 19.8465 25.5349 19.9224 25.5177 19.9948C25.0585 21.8533 24.6741 23.4123 23.5843 24.9811C23.1901 25.5605 22.6146 26.1301 21.909 26.136C21.2034 26.1419 20.6555 25.6157 20.2397 25.0698C19.7046 24.3648 19.2909 23.5755 19.0158 22.7343C18.8004 22.7184 18.5973 22.6281 18.4413 22.4789C18.2852 22.3297 18.1859 22.1308 18.1604 21.9164C18.0717 21.5025 18.1604 21.0157 18.4955 20.7634C18.8305 20.5111 19.4395 20.6688 19.4967 21.0886C19.7608 20.3515 20.2121 20.0598 20.8172 19.5651C20.8566 19.0803 20.9512 18.5383 21.3926 18.3333C21.5318 18.2771 21.6801 18.2471 21.8302 18.2447C22.8984 18.1875 24.4495 18.9069 25.3758 19.6006Z" fill="#FFCCBC"/>
<path d="M19.8927 22.6104C19.8222 21.8379 19.852 21.0595 19.9814 20.2947C19.806 20.4816 19.6646 20.6977 19.5636 20.9332L19.1281 23.0677C19.3989 23.7901 19.7733 24.4693 20.2396 25.0839C20.6555 25.6298 21.2251 26.156 21.9089 26.1501C22.5928 26.1442 23.1802 25.5746 23.5842 24.9952C23.7685 24.7289 23.9389 24.4533 24.0946 24.1694C22.9149 23.182 21.431 22.6315 19.8927 22.6104Z" fill="#E64A19"/>
<path d="M22.9793 20.2451C22.7787 20.0243 22.518 19.8667 22.2292 19.7918C21.9403 19.7169 21.636 19.7279 21.3533 19.8234C21.1759 19.8786 21.3001 20.1427 21.4755 20.0855C21.6996 20.0145 21.9395 20.0093 22.1665 20.0704C22.3936 20.1315 22.5983 20.2565 22.7565 20.4304C22.8827 20.5664 23.1074 20.3831 22.9793 20.2451Z" fill="#E64A19"/>
<path d="M25.3126 21.0511C25.1879 20.8421 24.9873 20.6893 24.7526 20.6247C24.518 20.5601 24.2674 20.5886 24.0532 20.7043C23.8995 20.791 24.0138 21.0413 24.1695 20.9546C24.3168 20.8692 24.4912 20.8435 24.6569 20.8827C24.8226 20.922 24.9669 21.0231 25.0604 21.1654C25.149 21.3152 25.4013 21.2009 25.3126 21.0511Z" fill="#E64A19"/>
<path d="M22.2972 20.7024C22.3485 20.525 22.0785 20.4225 22.0252 20.6019L21.8715 21.136C21.8203 21.3134 22.0922 21.4158 22.1435 21.2365L22.2972 20.7024Z" fill="#37474F"/>
<path d="M24.7887 21.4907C24.8399 21.3114 24.5679 21.2109 24.5167 21.3902L24.363 21.9224C24.3117 22.1017 24.5837 22.2022 24.6349 22.0229L24.7887 21.4907Z" fill="#37474F"/>
<path d="M21.9011 24.3187C21.7389 24.2543 21.5933 24.1539 21.4754 24.0251C21.3532 23.893 21.1325 24.0783 21.2567 24.2123C21.4073 24.3777 21.5932 24.507 21.8006 24.5907C21.9622 24.6577 22.0687 24.3857 21.9011 24.3187Z" fill="#FFCCBC"/>
<path d="M23.5389 22.8703C23.4412 22.9144 23.335 22.936 23.2279 22.9336C23.1208 22.9312 23.0156 22.9049 22.92 22.8566C22.7505 22.7777 22.652 23.0536 22.8195 23.1285C22.9508 23.1904 23.0942 23.2224 23.2393 23.2224C23.3844 23.2224 23.5278 23.1904 23.6591 23.1285C23.688 23.1096 23.7092 23.0809 23.7187 23.0476C23.7282 23.0143 23.7254 22.9787 23.7108 22.9474C23.6962 22.916 23.6708 22.891 23.6392 22.8768C23.6076 22.8627 23.572 22.8604 23.5389 22.8703Z" fill="#FFAB91"/>
<path d="M19.0571 21.9304C19.0121 21.9052 18.9768 21.8658 18.9566 21.8184C18.9364 21.771 18.9326 21.7182 18.9456 21.6683C18.9587 21.6185 18.988 21.5744 19.0289 21.543C19.0697 21.5116 19.1199 21.4946 19.1714 21.4948C19.3567 21.4771 19.3054 21.1913 19.1202 21.209C19.0053 21.2202 18.8971 21.2683 18.8118 21.3461C18.7265 21.4239 18.6688 21.5273 18.6472 21.6407C18.632 21.7551 18.6538 21.8713 18.7095 21.9724C18.7652 22.0735 18.8518 22.1541 18.9566 22.2024C19.1222 22.2891 19.2207 22.0151 19.0571 21.9304Z" fill="#FFAB91"/>
<path d="M13.2036 25.5012C9.85757 27.7638 7.18542 30.8888 5.46991 34.5455C5.18863 35.074 5.00755 35.65 4.93581 36.2444C4.89442 36.8357 5.07968 37.4821 5.54283 37.8586C6.04146 38.2646 6.77068 38.2882 7.37771 38.0734C7.98474 37.8586 8.49519 37.4427 8.98397 37.0229C11.2046 35.1127 13.2205 32.9766 14.9991 30.6491L13.2036 25.5012Z" fill="#4DB6AC"/>
<path d="M4.56352 22.9945L7.40551 20.2491C7.42025 20.2347 7.44006 20.2266 7.46069 20.2266C7.48133 20.2266 7.50114 20.2347 7.51588 20.2491L46.6297 60.7504C46.6441 60.7648 46.6521 60.7843 46.6521 60.8046C46.6521 60.825 46.6441 60.8444 46.6297 60.8588L43.7858 63.6062C43.7714 63.6206 43.7519 63.6286 43.7316 63.6286C43.7113 63.6286 43.6918 63.6206 43.6774 63.6062L4.56155 23.1029C4.55434 23.0958 4.54865 23.0873 4.54483 23.0779C4.54101 23.0685 4.53913 23.0584 4.53932 23.0483C4.5395 23.0382 4.54174 23.0282 4.5459 23.0189C4.55006 23.0097 4.55605 23.0014 4.56352 22.9945Z" fill="#E65100"/>
<path d="M44.4431 62.9656L45.9644 61.4966L6.74568 20.8845L5.22446 22.3535L44.4431 62.9656Z" fill="#F09563"/>
<path d="M47.7904 64.9109L47.3371 63.2297L46.127 64.3985L47.7904 64.9109Z" fill="#1976D2"/>
<path d="M47.3374 63.2298L46.6811 60.8057L43.7268 63.6595L46.1273 64.3986L47.3374 63.2298Z" fill="#FFE0B2"/>
<path d="M10.7559 27.1882C10.3917 27.3466 10.0927 27.6248 9.90843 27.9766C9.95328 27.7288 10.0599 27.4964 10.2183 27.3007C10.3768 27.105 10.582 26.9525 10.815 26.8571C11.1619 26.7014 10.8623 26.1929 10.5174 26.3467C10.2262 26.4727 9.96903 26.6659 9.7669 26.9105C9.56478 27.1551 9.4235 27.4441 9.35462 27.7539C9.34245 27.4507 9.42463 27.1512 9.58983 26.8967C9.75503 26.6422 9.99512 26.4452 10.277 26.3329C10.6239 26.1791 10.3243 25.6687 9.97939 25.8224C9.6832 25.9499 9.42223 26.1472 9.21873 26.3974C9.01524 26.6476 8.87523 26.9432 8.81066 27.2592C8.77759 26.943 8.84888 26.6247 9.01364 26.3528C9.1784 26.0809 9.42759 25.8704 9.72317 25.7534C10.07 25.5977 9.77047 25.0892 9.42557 25.243C9.02619 25.4184 8.69477 25.719 8.48142 26.0995C8.26807 26.48 8.1844 26.9196 8.24305 27.3518C8.12124 27.7652 8.11469 28.204 8.22411 28.6208C8.33352 29.0376 8.55474 29.4166 8.86387 29.7168C9.02187 29.8733 9.21421 29.9907 9.42557 30.0598C9.53124 30.0941 9.6427 30.1069 9.75339 30.0974C9.86408 30.0879 9.97175 30.0564 10.07 30.0046C10.5253 29.7444 10.5214 29.1413 10.2297 28.761C10.2358 28.5149 10.3137 28.2761 10.4538 28.0737C10.5938 27.8713 10.79 27.7143 11.018 27.6218C11.3196 27.4937 11.0515 27.0562 10.7559 27.1882Z" fill="#FFCCBC"/>
<path d="M23.2847 39.2523C23.5472 38.9514 23.9059 38.7508 24.2997 38.6847C24.0498 38.6528 23.7959 38.6842 23.5614 38.7762C23.3268 38.8682 23.1192 39.0176 22.9575 39.2109C22.7053 39.4947 22.3111 39.0532 22.5634 38.7714C22.7714 38.5318 23.0334 38.3451 23.3277 38.2265C23.6221 38.108 23.9403 38.061 24.2564 38.0895C23.971 37.9861 23.6606 37.9738 23.3679 38.0542C23.0753 38.1347 22.8148 38.304 22.6225 38.5388C22.3702 38.8226 21.9761 38.3812 22.2283 38.0993C22.4402 37.8561 22.7075 37.6676 23.0077 37.5496C23.3079 37.4315 23.6321 37.3876 23.9528 37.4213C23.6613 37.2941 23.3361 37.2657 23.0269 37.3404C22.7177 37.4151 22.4414 37.5889 22.2402 37.8352C21.9879 38.119 21.5937 37.6795 21.846 37.3957C22.1329 37.0675 22.5188 36.8415 22.9454 36.7519C23.3721 36.6623 23.8163 36.7139 24.211 36.8991C24.641 36.9088 25.0601 37.0357 25.4234 37.2659C25.7866 37.4962 26.0802 37.8211 26.2725 38.2057C26.3743 38.4034 26.4283 38.6221 26.4302 38.8443C26.4302 38.9544 26.4083 39.0634 26.3656 39.165C26.323 39.2665 26.2605 39.3585 26.1819 39.4356C25.7976 39.7923 25.2221 39.6051 24.9481 39.2109C24.7112 39.1429 24.4597 39.1456 24.2243 39.2188C23.989 39.292 23.7802 39.4324 23.6237 39.6228C23.4069 39.8711 23.0679 39.4947 23.2847 39.2523Z" fill="#FFCCBC"/>
<path d="M8.46977 28.8953C7.43703 31.0764 6.40496 33.2594 5.37354 35.4445C5.68927 35.8966 6.14121 36.2361 6.66344 36.4134C7.18567 36.5906 7.75087 36.5964 8.27662 36.4299C8.86788 34.1969 9.37637 32.0073 9.96566 29.7743L8.46977 28.8953Z" fill="#FFCCBC"/>
<path d="M11.9562 33.3159C11.2556 34.4652 10.3926 35.5074 9.39407 36.4101C8.90863 36.8705 8.37316 37.2751 7.79767 37.6163C7.40349 37.8311 6.91472 38.0479 6.45945 38.0105C5.61592 37.9375 4.70735 37.2911 5.19415 36.3057C5.30649 36.079 4.96553 35.88 4.85319 36.1086C3.98207 37.8705 6.15199 38.7476 7.54343 38.18C9.54583 37.364 11.1915 35.3084 12.305 33.5129C12.4312 33.304 12.0902 33.1069 11.9562 33.3159Z" fill="#00897B"/>
<path d="M23.1272 32.7127C22.5776 33.1732 22.0662 33.6774 21.5978 34.2204C21.4323 34.4175 21.7101 34.6914 21.8757 34.5002C22.3437 33.9557 22.8559 33.4507 23.4071 32.9905C23.6022 32.827 23.3203 32.5491 23.1272 32.7127Z" fill="#00897B"/>
<path d="M31.5486 74.7712C31.5814 73.3513 31.7974 71.9417 32.1911 70.5771C32.0137 70.6492 31.8401 70.7301 31.6708 70.8196C31.5753 71.348 31.4315 71.8665 31.2412 72.3687C31.2234 72.4081 31.1288 72.4061 31.1268 72.3687C31.1178 71.9304 31.1594 71.4926 31.251 71.064C30.9855 71.2375 30.7367 71.4354 30.508 71.6552C30.6341 72.0829 30.7662 72.5086 30.8746 72.9402C31.0192 73.3894 31.1208 73.8514 31.1781 74.3198C31.1781 74.373 31.0657 74.4105 31.0342 74.3592C30.8031 73.9326 30.6093 73.4869 30.4548 73.0269C30.3267 72.7155 30.2183 72.3982 30.1099 72.0829C29.8316 72.428 29.6112 72.8161 29.4575 73.2319C29.9031 73.6961 30.2939 74.2099 30.6223 74.7633L31.5486 74.7712Z" fill="#00838F"/>
<path d="M32.2742 74.771C32.2742 74.6331 32.2742 74.4971 32.2742 74.3611C32.2951 73.5913 32.3609 72.8233 32.4713 72.0611C32.5265 71.6768 32.5758 71.2925 32.6684 70.9081C32.7098 70.7288 32.7551 70.5494 32.8004 70.3721C32.696 70.4016 32.5935 70.4312 32.493 70.4667C32.4753 70.5258 32.4575 70.5869 32.4417 70.648C32.0582 71.9903 31.845 73.3755 31.8071 74.771H32.2742Z" fill="#006064"/>
<path d="M33.3203 74.7712C33.3545 73.2641 33.3137 71.765 33.1981 70.2737L33.0148 70.3151C32.9872 70.5673 32.9636 70.8216 32.934 71.0719C32.8848 71.4897 32.8375 71.9075 32.8 72.3254C32.7276 73.1385 32.6973 73.9549 32.7093 74.7712H33.3203Z" fill="#006064"/>
<path d="M37.2722 74.7714C37.8462 74.022 38.4768 73.3176 39.1583 72.6645C39.113 72.5837 39.0637 72.5049 39.0125 72.426C38.854 72.6239 38.6743 72.8037 38.4764 72.9621C38.4389 72.9897 38.37 72.9621 38.3818 72.9345C38.5005 72.6775 38.667 72.4454 38.8725 72.2506V72.2368C38.8055 72.1442 38.7326 72.0535 38.6577 71.9649L38.5513 72.1284C38.2931 72.5384 38.0586 72.9542 37.7629 73.3583C37.7216 73.4154 37.5816 73.4095 37.6013 73.3425C37.7858 72.7573 38.0511 72.2007 38.3897 71.6889C38.233 71.5343 38.0657 71.3907 37.8891 71.2593C37.4831 72.428 37.1007 73.5987 36.7322 74.7714H37.2722Z" fill="#00838F"/>
<path d="M33.6042 74.7711H34.564C35.2132 73.3393 35.9648 71.9561 36.8128 70.6323C36.6511 70.5633 36.4816 70.5002 36.3102 70.445L36.2156 70.5869C35.9042 71.0659 35.6066 71.5487 35.3425 72.0355C35.0784 72.5223 34.8675 73.0426 34.5541 73.5275C34.5068 73.5984 34.3571 73.5827 34.3689 73.5097C34.486 72.9786 34.6798 72.4674 34.9444 71.9922C35.1906 71.4797 35.4656 70.9816 35.7682 70.5002C35.8056 70.4411 35.8431 70.382 35.8825 70.3248C35.7248 70.2854 35.5632 70.2539 35.3996 70.2282C35.3445 70.3899 35.3031 70.5534 35.2577 70.717C35.24 70.7821 35.0902 70.7998 35.0823 70.7328C35.0654 70.5512 35.0827 70.368 35.1336 70.1928C34.9917 70.177 34.8478 70.1652 34.7039 70.1593C34.5068 70.8175 34.3511 71.4758 34.1974 72.1301C34.1777 72.2129 34.0122 72.207 34.0122 72.1301C34.0343 71.4596 34.1389 70.7944 34.3235 70.1494C34.0397 70.1553 33.7566 70.1803 33.4761 70.2243C33.4899 70.378 33.5017 70.5337 33.5116 70.6894C33.6042 72.0434 33.6318 73.4053 33.6042 74.7711Z" fill="#00838F"/>
<path d="M39.641 74.7713C39.641 74.6866 39.6508 74.6018 39.6508 74.5171C39.6508 74.4323 39.6508 74.3535 39.641 74.2727C39.4439 74.4363 39.2468 74.6018 39.0615 74.7713H39.641Z" fill="#006064"/>
<path d="M38.5746 74.7711C38.8959 74.4637 39.2348 74.1621 39.5916 73.8724C39.5656 73.7265 39.5307 73.5824 39.4871 73.4408C39.3925 73.5314 39.2999 73.6221 39.2092 73.7147C39.0381 73.9309 38.8393 74.1238 38.618 74.2883C38.5884 74.304 38.547 74.2883 38.551 74.2685C38.5884 74.0596 38.817 73.833 38.9826 73.6497C39.1186 73.494 39.2624 73.3422 39.4142 73.1924C39.3886 73.1254 39.361 73.0584 39.3314 72.9954C38.7643 73.5513 38.2344 74.1438 37.7449 74.7691L38.5746 74.7711Z" fill="#006064"/>
<path d="M30.3679 74.7712C30.0812 74.3002 29.7513 73.8568 29.3825 73.4468C29.3253 73.6302 29.2838 73.8181 29.2583 74.0085C29.4975 74.232 29.7033 74.4889 29.8693 74.7712H30.3679Z" fill="#006064"/>
<path d="M29.7 74.7712C29.5443 74.6352 29.3886 74.4993 29.231 74.3652C29.231 74.4224 29.231 74.4815 29.231 74.5387C29.231 74.5958 29.231 74.6944 29.231 74.7712H29.7Z" fill="#006064"/>
<path d="M35.4824 74.7712C35.5987 74.4736 35.7209 74.18 35.845 73.8804C36.1012 73.2773 36.3831 72.6762 36.6748 72.077C36.8719 71.6829 37.0473 71.2571 37.266 70.8531L37.1458 70.7881C36.3298 72.0642 35.6028 73.395 34.97 74.7712H35.4824Z" fill="#006064"/>
<path d="M36.3238 74.7714C36.718 73.518 37.1122 72.2665 37.5576 71.0268L37.4334 70.9519C37.3684 71.0761 37.3053 71.1983 37.2364 71.3224C37.0734 71.6562 36.9144 71.9899 36.7594 72.3236C36.383 73.1376 36.0479 73.9575 35.7424 74.7813L36.3238 74.7714Z" fill="#006064"/>
</svg>
