<svg width="94" height="78" viewBox="0 0 94 78" fill="none" xmlns="http://www.w3.org/2000/svg">
<path d="M89.5468 17.5867C88.8773 15.9354 88.0839 14.337 87.1735 12.8053C82.8494 5.54622 75.2896 0.173368 66.5618 0.735007C61.8028 1.04068 57.26 3.05115 54.171 6.80369C52.2723 9.11486 50.7216 11.687 48.8379 14.0106C48.3538 14.6086 47.8361 15.1787 47.2872 15.7178C41.6161 21.2845 32.9877 22.3134 25.7411 19.279C23.4747 18.3322 21.1337 17.4624 18.6336 17.3705C14.7792 17.2263 10.9794 18.951 8.19609 21.5952C5.41274 24.2394 3.57375 27.7161 2.45792 31.3394C-0.472042 40.8475 1.51606 51.5062 7.11754 59.7171C12.719 67.9279 21.7077 73.6934 31.5016 76.1512C41.2955 78.609 51.8225 77.8709 61.4673 74.7397C72.971 71.012 82.9836 63.5094 88.3763 52.5152C93.6075 41.8465 94.02 28.5933 89.5468 17.5867Z" fill="#F5F5FF"/>
<path d="M77.7098 72.1825H47.3862V75.689H77.7098V72.1825Z" fill="#35235F"/>
<path d="M70.0457 66.6257H53.8228V72.2695H70.0457V66.6257Z" fill="#35235F"/>
<path d="M91.1744 26.1256H31.2157C30.5157 26.1256 29.9482 26.6931 29.9482 27.393V65.3583C29.9482 66.0583 30.5157 66.6257 31.2157 66.6257H91.1744C91.8743 66.6257 92.4418 66.0583 92.4418 65.3583V27.393C92.4418 26.6931 91.8743 26.1256 91.1744 26.1256Z" fill="#35235F"/>
<path d="M88.7889 26.1256H28.8302C28.1302 26.1256 27.5627 26.6931 27.5627 27.393V65.3583C27.5627 66.0583 28.1302 66.6257 28.8302 66.6257H88.7889C89.4888 66.6257 90.0563 66.0583 90.0563 65.3583V27.393C90.0563 26.6931 89.4888 26.1256 88.7889 26.1256Z" fill="#8E93FC"/>
<path d="M66.9195 66.6257H50.6965V72.2695H66.9195V66.6257Z" fill="#8E93FC"/>
<g style="mix-blend-mode:multiply">
<path d="M50.6965 66.6257H66.9195H70.0457V70.5348L66.9195 69.178L50.6965 66.6257Z" fill="#67ABDB"/>
</g>
<path d="M73.9698 72.1825H43.6462V75.689H73.9698V72.1825Z" fill="#8E93FC"/>
<path d="M87.407 28.76V61.8246C87.407 62.0441 87.3198 62.2546 87.1646 62.4098C87.0094 62.565 86.7989 62.6521 86.5795 62.6521H30.4578C30.2383 62.6521 30.0278 62.565 29.8726 62.4098C29.7174 62.2546 29.6302 62.0441 29.6302 61.8246V28.76C29.6302 28.5403 29.7174 28.3295 29.8725 28.1739C30.0276 28.0183 30.2381 27.9306 30.4578 27.9299H86.5795C86.7992 27.9306 87.0096 28.0183 87.1648 28.1739C87.3199 28.3295 87.407 28.5403 87.407 28.76Z" fill="#F5F5FF"/>
<path d="M58.6736 49.1305C58.6736 49.1305 58.5965 49.8611 58.4797 51.0242C58.4624 51.1758 58.4475 51.3373 58.4301 51.5063C58.1418 54.3691 57.6646 59.2102 57.4037 62.6521H52.1849C52.1452 59.153 52.3092 54.6997 52.5229 50.7682C52.5552 50.209 52.585 49.6623 52.6173 49.1305H58.6736Z" fill="#FF9D7A"/>
<path d="M64.4865 62.6521H59.5411C59.2429 58.7082 58.9024 54.7593 58.5471 51.5063C58.5297 51.3447 58.5098 51.1807 58.4924 51.0242C58.4154 50.3581 58.3358 49.7269 58.2588 49.1305H64.5114C64.5114 49.1305 64.5337 49.6996 64.5561 50.7458C64.5983 52.9203 64.6381 57.1724 64.4865 62.6521Z" fill="#FF9D7A"/>
<path d="M64.9041 62.6521H59.1709C58.7982 56.9363 58.4627 52.0629 58.4627 52.0629L57.6078 62.6521H51.7876C51.8845 58.8921 52.1604 53.3676 52.2995 50.6961L52.384 49.1305H64.755C64.7898 49.5082 64.8196 50.0251 64.8445 50.6588C64.9439 53.2732 64.9439 57.8657 64.9041 62.6521Z" fill="#8E93FC"/>
<path d="M65.4112 50.3979C65.0857 50.8452 57.7322 52.5102 52.1481 50.6464C51.9219 50.5693 53.8231 29.3265 53.8231 29.3265L56.3504 28.6505H58.853L61.4599 29.3389L65.4112 50.3979Z" fill="#FFD151"/>
<path d="M60.1801 24.0603C60.8032 23.2893 61.2692 22.4036 61.5519 21.4534C61.6553 21.1815 61.6769 20.8852 61.614 20.601C61.5788 20.461 61.4938 20.3387 61.3748 20.2568C61.2559 20.1749 61.1112 20.1392 60.9679 20.1562C60.6116 19.406 60.0475 18.7738 59.3426 18.3346C58.6522 17.894 57.8779 17.6012 57.0687 17.4748C56.3448 17.3164 55.5905 17.3707 54.8967 17.6313C54.5363 17.7865 54.2162 18.0223 53.9612 18.3206C53.7061 18.6188 53.5228 18.9716 53.4254 19.3517C53.3279 19.7319 53.3189 20.1293 53.3991 20.5135C53.4792 20.8976 53.6464 21.2583 53.8877 21.5678C53.6069 22.0822 53.7908 22.7532 54.1884 23.1831C54.613 23.5894 55.1351 23.8796 55.7044 24.0256C56.6952 24.3411 57.7244 24.5201 58.7636 24.5574C59.2929 24.5773 59.8446 24.4729 60.1801 24.0603Z" fill="black"/>
<path d="M59.9164 24.6718C59.2537 26.0556 58.8743 27.5579 58.8006 29.0904C58.6853 29.3275 58.5024 29.5251 58.2749 29.6584C58.0474 29.7916 57.7855 29.8545 57.5224 29.8391C57.2592 29.8237 57.0064 29.7306 56.7961 29.5717C56.5857 29.4129 56.4271 29.1952 56.3403 28.9463C56.395 27.982 56.2434 27.5223 55.9477 27.1793L55.8756 27.0973C55.8561 27.0804 55.8379 27.0621 55.8209 27.0427L55.7066 26.9408C55.4407 26.7121 55.1052 26.4959 54.725 26.1306C54.2128 25.6323 53.903 24.9623 53.8552 24.2494V24.2096C53.8564 24.1881 53.8564 24.1665 53.8552 24.145C53.8564 24.1351 53.8564 24.1251 53.8552 24.1152C53.7856 23.2677 53.9024 22.142 54.2876 20.5962C54.6852 18.9933 58.6365 18.5261 59.6306 20.6335C60.0282 21.4884 59.9164 24.6718 59.9164 24.6718Z" fill="#FF9D7A"/>
<path d="M53.9673 20.2755C54.6338 20.6671 55.4028 20.849 56.1741 20.7974C56.9415 20.7426 57.7011 20.6077 58.4405 20.3948C58.4203 20.5009 58.4261 20.6103 58.4572 20.7137C58.4884 20.8171 58.544 20.9115 58.6195 20.9888C58.6961 21.0651 58.7904 21.1213 58.894 21.1525C58.9976 21.1837 59.1073 21.189 59.2134 21.1677C59.1312 21.6594 59.1513 22.1627 59.2723 22.6463C59.3933 23.1299 59.6127 23.5833 59.9167 23.9784C60.0956 23.2701 60.3243 22.5494 60.3267 21.8213C60.3566 21.0855 60.1182 20.364 59.6557 19.7909C59.2636 19.3699 58.7534 19.0771 58.192 18.951C57.6337 18.8264 57.0605 18.7821 56.4897 18.8192C55.9553 18.8143 55.4252 18.9139 54.929 19.1125C54.6886 19.2171 54.4762 19.3769 54.3091 19.579C54.1419 19.7811 54.0249 20.0197 53.9673 20.2755Z" fill="black"/>
<path d="M57.0409 23.623C57.039 23.6556 57.0306 23.6876 57.0163 23.717C57.002 23.7464 56.9821 23.7727 56.9576 23.7944C56.9331 23.816 56.9046 23.8327 56.8737 23.8434C56.8428 23.8541 56.8101 23.8586 56.7775 23.8566C56.7449 23.8546 56.7129 23.8463 56.6835 23.832C56.6541 23.8177 56.6278 23.7977 56.6062 23.7733C56.5845 23.7488 56.5678 23.7203 56.5571 23.6894C56.5464 23.6585 56.5419 23.6258 56.5439 23.5932C56.5459 23.5605 56.5542 23.5286 56.5685 23.4992C56.5828 23.4698 56.6028 23.4435 56.6272 23.4218C56.6517 23.4001 56.6802 23.3835 56.7111 23.3728C56.742 23.3621 56.7747 23.3576 56.8073 23.3596C56.84 23.3615 56.8719 23.3699 56.9013 23.3842C56.9307 23.3985 56.957 23.4184 56.9787 23.4429C57.0004 23.4674 57.017 23.4959 57.0277 23.5268C57.0384 23.5577 57.0429 23.5904 57.0409 23.623Z" fill="black"/>
<path d="M56.795 23.5386C56.795 23.563 56.7853 23.5864 56.768 23.6036C56.7508 23.6209 56.7274 23.6306 56.703 23.6306C56.6786 23.6306 56.6553 23.6209 56.638 23.6036C56.6208 23.5864 56.6111 23.563 56.6111 23.5386C56.6111 23.5142 56.6208 23.4908 56.638 23.4736C56.6553 23.4563 56.6786 23.4467 56.703 23.4467C56.7274 23.4467 56.7508 23.4563 56.768 23.4736C56.7853 23.4908 56.795 23.5142 56.795 23.5386Z" fill="white"/>
<path d="M55.1027 23.5086C55.1007 23.5413 55.0924 23.5732 55.0781 23.6026C55.0638 23.632 55.0438 23.6583 55.0194 23.68C54.9949 23.7017 54.9664 23.7183 54.9355 23.729C54.9046 23.7397 54.8719 23.7442 54.8393 23.7422C54.8066 23.7403 54.7747 23.7319 54.7453 23.7176C54.7159 23.7033 54.6896 23.6834 54.6679 23.6589C54.6462 23.6344 54.6296 23.6059 54.6189 23.575C54.6082 23.5441 54.6037 23.5114 54.6057 23.4788C54.6096 23.4129 54.6396 23.3513 54.689 23.3074C54.7384 23.2636 54.8032 23.2412 54.8691 23.2452C54.935 23.2492 54.9966 23.2791 55.0404 23.3285C55.0843 23.3779 55.1067 23.4427 55.1027 23.5086Z" fill="black"/>
<path d="M54.8566 23.4243C54.8541 23.4487 54.8425 23.4712 54.824 23.4874C54.8056 23.5035 54.7817 23.5121 54.7572 23.5113C54.7328 23.5113 54.7095 23.5016 54.6922 23.4844C54.675 23.4671 54.6653 23.4437 54.6653 23.4194C54.6653 23.395 54.675 23.3716 54.6922 23.3543C54.7095 23.3371 54.7328 23.3274 54.7572 23.3274C54.7703 23.3267 54.7833 23.3287 54.7955 23.3333C54.8077 23.3379 54.8188 23.345 54.8282 23.3541C54.8375 23.3632 54.8449 23.3741 54.8498 23.3862C54.8547 23.3983 54.857 23.4113 54.8566 23.4243Z" fill="white"/>
<path d="M55.3288 22.6289C55.1832 22.5132 55.0028 22.4502 54.8168 22.4502C54.6309 22.4502 54.4504 22.5132 54.3049 22.6289C54.276 22.6538 54.2565 22.6879 54.2497 22.7254C54.2429 22.763 54.2493 22.8017 54.2676 22.8352C54.2761 22.8506 54.2879 22.864 54.302 22.8744C54.3162 22.8849 54.3325 22.8921 54.3497 22.8956C54.367 22.8992 54.3848 22.8989 54.4019 22.8949C54.4191 22.8909 54.4351 22.8833 54.449 22.8725C54.5101 22.8251 54.58 22.7903 54.6547 22.7703C54.7294 22.7502 54.8073 22.7452 54.8839 22.7557C54.9618 22.7658 55.037 22.7911 55.1051 22.8302C55.1648 22.865 55.2219 22.9222 55.294 22.8849C55.3115 22.876 55.3268 22.8633 55.3387 22.8476C55.3643 22.8163 55.3774 22.7767 55.3756 22.7364C55.3737 22.696 55.3571 22.6577 55.3288 22.6289Z" fill="black"/>
<path d="M56.3305 22.6289C56.5147 22.53 56.7243 22.4883 56.9323 22.5091C57.1404 22.5299 57.3375 22.6123 57.4985 22.7457C57.5272 22.7727 57.5444 22.8096 57.5467 22.8489C57.549 22.8882 57.5362 22.9268 57.5109 22.957C57.4844 22.9855 57.4479 23.0026 57.409 23.0049C57.3702 23.0073 57.3319 22.9945 57.3022 22.9694C57.166 22.8589 56.9953 22.8 56.8201 22.8029C56.7353 22.8039 56.6513 22.8191 56.5716 22.8476C56.497 22.8725 56.4249 22.9222 56.3454 22.8775C56.3276 22.8658 56.3123 22.8506 56.3007 22.8327C56.2891 22.8175 56.2806 22.8 56.2758 22.7815C56.271 22.7629 56.27 22.7435 56.2728 22.7246C56.2755 22.7056 56.2821 22.6874 56.292 22.6709C56.3019 22.6545 56.315 22.6402 56.3305 22.6289Z" fill="black"/>
<path d="M55.3735 24.207C55.3663 24.2061 55.3595 24.203 55.3542 24.1981C55.3489 24.1932 55.3452 24.1868 55.3437 24.1797C55.294 23.9635 55.371 23.8939 55.4456 23.8765C55.4897 23.8703 55.5347 23.8735 55.5775 23.8859C55.6204 23.8983 55.6601 23.9197 55.6941 23.9486C55.6998 23.9546 55.7031 23.9626 55.7031 23.9709C55.7031 23.9793 55.6998 23.9873 55.6941 23.9933C55.6881 23.9991 55.68 24.0023 55.6717 24.0023C55.6634 24.0023 55.6554 23.9991 55.6493 23.9933C55.6213 23.9697 55.5888 23.952 55.5538 23.9414C55.5188 23.9307 55.482 23.9272 55.4456 23.9312C55.3809 23.9486 55.3635 24.0256 55.3934 24.1598C55.3948 24.168 55.3931 24.1765 55.3884 24.1835C55.3838 24.1904 55.3767 24.1953 55.3685 24.1971L55.3735 24.207Z" fill="#FF6941"/>
<path d="M55.1723 24.8655C55.1815 24.8856 55.1957 24.9031 55.2135 24.9161C55.2314 24.9292 55.2523 24.9374 55.2742 24.9401C55.6159 24.9801 55.9623 24.9436 56.2881 24.8332C56.3033 24.8272 56.3171 24.8182 56.3286 24.8066C56.3402 24.7951 56.3492 24.7813 56.3552 24.7661C56.3689 24.7318 56.3689 24.6936 56.3552 24.6593C56.346 24.6387 56.3315 24.6209 56.3132 24.6078C56.2948 24.5947 56.2733 24.5867 56.2508 24.5847C56.2296 24.58 56.2075 24.58 56.1862 24.5847C55.9023 24.6831 55.5994 24.7138 55.3015 24.6742C55.2799 24.6703 55.2577 24.6726 55.2374 24.681C55.2172 24.6894 55.1997 24.7034 55.1872 24.7214C55.172 24.7419 55.1626 24.7661 55.1599 24.7914C55.1573 24.8168 55.1616 24.8424 55.1723 24.8655Z" fill="#C16B5B"/>
<path d="M60.7565 24.7936C60.3986 25.1738 59.8619 25.2508 59.5612 24.9675C59.2605 24.6842 59.3126 24.1425 59.6655 23.7622C60.0184 23.382 60.5577 23.305 60.8609 23.5908C61.1641 23.8765 61.1169 24.4133 60.7565 24.7936Z" fill="#FF9D7A"/>
<path d="M60.6296 23.7721C60.5534 23.7324 60.4693 23.7101 60.3834 23.7066C60.2974 23.7032 60.2118 23.7188 60.1326 23.7523C60.0542 23.7797 59.9847 23.8278 59.9313 23.8914C59.9012 23.9275 59.8803 23.9702 59.8704 24.0161C59.8604 24.062 59.8617 24.1096 59.8742 24.1549C59.9004 24.2236 59.9451 24.2838 60.0034 24.3288C60.0383 24.3563 60.0678 24.39 60.0904 24.4282C60.1047 24.456 60.1097 24.4876 60.1048 24.5184C60.0999 24.5493 60.0853 24.5777 60.063 24.5997C60.0402 24.6214 60.0112 24.6354 59.98 24.6399C59.9489 24.6443 59.9171 24.639 59.8891 24.6245C59.8817 24.6203 59.8734 24.6176 59.8649 24.6167C59.8564 24.6158 59.8478 24.6166 59.8396 24.6192C59.8315 24.6218 59.8239 24.626 59.8174 24.6316C59.811 24.6372 59.8058 24.6441 59.8021 24.6519C59.7977 24.6594 59.7949 24.6676 59.7938 24.6762C59.7926 24.6848 59.7933 24.6935 59.7956 24.7019C59.7979 24.7102 59.8019 24.718 59.8073 24.7248C59.8126 24.7316 59.8193 24.7372 59.827 24.7413C59.8627 24.7587 59.9016 24.7689 59.9413 24.7712C59.9903 24.775 60.0396 24.7656 60.0838 24.7439C60.128 24.7223 60.1656 24.6893 60.1928 24.6482C60.2199 24.6071 60.2356 24.5595 60.2381 24.5103C60.2406 24.4612 60.2299 24.4122 60.2072 24.3686C60.1779 24.3163 60.1392 24.2699 60.0929 24.2319C60.0516 24.202 60.019 24.1617 59.9984 24.1151C59.9923 24.0904 59.9923 24.0646 59.9983 24.04C60.0044 24.0153 60.0164 23.9925 60.0332 23.9734C60.0483 23.9553 60.0659 23.9394 60.0854 23.9262C60.1542 23.9281 60.2198 23.9556 60.2693 24.0033C60.291 24.03 60.3064 24.0614 60.3141 24.095C60.3219 24.1286 60.3218 24.1635 60.314 24.1971C60.3103 24.2142 60.3134 24.2321 60.3227 24.247C60.332 24.2618 60.3467 24.2725 60.3637 24.2766C60.3791 24.2766 60.394 24.2714 60.4062 24.262C60.4183 24.2525 60.427 24.2393 60.4308 24.2244C60.4427 24.171 60.4424 24.1155 60.4299 24.0622C60.4174 24.0088 60.3931 23.959 60.3588 23.9163C60.3318 23.8869 60.2998 23.8625 60.2643 23.8442C60.365 23.8201 60.4709 23.8334 60.5625 23.8815C60.6167 23.9111 60.6579 23.9598 60.6782 24.0182C60.6984 24.0765 60.6961 24.1403 60.6719 24.1971C60.6637 24.2123 60.6617 24.2302 60.6664 24.2468C60.671 24.2635 60.6819 24.2777 60.6968 24.2866C60.7123 24.2946 60.7303 24.2962 60.747 24.2911C60.7637 24.286 60.7778 24.2745 60.7862 24.2592C60.8248 24.173 60.8302 24.0756 60.8013 23.9857C60.7724 23.8958 60.7113 23.8197 60.6296 23.7721Z" fill="#FF6941"/>
<path d="M37.7491 24.3686C37.7491 24.3686 36.9513 24.8657 36.2207 24.478C36.0184 24.3787 35.8406 24.2358 35.7001 24.0597C35.5596 23.8835 35.4599 23.6784 35.4081 23.4591C35.4081 23.4591 34.3097 24.0655 34.076 23.9114C33.8424 23.7573 35.0129 22.9447 35.0129 22.9447C35.0129 22.9447 33.5542 23.1335 33.5045 22.8975C33.4548 22.6614 34.9956 22.3458 34.9956 22.3458C34.9956 22.3458 33.4597 21.8487 33.5591 21.5331C33.6586 21.2175 35.5597 21.8313 35.5597 21.8313C35.5597 21.8313 34.8688 20.5888 35.1273 20.4372C35.4975 20.2185 37.1154 22.3805 37.1328 22.3582C37.1502 22.3358 37.6298 21.1156 38.0697 21.3989C38.5095 21.6822 37.928 22.0624 37.9678 22.6663C37.9926 22.9397 38.2312 23.9661 37.7491 24.3686Z" fill="#FF9D7A"/>
<path d="M53.8227 29.3389C51.7377 29.9005 45.997 31.0188 45.7734 30.9493C45.5497 30.8797 38.482 23.0167 38.482 23.0167C38.482 23.0167 36.5063 24.1599 35.8701 25.149C35.8701 25.149 42.652 34.4483 44.5954 34.8932C46.5388 35.338 53.3605 34.59 53.3605 34.59L53.8227 29.3389Z" fill="#FFD151"/>
<path d="M54.7749 35.3478C54.7749 35.3478 54.0542 35.9592 53.2838 35.6659C53.0699 35.5955 52.8742 35.4785 52.7109 35.3234C52.5476 35.1682 52.4208 34.9788 52.3395 34.7688C52.3395 34.7688 51.333 35.5143 51.082 35.4C50.831 35.2857 51.8747 34.314 51.8747 34.314C51.8747 34.314 50.4557 34.7017 50.3837 34.4731C50.3116 34.2444 51.7878 33.7275 51.7878 33.7275C51.7878 33.7275 50.1973 33.4442 50.2544 33.1211C50.3116 32.7981 52.2773 33.141 52.2773 33.141C52.2773 33.141 51.42 32.0053 51.6561 31.8189C51.994 31.5505 53.8927 33.4715 53.9076 33.4442C53.9225 33.4169 54.2232 32.1594 54.7028 32.3682C55.1825 32.5769 54.6531 33.0441 54.7774 33.6356C54.8196 33.9064 55.1949 34.8906 54.7749 35.3478Z" fill="#FF9D7A"/>
<path d="M61.4597 29.3387C64.2083 30.0321 65.9479 39.9428 63.4478 41.1033C61.0745 42.2043 53.5073 36.1902 53.5073 36.1902C53.772 35.2462 54.3181 34.4053 55.073 33.7797L61.6809 36.988L61.4597 29.3387Z" fill="#FFD151"/>
<path d="M62.4736 37.2912C60.232 36.2226 58.0203 35.0952 55.8383 33.9089C55.6967 33.8319 55.55 34.0357 55.6917 34.1127C57.8919 35.3106 60.1227 36.4487 62.3841 37.5273C62.5308 37.5894 62.6177 37.3533 62.4736 37.2912Z" fill="#FF6941"/>
<path d="M60.6868 32.3906C60.6779 32.3576 60.6563 32.3295 60.6267 32.3125C60.5971 32.2955 60.562 32.291 60.529 32.2999C60.4961 32.3088 60.468 32.3304 60.451 32.36C60.434 32.3896 60.4294 32.4247 60.4383 32.4577C60.7911 33.8696 60.9722 35.319 60.9776 36.7743C60.9833 36.803 60.9989 36.8289 61.0215 36.8474C61.0442 36.866 61.0725 36.8761 61.1018 36.8761C61.1311 36.8761 61.1595 36.866 61.1821 36.8474C61.2048 36.8289 61.2203 36.803 61.2261 36.7743C61.2233 35.2967 61.0422 33.8248 60.6868 32.3906Z" fill="#FF6941"/>
<path d="M63.4575 40.9966C62.8636 41.3023 62.1503 41.0463 61.5638 40.845C60.9237 40.622 60.2979 40.3597 59.6901 40.0597C58.4876 39.4548 57.3314 38.762 56.2308 37.9871C55.597 37.5522 54.9882 37.1024 54.3545 36.6501C54.2228 36.5532 54.106 36.7719 54.2277 36.8663C56.4842 38.5115 58.8078 40.1566 61.4694 41.091C62.1404 41.3221 62.9108 41.5756 63.5843 41.2252C63.7284 41.1382 63.6016 40.922 63.4575 40.9966Z" fill="#FF6941"/>
<path d="M55.6174 28.8369L56.3505 28.4343L57.695 29.826L56.5419 30.912L55.6174 28.8369Z" fill="#FF6941"/>
<path d="M59.6407 28.8618L58.8504 28.4343L57.6948 29.826L58.9051 30.8921L59.6407 28.8618Z" fill="#FF6941"/>
<path d="M57.6077 30.0248C57.6077 30.7554 57.6077 31.486 57.6077 32.2167C57.6077 32.2404 57.6171 32.2631 57.6339 32.2799C57.6506 32.2967 57.6734 32.3061 57.6971 32.3061C57.7209 32.3061 57.7436 32.2967 57.7604 32.2799C57.7772 32.2631 57.7866 32.2404 57.7866 32.2167C57.7866 31.486 57.7866 30.7554 57.7866 30.0248C57.7866 30.001 57.7772 29.9783 57.7604 29.9615C57.7436 29.9447 57.7209 29.9353 57.6971 29.9353C57.6734 29.9353 57.6506 29.9447 57.6339 29.9615C57.6171 29.9783 57.6077 30.001 57.6077 30.0248Z" fill="#FF6941"/>
<path d="M58.0973 30.5515C58.0538 30.5567 58.0137 30.5776 57.9846 30.6104C57.9555 30.6431 57.9395 30.6854 57.9395 30.7292C57.9395 30.773 57.9555 30.8153 57.9846 30.848C58.0137 30.8808 58.0538 30.9017 58.0973 30.9069C58.1408 30.9017 58.181 30.8808 58.2101 30.848C58.2391 30.8153 58.2552 30.773 58.2552 30.7292C58.2552 30.6854 58.2391 30.6431 58.2101 30.6104C58.181 30.5776 58.1408 30.5567 58.0973 30.5515Z" fill="#FF6941"/>
<path d="M58.1471 31.4337C58.1036 31.4389 58.0635 31.4598 58.0344 31.4926C58.0053 31.5253 57.9893 31.5676 57.9893 31.6114C57.9893 31.6552 58.0053 31.6975 58.0344 31.7303C58.0635 31.763 58.1036 31.7839 58.1471 31.7891C58.1906 31.7839 58.2308 31.763 58.2599 31.7303C58.289 31.6975 58.305 31.6552 58.305 31.6114C58.305 31.5676 58.289 31.5253 58.2599 31.4926C58.2308 31.4598 58.1906 31.4389 58.1471 31.4337Z" fill="#FF6941"/>
<path d="M84.9816 58.1141H31.4694V61.4467H84.9816V58.1141Z" fill="#35235F"/>
<path d="M84.9816 56.9015H31.4694V57.811H84.9816V56.9015Z" fill="#35235F"/>
<path d="M34.6228 59.6127L33.0324 58.6559C33.0156 58.6465 32.9966 58.6416 32.9774 58.6416C32.9581 58.6416 32.9392 58.6467 32.9225 58.6562C32.9057 58.6657 32.8917 58.6793 32.8818 58.6958C32.8719 58.7123 32.8664 58.7311 32.8658 58.7503V60.6515C32.8664 60.6707 32.8719 60.6895 32.8818 60.706C32.8917 60.7225 32.9057 60.7361 32.9225 60.7456C32.9392 60.7551 32.9581 60.7602 32.9774 60.7602C32.9966 60.7602 33.0156 60.7553 33.0324 60.7459L34.6228 59.7891C34.6372 59.7793 34.6489 59.7662 34.657 59.7508C34.6652 59.7354 34.6694 59.7183 34.6694 59.7009C34.6694 59.6835 34.6652 59.6664 34.657 59.651C34.6489 59.6357 34.6372 59.6225 34.6228 59.6127Z" fill="white"/>
<path d="M36.355 58.559H35.689V60.8552H36.355V58.559Z" fill="white"/>
<path d="M37.3564 58.559H36.6904V60.8552H37.3564V58.559Z" fill="white"/>
<g style="mix-blend-mode:soft-light" opacity="0.5">
<path d="M76.05 27.9299L41.9317 62.6521H34.27L68.3834 27.9299H76.05Z" fill="white"/>
<path d="M81.5667 27.9299L47.4534 62.6521H44.3171L78.433 27.9299H81.5667Z" fill="white"/>
</g>
<path d="M93.5599 67.5154V74.8938H93.9998V75.8878H56.3625C55.1194 75.8878 53.9273 75.394 53.0483 74.515C52.1693 73.6361 51.6755 72.4439 51.6755 71.2009C51.6755 69.9578 52.1693 68.7657 53.0483 67.8867C53.9273 67.0077 55.1194 66.5139 56.3625 66.5139H93.9998V67.508L93.5599 67.5154Z" fill="#35235F"/>
<path d="M93.5602 67.5154V74.8938H94V75.8878H79.7304C79.1149 75.8878 78.5054 75.7666 77.9368 75.531C77.3681 75.2955 76.8515 74.9503 76.4162 74.515C75.981 74.0798 75.6358 73.5631 75.4002 72.9945C75.1647 72.4258 75.0435 71.8164 75.0435 71.2009C75.0435 70.5854 75.1647 69.9759 75.4002 69.4073C75.6358 68.8386 75.981 68.3219 76.4162 67.8867C76.8515 67.4515 77.3681 67.1062 77.9368 66.8707C78.5054 66.6351 79.1149 66.5139 79.7304 66.5139H94V67.508L93.5602 67.5154Z" fill="#BEC1FF"/>
<path d="M93.5601 67.5154V74.8938H80.2647C79.7722 74.9065 79.2821 74.8206 78.8233 74.6409C78.3645 74.4613 77.9464 74.1916 77.5935 73.8477C77.2406 73.5039 76.9602 73.0929 76.7687 72.6389C76.5772 72.185 76.4785 71.6973 76.4785 71.2046C76.4785 70.7119 76.5772 70.2242 76.7687 69.7702C76.9602 69.3163 77.2406 68.9053 77.5935 68.5614C77.9464 68.2176 78.3645 67.9479 78.8233 67.7682C79.2821 67.5886 79.7722 67.5026 80.2647 67.5154H93.5601Z" fill="#F5F5FF"/>
<path d="M93.5602 69.1781H82.9238V69.777H93.5602V69.1781Z" fill="#BEC1FF"/>
<path d="M93.5604 71.032H87.3774V71.6309H93.5604V71.032Z" fill="#BEC1FF"/>
<path d="M93.56 72.6597H81.5767V73.2586H93.56V72.6597Z" fill="#BEC1FF"/>
<path d="M86.9821 71.8919L85.6749 71.3302L84.3652 71.8919V69.1781H86.9821V71.8919Z" fill="#FF6941"/>
<path d="M93.9998 61.8319C93.9991 63.0747 93.5051 64.2665 92.6263 65.1453C91.7474 66.0242 90.5557 66.5182 89.3128 66.5188H51.6755V65.5248H52.1154V58.144H51.6755V57.1499H89.3128C90.5559 57.1499 91.748 57.6437 92.627 58.5227C93.506 59.4017 93.9998 60.5938 93.9998 61.8369V61.8319Z" fill="#8E93FC"/>
<path d="M70.6967 61.8319C70.696 63.0747 70.202 64.2665 69.3232 65.1453C68.4444 66.0242 67.2526 66.5182 66.0098 66.5188H51.6755V65.5248H52.1154V58.144H51.6755V57.1499H66.0098C67.2528 57.1499 68.445 57.6437 69.3239 58.5227C70.2029 59.4017 70.6967 60.5938 70.6967 61.8369V61.8319Z" fill="#BEC1FF"/>
<path d="M52.1155 58.1415V65.5199H65.4109C65.9034 65.5326 66.3935 65.4467 66.8523 65.267C67.3111 65.0874 67.7292 64.8177 68.0821 64.4738C68.435 64.13 68.7155 63.719 68.9069 63.265C69.0984 62.8111 69.1971 62.3234 69.1971 61.8307C69.1971 61.338 69.0984 60.8503 68.9069 60.3963C68.7155 59.9424 68.435 59.5314 68.0821 59.1875C67.7292 58.8437 67.3111 58.574 66.8523 58.3943C66.3935 58.2147 65.9034 58.1287 65.4109 58.1415H52.1155Z" fill="#F5F5FF"/>
<path d="M52.1156 60.403H62.752V59.804H52.1156V60.403Z" fill="#BEC1FF"/>
<path d="M52.1131 62.2544H58.2961V61.6555H52.1131V62.2544Z" fill="#BEC1FF"/>
<path d="M52.1156 63.8821H64.0989V63.2832H52.1156V63.8821Z" fill="#BEC1FF"/>
<path d="M58.6938 62.5153L60.0035 61.9562L61.3107 62.5153V59.8041H58.6938V62.5153Z" fill="#FF6941"/>
<path d="M32.5526 15.4543H16.9112C16.5886 15.4543 16.3271 15.7158 16.3271 16.0384V42.9374C16.3271 43.2599 16.5886 43.5214 16.9112 43.5214H32.5526C32.8751 43.5214 33.1366 43.2599 33.1366 42.9374V16.0384C33.1366 15.7158 32.8751 15.4543 32.5526 15.4543Z" fill="#BEC1FF"/>
<path d="M30.0948 19.6467C29.4436 18.6138 28.513 17.7867 27.4109 17.261L24.6276 23.106H31.0889C31.0919 21.882 30.7472 20.6824 30.0948 19.6467Z" fill="#FFD151"/>
<path d="M26.1536 18.9137C25.1668 18.4423 24.0534 18.3044 22.9814 18.5207C21.9093 18.737 20.9365 19.2959 20.2097 20.113C19.4828 20.9302 19.0412 21.9615 18.9514 23.0515C18.8616 24.1415 19.1284 25.2311 19.7117 26.1563C20.2949 27.0815 21.1631 27.792 22.1853 28.1809C23.2075 28.5698 24.3284 28.616 25.3791 28.3125C26.4298 28.009 27.3535 27.3723 28.0109 26.4982C28.6683 25.6242 29.0238 24.5602 29.024 23.4665H23.9816L26.1536 18.9137Z" fill="#F5F5FF"/>
<path d="M29.891 30.9691H22.2766C22.2524 30.9691 22.2285 30.9643 22.2062 30.9551C22.1839 30.9458 22.1636 30.9323 22.1465 30.9152C22.1294 30.8981 22.1159 30.8779 22.1067 30.8555C22.0974 30.8332 22.0927 30.8093 22.0927 30.7852C22.0933 30.7368 22.113 30.6907 22.1474 30.6567C22.1818 30.6228 22.2282 30.6038 22.2766 30.6038H29.891C29.9393 30.6038 29.9857 30.6228 30.0202 30.6567C30.0546 30.6907 30.0742 30.7368 30.0749 30.7852C30.0749 30.8093 30.0701 30.8332 30.0609 30.8555C30.0517 30.8779 30.0381 30.8981 30.021 30.9152C30.0039 30.9323 29.9837 30.9458 29.9614 30.9551C29.9391 30.9643 29.9151 30.9691 29.891 30.9691Z" fill="#F5F5FF"/>
<path d="M29.8911 32.4751H19.5704C19.522 32.4751 19.4756 32.456 19.4412 32.4221C19.4068 32.3881 19.3871 32.342 19.3865 32.2936C19.3865 32.2449 19.4058 32.1981 19.4403 32.1636C19.4748 32.1291 19.5216 32.1097 19.5704 32.1097H29.8911C29.9399 32.1097 29.9867 32.1291 30.0211 32.1636C30.0556 32.1981 30.075 32.2449 30.075 32.2936C30.0744 32.342 30.0547 32.3881 30.0203 32.4221C29.9859 32.456 29.9395 32.4751 29.8911 32.4751Z" fill="#F5F5FF"/>
<path d="M29.8911 33.9835H19.5704C19.5216 33.9835 19.4748 33.9641 19.4403 33.9296C19.4058 33.8951 19.3865 33.8484 19.3865 33.7996C19.3871 33.7512 19.4068 33.7051 19.4412 33.6711C19.4756 33.6372 19.522 33.6182 19.5704 33.6182H29.8911C29.9395 33.6182 29.9859 33.6372 30.0203 33.6711C30.0547 33.7051 30.0744 33.7512 30.075 33.7996C30.075 33.8484 30.0556 33.8951 30.0211 33.9296C29.9867 33.9641 29.9399 33.9835 29.8911 33.9835Z" fill="#F5F5FF"/>
<path d="M29.8911 35.4896H19.5704C19.522 35.4896 19.4756 35.4706 19.4412 35.4366C19.4068 35.4026 19.3871 35.3565 19.3865 35.3082C19.3865 35.2594 19.4058 35.2126 19.4403 35.1781C19.4748 35.1436 19.5216 35.1243 19.5704 35.1243H29.8911C29.9399 35.1243 29.9867 35.1436 30.0211 35.1781C30.0556 35.2126 30.075 35.2594 30.075 35.3082C30.0744 35.3565 30.0547 35.4026 30.0203 35.4366C29.9859 35.4706 29.9395 35.4896 29.8911 35.4896Z" fill="#F5F5FF"/>
<path d="M29.8911 36.998H19.5704C19.5216 36.998 19.4748 36.9786 19.4403 36.9441C19.4058 36.9097 19.3865 36.8629 19.3865 36.8141C19.3871 36.7658 19.4068 36.7196 19.4412 36.6857C19.4756 36.6517 19.522 36.6327 19.5704 36.6327H29.8911C29.9395 36.6327 29.9859 36.6517 30.0203 36.6857C30.0547 36.7196 30.0744 36.7658 30.075 36.8141C30.075 36.8629 30.0556 36.9097 30.0211 36.9441C29.9867 36.9786 29.9399 36.998 29.8911 36.998Z" fill="#F5F5FF"/>
<path d="M29.8911 38.5041H19.5704C19.522 38.5041 19.4756 38.4851 19.4412 38.4511C19.4068 38.4172 19.3871 38.371 19.3865 38.3227C19.3865 38.2739 19.4058 38.2271 19.4403 38.1927C19.4748 38.1582 19.5216 38.1388 19.5704 38.1388H29.8911C29.9399 38.1388 29.9867 38.1582 30.0211 38.1927C30.0556 38.2271 30.075 38.2739 30.075 38.3227C30.0744 38.371 30.0547 38.4172 30.0203 38.4511C29.9859 38.4851 29.9395 38.5041 29.8911 38.5041Z" fill="#F5F5FF"/>
<path d="M92.7451 28.9933V13.6824C92.7451 13.3667 92.4892 13.1108 92.1735 13.1108L65.8411 13.1108C65.5254 13.1108 65.2695 13.3667 65.2695 13.6824V28.9933C65.2695 29.309 65.5254 29.5649 65.8411 29.5649H92.1735C92.4892 29.5649 92.7451 29.309 92.7451 28.9933Z" fill="#BEC1FF"/>
<path d="M90.2177 26.7146H67.7969V16.1205H68.11V26.4015H90.2177V26.7146Z" fill="#F5F5FF"/>
<path d="M73.49 16.9978H70.0505V25.8126H73.49V16.9978Z" fill="#F5F5FF"/>
<path d="M78.5747 19.1919H75.1353V25.8123H78.5747V19.1919Z" fill="#FFD151"/>
<path d="M83.4382 16.2297H79.9988V25.8124H83.4382V16.2297Z" fill="#F5F5FF"/>
<path d="M88.4878 18.8641H85.0483V25.8126H88.4878V18.8641Z" fill="#FFD151"/>
<path d="M91.321 43.6731H70.2297V55.6141H91.321V43.6731Z" fill="#35235F"/>
<path d="M90.4861 43.6731H69.3948V55.6141H90.4861V43.6731Z" fill="#35235F"/>
<path d="M89.8521 44.2147H70.0308V55.0772H89.8521V44.2147Z" fill="#E6E6FE"/>
<path d="M91.3212 55.6141H62.4241V57.145H91.3212V55.6141Z" fill="#35235F"/>
<path d="M91.3209 55.6141H82.9783V57.145H91.3209V55.6141Z" fill="#BEC1FF"/>
<path d="M89.8501 56.2305H85.4812V56.5312H89.8501V56.2305Z" fill="#35235F"/>
<path d="M90.2946 56.2305H89.9939V56.5312H90.2946V56.2305Z" fill="#35235F"/>
<path d="M90.7196 56.2305H90.4189V56.5312H90.7196V56.2305Z" fill="#35235F"/>
<path d="M79.0073 45.6538H71.0276V53.6336H79.0073V45.6538Z" fill="#FBFFF0"/>
<path d="M79.0073 53.2286V53.6336H71.0276V53.2286C71.3063 52.3907 71.8417 51.6619 72.5578 51.1454C73.2739 50.6289 74.1345 50.351 75.0175 50.351C75.9004 50.351 76.761 50.6289 77.4771 51.1454C78.1933 51.6619 78.7286 52.3907 79.0073 53.2286Z" fill="#BEC1FF"/>
<path d="M77.1337 48.5588C77.4272 47.3914 76.7187 46.2072 75.5513 45.9138C74.384 45.6203 73.1998 46.3288 72.9063 47.4962C72.6129 48.6635 73.3213 49.8477 74.4887 50.1412C75.6561 50.4346 76.8403 49.7262 77.1337 48.5588Z" fill="#BEC1FF"/>
<path d="M88.4307 45.6538H80.4509V53.6336H88.4307V45.6538Z" fill="#FBFFF0"/>
<path d="M88.4282 53.2284V53.6335H80.4509V53.2284C80.729 52.3902 81.2639 51.661 81.9799 51.1441C82.6959 50.6273 83.5565 50.3491 84.4396 50.3491C85.3226 50.3491 86.1832 50.6273 86.8992 51.1441C87.6152 51.661 88.1502 52.3902 88.4282 53.2284Z" fill="#BEC1FF"/>
<path d="M86.5516 48.5204C86.8291 47.3491 86.1046 46.1746 84.9333 45.8971C83.7621 45.6196 82.5876 46.3441 82.3101 47.5154C82.0326 48.6866 82.7571 49.8611 83.9284 50.1386C85.0996 50.4161 86.2741 49.6916 86.5516 48.5204Z" fill="#BEC1FF"/>
<path d="M20.9224 54.6573C20.3489 53.5054 20.0467 52.2375 20.0389 50.9508C20.031 49.6641 20.3178 48.3926 20.8771 47.2338C21.4365 46.0751 22.2537 45.0596 23.266 44.2654C24.2784 43.4711 25.4591 42.9191 26.7177 42.6516C26.6282 43.3971 26.9264 44.083 27.1874 44.7963C27.6111 45.9838 27.7456 47.2553 27.5797 48.5052C27.4137 49.7551 26.9521 50.9475 26.2331 51.9833C25.6523 52.8206 24.8871 53.5135 23.9965 54.0086C23.0525 54.5078 21.9875 54.7325 20.9224 54.6573Z" fill="#FF6941"/>
<path d="M26.0267 43.1092C25.0143 44.3313 24.1042 45.6346 23.3055 47.0059C22.5136 48.3652 21.8807 49.8111 21.4192 51.3151C20.9481 52.9972 20.6598 54.7252 20.5594 56.4692C20.4252 58.2759 20.373 60.0901 20.3929 61.9042C20.4128 63.7183 20.5097 65.5225 20.6812 67.3243C20.7035 67.5529 20.7259 67.7815 20.7507 68.0102C20.7507 68.0996 20.9023 68.0996 20.8924 68.0102C20.7035 66.2258 20.5884 64.4357 20.547 62.6398C20.5055 60.8439 20.5395 59.043 20.6488 57.2371C20.7239 55.4784 20.9669 53.7309 21.3745 52.0184C21.7732 50.49 22.3574 49.0161 23.1141 47.6296C23.8766 46.2347 24.7597 44.9092 25.7533 43.6683C25.8726 43.5167 26.0018 43.3676 26.1161 43.216C26.1832 43.139 26.0838 43.0371 26.0267 43.1092Z" fill="#35235F"/>
<path d="M18.5019 52.4157C18.8325 51.0579 18.8608 49.6441 18.5847 48.2742C18.3085 46.9043 17.7348 45.6118 16.9039 44.4881C16.4768 43.8952 15.9495 43.3813 15.3457 42.9697C14.7383 42.5571 14.0247 42.3284 13.2905 42.3112C13.2756 43.3052 12.8606 44.2694 12.622 45.2312C12.4087 46.1221 12.4009 47.0498 12.5994 47.9442C12.7979 48.8385 13.1974 49.6758 13.7677 50.3928C14.9158 51.8143 16.6753 52.4753 18.5019 52.4157Z" fill="#FFD151"/>
<path d="M21.3422 62.6247C21.0986 60.9772 20.7432 59.3482 20.2786 57.7489C19.8164 56.1286 19.2845 54.5307 18.7055 52.9452C18.1513 51.4019 17.5947 49.8586 16.9808 48.3402C16.4084 46.8611 15.6996 45.4384 14.8635 44.0907C14.7566 43.9217 14.6423 43.7527 14.528 43.5936C14.4783 43.5191 14.354 43.5936 14.4062 43.6632C15.2961 44.9902 16.0457 46.406 16.6428 47.8879C17.2666 49.379 17.8133 50.8974 18.365 52.4134C18.9341 53.984 19.4858 55.562 19.9605 57.1649C20.4446 58.7529 20.8281 60.3697 21.1086 62.006C21.3888 63.6471 21.507 65.3119 21.4615 66.9762C21.4615 67.18 21.4466 67.3813 21.4342 67.5851C21.4342 67.677 21.5709 67.677 21.5758 67.5851C21.6666 65.928 21.5883 64.266 21.3422 62.6247Z" fill="#35235F"/>
<path d="M19.0435 63.7081C19.5983 63.2031 20.0437 62.5897 20.3523 61.9058C20.6609 61.2219 20.8261 60.4821 20.8378 59.7319C20.8459 58.2263 20.398 56.7534 19.5529 55.5072C18.6642 54.178 17.4468 53.1011 16.0189 52.3814C14.5911 51.6616 13.0014 51.3232 11.4042 51.3993C11.6726 51.6851 11.6403 52.0777 11.6527 52.4729C11.6472 52.8664 11.6031 53.2584 11.521 53.6434C11.2479 55.1231 11.2597 56.6413 11.5558 58.1166C11.8599 59.5887 12.6054 60.9333 13.693 61.971C15.0946 63.2583 17.1722 64.0585 19.0435 63.7081Z" fill="#FF6941"/>
<path d="M20.4327 69.3097C20.1295 68.01 19.8238 66.7103 19.4884 65.418C19.1529 64.1257 18.7875 62.8434 18.3626 61.5785C17.9699 60.3947 17.5128 59.2332 16.9933 58.0993C16.4988 57.0137 15.9274 55.9648 15.2835 54.9606C14.6452 53.9612 13.9192 53.0205 13.114 52.1499C13.0146 52.043 12.9127 51.9362 12.8108 51.8318C12.7462 51.7647 12.6468 51.8666 12.7114 51.9312C13.5399 52.7847 14.2886 53.7122 14.948 54.7021C15.6016 55.6859 16.183 56.7158 16.6876 57.7837C17.2156 58.8938 17.6803 60.033 18.0793 61.1958C18.5167 62.4508 18.8919 63.7256 19.2324 65.008C19.5728 66.2903 19.8785 67.5751 20.1817 68.8649L20.2935 69.3445C20.2995 69.3614 20.3116 69.3754 20.3274 69.3838C20.3432 69.3923 20.3615 69.3946 20.3789 69.3902C20.3963 69.3859 20.4114 69.3752 20.4213 69.3603C20.4313 69.3455 20.4353 69.3274 20.4327 69.3097Z" fill="#35235F"/>
<path d="M22.2171 62.9851C22.148 60.9139 22.8798 58.8958 24.2605 57.3503C25.6412 55.8049 27.5644 54.8511 29.6303 54.6873C29.3271 55.2762 29.5209 55.9721 29.5632 56.6306C29.6745 58.466 29.0887 60.2758 27.923 61.6978C27.2686 62.5254 26.388 63.1453 25.3882 63.4821C24.8538 63.6212 24.2965 63.6488 23.751 63.5633C23.2055 63.4778 22.6834 63.281 22.2171 62.9851Z" fill="#FFD151"/>
<path d="M29.101 54.9655C27.2728 56.1976 25.6528 57.7136 24.3023 59.4562C23.6258 60.3231 23.0176 61.2412 22.4831 62.2022C21.9471 63.1588 21.4868 64.1559 21.1064 65.1844C20.7247 66.2182 20.4271 67.2811 20.2167 68.3629C20.1894 68.4971 20.1645 68.6337 20.1422 68.7704C20.1248 68.8599 20.2614 68.8972 20.2788 68.8077C20.4658 67.7307 20.7383 66.6703 21.094 65.6367C21.4479 64.6055 21.8817 63.6034 22.3912 62.6396C23.4181 60.7087 24.7375 58.9483 26.3028 57.4208C27.0845 56.6595 27.9255 55.9615 28.8177 55.3333C28.932 55.2538 29.0439 55.1743 29.1582 55.0997C29.2725 55.0252 29.1681 54.9158 29.101 54.9655Z" fill="#35235F"/>
<path d="M16.735 65.7635H26.0915V71.2308C26.0928 71.846 25.9728 72.4554 25.7384 73.0241C25.504 73.5928 25.1597 74.1097 24.7253 74.5453C24.2909 74.9808 23.7749 75.3265 23.2068 75.5624C22.6387 75.7983 22.0296 75.92 21.4145 75.9203C20.1734 75.9203 18.9832 75.4273 18.1056 74.5497C17.228 73.6721 16.735 72.4819 16.735 71.2408V65.7735V65.7635Z" fill="#8E93FC"/>
<path d="M26.094 66.499H16.735V68.0796H26.094V66.499Z" fill="#35235F"/>
<path d="M26.094 68.4073H16.735V68.7975H26.094V68.4073Z" fill="#35235F"/>
<path d="M82.663 8.32458C83.0581 7.92913 83.33 7.42748 83.4456 6.8805C83.5612 6.33353 83.5156 5.76476 83.3142 5.24323C83.1129 4.72169 82.7644 4.26982 82.3112 3.94247C81.858 3.61511 81.3196 3.42634 80.7612 3.39907C80.2028 3.3718 79.6485 3.5072 79.1656 3.78884C78.6826 4.07048 78.2918 4.48625 78.0406 4.98568C77.7894 5.48511 77.6885 6.04672 77.7503 6.60236C77.812 7.15799 78.0338 7.68376 78.3885 8.11583L77.5759 8.92598L77.3125 8.6551L74.7081 11.257C74.6441 11.318 74.593 11.3912 74.5577 11.4722C74.5224 11.5533 74.5036 11.6405 74.5025 11.7289C74.5014 11.8173 74.518 11.905 74.5512 11.9869C74.5845 12.0688 74.6337 12.1432 74.6962 12.2058C74.7586 12.2684 74.8329 12.3178 74.9147 12.3513C74.9965 12.3848 75.0841 12.4016 75.1725 12.4007C75.2609 12.3998 75.3482 12.3813 75.4294 12.3462C75.5105 12.3112 75.5838 12.2602 75.6449 12.1964L78.2494 9.59448L77.9785 9.32361L78.7911 8.51097C79.3451 8.96461 80.0477 9.19666 80.7629 9.16223C81.4781 9.1278 82.1551 8.82934 82.663 8.32458ZM79.0868 4.73606C79.3903 4.43278 79.7769 4.22629 80.1977 4.14269C80.6185 4.05909 81.0546 4.10214 81.451 4.26638C81.8473 4.43063 82.1861 4.7087 82.4244 5.06545C82.6627 5.42219 82.79 5.84159 82.79 6.27062C82.79 6.69965 82.6627 7.11905 82.4244 7.4758C82.1861 7.83254 81.8473 8.11062 81.451 8.27487C81.0546 8.43911 80.6185 8.48215 80.1977 8.39855C79.7769 8.31495 79.3903 8.10847 79.0868 7.80519C78.6803 7.39797 78.4519 6.84605 78.4519 6.27062C78.4519 5.69519 78.6803 5.14328 79.0868 4.73606Z" fill="#E6E6FE"/>
<path d="M46.7303 7.50443H36.2927C36.1178 7.50443 35.9446 7.53889 35.783 7.60583C35.6214 7.67277 35.4745 7.77089 35.3508 7.89458C35.2271 8.01827 35.129 8.16511 35.0621 8.32672C34.9952 8.48833 34.9607 8.66154 34.9607 8.83646V14.2093C34.9607 14.3842 34.9952 14.5574 35.0621 14.7191C35.129 14.8807 35.2271 15.0275 35.3508 15.1512C35.4745 15.2749 35.6214 15.373 35.783 15.4399C35.9446 15.5069 36.1178 15.5413 36.2927 15.5413H37.7093L36.9488 17.2809L40.1223 15.5413H46.7402C47.0937 15.5413 47.4328 15.4011 47.683 15.1513C47.9332 14.9016 48.0741 14.5628 48.0747 14.2093V8.83646C48.0744 8.66058 48.0393 8.4865 47.9715 8.32422C47.9036 8.16195 47.8044 8.01468 47.6795 7.89089C47.5545 7.76711 47.4063 7.66924 47.2434 7.60291C47.0805 7.53659 46.9061 7.50312 46.7303 7.50443ZM38.7157 12.3057C38.5462 12.3057 38.3804 12.2554 38.2394 12.1612C38.0984 12.067 37.9885 11.9331 37.9236 11.7764C37.8587 11.6198 37.8418 11.4474 37.8748 11.2811C37.9079 11.1148 37.9896 10.962 38.1095 10.8421C38.2294 10.7222 38.3821 10.6405 38.5485 10.6074C38.7148 10.5744 38.8872 10.5913 39.0438 10.6562C39.2005 10.7211 39.3344 10.831 39.4286 10.972C39.5228 11.113 39.5731 11.2788 39.5731 11.4483C39.5734 11.561 39.5515 11.6727 39.5085 11.7768C39.4655 11.881 39.4024 11.9756 39.3227 12.0553C39.243 12.135 39.1484 12.1981 39.0442 12.2411C38.94 12.2841 38.8284 12.306 38.7157 12.3057ZM41.5065 12.3057C41.337 12.3057 41.1712 12.2554 41.0302 12.1612C40.8892 12.067 40.7793 11.9331 40.7144 11.7764C40.6495 11.6198 40.6325 11.4474 40.6656 11.2811C40.6987 11.1148 40.7804 10.962 40.9003 10.8421C41.0202 10.7222 41.173 10.6405 41.3393 10.6074C41.5056 10.5744 41.678 10.5913 41.8346 10.6562C41.9913 10.7211 42.1252 10.831 42.2194 10.972C42.3136 11.113 42.3639 11.2788 42.3639 11.4483C42.3642 11.561 42.3423 11.6727 42.2993 11.7768C42.2563 11.881 42.1932 11.9756 42.1135 12.0553C42.0338 12.135 41.9392 12.1981 41.835 12.2411C41.7308 12.2841 41.6192 12.306 41.5065 12.3057ZM44.2998 12.3057C44.1302 12.3062 43.9643 12.2564 43.8231 12.1626C43.6818 12.0688 43.5715 11.9352 43.5062 11.7787C43.4408 11.6223 43.4234 11.4499 43.456 11.2835C43.4886 11.1171 43.5698 10.9641 43.6893 10.8438C43.8089 10.7236 43.9614 10.6415 44.1276 10.6079C44.2938 10.5744 44.4663 10.5908 44.6231 10.6553C44.78 10.7197 44.9142 10.8292 45.0088 10.9699C45.1034 11.1107 45.1542 11.2763 45.1547 11.4458C45.1554 11.5585 45.1337 11.6702 45.0911 11.7745C45.0484 11.8788 44.9855 11.9736 44.9061 12.0536C44.8266 12.1335 44.7322 12.1969 44.6281 12.2402C44.5241 12.2834 44.4125 12.3057 44.2998 12.3057Z" fill="#E6E6FE"/>
<path d="M6.81919 38.8221L6.68997 37.6989L5.75805 37.6342C5.69199 37.4749 5.60865 37.3232 5.50953 37.1819L5.9494 36.3569L5.06718 35.6536L4.36141 36.2674C4.20134 36.2018 4.03472 36.1535 3.86438 36.1233L3.59349 35.2286L2.47022 35.3554L2.4056 36.2873C2.24592 36.3544 2.09353 36.4377 1.95083 36.5358L1.12825 36.0935L0.424955 36.9782L1.0363 37.6815C0.971939 37.8418 0.924463 38.0083 0.894648 38.1785L0 38.4494L0.126744 39.5726L1.05867 39.6373C1.12721 39.7962 1.2104 39.9485 1.30718 40.092L0.867315 40.9146L1.74953 41.6179L2.45531 41.0041C2.61532 41.0699 2.78196 41.1182 2.95233 41.1482L3.22321 42.0429L4.34401 41.9161L4.40862 40.9842C4.56786 40.9162 4.72016 40.833 4.8634 40.7357L5.68846 41.1756L6.39175 40.2908L5.77793 39.5876C5.84226 39.427 5.89054 39.2606 5.92207 39.0905L6.81919 38.8221ZM3.58853 40.2933C3.26128 40.3306 2.93033 40.2699 2.63756 40.119C2.34478 39.9682 2.10333 39.7339 1.94374 39.4457C1.78416 39.1576 1.7136 38.8287 1.741 38.5004C1.7684 38.1722 1.89254 37.8595 2.09769 37.6018C2.30285 37.3442 2.57982 37.1531 2.89356 37.0529C3.2073 36.9527 3.54371 36.9477 3.86025 37.0387C4.1768 37.1297 4.45925 37.3126 4.67187 37.5641C4.8845 37.8156 5.01774 38.1246 5.05475 38.4518C5.10378 38.8892 4.97796 39.3281 4.7047 39.6731C4.43145 40.018 4.03292 40.241 3.59598 40.2933H3.58853Z" fill="#E6E6FE"/>
<path d="M11.536 34.1401L11.8168 32.7957L10.7631 32.3633C10.7456 32.1527 10.7064 31.9445 10.6463 31.742L11.4714 30.9567L10.7258 29.8061L9.6746 30.2459C9.51334 30.1098 9.33846 29.9907 9.15273 29.8906L9.18006 28.7524L7.83313 28.4716L7.4032 29.5253C7.19265 29.5428 6.98446 29.5819 6.78191 29.6421L5.98916 28.8195L4.83854 29.565L5.27841 30.6137C5.14286 30.7754 5.02381 30.9503 4.92303 31.1356L3.78485 31.1083L3.50403 32.4627L4.55772 32.8926C4.57502 33.1032 4.61417 33.3114 4.67452 33.5139L3.84946 34.3091L4.595 35.4597L5.64621 35.0199C5.80683 35.1568 5.98181 35.276 6.16809 35.3752L6.14075 36.5134L7.48769 36.7943L7.91762 35.743C8.12808 35.7235 8.33615 35.6835 8.5389 35.6238L9.3242 36.4488L10.4748 35.7033L10.0349 34.6521C10.1711 34.4908 10.2901 34.3159 10.3903 34.1302L11.536 34.1401ZM7.24663 34.6123C6.85384 34.5305 6.49416 34.3339 6.2131 34.0476C5.93204 33.7613 5.74224 33.398 5.66771 33.0038C5.59318 32.6095 5.63727 32.202 5.79441 31.8329C5.95156 31.4637 6.21467 31.1494 6.55048 30.9299C6.88629 30.7103 7.27969 30.5952 7.68089 30.5993C8.0821 30.6034 8.47307 30.7264 8.80434 30.9528C9.13562 31.1791 9.3923 31.4987 9.5419 31.871C9.69151 32.2432 9.72731 32.6516 9.64478 33.0442C9.53428 33.5699 9.21969 34.0303 8.77007 34.3243C8.32045 34.6183 7.77255 34.7219 7.24663 34.6123Z" fill="#E6E6FE"/>
</svg>
