<svg width="90" height="80" viewBox="0 0 90 80" fill="none" xmlns="http://www.w3.org/2000/svg">
<path opacity="0.2" fill-rule="evenodd" clip-rule="evenodd" d="M15.5023 70.9079C14.0284 70.0575 12.0961 69.6334 10.166 69.6334C8.23597 69.6334 6.30133 70.0575 4.82743 70.9079C3.35353 71.7583 2.61772 72.8746 2.61772 73.991C2.61772 75.1073 3.35352 76.219 4.82972 77.0717C6.30591 77.9244 8.22681 78.3531 10.1683 78.3531C12.1098 78.3531 14.0307 77.9244 15.5023 77.074C16.974 76.2236 17.7144 75.1073 17.7144 73.9955C17.7144 72.8838 16.9763 71.7606 15.5023 70.9079Z" fill="black"/>
<path opacity="0.2" fill-rule="evenodd" clip-rule="evenodd" d="M64.2212 69.723C67.1438 70.1952 69.5117 71.6622 69.5117 72.9963C69.5117 74.3304 67.1438 75.0295 64.2212 74.5573C61.2987 74.0851 58.9308 72.6227 58.9308 71.2817C58.9308 69.9408 61.2987 69.2485 64.2212 69.723Z" fill="black"/>
<path opacity="0.2" fill-rule="evenodd" clip-rule="evenodd" d="M54.3741 34.6289L90 52.5725L46.1313 74.6673C47.4149 74.7728 48.2906 75.2518 48.2906 75.9647C48.2906 76.9939 46.4568 78.1263 44.2035 78.4862C42.2322 78.8048 40.5864 78.4335 40.2013 77.6472L36.8386 79.3412L1.21042 61.3976L54.3741 34.6289Z" fill="black"/>
<path fill-rule="evenodd" clip-rule="evenodd" d="M52.9779 35.7772L86.9304 52.8773L36.875 78.0872L2.92242 60.9872L52.9779 35.7772Z" fill="#2C6787"/>
<path fill-rule="evenodd" clip-rule="evenodd" d="M52.9779 34.8557L86.9304 51.9558L36.875 77.1657L2.92242 60.0657L52.9779 34.8557Z" fill="#FA5A66"/>
<path fill-rule="evenodd" clip-rule="evenodd" d="M2.92271 60.9872V60.0657L36.8752 77.1657V78.0872L2.92271 60.9872Z" fill="#F04657"/>
<path fill-rule="evenodd" clip-rule="evenodd" d="M85.9473 52.3822C87.1484 51.0825 86.8137 46.1794 85.9473 43.5846L86.9306 44.0797C89.0051 46.5324 89.1679 51.3782 86.9306 52.8773L85.9473 52.3822Z" fill="#D63344"/>
<path fill-rule="evenodd" clip-rule="evenodd" d="M86.9304 52.8773V44.0797L36.8795 69.2874C38.4039 72.6638 38.7271 75.6919 36.8795 78.0873L86.9304 52.8773Z" fill="#D63344"/>
<path fill-rule="evenodd" clip-rule="evenodd" d="M4.34381 59.3483C5.27599 58.0784 5.27599 56.2377 4.34381 53.8263L37.6797 70.6008C38.223 72.5378 38.2757 74.3876 37.6797 76.1251L4.34381 59.3483Z" fill="white"/>
<path fill-rule="evenodd" clip-rule="evenodd" d="M35.8919 77.5921C38.5692 76.7417 38.0993 71.7951 35.8919 68.7922L36.8798 69.2874C38.9635 71.9945 39.2683 76.8265 36.8798 78.0872L35.8919 77.5921Z" fill="#F04657"/>
<path fill-rule="evenodd" clip-rule="evenodd" d="M2.92271 53.111V52.1873L36.8752 69.2896V70.2111L2.92271 53.111Z" fill="#F04657"/>
<path fill-rule="evenodd" clip-rule="evenodd" d="M52.9779 26.9796L86.9304 44.0797L36.875 69.2896L2.92242 52.1873L52.9779 26.9796Z" fill="#FA5A66"/>
<path opacity="0.2" fill-rule="evenodd" clip-rule="evenodd" d="M48.8911 29.0358L77.0947 43.2407L34.7985 64.5424L6.59486 50.3398L48.8911 29.0358Z" fill="black"/>
<path fill-rule="evenodd" clip-rule="evenodd" d="M47.321 29.829L74.1584 43.344L34.5922 63.2703L7.75479 49.7553L47.321 29.829Z" fill="#2C6787"/>
<path fill-rule="evenodd" clip-rule="evenodd" d="M47.321 29.1L74.1584 42.615L34.5922 62.5413L7.75479 49.0263L47.321 29.1Z" fill="#FFCB65"/>
<path fill-rule="evenodd" clip-rule="evenodd" d="M7.7546 49.7552V49.0262L34.592 62.5412V63.2702L7.7546 49.7552Z" fill="#F7BA40"/>
<path fill-rule="evenodd" clip-rule="evenodd" d="M73.3812 42.9518C74.3301 41.9249 74.0688 38.0487 73.3812 35.9972L74.1582 36.3892C75.7995 38.3284 75.9278 42.1587 74.1582 43.3438L73.3812 42.9518Z" fill="#F0A716"/>
<path fill-rule="evenodd" clip-rule="evenodd" d="M74.1584 43.3439V36.3893L34.5877 56.3156C35.7934 58.9838 36.0478 61.3769 34.5877 63.2703L74.1584 43.3439Z" fill="#F0A716"/>
<path fill-rule="evenodd" clip-rule="evenodd" d="M8.87788 48.4601C9.61827 47.4561 9.61369 45.9982 8.87788 44.1049L35.2385 57.3631C35.6672 58.8966 35.7085 60.3591 35.2385 61.7298L8.87788 48.4601Z" fill="white"/>
<path fill-rule="evenodd" clip-rule="evenodd" d="M33.8172 62.8782C35.933 62.2066 35.5593 58.2938 33.8172 55.9236L34.5874 56.3156C36.2355 58.4542 36.4762 62.2754 34.5874 63.2702L33.8172 62.8782Z" fill="#F7BA40"/>
<path fill-rule="evenodd" clip-rule="evenodd" d="M7.7546 43.5274V42.7985L34.592 56.3158V57.0447L7.7546 43.5274Z" fill="#F7BA40"/>
<path fill-rule="evenodd" clip-rule="evenodd" d="M47.321 22.8743L74.1584 36.3893L34.5922 56.3156L7.75479 42.7983L47.321 22.8743Z" fill="#FFCB65"/>
<path fill-rule="evenodd" clip-rule="evenodd" d="M45.283 28.2242L63.5315 37.4161L59.5728 39.408L41.3244 30.2185L45.283 28.2242Z" fill="#FFE8BA"/>
<path opacity="0.2" fill-rule="evenodd" clip-rule="evenodd" d="M49.751 36.5427L50.1246 36.7719L52.7767 38.3765L52.8776 38.4384L52.9693 38.4934L53.861 39.0321L57.9687 41.5169L58.3423 41.7461L50.8627 45.7483L43.3832 49.7414C40.5148 48.013 37.6488 46.2809 34.785 44.5449C39.8233 41.8469 44.7058 39.2407 49.751 36.5427Z" fill="black"/>
<path opacity="0.2" fill-rule="evenodd" clip-rule="evenodd" d="M53.9068 27.9149L57.6362 29.7854L20.1009 48.6894L16.3738 46.8167L53.9068 27.9149Z" fill="black"/>
<path fill-rule="evenodd" clip-rule="evenodd" d="M54.8948 1.00418L37.8956 9.62526L20.8919 18.2532C19.6105 18.9019 18.5606 20.5661 18.5606 21.9414V46.4408C18.5606 47.8161 19.6128 48.4121 20.8919 47.7634L37.8956 39.1423C43.559 36.2694 49.2254 33.3949 54.8948 30.519C56.1739 29.8703 57.2214 28.2267 57.2214 26.8353V2.33138C57.2214 0.956041 56.1739 0.355476 54.8948 1.00418Z" fill="#071317"/>
<path fill-rule="evenodd" clip-rule="evenodd" d="M56.4556 0.859625L55.1765 0.220093L18.0126 47.2521L19.2916 47.8916L56.4556 0.859625Z" fill="#071317"/>
<path fill-rule="evenodd" clip-rule="evenodd" d="M53.5809 0.343899L36.5817 8.96498L19.5779 17.5929C18.2965 18.2416 17.2467 19.9058 17.2467 21.2811V45.7805C17.2467 47.1559 18.2988 47.7518 19.5779 47.1031L36.5817 38.4798C42.2465 35.6099 47.9129 32.7362 53.5809 29.8587C54.8599 29.21 55.9075 27.555 55.9075 26.1751V1.6711C55.9052 0.295762 54.8599 -0.304803 53.5809 0.343899Z" fill="#071317"/>
<path fill-rule="evenodd" clip-rule="evenodd" d="M54.8212 1.50613L37.8953 10.0928L20.9649 18.6795C19.9174 19.2113 19.0624 20.566 19.0624 21.6961V46.1863C19.0624 47.3118 19.9174 47.7909 20.9649 47.2659C26.6084 44.4083 32.2519 41.5476 37.8953 38.6838L54.8212 30.0971C55.8664 29.5653 56.7214 28.2106 56.7214 27.0851V2.59036C56.7214 1.46028 55.8664 0.974331 54.8212 1.50613Z" fill="#344247"/>
<path fill-rule="evenodd" clip-rule="evenodd" d="M53.9775 3.27332C48.6794 5.96287 43.3813 8.65165 38.0832 11.3397L22.182 19.4015V45.2189C27.4816 42.5263 32.782 39.8375 38.0832 37.1525L53.9775 29.0907V3.27332Z" fill="white"/>
<path fill-rule="evenodd" clip-rule="evenodd" d="M55.9373 18.4343V12.0344C55.9373 11.8624 55.8066 11.7868 55.6484 11.867C55.5649 11.9129 55.4942 11.9788 55.4425 12.0588C55.3909 12.1389 55.36 12.2305 55.3527 12.3255V18.7277C55.3527 18.9042 55.4857 18.9821 55.6484 18.8996C55.7313 18.852 55.8011 18.7846 55.8515 18.7033C55.9019 18.6221 55.9314 18.5297 55.9373 18.4343Z" fill="#071317"/>
<path fill-rule="evenodd" clip-rule="evenodd" d="M21.444 32.7378C21.444 32.1487 21.0016 31.8942 20.4537 32.1716C20.1708 32.3294 19.932 32.5556 19.759 32.8295C19.5861 33.1034 19.4845 33.4162 19.4635 33.7395C19.4635 34.3286 19.9059 34.5807 20.4537 34.3034C20.7366 34.1461 20.9754 33.9203 21.1484 33.6468C21.3214 33.3733 21.423 33.0607 21.444 32.7378Z" fill="#071317"/>
<path fill-rule="evenodd" clip-rule="evenodd" d="M44.1577 9.396C42.136 10.4229 40.1073 11.459 38.0833 12.4813L32.0066 15.5598V17.7466L38.0833 14.6658C40.1073 13.6412 42.136 12.6028 44.1577 11.5805V9.396Z" fill="#AD49E3"/>
<path fill-rule="evenodd" clip-rule="evenodd" d="M51.1353 10.5948L38.0833 17.2171C33.7342 19.4238 29.3789 21.6312 25.0176 23.8394V29.8565C29.3713 27.6513 33.7265 25.4439 38.0833 23.2342L51.1353 16.612V10.5948Z" fill="#FFCB65"/>
<path fill-rule="evenodd" clip-rule="evenodd" d="M46.1223 12.353C43.4419 13.7146 40.7623 15.0739 38.0835 16.4309L30.0377 20.5133V19.5964L38.0835 15.5186C40.7623 14.1585 43.4419 12.7992 46.1223 11.4407V12.353Z" fill="#344247"/>
<path fill-rule="evenodd" clip-rule="evenodd" d="M49.5535 23.4839C47.3697 24.5888 45.1845 25.6974 42.9977 26.8099V21.9458L49.5535 18.6221V23.4839Z" fill="#66F2C6"/>
<path fill-rule="evenodd" clip-rule="evenodd" d="M41.3589 27.6398L34.8008 30.9658V26.104C36.9891 24.9961 39.1752 23.8874 41.3589 22.778V27.6398Z" fill="#FA5A66"/>
<path fill-rule="evenodd" clip-rule="evenodd" d="M33.1619 31.798L26.6061 35.1217V30.2645C28.7929 29.152 30.9781 28.0433 33.1619 26.9385V31.798Z" fill="#FFCB65"/>
<path fill-rule="evenodd" clip-rule="evenodd" d="M49.5535 25.0657L42.9977 28.3826V27.4657L49.5535 24.1396V25.0657Z" fill="#344247"/>
<path fill-rule="evenodd" clip-rule="evenodd" d="M49.5535 26.6381C47.3697 27.743 45.1845 28.8516 42.9977 29.9641V29.0472C45.1875 27.9378 47.3728 26.8299 49.5535 25.7235V26.6381Z" fill="#344247"/>
<path fill-rule="evenodd" clip-rule="evenodd" d="M49.5535 28.2107C47.3697 29.3156 45.1845 30.4242 42.9977 31.5367V30.6199C45.1875 29.5104 47.3728 28.4017 49.5535 27.2938V28.2107Z" fill="#344247"/>
<path fill-rule="evenodd" clip-rule="evenodd" d="M49.5535 29.7832L45.4022 31.8898V30.9729L49.5535 28.864V29.7832Z" fill="#344247"/>
<path fill-rule="evenodd" clip-rule="evenodd" d="M41.3589 29.2239L34.8008 32.5476V31.6307C36.9891 30.5243 39.1752 29.4157 41.3589 28.3047V29.2239Z" fill="#344247"/>
<path fill-rule="evenodd" clip-rule="evenodd" d="M41.3589 30.794L34.8008 34.1132V33.1963C36.9891 32.0838 39.1752 30.9751 41.3589 29.8702V30.794Z" fill="#344247"/>
<path fill-rule="evenodd" clip-rule="evenodd" d="M41.3589 32.3665C39.1736 33.4713 36.9876 34.58 34.8008 35.6925V34.7756L41.3589 31.4496V32.3665Z" fill="#344247"/>
<path fill-rule="evenodd" clip-rule="evenodd" d="M41.3589 33.9388L37.2054 36.0454V35.1285L41.3589 33.0197V33.9388Z" fill="#344247"/>
<path fill-rule="evenodd" clip-rule="evenodd" d="M33.1619 33.3795L26.6061 36.7056V35.7887C28.7929 34.6792 30.9781 33.5706 33.1619 32.4626V33.3795Z" fill="#344247"/>
<path fill-rule="evenodd" clip-rule="evenodd" d="M33.1619 34.9497C30.9781 36.0622 28.7929 37.1709 26.6061 38.2758V37.3589L33.1619 34.0328V34.9497Z" fill="#344247"/>
<path fill-rule="evenodd" clip-rule="evenodd" d="M33.1619 36.5222C30.9781 37.6347 28.7929 38.7434 26.6061 39.8483V38.9314C28.7929 37.8219 30.9781 36.7133 33.1619 35.6053V36.5222Z" fill="#344247"/>
<path fill-rule="evenodd" clip-rule="evenodd" d="M33.1619 38.0947L29.0106 40.2013V39.2844L33.1619 37.1755V38.0947Z" fill="#344247"/>
<path fill-rule="evenodd" clip-rule="evenodd" d="M27.4473 25.0313C27.4817 24.9694 27.4748 24.9098 27.429 24.9006C27.3987 24.9018 27.3692 24.9109 27.3435 24.927C27.3177 24.9431 27.2966 24.9656 27.2823 24.9923C27.1035 25.3018 26.927 25.6066 26.7482 25.9092C26.7482 25.9092 26.7482 25.9092 26.7482 25.9298V25.9505V25.9757C26.927 26.1063 27.1035 26.2301 27.2823 26.3585C27.3167 26.3814 27.3832 26.3585 27.429 26.2989C27.4748 26.2393 27.4817 26.1751 27.4473 26.1522C27.2892 26.033 27.1264 25.923 26.9637 25.8084L27.4473 25.0313Z" fill="#27526B"/>
<path fill-rule="evenodd" clip-rule="evenodd" d="M48.8772 14.0376C48.8428 14.0169 48.7764 14.0376 48.7305 14.0972C48.6847 14.1568 48.6778 14.2186 48.7145 14.2439C48.8772 14.3562 49.04 14.4731 49.1981 14.5877C49.04 14.8628 48.8772 15.147 48.7145 15.4221C48.6778 15.4863 48.6893 15.5458 48.7305 15.555C48.7614 15.5551 48.7917 15.5463 48.8177 15.5297C48.8438 15.513 48.8644 15.4892 48.8772 15.461C49.056 15.1585 49.2325 14.849 49.4113 14.5441C49.4124 14.5373 49.4124 14.5303 49.4113 14.5235V14.5121C49.2325 14.292 49.056 14.1705 48.8772 14.0376Z" fill="#27526B"/>
<path fill-rule="evenodd" clip-rule="evenodd" d="M14.7965 70.6903C13.5175 69.9522 11.8395 69.5831 10.1662 69.5831C8.49289 69.5831 6.81269 69.9522 5.53362 70.6903C4.25456 71.4284 3.61502 72.3957 3.61502 73.3653C3.61502 74.3349 4.25456 75.2977 5.53592 76.0381C6.81727 76.7784 8.4906 77.1475 10.1685 77.1475C11.8464 77.1475 13.5198 76.7762 14.7965 76.0358C16.0733 75.2954 16.7083 74.3303 16.7083 73.3653C16.7083 72.4003 16.0756 71.4307 14.7965 70.6903Z" fill="#F7BA40"/>
<path d="M3.61499 62.7064H16.7151V73.3653H3.61499V62.7064Z" fill="#F7BA40"/>
<path fill-rule="evenodd" clip-rule="evenodd" d="M14.7965 60.0313C13.5175 59.2932 11.8395 58.9242 10.1662 58.9242C8.49289 58.9242 6.81269 59.2932 5.53362 60.0313C4.25456 60.7694 3.61502 61.7368 3.61502 62.7064C3.61502 63.676 4.25456 64.6387 5.53592 65.3791C6.81727 66.1195 8.4906 66.4886 10.1685 66.4886C11.8464 66.4886 13.5198 66.1172 14.7965 65.3768C16.0733 64.6364 16.7083 63.6829 16.7083 62.7064C16.7083 61.7299 16.0756 60.7717 14.7965 60.0313Z" fill="#FFCB65"/>
<path fill-rule="evenodd" clip-rule="evenodd" d="M14.2349 60.4555C13.1117 59.8343 11.6378 59.5226 10.1662 59.5226C8.69459 59.5226 7.21839 59.8343 6.0952 60.4555C4.97201 61.0767 4.41041 61.8905 4.41041 62.7065C4.41041 63.5225 4.972 64.334 6.09749 64.9552C7.22297 65.5764 8.6923 65.8904 10.1685 65.8904C11.6447 65.8904 13.1117 65.5764 14.2349 64.9552C15.3581 64.334 15.922 63.5202 15.922 62.7065C15.922 61.8927 15.3604 61.0767 14.2349 60.4555Z" fill="#E3B52B"/>
<path fill-rule="evenodd" clip-rule="evenodd" d="M3.59684 66.4954C3.59354 66.6831 3.66348 66.8647 3.79183 67.0017C3.92019 67.1387 4.09686 67.2204 4.28438 67.2293C4.47191 67.2382 4.65555 67.1738 4.79636 67.0496C4.93717 66.9255 5.02407 66.7513 5.03865 66.5641C5.09138 65.4685 4.71087 64.6799 4.14469 64.1963C3.83126 63.9277 3.45113 63.7487 3.04442 63.6782C2.64973 63.6099 2.24429 63.6398 1.86391 63.7653C1.47177 63.8974 1.11671 64.121 0.828126 64.4176C0.539538 64.7141 0.325713 65.0751 0.204338 65.4707C-0.380181 67.2403 0.376254 68.9641 1.39171 69.9658C1.74135 70.3214 2.16139 70.6002 2.62493 70.7841C2.85447 70.8804 3.10141 70.9283 3.35029 70.9247C3.59917 70.9212 3.84464 70.8663 4.07133 70.7635C4.63522 70.4884 5.02032 69.8902 5.05012 68.8908C5.05283 68.7962 5.03689 68.7021 5.00322 68.6137C4.96955 68.5254 4.91881 68.4445 4.85389 68.3758C4.72278 68.2369 4.54188 68.1558 4.35098 68.1504C4.16009 68.1449 3.97485 68.2155 3.83599 68.3466C3.69714 68.4777 3.61606 68.6586 3.61059 68.8495C3.59684 69.2346 3.53036 69.4248 3.43867 69.4707C3.33069 69.4951 3.21752 69.4796 3.12006 69.4271C2.8495 69.3151 2.60518 69.1481 2.40259 68.9366C1.71492 68.2489 1.19 67.1028 1.5751 65.9223C1.62792 65.7424 1.72283 65.5777 1.85198 65.4417C1.98113 65.3058 2.1408 65.2026 2.31778 65.1407C2.47427 65.0886 2.64119 65.076 2.80373 65.104C2.95661 65.129 3.09993 65.1947 3.21862 65.2942C3.4616 65.5166 3.62664 65.8994 3.59684 66.4954Z" fill="#F7BA40"/>
<path fill-rule="evenodd" clip-rule="evenodd" d="M4.86651 63.9511C5.20468 64.3656 5.62344 64.7071 6.09744 64.9551C7.22063 65.5763 8.69225 65.8903 10.1684 65.8903C11.6446 65.8903 13.1117 65.5763 14.2349 64.9551C14.7082 64.7071 15.1262 64.3656 15.4635 63.9511C15.1262 63.5366 14.7082 63.195 14.2349 62.9471C13.1117 62.3259 11.6378 62.0142 10.1662 62.0142C8.69454 62.0142 7.21835 62.3259 6.09515 62.9448C5.62162 63.1935 5.20361 63.5358 4.86651 63.9511Z" fill="#344247"/>
<path fill-rule="evenodd" clip-rule="evenodd" d="M46.6103 74.8942C46.9403 75.018 47.3965 75.2655 47.4423 75.6392C47.4882 76.0128 47.0022 76.3773 46.067 76.2581C45.5123 76.187 44.1324 75.6483 43.8481 75.1761C43.5639 74.7039 44.0246 74.0713 44.5358 73.9429C45.047 73.8145 45.8194 74.6145 46.6103 74.8942Z" fill="white"/>
<path fill-rule="evenodd" clip-rule="evenodd" d="M46.6101 74.8941C46.9035 75.0042 47.2977 75.2128 47.4124 75.5176C47.3184 75.8225 46.8485 76.0746 46.0531 75.9761C45.496 75.905 44.1184 75.3663 43.8342 74.8941C43.8073 74.8486 43.7858 74.8002 43.77 74.7497C43.8131 74.5583 43.9076 74.3822 44.0433 74.2405C44.179 74.0987 44.3508 73.9966 44.5402 73.9451C45.0536 73.8168 45.8193 74.6145 46.6101 74.8941Z" fill="#FFCB65"/>
<path d="M46.2478 74.7339C45.7843 74.6781 45.3146 74.7577 44.8954 74.9631" stroke="white" stroke-width="0.0550136" stroke-miterlimit="22.93" stroke-linecap="round"/>
<path d="M46.2478 74.7336C46.0919 74.7336 45.7504 75.1692 45.6495 75.4213" stroke="white" stroke-width="0.0550136" stroke-miterlimit="22.93" stroke-linecap="round"/>
<path d="M45.8193 74.4816C45.5655 74.6431 45.3733 74.8853 45.2738 75.1692" stroke="white" stroke-width="0.0550136" stroke-miterlimit="22.93" stroke-linecap="round"/>
<path d="M46.6104 74.8942C46.1503 74.8784 45.6935 74.9768 45.2809 75.1808" stroke="white" stroke-width="0.0550136" stroke-miterlimit="22.93" stroke-linecap="round"/>
<path fill-rule="evenodd" clip-rule="evenodd" d="M46.9195 75.0363C47.1339 75.1358 47.3078 75.3057 47.4124 75.5176C47.3321 75.9027 46.8645 76.1732 46.0531 75.9761H46.0301C46.232 75.5852 46.5403 75.2593 46.9195 75.0363Z" fill="white"/>
<path fill-rule="evenodd" clip-rule="evenodd" d="M38.9612 61.7252C37.8701 63.6369 39.6236 65.3171 40.3182 65.8512C42.8396 67.7675 44.9943 68.2259 46.0488 69.2895C46.9794 70.2248 48.5404 68.3176 47.376 67.2265C44.4236 64.4483 42.1038 62.5893 40.8637 61.7756C40.2861 61.2553 39.4219 60.9183 38.9612 61.7252Z" fill="#66F2C6"/>
<path fill-rule="evenodd" clip-rule="evenodd" d="M45.267 68.084C44.3868 70.1745 44.0796 73.3561 43.6922 74.0598C44.279 74.4724 45.2303 74.8483 46.0418 74.5687C46.4658 73.6266 46.2985 71.7424 47.6463 68.6662C47.9649 67.9487 46.1472 65.9935 45.267 68.084Z" fill="#66F2C6"/>
<path fill-rule="evenodd" clip-rule="evenodd" d="M43.8732 58.154C44.3684 56.9643 45.8835 57.432 47.1718 57.8881C48.3179 58.2961 50.1517 58.7339 49.8835 59.6119C49.574 60.5998 47.4285 60.0703 46.1701 59.8411C44.9116 59.6119 43.4561 59.1557 43.8732 58.154Z" fill="#9230C7"/>
<path fill-rule="evenodd" clip-rule="evenodd" d="M41.235 51.3277C40.2631 51.9879 40.1759 53.2142 40.0155 53.7667C39.855 54.3191 38.7708 55.6853 39.5318 57.5878C40.2195 59.3276 44.357 59.0778 45.6498 57.2875C46.9816 55.4537 45.7896 54.4016 45.8057 53.3632C45.8217 52.3248 45.4687 51.1375 43.8642 50.6676C42.7776 50.3512 42.3054 50.883 42.1587 51.0687C41.6934 50.9678 41.6017 51.1123 41.235 51.3277Z" fill="#323A3B"/>
<path fill-rule="evenodd" clip-rule="evenodd" d="M40.7539 57.1774C42.0192 56.9848 44.0799 56.978 44.8341 57.1774C44.8662 57.3631 45.1527 60.4713 44.0478 60.602C42.943 60.7326 41.5814 58.2937 40.7539 57.1774Z" fill="#EBBDB9"/>
<path fill-rule="evenodd" clip-rule="evenodd" d="M44.2769 74.4104C45.2568 72.6614 46.0065 70.793 46.5073 68.8518C46.7113 68.0082 43.0208 64.8083 40.9807 64.3682C40.9326 64.3682 43.3852 66.9538 43.8941 69.7549C44.3136 72.054 43.3188 73.1933 44.2769 74.4104Z" fill="#47CCA2"/>
<path fill-rule="evenodd" clip-rule="evenodd" d="M44.4306 75.9027C44.7607 76.0265 45.2168 76.2741 45.2627 76.6477C45.3085 77.0213 44.8225 77.3858 43.8873 77.2666C43.3326 77.1956 41.9527 76.6569 41.6684 76.1847C41.3842 75.7125 41.8449 75.0798 42.3561 74.9515C42.8673 74.8231 43.6398 75.6231 44.4306 75.9027Z" fill="white"/>
<path fill-rule="evenodd" clip-rule="evenodd" d="M44.4306 75.9027C44.724 76.0127 45.1183 76.219 45.2329 76.5239C45.1389 76.831 44.669 77.0832 43.8736 76.9823C43.3166 76.9112 41.939 76.3726 41.6547 75.9004C41.6279 75.8549 41.6063 75.8064 41.5906 75.756C41.6337 75.5645 41.7282 75.3885 41.8639 75.2467C41.9996 75.1049 42.1714 75.0028 42.3607 74.9514C42.8742 74.8253 43.6398 75.623 44.4306 75.9027Z" fill="#FFCB65"/>
<path d="M44.0684 75.7423C43.6049 75.6865 43.1351 75.7661 42.7159 75.9716" stroke="white" stroke-width="0.0550136" stroke-miterlimit="22.93" stroke-linecap="round"/>
<path d="M44.0684 75.7422C43.9125 75.7307 43.5709 76.1777 43.4701 76.4184" stroke="white" stroke-width="0.0550136" stroke-miterlimit="22.93" stroke-linecap="round"/>
<path d="M43.6326 75.4901C43.3782 75.6511 43.1859 75.8935 43.087 76.1778" stroke="white" stroke-width="0.0550136" stroke-miterlimit="22.93" stroke-linecap="round"/>
<path d="M44.4307 75.9026C43.9706 75.8868 43.5138 75.9853 43.1012 76.1892" stroke="white" stroke-width="0.0550136" stroke-miterlimit="22.93" stroke-linecap="round"/>
<path fill-rule="evenodd" clip-rule="evenodd" d="M44.7401 76.0449C44.9538 76.1443 45.1275 76.3132 45.2329 76.524C45.1527 76.9114 44.6851 77.1819 43.8736 76.9824H43.8507C44.0533 76.5927 44.3615 76.2678 44.7401 76.0449Z" fill="white"/>
<path fill-rule="evenodd" clip-rule="evenodd" d="M38.1017 63.3941C36.8409 65.1958 37.3406 65.6107 37.6249 66.1127C38.3126 67.3505 43.1698 68.7029 44.1211 69.8536C44.9623 70.8713 46.693 69.1155 45.6339 67.9167C42.9497 64.8772 41.0839 63.9786 39.9332 63.0548C39.4014 62.5001 38.6335 62.6331 38.1017 63.3941Z" fill="#66F2C6"/>
<path fill-rule="evenodd" clip-rule="evenodd" d="M38.8192 58.8119C38.4731 59.997 39.7797 61.6382 37.8702 63.6256C39.1172 66.1058 43.0278 65.0514 43.853 63.9809C42.1063 62.0096 44.5773 62.9861 45.1045 61.5878C45.4025 60.8039 45.0839 58.4635 45.7463 57.4205C45.3749 57.2843 44.991 57.1845 44.6002 57.1225C44.9578 58.1953 42.5372 59.5821 41.657 57.0079C39.8393 57.3541 39.2593 57.299 38.8192 58.8119Z" fill="#AD49E3"/>
<path fill-rule="evenodd" clip-rule="evenodd" d="M42.1266 57.3174C41.8974 58.2343 43.7312 58.7409 43.9604 57.7621L44.5747 55.22L42.7409 54.7776L42.1266 57.3174Z" fill="#EBBDB9"/>
<path fill-rule="evenodd" clip-rule="evenodd" d="M43.9352 50.9358C42.0625 50.757 40.9553 51.6716 40.6046 53.1134C40.2539 54.5553 41.9799 56.6183 43.2773 56.7604C44.5748 56.9025 45.2739 55.8435 45.4802 54.326C45.6865 52.8086 45.8057 51.1146 43.9352 50.9358Z" fill="#FAC9C5"/>
<path fill-rule="evenodd" clip-rule="evenodd" d="M45.1318 55.7656C46.1725 53.0654 44.1439 51.9857 43.2476 52.3754C42.984 52.8178 41.7783 53.7324 41.1846 53.8218C41.0218 53.847 41.1846 55.4837 42.2757 56.3433C41.5445 55.8527 40.2792 55.3851 40.5657 52.9852C40.6482 52.2975 40.9049 50.9107 42.1382 51.0734C42.6172 50.3101 43.7427 50.4454 44.7949 51.1399C46.1587 52.0224 46.0052 54.6333 45.1318 55.7656Z" fill="#323A3B"/>
<path fill-rule="evenodd" clip-rule="evenodd" d="M45.5216 52.357C45.9044 55.2682 41.1847 54.8143 40.6346 54.4728C39.6214 53.8424 41.2971 52.3502 42.0604 51.6969C42.8237 51.0436 45.3818 51.2912 45.5216 52.357Z" fill="#323A3B"/>
<path fill-rule="evenodd" clip-rule="evenodd" d="M43.4107 68.9754C42.5305 71.066 42.0055 74.4768 41.6182 75.1645C42.2027 75.5771 43.1562 75.953 43.9654 75.6734C44.3895 74.7312 44.4422 72.627 45.7992 69.5508C46.1086 68.8402 44.2909 66.8918 43.4107 68.9754Z" fill="#66F2C6"/>
<path fill-rule="evenodd" clip-rule="evenodd" d="M52.7739 57.0974C51.7544 58.104 50.6483 59.0191 49.4685 59.8321L48.7167 58.4361C49.9316 57.7278 51.4215 57.18 52.2765 56.49C52.4963 56.6415 52.6688 56.8521 52.7739 57.0974Z" fill="#FAC9C5"/>
<path fill-rule="evenodd" clip-rule="evenodd" d="M49.5193 60.029C50.3491 59.527 49.9777 59.7127 50.8396 59.0411C50.4568 58.8119 49.9984 58.2571 49.9433 57.746C49.1204 58.1425 48.7124 58.2709 48.2012 58.7087C47.5021 59.307 48.6207 60.5746 49.5193 60.029Z" fill="#9230C7"/>
<path fill-rule="evenodd" clip-rule="evenodd" d="M44.0087 69.542L39.6993 67.0549L45.2992 63.8206L49.6086 66.3099L44.0087 69.542Z" fill="#8599AD"/>
<path d="M39.7314 66.766H41.2283V67.0342H39.7314V66.766Z" fill="#8599AD"/>
<path fill-rule="evenodd" clip-rule="evenodd" d="M44.0385 69.253L39.7291 66.766L45.329 63.5316L49.6384 66.021L44.0385 69.253Z" fill="white"/>
<path fill-rule="evenodd" clip-rule="evenodd" d="M48.5521 66.1218L48.7217 66.0255C48.74 66.0141 48.7378 65.9934 48.7217 65.982L48.5773 65.8972C48.5657 65.891 48.5527 65.8877 48.5395 65.8877C48.5263 65.8877 48.5133 65.891 48.5017 65.8972L48.332 65.9934C48.3137 66.0049 48.316 66.0255 48.332 66.037L48.4764 66.1218C48.4882 66.1275 48.5012 66.1305 48.5143 66.1305C48.5274 66.1305 48.5403 66.1275 48.5521 66.1218Z" fill="#5E7387"/>
<path fill-rule="evenodd" clip-rule="evenodd" d="M48.2838 65.9567L48.4374 65.8696C48.4603 65.8559 48.4603 65.8307 48.4374 65.8146L48.2426 65.7023C48.2284 65.6951 48.2127 65.6913 48.1967 65.6913C48.1808 65.6913 48.1651 65.6951 48.1509 65.7023L47.9973 65.7917C47.9744 65.8032 47.9767 65.8284 47.9973 65.8444C48.0638 65.8811 48.1279 65.9201 48.1921 65.959C48.2066 65.9654 48.2224 65.9685 48.2382 65.9681C48.2541 65.9677 48.2696 65.9638 48.2838 65.9567Z" fill="#5E7387"/>
<path fill-rule="evenodd" clip-rule="evenodd" d="M47.9399 65.7574L48.0935 65.668C48.1187 65.6542 48.1164 65.6313 48.0935 65.6153C48.0293 65.5763 47.9651 65.5373 47.8987 65.5006C47.8845 65.4934 47.8688 65.4896 47.8528 65.4896C47.8369 65.4896 47.8212 65.4934 47.807 65.5006L47.6534 65.59C47.6305 65.6038 47.6328 65.6267 47.6534 65.6428L47.8482 65.7574C47.8623 65.765 47.8781 65.769 47.8941 65.769C47.9101 65.769 47.9259 65.765 47.9399 65.7574Z" fill="#5E7387"/>
<path fill-rule="evenodd" clip-rule="evenodd" d="M47.5983 65.5556L47.7519 65.4685C47.7748 65.4547 47.7748 65.4295 47.7519 65.4135L47.5547 65.2989C47.5405 65.2916 47.5248 65.2878 47.5089 65.2878C47.4929 65.2878 47.4772 65.2916 47.463 65.2989L47.3095 65.386C47.2865 65.3997 47.2888 65.4249 47.3095 65.441L47.5043 65.5533C47.5186 65.5613 47.5346 65.5657 47.551 65.5661C47.5674 65.5665 47.5836 65.5629 47.5983 65.5556Z" fill="#5E7387"/>
<path fill-rule="evenodd" clip-rule="evenodd" d="M47.2542 65.3561L47.4078 65.2667C47.433 65.253 47.4284 65.2301 47.4078 65.214L47.213 65.0994C47.1988 65.0922 47.1831 65.0884 47.1671 65.0884C47.1512 65.0884 47.1355 65.0922 47.1213 65.0994L46.9654 65.1888C46.9425 65.2026 46.9471 65.2255 46.9654 65.2415C47.0319 65.2782 47.0961 65.3172 47.1603 65.3561C47.1749 65.3632 47.191 65.3669 47.2072 65.3669C47.2235 65.3669 47.2396 65.3632 47.2542 65.3561Z" fill="#5E7387"/>
<path fill-rule="evenodd" clip-rule="evenodd" d="M46.9106 65.1545L47.0642 65.0651C47.0894 65.0513 47.0871 65.0284 47.0642 65.0123L46.8694 64.8977C46.8552 64.8905 46.8395 64.8867 46.8235 64.8867C46.8076 64.8867 46.7919 64.8905 46.7777 64.8977L46.6241 64.9871C46.6012 65.0009 46.6035 65.0261 46.6241 65.0399L46.8189 65.1545C46.833 65.1621 46.8488 65.1661 46.8648 65.1661C46.8808 65.1661 46.8966 65.1621 46.9106 65.1545Z" fill="#5E7387"/>
<path fill-rule="evenodd" clip-rule="evenodd" d="M48.2537 66.296L48.4234 66.1974C48.4417 66.1859 48.4394 66.1676 48.4234 66.1538L48.279 66.069C48.2676 66.0634 48.255 66.0604 48.2423 66.0604C48.2296 66.0604 48.217 66.0634 48.2056 66.069L48.0337 66.1676C48.0154 66.179 48.0176 66.1974 48.0337 66.2111L48.1781 66.296C48.1899 66.3016 48.2028 66.3046 48.2159 66.3046C48.229 66.3046 48.2419 66.3016 48.2537 66.296Z" fill="#5E7387"/>
<path fill-rule="evenodd" clip-rule="evenodd" d="M47.7129 66.289L48.1347 66.0437C48.1599 66.0277 48.1599 66.0024 48.1347 65.9864L47.9467 65.8764C47.9313 65.869 47.9145 65.8652 47.8974 65.8652C47.8804 65.8652 47.8635 65.869 47.8481 65.8764L47.4241 66.1216C47.3988 66.1354 47.4011 66.1629 47.4241 66.1789L47.612 66.289C47.6276 66.2972 47.6449 66.3015 47.6625 66.3015C47.68 66.3015 47.6973 66.2972 47.7129 66.289Z" fill="#5E7387"/>
<path fill-rule="evenodd" clip-rule="evenodd" d="M47.5638 65.9751L47.793 65.8421C47.8182 65.8284 47.8159 65.8031 47.793 65.7848L47.605 65.6748C47.5898 65.6669 47.5729 65.6628 47.5557 65.6628C47.5386 65.6628 47.5217 65.6669 47.5064 65.6748L47.2772 65.8054C47.252 65.8215 47.2566 65.8467 47.2772 65.8627L47.4652 65.9728C47.4802 65.981 47.497 65.9855 47.5142 65.9859C47.5313 65.9863 47.5483 65.9825 47.5638 65.9751Z" fill="#5E7387"/>
<path fill-rule="evenodd" clip-rule="evenodd" d="M46.993 65.9063L47.4514 65.6427C47.4766 65.6267 47.4743 65.6015 47.4514 65.5854L47.2612 65.4754C47.2461 65.467 47.2291 65.4625 47.2119 65.4625C47.1946 65.4625 47.1777 65.467 47.1626 65.4754L46.7042 65.739C46.6789 65.755 46.6812 65.7803 46.7042 65.7963L46.8921 65.9063C46.9074 65.9152 46.9248 65.9198 46.9425 65.9198C46.9602 65.9198 46.9776 65.9152 46.993 65.9063Z" fill="#5E7387"/>
<path fill-rule="evenodd" clip-rule="evenodd" d="M46.9658 65.528L47.1194 65.4386C47.1423 65.4248 47.14 65.4019 47.1194 65.3858L46.9246 65.2712C46.9102 65.2645 46.8946 65.261 46.8787 65.261C46.8629 65.261 46.8472 65.2645 46.8329 65.2712L46.6793 65.3606C46.6564 65.3744 46.6587 65.3996 46.6793 65.4133C46.7435 65.4523 46.8077 65.4913 46.8741 65.528C46.8883 65.5352 46.904 65.539 46.92 65.539C46.9359 65.539 46.9516 65.5352 46.9658 65.528Z" fill="#5E7387"/>
<path fill-rule="evenodd" clip-rule="evenodd" d="M46.6128 65.3288L46.7664 65.2394C46.7893 65.2256 46.787 65.2004 46.7664 65.1844L46.5692 65.0698C46.5553 65.063 46.54 65.0596 46.5245 65.0596C46.5091 65.0596 46.4938 65.063 46.4798 65.0698L46.3263 65.1592C46.301 65.1729 46.3033 65.1958 46.3263 65.2119L46.5211 65.3265C46.5353 65.3336 46.5508 65.3375 46.5667 65.3379C46.5825 65.3383 46.5983 65.3352 46.6128 65.3288Z" fill="#5E7387"/>
<path fill-rule="evenodd" clip-rule="evenodd" d="M47.9765 66.4565L48.1232 66.3717C48.1438 66.3603 48.1392 66.3396 48.1232 66.3282L47.9787 66.2434C47.9671 66.2371 47.9541 66.2339 47.9409 66.2339C47.9277 66.2339 47.9147 66.2371 47.9031 66.2434L47.7564 66.3282C47.7381 66.3282 47.7404 66.358 47.7564 66.3717L47.9008 66.4542C47.9125 66.4601 47.9253 66.4634 47.9384 66.4638C47.9514 66.4642 47.9644 66.4617 47.9765 66.4565Z" fill="#5E7387"/>
<path fill-rule="evenodd" clip-rule="evenodd" d="M47.6968 66.6192L47.8435 66.5321C47.8619 66.5321 47.8596 66.5023 47.8435 66.4909L47.6991 66.4061C47.6877 66.4004 47.6752 66.3975 47.6624 66.3975C47.6497 66.3975 47.6372 66.4004 47.6258 66.4061L47.4791 66.4909C47.4584 66.4909 47.4607 66.523 47.4791 66.5344L47.6235 66.6192C47.635 66.6246 47.6475 66.6273 47.6602 66.6273C47.6728 66.6273 47.6853 66.6246 47.6968 66.6192Z" fill="#5E7387"/>
<path fill-rule="evenodd" clip-rule="evenodd" d="M47.4242 66.7797L47.5709 66.6949C47.5915 66.6949 47.587 66.6651 47.5709 66.6513L47.4265 66.5688C47.4149 66.5626 47.4019 66.5593 47.3887 66.5593C47.3755 66.5593 47.3625 66.5626 47.3509 66.5688L47.2042 66.6536C47.1858 66.6651 47.1881 66.6857 47.2042 66.6972L47.3486 66.782C47.3604 66.7877 47.3735 66.7904 47.3867 66.79C47.3998 66.7896 47.4127 66.7861 47.4242 66.7797Z" fill="#5E7387"/>
<path fill-rule="evenodd" clip-rule="evenodd" d="M47.1353 66.9424L47.282 66.8576C47.3004 66.8576 47.2981 66.8278 47.282 66.814C47.266 66.8003 47.1834 66.759 47.1376 66.7292C47.1258 66.7235 47.1129 66.7206 47.0998 66.7206C47.0867 66.7206 47.0738 66.7235 47.062 66.7292L46.9153 66.814C46.8969 66.8255 46.8992 66.8438 46.9153 66.8576L47.0597 66.9424C47.0715 66.9481 47.0844 66.951 47.0975 66.951C47.1106 66.951 47.1235 66.9481 47.1353 66.9424Z" fill="#5E7387"/>
<path fill-rule="evenodd" clip-rule="evenodd" d="M46.8555 67.1052L47.0022 67.0204C47.0206 67.009 47.0183 66.9906 47.0022 66.9769L46.8578 66.8921C46.846 66.8864 46.8331 66.8834 46.82 66.8834C46.8069 66.8834 46.794 66.8864 46.7822 66.8921L46.6355 66.9769C46.6171 66.9883 46.6194 67.0067 46.6355 67.0204L46.7799 67.1052C46.7917 67.1109 46.8046 67.1139 46.8177 67.1139C46.8308 67.1139 46.8437 67.1109 46.8555 67.1052Z" fill="#5E7387"/>
<path fill-rule="evenodd" clip-rule="evenodd" d="M46.5736 67.2678L46.7203 67.183C46.741 67.183 46.7364 67.1509 46.7203 67.1395L46.5759 67.0547C46.5641 67.049 46.5512 67.046 46.5381 67.046C46.525 67.046 46.5121 67.049 46.5003 67.0547L46.3536 67.1395C46.3352 67.1509 46.3375 67.1693 46.3536 67.183L46.498 67.2678C46.5098 67.2735 46.5227 67.2765 46.5358 67.2765C46.5489 67.2765 46.5618 67.2735 46.5736 67.2678Z" fill="#5E7387"/>
<path fill-rule="evenodd" clip-rule="evenodd" d="M46.294 67.4305L46.4407 67.3457C46.459 67.3343 46.4568 67.3136 46.4407 67.3022L46.2986 67.2174C46.2869 67.2111 46.274 67.2079 46.2608 67.2079C46.2476 67.2079 46.2346 67.2111 46.2229 67.2174L46.0762 67.3022C46.0579 67.3136 46.0579 67.332 46.0762 67.3457L46.2206 67.4282C46.2318 67.4344 46.2443 67.4379 46.257 67.4383C46.2698 67.4387 46.2825 67.436 46.294 67.4305Z" fill="#5E7387"/>
<path fill-rule="evenodd" clip-rule="evenodd" d="M46.0121 67.5934L46.1588 67.5086C46.1794 67.4971 46.1748 67.4765 46.1588 67.465L46.0144 67.3802C46.0028 67.374 45.9898 67.3707 45.9766 67.3707C45.9634 67.3707 45.9504 67.374 45.9387 67.3802L45.792 67.4627C45.7737 67.4627 45.776 67.4948 45.792 67.5063L45.9365 67.5911C45.9478 67.5981 45.9607 67.602 45.974 67.6024C45.9872 67.6028 46.0004 67.5997 46.0121 67.5934Z" fill="#5E7387"/>
<path fill-rule="evenodd" clip-rule="evenodd" d="M45.7325 67.7561L45.8792 67.6713C45.8975 67.6713 45.8952 67.6392 45.8792 67.6278L45.7348 67.5429C45.7229 67.5374 45.71 67.5345 45.6969 67.5345C45.6839 67.5345 45.671 67.5374 45.6591 67.5429L45.5124 67.6278C45.4918 67.6392 45.4964 67.6598 45.5124 67.6713L45.6568 67.7561C45.6685 67.7623 45.6815 67.7656 45.6947 67.7656C45.7079 67.7656 45.7208 67.7623 45.7325 67.7561Z" fill="#5E7387"/>
<path fill-rule="evenodd" clip-rule="evenodd" d="M45.4527 67.919L45.5994 67.8341C45.6177 67.8227 45.6154 67.8021 45.5994 67.7883L45.455 67.7058C45.4438 67.6996 45.4311 67.6963 45.4183 67.6963C45.4055 67.6963 45.3929 67.6996 45.3816 67.7058L45.2349 67.7906C45.2143 67.8021 45.2166 67.8227 45.2349 67.8341L45.3793 67.919C45.4028 67.9286 45.4292 67.9286 45.4527 67.919Z" fill="#5E7387"/>
<path fill-rule="evenodd" clip-rule="evenodd" d="M45.1707 68.0794L45.3174 67.9969C45.3358 67.9854 45.3335 67.9648 45.3174 67.951L45.173 67.8685C45.1614 67.8623 45.1484 67.859 45.1352 67.859C45.122 67.859 45.109 67.8623 45.0974 67.8685L44.9507 67.9533C44.9323 67.9648 44.9346 67.9854 44.9507 67.9969C44.9667 68.0083 45.0446 68.0542 45.0928 68.0817C45.1051 68.0874 45.1185 68.0901 45.132 68.0897C45.1455 68.0893 45.1588 68.0858 45.1707 68.0794Z" fill="#5E7387"/>
<path fill-rule="evenodd" clip-rule="evenodd" d="M44.8909 68.2421L45.0376 68.1573C45.056 68.1573 45.0537 68.1275 45.0376 68.1137C45.0216 68.1 44.9414 68.0587 44.8955 68.0289C44.8837 68.0232 44.8708 68.0203 44.8577 68.0203C44.8446 68.0203 44.8317 68.0232 44.8199 68.0289L44.6732 68.1137C44.6525 68.1252 44.6571 68.1435 44.6732 68.1573L44.8176 68.2421C44.8291 68.2474 44.8416 68.2502 44.8542 68.2502C44.8669 68.2502 44.8794 68.2474 44.8909 68.2421Z" fill="#5E7387"/>
<path fill-rule="evenodd" clip-rule="evenodd" d="M44.6093 68.4049L44.756 68.3201C44.7766 68.3087 44.772 68.2903 44.756 68.2766L44.6116 68.1918C44.5998 68.1861 44.5868 68.1831 44.5737 68.1831C44.5606 68.1831 44.5477 68.1861 44.5359 68.1918L44.3892 68.2766C44.3709 68.288 44.3732 68.3064 44.3892 68.3201L44.5336 68.4049C44.5453 68.411 44.5583 68.4141 44.5714 68.4141C44.5846 68.4141 44.5976 68.411 44.6093 68.4049Z" fill="#5E7387"/>
<path fill-rule="evenodd" clip-rule="evenodd" d="M44.3294 68.5676L44.4761 68.4828C44.4944 68.4714 44.4922 68.4507 44.4761 68.4393L44.334 68.3545C44.3222 68.3488 44.3093 68.3458 44.2962 68.3458C44.2831 68.3458 44.2701 68.3488 44.2583 68.3545L44.1116 68.4393C44.091 68.4507 44.0956 68.4691 44.1116 68.4828L44.256 68.5676C44.2675 68.573 44.2801 68.5757 44.2927 68.5757C44.3054 68.5757 44.3179 68.573 44.3294 68.5676Z" fill="#5E7387"/>
<path fill-rule="evenodd" clip-rule="evenodd" d="M44.0156 68.7511L44.183 68.6525C44.2036 68.641 44.199 68.6204 44.183 68.6089L44.0386 68.5241C44.0273 68.5179 44.0147 68.5146 44.0019 68.5146C43.9891 68.5146 43.9764 68.5179 43.9652 68.5241L43.7956 68.6204C43.775 68.6319 43.7772 68.6525 43.7956 68.664L43.94 68.7488C43.9514 68.7554 43.9643 68.759 43.9775 68.7594C43.9907 68.7598 44.0038 68.7569 44.0156 68.7511Z" fill="#5E7387"/>
<path fill-rule="evenodd" clip-rule="evenodd" d="M47.4102 66.4633L47.5592 66.3762C47.5821 66.3624 47.5821 66.3395 47.5592 66.3235L47.3621 66.2089C47.348 66.2027 47.3328 66.1996 47.3174 66.1996C47.302 66.1996 47.2868 66.2027 47.2727 66.2089L47.1214 66.2983C47.0985 66.3097 47.1008 66.3349 47.1214 66.3487L47.3162 66.4656C47.3311 66.4723 47.3472 66.4756 47.3635 66.4752C47.3798 66.4748 47.3958 66.4708 47.4102 66.4633Z" fill="#5E7387"/>
<path fill-rule="evenodd" clip-rule="evenodd" d="M47.1054 66.6397L47.2544 66.5526C47.2796 66.5389 47.2773 66.516 47.2544 66.4999L47.0573 66.3853C47.0433 66.3786 47.028 66.3751 47.0126 66.3751C46.9971 66.3751 46.9818 66.3786 46.9679 66.3853L46.8166 66.4724C46.7937 66.4862 46.796 66.5114 46.8166 66.5251L47.0137 66.642C47.0281 66.6488 47.0439 66.652 47.0598 66.6516C47.0757 66.6513 47.0913 66.6472 47.1054 66.6397Z" fill="#5E7387"/>
<path fill-rule="evenodd" clip-rule="evenodd" d="M46.8006 66.8163L46.9519 66.7292C46.9748 66.7155 46.9725 66.6926 46.9519 66.6765L46.7525 66.5619C46.7387 66.5547 46.7234 66.5509 46.7078 66.5509C46.6922 66.5509 46.6769 66.5547 46.6631 66.5619L46.5141 66.649C46.4889 66.6628 46.4935 66.688 46.5141 66.7017L46.7112 66.8163C46.725 66.8236 46.7404 66.8274 46.7559 66.8274C46.7715 66.8274 46.7868 66.8236 46.8006 66.8163Z" fill="#5E7387"/>
<path fill-rule="evenodd" clip-rule="evenodd" d="M46.4959 66.9929L46.6472 66.9058C46.6702 66.892 46.6679 66.8691 46.6472 66.853L46.4501 66.7384C46.4363 66.7312 46.421 66.7274 46.4054 66.7274C46.3898 66.7274 46.3745 66.7312 46.3607 66.7384L46.2094 66.8255C46.1865 66.8393 46.1888 66.8622 46.2094 66.8783L46.4065 66.9929C46.4203 67.0001 46.4357 67.0039 46.4512 67.0039C46.4668 67.0039 46.4822 67.0001 46.4959 66.9929Z" fill="#5E7387"/>
<path fill-rule="evenodd" clip-rule="evenodd" d="M46.1909 67.1694L46.3422 67.0823C46.3651 67.0685 46.3651 67.0433 46.3422 67.0295L46.1451 66.9149C46.1313 66.9077 46.1159 66.9039 46.1004 66.9039C46.0848 66.9039 46.0694 66.9077 46.0557 66.9149L45.9044 67.002C45.8814 67.0158 45.8837 67.0387 45.9044 67.0548L46.1015 67.1694C46.1153 67.1766 46.1306 67.1804 46.1462 67.1804C46.1618 67.1804 46.1771 67.1766 46.1909 67.1694Z" fill="#5E7387"/>
<path fill-rule="evenodd" clip-rule="evenodd" d="M45.8863 67.3505L46.0376 67.2634C46.0605 67.2497 46.0582 67.2245 46.0376 67.2107L45.8405 67.0961C45.8267 67.0889 45.8114 67.0851 45.7958 67.0851C45.7802 67.0851 45.7649 67.0889 45.7511 67.0961L45.5998 67.1832C45.5769 67.1969 45.5792 67.2199 45.5998 67.2359L45.7969 67.3505C45.8106 67.3582 45.826 67.3622 45.8416 67.3622C45.8573 67.3622 45.8727 67.3582 45.8863 67.3505Z" fill="#5E7387"/>
<path fill-rule="evenodd" clip-rule="evenodd" d="M45.5903 67.5224L45.7393 67.4353C45.7645 67.4215 45.7622 67.3963 45.7393 67.3826L45.5421 67.268C45.5283 67.2607 45.513 67.257 45.4974 67.257C45.4819 67.257 45.4665 67.2607 45.4527 67.268L45.3014 67.3551C45.2785 67.3688 45.2808 67.3917 45.3014 67.4078L45.4986 67.5224C45.5128 67.5295 45.5285 67.5331 45.5444 67.5331C45.5603 67.5331 45.576 67.5295 45.5903 67.5224Z" fill="#5E7387"/>
<path fill-rule="evenodd" clip-rule="evenodd" d="M45.2784 67.6989L45.4297 67.6095C45.4526 67.5981 45.4503 67.5729 45.4297 67.5591L45.2303 67.4422C45.2163 67.4355 45.2011 67.432 45.1856 67.432C45.1701 67.432 45.1548 67.4355 45.1409 67.4422L44.9919 67.5293C44.969 67.5408 44.9713 67.566 44.9919 67.582L45.189 67.6966C45.2028 67.7037 45.218 67.7076 45.2335 67.708C45.2489 67.7084 45.2643 67.7053 45.2784 67.6989Z" fill="#5E7387"/>
<path fill-rule="evenodd" clip-rule="evenodd" d="M44.974 67.873L45.1253 67.7859C45.1482 67.7721 45.1459 67.7492 45.1253 67.7354L44.9304 67.6185C44.9163 67.6124 44.9011 67.6093 44.8857 67.6093C44.8703 67.6093 44.8551 67.6124 44.841 67.6185L44.6897 67.7079C44.6668 67.7079 44.6691 67.7446 44.6897 67.7607L44.8869 67.8753C44.9005 67.8818 44.9156 67.8849 44.9307 67.8845C44.9458 67.8841 44.9607 67.8802 44.974 67.873Z" fill="#5E7387"/>
<path fill-rule="evenodd" clip-rule="evenodd" d="M44.6734 68.0495L44.8247 67.9624C44.8476 67.9487 44.8454 67.9258 44.8247 67.9097L44.6276 67.7951C44.6136 67.7884 44.5984 67.7849 44.5829 67.7849C44.5674 67.7849 44.5521 67.7884 44.5382 67.7951L44.3869 67.8822C44.364 67.896 44.3663 67.9212 44.3869 67.9349L44.5817 68.0518C44.5962 68.0585 44.612 68.0618 44.6279 68.0614C44.6438 68.061 44.6594 68.057 44.6734 68.0495Z" fill="#5E7387"/>
<path fill-rule="evenodd" clip-rule="evenodd" d="M44.3644 68.226L44.5156 68.1389C44.5386 68.1252 44.5363 68.1022 44.5156 68.0862L44.3185 67.9716C44.3047 67.9643 44.2894 67.9606 44.2738 67.9606C44.2582 67.9606 44.2429 67.9643 44.2291 67.9716L44.0778 68.0587C44.0549 68.0724 44.0572 68.0977 44.0778 68.1114L44.275 68.226C44.2886 68.2336 44.304 68.2376 44.3197 68.2376C44.3353 68.2376 44.3507 68.2336 44.3644 68.226Z" fill="#5E7387"/>
<path fill-rule="evenodd" clip-rule="evenodd" d="M44.0611 68.4027L44.2124 68.3155C44.2353 68.3018 44.233 68.2789 44.2124 68.2628L44.0153 68.1482C44.0015 68.141 43.9862 68.1372 43.9706 68.1372C43.955 68.1372 43.9397 68.141 43.9259 68.1482L43.7746 68.2353C43.7517 68.2491 43.754 68.272 43.7746 68.288L43.9717 68.4027C43.9855 68.4099 44.0009 68.4137 44.0164 68.4137C44.032 68.4137 44.0473 68.4099 44.0611 68.4027Z" fill="#5E7387"/>
<path fill-rule="evenodd" clip-rule="evenodd" d="M43.7567 68.5837C43.8071 68.5539 43.8575 68.5241 43.9102 68.4966C43.963 68.4691 43.9309 68.4576 43.9102 68.4416L43.7154 68.3293C43.7012 68.322 43.6855 68.3182 43.6696 68.3182C43.6536 68.3182 43.6379 68.322 43.6237 68.3293L43.4701 68.4187C43.4472 68.4301 43.4495 68.4553 43.4701 68.4714L43.665 68.586C43.6794 68.5929 43.6952 68.5963 43.7111 68.5959C43.727 68.5955 43.7427 68.5913 43.7567 68.5837Z" fill="#5E7387"/>
<path fill-rule="evenodd" clip-rule="evenodd" d="M43.4058 68.3818L43.7222 68.1984C43.7474 68.1847 43.7451 68.1594 43.7222 68.1411L43.5273 68.038C43.5117 68.0301 43.4944 68.026 43.4769 68.026C43.4594 68.026 43.4421 68.0301 43.4265 68.038L43.1124 68.219C43.0872 68.2351 43.0895 68.2603 43.1124 68.2764L43.3004 68.3864C43.3168 68.3952 43.3352 68.3994 43.3538 68.3986C43.3723 68.3978 43.3903 68.392 43.4058 68.3818Z" fill="#5E7387"/>
<path fill-rule="evenodd" clip-rule="evenodd" d="M43.0688 68.1825L43.4447 67.9647C43.4699 67.9487 43.4653 67.9235 43.4447 67.9051L43.2567 67.7974C43.2417 67.789 43.2247 67.7845 43.2074 67.7845C43.1902 67.7845 43.1732 67.789 43.1582 67.7974L42.7822 68.0152C42.757 68.0289 42.7616 68.0541 42.7822 68.0725L42.9702 68.1825C42.9856 68.1898 43.0024 68.1936 43.0195 68.1936C43.0365 68.1936 43.0534 68.1898 43.0688 68.1825Z" fill="#5E7387"/>
<path fill-rule="evenodd" clip-rule="evenodd" d="M42.7206 67.9807L43.2593 67.669C43.2845 67.653 43.2822 67.6277 43.2593 67.6117L43.0713 67.5017C43.0565 67.4938 43.04 67.4897 43.0232 67.4897C43.0064 67.4897 42.9899 67.4938 42.975 67.5017L42.4364 67.8134C42.4089 67.8295 42.4134 67.8547 42.4364 67.8707L42.6266 67.9807C42.6413 67.9877 42.6574 67.9913 42.6736 67.9913C42.6899 67.9913 42.7059 67.9877 42.7206 67.9807Z" fill="#5E7387"/>
<path fill-rule="evenodd" clip-rule="evenodd" d="M42.3814 67.7793L42.6106 67.6486C42.6358 67.6348 42.6335 67.6096 42.6106 67.5936L42.4226 67.4836C42.4076 67.4751 42.3906 67.4707 42.3734 67.4707C42.3561 67.4707 42.3391 67.4751 42.3241 67.4836L42.0948 67.6142C42.0696 67.628 42.0719 67.6532 42.0948 67.6692L42.2828 67.7793C42.2977 67.7881 42.3147 67.7928 42.3321 67.7928C42.3494 67.7928 42.3665 67.7881 42.3814 67.7793Z" fill="#5E7387"/>
<path fill-rule="evenodd" clip-rule="evenodd" d="M43.8505 68.1252L44.0133 68.0312C44.0385 68.0175 44.0339 67.9899 44.0133 67.9739L43.823 67.8639C43.808 67.8566 43.7916 67.8528 43.7749 67.8528C43.7582 67.8528 43.7418 67.8566 43.7268 67.8639L43.564 67.9579C43.5411 67.9716 43.5434 67.9968 43.564 68.0152L43.7543 68.1252C43.7692 68.1328 43.7857 68.1368 43.8024 68.1368C43.8191 68.1368 43.8356 68.1328 43.8505 68.1252Z" fill="#5E7387"/>
<path fill-rule="evenodd" clip-rule="evenodd" d="M44.1623 67.9441L44.3228 67.8524C44.348 67.8363 44.3457 67.8111 44.3228 67.7951C44.2586 67.7584 44.1944 67.7217 44.1325 67.6828C44.1171 67.6754 44.1003 67.6716 44.0832 67.6716C44.0662 67.6716 44.0493 67.6754 44.0339 67.6828L43.8735 67.7745C43.8483 67.7905 43.8506 67.8157 43.8735 67.8318L44.0637 67.9441C44.079 67.9517 44.0959 67.9557 44.113 67.9557C44.1301 67.9557 44.147 67.9517 44.1623 67.9441Z" fill="#5E7387"/>
<path fill-rule="evenodd" clip-rule="evenodd" d="M44.4719 67.7653L44.6323 67.6713C44.6575 67.6576 44.6553 67.6324 44.6323 67.6163L44.4421 67.504C44.4272 67.4962 44.4107 67.4921 44.3939 67.4921C44.3772 67.4921 44.3606 67.4962 44.3458 67.504L44.1831 67.5957C44.1601 67.6117 44.1624 67.6346 44.1831 67.653L44.3733 67.763C44.3884 67.771 44.4052 67.7754 44.4223 67.7758C44.4394 67.7762 44.4564 67.7726 44.4719 67.7653Z" fill="#5E7387"/>
<path fill-rule="evenodd" clip-rule="evenodd" d="M44.7814 67.5795L44.9441 67.4856C44.967 67.4718 44.9647 67.4466 44.9441 67.4282L44.7539 67.3182C44.7389 67.3109 44.7224 67.3071 44.7057 67.3071C44.689 67.3071 44.6726 67.3109 44.6576 67.3182L44.4971 67.4122C44.4719 67.426 44.4742 67.4512 44.4971 67.4672L44.6736 67.5795C44.6901 67.5888 44.7086 67.5936 44.7275 67.5936C44.7464 67.5936 44.7649 67.5888 44.7814 67.5795Z" fill="#5E7387"/>
<path fill-rule="evenodd" clip-rule="evenodd" d="M45.093 67.4056L45.2534 67.3139C45.2786 67.2979 45.2763 67.2726 45.2534 67.2566L45.0632 67.1466C45.0483 67.1387 45.0318 67.1346 45.015 67.1346C44.9983 67.1346 44.9817 67.1387 44.9669 67.1466L44.8064 67.2405C44.7812 67.2543 44.7835 67.2795 44.8064 67.2956L44.9967 67.4079C45.0117 67.4154 45.0283 67.4191 45.0451 67.4187C45.0619 67.4183 45.0783 67.4138 45.093 67.4056Z" fill="#5E7387"/>
<path fill-rule="evenodd" clip-rule="evenodd" d="M45.4025 67.2269L45.563 67.1329C45.5882 67.1191 45.5859 67.0939 45.563 67.0779L45.3727 66.9656C45.3577 66.9583 45.3413 66.9545 45.3246 66.9545C45.3079 66.9545 45.2915 66.9583 45.2765 66.9656L45.1137 67.0595C45.0885 67.0756 45.0931 67.0985 45.1137 67.1168L45.304 67.2269C45.3193 67.2345 45.3361 67.2385 45.3533 67.2385C45.3704 67.2385 45.3872 67.2345 45.4025 67.2269Z" fill="#5E7387"/>
<path fill-rule="evenodd" clip-rule="evenodd" d="M45.7118 67.0478L45.8745 66.9538C45.8974 66.9401 45.8952 66.9148 45.8745 66.8965L45.6843 66.7865C45.6693 66.7792 45.6528 66.7754 45.6361 66.7754C45.6195 66.7754 45.603 66.7792 45.588 66.7865L45.4252 66.8805C45.4023 66.8942 45.4046 66.9194 45.4252 66.9355L45.6132 67.0478C45.6285 67.0555 45.6454 67.0594 45.6625 67.0594C45.6796 67.0594 45.6965 67.0555 45.7118 67.0478Z" fill="#5E7387"/>
<path fill-rule="evenodd" clip-rule="evenodd" d="M46.0212 66.8666L46.1839 66.775C46.2092 66.7589 46.2046 66.7337 46.1839 66.7176L45.9937 66.6076C45.9788 66.5998 45.9623 66.5957 45.9455 66.5957C45.9288 66.5957 45.9122 66.5998 45.8974 66.6076L45.737 66.7016C45.7117 66.7154 45.714 66.7406 45.737 66.7566L45.9272 66.8689C45.9418 66.8764 45.9581 66.8801 45.9745 66.8797C45.9909 66.8793 46.007 66.8748 46.0212 66.8666Z" fill="#5E7387"/>
<path fill-rule="evenodd" clip-rule="evenodd" d="M46.3327 66.688L46.4932 66.5941C46.5184 66.5803 46.5161 66.5551 46.4932 66.539L46.3052 66.4267C46.29 66.4189 46.2731 66.4148 46.2559 66.4148C46.2388 66.4148 46.2219 66.4189 46.2066 66.4267L46.0462 66.5184C46.021 66.5345 46.0256 66.5597 46.0462 66.5757L46.2364 66.6858C46.2513 66.6934 46.2676 66.6976 46.2843 66.698C46.301 66.6984 46.3175 66.695 46.3327 66.688Z" fill="#5E7387"/>
<path fill-rule="evenodd" clip-rule="evenodd" d="M46.6424 66.5092L46.8052 66.4152C46.8281 66.4015 46.8258 66.374 46.8052 66.3579L46.6149 66.2479C46.5999 66.2406 46.5835 66.2368 46.5668 66.2368C46.5501 66.2368 46.5337 66.2406 46.5187 66.2479L46.3559 66.3419C46.3307 66.3556 46.3353 66.3809 46.3559 66.3969L46.5462 66.5092C46.5612 66.5165 46.5776 66.5203 46.5943 66.5203C46.611 66.5203 46.6274 66.5165 46.6424 66.5092Z" fill="#5E7387"/>
<path fill-rule="evenodd" clip-rule="evenodd" d="M46.9521 66.3281L47.1148 66.2364C47.1401 66.2226 47.1355 66.1951 47.1148 66.1791C47.0507 66.1424 46.9865 66.1057 46.9246 66.0668C46.9096 66.0595 46.8931 66.0557 46.8765 66.0557C46.8598 66.0557 46.8433 66.0595 46.8283 66.0668L46.6679 66.1607C46.6426 66.1745 46.6449 66.1997 46.6679 66.2157L46.8558 66.3281C46.8707 66.3359 46.8872 66.34 46.904 66.34C46.9207 66.34 46.9373 66.3359 46.9521 66.3281Z" fill="#5E7387"/>
<path fill-rule="evenodd" clip-rule="evenodd" d="M47.2614 66.1493L47.4242 66.0554C47.4494 66.0416 47.4448 66.0164 47.4242 66.0003L47.2339 65.888C47.2191 65.8802 47.2026 65.8761 47.1858 65.8761C47.169 65.8761 47.1525 65.8802 47.1376 65.888L46.9772 65.9797C46.952 65.9958 46.9566 66.021 46.9772 66.037L47.1674 66.147C47.1817 66.1552 47.1977 66.1597 47.2141 66.1601C47.2306 66.1605 47.2468 66.1568 47.2614 66.1493Z" fill="#5E7387"/>
<path fill-rule="evenodd" clip-rule="evenodd" d="M43.596 67.8753C43.6487 67.8432 43.7014 67.8111 43.7564 67.7813C43.8114 67.7515 43.7771 67.74 43.7564 67.724L43.5662 67.614C43.5513 67.6061 43.5348 67.6021 43.518 67.6021C43.5013 67.6021 43.4847 67.6061 43.4699 67.614L43.3094 67.7057C43.2842 67.7217 43.2865 67.7469 43.3094 67.763L43.4997 67.873C43.5145 67.8808 43.5309 67.8851 43.5476 67.8855C43.5643 67.8859 43.5808 67.8824 43.596 67.8753Z" fill="#5E7387"/>
<path fill-rule="evenodd" clip-rule="evenodd" d="M43.903 67.6943L44.0658 67.6003C44.091 67.5865 44.0864 67.5613 44.0658 67.5453L43.8755 67.433C43.8605 67.4257 43.8441 67.4219 43.8274 67.4219C43.8107 67.4219 43.7942 67.4257 43.7792 67.433L43.6188 67.5269C43.5936 67.5407 43.5959 67.5682 43.6188 67.5843L43.809 67.6943C43.8236 67.7015 43.8397 67.7053 43.856 67.7053C43.8723 67.7053 43.8884 67.7015 43.903 67.6943Z" fill="#5E7387"/>
<path fill-rule="evenodd" clip-rule="evenodd" d="M44.2148 67.5154L44.3752 67.4215C44.4005 67.4077 44.3982 67.3825 44.3752 67.3642L44.185 67.2541C44.17 67.2468 44.1535 67.243 44.1369 67.243C44.1202 67.243 44.1037 67.2468 44.0887 67.2541L43.926 67.3481C43.9031 67.3619 43.9053 67.3871 43.926 67.4031L44.1162 67.5154C44.1315 67.5231 44.1484 67.5271 44.1655 67.5271C44.1826 67.5271 44.1995 67.5231 44.2148 67.5154Z" fill="#5E7387"/>
<path fill-rule="evenodd" clip-rule="evenodd" d="M44.5243 67.3344L44.687 67.2427C44.7099 67.2267 44.7077 67.2014 44.687 67.1854L44.4968 67.0731C44.4819 67.0652 44.4654 67.0612 44.4486 67.0612C44.4319 67.0612 44.4153 67.0652 44.4005 67.0731L44.24 67.1648C44.2148 67.1808 44.2171 67.206 44.24 67.2221L44.4303 67.3344C44.4448 67.3418 44.4609 67.3457 44.4773 67.3457C44.4936 67.3457 44.5097 67.3418 44.5243 67.3344Z" fill="#5E7387"/>
<path fill-rule="evenodd" clip-rule="evenodd" d="M44.8361 67.1557L44.9966 67.0617C45.0218 67.048 45.0195 67.0228 44.9966 67.0067L44.8063 66.8944C44.7913 66.8871 44.7749 66.8833 44.7582 66.8833C44.7415 66.8833 44.7251 66.8871 44.7101 66.8944L44.5496 66.9884C44.5244 67.0044 44.5267 67.0296 44.5496 67.0457L44.7421 67.1557C44.7568 67.1626 44.7729 67.1662 44.7891 67.1662C44.8054 67.1662 44.8214 67.1626 44.8361 67.1557Z" fill="#5E7387"/>
<path fill-rule="evenodd" clip-rule="evenodd" d="M45.1457 66.9769L45.3062 66.8829C45.3314 66.8691 45.3291 66.8439 45.3062 66.8256L45.1159 66.7156C45.1009 66.7083 45.0844 66.7045 45.0678 66.7045C45.0511 66.7045 45.0346 66.7083 45.0196 66.7156L44.8592 66.8095C44.834 66.8233 44.8363 66.8485 44.8592 66.8646L45.0494 66.9769C45.0644 66.9842 45.0809 66.988 45.0976 66.988C45.1142 66.988 45.1307 66.9842 45.1457 66.9769Z" fill="#5E7387"/>
<path fill-rule="evenodd" clip-rule="evenodd" d="M45.4549 66.798L45.6177 66.704C45.6406 66.6903 45.6383 66.6628 45.6177 66.6467L45.4274 66.5367C45.4126 66.5289 45.3961 66.5248 45.3793 66.5248C45.3625 66.5248 45.346 66.5289 45.3312 66.5367L45.1684 66.6307C45.1455 66.6444 45.1478 66.6697 45.1684 66.6857L45.3587 66.798C45.3737 66.8053 45.3901 66.8091 45.4068 66.8091C45.4235 66.8091 45.4399 66.8053 45.4549 66.798Z" fill="#5E7387"/>
<path fill-rule="evenodd" clip-rule="evenodd" d="M45.7644 66.6169L45.9271 66.5229C45.9523 66.5092 45.9477 66.4839 45.9271 66.4679L45.7368 66.3556C45.7218 66.3483 45.7054 66.3445 45.6887 66.3445C45.672 66.3445 45.6556 66.3483 45.6406 66.3556L45.4801 66.4496C45.4549 66.4633 45.4572 66.4908 45.4801 66.5069L45.6681 66.6169C45.6831 66.6242 45.6995 66.628 45.7162 66.628C45.7329 66.628 45.7494 66.6242 45.7644 66.6169Z" fill="#5E7387"/>
<path fill-rule="evenodd" clip-rule="evenodd" d="M46.0764 66.4336L46.2368 66.3396C46.262 66.3259 46.2597 66.2984 46.2368 66.2823L46.0466 66.1723C46.032 66.165 46.0159 66.1613 45.9996 66.1613C45.9833 66.1613 45.9672 66.165 45.9526 66.1723L45.7898 66.2663C45.7646 66.28 45.7692 66.3053 45.7898 66.3213C45.8105 66.3373 45.9159 66.3969 45.9801 66.4336C45.9951 66.4409 46.0115 66.4447 46.0282 66.4447C46.0449 66.4447 46.0614 66.4409 46.0764 66.4336Z" fill="#5E7387"/>
<path fill-rule="evenodd" clip-rule="evenodd" d="M46.3859 66.2593L46.5464 66.1653C46.5716 66.1493 46.5693 66.1241 46.5464 66.108L46.3538 65.998C46.339 65.9902 46.3225 65.9861 46.3057 65.9861C46.2889 65.9861 46.2724 65.9902 46.2576 65.998L46.0971 66.0897C46.0719 66.1057 46.0765 66.131 46.0971 66.147L46.2874 66.2593C46.3027 66.267 46.3195 66.271 46.3367 66.271C46.3538 66.271 46.3706 66.267 46.3859 66.2593Z" fill="#5E7387"/>
<path fill-rule="evenodd" clip-rule="evenodd" d="M46.6953 66.0783L46.858 65.9843C46.8832 65.9706 46.8786 65.9454 46.858 65.9293L46.6678 65.817C46.6528 65.8097 46.6363 65.8059 46.6196 65.8059C46.6029 65.8059 46.5865 65.8097 46.5715 65.817L46.4087 65.911C46.3858 65.9247 46.3881 65.9522 46.4087 65.9683L46.599 66.0783C46.614 66.0856 46.6304 66.0894 46.6471 66.0894C46.6638 66.0894 46.6803 66.0856 46.6953 66.0783Z" fill="#5E7387"/>
<path fill-rule="evenodd" clip-rule="evenodd" d="M43.415 67.5795L43.5754 67.4856C43.6007 67.4718 43.5984 67.4466 43.5754 67.4282L43.3852 67.3182C43.3702 67.3109 43.3537 67.3071 43.3371 67.3071C43.3204 67.3071 43.3039 67.3109 43.2889 67.3182L43.1285 67.4122C43.1032 67.426 43.1055 67.4512 43.1285 67.4672L43.3164 67.5795C43.3318 67.5869 43.3487 67.5907 43.3657 67.5907C43.3828 67.5907 43.3996 67.5869 43.415 67.5795Z" fill="#5E7387"/>
<path fill-rule="evenodd" clip-rule="evenodd" d="M43.7246 67.3985L43.885 67.3045C43.9102 67.2908 43.9079 67.2656 43.885 67.2495L43.6948 67.1395C43.6799 67.1317 43.6634 67.1276 43.6466 67.1276C43.6298 67.1276 43.6133 67.1317 43.5985 67.1395L43.438 67.2335C43.4128 67.2472 43.4174 67.2724 43.438 67.2885L43.6283 67.4008C43.6433 67.4083 43.6599 67.412 43.6767 67.4116C43.6935 67.4112 43.7099 67.4067 43.7246 67.3985Z" fill="#5E7387"/>
<path fill-rule="evenodd" clip-rule="evenodd" d="M44.0338 67.2198L44.1965 67.1258C44.2195 67.112 44.2172 67.0868 44.1965 67.0708C44.1324 67.0341 44.0682 66.9974 44.0063 66.9585C43.9915 66.9506 43.9749 66.9465 43.9582 66.9465C43.9414 66.9465 43.9249 66.9506 43.91 66.9585L43.7473 67.0501C43.7243 67.0662 43.7266 67.0914 43.7473 67.1074L43.9375 67.2175C43.9522 67.2257 43.9686 67.2301 43.9854 67.2305C44.0022 67.2309 44.0188 67.2272 44.0338 67.2198Z" fill="#5E7387"/>
<path fill-rule="evenodd" clip-rule="evenodd" d="M44.3432 67.041L44.506 66.947C44.5312 66.9332 44.5266 66.908 44.506 66.892L44.3157 66.7796C44.3007 66.7723 44.2842 66.7686 44.2676 66.7686C44.2509 66.7686 44.2344 66.7723 44.2194 66.7796L44.059 66.8736C44.0338 66.8874 44.0361 66.9126 44.059 66.9286L44.2469 67.041C44.2619 67.0482 44.2784 67.052 44.2951 67.052C44.3118 67.052 44.3282 67.0482 44.3432 67.041Z" fill="#5E7387"/>
<path fill-rule="evenodd" clip-rule="evenodd" d="M44.655 66.86L44.8154 66.7684C44.8406 66.7523 44.8384 66.7294 44.8154 66.7111L44.6275 66.601C44.6126 66.5932 44.5961 66.5891 44.5793 66.5891C44.5626 66.5891 44.546 66.5932 44.5312 66.601L44.3685 66.695C44.3432 66.7088 44.3478 66.734 44.3685 66.75L44.5587 66.8623C44.5737 66.8698 44.5904 66.8735 44.6071 66.8731C44.6239 66.8727 44.6403 66.8682 44.655 66.86Z" fill="#5E7387"/>
<path fill-rule="evenodd" clip-rule="evenodd" d="M44.9645 66.6812L45.1272 66.5872C45.1501 66.5735 45.1478 66.5482 45.1272 66.5322L44.9393 66.4199C44.9244 66.4121 44.9079 66.408 44.8911 66.408C44.8743 66.408 44.8578 66.4121 44.843 66.4199L44.6802 66.5116C44.655 66.5276 44.6596 66.5528 44.6802 66.5689L44.8705 66.6789C44.8848 66.6867 44.9009 66.691 44.9172 66.6914C44.9335 66.6918 44.9497 66.6883 44.9645 66.6812Z" fill="#5E7387"/>
<path fill-rule="evenodd" clip-rule="evenodd" d="M45.2739 66.5024L45.4366 66.4084C45.4618 66.3947 45.4573 66.3694 45.4366 66.3534L45.2464 66.2411C45.2314 66.2338 45.2149 66.23 45.1982 66.23C45.1816 66.23 45.1651 66.2338 45.1501 66.2411L44.9873 66.3351C44.9644 66.3488 44.9667 66.374 44.9873 66.3901L45.1776 66.5024C45.1926 66.5097 45.2091 66.5135 45.2257 66.5135C45.2424 66.5135 45.2589 66.5097 45.2739 66.5024Z" fill="#5E7387"/>
<path fill-rule="evenodd" clip-rule="evenodd" d="M45.5903 66.3211L45.7507 66.2294C45.776 66.2134 45.7737 66.1882 45.7507 66.1721L45.5605 66.0621C45.5456 66.0543 45.5291 66.0502 45.5123 66.0502C45.4956 66.0502 45.479 66.0543 45.4642 66.0621L45.3038 66.1561C45.2785 66.1698 45.2831 66.195 45.3038 66.2111L45.4917 66.3234C45.5071 66.3309 45.5241 66.3346 45.5413 66.3342C45.5584 66.3338 45.5752 66.3293 45.5903 66.3211Z" fill="#5E7387"/>
<path fill-rule="evenodd" clip-rule="evenodd" d="M45.8952 66.1424L46.0557 66.0484C46.0809 66.0347 46.0786 66.0094 46.0557 65.9934C45.9915 65.9567 45.9273 65.9201 45.8654 65.8811C45.8504 65.8738 45.834 65.87 45.8173 65.87C45.8006 65.87 45.7841 65.8738 45.7691 65.8811L45.6064 65.9751C45.5812 65.9911 45.5858 66.014 45.6064 66.0324L45.7966 66.1424C45.8118 66.1506 45.8287 66.1549 45.8459 66.1549C45.8631 66.1549 45.8801 66.1506 45.8952 66.1424Z" fill="#5E7387"/>
<path fill-rule="evenodd" clip-rule="evenodd" d="M46.2045 65.975L46.3672 65.8811C46.3901 65.8673 46.3878 65.8421 46.3672 65.826L46.1769 65.7137C46.1619 65.7064 46.1455 65.7026 46.1288 65.7026C46.1121 65.7026 46.0957 65.7064 46.0807 65.7137L45.9202 65.8077C45.895 65.8215 45.8973 65.8467 45.9202 65.865L46.1105 65.975C46.1252 65.982 46.1412 65.9856 46.1575 65.9856C46.1737 65.9856 46.1898 65.982 46.2045 65.975Z" fill="#5E7387"/>
<path fill-rule="evenodd" clip-rule="evenodd" d="M46.5072 65.7825L46.7983 65.6128C46.8236 65.5991 46.8213 65.5739 46.7983 65.5578L46.6104 65.4455C46.5955 65.4377 46.579 65.4336 46.5622 65.4336C46.5455 65.4336 46.5289 65.4377 46.5141 65.4455L46.2207 65.6128C46.1955 65.6289 46.1978 65.6541 46.2207 65.6724L46.4087 65.7802C46.4235 65.789 46.4404 65.7938 46.4576 65.7942C46.4749 65.7946 46.492 65.7906 46.5072 65.7825Z" fill="#5E7387"/>
<path fill-rule="evenodd" clip-rule="evenodd" d="M42.7547 67.5613L42.9175 67.4674C42.9404 67.4513 42.9381 67.4261 42.9175 67.4101L42.7272 67.3C42.7122 67.2927 42.6958 67.2889 42.6791 67.2889C42.6624 67.2889 42.646 67.2927 42.631 67.3L42.4705 67.394C42.4453 67.4078 42.4476 67.433 42.4705 67.449L42.6608 67.5613C42.6755 67.5683 42.6915 67.5719 42.7078 67.5719C42.724 67.5719 42.7401 67.5683 42.7547 67.5613Z" fill="#5E7387"/>
<path fill-rule="evenodd" clip-rule="evenodd" d="M43.0688 67.3802L43.2293 67.2885C43.2545 67.2725 43.2522 67.2472 43.2293 67.2312L43.039 67.1212C43.0242 67.1133 43.0076 67.1093 42.9909 67.1093C42.9741 67.1093 42.9576 67.1133 42.9427 67.1212C42.8877 67.151 42.835 67.1831 42.7823 67.2152C42.7295 67.2472 42.7593 67.2541 42.7823 67.2702L42.9725 67.3825C42.9875 67.39 43.0042 67.3937 43.0209 67.3933C43.0377 67.3929 43.0541 67.3884 43.0688 67.3802Z" fill="#5E7387"/>
<path fill-rule="evenodd" clip-rule="evenodd" d="M43.3762 67.2014L43.5366 67.1074C43.5618 67.0936 43.5595 67.0684 43.5366 67.0524L43.3464 66.94C43.3314 66.9327 43.3149 66.929 43.2982 66.929C43.2816 66.929 43.2651 66.9327 43.2501 66.94L43.0874 67.034C43.0621 67.0501 43.0667 67.073 43.0874 67.0913L43.2776 67.2014C43.2929 67.209 43.3098 67.213 43.3269 67.213C43.344 67.213 43.3609 67.209 43.3762 67.2014Z" fill="#5E7387"/>
<path fill-rule="evenodd" clip-rule="evenodd" d="M43.6853 67.0226L43.8457 66.9287C43.8709 66.9126 43.8686 66.8897 43.8457 66.8714L43.6555 66.7613C43.6405 66.754 43.624 66.7502 43.6073 66.7502C43.5906 66.7502 43.5742 66.754 43.5592 66.7613L43.3964 66.8553C43.3735 66.8691 43.3758 66.8943 43.3964 66.9103L43.5867 67.0226C43.602 67.0303 43.6189 67.0343 43.636 67.0343C43.6531 67.0343 43.67 67.0303 43.6853 67.0226Z" fill="#5E7387"/>
<path fill-rule="evenodd" clip-rule="evenodd" d="M43.9858 66.8416L44.1485 66.7499C44.1738 66.7339 44.1692 66.7087 44.1485 66.6926L43.9583 66.5826C43.9434 66.5748 43.9269 66.5707 43.9101 66.5707C43.8934 66.5707 43.8768 66.5748 43.862 66.5826L43.7015 66.6766C43.6763 66.6903 43.6786 66.7155 43.7015 66.7316L43.8918 66.8416C43.9064 66.8491 43.9225 66.8529 43.9388 66.8529C43.9551 66.8529 43.9712 66.8491 43.9858 66.8416Z" fill="#5E7387"/>
<path fill-rule="evenodd" clip-rule="evenodd" d="M44.3063 66.6629L44.4668 66.5689C44.492 66.5551 44.4897 66.5299 44.4668 66.5139L44.2765 66.4015C44.2619 66.3943 44.2459 66.3905 44.2296 66.3905C44.2132 66.3905 44.1972 66.3943 44.1826 66.4015L44.0198 66.4955C43.9946 66.5093 43.9969 66.5368 44.0198 66.5528L44.2147 66.6629C44.229 66.6695 44.2447 66.6729 44.2605 66.6729C44.2763 66.6729 44.292 66.6695 44.3063 66.6629Z" fill="#5E7387"/>
<path fill-rule="evenodd" clip-rule="evenodd" d="M44.6161 66.4841L44.7788 66.3901C44.8017 66.3763 44.7995 66.3511 44.7788 66.3328L44.5886 66.2228C44.5736 66.2155 44.5571 66.2117 44.5404 66.2117C44.5237 66.2117 44.5073 66.2155 44.4923 66.2228L44.3295 66.3167C44.3066 66.3305 44.3089 66.3557 44.3295 66.3718L44.5198 66.4841C44.5348 66.4914 44.5513 66.4952 44.5679 66.4952C44.5846 66.4952 44.6011 66.4914 44.6161 66.4841Z" fill="#5E7387"/>
<path fill-rule="evenodd" clip-rule="evenodd" d="M44.9252 66.3028L45.088 66.2111C45.1132 66.1951 45.1086 66.1699 45.088 66.1538L44.8977 66.0438C44.8831 66.0353 44.8665 66.0309 44.8496 66.0309C44.8327 66.0309 44.8161 66.0353 44.8015 66.0438L44.641 66.1378C44.6158 66.1515 44.6181 66.1767 44.641 66.1928L44.829 66.3028C44.8436 66.3112 44.8602 66.3157 44.8771 66.3157C44.894 66.3157 44.9106 66.3112 44.9252 66.3028Z" fill="#5E7387"/>
<path fill-rule="evenodd" clip-rule="evenodd" d="M45.235 66.1239L45.3977 66.03C45.4229 66.0162 45.4206 65.991 45.3977 65.9749L45.2075 65.8626C45.1926 65.8548 45.1761 65.8507 45.1593 65.8507C45.1425 65.8507 45.126 65.8548 45.1112 65.8626L44.9507 65.9543C44.9255 65.9704 44.9278 65.9956 44.9507 66.0116L45.141 66.1217C45.1554 66.1293 45.1714 66.1334 45.1877 66.1338C45.204 66.1342 45.2202 66.1309 45.235 66.1239Z" fill="#5E7387"/>
<path fill-rule="evenodd" clip-rule="evenodd" d="M45.5468 65.9453L45.7073 65.8513C45.7325 65.8375 45.7302 65.8123 45.7073 65.794L45.5193 65.6839C45.5043 65.6766 45.4879 65.6729 45.4712 65.6729C45.4545 65.6729 45.438 65.6766 45.423 65.6839L45.2603 65.7779C45.2351 65.7917 45.2397 65.8169 45.2603 65.8352L45.4506 65.9453C45.4655 65.9526 45.482 65.9563 45.4987 65.9563C45.5154 65.9563 45.5318 65.9526 45.5468 65.9453Z" fill="#5E7387"/>
<path fill-rule="evenodd" clip-rule="evenodd" d="M45.8563 65.7642L46.1497 65.5969C46.1749 65.5808 46.1726 65.5556 46.1497 65.5396L45.9617 65.4295C45.9471 65.4211 45.9305 65.4166 45.9136 65.4166C45.8967 65.4166 45.8801 65.4211 45.8654 65.4295L45.572 65.5991C45.5468 65.6129 45.5491 65.6381 45.572 65.6542L45.7623 65.7642C45.7766 65.7722 45.7928 65.7764 45.8093 65.7764C45.8257 65.7764 45.8419 65.7722 45.8563 65.7642Z" fill="#5E7387"/>
<path fill-rule="evenodd" clip-rule="evenodd" d="M46.3145 65.5006L46.468 65.4112C46.491 65.3975 46.4887 65.3745 46.468 65.3585L46.2732 65.2439C46.2588 65.2371 46.2432 65.2336 46.2273 65.2336C46.2115 65.2336 46.1958 65.2371 46.1815 65.2439L46.0279 65.3333C46.005 65.347 46.0073 65.3722 46.0279 65.386C46.0921 65.425 46.1563 65.4639 46.2228 65.5006C46.237 65.5079 46.2527 65.5116 46.2686 65.5116C46.2845 65.5116 46.3003 65.5079 46.3145 65.5006Z" fill="#5E7387"/>
<path fill-rule="evenodd" clip-rule="evenodd" d="M43.351 66.5871L44.1578 66.1286L44.9624 65.6702C44.9876 65.6541 44.9853 65.6289 44.9624 65.6129L44.52 65.3539L44.0776 65.0948C44.0626 65.0875 44.0461 65.0837 44.0295 65.0837C44.0128 65.0837 43.9963 65.0875 43.9813 65.0948L43.1745 65.5533L42.3699 66.0117C42.3447 66.0255 42.347 66.0507 42.3699 66.0667L42.8123 66.328L43.2547 66.5871C43.2695 66.5949 43.2861 66.599 43.3028 66.599C43.3196 66.599 43.3361 66.5949 43.351 66.5871Z" fill="#5E7387"/>
<path fill-rule="evenodd" clip-rule="evenodd" d="M42.2595 65.9912L43.0618 65.5328C43.0618 65.5328 43.0618 65.5328 43.0618 65.519L42.8784 65.4136C42.8756 65.412 42.8724 65.4111 42.8692 65.4111C42.866 65.4111 42.8628 65.412 42.8601 65.4136L42.0578 65.872C42.0578 65.872 42.0578 65.872 42.0578 65.8835L42.2434 65.9912H42.2595Z" fill="#5E7387"/>
<path fill-rule="evenodd" clip-rule="evenodd" d="M43.1422 65.4799L43.9421 65.0214C43.9421 65.0214 43.9421 65.0214 43.9421 65.01L43.7565 64.9022C43.7565 64.9022 43.7427 64.9022 43.7381 64.9022L42.9381 65.3607C42.9381 65.3607 42.9381 65.3607 42.9381 65.3721L43.1215 65.4799C43.1244 65.4823 43.1281 65.4836 43.1318 65.4836C43.1356 65.4836 43.1393 65.4823 43.1422 65.4799Z" fill="#5E7387"/>
<path d="M48.1416 65.7526H49.6384V66.0208H48.1416V65.7526Z" fill="#8599AD"/>
<path fill-rule="evenodd" clip-rule="evenodd" d="M45.6316 63.5935L44.0385 69.253L49.6384 66.021L51.2292 60.3615L45.6316 63.5935Z" fill="#E4EDF7"/>
<path fill-rule="evenodd" clip-rule="evenodd" d="M44.3071 69.4455L45.6641 68.6638L45.3959 68.469L44.0389 69.2529L44.3071 69.4455Z" fill="#E4EDF7"/>
<path fill-rule="evenodd" clip-rule="evenodd" d="M45.8976 63.7861L44.3068 69.4456L49.9067 66.2136L51.4976 60.5541L45.8976 63.7861Z" fill="#D6E3F0"/>
<path fill-rule="evenodd" clip-rule="evenodd" d="M51.2294 60.3615L51.4976 60.554L45.8976 63.7883L45.6317 63.5935L51.2294 60.3615Z" fill="white"/>
<path fill-rule="evenodd" clip-rule="evenodd" d="M39.9033 57.808C41.1618 58.0716 41.0632 59.8572 40.7606 61.0882C40.4787 62.2343 40.073 64.742 39.1561 64.6343C38.1269 64.5128 38.6518 61.7483 38.6587 60.467C38.6655 59.1856 38.8397 57.5833 39.9033 57.808Z" fill="#9230C7"/>
<path fill-rule="evenodd" clip-rule="evenodd" d="M43.9422 65.8605C42.5222 65.6727 41.1215 65.3598 39.7566 64.9253L40.3984 63.4766C41.7027 64.0015 43.0506 64.8519 44.1187 65.0972C44.1342 65.3633 44.073 65.6282 43.9422 65.8605Z" fill="#FAC9C5"/>
<path fill-rule="evenodd" clip-rule="evenodd" d="M39.1401 64.6341C40.0433 64.9826 40.1602 65.2508 41.2215 65.5235C41.1756 65.0788 41.3246 64.3774 41.6982 64.0221C40.8776 63.6164 40.3481 63.0204 39.406 62.8577C38.4639 62.6949 38.1567 64.2582 39.1401 64.6341Z" fill="#9230C7"/>
<path fill-rule="evenodd" clip-rule="evenodd" d="M45.0125 66.5114C46.3443 66.924 46.3512 66.5252 45.4985 66.1997C46.5804 66.3968 46.6606 66.0163 45.6796 65.6358C46.7661 65.8306 47.2383 65.2278 45.0286 65.01C42.4223 64.7556 43.2406 65.9613 45.0125 66.5114Z" fill="#FAC9C5"/>
<path fill-rule="evenodd" clip-rule="evenodd" d="M44.3618 65.1477C44.4145 65.2485 44.685 65.2508 44.9601 65.1477C45.2351 65.0445 45.6913 64.7282 45.6477 64.6273C45.6042 64.5265 45.0517 64.6801 44.7744 64.7786C44.497 64.8772 44.3068 65.0583 44.3618 65.1477Z" fill="#FAC9C5"/>
<path fill-rule="evenodd" clip-rule="evenodd" d="M54.154 56.1621C54.6124 55.6188 54.2204 55.5867 53.9247 55.7861C54.3832 55.1443 54.076 54.899 53.5144 55.3575C54.2021 54.4956 53.9018 53.7919 52.6548 55.6303C51.1855 57.7987 52.9597 57.5832 54.154 56.1621Z" fill="#FAC9C5"/>
<path fill-rule="evenodd" clip-rule="evenodd" d="M52.4077 56.3478C52.52 56.334 52.6209 56.0865 52.6369 55.7908C52.653 55.4951 52.5131 54.9587 52.4077 54.9724C52.3023 54.9862 52.2404 55.5455 52.2312 55.8389C52.222 56.1323 52.2931 56.3478 52.4077 56.3478Z" fill="#FAC9C5"/>
<path fill-rule="evenodd" clip-rule="evenodd" d="M53.8423 55.8594C53.5856 56.2193 53.1363 55.8136 53.4228 55.4606C52.9781 55.66 53.3838 56.4898 53.8423 55.8594Z" fill="#EBBDB9"/>
<path fill-rule="evenodd" clip-rule="evenodd" d="M54.0903 56.2286C53.8336 56.5884 53.4691 56.3088 53.758 55.9535C53.3133 56.1621 53.6433 56.8566 54.0903 56.2286Z" fill="#EBBDB9"/>
<path fill-rule="evenodd" clip-rule="evenodd" d="M41.0769 54.0693C40.9073 54.1197 40.8477 54.4017 40.9302 54.6997C41.0128 54.9976 41.2259 55.2017 41.3887 55.1581C41.5514 55.1145 41.6179 54.8257 41.5331 54.5277C41.4483 54.2297 41.2351 54.0212 41.0769 54.0693Z" fill="#FAC9C5"/>
<path fill-rule="evenodd" clip-rule="evenodd" d="M57.6818 55.4653C58.6927 55.2063 60.2033 55.0068 61.8491 54.2802L61.0743 52.788C59.8274 53.4321 58.475 54.3719 57.4366 54.7226C57.4469 54.9883 57.5319 55.2457 57.6818 55.4653Z" fill="#FFE3D3"/>
<path fill-rule="evenodd" clip-rule="evenodd" d="M60.2812 54.9128C60.3087 54.4658 60.1299 53.7667 59.7448 53.4366C60.5035 53.0194 60.8909 52.5426 61.684 52.3501C62.2319 52.5128 62.8301 53.2097 62.7339 53.6704C62.1631 54.3237 60.758 54.7707 60.2812 54.9128Z" fill="white"/>
<path fill-rule="evenodd" clip-rule="evenodd" d="M61.0145 47.972C59.8202 48.4419 60.2145 50.1817 60.7188 51.3416C61.1772 52.4167 61.2918 54.1977 62.1721 53.941C63.1646 53.6499 62.8964 51.6488 62.6786 50.3812C62.4609 49.1136 62.0231 47.5755 61.0145 47.972Z" fill="white"/>
<path fill-rule="evenodd" clip-rule="evenodd" d="M61.0287 49.9845C61.1043 50.1473 60.9393 51.6258 61.1708 52.2263C61.4023 52.8269 61.7301 53.2441 62.5645 53.8309C63.3988 54.4177 64.3066 49.5811 61.0287 49.9845Z" fill="#D6E3F0"/>
<path fill-rule="evenodd" clip-rule="evenodd" d="M64.6895 47.5846C64.231 47.4448 61.4414 47.9651 61.0219 47.9972C61.0013 48.1829 61.2901 51.2384 62.3972 51.2957C63.5044 51.353 63.9284 48.7513 64.6895 47.5846Z" fill="#EBBDB9"/>
<path fill-rule="evenodd" clip-rule="evenodd" d="M62.8715 71.4536C62.5414 71.5774 62.0875 71.825 62.0394 72.1963C61.9913 72.5677 62.4795 72.9321 63.4147 72.8152C63.9695 72.7442 65.3471 72.2055 65.629 71.7356C65.911 71.2657 65.4525 70.6307 64.9414 70.5046C64.4302 70.3786 63.66 71.174 62.8715 71.4536Z" fill="white"/>
<path fill-rule="evenodd" clip-rule="evenodd" d="M62.8714 71.4534C62.5803 71.5634 62.1837 71.7697 62.0714 72.0746C62.1631 72.3795 62.633 72.6316 63.4261 72.533C63.9831 72.462 65.3585 71.9233 65.6404 71.4534C65.6675 71.408 65.689 71.3595 65.7046 71.309C65.6615 71.1181 65.5673 70.9426 65.432 70.8013C65.2967 70.6599 65.1255 70.5581 64.9367 70.5067C64.4232 70.3783 63.6599 71.1737 62.8714 71.4534Z" fill="#071317"/>
<path d="M63.2405 71.2931C63.7025 71.2383 64.1705 71.3179 64.5884 71.5223" stroke="white" stroke-width="0.130657" stroke-miterlimit="22.93" stroke-linecap="round"/>
<path d="M63.2404 71.2932C63.394 71.2817 63.7379 71.7264 63.8364 71.9671" stroke="white" stroke-width="0.130657" stroke-miterlimit="22.93" stroke-linecap="round"/>
<path d="M63.6667 71.0409C63.9208 71.2016 64.1124 71.4442 64.21 71.7286" stroke="white" stroke-width="0.130657" stroke-miterlimit="22.93" stroke-linecap="round"/>
<path d="M62.8715 71.4535C63.3306 71.4379 63.7864 71.5355 64.1987 71.7378" stroke="white" stroke-width="0.130657" stroke-miterlimit="22.93" stroke-linecap="round"/>
<path fill-rule="evenodd" clip-rule="evenodd" d="M62.5528 71.5935C62.339 71.6932 62.1659 71.8631 62.0622 72.0749C62.1424 72.4577 62.6078 72.7304 63.4169 72.5333H63.4421C63.2386 72.1436 62.9306 71.8182 62.5528 71.5935Z" fill="white"/>
<path fill-rule="evenodd" clip-rule="evenodd" d="M66.8346 53.5282C66.9171 56.5631 65.6174 62.6971 65.7618 64.5905C65.9063 66.4839 65.8214 70.2546 65.7389 70.7291C65.4043 71.4168 64.2169 70.9996 63.8226 70.8414C64.0106 69.4065 63.2106 59.6095 63.2289 57.2989C63.2816 55.3253 63.5063 53.1041 64.0564 53.0996C64.7487 53.095 66.4885 53.1087 66.8346 53.5282Z" fill="#FFCB65"/>
<path fill-rule="evenodd" clip-rule="evenodd" d="M66.4499 69.5349C65.9249 67.7424 64.6528 61.6084 65.4367 58.1036C65.5742 57.4984 65.8585 57.1225 66.1106 58.5276C66.5507 60.9322 67.0458 65.5167 66.4499 69.5349Z" fill="#F0A716"/>
<path fill-rule="evenodd" clip-rule="evenodd" d="M65.567 72.414C65.2369 72.5378 64.783 72.7853 64.7372 73.1567C64.6913 73.528 65.175 73.8948 66.1125 73.7756C66.6672 73.7045 68.0449 73.1681 68.3268 72.6959C68.6087 72.2237 68.1503 71.5934 67.6391 71.465C67.128 71.3366 66.3555 72.1366 65.567 72.414Z" fill="white"/>
<path fill-rule="evenodd" clip-rule="evenodd" d="M65.5669 72.4142C65.2758 72.5242 64.8793 72.7305 64.767 73.0354C64.8609 73.3402 65.3309 73.5924 66.1217 73.4938C66.6787 73.4228 68.054 72.8864 68.336 72.4142C68.3643 72.3703 68.386 72.3224 68.4001 72.2721C68.3577 72.0807 68.2637 71.9046 68.1283 71.7627C67.993 71.6209 67.8214 71.5188 67.6323 71.4675C67.1188 71.3391 66.3555 72.1368 65.5669 72.4142Z" fill="#071317"/>
<path d="M65.9293 72.2536C66.3913 72.1977 66.8595 72.2773 67.2771 72.4828" stroke="white" stroke-width="0.130657" stroke-miterlimit="22.93" stroke-linecap="round"/>
<path d="M65.9292 72.2536C66.0827 72.2422 66.4266 72.6892 66.5251 72.9275" stroke="white" stroke-width="0.130657" stroke-miterlimit="22.93" stroke-linecap="round"/>
<path d="M66.3627 72.0015C66.6166 72.1624 66.8082 72.4049 66.906 72.6891" stroke="white" stroke-width="0.130657" stroke-miterlimit="22.93" stroke-linecap="round"/>
<path d="M65.5673 72.414C66.0264 72.3983 66.4822 72.4959 66.8945 72.6982" stroke="white" stroke-width="0.130657" stroke-miterlimit="22.93" stroke-linecap="round"/>
<path fill-rule="evenodd" clip-rule="evenodd" d="M65.2576 72.5559C65.0445 72.6555 64.8716 72.8244 64.7671 73.035C64.8473 73.4201 65.3149 73.6906 66.1218 73.4934H66.147C65.944 73.1039 65.6359 72.7791 65.2576 72.5559Z" fill="white"/>
<path fill-rule="evenodd" clip-rule="evenodd" d="M68.414 54.8648C71.5177 57.9524 68.0289 62.7798 68.1848 64.6755C68.3407 66.5712 68.2948 71.0938 68.437 71.8892C68.2444 72.2926 66.9722 72.4691 66.296 71.9465C66.0668 69.6795 65.1728 57.2372 65.4112 54.5507C66.1195 54.0075 67.7928 54.1129 68.414 54.8648Z" fill="#FFCB65"/>
<path fill-rule="evenodd" clip-rule="evenodd" d="M67.763 49.0402C68.1733 50.1863 68.5102 52.6367 68.7051 54.0097C67.0042 56.1805 63.6507 56.8636 62.7453 55.855C63.6072 53.9157 62.0209 53.7094 61.402 52.3524C61.1315 51.7656 61.3516 50.8052 61.0926 50.1473C60.8771 49.5995 60.0771 48.8591 60.5722 48.2791C60.7048 48.1468 60.865 48.0455 61.0414 47.9825C61.2177 47.9194 61.4059 47.8963 61.5923 47.9147C61.4341 48.6505 61.7642 49.925 62.2318 50.388C63.0708 50.1038 63.9945 48.2906 64.524 47.564C65.8444 47.6602 67.2335 47.5777 67.763 49.0402Z" fill="white"/>
<path fill-rule="evenodd" clip-rule="evenodd" d="M62.4885 53.6336C63.1234 53.9751 65.1567 53.762 66.6672 52.2193C68.1778 50.6766 68.8586 53.4617 69.0007 54.8668C66.7979 56.6204 63.9441 56.8152 62.7567 55.8548C63.0937 54.7889 62.5917 53.9866 62.4885 53.6336Z" fill="white"/>
<path fill-rule="evenodd" clip-rule="evenodd" d="M65.4408 48.717C65.6701 51.1193 66.8689 52.4832 67.6895 53.776C67.866 54.0534 66.5434 54.9932 66.5801 56.1439C66.5984 56.7376 68.3909 54.7181 68.1846 53.8883C67.8087 52.2792 66.7222 49.1732 65.4408 48.717Z" fill="#D6E3F0"/>
<path fill-rule="evenodd" clip-rule="evenodd" d="M69.2002 51.8758C68.1572 48.7629 66.6673 47.0186 65.6656 48.1097C64.6914 49.0105 67.2037 52.552 67.7561 53.5858C68.1527 54.3308 70.7727 56.5772 69.2002 51.8758Z" fill="white"/>
<path fill-rule="evenodd" clip-rule="evenodd" d="M63.6987 47.6622C63.9806 48.5631 62.1972 49.1889 61.897 48.2284L61.1153 45.7391L62.917 45.1752L63.6987 47.6622Z" fill="#EBBDB9"/>
<path fill-rule="evenodd" clip-rule="evenodd" d="M56.6849 55.816C55.6625 56.0108 55.862 55.7266 56.5313 55.5111C55.5044 55.6509 55.4631 55.3552 56.4144 55.071C55.5731 55.1741 55.2339 54.6905 56.9416 54.6125C58.9542 54.53 58.0877 55.5478 56.6849 55.816Z" fill="#FFE3D3"/>
<path fill-rule="evenodd" clip-rule="evenodd" d="M57.3495 54.64C57.3105 54.7203 57.1042 54.7271 56.891 54.6561C56.6779 54.585 56.3203 54.3466 56.3615 54.2687C56.4028 54.1908 56.82 54.2985 57.0354 54.3696C57.2509 54.4406 57.3907 54.5621 57.3495 54.64Z" fill="#FFE3D3"/>
<path fill-rule="evenodd" clip-rule="evenodd" d="M51.8869 49.3701C50.7407 49.1891 49.5946 49.0126 48.4485 48.8361C49.1958 49.753 49.9339 50.6698 50.6857 51.5867L59.7469 56.8314L68.8104 62.0783C68.8906 62.1316 68.9805 62.1685 69.0751 62.1868C69.1696 62.2051 69.2668 62.2044 69.3611 62.1848C69.4554 62.1652 69.5448 62.127 69.6242 62.0725C69.7036 62.018 69.7714 61.9483 69.8236 61.8674C70.007 61.5373 70.1903 61.1958 70.3737 60.8588C70.4536 60.6785 70.4609 60.4744 70.3944 60.2887C70.3278 60.1031 70.1924 59.9502 70.0161 59.8617L60.9481 54.6125C57.9284 52.8658 54.908 51.1184 51.8869 49.3701Z" fill="#344247"/>
<path fill-rule="evenodd" clip-rule="evenodd" d="M51.8871 49.3701C50.741 49.1891 49.5949 49.0126 48.4488 48.8361C49.196 49.753 49.9341 50.6698 50.686 51.5867C53.539 53.2356 56.3921 54.886 59.2452 56.538C62.0982 58.1899 64.9544 59.8434 67.8135 61.4983C68.3645 60.8524 68.7772 60.1004 69.0261 59.2886C66.1685 57.6336 63.3124 55.9787 60.4578 54.3237C57.5948 52.6801 54.7432 51.016 51.8871 49.3701Z" fill="white"/>
<path fill-rule="evenodd" clip-rule="evenodd" d="M51.8872 49.3701C50.7411 49.1891 49.5949 49.0126 48.4488 48.8361C49.1961 49.753 49.9342 50.6698 50.686 51.5867C53.4016 53.1546 56.1202 54.7279 58.8418 56.3064C61.5635 57.885 64.2851 59.4598 67.0067 61.0307C67.5685 60.3926 67.9818 59.638 68.217 58.821C65.4954 57.244 62.7738 55.6692 60.0521 54.0967C57.3305 52.5243 54.6088 50.9487 51.8872 49.3701Z" fill="#344247"/>
<path fill-rule="evenodd" clip-rule="evenodd" d="M51.8872 49.3701C50.7411 49.1891 49.595 49.0126 48.4489 48.8361C49.1961 49.753 49.9342 50.6698 50.6861 51.5867C50.9609 51.2661 51.2021 50.9182 51.4058 50.5484C51.6048 50.1725 51.766 49.7778 51.8872 49.3701Z" fill="#FCDDE8"/>
<path fill-rule="evenodd" clip-rule="evenodd" d="M49.5811 49.0126C49.1983 48.9507 48.82 48.8934 48.4349 48.8361C48.6825 49.1318 48.9324 49.4366 49.173 49.7369C49.2627 49.6334 49.3397 49.5195 49.4023 49.3977C49.4745 49.2755 49.5344 49.1465 49.5811 49.0126Z" fill="#344247"/>
<path fill-rule="evenodd" clip-rule="evenodd" d="M61.9959 41.8288C62.1884 40.889 63.6852 39.8621 65.0949 40.8546C66.7752 42.0351 65.5534 45.9411 67.3872 45.5858C67.7012 47.5181 62.7798 48.3364 63.4468 44.4098C63.6577 43.1698 62.8898 42.2574 62.248 43.062C61.6062 43.8666 61.7506 43.0253 61.9959 41.8288Z" fill="#9230C7"/>
<path fill-rule="evenodd" clip-rule="evenodd" d="M61.9821 41.7439C61.5534 42.2023 61.6658 42.9977 62.2342 43.541C62.8027 44.0842 63.6096 44.1622 64.0405 43.7129C64.4714 43.2636 64.3568 42.4567 63.7884 41.9135C63.2199 41.3702 62.4107 41.2946 61.9821 41.7439Z" fill="#F2F5F7"/>
<path fill-rule="evenodd" clip-rule="evenodd" d="M60.6617 42.4911C62.4451 41.957 63.6691 42.6883 64.2605 44.0292C64.8519 45.3702 63.621 47.6463 62.4267 48.0246C61.2325 48.4028 60.3087 47.5065 59.8204 46.0808C59.3322 44.655 58.8852 43.0252 60.6617 42.4911Z" fill="#FAC9C5"/>
<path fill-rule="evenodd" clip-rule="evenodd" d="M59.4722 45.0035C60.0086 44.2861 61.6797 42.8603 62.6011 43.6282C63.0229 43.9812 62.867 44.7239 63.0137 44.9898C63.0802 45.1136 63.2155 45.3061 63.7014 45.2855C63.8504 45.2855 64.0269 45.9731 63.8046 46.7754C64.2974 46.6333 65.4596 44.8201 64.1713 42.764C63.2338 41.4872 61.4321 41.2672 60.1255 42.5348C58.8602 43.415 58.8694 44.4121 59.4722 45.0035Z" fill="#9230C7"/>
<path fill-rule="evenodd" clip-rule="evenodd" d="M59.2176 43.9239C58.7592 45.7577 62.1517 45.6454 62.9677 45.4735C63.7837 45.3016 63.6095 44.6368 63.3505 42.9406C63.0915 41.2443 59.6715 42.8718 59.2176 43.9239Z" fill="#9230C7"/>
<path fill-rule="evenodd" clip-rule="evenodd" d="M63.5909 44.7123C63.3984 44.7719 63.3136 45.0492 63.403 45.3312C63.4924 45.6131 63.7193 45.7896 63.9118 45.7323C64.1044 45.675 64.1869 45.3954 64.0975 45.1134C64.0081 44.8315 63.7812 44.6573 63.5909 44.7123Z" fill="#FAC9C5"/>
<path fill-rule="evenodd" clip-rule="evenodd" d="M59.3761 43.6556C58.7206 45.7461 61.4506 46.0739 62.379 46.0441C63.3073 46.0143 59.2317 45.3565 59.7842 43.7083C60.3366 42.0602 59.5733 43.0528 59.3761 43.6556Z" fill="#9230C7"/>
<path fill-rule="evenodd" clip-rule="evenodd" d="M65.3032 58.8485C66.1032 58.1814 67.3869 57.3494 68.5559 55.9901L67.2172 54.9746C66.3668 56.0909 65.5485 57.5213 64.7623 58.2846C64.8851 58.5203 65.0728 58.7159 65.3032 58.8485Z" fill="#FFE3D3"/>
<path fill-rule="evenodd" clip-rule="evenodd" d="M64.9525 59.5201C64.2098 60.2491 64.2167 59.9029 64.6568 59.3528C63.8774 60.0405 63.6803 59.8112 64.3153 59.0479C63.6711 59.6026 63.121 59.3895 64.5009 58.3809C66.1261 57.1912 65.9703 58.5184 64.9525 59.5201Z" fill="#FFE3D3"/>
<path fill-rule="evenodd" clip-rule="evenodd" d="M65.0122 58.2619C65.0122 58.3513 64.8265 58.4453 64.6019 58.4728C64.3773 58.5003 63.9532 58.4407 63.9555 58.3513C63.9578 58.2619 64.3864 58.1816 64.6157 58.1518C64.8449 58.122 65.0122 58.1816 65.0122 58.2619Z" fill="#FFE3D3"/>
<path fill-rule="evenodd" clip-rule="evenodd" d="M68.0242 56.5953C67.8753 56.1712 67.2472 55.605 66.7612 55.4491C67.2976 54.7615 67.5773 54.0578 68.3199 53.6956C68.9388 53.3953 69.6953 53.7346 69.6953 54.2068C69.7022 55.2635 68.407 56.2766 68.0242 56.5953Z" fill="white"/>
<path fill-rule="evenodd" clip-rule="evenodd" d="M51.0002 35.3624C50.7182 35.3794 50.451 35.4942 50.2447 35.6871C50.0384 35.8801 49.9059 36.139 49.8701 36.4191C49.8422 36.545 49.8426 36.6755 49.8714 36.8011C49.9002 36.9268 49.9565 37.0444 50.0364 37.1456C50.1163 37.2468 50.2177 37.3289 50.3332 37.386C50.4488 37.4431 50.5756 37.4738 50.7045 37.4759C50.9867 37.459 51.2542 37.3442 51.4609 37.1514C51.6676 36.9585 51.8005 36.6995 51.8368 36.4191C51.8648 36.2931 51.8643 36.1624 51.8354 36.0366C51.8065 35.9108 51.7499 35.793 51.6698 35.6918C51.5896 35.5906 51.488 35.5085 51.3721 35.4516C51.2563 35.3946 51.1292 35.3641 51.0002 35.3624Z" stroke="#657A82" stroke-width="0.440108" stroke-linecap="round" stroke-linejoin="round"/>
<path fill-rule="evenodd" clip-rule="evenodd" d="M51.839 35.8047C51.5569 35.822 51.2897 35.9369 51.0831 36.1297C50.8765 36.3225 50.7434 36.5812 50.7067 36.8614C50.6791 36.9873 50.6799 37.1177 50.709 37.2432C50.7381 37.3687 50.7947 37.4862 50.8748 37.5872C50.9549 37.6881 51.0564 37.7699 51.172 37.8268C51.2877 37.8836 51.4145 37.9141 51.5433 37.9158C51.825 37.8986 52.092 37.7841 52.2986 37.5917C52.5052 37.3994 52.6385 37.1412 52.6757 36.8614C52.7559 36.2769 52.3823 35.8047 51.839 35.8047Z" stroke="#657A82" stroke-width="0.440108" stroke-linecap="round" stroke-linejoin="round"/>
<path fill-rule="evenodd" clip-rule="evenodd" d="M52.7262 36.3182C52.4439 36.3347 52.1761 36.4493 51.9694 36.6423C51.7626 36.8352 51.6297 37.0944 51.5939 37.375C51.5659 37.501 51.5664 37.6317 51.5953 37.7575C51.6242 37.8833 51.6808 38.0011 51.7609 38.1023C51.841 38.2035 51.9427 38.2856 52.0586 38.3425C52.1744 38.3995 52.3015 38.43 52.4305 38.4317C52.7123 38.4143 52.9793 38.2993 53.1855 38.1065C53.3918 37.9136 53.5244 37.655 53.5606 37.375C53.6431 36.7904 53.2695 36.3182 52.7262 36.3182Z" stroke="#657A82" stroke-width="0.440108" stroke-linecap="round" stroke-linejoin="round"/>
<path fill-rule="evenodd" clip-rule="evenodd" d="M54.3924 37.3452C54.1107 37.3624 53.8437 37.477 53.6372 37.6693C53.4306 37.8617 53.2973 38.1199 53.2601 38.3996C53.2321 38.5257 53.2326 38.6563 53.2615 38.7821C53.2904 38.908 53.347 39.0257 53.4271 39.127C53.5073 39.2282 53.6089 39.3102 53.7248 39.3672C53.8406 39.4242 53.9677 39.4547 54.0968 39.4564C54.3768 39.4365 54.6414 39.3205 54.8456 39.1279C55.0499 38.9353 55.1813 38.678 55.2177 38.3996C55.245 38.2747 55.2445 38.1453 55.2161 38.0206C55.1876 37.8958 55.132 37.779 55.0532 37.6782C54.9744 37.5775 54.8743 37.4954 54.76 37.4379C54.6458 37.3803 54.5203 37.3487 54.3924 37.3452Z" stroke="#657A82" stroke-width="0.440108" stroke-linecap="round" stroke-linejoin="round"/>
<path fill-rule="evenodd" clip-rule="evenodd" d="M55.3735 37.9594C55.0916 37.9771 54.8246 38.0921 54.618 38.2849C54.4115 38.4776 54.2783 38.736 54.2412 39.0161C54.2136 39.1421 54.2145 39.2726 54.2435 39.3982C54.2726 39.5238 54.3292 39.6415 54.4092 39.7426C54.4893 39.8437 54.5908 39.9257 54.7064 39.9828C54.822 40.0399 54.9489 40.0707 55.0778 40.0728C55.3597 40.0551 55.6268 39.94 55.8333 39.7473C56.0398 39.5546 56.173 39.2961 56.2102 39.0161C56.2377 38.8901 56.2369 38.7596 56.2078 38.6339C56.1787 38.5083 56.1221 38.3907 56.0421 38.2896C55.962 38.1885 55.8605 38.1064 55.7449 38.0493C55.6293 37.9922 55.5024 37.9615 55.3735 37.9594Z" stroke="#657A82" stroke-width="0.440108" stroke-linecap="round" stroke-linejoin="round"/>
<path fill-rule="evenodd" clip-rule="evenodd" d="M53.6133 36.9303C53.3289 36.9449 53.0586 37.0586 52.8493 37.2516C52.64 37.4446 52.5048 37.7048 52.4672 37.987C52.3869 38.5715 52.7606 39.0437 53.3038 39.0437C53.5859 39.0264 53.8532 38.9115 54.0598 38.7187C54.2664 38.5259 54.3995 38.2672 54.4362 37.987C54.4635 37.8621 54.463 37.7328 54.4347 37.6081C54.4064 37.4835 54.351 37.3666 54.2725 37.2657C54.194 37.1649 54.0942 37.0825 53.9803 37.0246C53.8663 36.9666 53.741 36.9344 53.6133 36.9303Z" stroke="#657A82" stroke-width="0.440108" stroke-linecap="round" stroke-linejoin="round"/>
<path fill-rule="evenodd" clip-rule="evenodd" d="M56.1716 38.4017C55.8896 38.4195 55.6226 38.5345 55.4161 38.7272C55.2095 38.92 55.0763 39.1784 55.0392 39.4585C54.959 40.043 55.3326 40.5152 55.8759 40.5152C56.1579 40.4979 56.4252 40.383 56.6318 40.1902C56.8384 39.9973 56.9715 39.7387 57.0082 39.4585C57.0362 39.3324 57.0357 39.2018 57.0068 39.0759C56.9779 38.9501 56.9213 38.8323 56.8412 38.7311C56.761 38.6299 56.6594 38.5479 56.5435 38.4909C56.4277 38.4339 56.3006 38.4034 56.1716 38.4017Z" stroke="#657A82" stroke-width="0.440108" stroke-linecap="round" stroke-linejoin="round"/>
<path fill-rule="evenodd" clip-rule="evenodd" d="M57.0652 38.9817C56.783 38.9986 56.5155 39.1133 56.3088 39.3062C56.1021 39.4991 55.9691 39.758 55.9328 40.0384C55.9049 40.1644 55.9054 40.2951 55.9343 40.4209C55.9632 40.5467 56.0197 40.6645 56.0999 40.7657C56.18 40.8669 56.2817 40.949 56.3975 41.006C56.5133 41.063 56.6404 41.0934 56.7695 41.0951C57.0514 41.0782 57.3186 40.9633 57.525 40.7704C57.7313 40.5775 57.8638 40.3186 57.8996 40.0384C57.9275 39.9126 57.927 39.7821 57.8983 39.6564C57.8695 39.5308 57.8131 39.4131 57.7332 39.312C57.6534 39.2108 57.552 39.1287 57.4364 39.0716C57.3209 39.0144 57.1941 38.9837 57.0652 38.9817Z" stroke="#657A82" stroke-width="0.440108" stroke-linecap="round" stroke-linejoin="round"/>
<path fill-rule="evenodd" clip-rule="evenodd" d="M48.7261 37.1871L52.6962 39.5917L56.2698 41.751C56.4051 41.8312 57.7208 41.618 57.8538 41.6982L50.6195 45.5744L43.3875 49.4368L39.4013 47.0277L35.4289 44.6254L42.6723 40.7607C45.0837 39.4725 46.3124 38.4685 48.7261 37.1894V37.1871ZM49.0287 38.0857C48.9531 38.0483 48.87 38.0289 48.7857 38.0289C48.7014 38.0289 48.6183 38.0483 48.5427 38.0857C48.4029 38.1613 48.3937 38.2828 48.5221 38.3608C48.5968 38.3981 48.6792 38.4175 48.7628 38.4175C48.8463 38.4175 48.9287 38.3981 49.0035 38.3608C49.1433 38.2874 49.157 38.1636 49.0287 38.088V38.0857ZM49.8997 38.6106C49.8243 38.5727 49.7411 38.553 49.6567 38.553C49.5724 38.553 49.4892 38.5727 49.4138 38.6106C49.2739 38.684 49.2648 38.8054 49.3931 38.8834C49.4679 38.9207 49.5503 38.9401 49.6338 38.9401C49.7174 38.9401 49.7998 38.9207 49.8745 38.8834C50.0143 38.8077 50.0281 38.6863 49.8997 38.6083V38.6106ZM50.7685 39.1378C50.6933 39.1005 50.6106 39.081 50.5266 39.081C50.4427 39.081 50.36 39.1005 50.2848 39.1378C50.145 39.2135 50.1358 39.335 50.2642 39.4129C50.3388 39.4507 50.4212 39.4705 50.5049 39.4705C50.5885 39.4705 50.671 39.4507 50.7456 39.4129C50.8854 39.3395 50.8968 39.2158 50.7685 39.1378ZM51.6395 39.665C51.5645 39.6272 51.4817 39.6074 51.3977 39.6074C51.3137 39.6074 51.2308 39.6272 51.1559 39.665C51.016 39.7384 51.0069 39.8622 51.1329 39.9378C51.2081 39.9752 51.2909 39.9946 51.3748 39.9946C51.4587 39.9946 51.5415 39.9752 51.6166 39.9378C51.7564 39.8622 51.7679 39.7384 51.6395 39.6627V39.665ZM52.5129 40.1922C52.4373 40.1549 52.3542 40.1354 52.2699 40.1354C52.1856 40.1354 52.1024 40.1549 52.0269 40.1922C51.8871 40.2679 51.8802 40.3894 52.0063 40.4673C52.081 40.5046 52.1634 40.5241 52.247 40.5241C52.3305 40.5241 52.4129 40.5046 52.4876 40.4673C52.6275 40.394 52.6412 40.2702 52.5129 40.1945V40.1922ZM53.3839 40.7172C53.3084 40.6798 53.2252 40.6603 53.1409 40.6603C53.0566 40.6603 52.9735 40.6798 52.898 40.7172C52.7581 40.7905 52.7513 40.9143 52.8773 40.9899C52.9519 41.0278 53.0344 41.0475 53.118 41.0475C53.2016 41.0475 53.2841 41.0278 53.3587 40.9899C53.4985 40.9166 53.5123 40.7928 53.3839 40.7149V40.7172ZM54.255 41.2444C54.1794 41.207 54.0963 41.1876 54.012 41.1876C53.9277 41.1876 53.8445 41.207 53.769 41.2444C53.6292 41.32 53.6223 41.4415 53.7484 41.5195C53.8231 41.5568 53.9055 41.5762 53.9891 41.5762C54.0726 41.5762 54.155 41.5568 54.2297 41.5195C54.3696 41.4461 54.381 41.32 54.255 41.2444ZM55.126 41.7693C55.0505 41.7319 54.9673 41.7125 54.883 41.7125C54.7987 41.7125 54.7156 41.7319 54.6401 41.7693C54.5002 41.8427 54.4933 41.9664 54.6194 42.0421C54.6942 42.0794 54.7766 42.0988 54.8601 42.0988C54.9437 42.0988 55.026 42.0794 55.1008 42.0421C55.2314 41.971 55.2429 41.8472 55.1168 41.7693H55.126Z" fill="#D6E3F0"/>
<path fill-rule="evenodd" clip-rule="evenodd" d="M35.4405 43.6418L57.8562 40.7146V41.698L35.4405 44.6251V43.6418Z" fill="#D6E3F0"/>
<path fill-rule="evenodd" clip-rule="evenodd" d="M49.0744 37.1892L52.3133 39.1559L55.5522 41.1112L55.3666 41.2121L52.1277 39.2545L48.8864 37.2969L49.0744 37.1892Z" fill="white"/>
<path fill-rule="evenodd" clip-rule="evenodd" d="M48.286 37.611L51.5249 39.5685L54.7593 41.5261C54.6997 41.5605 54.6355 41.5949 54.5736 41.6247L51.3347 39.6694L48.0958 37.7095L48.286 37.611Z" fill="white"/>
<path fill-rule="evenodd" clip-rule="evenodd" d="M47.502 38.033L50.7386 39.9905L53.9775 41.9481C53.9156 41.9802 53.8538 42.0146 53.7919 42.0444L50.5529 40.0891L47.3163 38.1315L47.502 38.033Z" fill="white"/>
<path fill-rule="evenodd" clip-rule="evenodd" d="M46.7154 38.4523L49.9451 40.4098L53.1909 42.3651L53.0052 42.466L49.7663 40.5061L46.5274 38.5508L46.7154 38.4523Z" fill="white"/>
<path fill-rule="evenodd" clip-rule="evenodd" d="M45.927 38.8717L49.1637 40.8293L52.4026 42.7868L52.2169 42.8877L48.978 40.9301L45.7414 38.9726L45.927 38.8717Z" fill="white"/>
<path fill-rule="evenodd" clip-rule="evenodd" d="M45.1319 39.2936L48.3685 41.2511L51.6074 43.2087L51.4218 43.3073L48.1828 41.352L44.9554 39.3853L45.1319 39.2936Z" fill="white"/>
<path fill-rule="evenodd" clip-rule="evenodd" d="M44.3548 39.713L47.5937 41.6775L50.8303 43.635L50.6424 43.7336L47.4057 41.7783L44.1668 39.8185L44.3548 39.713Z" fill="white"/>
<path fill-rule="evenodd" clip-rule="evenodd" d="M43.5661 40.1324L46.8073 42.0923L50.0439 44.0499L49.856 44.1484L46.6194 42.1909L43.3804 40.2333L43.5661 40.1324Z" fill="white"/>
<path fill-rule="evenodd" clip-rule="evenodd" d="M42.78 40.5544L46.0189 42.512L49.2578 44.4696L49.0721 44.5681L45.8355 42.6129L42.5966 40.653L42.78 40.5544Z" fill="white"/>
<path fill-rule="evenodd" clip-rule="evenodd" d="M41.9937 40.9738L45.2326 42.9313L48.4692 44.8866L48.2813 44.9852L45.0446 43.0299L41.8057 41.07L41.9937 40.9738Z" fill="white"/>
<path fill-rule="evenodd" clip-rule="evenodd" d="M41.2076 41.3954L44.4442 43.3529L47.6831 45.3105L47.4928 45.4091L44.2562 43.4515L41.0173 41.494L41.2076 41.3954Z" fill="white"/>
<path fill-rule="evenodd" clip-rule="evenodd" d="M40.4189 41.8151L43.6578 43.7749L46.8967 45.7302L46.7111 45.8311L43.4721 43.8735L40.2332 41.9068L40.4189 41.8151Z" fill="white"/>
<path fill-rule="evenodd" clip-rule="evenodd" d="M39.6305 42.2345L42.8717 44.1989L46.1106 46.1542L45.9226 46.2551L42.6837 44.2975L39.4471 42.3399L39.6305 42.2345Z" fill="white"/>
<path fill-rule="evenodd" clip-rule="evenodd" d="M38.8488 42.6562L42.0854 44.6138L45.322 46.5691C45.2601 46.6058 45.1959 46.6379 45.1341 46.67L41.8974 44.7147L38.6608 42.7548L38.8488 42.6562Z" fill="white"/>
<path fill-rule="evenodd" clip-rule="evenodd" d="M38.0603 43.0779L41.297 45.0354L44.5359 46.993L44.3479 47.0893L41.1113 45.134L37.8747 43.1765L38.0603 43.0779Z" fill="white"/>
<path fill-rule="evenodd" clip-rule="evenodd" d="M37.2739 43.4976L40.5105 45.4551L43.7563 47.4081L43.5707 47.5067L40.318 45.5537L37.0814 43.5984C37.1478 43.564 37.2097 43.5296 37.2739 43.4976Z" fill="white"/>
<path fill-rule="evenodd" clip-rule="evenodd" d="M49.9067 35.9078L53.8815 38.3124L57.8562 40.7146L50.6196 44.5816L43.3876 48.444L39.4014 46.0441L35.429 43.6395L42.6725 39.7748L49.9067 35.9078ZM50.2001 36.8064C50.1246 36.769 50.0415 36.7496 49.9572 36.7496C49.8729 36.7496 49.7897 36.769 49.7142 36.8064C49.5744 36.882 49.5652 37.0035 49.6936 37.0815C49.7683 37.1188 49.8507 37.1382 49.9342 37.1382C50.0178 37.1382 50.1002 37.1188 50.1749 37.0815C50.3148 37.0081 50.3285 36.8843 50.2001 36.8087V36.8064ZM51.0712 37.3313C50.9957 37.2939 50.9125 37.2745 50.8282 37.2745C50.7439 37.2745 50.6608 37.2939 50.5852 37.3313C50.4454 37.4047 50.4362 37.5284 50.5646 37.6041C50.6392 37.6419 50.7217 37.6617 50.8053 37.6617C50.8889 37.6617 50.9714 37.6419 51.046 37.6041C51.1858 37.5307 51.1996 37.407 51.0712 37.329V37.3313ZM51.9422 37.8585C51.8667 37.8211 51.7836 37.8017 51.6993 37.8017C51.615 37.8017 51.5318 37.8211 51.4563 37.8585C51.3165 37.9342 51.3096 38.0557 51.4357 38.1336C51.5106 38.1715 51.5935 38.1912 51.6775 38.1912C51.7615 38.1912 51.8443 38.1715 51.9193 38.1336C52.0591 38.0602 52.0683 37.9365 51.9422 37.8585ZM52.8133 38.3857C52.7383 38.3479 52.6555 38.3281 52.5715 38.3281C52.4875 38.3281 52.4046 38.3479 52.3296 38.3857C52.1898 38.4614 52.1783 38.5829 52.3067 38.6608C52.382 38.6977 52.4647 38.7168 52.5485 38.7168C52.6324 38.7168 52.7151 38.6977 52.7904 38.6608C52.9302 38.5852 52.9394 38.4614 52.8133 38.3857ZM53.6866 38.913C53.6111 38.8756 53.5279 38.8561 53.4437 38.8561C53.3594 38.8561 53.2762 38.8756 53.2007 38.913C53.0609 38.9886 53.0517 39.1101 53.1801 39.188C53.2548 39.2253 53.3372 39.2448 53.4207 39.2448C53.5043 39.2448 53.5867 39.2253 53.6614 39.188C53.8012 39.1147 53.8127 38.9909 53.6866 38.9152V38.913ZM54.5577 39.4379C54.4821 39.4005 54.399 39.381 54.3147 39.381C54.2304 39.381 54.1473 39.4005 54.0717 39.4379C53.9319 39.5112 53.9227 39.635 54.0511 39.7106C54.1258 39.748 54.2082 39.7674 54.2918 39.7674C54.3753 39.7674 54.4577 39.748 54.5325 39.7106C54.6723 39.635 54.6838 39.5112 54.5577 39.4333V39.4379ZM55.4287 39.9651C55.3532 39.9277 55.27 39.9083 55.1858 39.9083C55.1015 39.9083 55.0183 39.9277 54.9428 39.9651C54.803 40.0407 54.7938 40.1622 54.9221 40.2402C54.9969 40.2775 55.0793 40.2969 55.1628 40.2969C55.2464 40.2969 55.3288 40.2775 55.4035 40.2402C55.5433 40.1668 55.5548 40.043 55.4287 39.9651ZM56.2975 40.4923C56.2225 40.4544 56.1397 40.4347 56.0557 40.4347C55.9716 40.4347 55.8888 40.4544 55.8138 40.4923C55.674 40.5657 55.6648 40.6894 55.7909 40.7674C55.8658 40.8042 55.9481 40.8233 56.0316 40.8233C56.115 40.8233 56.1974 40.8042 56.2723 40.7674C56.4121 40.6917 56.4259 40.5679 56.2975 40.4923Z" fill="white"/>
<path fill-rule="evenodd" clip-rule="evenodd" d="M49.8858 36.1394C51.1434 36.9035 52.4034 37.6675 53.6657 38.4316L57.4456 40.7238C55.1075 41.9723 52.7671 43.2231 50.4244 44.4762L43.4011 48.2286L39.6235 45.9364L35.8436 43.6441L42.8647 39.8895L49.8858 36.1371V36.1394ZM50.1998 36.8064C50.1243 36.769 50.0411 36.7496 49.9568 36.7496C49.8726 36.7496 49.7894 36.769 49.7139 36.8064C49.574 36.8821 49.5649 37.0035 49.6932 37.0815C49.768 37.1188 49.8504 37.1382 49.9339 37.1382C50.0175 37.1382 50.0999 37.1188 50.1746 37.0815C50.3144 37.0081 50.3282 36.8844 50.1998 36.8087V36.8064ZM51.0709 37.3313C50.9953 37.294 50.9122 37.2745 50.8279 37.2745C50.7436 37.2745 50.6604 37.294 50.5849 37.3313C50.4451 37.4047 50.4359 37.5285 50.5643 37.6041C50.6389 37.642 50.7213 37.6617 50.805 37.6617C50.8886 37.6617 50.9711 37.642 51.0456 37.6041C51.1855 37.5308 51.1992 37.407 51.0709 37.329V37.3313ZM51.9419 37.8585C51.8664 37.8212 51.7832 37.8017 51.6989 37.8017C51.6146 37.8017 51.5315 37.8212 51.456 37.8585C51.3161 37.9342 51.3093 38.0557 51.4353 38.1336C51.5103 38.1715 51.5931 38.1912 51.6772 38.1912C51.7612 38.1912 51.844 38.1715 51.919 38.1336C52.0588 38.0603 52.068 37.9365 51.9419 37.8585ZM52.813 38.3858C52.738 38.3479 52.6551 38.3282 52.5711 38.3282C52.4871 38.3282 52.4043 38.3479 52.3293 38.3858C52.1895 38.4614 52.178 38.5829 52.3064 38.6608C52.3817 38.6977 52.4644 38.7168 52.5482 38.7168C52.632 38.7168 52.7147 38.6977 52.79 38.6608C52.9299 38.5852 52.939 38.4614 52.813 38.3858ZM53.6863 38.913C53.6108 38.8756 53.5276 38.8561 53.4433 38.8561C53.359 38.8561 53.2759 38.8756 53.2003 38.913C53.0605 38.9886 53.0513 39.1101 53.1797 39.188C53.2545 39.2254 53.3369 39.2448 53.4204 39.2448C53.5039 39.2448 53.5863 39.2254 53.6611 39.188C53.8009 39.1147 53.8124 38.9909 53.6863 38.9153V38.913ZM54.5573 39.4379C54.4818 39.4005 54.3987 39.3811 54.3144 39.3811C54.2301 39.3811 54.1469 39.4005 54.0714 39.4379C53.9316 39.5112 53.9224 39.635 54.0508 39.7107C54.1255 39.748 54.2079 39.7674 54.2914 39.7674C54.375 39.7674 54.4574 39.748 54.5321 39.7107C54.672 39.635 54.6834 39.5113 54.5573 39.4333V39.4379ZM55.4284 39.9651C55.3528 39.9277 55.2697 39.9083 55.1854 39.9083C55.1011 39.9083 55.018 39.9277 54.9424 39.9651C54.8026 40.0408 54.7934 40.1622 54.9218 40.2402C54.9966 40.2775 55.0789 40.2969 55.1625 40.2969C55.246 40.2969 55.3284 40.2775 55.4032 40.2402C55.543 40.1668 55.5545 40.043 55.4284 39.9651ZM56.2971 40.4923C56.2222 40.4544 56.1393 40.4347 56.0553 40.4347C55.9713 40.4347 55.8885 40.4544 55.8135 40.4923C55.6737 40.5657 55.6645 40.6895 55.7906 40.7674C55.8655 40.8042 55.9478 40.8234 56.0312 40.8234C56.1147 40.8234 56.197 40.8042 56.2719 40.7674C56.4118 40.6917 56.4255 40.568 56.2971 40.4923Z" fill="white"/>
<path fill-rule="evenodd" clip-rule="evenodd" d="M35.4405 43.642V44.6253L43.3877 49.4299V48.4442L35.4405 43.642Z" fill="#C1D2E3"/>
<path d="M51.8368 36.4191C51.8648 36.2931 51.8643 36.1624 51.8354 36.0366C51.8065 35.9108 51.7499 35.793 51.6698 35.6918C51.5896 35.5906 51.488 35.5085 51.3721 35.4516C51.2563 35.3946 51.1292 35.3641 51.0002 35.3624C50.7182 35.3794 50.451 35.4942 50.2447 35.6871C50.0384 35.8801 49.9059 36.139 49.8701 36.4191C49.8448 36.5829 49.8589 36.7502 49.9114 36.9074" stroke="#657A82" stroke-width="0.440108" stroke-linecap="round" stroke-linejoin="round"/>
<path d="M52.6757 36.8638C52.7559 36.2793 52.3823 35.8071 51.839 35.8071C51.5569 35.8244 51.2897 35.9393 51.0831 36.1321C50.8765 36.3249 50.7434 36.5836 50.7067 36.8638C50.6822 37.0277 50.6971 37.1951 50.7502 37.3521" stroke="#657A82" stroke-width="0.440108" stroke-linecap="round" stroke-linejoin="round"/>
<path d="M53.5606 37.375C53.6431 36.7904 53.2695 36.3182 52.7262 36.3182C52.4439 36.3347 52.1761 36.4493 51.9694 36.6423C51.7626 36.8352 51.6297 37.0944 51.5939 37.375C51.5693 37.5389 51.5842 37.7062 51.6374 37.8632" stroke="#657A82" stroke-width="0.440108" stroke-linecap="round" stroke-linejoin="round"/>
<path d="M55.2175 38.3996C55.245 38.2738 55.2442 38.1434 55.2151 38.0178C55.1861 37.8923 55.1294 37.7748 55.0493 37.6739C54.9692 37.573 54.8677 37.4911 54.7521 37.4343C54.6365 37.3774 54.5096 37.347 54.3808 37.3452C54.0991 37.3624 53.8321 37.477 53.6255 37.6693C53.4189 37.8617 53.2856 38.1199 53.2484 38.3996C53.2238 38.5635 53.2387 38.7309 53.292 38.8879" stroke="#657A82" stroke-width="0.440108" stroke-linecap="round" stroke-linejoin="round"/>
<path d="M56.2102 39.0161C56.2377 38.8901 56.2369 38.7596 56.2078 38.6339C56.1787 38.5083 56.1221 38.3907 56.0421 38.2896C55.962 38.1885 55.8605 38.1064 55.7449 38.0493C55.6293 37.9922 55.5024 37.9615 55.3735 37.9594C55.0916 37.9771 54.8246 38.0921 54.618 38.2849C54.4115 38.4776 54.2783 38.736 54.2412 39.0161C54.2166 39.18 54.2315 39.3474 54.2847 39.5043" stroke="#657A82" stroke-width="0.440108" stroke-linecap="round" stroke-linejoin="round"/>
<path d="M54.445 37.987C54.4725 37.861 54.4717 37.7305 54.4427 37.6049C54.4136 37.4792 54.357 37.3616 54.2769 37.2605C54.1969 37.1594 54.0954 37.0774 53.9798 37.0203C53.8642 36.9631 53.7373 36.9324 53.6084 36.9303C53.3248 36.946 53.0556 37.0601 52.8472 37.253C52.6388 37.4459 52.5043 37.7055 52.4668 37.987C52.4423 38.1509 52.4572 38.3183 52.5104 38.4753" stroke="#657A82" stroke-width="0.440108" stroke-linecap="round" stroke-linejoin="round"/>
<path d="M57.0082 39.4585C57.0362 39.3324 57.0357 39.2018 57.0068 39.0759C56.9779 38.9501 56.9213 38.8323 56.8412 38.7311C56.761 38.6299 56.6594 38.5479 56.5435 38.4909C56.4277 38.4339 56.3006 38.4034 56.1716 38.4017C55.8896 38.4195 55.6226 38.5345 55.4161 38.7272C55.2095 38.92 55.0763 39.1784 55.0392 39.4585C55.0157 39.6224 55.0307 39.7895 55.0827 39.9467" stroke="#657A82" stroke-width="0.440108" stroke-linecap="round" stroke-linejoin="round"/>
<path d="M57.8996 40.0384C57.9275 39.9126 57.927 39.7821 57.8983 39.6564C57.8695 39.5308 57.8131 39.4131 57.7332 39.312C57.6534 39.2108 57.552 39.1287 57.4364 39.0716C57.3209 39.0144 57.1941 38.9837 57.0652 38.9817C56.783 38.9986 56.5155 39.1133 56.3088 39.3062C56.1021 39.4991 55.9691 39.758 55.9328 40.0384C55.9083 40.2023 55.9232 40.3697 55.9764 40.5267" stroke="#657A82" stroke-width="0.440108" stroke-linecap="round" stroke-linejoin="round"/>
<path fill-rule="evenodd" clip-rule="evenodd" d="M30.4113 56.0979L27.8233 54.7959L26.8881 58.4703L28.1832 58.2067L29.476 59.7723L30.4113 56.0979Z" fill="#AD49E3"/>
<path opacity="0.2" fill-rule="evenodd" clip-rule="evenodd" d="M9.28814 64.3705C20.488 58.2365 3.90369 43.6281 7.94948 36.4053C-2.41828 42.9794 12.8434 58.2319 9.28814 64.3705Z" fill="white"/>
<path opacity="0.2" fill-rule="evenodd" clip-rule="evenodd" d="M12.2933 45.4711C17.6548 42.0007 9.30193 36.905 11.7225 33.5515C5.70542 36.2541 13.8085 42.858 12.2933 45.4711Z" fill="white"/>
</svg>
