<svg width="108" height="70" viewBox="0 0 108 70" fill="none" xmlns="http://www.w3.org/2000/svg">
<path d="M16.1077 69.0277C16.1077 69.0277 8.44413 65.3932 5.209 59.2151C1.97387 53.0369 1.13789 46.1331 9.40441 38.5363C17.6709 30.9395 27.9699 34.3409 37.3117 22.3187C46.6534 10.2966 44.8541 3.74239 58.5047 1.07131C72.1553 -1.59977 89.7605 1.31371 92.1612 14.5479C93.0136 19.1936 93.1362 23.9439 92.5248 28.6274C91.9297 33.073 89.3783 37.8589 90.7006 42.3573C91.4558 44.9382 93.9746 46.5449 96.2339 47.6948C104.138 51.7006 106.334 61.0284 104.533 69.0277H16.1077Z" fill="#FFE3CB"/>
<path d="M86.7539 65.5967C87.0476 59.9111 87.2372 53.9272 87.5308 48.2417C87.5712 47.4461 87.621 46.6226 88.0312 45.8969C88.4414 45.1712 89.3162 44.5699 90.1926 44.6802C91.2057 44.8092 91.7464 45.7679 92.0106 46.6381C92.9538 49.738 92.3758 53.1254 91.3316 56.3C90.2394 59.5942 88.699 62.7224 86.7539 65.5967Z" fill="#7E79A2"/>
<path d="M89.7732 46.5417C89.9233 52.9049 88.8258 59.2358 86.5427 65.1771" stroke="#556188" stroke-width="0.117722" stroke-linecap="round" stroke-linejoin="round"/>
<path d="M88.0791 48.4841C88.7516 49.1141 89.2951 49.8687 89.6796 50.7061" stroke="#556188" stroke-width="0.117722" stroke-linecap="round" stroke-linejoin="round"/>
<path d="M91.5538 48.4996C90.8953 48.9369 90.2862 49.4444 89.7373 50.0131" stroke="#556188" stroke-width="0.117722" stroke-linecap="round" stroke-linejoin="round"/>
<path d="M87.6472 53.2155C88.2983 53.7184 88.8243 54.365 89.184 55.1049" stroke="#556188" stroke-width="0.117722" stroke-linecap="round" stroke-linejoin="round"/>
<path d="M91.7433 52.7089C90.773 53.134 89.92 53.7876 89.2571 54.6139" stroke="#556188" stroke-width="0.117722" stroke-linecap="round" stroke-linejoin="round"/>
<path d="M87.683 66.4824C91.0284 58.5733 94.3941 50.6222 98.9826 43.3626C99.6275 42.3433 100.333 41.3006 101.38 40.6993C102.428 40.0979 103.908 40.0777 104.712 40.9821C105.473 41.8352 105.375 43.1404 105.111 44.253C104.151 48.3007 101.665 51.8047 99.0308 55.0258C95.5571 59.2705 91.7382 63.2204 87.613 66.8351" fill="#7E79A2"/>
<path d="M103.288 42.177C99.6198 50.9252 94.0617 59.7029 87.5852 66.6362" stroke="#556188" stroke-width="0.117722" stroke-linecap="round" stroke-linejoin="round"/>
<path d="M100.575 42.5623C101.045 43.7719 101.331 45.0452 101.424 46.3397" stroke="#556188" stroke-width="0.117722" stroke-linecap="round" stroke-linejoin="round"/>
<path d="M101.704 45.7742C102.349 45.287 103.096 44.9504 103.888 44.7891" stroke="#556188" stroke-width="0.117722" stroke-linecap="round" stroke-linejoin="round"/>
<path d="M97.6245 46.9628C98.1759 48.3984 98.5415 49.8986 98.7122 51.427" stroke="#556188" stroke-width="0.117722" stroke-linecap="round" stroke-linejoin="round"/>
<path d="M99.1272 50.7697C100.014 50.0704 101.07 49.438 102.168 49.1816" stroke="#556188" stroke-width="0.117722" stroke-linecap="round" stroke-linejoin="round"/>
<path d="M94.8184 51.9336C95.2413 53.3111 95.5669 54.7167 95.7926 56.1399" stroke="#556188" stroke-width="0.117722" stroke-linecap="round" stroke-linejoin="round"/>
<path d="M98.9035 54.5286C97.9843 54.5664 97.0942 54.862 96.335 55.3816" stroke="#556188" stroke-width="0.117722" stroke-linecap="round" stroke-linejoin="round"/>
<path d="M91.6609 57.9344C92.0542 58.9265 92.2821 59.9763 92.3353 61.0422" stroke="#556188" stroke-width="0.117722" stroke-linecap="round" stroke-linejoin="round"/>
<path d="M94.6397 59.5336C94.0144 59.623 93.4243 59.8778 92.9304 60.2717" stroke="#556188" stroke-width="0.117722" stroke-linecap="round" stroke-linejoin="round"/>
<path d="M88.5828 66.3379C91.2618 63.0753 94.5841 60.3994 98.3425 58.477C100.331 57.4608 102.496 56.6512 104.729 56.6869C105.417 56.6978 106.127 56.7941 106.732 57.1111C107.336 57.4281 107.852 57.9968 107.975 58.6743C108.118 59.515 107.635 60.3634 106.966 60.8932C106.298 61.4231 105.469 61.695 104.659 61.9576C99.4427 63.6498 93.8053 64.6458 88.589 66.3379" fill="#7E79A2"/>
<path d="M105.722 59.103C99.8134 60.4148 94.1636 62.6973 89.0022 65.8576" stroke="#556188" stroke-width="0.117722" stroke-linecap="round" stroke-linejoin="round"/>
<path d="M104.064 57.4406C103.626 58.4241 102.975 59.2978 102.157 59.9982" stroke="#556188" stroke-width="0.117722" stroke-linecap="round" stroke-linejoin="round"/>
<path d="M102.925 59.8396C103.314 59.886 103.689 60.0177 104.021 60.2253C104.354 60.4329 104.636 60.7114 104.849 61.0407" stroke="#556188" stroke-width="0.117722" stroke-linecap="round" stroke-linejoin="round"/>
<path d="M98.2787 59.0051C97.7638 60.1598 97.0601 61.2206 96.1965 62.1439" stroke="#556188" stroke-width="0.117722" stroke-linecap="round" stroke-linejoin="round"/>
<path d="M97.0635 61.7849C97.9218 61.922 98.7169 62.3209 99.3399 62.927L99.2917 62.8819" stroke="#556188" stroke-width="0.117722" stroke-linecap="round" stroke-linejoin="round"/>
<path d="M91.2383 52.4449C90.4209 54.7121 90.4209 57.1935 91.2383 59.4606V60.6058H44.7982C44.1644 60.6424 43.5298 60.5492 42.9333 60.3319C42.3369 60.1146 41.7911 59.7777 41.3294 59.342C40.8678 58.9062 40.5 58.3808 40.2486 57.7979C39.9972 57.2149 39.8676 56.5868 39.8676 55.952C39.8676 55.3172 39.9972 54.689 40.2486 54.1061C40.5 53.5232 40.8678 52.9977 41.3294 52.562C41.7911 52.1262 42.3369 51.7894 42.9333 51.5721C43.5298 51.3547 44.1644 51.2615 44.7982 51.2982H91.2383V52.4449Z" fill="#F28227"/>
<path d="M91.2384 52.4448C90.421 54.712 90.421 57.1934 91.2384 59.4605V60.6057H68.939C67.7053 60.6057 66.7046 58.522 66.7046 55.9519C66.7046 54.6669 66.9548 53.503 67.3588 52.6593C67.7628 51.8155 68.3175 51.2981 68.939 51.2981H91.2384V52.4448Z" fill="#FD9F5B"/>
<path d="M91.2385 59.4606H71.5263C70.92 59.4618 70.3239 59.3049 69.7968 59.0053C69.6753 58.9364 69.5585 58.8596 69.4472 58.7753C69.1973 58.5926 68.974 58.3761 68.7837 58.132L68.6128 57.8989C68.55 57.8066 68.492 57.7112 68.4388 57.613L68.3269 57.3799C68.1377 56.9687 68.0321 56.524 68.0161 56.0716C68.0161 56.0328 68.0161 55.9923 68.0161 55.9535C68.0161 55.9147 68.0161 55.8758 68.0161 55.8385C68.0215 55.6823 68.037 55.5266 68.0627 55.3724L68.1125 55.1393C68.1332 55.0418 68.1602 54.9458 68.1933 54.8518L68.2787 54.6187C68.4554 54.1907 68.7153 53.802 69.0432 53.4751C69.0872 53.4283 69.1339 53.3842 69.1831 53.343C69.2746 53.2589 69.3716 53.181 69.4736 53.1099C70.0692 52.6785 70.7862 52.4467 71.5216 52.448H91.2385C90.4219 54.7142 90.4219 57.1944 91.2385 59.4606Z" fill="#FFFBFF"/>
<path d="M82.0532 53.2232C82.0534 53.2386 82.0506 53.2538 82.0448 53.2681C82.039 53.2823 82.0304 53.2952 82.0196 53.3061C82.0087 53.317 81.9958 53.3255 81.9815 53.3313C81.9673 53.3371 81.9521 53.34 81.9367 53.3398H69.1951C69.2866 53.2556 69.3837 53.1778 69.4856 53.1067H81.9445C81.974 53.1087 82.0017 53.1218 82.0219 53.1434C82.0421 53.1651 82.0533 53.1936 82.0532 53.2232Z" fill="#E9E4EA"/>
<path d="M68.2832 54.6156H79.5331C79.564 54.6156 79.5937 54.6279 79.6155 54.6497C79.6374 54.6716 79.6497 54.7012 79.6497 54.7321C79.6497 54.763 79.6374 54.7927 79.6155 54.8145C79.5937 54.8364 79.564 54.8487 79.5331 54.8487H68.1978L68.2832 54.6156Z" fill="#E9E4EA"/>
<path d="M68.1171 55.1361H77.8846C77.9156 55.1361 77.9452 55.1484 77.9671 55.1702C77.9889 55.1921 78.0012 55.2217 78.0012 55.2526C78.0012 55.2836 77.9889 55.3132 77.9671 55.3351C77.9452 55.3569 77.9156 55.3692 77.8846 55.3692H68.0674L68.1171 55.1361Z" fill="#E9E4EA"/>
<path d="M68.0205 55.8369H78.7281C78.759 55.8369 78.7887 55.8492 78.8105 55.8711C78.8324 55.8929 78.8447 55.9225 78.8447 55.9535C78.8447 55.9844 78.8324 56.014 78.8105 56.0359C78.7887 56.0577 78.759 56.07 78.7281 56.07H68.0205V55.8369Z" fill="#E9E4EA"/>
<path d="M68.4355 57.6067H75.8287C75.8596 57.6067 75.8893 57.5945 75.9111 57.5726C75.933 57.5507 75.9453 57.5211 75.9453 57.4902C75.9453 57.4593 75.933 57.4296 75.9111 57.4078C75.8893 57.3859 75.8596 57.3737 75.8287 57.3737H68.3174L68.4355 57.6067Z" fill="#E9E4EA"/>
<path d="M68.7834 58.1303H78.4608C78.4916 58.1299 78.521 58.1175 78.5428 58.0957C78.5646 58.0739 78.577 58.0445 78.5774 58.0138C78.5766 57.9831 78.564 57.9539 78.5424 57.9322C78.5207 57.9105 78.4915 57.898 78.4608 57.8972H68.6094L68.7834 58.1303Z" fill="#E9E4EA"/>
<path d="M81.693 58.7472C81.6936 58.7626 81.6911 58.7779 81.6857 58.7923C81.6803 58.8067 81.6721 58.8198 81.6615 58.831C81.6509 58.8422 81.6382 58.8511 81.6242 58.8572C81.6101 58.8634 81.5949 58.8667 81.5795 58.8669L69.7966 59.0036C69.6751 58.9348 69.5583 58.8579 69.447 58.7736L81.578 58.6338C81.6082 58.6338 81.6372 58.6457 81.6587 58.6669C81.6803 58.6881 81.6926 58.717 81.693 58.7472Z" fill="#E9E4EA"/>
<path d="M94.7329 61.7524C93.9156 64.019 93.9156 66.4999 94.7329 68.7665V69.9133H48.2944C47.6606 69.9499 47.026 69.8567 46.4296 69.6394C45.8331 69.4221 45.2873 69.0852 44.8256 68.6495C44.364 68.2137 43.9962 67.6883 43.7448 67.1054C43.4934 66.5224 43.3638 65.8943 43.3638 65.2595C43.3638 64.6246 43.4934 63.9965 43.7448 63.4136C43.9962 62.8307 44.364 62.3052 44.8256 61.8695C45.2873 61.4337 45.8331 61.0969 46.4296 60.8795C47.026 60.6622 47.6606 60.569 48.2944 60.6057H94.7329V61.7524Z" fill="#FFBA61"/>
<path d="M94.7329 61.7525C93.9156 64.0191 93.9156 66.5 94.7329 68.7666V69.9133H72.432C71.1982 69.9133 70.1975 67.8296 70.1975 65.2595C70.1975 63.9745 70.4477 62.8106 70.8517 61.9669C71.2557 61.1231 71.8151 60.6057 72.432 60.6057H94.7329V61.7525Z" fill="#FAEFBB"/>
<path d="M94.7329 68.7665H75.0238C74.6312 68.7675 74.2414 68.7019 73.8708 68.5723C73.6893 68.51 73.5136 68.432 73.3456 68.3392C73.2682 68.2996 73.1935 68.2549 73.1219 68.2056C73.0134 68.1353 72.9096 68.0579 72.8111 67.9741C72.6906 67.8785 72.5768 67.7747 72.4708 67.6633C72.4009 67.5887 72.3356 67.5079 72.2735 67.4302C72.0257 67.1185 71.8347 66.7656 71.7094 66.3876L71.6379 66.1545C71.5617 65.8644 71.5231 65.5657 71.5229 65.2657C71.5229 65.1927 71.5229 65.1181 71.5307 65.0466C71.5345 64.9686 71.5423 64.8908 71.554 64.8135C71.5649 64.7188 71.582 64.6255 71.6022 64.5323C71.6171 64.4535 71.6368 64.3756 71.6612 64.2992C71.6832 64.2138 71.7102 64.1297 71.742 64.0475C71.7704 63.9681 71.8031 63.8903 71.8399 63.8144C72.0003 63.4618 72.2182 63.1383 72.4848 62.8572C72.505 62.8339 72.5283 62.8091 72.5516 62.7858C72.6075 62.7298 72.6635 62.677 72.7241 62.6304C72.869 62.5009 73.025 62.3845 73.1902 62.2823C73.3334 62.1941 73.483 62.1167 73.6377 62.0508C74.0792 61.86 74.5553 61.7621 75.0362 61.7633H94.7329C93.9198 64.0269 93.9198 66.5029 94.7329 68.7665Z" fill="#FFFBFF"/>
<path d="M90.1833 62.1563C90.1829 62.187 90.1704 62.2162 90.1486 62.2377C90.1268 62.2593 90.0974 62.2713 90.0667 62.2713H73.1841C73.3273 62.1831 73.4769 62.1057 73.6316 62.0398H90.0714C90.1016 62.0406 90.1303 62.0533 90.1512 62.0751C90.1722 62.0969 90.1837 62.1261 90.1833 62.1563Z" fill="#E9E4EA"/>
<path d="M83.1458 62.7344C83.1454 62.7651 83.133 62.7943 83.1112 62.8158C83.0893 62.8374 83.0599 62.8494 83.0293 62.8494H72.4771C72.4973 62.8261 72.5206 62.8013 72.5439 62.7779C72.5998 62.722 72.6557 62.6692 72.7163 62.6226H83.0293C83.0594 62.6225 83.0884 62.6342 83.1101 62.655C83.1318 62.6759 83.1446 62.7043 83.1458 62.7344Z" fill="#E9E4EA"/>
<path d="M81.4959 63.9249C81.4961 63.9403 81.4932 63.9555 81.4874 63.9697C81.4816 63.984 81.4731 63.9969 81.4622 64.0078C81.4513 64.0186 81.4384 64.0272 81.4242 64.033C81.4099 64.0388 81.3947 64.0416 81.3793 64.0414H71.7361C71.7645 63.962 71.7971 63.8842 71.834 63.8083H81.3809C81.4114 63.8092 81.4404 63.8217 81.4618 63.8435C81.4833 63.8652 81.4955 63.8944 81.4959 63.9249Z" fill="#E9E4EA"/>
<path d="M82.3425 64.4095C82.3425 64.4402 82.3304 64.4696 82.3089 64.4914C82.2874 64.5132 82.2582 64.5257 82.2275 64.5261H71.5945C71.6094 64.4472 71.6291 64.3694 71.6535 64.293H82.2197C82.2356 64.2919 82.2515 64.2941 82.2665 64.2995C82.2815 64.3049 82.2952 64.3134 82.3067 64.3243C82.3182 64.3353 82.3274 64.3485 82.3335 64.3632C82.3397 64.3778 82.3428 64.3936 82.3425 64.4095Z" fill="#E9E4EA"/>
<path d="M78.45 64.9239C78.4503 64.9393 78.4474 64.9545 78.4416 64.9688C78.4358 64.983 78.4272 64.9959 78.4164 65.0068C78.4055 65.0176 78.3926 65.0262 78.3783 65.032C78.3641 65.0378 78.3489 65.0407 78.3335 65.0405H71.5229C71.5267 64.9624 71.5345 64.8846 71.5463 64.8074H78.3335C78.3488 64.8074 78.364 64.8104 78.3781 64.8162C78.3922 64.8221 78.4051 64.8307 78.4159 64.8415C78.4267 64.8523 78.4353 64.8652 78.4412 64.8793C78.447 64.8935 78.45 64.9086 78.45 64.9239Z" fill="#E9E4EA"/>
<path d="M71.7016 66.3814H79.2487C79.2796 66.3814 79.3092 66.3691 79.3311 66.3473C79.3529 66.3254 79.3652 66.2958 79.3652 66.2649C79.3652 66.2339 79.3529 66.2043 79.3311 66.1824C79.3092 66.1606 79.2796 66.1483 79.2487 66.1483H71.6348L71.7016 66.3814Z" fill="#E9E4EA"/>
<path d="M82.0689 68.089C82.0691 68.1043 82.0663 68.1196 82.0605 68.1338C82.0547 68.1481 82.0461 68.161 82.0352 68.1719C82.0244 68.1827 82.0114 68.1913 81.9972 68.1971C81.983 68.2029 81.9677 68.2057 81.9524 68.2055H73.1218C73.0133 68.1352 72.9095 68.0578 72.811 67.974H81.9601C81.9897 67.9752 82.0176 67.9879 82.0379 68.0094C82.0582 68.0309 82.0693 68.0594 82.0689 68.089Z" fill="#E9E4EA"/>
<path d="M77.8968 67.5406C77.896 67.5713 77.8835 67.6005 77.8618 67.6221C77.8401 67.6438 77.8109 67.6564 77.7803 67.6572H72.463C72.393 67.5826 72.3278 67.5018 72.2656 67.4241H77.7803C77.811 67.4245 77.8405 67.4369 77.8622 67.4587C77.884 67.4804 77.8964 67.5098 77.8968 67.5406Z" fill="#E9E4EA"/>
<path d="M85.2656 68.4558C85.2658 68.4711 85.2629 68.4864 85.2571 68.5006C85.2513 68.5148 85.2428 68.5278 85.2319 68.5386C85.2211 68.5495 85.2081 68.5581 85.1939 68.5639C85.1796 68.5696 85.1644 68.5725 85.149 68.5723H73.8712C73.6897 68.51 73.5139 68.432 73.3459 68.3392H85.1553C85.1852 68.3404 85.2135 68.3533 85.2341 68.3751C85.2547 68.3968 85.266 68.4258 85.2656 68.4558Z" fill="#E9E4EA"/>
<path d="M14.7217 55.3723C14.5924 53.6207 14.0215 51.9303 13.0622 50.459C12.7514 49.9742 12.335 49.4817 11.7663 49.3713C11.412 49.3045 11.0266 49.3947 10.7003 49.2424C10.2171 49.0171 10.1021 48.4017 9.8892 47.9138C9.70957 47.5126 9.43308 47.1622 9.08457 46.8943C8.73605 46.6263 8.32643 46.4491 7.8925 46.3786C7.38575 46.3282 6.87435 46.3517 6.37438 46.4485L2.73214 46.9784C2.04378 47.0779 1.31969 47.1928 0.775836 47.6279C0.0688315 48.1951 -0.156478 49.233 0.106124 50.1001C0.368726 50.9672 1.07107 51.654 1.88218 52.0626C2.73991 52.4915 3.79032 52.6842 4.36835 53.4611C4.62008 53.8014 4.74438 54.2194 4.9728 54.5752C5.16259 54.8642 5.41628 55.1058 5.71426 55.2812C6.01224 55.4566 6.34655 55.5611 6.69137 55.5868C7.60193 55.6458 8.5793 55.1548 9.38886 55.5759C9.76334 55.7701 10.0259 56.1306 10.3942 56.3357C11.0453 56.6947 11.861 56.4911 12.5339 56.171C13.2067 55.8509 13.85 55.4221 14.5881 55.3381" fill="#545185"/>
<path d="M21.3908 62.4096C17.4813 56.4536 9.85656 50.8753 0.985596 49.2531" stroke="#7E79A2" stroke-width="0.117722" stroke-linecap="round" stroke-linejoin="round"/>
<path d="M7.58179 47.3264C8.5545 48.7917 9.3796 50.4528 9.69814 52.1807" stroke="#7E79A2" stroke-width="0.117722" stroke-linecap="round" stroke-linejoin="round"/>
<path d="M5.86938 54.2458C7.4885 53.7066 8.72693 53.211 10.3025 52.5521" stroke="#7E79A2" stroke-width="0.117722" stroke-linecap="round" stroke-linejoin="round"/>
<path d="M11.8969 50.1482C12.5697 51.3666 12.9595 52.7209 13.0374 54.1105" stroke="#7E79A2" stroke-width="0.117722" stroke-linecap="round" stroke-linejoin="round"/>
<path d="M11.0033 55.8307C11.9931 55.4096 12.5463 55.0413 13.3652 54.4928" stroke="#7E79A2" stroke-width="0.117722" stroke-linecap="round" stroke-linejoin="round"/>
<path d="M3.2915 47.3605C4.5206 48.2306 5.59587 49.2639 6.13351 50.6686" stroke="#7E79A2" stroke-width="0.117722" stroke-linecap="round" stroke-linejoin="round"/>
<path d="M1.89148 50.9515C3.20604 51.0121 4.40407 50.7215 5.65958 50.5599" stroke="#7E79A2" stroke-width="0.117722" stroke-linecap="round" stroke-linejoin="round"/>
<path d="M20.872 54.6187C20.973 53.6553 21.4811 52.7867 21.7623 51.859C22.0436 50.9314 22.0389 49.7846 21.3039 49.1538C20.9932 48.8896 20.5876 48.7404 20.3467 48.4141C19.8511 47.7413 20.3328 46.7391 19.9987 45.973C19.7874 45.4898 19.287 45.1961 18.7836 45.0407C18.2801 44.8853 17.7471 44.8542 17.2406 44.7144C16.4637 44.4969 15.7691 44.0431 15.0512 43.6655C14.3333 43.288 13.5331 42.9772 12.7297 43.086C12.3457 43.1384 11.9806 43.2849 11.6668 43.5124C11.3531 43.74 11.1004 44.0415 10.9313 44.3902C10.7621 44.739 10.6818 45.1241 10.6973 45.5114C10.7129 45.8986 10.8239 46.2761 11.0205 46.6101C11.5892 47.5782 12.7919 48.0552 13.314 49.0497C13.5875 49.5718 13.6403 50.1762 13.7568 50.7589C13.8734 51.3416 14.0847 51.9414 14.5633 52.2848C14.9409 52.5552 15.421 52.6204 15.8701 52.7323C16.3192 52.8442 16.8024 53.0431 17.0028 53.4611C17.1582 53.7718 17.1365 54.1603 17.3292 54.4524C17.6275 54.9061 18.2863 54.9186 18.8146 54.8051C19.343 54.6917 19.9023 54.4835 20.412 54.6668" fill="#545185"/>
<path d="M22.8687 60.2203C21.5899 55.6784 18.4433 48.6845 12.4672 44.4797" stroke="#7E79A2" stroke-width="0.117722" stroke-linecap="round" stroke-linejoin="round"/>
<path d="M14.2665 43.9327C14.6824 44.8169 14.9877 45.749 15.1755 46.7079" stroke="#7E79A2" stroke-width="0.117722" stroke-linecap="round" stroke-linejoin="round"/>
<path d="M11.5192 46.4563C12.5576 46.2417 13.6191 46.1598 14.6782 46.2123" stroke="#7E79A2" stroke-width="0.117722" stroke-linecap="round" stroke-linejoin="round"/>
<path d="M18.8581 45.7664C18.9283 47.2302 18.6559 48.6902 18.0625 50.0301" stroke="#7E79A2" stroke-width="0.117722" stroke-linecap="round" stroke-linejoin="round"/>
<path d="M13.9324 49.7923C15.1672 49.6161 16.4149 49.5475 17.6616 49.5872" stroke="#7E79A2" stroke-width="0.117722" stroke-linecap="round" stroke-linejoin="round"/>
<path d="M17.7891 53.7921C18.4656 53.439 19.1804 53.1648 19.9194 52.9747" stroke="#7E79A2" stroke-width="0.117722" stroke-linecap="round" stroke-linejoin="round"/>
<path d="M21.2183 49.7644C20.9531 50.8479 20.4326 51.8521 19.7002 52.6934" stroke="#7E79A2" stroke-width="0.117722" stroke-linecap="round" stroke-linejoin="round"/>
<path d="M16.2197 61.6327C16.0783 60.7998 15.6432 59.7681 15.2376 59.0331C14.8321 58.2981 14.1111 57.6673 13.2673 57.6082C12.6458 57.5647 12.0103 57.8164 11.4307 57.6082C10.7765 57.3689 10.4362 56.6246 9.81777 56.3061C9.37251 56.104 8.86713 56.0785 8.40376 56.2346C7.94638 56.3929 7.51093 56.6085 7.10784 56.8764C6.52373 57.2163 5.95882 57.5883 5.41569 57.9905C4.84543 58.4318 4.30935 58.9679 4.08093 59.6515C3.85251 60.3352 4.00945 61.1805 4.60924 61.597C5.45299 62.1766 6.71938 61.6576 7.56934 62.2294C8.04637 62.5495 8.33228 63.1835 8.89633 63.2891C9.6282 63.4243 10.2466 62.5666 10.9863 62.6427C11.555 62.7018 11.9186 63.2829 12.4624 63.4818C13.1182 63.7242 13.8345 63.342 14.3799 62.9038C14.9253 62.4656 15.536 61.743 16.2259 61.6327" fill="#545185"/>
<path d="M21.6441 64.5991C16.7681 61.9311 10.1005 57.2229 4.70703 60.3166" stroke="#7E79A2" stroke-width="0.117722" stroke-linecap="round" stroke-linejoin="round"/>
<path d="M8.93347 56.7551C9.60188 57.5408 10.0941 58.4606 10.377 59.4526" stroke="#7E79A2" stroke-width="0.117722" stroke-linecap="round" stroke-linejoin="round"/>
<path d="M5.63782 58.4583C6.29675 58.6116 6.90483 58.9328 7.403 59.3906" stroke="#7E79A2" stroke-width="0.117722" stroke-linecap="round" stroke-linejoin="round"/>
<path d="M6.64478 61.1075C7.154 60.4052 7.78564 59.8004 8.5094 59.3221" stroke="#7E79A2" stroke-width="0.117722" stroke-linecap="round" stroke-linejoin="round"/>
<path d="M9.48206 62.3724C10.1182 61.2786 11.0788 60.4097 12.2308 59.8862" stroke="#7E79A2" stroke-width="0.117722" stroke-linecap="round" stroke-linejoin="round"/>
<path d="M14.0194 58.2952C14.4785 59.1269 14.8021 60.0265 14.9781 60.96" stroke="#7E79A2" stroke-width="0.117722" stroke-linecap="round" stroke-linejoin="round"/>
<path d="M12.8058 62.8773C12.9752 61.9947 13.4419 61.1968 14.1281 60.6165" stroke="#7E79A2" stroke-width="0.117722" stroke-linecap="round" stroke-linejoin="round"/>
<path d="M37.0505 60.6119C37.0179 61.5442 36.9728 62.5262 36.9293 63.4663C36.9122 63.7771 36.8983 64.0972 36.8827 64.3986C36.7538 66.9423 36.6232 69.0213 36.6232 69.0213L31.6913 68.9079L32.4169 64.5571L32.4775 64.1997L32.9965 61.092L34.5131 52.0361C34.5131 52.0361 36.9899 53.057 37.1158 56.1259C37.1546 57.1204 37.1205 58.7923 37.0505 60.6119Z" fill="#913C3C"/>
<path d="M37.3427 63.3234C35.8012 63.8735 33.5885 64.1687 32.4775 64.206L34.5131 52.0502C34.5131 52.0502 36.9899 53.0711 37.1158 56.1399C37.1764 57.6254 37.4747 60.5591 37.3427 63.3234Z" fill="#F7A24D"/>
<path d="M33.3416 51.5031C33.3555 53.9116 31.4179 55.9378 29.7848 56.1336C28.2915 56.3123 25.8551 52.5504 24.9818 51.1131C25.662 50.8436 26.3566 50.6123 27.0624 50.42C27.0624 50.42 27.5286 49.1692 27.8891 48.153C27.9916 47.8655 28.0849 47.5967 28.1563 47.376C28.2198 47.2126 28.2717 47.0449 28.3117 46.8741L33.1535 48.3892L33.1209 48.5243L32.6206 50.5521L32.445 51.2358C32.7488 51.3075 33.0481 51.3968 33.3416 51.5031Z" fill="#B55040"/>
<path d="M33.113 48.5275L32.4448 51.2359C30.069 51.7673 28.5602 49.4971 27.8889 48.1546C27.9915 47.8672 28.0847 47.5983 28.1562 47.3777L33.113 48.5275Z" fill="#913C3C"/>
<path d="M31.2765 33.5531C31.2633 34.7212 30.7884 35.8365 29.9555 36.6555C29.1225 37.4745 27.9993 37.9306 26.8312 37.924C25.663 37.9174 24.545 37.4488 23.7213 36.6205C22.8976 35.7922 22.4353 34.6715 22.4353 33.5034C22.4353 32.3352 22.8976 31.2146 23.7213 30.3862C24.545 29.5579 25.663 29.0893 26.8312 29.0827C27.9993 29.0761 29.1225 29.5322 29.9555 30.3512C30.7884 31.1702 31.2633 32.2856 31.2765 33.4536C31.2765 33.4863 31.2765 33.522 31.2765 33.5531Z" fill="#200903"/>
<path d="M31.275 33.4535C28.8494 28.6443 25.0067 30.1111 23.0675 31.3464C23.5495 30.5167 24.2893 29.8672 25.1745 29.4967C26.0597 29.1262 27.0416 29.0551 27.9709 29.2942C28.9002 29.5333 29.7259 30.0695 30.3224 30.8212C30.9188 31.5728 31.2533 32.4988 31.275 33.4581V33.4535Z" fill="#3F1F13"/>
<path d="M27.381 38.9496C27.381 38.9496 26.0757 37.8463 28.2092 35.6741C30.3426 33.5018 32.4403 34.431 32.8334 34.9593L27.381 38.9496Z" fill="#FCB44E"/>
<path d="M40.4054 44.6119C40.5934 45.3889 39.8336 46.2481 38.7101 46.517C37.5867 46.7858 36.5238 46.3709 36.3358 45.5846C36.1478 44.7984 36.9076 43.95 38.0311 43.6796C39.1545 43.4092 40.2174 43.8303 40.4054 44.6119Z" fill="#913C3C"/>
<path d="M38.7754 43.563C38.4164 48.8151 36.4228 51.2966 32.9919 51.0666C29.561 50.8366 26.8417 47.3715 27.0764 43.1249C27.4275 36.782 30.5881 35.469 34.0206 35.699C37.453 35.929 39.0644 39.3195 38.7754 43.563Z" fill="#B55040"/>
<path d="M27.8889 43.6018C27.8889 43.6018 31.7549 42.0355 32.3423 39.7373C32.3423 39.7373 33.9816 42.8792 38.5857 43.2801L33.7687 36.2163L28.7389 39.3349L27.8889 43.6018Z" fill="#913C3C"/>
<path d="M39.1717 42.2112C39.0756 42.6711 38.9431 43.1226 38.7755 43.5615C36.0088 42.7624 33.6623 40.917 32.2337 38.4166C32.2337 38.4166 30.8834 43.3564 26.7766 44.225C26.7766 44.225 25.7914 41.8305 26.7766 38.8331C27.0721 37.9314 27.5437 37.0974 28.1642 36.3795C29.6217 34.7014 31.8934 33.738 34.5645 34.5553C37.9581 35.584 39.9175 38.5876 39.1717 42.2112Z" fill="#200903"/>
<path d="M39.1717 42.2112C38.589 39.9006 37.4764 37.5713 35.6273 36.2242C33.1023 34.3797 29.7227 35.6259 28.1688 36.3795C29.6263 34.7014 31.8981 33.738 34.5692 34.5553C37.9581 35.584 39.9175 38.5876 39.1717 42.2112Z" fill="#3F1F13"/>
<path d="M28.5464 45.2613C28.3055 46.0289 27.2178 46.3723 26.1146 46.0274C25.0114 45.6824 24.3121 44.7843 24.553 44.0073C24.7938 43.2304 25.8815 42.8963 26.9847 43.2413C28.088 43.5863 28.7857 44.4937 28.5464 45.2613Z" fill="#B55040"/>
<path d="M33.1132 46.133C33.1132 46.3412 32.9998 46.5106 32.86 46.5106C32.7201 46.5106 32.6067 46.3412 32.6067 46.133C32.6067 45.9248 32.7201 45.757 32.86 45.757C32.9998 45.757 33.1132 45.9248 33.1132 46.133Z" fill="#200903"/>
<path d="M37.6923 46.1625C37.6923 46.3707 37.5789 46.5385 37.4391 46.5385C37.2992 46.5385 37.1858 46.3707 37.1858 46.1625C37.1858 45.9543 37.2992 45.7849 37.4391 45.7849C37.5789 45.7849 37.6923 45.9527 37.6923 46.1625Z" fill="#200903"/>
<path d="M33.2374 42.6494C33.2374 42.6494 32.1202 41.9377 31.2454 42.9182" stroke="#200903" stroke-width="0.156963" stroke-linecap="round" stroke-linejoin="round"/>
<path d="M38.1816 42.6494C38.1816 42.6494 37.0644 41.9377 36.1896 42.9182" stroke="#200903" stroke-width="0.156963" stroke-linecap="round" stroke-linejoin="round"/>
<path d="M35.6274 46.6799C35.6274 46.6799 35.848 47.4258 35.3788 47.9929" stroke="#8C3128" stroke-width="0.117722" stroke-linecap="round" stroke-linejoin="round"/>
<path d="M35.0648 49.1926C34.6564 49.2064 34.2496 49.1343 33.8709 48.9809C33.4921 48.8275 33.1498 48.5963 32.8661 48.3022" stroke="#8C3128" stroke-width="0.117722" stroke-linecap="round" stroke-linejoin="round"/>
<g style="mix-blend-mode:screen" opacity="0.43">
<path d="M34.785 45.4199C34.785 45.9537 34.6 46.4711 34.2613 46.8838C33.9227 47.2964 33.4514 47.579 32.9278 47.6831C32.4043 47.7873 31.8607 47.7067 31.3899 47.4551C30.9191 47.2035 30.5501 46.7964 30.3457 46.3032C30.1414 45.81 30.1144 45.2612 30.2694 44.7503C30.4243 44.2395 30.7516 43.7981 31.1954 43.5015C31.6393 43.2049 32.1723 43.0714 32.7036 43.1237C33.2348 43.1759 33.7316 43.4108 34.1091 43.7883C34.165 43.8443 34.2163 43.9002 34.2645 43.9592C34.6009 44.3717 34.7848 44.8876 34.785 45.4199Z" fill="#99D7E0"/>
</g>
<path opacity="0.68" d="M32.3379 47.7195C32.2912 47.7195 32.2446 47.7273 32.198 47.7273C31.5864 47.7264 31.0002 47.483 30.5678 47.0504C30.1355 46.6178 29.8925 46.0314 29.8921 45.4198C29.8916 45.1933 29.9251 44.9681 29.9915 44.7516C30.0135 44.6755 30.04 44.6008 30.0708 44.5279C30.2463 44.1085 30.5419 43.7504 30.9204 43.4985C31.2989 43.2466 31.7434 43.1123 32.198 43.1123C32.2446 43.1123 32.2912 43.1123 32.3379 43.1123C31.7533 43.1495 31.2048 43.408 30.8039 43.8352C30.4031 44.2624 30.18 44.8262 30.18 45.412C30.18 45.9978 30.4031 46.5616 30.8039 46.9888C31.2048 47.416 31.7533 47.6745 32.3379 47.7117V47.7195Z" fill="#DCEEEF"/>
<g style="mix-blend-mode:screen" opacity="0.43">
<path d="M37.8167 47.7257C38.9658 47.7257 39.8973 46.6926 39.8973 45.4182C39.8973 44.1438 38.9658 43.1107 37.8167 43.1107C36.6676 43.1107 35.7361 44.1438 35.7361 45.4182C35.7361 46.6926 36.6676 47.7257 37.8167 47.7257Z" fill="#99D7E0"/>
</g>
<path opacity="0.68" d="M37.6923 47.7196C37.6503 47.7196 37.6083 47.7274 37.5664 47.7274C36.4165 47.7274 35.4858 46.6925 35.4858 45.4199C35.4825 44.9464 35.6169 44.4821 35.8727 44.0836C35.9126 44.0163 35.9572 43.9519 36.0063 43.8909C36.1899 43.6526 36.4251 43.4589 36.6942 43.3243C36.9633 43.1898 37.2593 43.1179 37.5602 43.114C37.6021 43.114 37.6441 43.114 37.686 43.114C36.5983 43.1855 35.7313 44.1862 35.7313 45.4137C35.7313 46.6413 36.5999 47.6482 37.6923 47.7196Z" fill="#DCEEEF"/>
<path d="M36.0063 43.8908C35.9572 43.9517 35.9126 44.0161 35.8727 44.0835C35.8578 44.0772 35.8452 44.0663 35.8369 44.0524C35.6116 43.7245 35.3615 43.5474 35.0973 43.5287C34.8331 43.5101 34.5379 43.6624 34.2753 43.9498C34.2753 43.9498 34.2753 43.9576 34.266 43.9592C34.2163 43.9001 34.165 43.8442 34.1106 43.7882C34.4214 43.4433 34.7741 43.2755 35.1144 43.2988C35.4547 43.3221 35.7437 43.5194 36.0063 43.8908Z" fill="#200903"/>
<path d="M30.0707 44.5278C30.0399 44.6007 30.0134 44.6755 29.9914 44.7516L27.9714 43.7043L28.0818 43.4991L30.0707 44.5278Z" fill="#200903"/>
<path d="M32.8894 64.5649C32.3129 66.5585 32.0301 69.0276 32.0301 69.0276L17.413 67.7426C17.413 67.7426 19.7779 55.6023 21.4173 53.3927C21.6241 53.1223 21.8637 52.8786 22.1305 52.667C22.9307 52.0175 24.0277 51.4939 24.9818 51.1132C25.6619 50.8438 26.3566 50.6124 27.0624 50.4202C27.0624 50.4202 29.8935 55.2744 30.5011 55.1874C31.1087 55.1004 32.5786 53.256 32.445 51.2359C32.7488 51.3081 33.0481 51.3979 33.3415 51.5048C34.1091 51.7767 35.1362 52.2708 35.4253 53.0104C35.8308 54.0515 34.0796 60.4721 32.8894 64.5649Z" fill="#FFB44E"/>
<path d="M32.8894 64.5649C32.3129 66.5585 32.0301 69.0275 32.0301 69.0275L17.413 67.7425C17.413 67.7425 19.7779 55.6022 21.4173 53.3926C21.6241 53.1223 21.8637 52.8785 22.1305 52.667L23.9951 53.7749C23.1933 57.9423 22.7893 66.3969 32.8894 64.5649Z" fill="#F7A24D"/>
<path d="M32.6268 68.3486C32.1839 68.5133 31.2283 66.5958 31.132 66.3969C31.219 66.616 32.114 68.9297 31.4956 69.2032C30.9968 69.4238 29.9495 67.1288 29.878 66.975C29.9308 67.1304 30.6782 69.3182 30.254 69.5963C30.1688 69.6491 30.0697 69.6753 29.9695 69.6714C29.8692 69.6675 29.7725 69.6338 29.6915 69.5746C29.6274 69.5352 29.5671 69.4899 29.5113 69.4394L29.4724 69.4005C29.5104 69.4991 29.5108 69.6082 29.4736 69.7071C29.4363 69.8059 29.364 69.8876 29.2704 69.9366C28.7297 70.1946 27.5488 68.3159 27.5488 68.3159C26.5388 68.9142 25.3734 68.664 25.3734 68.664C25.3734 68.664 16.9064 69.3151 14.7093 68.3284C13.6355 67.8451 14.0691 65.8919 14.975 63.6451C15.1086 63.3032 15.2578 62.9536 15.4147 62.6024C15.9011 61.5038 16.4573 60.3788 16.9686 59.3549C17.413 58.4645 17.8278 57.6565 18.1371 57.0023C19.6661 53.7781 22.8965 52.131 22.8965 52.131C26.1783 52.549 23.8288 58.1397 23.4761 58.9073C23.3207 59.2337 22.6992 60.4954 22.0652 61.7587C21.5991 62.7065 21.1143 63.6559 20.8361 64.2107C20.7895 64.3008 20.7491 64.3831 20.7149 64.45C20.6357 64.6053 20.589 64.7017 20.589 64.7017L25.6375 65.2471C25.6375 65.2471 28.2791 63.6637 30.2727 63.6637C32.187 63.6544 33.3074 68.0922 32.6268 68.3486Z" fill="#B55040"/>
<path d="M22.0747 61.7524C21.6085 62.7003 21.1237 63.6497 20.8456 64.2044C20.799 64.2946 20.7586 64.3769 20.7244 64.4437C19.5885 64.6349 17.5017 64.7312 14.9751 63.6388C15.1087 63.297 15.2579 62.9474 15.4148 62.5962C15.9012 61.4976 16.4575 60.3726 16.9687 59.3486L22.0747 61.7524Z" fill="#913C3C"/>
<path d="M29.6915 69.5715C29.6274 69.5321 29.5671 69.4868 29.5113 69.4363C29.4427 69.1993 29.3607 68.9664 29.2658 68.7386C29.0809 68.3082 28.8291 67.9166 28.6349 67.4955C28.6256 67.4722 28.6536 67.4458 28.6722 67.4676C29.1725 67.999 29.5206 68.8163 29.6915 69.5715Z" fill="#200903"/>
<path d="M23.6999 59.0548C23.128 60.6771 22.3014 62.9208 21.6519 64.2121C19.102 64.2882 15.9523 63.3217 14.8646 62.5168C15.9648 60.3601 17.1705 58.3525 17.9568 57.0115C19.969 53.579 22.9058 52.1246 22.9058 52.1246C26.1876 52.5426 24.1101 57.8925 23.6999 59.0548Z" fill="#FFB44E"/>
<path d="M60.0897 68.5164H36.3903L35.8977 67.8234L40.2112 55.1423C40.2761 54.9515 40.3991 54.7859 40.563 54.6685C40.7269 54.5512 40.9233 54.4881 41.1249 54.4882H64.2773C64.426 54.4884 64.5728 54.5215 64.7071 54.5852C64.8414 54.6489 64.96 54.7415 65.0543 54.8564C65.1366 54.9564 65.1906 55.0765 65.2108 55.2044C65.2311 55.3322 65.2167 55.4632 65.1693 55.5836L60.0897 68.5164Z" fill="#7E79A0"/>
<path d="M59.7992 68.5163H36.3904L40.62 56.2253C40.7247 55.922 40.9213 55.6589 41.1826 55.4726C41.4438 55.2862 41.7566 55.186 42.0775 55.1858H64.697C64.7665 55.1858 64.8349 55.2028 64.8964 55.2353C64.9578 55.2678 65.0104 55.3148 65.0496 55.3722C65.0888 55.4296 65.1134 55.4957 65.1213 55.5647C65.1291 55.6338 65.12 55.7037 65.0948 55.7685L60.197 68.246C60.1653 68.3256 60.1105 68.394 60.0396 68.4422C59.9687 68.4903 59.885 68.5162 59.7992 68.5163Z" fill="#545185"/>
<path d="M54.3699 61.6949C54.3699 62.3335 52.872 62.851 51.0245 62.851C49.177 62.851 47.6775 62.3335 47.6775 61.6949C47.6775 61.0563 49.1754 60.5388 51.0245 60.5388C52.8736 60.5388 54.3699 61.0563 54.3699 61.6949Z" fill="#7E79A0"/>
<path d="M58.1768 68.33H23.7993C23.6088 68.33 23.4543 68.4844 23.4543 68.6749V69.615C23.4543 69.8055 23.6088 69.9599 23.7993 69.9599H58.1768C58.3673 69.9599 58.5218 69.8055 58.5218 69.615V68.6749C58.5218 68.4844 58.3673 68.33 58.1768 68.33Z" fill="#494672"/>
<path d="M35.1393 68.33H23.7993C23.6088 68.33 23.4543 68.4844 23.4543 68.6749V69.615C23.4543 69.8055 23.6088 69.9599 23.7993 69.9599H35.1393C35.3299 69.9599 35.4843 69.8055 35.4843 69.615V68.6749C35.4843 68.4844 35.3299 68.33 35.1393 68.33Z" fill="#7E79A0"/>
<path d="M25.8583 69.0276H24.4427V69.3834H25.8583V69.0276Z" fill="#494672"/>
<path d="M27.5985 69.0276H26.183V69.3834H27.5985V69.0276Z" fill="#494672"/>
<path d="M32.0302 69.0276H30.6146V69.3834H32.0302V69.0276Z" fill="#494672"/>
<path d="M33.716 69.3834H32.6547C32.6313 69.3834 32.6081 69.3788 32.5865 69.3698C32.5649 69.3608 32.5453 69.3476 32.5289 69.331C32.5124 69.3144 32.4994 69.2947 32.4906 69.273C32.4818 69.2513 32.4773 69.2281 32.4775 69.2047C32.4775 69.1577 32.4962 69.1127 32.5294 69.0795C32.5626 69.0462 32.6077 69.0276 32.6547 69.0276H33.716C33.7629 69.0276 33.808 69.0462 33.8412 69.0795C33.8744 69.1127 33.8931 69.1577 33.8931 69.2047C33.8933 69.2281 33.8889 69.2513 33.8801 69.273C33.8713 69.2947 33.8582 69.3144 33.8418 69.331C33.8253 69.3476 33.8057 69.3608 33.7841 69.3698C33.7625 69.3788 33.7394 69.3834 33.716 69.3834Z" fill="#494672"/>
<path d="M29.9059 69.242C29.9059 69.2844 29.8933 69.3259 29.8698 69.3612C29.8462 69.3964 29.8127 69.4239 29.7735 69.4401C29.7344 69.4564 29.6912 69.4606 29.6496 69.4523C29.6081 69.4441 29.5698 69.4236 29.5399 69.3936C29.5099 69.3637 29.4894 69.3255 29.4812 69.2839C29.4729 69.2423 29.4771 69.1991 29.4934 69.16C29.5096 69.1208 29.5371 69.0873 29.5724 69.0637C29.6076 69.0402 29.6491 69.0276 29.6915 69.0276C29.7484 69.0276 29.8029 69.0502 29.8431 69.0904C29.8833 69.1306 29.9059 69.1851 29.9059 69.242Z" fill="#494672"/>
<path d="M99.4752 38.2767V36.4416H98.1824C98.0937 36.0688 97.9469 35.7122 97.7473 35.385L98.6594 34.4729L97.3604 33.1754L96.4421 34.0875C96.1149 33.8897 95.7597 33.7425 95.3886 33.6509V32.3612H93.5597V33.6509C93.1874 33.7422 92.8312 33.8894 92.5031 34.0875L91.5894 33.1754L90.2935 34.4729L91.2056 35.3866C91.006 35.7138 90.8592 36.0703 90.7705 36.4432H89.4792V38.2767H90.7705C90.8602 38.6483 91.007 39.0037 91.2056 39.3303L90.2935 40.2439L91.5894 41.5398L92.5031 40.6293C92.8311 40.8279 93.1874 40.9756 93.5597 41.0675V42.3572H95.3948V41.0675C95.7669 40.975 96.1231 40.8273 96.4514 40.6293L97.3604 41.5398L98.6594 40.2439L97.7473 39.3303C97.9459 39.0037 98.0927 38.6483 98.1824 38.2767H99.4752ZM94.4764 39.4468C94.063 39.4471 93.6587 39.3247 93.3148 39.0952C92.9708 38.8657 92.7027 38.5393 92.5443 38.1574C92.386 37.7754 92.3444 37.3551 92.425 36.9495C92.5056 36.544 92.7047 36.1714 92.9971 35.879C93.2895 35.5867 93.662 35.3876 94.0676 35.307C94.4731 35.2264 94.8934 35.2679 95.2754 35.4263C95.6573 35.5847 95.9837 35.8528 96.2133 36.1967C96.4428 36.5406 96.5651 36.9449 96.5648 37.3584C96.5644 37.9122 96.3443 38.4431 95.9527 38.8347C95.5611 39.2262 95.0302 39.4464 94.4764 39.4468Z" fill="#FFBA61"/>
<path d="M17.8688 36.8848L16.9801 37.4117L20.8497 43.937L21.7384 43.41L17.8688 36.8848Z" fill="#585D8C"/>
<path d="M17.817 36.9933L18.6499 38.4057C18.3311 38.5545 17.9986 38.6716 17.6569 38.7554L16.9266 37.5123L17.817 36.9933Z" fill="#464577"/>
<path d="M18.8472 33.8141C19.1691 34.3602 19.3218 34.9895 19.2861 35.6224C19.2504 36.2554 19.0279 36.8635 18.6466 37.3699C18.2653 37.8763 17.7424 38.2584 17.1441 38.4677C16.5457 38.677 15.8987 38.7042 15.2849 38.5459C14.6711 38.3875 14.118 38.0507 13.6955 37.5781C13.2731 37.1054 13.0003 36.5182 12.9116 35.8905C12.8228 35.2628 12.9222 34.6229 13.1971 34.0517C13.472 33.4805 13.9101 33.0036 14.456 32.6814C15.1886 32.2494 16.0627 32.1261 16.8862 32.3385C17.7096 32.5509 18.415 33.0817 18.8472 33.8141Z" fill="#585D8C"/>
<path d="M19.2155 33.5981C19.5374 34.1443 19.6901 34.7735 19.6544 35.4064C19.6187 36.0394 19.3961 36.6475 19.0149 37.1539C18.6336 37.6603 18.1107 38.0424 17.5124 38.2517C16.914 38.461 16.267 38.4882 15.6532 38.3299C15.0394 38.1715 14.4863 37.8347 14.0638 37.3621C13.6414 36.8895 13.3686 36.3022 13.2798 35.6745C13.1911 35.0468 13.2905 34.4069 13.5654 33.8357C13.8403 33.2645 14.2784 32.7876 14.8243 32.4654C15.187 32.2513 15.5883 32.1108 16.0053 32.0518C16.4223 31.9929 16.8468 32.0167 17.2546 32.1219C17.6624 32.2271 18.0455 32.4116 18.3819 32.6649C18.7184 32.9182 19.0016 33.2353 19.2155 33.5981Z" fill="#7D789E"/>
<path opacity="0.32" d="M18.8456 33.814C19.0314 34.1285 19.1533 34.4766 19.2045 34.8382C19.2557 35.1999 19.2351 35.5681 19.1439 35.9218C19.0527 36.2755 18.8927 36.6077 18.673 36.8996C18.4533 37.1914 18.1783 37.437 17.8636 37.6225C17.8404 37.6367 17.8166 37.6496 17.7921 37.6614C18.4073 37.2774 18.8482 36.6683 19.0206 35.9639C19.193 35.2595 19.0833 34.5156 18.7149 33.8909C18.3465 33.2662 17.7486 32.8103 17.0487 32.6203C16.3489 32.4303 15.6024 32.5213 14.9688 32.8739C14.989 32.8599 15.0138 32.846 15.0371 32.832C15.3516 32.6462 15.6997 32.5243 16.0613 32.4731C16.423 32.4219 16.7912 32.4425 17.1449 32.5337C17.4986 32.6249 17.8308 32.7849 18.1227 33.0046C18.4145 33.2243 18.6602 33.4993 18.8456 33.814Z" fill="white"/>
<path d="M18.7058 33.8963C18.9621 34.3612 19.0756 34.8912 19.0324 35.4202C18.9891 35.9492 18.7909 36.4538 18.4625 36.8708C18.1341 37.2878 17.6901 37.5988 17.186 37.765C16.6819 37.9311 16.14 37.945 15.6281 37.8049C15.1161 37.6649 14.6567 37.377 14.3074 36.9774C13.9581 36.5777 13.7343 36.084 13.664 35.5579C13.5936 35.0318 13.6799 34.4967 13.9119 34.0193C14.144 33.5419 14.5116 33.1435 14.9688 32.8739C15.6021 32.5238 16.3471 32.4347 17.0451 32.6257C17.7431 32.8166 18.339 33.2726 18.7058 33.8963Z" fill="#D3E0EA"/>
<path d="M15.0775 36.7074C14.9903 36.7588 14.8866 36.7747 14.788 36.7518C14.6894 36.729 14.6033 36.6691 14.5476 36.5846C14.2054 36.0706 14.0683 35.4469 14.1636 34.8367C14.2588 34.2265 14.5793 33.6742 15.0619 33.2889C15.1027 33.2564 15.1496 33.2323 15.1997 33.218C15.2498 33.2036 15.3022 33.1993 15.354 33.2052C15.4058 33.2111 15.456 33.2272 15.5016 33.2525C15.5472 33.2778 15.5873 33.3118 15.6198 33.3526C15.6522 33.3934 15.6763 33.4402 15.6907 33.4903C15.705 33.5404 15.7094 33.5929 15.7034 33.6447C15.6975 33.6965 15.6815 33.7466 15.6562 33.7922C15.6309 33.8378 15.5969 33.878 15.5561 33.9104C15.2283 34.173 15.0106 34.5485 14.9456 34.9634C14.8806 35.3783 14.9731 35.8025 15.2049 36.1526C15.2628 36.24 15.2838 36.3469 15.2631 36.4497C15.2424 36.5525 15.1818 36.6429 15.0946 36.7011L15.0775 36.7074Z" fill="#E7F5F7"/>
<path d="M18.5075 40.1553L19.3613 39.6516C19.4277 39.6124 19.5069 39.6012 19.5815 39.6205C19.6561 39.6397 19.72 39.6878 19.7592 39.7542L21.9582 43.4813C21.995 43.5438 22.0056 43.6184 21.9875 43.6886C21.9693 43.7588 21.9241 43.819 21.8616 43.8558L20.9783 44.377C20.9159 44.4138 20.8413 44.4244 20.7711 44.4062C20.7008 44.3881 20.6407 44.3429 20.6038 44.2804L18.4049 40.5532C18.3657 40.4869 18.3545 40.4077 18.3737 40.333C18.393 40.2584 18.4411 40.1945 18.5075 40.1553Z" fill="#3B3B6B"/>
<path d="M71.9798 51.2982H57.1296V46.1611H70.1945C70.0515 48.4919 70.673 50.5865 71.9814 50.7652L71.9798 51.2982Z" fill="#545185"/>
<path d="M68.6607 48.4591H57.1279V51.298H68.6607V48.4591Z" fill="#7D789E"/>
<path d="M85.5263 16.6859H42.5932C41.8311 16.6859 41.2134 17.3037 41.2134 18.0657V45.9559C41.2134 46.718 41.8311 47.3357 42.5932 47.3357H85.5263C86.2883 47.3357 86.9061 46.718 86.9061 45.9559V18.0657C86.9061 17.3037 86.2883 16.6859 85.5263 16.6859Z" fill="#545185"/>
<path d="M84.5162 16.6859H42.4487C41.7665 16.6859 41.2134 17.239 41.2134 17.9212V46.1004C41.2134 46.7827 41.7665 47.3357 42.4487 47.3357H84.5162C85.1985 47.3357 85.7516 46.7827 85.7516 46.1004V17.9212C85.7516 17.239 85.1985 16.6859 84.5162 16.6859Z" fill="#7D789E"/>
<path d="M82.5741 18.9655H44.3213C43.639 18.9655 43.0859 19.5185 43.0859 20.2008V43.8225C43.0859 44.5047 43.639 45.0578 44.3213 45.0578H82.5741C83.2563 45.0578 83.8094 44.5047 83.8094 43.8225V20.2008C83.8094 19.5185 83.2563 18.9655 82.5741 18.9655Z" fill="#D3E0EA"/>
<path d="M81.264 21.6505H78.6458V45.0578H81.264V21.6505Z" fill="url(#paint0_linear_25_8887)"/>
<path d="M76.8077 28.0322H74.1895V45.0174H76.8077V28.0322Z" fill="url(#paint1_linear_25_8887)"/>
<path d="M66.5802 27.6143H63.9619V45.0578H66.5802V27.6143Z" fill="url(#paint2_linear_25_8887)"/>
<path d="M61.5626 23.9967H58.9443V45.0188H61.5626V23.9967Z" fill="url(#paint3_linear_25_8887)"/>
<path d="M56.0807 28.9443H53.4624V45.0578H56.0807V28.9443Z" fill="url(#paint4_linear_25_8887)"/>
<path d="M50.2957 21.739H47.6775V45.0577H50.2957V21.739Z" fill="url(#paint5_linear_25_8887)"/>
<path d="M72.9289 30.5356C72.0307 31.586 68.0653 36.1792 67.565 36.2647C67.0646 36.3501 66.513 31.7787 66.6715 29.9141C67.4251 29.7727 67.9892 29.6794 68.1026 29.4122C68.1119 29.3935 68.1181 29.3749 68.1259 29.3562L68.1399 29.3189C68.4165 28.5917 68.5221 27.3191 68.547 26.9586C68.547 26.8934 68.547 26.8576 68.547 26.8576L72.3011 25.9377C72.3011 25.9377 72.2918 25.975 72.2731 26.0434C72.2063 26.3013 72.0261 27.0052 71.894 27.7526C71.8458 28.0184 71.8054 28.2887 71.7759 28.5513C71.692 29.3034 71.7107 29.9731 71.9903 30.1534C72.2881 30.3151 72.6028 30.4433 72.9289 30.5356Z" fill="#D88460"/>
<path d="M72.2812 26.0432C72.2144 26.3012 72.0342 27.0051 71.9021 27.7525C71.8539 28.0182 71.8135 28.2885 71.784 28.5511C70.8408 29.3452 69.5371 30.2464 68.1262 29.3498L68.1402 29.3125C68.4168 28.5853 68.5225 27.3127 68.5473 26.9522L72.2812 26.0432Z" fill="#A55641"/>
<path d="M66.5537 31.7427L68.1495 33.0945L71.4421 32.5072L68.9979 36.2426L66.7836 36.9823L65.2717 32.6905L66.5537 31.7427Z" fill="#EA9344"/>
<path d="M67.8092 33.8654C67.8418 33.8654 68.6576 34.1917 68.6576 34.1917L68.8969 35.8527L67.5155 36.6468L66.6438 35.6787L67.8092 33.8654Z" fill="#EB6C27"/>
<path d="M67.5403 32.4963L68.1525 33.0946L69.3241 32.8662C69.3241 32.8662 68.9217 34.0828 68.6606 34.1916C68.3996 34.3004 67.8231 34.2025 67.6817 34.0828C67.5403 33.9632 67.3523 32.745 67.5403 32.4963Z" fill="#FF7B25"/>
<path d="M65.5204 30.1672C64.2984 30.42 63.153 30.9565 62.1765 31.7335C60.517 33.0403 57.8661 34.8785 57.515 34.7014C57.2259 34.5569 55.1484 31.8314 54.0965 30.781C53.6987 30.3832 53.057 30.5464 53.0088 30.5013L49.9119 32.6394C49.9119 32.6394 49.7286 33.5344 50.1435 34.1234C51.2234 35.657 55.2712 40.6791 56.637 40.6822C58.7114 40.6822 63.7304 38.5177 63.7304 38.5177L65.5204 30.1672Z" fill="#181833"/>
<path d="M52.5285 27.9141C52.4788 28.4176 52.2892 30.1656 52.2892 30.1656L50.1682 32.0008C50.1682 32.0008 46.3084 29.3095 46.1639 28.9692C46.1202 28.8986 46.1028 28.8149 46.1147 28.7328C46.1267 28.6506 46.1672 28.5753 46.2292 28.5201C46.2402 28.5095 46.2528 28.5006 46.2665 28.4937C46.2409 28.4794 46.2173 28.4616 46.1966 28.4409C46.0865 28.3328 46.0206 28.1877 46.0116 28.0338C46.0052 27.9579 46.0259 27.8823 46.07 27.8203C46.1141 27.7582 46.1788 27.7139 46.2525 27.695C46.2921 27.6831 46.3326 27.6748 46.3737 27.6702C46.3533 27.6528 46.3341 27.6341 46.3162 27.6142C46.2486 27.5465 46.2095 27.4555 46.2069 27.3598C46.2043 27.2642 46.2384 27.1712 46.3022 27.0999C46.5135 26.8342 49.3416 27.7214 49.3416 27.7214C49.3416 27.7214 47.5422 26.0992 47.8685 25.6703C48.1948 25.2415 51.4672 28.0291 51.4672 28.0291C51.7423 26.9647 52.196 26.1987 52.5223 26.3199C52.8486 26.4411 52.5798 27.4122 52.5285 27.9141Z" fill="#D88460"/>
<path d="M51.4096 28.1332C50.9357 28.4144 50.8129 29.2349 50.8999 29.7259C50.9093 29.7787 50.9994 29.7663 50.9932 29.7134C50.9498 29.4386 50.9667 29.1575 51.0429 28.8899C51.1284 28.6071 51.3164 28.4237 51.4422 28.1674C51.4447 28.1627 51.4457 28.1575 51.445 28.1523C51.4443 28.1471 51.4419 28.1422 51.4383 28.1384C51.4347 28.1346 51.43 28.1321 51.4248 28.1311C51.4197 28.1302 51.4143 28.1309 51.4096 28.1332Z" fill="#2A0404"/>
<path d="M49.0883 29.6373C48.6734 29.5068 48.4947 29.7927 48.1047 29.5099C47.4831 29.0438 46.9968 28.6102 46.2292 28.5248C46.2402 28.5142 46.2528 28.5053 46.2665 28.4984C46.2408 28.484 46.2173 28.4663 46.1965 28.4455C46.6682 28.4343 47.1296 28.5839 47.5049 28.8697C47.8079 29.0733 48.0394 29.3359 48.389 29.4602C48.6687 29.5581 48.8552 29.44 49.1178 29.5239C49.1908 29.5426 49.1597 29.656 49.0883 29.6373Z" fill="#2A0404"/>
<path d="M49.155 28.6507C48.7402 28.6181 48.448 28.4052 48.0907 28.2125C47.5177 27.9214 46.8931 27.7456 46.2524 27.6951C46.292 27.6832 46.3326 27.6748 46.3736 27.6702C46.3532 27.6529 46.334 27.6342 46.3162 27.6143C46.7564 27.6129 47.1932 27.6908 47.6058 27.8442C48.1202 28.0354 48.5941 28.4658 49.1488 28.5109C49.2436 28.5202 49.2436 28.66 49.155 28.6507Z" fill="#2A0404"/>
<path d="M50.1187 32.9223C50.1187 32.9223 51.0665 33.1989 52.2676 32.338C53.3553 31.5611 53.1471 30.7748 53.1471 30.7748C53.1549 30.6272 52.5333 29.8425 52.3251 29.8425C52.3251 29.8425 50.7853 31.5518 49.5686 31.5797C49.5686 31.5782 49.4256 32.0614 50.1187 32.9223Z" fill="#373662"/>
<path d="M75.4355 34.2072C75.4246 37.8758 74.598 45.0578 74.598 45.0578H61.5642C61.5642 45.0578 61.6186 44.5248 61.7196 43.6593C62.1454 40.0854 63.3915 30.885 64.8832 30.3567C65.2188 30.2405 65.5607 30.1435 65.9072 30.0662C66.1745 30.0024 66.4293 29.9543 66.6671 29.9108C66.5117 31.7754 67.0618 36.3499 67.5605 36.2614C68.0593 36.1728 72.0263 31.5827 72.9245 30.5323C73.1404 30.6053 73.3704 30.6877 73.5988 30.7778C74.267 31.0544 74.9351 31.4693 75.2599 32.2742C75.3889 32.5896 75.4386 33.2873 75.4355 34.2072Z" fill="#1E1F3E"/>
<path d="M73.9111 33.9197C73.8987 37.5899 74.5995 45.0577 74.5995 45.0577H61.5642C61.5642 45.0577 61.6186 44.5247 61.7196 43.6592C71.6503 44.9956 72.783 39.1158 73.9111 33.9197Z" fill="#181833"/>
<path d="M73.6004 30.781C71.8989 32.9564 68.4261 37.2389 67.4564 37.1006C66.4045 36.9452 66.0191 31.9728 65.9026 30.0709C66.1699 30.0072 66.4247 29.959 66.6624 29.9155C66.507 31.7802 67.0571 36.3547 67.5559 36.2661C68.0547 36.1776 72.0217 31.5875 72.9198 30.5371C73.1451 30.6085 73.3751 30.6878 73.6004 30.781Z" fill="#373662"/>
<path d="M68.1495 33.1194C67.615 31.9851 67.6834 30.6146 68.1029 29.4119C68.1029 29.4119 66.7169 29.3326 66.0549 30.0334C65.393 30.7342 64.7637 33.239 64.7637 33.239C64.7637 33.239 66.4683 32.1 68.1495 33.1194Z" fill="#F7A24D"/>
<path d="M71.7513 29.541C70.8587 31.0072 69.6225 32.2338 68.1494 33.1149C68.499 33.1149 70.589 32.728 72.0651 34.358C72.2019 34.3906 74.3291 29.6374 71.7513 29.541Z" fill="#F7A24D"/>
<path d="M73.1048 34.2398L74.5576 31.3263C74.5576 31.3263 76.2809 32.2773 77.2831 35.4254C77.9824 37.6163 79.7693 45.0593 79.7693 45.0593H73.9112C73.9112 45.0593 72.0575 38.5175 73.1048 34.2398Z" fill="#1E1F3E"/>
<path d="M67.6212 24.5747C67.441 25.0549 66.72 25.2289 66.0099 24.9617C65.2997 24.6944 64.8678 24.0915 65.048 23.6114C65.2283 23.1312 65.9493 22.9572 66.6609 23.2229C67.3726 23.4886 67.8014 24.093 67.6212 24.5747Z" fill="#A55641"/>
<path d="M66.1729 20.1588C66.1729 20.1588 63.752 20.7135 66.1729 22.0685C66.1729 22.0685 66.0175 22.7708 66.4961 23.9922L68.1494 20.1588H66.1729Z" fill="#2A0404"/>
<path d="M74.0059 23.6565C73.5926 26.3571 71.1391 28.3181 69.046 27.998C66.9778 27.6872 66.305 25.2741 66.4262 22.5828C66.4262 22.5533 66.4262 22.5206 66.4262 22.4895C66.4915 21.1952 66.8085 20.2442 67.2839 19.5636C68.165 18.2864 69.6023 17.974 70.9666 18.1854C71.6687 18.3006 72.3122 18.6468 72.7955 19.169C72.9327 19.3105 73.0585 19.4627 73.1715 19.6242C73.9111 20.6529 74.2437 22.1135 74.0059 23.6565Z" fill="#D88460"/>
<path d="M73.4854 23.9968C73.4854 23.9968 72.8981 23.2198 72.8499 21.5634C72.8499 21.5634 69.5744 21.7872 70.7398 20.8611C70.6574 20.8891 68.6731 21.5759 66.9344 20.9232C66.6971 21.4533 66.5264 22.0107 66.4263 22.5828C66.4263 22.5532 66.4263 22.5206 66.4263 22.4895C66.4915 21.1952 66.8085 20.2442 67.284 19.5636C68.5084 18.8582 71.7234 18.4635 72.7955 19.1689C72.8841 19.2228 72.9616 19.2929 73.0239 19.3756C73.0813 19.4534 73.1307 19.5367 73.1716 19.6242C73.7713 20.903 73.4854 23.9968 73.4854 23.9968Z" fill="#A55641"/>
<path d="M74.4521 24.0916L73.338 24.2998C73.338 24.2998 72.8718 23.2214 73.1174 21.2325C73.1174 21.2325 69.8076 21.2496 71.464 20.4136C71.3506 20.4493 68.3641 21.3335 65.8593 20.2364C65.6898 20.1631 65.5284 20.0725 65.3776 19.9661C64.1065 19.085 63.513 17.2204 68.4309 17.6089C68.4309 17.6089 66.7714 16.6393 68.1497 16.5585C69.4642 16.4823 73.6643 17.0712 74.5982 18.6904C74.7604 18.9626 74.8188 19.2843 74.7629 19.5963C74.7629 19.5963 76.6089 20.3608 74.4521 24.0916Z" fill="#2A0404"/>
<path d="M74.5978 18.6905C74.2016 18.4217 73.0704 17.7209 71.7372 17.5204C70.0699 17.2703 68.687 17.0543 69.251 17.8312C69.251 17.8312 63.5701 17.4956 65.3664 19.9584C64.0953 19.0774 63.5017 17.2128 68.4197 17.6012C68.4197 17.6012 66.7602 16.6316 68.1384 16.5508C69.4639 16.4824 73.664 17.0714 74.5978 18.6905Z" fill="#3F1F13"/>
<path d="M70.738 23.5539C70.7194 23.7279 70.6277 23.8646 70.5329 23.8507C70.4381 23.8367 70.3775 23.6953 70.393 23.5181C70.4086 23.341 70.5018 23.2074 70.5982 23.2213C70.6945 23.2353 70.7551 23.3798 70.738 23.5539Z" fill="#2B2B2B"/>
<path d="M67.8931 23.2384C67.876 23.4125 67.7843 23.5492 67.688 23.5352C67.5916 23.5212 67.5326 23.3798 67.5481 23.2027C67.5637 23.0256 67.6585 22.8919 67.7532 22.9059C67.848 22.9199 67.9102 23.0644 67.8931 23.2384Z" fill="#2B2B2B"/>
<path d="M70.8035 22.0932C70.8035 22.0932 71.4825 21.9736 71.756 22.4335" stroke="#2A0404" stroke-width="0.156963" stroke-linecap="round" stroke-linejoin="round"/>
<path d="M68.4727 21.7391C68.3002 21.6262 68.0985 21.566 67.8924 21.566C67.6862 21.566 67.4845 21.6262 67.312 21.7391" stroke="#2A0404" stroke-width="0.156963" stroke-linecap="round" stroke-linejoin="round"/>
<path d="M68.9712 23.1111C68.8888 23.2401 68.6713 24.1024 68.8888 24.5997" stroke="#8C3128" stroke-width="0.117722" stroke-linecap="round" stroke-linejoin="round"/>
<path d="M75.2474 24.1072C75.3624 24.6076 74.8558 25.1499 74.1162 25.3208C73.3765 25.4917 72.6851 25.2229 72.5623 24.7226C72.4396 24.2222 72.9539 23.6799 73.6935 23.509C74.4332 23.3381 75.1339 23.6069 75.2474 24.1072Z" fill="#D88460"/>
<path d="M74.0773 22.9045L73.0844 23.0988C73.0844 23.0988 73.1559 24.7319 72.3075 25.7528C71.8025 26.3603 71.4715 26.2951 71.4715 26.2951C71.4715 26.2951 71.2664 25.052 70.8701 24.8655C70.4739 24.679 67.9318 24.6992 67.7189 25.1468C67.506 25.5943 67.5433 26.3261 67.5433 26.3261C67.5433 26.3261 66.3515 25.8305 66.4246 23.1516L66.221 23.0786C66.221 23.0786 65.9957 27.4713 67.3087 28.1814C67.3087 28.1814 66.7415 28.5481 67.1891 28.803C67.6366 29.0578 68.4321 28.6119 68.4321 28.6119C68.4321 28.6119 67.8261 29.9388 69.913 28.5792C69.913 28.5792 69.5587 29.3732 70.5811 29.019C71.6036 28.6647 73.0145 27.0766 73.4091 26.0278C73.8038 24.9789 74.0773 22.9045 74.0773 22.9045Z" fill="#2A0404"/>
<path d="M68.3687 25.5522L70.4601 25.1669C70.4601 25.1669 70.6777 26.3245 69.719 26.5451C68.7602 26.7658 68.3687 25.5522 68.3687 25.5522Z" fill="white"/>
<path opacity="0.6" d="M62.3754 8.07751H28.4143V25.086H62.3754V8.07751Z" fill="#FFF3EA"/>
<path d="M58.6837 16.5336C58.6837 17.4968 58.398 18.4384 57.8629 19.2393C57.3277 20.0401 56.567 20.6643 55.6771 21.0328C54.7872 21.4014 53.8079 21.4977 52.8633 21.3097C51.9186 21.1217 51.0509 20.6577 50.3699 19.9765C49.6889 19.2953 49.2252 18.4274 49.0375 17.4827C48.8497 16.538 48.9464 15.5588 49.3152 14.6689C49.6841 13.7791 50.3085 13.0187 51.1095 12.4838C51.9105 11.9489 52.8522 11.6635 53.8154 11.6638C53.9475 11.6638 54.0765 11.6638 54.2055 11.6809L53.9226 16.4979L58.4972 15.2051C58.6215 15.6369 58.6843 16.0842 58.6837 16.5336Z" fill="#FFBA61"/>
<path d="M59.0797 14.3614L54.5051 15.6526L54.7879 10.8357C55.7776 10.9152 56.7192 11.2957 57.4864 11.9259C58.2535 12.5561 58.8095 13.406 59.0797 14.3614Z" fill="#F28227"/>
<path d="M45.8485 13.3513H44.7717V21.7359H45.8485V13.3513Z" fill="#FAEFBB"/>
<path d="M43.2878 13.9775H42.2109V21.7344H43.2878V13.9775Z" fill="#FAEFBB"/>
<path d="M40.7271 15.7551H39.6503V21.7344H40.7271V15.7551Z" fill="#FAEFBB"/>
<path d="M38.1663 15.3309H37.0895V21.7344H38.1663V15.3309Z" fill="#FAEFBB"/>
<path d="M35.6055 17.1614H34.5287V21.7359H35.6055V17.1614Z" fill="#FAEFBB"/>
<path d="M33.0447 18.1683H31.9679V21.7344H33.0447V18.1683Z" fill="#FAEFBB"/>
<path d="M47.0669 10.0448H46.7639V22.0794H47.0669V10.0448Z" fill="#FFBA61"/>
<path d="M32.5054 17.0388L35.0661 15.4336L37.6269 13.6591L40.0369 14.4096L42.7484 11.9173L45.3091 10.5872" stroke="#F28227" stroke-width="0.156963" stroke-miterlimit="10"/>
<path d="M44.8215 10.1707L45.7989 10.4208L45.3094 11.3034L44.8215 10.1707Z" fill="#F28227"/>
<path d="M90.9462 7.23076V11.7105C90.9472 11.9152 90.9077 12.1181 90.8301 12.3076C90.7525 12.497 90.6382 12.6692 90.4938 12.8143C90.3494 12.9594 90.1778 13.0746 89.9887 13.1531C89.7997 13.2317 89.597 13.2722 89.3923 13.2722H82.3021L78.6443 17.6602C78.6987 17.5468 79.9853 14.767 80.6379 13.2722H80.2044C79.7915 13.2701 79.3963 13.1047 79.1051 12.812C78.814 12.5194 78.6505 12.1234 78.6505 11.7105V7.23076C78.6525 6.81929 78.8169 6.42524 79.1079 6.13428C79.3988 5.84331 79.7929 5.67895 80.2044 5.67691H89.383C89.5878 5.67568 89.7909 5.71496 89.9805 5.7925C90.1701 5.87004 90.3425 5.9843 90.4878 6.12871C90.633 6.27312 90.7483 6.44484 90.827 6.63397C90.9057 6.8231 90.9462 7.02592 90.9462 7.23076Z" fill="#FBD4B7"/>
<path d="M89.1559 7.2572H80.4341V7.56176H89.1559V7.2572Z" fill="white"/>
<path d="M89.1559 8.60596H80.4341V8.91051H89.1559V8.60596Z" fill="white"/>
<path d="M89.1559 9.92981H80.4341V10.2344H89.1559V9.92981Z" fill="white"/>
<path d="M89.1559 11.162H80.4341V11.4665H89.1559V11.162Z" fill="white"/>
<path d="M69.0117 2.39973C66.9329 1.93255 64.7538 2.29611 62.9392 3.41285L63.5794 4.46481C65.0439 3.56344 66.7909 3.23781 68.4818 3.55101C70.1727 3.86422 71.6871 4.79396 72.7316 6.16006L73.7059 5.41266C72.5449 3.88679 70.8824 2.81978 69.0117 2.39973Z" fill="#FBFFFF"/>
<path d="M68.566 4.37784C67.003 4.02563 65.3642 4.2995 64.0007 5.14079L64.6425 6.18809C65.6794 5.54905 66.9168 5.31809 68.1144 5.54004C69.3121 5.762 70.3845 6.42104 71.1236 7.38922L72.0979 6.64181C71.2245 5.49415 69.9735 4.69223 68.566 4.37784Z" fill="#FBFFFF"/>
<path d="M68.0764 6.55786C67.0802 6.33296 66.0355 6.50698 65.166 7.04266L65.8062 8.08996C66.374 7.74053 67.0512 7.61416 67.7068 7.73529C68.3624 7.85642 68.9498 8.21644 69.3552 8.74569L70.3279 8.00139C69.7719 7.26887 68.9741 6.75736 68.0764 6.55786Z" fill="#FBFFFF"/>
<path d="M68.2613 9.51182C68.2309 9.65353 68.1656 9.78543 68.0716 9.89569C67.9775 10.006 67.8575 10.0911 67.7223 10.1435C67.5872 10.1959 67.4412 10.2139 67.2973 10.1959C67.1535 10.1779 67.0164 10.1244 66.8984 10.0403C66.7804 9.95619 66.6851 9.84406 66.6211 9.714C66.5571 9.58395 66.5264 9.44003 66.5319 9.29519C66.5373 9.15035 66.5786 9.00912 66.6521 8.8842C66.7256 8.75928 66.829 8.65458 66.953 8.57951C67.1368 8.46583 67.3564 8.42465 67.569 8.464C67.7816 8.50336 67.9719 8.62042 68.1028 8.79239C68.1799 8.89362 68.234 9.01041 68.2614 9.13464C68.2887 9.25888 68.2887 9.38759 68.2613 9.51182Z" fill="#FBFFFF"/>
<path d="M70.3279 8.00139L69.3552 8.74569C68.9498 8.21644 68.3624 7.85642 67.7068 7.73529C67.0512 7.61416 66.374 7.74054 65.8062 8.08996L65.166 7.04266C65.9923 6.53441 66.9778 6.35109 67.9316 6.52823C68.8853 6.70537 69.7393 7.23035 70.3279 8.00139Z" fill="#FBFFFF"/>
<path d="M72.0979 6.64029L71.1236 7.3877C70.3845 6.41951 69.3121 5.76048 68.1144 5.53852C66.9168 5.31657 65.6794 5.54753 64.6425 6.18657L64.0007 5.13927C65.2963 4.34087 66.8422 4.05236 68.3385 4.32974C69.8348 4.60711 71.1746 5.43059 72.0979 6.64029Z" fill="#FBFFFF"/>
<path d="M73.7059 5.40813L72.7316 6.15553C71.6864 4.79018 70.1717 3.86136 68.4808 3.54903C66.79 3.23669 65.0434 3.56307 63.5794 4.46494L62.9392 3.41764C64.662 2.35667 66.7174 1.97333 68.7067 2.34198C70.6961 2.71063 72.4777 3.80498 73.7059 5.41279V5.40813Z" fill="#FBFFFF"/>
<defs>
<linearGradient id="paint0_linear_25_8887" x1="80.341" y1="48.3023" x2="79.9028" y2="31.3947" gradientUnits="userSpaceOnUse">
<stop stop-color="#9A99C1" stop-opacity="0"/>
<stop offset="1" stop-color="#9A99C1"/>
</linearGradient>
<linearGradient id="paint1_linear_25_8887" x1="75.807" y1="48.4204" x2="75.3688" y2="31.5129" gradientUnits="userSpaceOnUse">
<stop stop-color="#9A99C1" stop-opacity="0"/>
<stop offset="1" stop-color="#9A99C1"/>
</linearGradient>
<linearGradient id="paint2_linear_25_8887" x1="65.5919" y1="48.6846" x2="65.1537" y2="31.777" gradientUnits="userSpaceOnUse">
<stop stop-color="#9A99C1" stop-opacity="0"/>
<stop offset="1" stop-color="#9A99C1"/>
</linearGradient>
<linearGradient id="paint3_linear_25_8887" x1="60.6241" y1="48.8133" x2="60.1859" y2="31.9058" gradientUnits="userSpaceOnUse">
<stop stop-color="#9A99C1" stop-opacity="0"/>
<stop offset="1" stop-color="#9A99C1"/>
</linearGradient>
<linearGradient id="paint4_linear_25_8887" x1="55.0815" y1="48.9564" x2="54.6433" y2="32.0505" gradientUnits="userSpaceOnUse">
<stop stop-color="#9A99C1" stop-opacity="0"/>
<stop offset="1" stop-color="#9A99C1"/>
</linearGradient>
<linearGradient id="paint5_linear_25_8887" x1="49.3929" y1="49.104" x2="48.9548" y2="32.1965" gradientUnits="userSpaceOnUse">
<stop stop-color="#9A99C1" stop-opacity="0"/>
<stop offset="1" stop-color="#9A99C1"/>
</linearGradient>
</defs>
</svg>
