<svg width="95" height="78" viewBox="0 0 95 78" fill="none" xmlns="http://www.w3.org/2000/svg">
<path d="M58.8283 50.1353C58.859 49.2368 58.9706 48.2517 59.618 47.6239C60.6114 46.6668 62.3833 47.1356 63.2456 48.2099C64.1078 49.2842 64.3115 50.7352 64.4817 52.1165C63.3265 45.3329 62.4224 37.5476 66.8843 32.3044C67.4005 31.6989 68.0228 31.1212 68.7985 30.9454C69.9789 30.6831 71.1983 31.4589 71.8122 32.5025C72.4261 33.5461 72.5628 34.7907 72.6493 35.9961C72.8825 39.6554 72.6952 43.3293 72.0912 46.9458C72.092 45.36 72.4425 43.7938 73.1178 42.3589C73.793 40.924 74.7764 39.6557 75.9979 38.6443C76.143 39.3642 76.2769 40.0841 76.4304 40.8041C76.0454 34.9847 77.4432 29.1862 80.4374 24.1814C81.7741 21.9491 83.9534 19.6888 86.5122 20.113C88.6525 20.4674 90.0505 22.6244 90.5751 24.7228C91.7694 29.5028 89.8663 34.5116 87.4107 38.7838C84.9204 43.1212 81.8433 47.0942 78.2665 50.5901C79.2431 49.2256 81.4894 49.234 82.7089 50.3892C83.9283 51.5445 84.1655 53.481 83.6297 55.0716C83.0939 56.6621 81.8996 57.9541 80.5937 59.0117C77.9237 61.1663 74.6982 62.5208 71.2904 62.9183C62.7712 63.8838 58.5799 57.7588 58.8283 50.1353Z" fill="#7BB3E8"/>
<path d="M65.478 60.4628C65.478 60.4628 85.3125 43.5136 85.9598 22.0747" stroke="#244E80" stroke-width="0.237187" stroke-linecap="round" stroke-linejoin="round"/>
<path d="M81.3501 26.6846C81.3501 26.6846 81.6822 32.6143 83.2867 35.1201" stroke="#244E80" stroke-width="0.237187" stroke-linecap="round" stroke-linejoin="round"/>
<path d="M80.8198 40.6871C80.8198 40.6871 82.6364 41.6665 84.7822 39.6462" stroke="#244E80" stroke-width="0.237187" stroke-linecap="round" stroke-linejoin="round"/>
<path d="M68.8042 33.7639C68.8042 33.7639 66.3318 44.8978 70.5705 55.3619" stroke="#244E80" stroke-width="0.237187" stroke-linecap="round" stroke-linejoin="round"/>
<path d="M68.0872 57.9933C68.0872 57.9933 74.3796 58.8555 81.3501 53.4951" stroke="#244E80" stroke-width="0.237187" stroke-linecap="round" stroke-linejoin="round"/>
<path d="M60.7566 48.7764C60.7566 48.7764 62.2411 56.8072 66.4854 59.5475" stroke="#244E80" stroke-width="0.237187" stroke-linecap="round" stroke-linejoin="round"/>
<path d="M68.1485 43.9517C68.1485 43.9517 65.478 42.3249 65.478 37.2407" stroke="#244E80" stroke-width="0.237187" stroke-linecap="round" stroke-linejoin="round"/>
<path d="M74.7087 57.0752C74.7087 57.0752 75.1636 59.115 78.8749 58.0435" stroke="#244E80" stroke-width="0.237187" stroke-linecap="round" stroke-linejoin="round"/>
<path d="M75.719 48.9772C75.719 48.9772 74.1899 45.2352 74.8819 41.27" stroke="#244E80" stroke-width="0.237187" stroke-linecap="round" stroke-linejoin="round"/>
<path d="M32.1016 54.134C32.0737 53.2355 31.962 52.2505 31.3147 51.6226C30.3213 50.6627 28.5465 51.1315 27.6871 52.2086C26.8276 53.2857 26.6211 54.72 26.4509 56.1013C27.609 49.3177 28.5103 41.5352 24.0512 36.2892C23.5321 35.6808 22.9126 35.1032 22.1341 34.9302C20.9538 34.6651 19.7343 35.4437 19.1204 36.4845C18.5065 37.5253 18.3698 38.7726 18.2833 39.9781C18.053 43.6383 18.2402 47.3128 18.8414 50.9306C18.8414 49.3446 18.4912 47.7782 17.8159 46.3432C17.1406 44.9082 16.1568 43.6399 14.9348 42.629C14.7925 43.349 14.6557 44.0689 14.5051 44.7888C14.8906 38.9705 13.4959 33.1726 10.5064 28.1662C9.16974 25.9338 6.99041 23.6764 4.43158 24.0977C2.28852 24.4521 0.893306 26.6091 0.365913 28.7075C-0.828395 33.4904 1.07747 38.4964 3.53027 42.7713C6.02231 47.1084 9.1003 51.0812 12.6773 54.5777C11.7007 53.2104 9.45158 53.2187 8.23495 54.3768C7.01832 55.5348 6.77555 57.4658 7.3141 59.0591C7.85266 60.6525 9.04138 61.9417 10.3473 62.9964C13.0179 65.15 16.2431 66.5043 19.6506 66.9031C28.1615 67.8797 32.3527 61.7575 32.1016 54.134Z" fill="#7BB3E8"/>
<path d="M25.4519 64.4643C25.4519 64.4643 5.61468 47.5208 4.97009 26.0735" stroke="#244E80" stroke-width="0.237187" stroke-linecap="round" stroke-linejoin="round"/>
<path d="M9.5828 30.6777C9.5828 30.6777 9.24795 36.6074 7.64624 39.1104" stroke="#244E80" stroke-width="0.237187" stroke-linecap="round" stroke-linejoin="round"/>
<path d="M10.1129 44.6856C10.1129 44.6856 8.29357 45.6678 6.15051 43.6448" stroke="#244E80" stroke-width="0.237187" stroke-linecap="round" stroke-linejoin="round"/>
<path d="M22.1285 37.7627C22.1285 37.7627 24.6009 48.8993 20.3622 59.3607" stroke="#244E80" stroke-width="0.237187" stroke-linecap="round" stroke-linejoin="round"/>
<path d="M22.8457 61.9918C22.8457 61.9918 16.5505 62.8541 9.58276 57.4937" stroke="#244E80" stroke-width="0.237187" stroke-linecap="round" stroke-linejoin="round"/>
<path d="M30.1705 52.7751C30.1705 52.7751 28.686 60.8088 24.4418 63.5462" stroke="#244E80" stroke-width="0.237187" stroke-linecap="round" stroke-linejoin="round"/>
<path d="M22.7815 47.9505C22.7815 47.9505 25.4519 46.3264 25.4519 41.2534" stroke="#244E80" stroke-width="0.237187" stroke-linecap="round" stroke-linejoin="round"/>
<path d="M16.2129 61.074C16.2129 61.074 15.758 63.1166 12.0468 62.0451" stroke="#244E80" stroke-width="0.237187" stroke-linecap="round" stroke-linejoin="round"/>
<path d="M15.2111 52.976C15.2111 52.976 16.7402 49.2368 16.0482 45.2688" stroke="#244E80" stroke-width="0.237187" stroke-linecap="round" stroke-linejoin="round"/>
<path d="M24.799 45.9803L22.8429 49.1251H26.0045V45.531L24.799 45.9803Z" fill="#C98935"/>
<path d="M34.6381 63.1808L24.785 67.3943V45.9805L34.6381 42.3362V63.1808Z" fill="#6D460C"/>
<path d="M66.5411 42.3362H34.6492V63.1054H66.5411V42.3362Z" fill="#6D460C"/>
<path d="M38.1004 24.2585L37.5374 52.4084L65.6873 52.9714L66.2503 24.8215L38.1004 24.2585Z" fill="white"/>
<path d="M39.4618 25.9274L39.1013 44.7036L64.2915 45.1873L64.6521 26.4111L39.4618 25.9274Z" fill="#151C44"/>
<path d="M63.159 44.3088L63.2902 37.5281L59.6124 33.7052C59.4933 33.5816 59.3511 33.4827 59.1938 33.4142C59.0365 33.3456 58.8673 33.3087 58.6957 33.3056C58.5241 33.3025 58.3537 33.3332 58.194 33.3961C58.0343 33.4589 57.8886 33.5525 57.7651 33.6717L51.4532 39.7465C51.2129 39.9769 50.8911 40.1025 50.5583 40.0957C50.2255 40.0889 49.909 39.9502 49.6784 39.7102L46.2964 36.197C46.0766 35.9692 45.7752 35.8379 45.4587 35.8322C45.1421 35.8264 44.8362 35.9466 44.6082 36.1663L40.3221 40.2906L40.2551 43.8707L63.159 44.3088Z" fill="white"/>
<path d="M45.172 30.1196C45.1653 30.4889 45.0493 30.8478 44.8385 31.1511C44.6278 31.4544 44.3318 31.6883 43.988 31.8234C43.6443 31.9584 43.2682 31.9884 42.9074 31.9097C42.5466 31.8309 42.2173 31.6469 41.961 31.3809C41.7048 31.1149 41.5333 30.7789 41.4681 30.4154C41.4028 30.0519 41.4469 29.6772 41.5947 29.3388C41.7425 29.0003 41.9873 28.7133 42.2983 28.5141C42.6092 28.3148 42.9723 28.2122 43.3415 28.2193C43.8361 28.2289 44.3068 28.4344 44.65 28.7907C44.9932 29.147 45.181 29.625 45.172 30.1196Z" fill="white"/>
<path d="M37.7185 25.4592L33.3732 53.2717L61.1857 57.6171L65.5311 29.8046L37.7185 25.4592Z" fill="white"/>
<path d="M38.9209 27.3434L36.022 45.8979L60.9149 49.7872L63.8138 31.2326L38.9209 27.3434Z" fill="#151C44"/>
<path d="M59.9196 48.7625L60.966 42.0655L57.8379 37.7794C57.6328 37.5005 57.3254 37.3144 56.9832 37.2621C56.641 37.2098 56.292 37.2954 56.0129 37.5003L48.9364 42.6654C48.6669 42.8605 48.331 42.9408 48.0025 42.8884C47.6739 42.8361 47.3795 42.6555 47.184 42.3864L44.2931 38.4435C44.2005 38.3161 44.0837 38.2083 43.9493 38.1263C43.8149 38.0442 43.6656 37.9896 43.51 37.9654C43.3543 37.9413 43.1955 37.9482 43.0426 37.9857C42.8896 38.0232 42.7456 38.0906 42.6188 38.184L37.8137 41.6916L37.2556 45.2298L59.9196 48.7625Z" fill="white"/>
<path d="M44.0138 32.2627C43.957 32.627 43.7934 32.9662 43.5438 33.2375C43.2942 33.5088 42.9697 33.7 42.6114 33.7869C42.2531 33.8737 41.8771 33.8524 41.5309 33.7256C41.1848 33.5988 40.884 33.3722 40.6666 33.0744C40.4492 32.7766 40.325 32.4211 40.3097 32.0527C40.2944 31.6844 40.3887 31.3198 40.5806 31.005C40.7725 30.6902 41.0535 30.4394 41.3879 30.2843C41.7224 30.1292 42.0953 30.0768 42.4596 30.1336C42.948 30.2099 43.3862 30.477 43.6776 30.8763C43.9691 31.2756 44.0901 31.7743 44.0138 32.2627Z" fill="white"/>
<path d="M48.8435 22.1457L21.4565 28.655L27.9659 56.042L55.3529 49.5327L48.8435 22.1457Z" fill="white"/>
<path d="M47.7938 24.1188L23.2817 29.9448L27.6243 48.2155L52.1363 42.3895L47.7938 24.1188Z" fill="#151C44"/>
<path d="M50.8255 41.8395L49.2572 35.2401L44.7423 32.4497C44.4466 32.2681 44.0909 32.2113 43.7534 32.2919C43.4159 32.3725 43.1242 32.5838 42.9425 32.8794L38.3494 40.3382C38.2629 40.4786 38.1496 40.6005 38.0159 40.697C37.8822 40.7935 37.7308 40.8626 37.5703 40.9005C37.4099 40.9383 37.2435 40.9441 37.0808 40.9176C36.9181 40.891 36.7622 40.8326 36.6221 40.7456L32.47 38.1896C32.3367 38.107 32.1885 38.0516 32.0337 38.0265C31.879 38.0014 31.7208 38.0072 31.5683 38.0435C31.4158 38.0798 31.272 38.146 31.1451 38.2381C31.0183 38.3302 30.9109 38.4465 30.8292 38.5803L27.7095 43.6449L28.5466 47.1274L50.8255 41.8395Z" fill="white"/>
<path d="M29.8608 32.5779C29.9469 32.9372 29.9245 33.3139 29.7964 33.6603C29.6683 34.0068 29.4403 34.3075 29.1412 34.5244C28.8422 34.7412 28.4855 34.8645 28.1164 34.8785C27.7472 34.8926 27.3822 34.7968 27.0676 34.6033C26.7529 34.4098 26.5027 34.1273 26.3486 33.7915C26.1946 33.4558 26.1436 33.0819 26.2022 32.7171C26.2608 32.3524 26.4262 32.0132 26.6776 31.7426C26.929 31.4719 27.255 31.2819 27.6145 31.1967C28.0955 31.0825 28.6021 31.1639 29.0232 31.4228C29.4443 31.6818 29.7456 32.0972 29.8608 32.5779Z" fill="white"/>
<path d="M56.6909 45.9805H24.799V67.3943H56.6909V45.9805Z" fill="#FAB442"/>
<path d="M66.544 63.1808L56.6909 67.3943V45.9805L66.544 42.3362V63.1808Z" fill="#EAA43F"/>
<path d="M56.6909 45.9805L58.7865 50.2192L69.5521 45.9805L66.544 42.3362L56.6909 45.9805Z" fill="#FAB442"/>
<path d="M33.4521 62.5891L29.7101 58.8472L25.9709 62.5891H27.7038V66.1525H31.7192V62.5891H33.4521Z" fill="#B57324"/>
<path d="M42.6243 65.3628V66.1525H43.414" stroke="#B57324" stroke-width="0.279044" stroke-miterlimit="10"/>
<path d="M44.946 66.1526H53.3648" stroke="#B57324" stroke-width="0.279044" stroke-miterlimit="10" stroke-dasharray="1.53 1.53"/>
<path d="M54.1294 66.1525H54.9219V65.3628" stroke="#B57324" stroke-width="0.279044" stroke-miterlimit="10"/>
<path d="M54.9219 63.8309V55.4121" stroke="#B57324" stroke-width="0.279044" stroke-miterlimit="10" stroke-dasharray="1.53 1.53"/>
<path d="M54.9219 54.6475V53.855H54.1294" stroke="#B57324" stroke-width="0.279044" stroke-miterlimit="10"/>
<path d="M52.6001 53.855H44.1814" stroke="#B57324" stroke-width="0.279044" stroke-miterlimit="10" stroke-dasharray="1.53 1.53"/>
<path d="M43.414 53.855H42.6243V54.6475" stroke="#B57324" stroke-width="0.279044" stroke-miterlimit="10"/>
<path d="M42.6243 56.1768V64.5955" stroke="#B57324" stroke-width="0.279044" stroke-miterlimit="10" stroke-dasharray="1.53 1.53"/>
<path d="M51.9249 59.2881C51.7556 59.2888 51.5873 59.3142 51.4254 59.3634C51.2814 58.7591 50.9385 58.2206 50.4518 57.8346C49.965 57.4485 49.3627 57.2372 48.7414 57.2346C48.1201 57.2321 47.516 57.4384 47.0261 57.8204C46.5362 58.2024 46.1888 58.738 46.0398 59.3411C45.8022 59.2808 45.5545 59.2718 45.3131 59.3147C45.0718 59.3576 44.8423 59.4514 44.6399 59.5898C44.4376 59.7282 44.2671 59.9081 44.1396 60.1175C44.0122 60.3269 43.9308 60.5611 43.9009 60.8044C43.8709 61.0477 43.8931 61.2946 43.966 61.5287C44.0388 61.7628 44.1607 61.9787 44.3234 62.162C44.4862 62.3453 44.6861 62.4919 44.9098 62.5921C45.1336 62.6922 45.3761 62.7435 45.6213 62.7426H48.3085C48.5858 62.7867 48.8683 62.7867 49.1456 62.7426H51.9193C52.3774 62.7426 52.8167 62.5607 53.1407 62.2367C53.4646 61.9128 53.6466 61.4735 53.6466 61.0154C53.6466 60.5573 53.4646 60.1179 53.1407 59.794C52.8167 59.4701 52.3774 59.2881 51.9193 59.2881H51.9249Z" fill="#B57324"/>
<path d="M37.0184 35.2568C37.155 35.4026 37.2512 35.5815 37.2974 35.7758C37.3166 35.875 37.2988 35.9777 37.2474 36.0646C37.1959 36.1515 37.1145 36.2165 37.0184 36.2474C36.7226 36.3116 36.5189 35.9377 36.2287 35.84C36.1173 35.813 36.0009 35.8145 35.8902 35.8442C35.7795 35.8739 35.6781 35.931 35.5952 36.0102C35.4322 36.1711 35.2811 36.3436 35.1432 36.5265C34.7667 36.9282 34.2617 37.1858 33.7155 37.2546C33.1692 37.3234 32.6161 37.1991 32.1518 36.9032C31.9698 36.7996 31.8348 36.6296 31.7751 36.4288C31.7672 36.2983 31.7855 36.1676 31.8292 36.0444C31.8728 35.9212 31.9408 35.808 32.0291 35.7117C32.4065 35.1191 32.8513 34.5723 33.3545 34.082C33.8233 33.6551 34.6632 33.0161 35.266 33.4402C35.928 33.9655 36.5173 34.5764 37.0184 35.2568Z" fill="#EEB399"/>
<path d="M8.96887 76.5581V77.278C8.96887 77.278 13.0792 77.8891 15.6659 77.278L16.2966 77.0548L15.8836 76.5888L8.96887 76.5581Z" fill="black"/>
<path d="M18.2386 76.3628V77.0827C18.2386 77.0827 22.349 77.691 24.9357 77.0827L25.7728 76.8567L24.9357 76.3628H18.2386Z" fill="black"/>
<path d="M13.8911 33.7191H13.7767C11.8234 33.6214 10.3556 33.0075 9.39852 31.8913C9.04366 31.4808 8.77327 31.0042 8.60281 30.489C8.43235 29.9738 8.36517 29.43 8.40512 28.8888C8.40512 28.8079 8.42744 28.7242 8.44419 28.6433C9.30643 24.6474 12.5406 19.5102 12.6801 19.2953C12.8415 19.0322 13.0537 18.8038 13.3042 18.6234C13.5546 18.443 13.8385 18.3142 14.1392 18.2444C14.4399 18.1746 14.7514 18.1653 15.0557 18.2169C15.3601 18.2686 15.6511 18.3802 15.912 18.5453C16.1728 18.7103 16.3982 18.9256 16.5752 19.1785C16.7521 19.4315 16.877 19.7171 16.9426 20.0187C17.0083 20.3203 17.0133 20.632 16.9575 20.9356C16.9016 21.2392 16.786 21.5286 16.6174 21.7872C15.8723 22.9647 13.933 26.3523 13.1768 28.9419C13.4505 29.0125 13.7313 29.0528 14.0139 29.0618C14.6211 29.0916 15.1926 29.3574 15.6064 29.8026C16.0203 30.2478 16.2438 30.8372 16.2293 31.4449C16.2147 32.0526 15.9632 32.6306 15.5285 33.0554C15.0937 33.4803 14.5102 33.7185 13.9023 33.7191H13.8911Z" fill="#F6B345"/>
<path d="M15.5543 13.5024L15.7664 17.5737L17.7309 19.1838L19.4944 17.9783L19.3688 15.5311L15.5543 13.5024Z" fill="#EEB399"/>
<path d="M18.6826 17.0558L19.7304 17.0012C21.3495 16.917 22.5937 15.5361 22.5094 13.9171L22.3002 9.89869C22.2159 8.27963 20.8351 7.03544 19.216 7.11973L18.1682 7.17427C16.5492 7.25856 15.305 8.6394 15.3893 10.2585L15.5984 14.2768C15.6827 15.8959 17.0636 17.1401 18.6826 17.0558Z" fill="#EEB399"/>
<path d="M24.827 36.3618L24.9414 76.3628C24.9414 76.3628 20.5911 76.8622 18.2443 76.3628V41.9985L15.8948 76.5999C15.8948 76.5999 11.6756 76.879 8.97449 76.5999L12.6383 37.3468L24.827 36.3618Z" fill="#F26739"/>
<path d="M16.037 17.4957C16.037 17.4957 12.0858 17.4957 12.3871 21.7455C12.6885 25.9953 13.2382 28.5235 12.7359 31.2804C12.2337 34.0374 12.3704 37.6538 12.3704 37.6538C12.3704 37.6538 20.5408 40.3298 24.9915 37.3999C24.9915 37.3999 24.3414 23.5816 24.1907 21.4553C24.04 19.329 22.0448 17.4706 18.8888 17.4929L15.7357 17.5152" fill="#F6B345"/>
<path d="M19.1539 37.4863C16.7995 37.4983 14.4696 37.0074 12.3201 36.0465C12.3029 36.0365 12.2901 36.0203 12.2843 36.0013C12.2786 35.9822 12.2803 35.9616 12.2893 35.9438C12.2982 35.926 12.3135 35.9123 12.3322 35.9054C12.351 35.8986 12.3716 35.8991 12.3899 35.9069C12.4485 35.9376 18.2247 38.8229 24.799 36.2892C24.8085 36.2852 24.8187 36.2832 24.829 36.2833C24.8393 36.2834 24.8494 36.2856 24.8589 36.2898C24.8683 36.294 24.8767 36.3 24.8837 36.3076C24.8907 36.3152 24.896 36.3241 24.8994 36.3339C24.906 36.3532 24.905 36.3742 24.8968 36.3928C24.8885 36.4115 24.8735 36.4263 24.8548 36.4343C23.0356 37.1336 21.1028 37.4903 19.1539 37.4863Z" fill="#BC802A"/>
<path d="M12.4317 34.0428C12.4214 34.0429 12.4111 34.0407 12.4015 34.0366C12.392 34.0325 12.3835 34.0264 12.3764 34.0188C12.3693 34.0112 12.3639 34.0023 12.3604 33.9925C12.357 33.9827 12.3556 33.9723 12.3564 33.9619C12.4034 33.0579 12.5059 32.1577 12.6633 31.2663C13.0205 29.2963 12.8419 27.4825 12.5964 24.9711C12.5015 24.0224 12.3955 22.948 12.3173 21.7509C12.3165 21.7304 12.3236 21.7103 12.337 21.6947C12.3505 21.6792 12.3694 21.6693 12.3899 21.6672C12.41 21.6681 12.4291 21.6758 12.4443 21.689C12.4595 21.7021 12.4698 21.72 12.4736 21.7398C12.5573 22.9341 12.6633 24.0084 12.7526 24.9572C12.9926 27.3848 13.1796 29.3019 12.8196 31.2942C12.6622 32.179 12.5606 33.0728 12.5154 33.9703C12.5147 33.9805 12.512 33.9906 12.5074 33.9998C12.5028 34.009 12.4964 34.0172 12.4887 34.024C12.4809 34.0307 12.4719 34.0358 12.4621 34.0391C12.4523 34.0423 12.442 34.0436 12.4317 34.0428Z" fill="#BC802A"/>
<path d="M18.8275 42.2552C16.8343 42.2535 14.9226 41.4641 13.5089 40.0591C13.496 40.0435 13.4896 40.0234 13.4912 40.0031C13.4928 39.9829 13.5022 39.9641 13.5174 39.9507C13.5327 39.9372 13.5525 39.9303 13.5728 39.9312C13.5931 39.9322 13.6122 39.941 13.6261 39.9559C14.5547 40.874 15.7086 41.5315 16.9719 41.8621C18.2352 42.1928 19.5633 42.1849 20.8226 41.8394C20.8325 41.8365 20.8429 41.8356 20.8532 41.8369C20.8634 41.8381 20.8733 41.8415 20.8822 41.8467C20.8911 41.8519 20.8988 41.859 20.9049 41.8673C20.911 41.8756 20.9153 41.8851 20.9175 41.8952C20.9226 41.9152 20.9196 41.9364 20.9092 41.9541C20.8987 41.9719 20.8816 41.9848 20.8617 41.9901C20.1973 42.1628 19.514 42.2519 18.8275 42.2552Z" fill="#AF4022"/>
<path d="M12.7443 37.7264C12.7238 37.7257 12.7043 37.7172 12.6898 37.7027C12.6753 37.6882 12.6668 37.6687 12.6661 37.6482V36.5628C12.6661 36.542 12.6744 36.5222 12.689 36.5075C12.7037 36.4928 12.7235 36.4846 12.7443 36.4846C12.765 36.4846 12.7849 36.4928 12.7995 36.5075C12.8142 36.5222 12.8224 36.542 12.8224 36.5628V37.6538C12.8204 37.6733 12.8113 37.6914 12.797 37.7048C12.7826 37.7181 12.7639 37.7258 12.7443 37.7264Z" fill="#BC802A"/>
<path d="M13.255 37.6538C13.2448 37.6538 13.2348 37.6518 13.2255 37.6479C13.2161 37.6439 13.2077 37.6381 13.2007 37.6308C13.1936 37.6235 13.1881 37.6149 13.1845 37.6054C13.1809 37.5959 13.1792 37.5858 13.1796 37.5757V36.8167C13.1775 36.8054 13.1778 36.7938 13.1807 36.7826C13.1835 36.7715 13.1888 36.7611 13.1961 36.7522C13.2035 36.7434 13.2127 36.7362 13.2231 36.7313C13.2335 36.7264 13.2448 36.7239 13.2564 36.7239C13.2679 36.7239 13.2792 36.7264 13.2896 36.7313C13.3 36.7362 13.3092 36.7434 13.3166 36.7522C13.3239 36.7611 13.3292 36.7715 13.332 36.7826C13.3349 36.7938 13.3353 36.8054 13.3331 36.8167V37.5841C13.3317 37.6036 13.3227 37.6217 13.3081 37.6348C13.2936 37.6478 13.2745 37.6546 13.255 37.6538Z" fill="#BC802A"/>
<path d="M13.8075 37.9328C13.7868 37.9328 13.7669 37.9246 13.7523 37.9099C13.7376 37.8952 13.7294 37.8754 13.7294 37.8546V36.9673C13.7294 36.9466 13.7376 36.9267 13.7523 36.912C13.7669 36.8974 13.7868 36.8892 13.8075 36.8892C13.8282 36.8892 13.8481 36.8974 13.8627 36.912C13.8774 36.9267 13.8856 36.9466 13.8856 36.9673V37.8546C13.8856 37.8754 13.8774 37.8952 13.8627 37.9099C13.8481 37.9246 13.8282 37.9328 13.8075 37.9328Z" fill="#BC802A"/>
<path d="M14.4576 38.0611C14.4369 38.0611 14.4171 38.0529 14.4024 38.0383C14.3877 38.0236 14.3795 38.0037 14.3795 37.983V37.2714C14.3795 37.2613 14.3815 37.2513 14.3855 37.242C14.3895 37.2326 14.3953 37.2242 14.4026 37.2172C14.4099 37.2101 14.4185 37.2046 14.428 37.201C14.4374 37.1974 14.4475 37.1957 14.4576 37.1961C14.4779 37.1961 14.4974 37.2039 14.5119 37.218C14.5265 37.232 14.5351 37.2512 14.5358 37.2714V37.983C14.5351 38.0035 14.5266 38.023 14.5121 38.0375C14.4976 38.052 14.4781 38.0604 14.4576 38.0611Z" fill="#BC802A"/>
<path d="M15.0464 38.2118C15.0264 38.2118 15.0073 38.2038 14.9931 38.1897C14.979 38.1756 14.9711 38.1564 14.9711 38.1364V37.344C14.9745 37.3261 14.984 37.31 14.998 37.2984C15.012 37.2868 15.0296 37.2805 15.0478 37.2805C15.066 37.2805 15.0836 37.2868 15.0976 37.2984C15.1116 37.31 15.1211 37.3261 15.1245 37.344V38.1364C15.1246 38.1466 15.1225 38.1566 15.1186 38.1659C15.1146 38.1753 15.1088 38.1837 15.1015 38.1907C15.0942 38.1977 15.0856 38.2032 15.0761 38.2069C15.0666 38.2105 15.0565 38.2121 15.0464 38.2118Z" fill="#BC802A"/>
<path d="M15.6184 38.3401C15.5977 38.3401 15.5778 38.3319 15.5632 38.3172C15.5485 38.3026 15.5403 38.2827 15.5403 38.262V37.4695C15.5403 37.4488 15.5485 37.4289 15.5632 37.4142C15.5778 37.3996 15.5977 37.3914 15.6184 37.3914C15.6391 37.3914 15.659 37.3996 15.6737 37.4142C15.6883 37.4289 15.6965 37.4488 15.6965 37.4695V38.262C15.6965 38.2827 15.6883 38.3026 15.6737 38.3172C15.659 38.3319 15.6391 38.3401 15.6184 38.3401Z" fill="#BC802A"/>
<path d="M16.2881 38.3373C16.2676 38.3366 16.2481 38.3282 16.2336 38.3137C16.2191 38.2992 16.2107 38.2797 16.21 38.2592V37.5086C16.21 37.4878 16.2182 37.468 16.2328 37.4533C16.2475 37.4386 16.2674 37.4304 16.2881 37.4304C16.3088 37.4304 16.3287 37.4386 16.3433 37.4533C16.358 37.468 16.3662 37.4878 16.3662 37.5086V38.2592C16.3655 38.2797 16.3571 38.2992 16.3426 38.3137C16.3281 38.3282 16.3086 38.3366 16.2881 38.3373Z" fill="#BC802A"/>
<path d="M16.8574 38.3737C16.8472 38.3737 16.8372 38.3717 16.8279 38.3677C16.8186 38.3637 16.8101 38.3579 16.8031 38.3507C16.7961 38.3434 16.7906 38.3347 16.7869 38.3253C16.7833 38.3158 16.7817 38.3057 16.782 38.2956V37.6538C16.7855 37.6359 16.795 37.6198 16.809 37.6082C16.823 37.5967 16.8406 37.5903 16.8588 37.5903C16.8769 37.5903 16.8945 37.5967 16.9086 37.6082C16.9226 37.6198 16.9321 37.6359 16.9355 37.6538V38.3039C16.9341 38.3234 16.9251 38.3416 16.9105 38.3546C16.896 38.3676 16.8769 38.3745 16.8574 38.3737Z" fill="#BC802A"/>
<path d="M17.3709 38.5774C17.3504 38.5767 17.3309 38.5683 17.3164 38.5537C17.3019 38.5392 17.2934 38.5198 17.2927 38.4993V37.7263C17.2927 37.7056 17.301 37.6857 17.3156 37.6711C17.3303 37.6564 17.3501 37.6482 17.3709 37.6482C17.3916 37.6482 17.4114 37.6564 17.4261 37.6711C17.4408 37.6857 17.449 37.7056 17.449 37.7263V38.4909C17.4497 38.5018 17.4483 38.5127 17.4448 38.5229C17.4412 38.5332 17.4356 38.5427 17.4283 38.5508C17.421 38.5588 17.4122 38.5654 17.4023 38.5699C17.3924 38.5745 17.3817 38.5771 17.3709 38.5774Z" fill="#BC802A"/>
<path d="M18.0629 38.4323C18.0527 38.4327 18.0426 38.431 18.0332 38.4274C18.0237 38.4238 18.0151 38.4183 18.0078 38.4112C18.0005 38.4042 17.9947 38.3958 17.9907 38.3864C17.9868 38.3771 17.9847 38.3671 17.9847 38.3569V37.863C17.9847 37.8528 17.9868 37.8426 17.9907 37.8331C17.9946 37.8237 18.0004 37.815 18.0076 37.8078C18.0149 37.8005 18.0235 37.7948 18.033 37.7909C18.0425 37.7869 18.0526 37.7849 18.0629 37.7849C18.0834 37.7856 18.1028 37.7941 18.1173 37.8086C18.1319 37.8231 18.1403 37.8425 18.141 37.863V38.3569C18.1403 38.3772 18.1317 38.3963 18.1172 38.4104C18.1026 38.4245 18.0831 38.4323 18.0629 38.4323Z" fill="#BC802A"/>
<path d="M18.5316 38.5913C18.5111 38.5906 18.4917 38.5822 18.4771 38.5677C18.4626 38.5532 18.4542 38.5337 18.4535 38.5132V37.9021C18.4542 37.8816 18.4626 37.8621 18.4771 37.8476C18.4917 37.8331 18.5111 37.8247 18.5316 37.824C18.5523 37.824 18.5722 37.8322 18.5869 37.8469C18.6015 37.8615 18.6098 37.8814 18.6098 37.9021V38.5132C18.6098 38.5339 18.6015 38.5538 18.5869 38.5685C18.5722 38.5831 18.5523 38.5913 18.5316 38.5913Z" fill="#BC802A"/>
<path d="M18.9837 38.6528C18.9736 38.6528 18.9636 38.6508 18.9542 38.6468C18.9449 38.6428 18.9365 38.637 18.9294 38.6297C18.9224 38.6224 18.9169 38.6138 18.9133 38.6043C18.9097 38.5949 18.908 38.5848 18.9084 38.5747V37.8045C18.9062 37.7932 18.9066 37.7816 18.9094 37.7704C18.9123 37.7593 18.9176 37.7489 18.9249 37.74C18.9322 37.7312 18.9414 37.724 18.9518 37.7191C18.9622 37.7142 18.9736 37.7117 18.9851 37.7117C18.9966 37.7117 19.008 37.7142 19.0184 37.7191C19.0288 37.724 19.038 37.7312 19.0453 37.74C19.0527 37.7489 19.058 37.7593 19.0608 37.7704C19.0637 37.7816 19.064 37.7932 19.0619 37.8045V38.5747C19.0622 38.585 19.0605 38.5954 19.0567 38.605C19.0529 38.6147 19.0472 38.6234 19.0398 38.6308C19.0325 38.6381 19.0237 38.6439 19.0141 38.6476C19.0044 38.6514 18.9941 38.6532 18.9837 38.6528Z" fill="#BC802A"/>
<path d="M19.4776 38.6779C19.4672 38.6783 19.4569 38.6765 19.4472 38.6727C19.4376 38.6689 19.4288 38.6632 19.4215 38.6558C19.4141 38.6485 19.4084 38.6397 19.4046 38.6301C19.4008 38.6204 19.3991 38.6101 19.3995 38.5997V37.8045C19.3995 37.7837 19.4077 37.7639 19.4224 37.7492C19.437 37.7345 19.4569 37.7263 19.4776 37.7263C19.4981 37.727 19.5176 37.7355 19.5321 37.75C19.5466 37.7645 19.555 37.7839 19.5557 37.8045V38.5997C19.5557 38.6204 19.5475 38.6403 19.5328 38.655C19.5182 38.6696 19.4983 38.6779 19.4776 38.6779Z" fill="#BC802A"/>
<path d="M20.0161 38.5132C19.9959 38.5132 19.9764 38.5054 19.9618 38.4913C19.9473 38.4773 19.9387 38.4581 19.938 38.4379V37.8045C19.9387 37.7839 19.9471 37.7645 19.9616 37.75C19.9761 37.7355 19.9956 37.727 20.0161 37.7263C20.0368 37.7263 20.0567 37.7345 20.0714 37.7492C20.086 37.7639 20.0943 37.7837 20.0943 37.8045V38.4379C20.0943 38.448 20.0922 38.458 20.0883 38.4674C20.0843 38.4767 20.0785 38.4851 20.0712 38.4922C20.0639 38.4992 20.0553 38.5047 20.0458 38.5083C20.0363 38.5119 20.0262 38.5136 20.0161 38.5132Z" fill="#BC802A"/>
<path d="M20.5212 38.4323C20.5111 38.4326 20.501 38.431 20.4916 38.4274C20.4821 38.4237 20.4735 38.4182 20.4662 38.4112C20.4589 38.4042 20.4531 38.3957 20.4491 38.3864C20.4451 38.3771 20.4431 38.3671 20.4431 38.3569V37.7988C20.4431 37.7781 20.4513 37.7582 20.466 37.7436C20.4807 37.7289 20.5005 37.7207 20.5212 37.7207C20.5417 37.7214 20.5612 37.7299 20.5757 37.7444C20.5902 37.7589 20.5987 37.7783 20.5994 37.7988V38.3569C20.5987 38.3772 20.5901 38.3963 20.5755 38.4104C20.561 38.4244 20.5415 38.4323 20.5212 38.4323Z" fill="#BC802A"/>
<path d="M21.1324 38.5775C21.1122 38.5767 21.093 38.5682 21.0789 38.5536C21.0649 38.539 21.057 38.5196 21.0571 38.4993V37.7459C21.0549 37.7346 21.0553 37.723 21.0581 37.7118C21.061 37.7007 21.0662 37.6903 21.0736 37.6814C21.0809 37.6726 21.0901 37.6654 21.1005 37.6605C21.1109 37.6556 21.1223 37.6531 21.1338 37.6531C21.1453 37.6531 21.1567 37.6556 21.1671 37.6605C21.1775 37.6654 21.1867 37.6726 21.194 37.6814C21.2013 37.6903 21.2066 37.7007 21.2095 37.7118C21.2123 37.723 21.2127 37.7346 21.2105 37.7459V38.491C21.2117 38.5019 21.2106 38.513 21.2072 38.5234C21.2038 38.5339 21.1982 38.5435 21.1908 38.5517C21.1835 38.5599 21.1744 38.5664 21.1644 38.5708C21.1543 38.5753 21.1434 38.5775 21.1324 38.5775Z" fill="#BC802A"/>
<path d="M21.6904 38.4433C21.6702 38.4434 21.6507 38.4355 21.6362 38.4215C21.6216 38.4074 21.613 38.3882 21.6123 38.368V37.5476C21.6123 37.5269 21.6205 37.507 21.6352 37.4924C21.6498 37.4777 21.6697 37.4695 21.6904 37.4695C21.7112 37.4695 21.731 37.4777 21.7457 37.4924C21.7603 37.507 21.7686 37.5269 21.7686 37.5476V38.368C21.7678 38.3882 21.7593 38.4074 21.7447 38.4215C21.7301 38.4355 21.7107 38.4434 21.6904 38.4433Z" fill="#BC802A"/>
<path d="M22.1342 38.3122C22.1137 38.3115 22.0942 38.3031 22.0797 38.2885C22.0652 38.274 22.0567 38.2546 22.056 38.2341V37.489C22.056 37.4683 22.0643 37.4484 22.0789 37.4338C22.0936 37.4191 22.1134 37.4109 22.1342 37.4109C22.1549 37.4109 22.1748 37.4191 22.1894 37.4338C22.2041 37.4484 22.2123 37.4683 22.2123 37.489V38.2341C22.2116 38.2546 22.2031 38.274 22.1886 38.2885C22.1741 38.3031 22.1547 38.3115 22.1342 38.3122Z" fill="#BC802A"/>
<path d="M22.6866 38.2369C22.6765 38.2373 22.6664 38.2356 22.6569 38.232C22.6474 38.2284 22.6388 38.2229 22.6315 38.2159C22.6242 38.2088 22.6184 38.2004 22.6144 38.1911C22.6105 38.1817 22.6084 38.1717 22.6085 38.1616V37.3524C22.6081 37.342 22.6098 37.3317 22.6136 37.322C22.6174 37.3123 22.6231 37.3036 22.6305 37.2962C22.6378 37.2889 22.6466 37.2832 22.6562 37.2794C22.6659 37.2756 22.6762 37.2738 22.6866 37.2742C22.7073 37.2742 22.7272 37.2825 22.7418 37.2971C22.7565 37.3118 22.7647 37.3316 22.7647 37.3524V38.1616C22.764 38.1818 22.7554 38.201 22.7409 38.215C22.7263 38.2291 22.7068 38.2369 22.6866 38.2369Z" fill="#BC802A"/>
<path d="M23.1582 38.1198C23.1375 38.1198 23.1176 38.1116 23.103 38.0969C23.0883 38.0822 23.0801 38.0624 23.0801 38.0417V37.252C23.0801 37.2312 23.0883 37.2114 23.103 37.1967C23.1176 37.1821 23.1375 37.1738 23.1582 37.1738C23.1789 37.1738 23.1988 37.1821 23.2135 37.1967C23.2281 37.2114 23.2363 37.2312 23.2363 37.252V38.0417C23.2363 38.0624 23.2281 38.0822 23.2135 38.0969C23.1988 38.1116 23.1789 38.1198 23.1582 38.1198Z" fill="#BC802A"/>
<path d="M23.7108 37.9801C23.7006 37.9805 23.6905 37.9788 23.6811 37.9752C23.6716 37.9715 23.663 37.9661 23.6557 37.959C23.6484 37.952 23.6426 37.9435 23.6386 37.9342C23.6346 37.9249 23.6326 37.9149 23.6326 37.9047V37.1932C23.6305 37.1819 23.6308 37.1702 23.6337 37.1591C23.6365 37.1479 23.6418 37.1376 23.6491 37.1287C23.6565 37.1198 23.6657 37.1127 23.6761 37.1078C23.6865 37.1029 23.6979 37.1003 23.7094 37.1003C23.7209 37.1003 23.7322 37.1029 23.7426 37.1078C23.753 37.1127 23.7622 37.1198 23.7696 37.1287C23.7769 37.1376 23.7822 37.1479 23.785 37.1591C23.7879 37.1702 23.7883 37.1819 23.7861 37.1932V37.9047C23.7861 37.9247 23.7782 37.9439 23.764 37.958C23.7499 37.9721 23.7307 37.9801 23.7108 37.9801Z" fill="#BC802A"/>
<path d="M24.2409 37.6844C24.2201 37.6844 24.2003 37.6761 24.1856 37.6615C24.171 37.6468 24.1627 37.627 24.1627 37.6062V36.8779C24.1627 36.8572 24.171 36.8373 24.1856 36.8227C24.2003 36.808 24.2201 36.7998 24.2409 36.7998C24.2616 36.7998 24.2814 36.808 24.2961 36.8227C24.3108 36.8373 24.319 36.8572 24.319 36.8779V37.6062C24.319 37.627 24.3108 37.6468 24.2961 37.6615C24.2814 37.6761 24.2616 37.6844 24.2409 37.6844Z" fill="#BC802A"/>
<path d="M24.6344 37.5477C24.6241 37.5477 24.614 37.5456 24.6045 37.5417C24.595 37.5378 24.5864 37.532 24.5792 37.5248C24.5719 37.5175 24.5661 37.5089 24.5622 37.4994C24.5583 37.4899 24.5563 37.4798 24.5563 37.4695V36.7022C24.5563 36.6814 24.5645 36.6616 24.5792 36.6469C24.5938 36.6323 24.6137 36.624 24.6344 36.624C24.6551 36.624 24.675 36.6323 24.6897 36.6469C24.7043 36.6616 24.7125 36.6814 24.7125 36.7022V37.4695C24.7125 37.4902 24.7043 37.5101 24.6897 37.5248C24.675 37.5394 24.6551 37.5477 24.6344 37.5477Z" fill="#BC802A"/>
<path d="M35.3636 33.4681L28.5801 27.7979L23.1527 19.1671C22.9956 18.8873 22.7834 18.6423 22.5289 18.4469C22.2744 18.2515 21.9829 18.1097 21.672 18.0302C21.3611 17.9507 21.0373 17.9352 20.7203 17.9844C20.4032 18.0337 20.0994 18.1468 19.8273 18.3168C19.5552 18.4869 19.3204 18.7104 19.1372 18.9738C18.954 19.2372 18.8261 19.5351 18.7614 19.8494C18.6966 20.1636 18.6962 20.4878 18.7604 20.8022C18.8245 21.1166 18.9518 21.4147 19.1344 21.6785L24.76 30.6386C24.8928 30.8488 25.0575 31.0371 25.2483 31.1967L32.2941 37.0957C33.6582 36.222 34.7277 34.958 35.3636 33.4681Z" fill="#F6B345"/>
<path d="M24.7599 30.6386L19.1344 21.6896C18.9241 21.3881 18.7942 21.0379 18.7571 20.6721C18.72 20.3064 18.7769 19.9372 18.9223 19.5996" stroke="#BC802A" stroke-width="0.159055" stroke-linecap="round" stroke-linejoin="round"/>
<path d="M22.7257 8.91213L22.695 8.94841C22.3752 9.35785 21.9994 9.72041 21.5789 10.0255C20.9036 10.4608 19.9046 10.3269 19.8432 11.3705C19.8475 11.4057 19.8475 11.4413 19.8432 11.4765C19.793 11.5993 19.6088 11.6021 19.5028 11.5212C19.4106 11.4263 19.3292 11.3215 19.26 11.2087C18.981 10.8738 18.554 11.2756 18.4229 11.563C18.0127 12.5397 18.928 12.3555 19.3549 12.9583C19.5446 13.2373 19.4777 13.5889 19.4051 13.907C19.2237 14.6716 19.087 15.7041 18.2722 16.064C17.8494 16.2224 17.393 16.2695 16.9467 16.2008C16.6644 16.1862 16.3881 16.114 16.1347 15.9887C15.4762 15.6287 15.2976 14.7888 15.1776 14.0354C14.8986 12.1156 14.3405 9.77717 14.946 7.89641C15.3115 6.73559 16.4835 5.94311 17.689 5.80079C19.4805 5.57198 21.3166 6.55142 22.6448 7.67876C22.8487 7.81703 22.9908 8.02918 23.0411 8.27033C23.0336 8.39286 23.002 8.5127 22.9478 8.62288C22.8937 8.73306 22.8182 8.83138 22.7257 8.91213Z" fill="black"/>
<path d="M14.6083 5.58056C14.2656 5.49145 13.9052 5.49625 13.5649 5.59445C13.2247 5.69265 12.9171 5.88062 12.6745 6.13864C12.1527 6.69673 12.0188 7.53386 11.9881 8.29007C11.9239 9.96433 12.2476 11.6386 12.0076 13.2738C11.8062 14.5082 11.3428 15.6852 10.6487 16.7256C10.8469 16.7062 11.0384 16.6434 11.2096 16.5416C11.3808 16.4399 11.5275 16.3016 11.6393 16.1368C11.8591 15.804 12.0275 15.4399 12.1388 15.0569L13.0764 12.3669C13.3379 11.7483 13.4781 11.0851 13.4893 10.4136C13.4323 10.0666 13.4266 9.71305 13.4726 9.36439C13.5563 9.02396 13.9107 8.70864 14.24 8.83142C14.4883 8.9235 14.5999 9.20534 14.7981 9.38951C15.2445 9.78017 16.0203 9.46764 16.2435 8.91792C16.4835 8.32356 16.1821 7.57293 15.9924 6.99252C15.8966 6.66099 15.72 6.35843 15.4784 6.11199C15.2368 5.86555 14.9379 5.68295 14.6083 5.58056Z" fill="black"/>
<path d="M89.381 12.8356C88.8406 12.6498 88.2488 12.6848 87.7341 12.933C87.2194 13.1812 86.8235 13.6226 86.6324 14.1611C86.6324 14.1918 85.5162 17.2585 82.7258 18.4165C80.7725 19.2313 78.3169 18.9551 75.4539 17.5989L73.6011 21.5055C75.0542 22.2156 76.5977 22.7235 78.1886 23.0152C80.2897 23.4186 82.4629 23.2005 84.4419 22.3873C89.0182 20.4535 90.6618 15.7712 90.7288 15.5731C90.8201 15.3048 90.8577 15.0212 90.8394 14.7385C90.821 14.4557 90.7472 14.1793 90.622 13.9251C90.4969 13.6709 90.3228 13.4439 90.1099 13.2569C89.897 13.07 89.6493 12.9268 89.381 12.8356Z" fill="#1F2233"/>
<path d="M94.426 61.2021L94.7414 61.9081C94.7414 61.9081 90.7985 64.4056 86.437 64.5116L87.9662 63.3368L94.426 61.2021Z" fill="#171E26"/>
<path d="M75.3812 62.8318V63.6522C75.3812 63.6522 72.0327 64.3051 67.2527 63.6522L68.9269 62.8318H75.3812Z" fill="#171E26"/>
<path d="M90.3799 31.6403C90.3799 31.6403 76.4584 46.8789 75.3812 62.8318C75.3812 62.8318 72.1499 63.9927 68.9214 62.8318C68.9214 62.8318 71.2542 48.4248 76.1765 40.8822C81.0989 33.3397 83.0801 29.7456 83.0801 29.7456L90.3799 31.6403Z" fill="#B5603A"/>
<path d="M81.2468 32.8793C82.5165 30.7809 83.0801 29.7456 83.0801 29.7456L90.3799 31.6403C87.0175 35.5016 84.0635 39.7003 81.5649 44.1694C81.7272 40.4032 81.6209 36.6303 81.2468 32.8793Z" fill="#9E5133"/>
<path d="M92.5844 12.8801C92.1253 12.6752 91.6503 12.5081 91.164 12.3806C87.4276 11.9091 85.7283 14.3674 85.1478 15.5087C84.9828 15.9663 84.8412 16.432 84.7237 16.904L83.8308 21.165C83.0941 25.2502 82.5137 29.7372 82.5137 29.7372C83.6127 30.5884 84.8932 31.1747 86.2557 31.4505C88.1197 31.8691 89.4591 31.8188 90.3799 31.6319C91.6412 30.6329 91.3649 28.3922 91.3649 28.3922C91.4235 23.5787 93.268 18.7345 93.9963 16.3514C94.7051 14.0354 92.682 12.9332 92.5844 12.8801Z" fill="#31354F"/>
<path d="M56.178 3.64902e-05L55.0042 28.1255L83.1296 29.2994L84.3035 1.17392L56.178 3.64902e-05Z" fill="white"/>
<path d="M57.5854 1.73497L56.8022 20.4983L81.9752 21.5489L82.7583 2.78563L57.5854 1.73497Z" fill="#151C44"/>
<path d="M57.9829 19.6999L58.262 12.922L62.1686 9.33345C62.4237 9.09883 62.7615 8.975 63.1078 8.98913C63.4541 9.00325 63.7807 9.15418 64.0158 9.40879L69.9455 15.8575C70.0568 15.9789 70.191 16.0772 70.3403 16.1467C70.4897 16.2162 70.6513 16.2556 70.8159 16.2626C70.9804 16.2696 71.1448 16.2441 71.2995 16.1875C71.4542 16.1309 71.5962 16.0444 71.7174 15.9328L75.306 12.629C75.4215 12.5228 75.5569 12.4405 75.7043 12.3867C75.8517 12.3329 76.0083 12.3086 76.1651 12.3154C76.3219 12.3221 76.4758 12.3597 76.6181 12.4259C76.7603 12.4922 76.8881 12.5858 76.9942 12.7015L81.0208 17.0797L80.8701 20.657L57.9829 19.6999Z" fill="white"/>
<path d="M76.8043 6.62682C76.7892 6.99516 76.8836 7.35972 77.0756 7.6744C77.2677 7.98908 77.5487 8.23975 77.8832 8.39471C78.2177 8.54967 78.5907 8.60196 78.9549 8.54498C79.3191 8.48799 79.6582 8.32429 79.9294 8.07456C80.2006 7.82484 80.3917 7.50031 80.4784 7.14201C80.5652 6.78371 80.5437 6.40773 80.4168 6.06162C80.2899 5.71551 80.0632 5.4148 79.7654 5.19752C79.4676 4.98025 79.112 4.85615 78.7437 4.84094C78.499 4.83084 78.2548 4.86902 78.025 4.95331C77.7951 5.03759 77.5842 5.16633 77.4041 5.33217C77.224 5.49801 77.0783 5.6977 76.9754 5.91984C76.8725 6.14198 76.8144 6.38221 76.8043 6.62682Z" fill="white"/>
<path d="M91.4877 12.4729C91.4877 12.4729 89.5204 14.51 88.2452 13.5445C88.1276 13.4169 88.0431 13.2624 87.9993 13.0945C87.9555 12.9266 87.9537 12.7505 87.994 12.5818L88.4517 10.4443L92.2383 9.14673L91.4877 12.4729Z" fill="#EEB399"/>
<path d="M91.3788 10.9102L88.2786 11.2506L88.0247 12.4309C89.685 12.5621 91.3788 10.9102 91.3788 10.9102Z" fill="#CC957F"/>
<path d="M89.801 2.72389L88.6461 2.69527C87.1948 2.65929 85.9891 3.80663 85.9532 5.25791L85.8562 9.1689C85.8202 10.6202 86.9676 11.8259 88.4189 11.8618L89.5738 11.8905C91.025 11.9264 92.2307 10.7791 92.2667 9.32781L92.3636 5.41682C92.3996 3.96553 91.2523 2.75987 89.801 2.72389Z" fill="#EEB399"/>
<path d="M77.4992 24.4968C77.2372 24.4439 76.992 24.328 76.7848 24.1591C76.682 24.074 76.6131 23.9549 76.5905 23.8233C76.568 23.6917 76.5934 23.5564 76.6621 23.442C76.743 23.3304 76.8825 23.2522 76.9104 23.1183C76.9383 22.9843 76.7876 22.8086 76.7095 22.6523C76.6535 22.5029 76.6531 22.3384 76.7085 22.1888C76.7638 22.0392 76.8712 21.9145 77.0109 21.8375C77.1002 21.7817 77.209 21.737 77.2508 21.6421C77.3485 21.4301 77.0471 21.1845 77.1476 20.9724C77.2257 20.8134 77.4797 20.8078 77.5606 20.6488C77.5865 20.5578 77.6015 20.4642 77.6052 20.3697C77.6313 20.293 77.6793 20.2257 77.7433 20.1761C77.8073 20.1265 77.8845 20.0968 77.9652 20.0907C78.1282 20.0818 78.2914 20.1056 78.4452 20.1604L79.1735 20.353C79.2933 20.3706 79.4082 20.4125 79.5112 20.4762C79.6142 20.5399 79.7031 20.624 79.7724 20.7233C79.8416 20.8227 79.8898 20.9351 79.914 21.0538C79.9382 21.1725 79.9378 21.2948 79.9129 21.4133C79.9625 22.0342 79.9001 22.659 79.7288 23.2578C79.5812 23.7617 79.2833 24.2086 78.8749 24.5386C78.4954 24.8177 77.9038 24.614 77.4992 24.4968Z" fill="#EEB399"/>
<path d="M92.3386 13.43C91.775 13.3378 91.1978 13.472 90.7327 13.8034C90.2676 14.1347 89.9522 14.6364 89.8551 15.1992C89.8551 15.2326 89.2692 18.4444 86.7159 20.0573C84.9189 21.193 82.4605 21.3353 79.4077 20.4815L78.2441 24.642C79.7968 25.0951 81.404 25.3345 83.0214 25.3536C85.1596 25.3962 87.2639 24.8143 89.0766 23.6793C93.2623 20.9977 94.0855 16.1061 94.1189 15.8996C94.1644 15.6205 94.1543 15.3352 94.0894 15.06C94.0245 14.7848 93.906 14.5251 93.7407 14.2958C93.5753 14.0664 93.3664 13.8719 93.1258 13.7234C92.8853 13.5748 92.6178 13.4751 92.3386 13.43Z" fill="#EEB399"/>
<path d="M89.7549 14.9759C89.8628 14.3691 90.2052 13.8291 90.708 13.4726C91.2108 13.1161 91.8337 12.9718 92.4421 13.0707C93.0505 13.1697 93.5955 13.504 93.9594 14.0015C94.3233 14.4989 94.4769 15.1196 94.387 15.7294C93.8853 18.2895 92.6749 20.6573 90.8934 22.5631L87.6509 19.1532C88.6982 17.9638 89.4226 16.5255 89.7549 14.9759Z" fill="#31354F"/>
<path d="M82.522 29.7456C82.522 29.7456 82.9433 48.1625 87.9745 63.3369C87.9745 63.3369 91.7248 63.1778 94.4344 61.2022C94.4344 61.2022 87.9745 50.7269 90.3882 31.6403L82.522 29.7456Z" fill="#B5603A"/>
<path d="M88.4712 61.9527H88.4907C88.5087 61.9469 88.5237 61.9344 88.5325 61.9177C88.5414 61.901 88.5434 61.8816 88.5381 61.8634C83.2223 44.2837 83.7944 31.2216 83.7944 31.0905C83.7952 31.0717 83.7886 31.0533 83.7761 31.0393C83.7636 31.0252 83.7462 31.0166 83.7274 31.0151C83.7086 31.0151 83.6906 31.0224 83.6771 31.0354C83.6635 31.0484 83.6556 31.0661 83.6549 31.0849C83.6549 31.2133 83.0772 44.2893 88.3986 61.9053C88.404 61.92 88.4139 61.9325 88.427 61.941C88.4401 61.9496 88.4556 61.9537 88.4712 61.9527Z" fill="#824229"/>
<path d="M69.7306 62.3519C69.7481 62.3521 69.765 62.346 69.7784 62.3347C69.7917 62.3235 69.8005 62.3078 69.8032 62.2905C71.9937 47.571 80.6859 35.0252 80.7696 34.8996C80.7773 34.8921 80.7832 34.883 80.7869 34.873C80.7906 34.8629 80.7921 34.8522 80.7912 34.8415C80.7903 34.8309 80.787 34.8206 80.7817 34.8113C80.7763 34.802 80.7689 34.7941 80.7601 34.788C80.7513 34.7819 80.7413 34.7779 80.7307 34.7761C80.7201 34.7744 80.7093 34.775 80.699 34.7779C80.6887 34.7809 80.6792 34.786 80.6712 34.7931C80.6631 34.8001 80.6567 34.8088 80.6524 34.8187C80.5631 34.9442 71.857 47.5179 69.6609 62.2682C69.6593 62.2776 69.6597 62.2872 69.6619 62.2964C69.6642 62.3057 69.6683 62.3143 69.6741 62.3219C69.6798 62.3295 69.6871 62.3358 69.6954 62.3405C69.7036 62.3452 69.7128 62.3481 69.7223 62.3491L69.7306 62.3519Z" fill="#824229"/>
<path d="M85.3515 2.21529C85.3122 2.26728 85.2881 2.32907 85.2817 2.39388C85.2678 2.65897 85.6528 2.72036 85.823 2.92406C85.465 3.12253 85.1737 3.42255 84.9859 3.78631C84.8985 3.97093 84.8785 4.18035 84.9295 4.37816C84.9805 4.57597 85.0992 4.74965 85.265 4.869C85.4461 4.95526 85.6448 4.99825 85.8454 4.99457C86.1886 5.0169 86.5848 5.01689 86.8109 4.75738C86.8528 4.88233 86.9211 4.99682 87.0112 5.0931C87.1012 5.18938 87.2108 5.26521 87.3327 5.31547C87.5513 5.34579 87.7733 5.29302 87.9549 5.16758C88.134 5.04291 88.3392 4.96082 88.5549 4.9276C88.7725 4.9276 89.0181 5.0727 89.0069 5.29036C89.5399 5.36291 90.1733 5.14804 90.5668 5.51638C90.6732 5.64262 90.7518 5.78988 90.7975 5.94855C90.8432 6.10721 90.8549 6.27373 90.8319 6.43723C90.7846 6.76333 90.7978 7.09537 90.871 7.41667C90.9798 7.7292 91.323 7.9915 91.63 7.87151C91.856 7.78222 92.029 7.50596 92.2662 7.55619C92.5034 7.60642 92.5452 7.91337 92.4559 8.11428C92.3666 8.31519 92.1769 8.48541 92.0932 8.69748C92.0304 8.86731 92.0162 9.05128 92.0522 9.22873C92.0881 9.40618 92.1729 9.57008 92.2969 9.70204C92.5511 9.96179 92.8815 10.1338 93.24 10.1932C93.5735 10.2779 93.9259 10.2464 94.239 10.1039C94.3921 10.0293 94.5176 9.90809 94.5973 9.75763C94.6771 9.60717 94.707 9.43528 94.6827 9.26673C94.6626 9.18568 94.6245 9.11018 94.5714 9.04578C94.5182 8.98139 94.4512 8.92975 94.3755 8.89467C94.2997 8.85959 94.217 8.84196 94.1335 8.84309C94.05 8.84422 93.9678 8.86407 93.893 8.90119C93.9636 8.81397 94.016 8.71344 94.0471 8.60557C94.0781 8.4977 94.0871 8.3847 94.0735 8.27328C94.06 8.16186 94.0242 8.0543 93.9683 7.957C93.9123 7.85969 93.8374 7.77463 93.7479 7.70687C93.9049 7.65089 94.0347 7.53723 94.1109 7.38899C94.1871 7.24075 94.2039 7.06906 94.1581 6.90881C94.0511 6.59259 93.8714 6.30587 93.6335 6.07168C93.3957 5.83422 93.2394 5.52743 93.187 5.19548C93.1647 4.76017 93.4661 4.38904 93.6279 3.98443C93.7585 3.62107 93.7719 3.22594 93.6663 2.85456C93.5607 2.48318 93.3413 2.15422 93.0391 1.91393C92.924 1.81356 92.7786 1.75462 92.6261 1.7465C92.5506 1.74533 92.4771 1.77108 92.4188 1.81914C92.3606 1.8672 92.3213 1.93443 92.308 2.0088C92.3048 1.85867 92.2624 1.71199 92.1851 1.58327C92.1078 1.45455 91.9982 1.34826 91.8671 1.27492C91.7326 1.20797 91.5774 1.19556 91.4339 1.24027C91.2904 1.28498 91.1697 1.38336 91.097 1.5149C91.0631 1.64621 91.0173 1.77417 90.9602 1.89718C90.6812 2.29343 89.8217 1.92788 89.4701 1.85812C89.0364 1.78018 88.5937 1.76608 88.1559 1.81626C87.2657 1.87207 85.957 1.2805 85.3515 2.21529Z" fill="black"/>
<path d="M93.1256 8.23683C93.0747 8.43328 92.9499 8.60248 92.7773 8.70911C92.6046 8.81574 92.3975 8.85154 92.199 8.80905C92.0006 8.76655 91.8263 8.64904 91.7124 8.48106C91.5986 8.31307 91.554 8.1076 91.5881 7.90755C91.6059 7.80291 91.6447 7.70296 91.7021 7.6137C91.7596 7.52445 91.8345 7.44774 91.9223 7.38819C92.0102 7.32864 92.1092 7.28748 92.2134 7.26719C92.3176 7.24691 92.4248 7.2479 92.5286 7.27013C92.6324 7.29236 92.7306 7.33536 92.8174 7.39654C92.9041 7.45771 92.9776 7.53581 93.0333 7.62612C93.0891 7.71643 93.126 7.81708 93.1419 7.92204C93.1577 8.02699 93.1522 8.13407 93.1256 8.23683Z" fill="#EEB399"/>
<path d="M91.884 21.391L90.885 22.563L87.6509 19.153C87.6509 19.153 89.194 17.3365 89.6488 15.4194" stroke="#565F89" stroke-width="0.159055" stroke-linecap="round" stroke-linejoin="round"/>
</svg>
