<svg width="98" height="80" viewBox="0 0 98 80" fill="none" xmlns="http://www.w3.org/2000/svg">
<path d="M76.5747 63.7362C77.3096 64.6435 78.1139 65.4923 78.9805 66.2748C78.9304 67.3111 79.1079 68.3458 79.5003 69.3062C79.5635 69.4903 79.6682 69.6574 79.8064 69.7946C79.8816 69.8619 79.974 69.9071 80.0734 69.9249C80.1727 69.9428 80.2751 69.9327 80.369 69.8958C80.4613 69.8485 80.5399 69.7784 80.5975 69.6922C80.655 69.6059 80.6894 69.5063 80.6976 69.403C80.7071 69.2077 80.6741 69.0126 80.6008 68.8313C80.3343 68.0485 79.9371 67.3165 79.4261 66.6664C79.9752 67.139 80.5468 67.5853 81.141 68.0054C81.1032 69.0141 81.2812 70.0192 81.6631 70.9536C81.7257 71.1379 81.8305 71.3052 81.9691 71.4419C82.0441 71.5097 82.1364 71.5552 82.2358 71.5735C82.3351 71.5918 82.4376 71.5821 82.5318 71.5454C82.6236 71.4976 82.7019 71.4274 82.7594 71.3412C82.8168 71.2551 82.8515 71.1558 82.8603 71.0526C82.8714 70.8565 82.8383 70.6604 82.7636 70.4787C82.497 69.6966 82.0998 68.9653 81.5888 68.316C82.1889 68.7166 82.8033 69.0917 83.432 69.4412C83.4925 70.4398 83.7689 71.4134 84.2421 72.2949C84.3229 72.4706 84.444 72.6248 84.5955 72.745C84.678 72.8047 84.7754 72.8406 84.8769 72.849C84.9785 72.8573 85.0804 72.8377 85.1716 72.7922C85.2587 72.7376 85.3302 72.6615 85.3795 72.5712C85.4287 72.481 85.454 72.3796 85.4529 72.2769C85.4444 72.0824 85.3921 71.8924 85.2999 71.721C84.9559 70.9721 84.4871 70.2872 83.9136 69.6955C84.5287 70.0151 85.1573 70.3099 85.7995 70.58C85.9693 71.5492 86.3462 72.4703 86.9045 73.2806C87.0054 73.4471 87.1442 73.5874 87.3096 73.6902C87.3973 73.7427 87.4976 73.7705 87.5999 73.7705C87.7021 73.7705 87.8025 73.7427 87.8902 73.6902C87.9709 73.6281 88.0341 73.546 88.0736 73.4521C88.113 73.3582 88.1274 73.2557 88.1152 73.1545C88.0861 72.963 88.0137 72.7806 87.9037 72.6212C87.4964 71.946 86.9818 71.3417 86.3801 70.832C87.017 71.0796 87.6651 71.3001 88.3223 71.5072C88.5781 72.4504 89.0349 73.3271 89.6613 74.0772C89.7805 74.2348 89.9346 74.3627 90.1114 74.4508C90.2032 74.4989 90.3069 74.5194 90.4101 74.5097C90.5132 74.5 90.6113 74.4606 90.6925 74.3963C90.7738 74.332 90.8346 74.2455 90.8677 74.1474C90.9007 74.0492 90.9046 73.9435 90.8788 73.8432C90.8337 73.6557 90.745 73.4815 90.62 73.3346C90.1463 72.6905 89.57 72.1287 88.9142 71.6715C89.5458 71.844 90.1864 71.994 90.8361 72.1216C91.2002 73.0227 91.7562 73.8337 92.4654 74.4981C92.5995 74.6416 92.7651 74.7518 92.9493 74.8199C93.0477 74.8524 93.1529 74.8585 93.2544 74.8376C93.3559 74.8166 93.4501 74.7694 93.5277 74.7006C93.5969 74.6271 93.645 74.5361 93.6667 74.4375C93.6885 74.3388 93.6832 74.2361 93.6515 74.1403C93.5831 73.9599 93.4746 73.7975 93.3341 73.6654C92.7879 73.0842 92.151 72.5955 91.4482 72.2183C91.8398 72.2836 92.2336 72.3376 92.6297 72.3849C93.4228 72.7906 94.2829 73.0491 95.1683 73.1478C95.371 73.182 95.5785 73.1743 95.7782 73.1253C95.8812 73.0969 95.9754 73.0428 96.0518 72.968C96.1281 72.8932 96.1842 72.8001 96.2148 72.6977C96.2308 72.6012 96.218 72.5021 96.1779 72.4128C96.1379 72.3236 96.0724 72.2481 95.9897 72.1958C95.8206 72.0944 95.6319 72.03 95.4361 72.0068C94.4465 71.8388 93.4352 71.8441 92.4474 72.0225C92.1144 71.982 91.7858 71.9325 91.4572 71.8785C92.3347 71.8077 93.1957 71.6004 94.0093 71.2641C94.2081 71.191 94.3913 71.0811 94.5494 70.9401C94.6266 70.8722 94.6841 70.7847 94.7158 70.6869C94.7475 70.589 94.7522 70.4845 94.7294 70.3842C94.691 70.2964 94.6282 70.2215 94.5484 70.1684C94.4686 70.1153 94.3752 70.0863 94.2793 70.0849C94.0729 70.0845 93.8685 70.1258 93.6785 70.2064C92.6641 70.569 91.7188 71.1017 90.8833 71.7817C90.1797 71.6467 89.485 71.4824 88.7994 71.2889C89.7901 71.2466 90.7655 71.0287 91.68 70.6452C91.8788 70.5721 92.0621 70.4622 92.2201 70.3212C92.2966 70.2527 92.3535 70.1652 92.3852 70.0675C92.4168 69.9699 92.422 69.8656 92.4002 69.7653C92.3608 69.6754 92.2959 69.5991 92.2135 69.5458C92.131 69.4926 92.0347 69.4648 91.9366 69.466C91.731 69.4671 91.5276 69.5083 91.3379 69.5875C90.3044 69.9572 89.3428 70.5032 88.4956 71.2011C87.7844 70.9896 87.0868 70.748 86.4026 70.4765C87.3796 70.4305 88.3408 70.2134 89.2427 69.8351C89.4431 69.7637 89.6274 69.6536 89.7851 69.511C89.8616 69.4426 89.9183 69.355 89.9496 69.2572C89.9809 69.1595 89.9854 69.0552 89.9629 68.9551C89.9237 68.8656 89.8591 68.7895 89.7771 68.7363C89.6951 68.6831 89.5993 68.6551 89.5015 68.6558C89.2952 68.6566 89.0911 68.6979 88.9007 68.7773C87.8854 69.141 86.9389 69.6736 86.101 70.3527C85.3854 70.0579 84.6832 69.7293 84.0036 69.3692C84.9018 69.4489 85.8071 69.3774 86.6817 69.1577C86.8881 69.1215 87.0854 69.045 87.2623 68.9326C87.3489 68.8754 87.419 68.7964 87.4656 68.7036C87.5122 68.6108 87.5337 68.5074 87.5279 68.4038C87.506 68.309 87.4564 68.2229 87.3855 68.1564C87.3146 68.0899 87.2255 68.046 87.1295 68.0302C86.9287 67.9988 86.7236 68.008 86.5264 68.0572C85.4964 68.2586 84.5074 68.6313 83.6007 69.1599C82.9691 68.8103 82.354 68.4353 81.7553 68.0347C82.6938 68.1328 83.6422 68.065 84.5572 67.8344C84.7637 67.7947 84.9603 67.7143 85.1356 67.5981C85.2223 67.5408 85.2926 67.4618 85.3396 67.3691C85.3865 67.2764 85.4085 67.173 85.4034 67.0692C85.3805 66.9746 85.3304 66.8887 85.2592 66.8223C85.188 66.7559 85.0988 66.7118 85.0028 66.6956C84.802 66.6642 84.5969 66.6734 84.3997 66.7226C83.3647 66.9238 82.371 67.2982 81.4605 67.8299C80.8104 67.3746 80.1839 66.8863 79.5836 66.3671C80.4068 66.6057 81.264 66.7053 82.1199 66.6619C82.3287 66.6613 82.5352 66.6192 82.7276 66.5381C82.8237 66.4964 82.9076 66.431 82.9713 66.3479C83.0351 66.2648 83.0767 66.1668 83.0921 66.0632C83.0912 65.9664 83.0617 65.8719 83.0072 65.7918C82.9528 65.7118 82.8758 65.6496 82.7861 65.6131C82.599 65.5413 82.3988 65.5098 82.1987 65.5209C81.1772 65.5156 80.1625 65.6862 79.1988 66.025C78.3546 65.2606 77.5699 64.433 76.8515 63.5494L76.5747 63.7362Z" fill="#307175"/>
<path d="M77.1306 60.1512C78.0377 62.0056 79.384 63.6104 81.0526 64.826C82.7212 66.0415 84.6615 66.831 86.7047 67.1258C88.7479 67.4206 90.8323 67.2118 92.7764 66.5175C94.7206 65.8232 96.4656 64.6645 97.8599 63.1421C95.4024 58.3598 89.5331 55.7695 84.2669 56.8092C81.6721 57.32 79.0435 58.335 77.1306 60.1512Z" fill="#205656"/>
<path d="M81.6432 60.642L86.1802 56.5911C86.3422 56.5911 86.5043 56.5911 86.6663 56.5911L82.055 60.7027L86.0002 61.2698L90.3571 57.1334L90.7059 57.2392L86.4007 61.3284L88.8515 61.6817L92.5063 57.9796C92.6054 58.0291 92.7044 58.0831 92.8011 58.1349L89.2431 61.7357L90.7307 61.9495L94.1064 58.9271L94.372 59.1161L91.1358 62.008L97.7545 62.9645C97.786 63.023 97.8197 63.0792 97.849 63.1377L97.714 63.2795L89.1621 62.0463L91.3586 66.8961L91.039 66.9681L88.7885 61.9922L84.5576 61.3824L87.0331 67.1661L86.7113 67.1256H86.6663L84.1908 61.3396L81.9403 61.0155L83.8442 66.3537L83.4323 66.1714L81.5712 60.9503L77.2165 60.3201L77.1265 60.1468L77.2772 60.0073L81.6432 60.642Z" fill="#448C8C"/>
<path d="M72.965 65.1812C74.0278 64.2082 75.0198 63.1605 75.9334 62.0463C77.1895 61.9686 78.4157 61.6306 79.5342 61.0538C79.7527 60.9571 79.9477 60.8143 80.1058 60.6352C80.1908 60.5491 80.247 60.4388 80.2666 60.3195C80.2863 60.2001 80.2685 60.0776 80.2157 59.9688C80.1629 59.86 80.0777 59.7702 79.9718 59.7118C79.8658 59.6534 79.7444 59.6293 79.6242 59.6427C79.3886 59.657 79.1585 59.7207 78.9491 59.8295C78.019 60.2435 77.1589 60.7992 76.3993 61.4769C76.9484 60.7747 77.4675 60.0501 77.9566 59.3029C79.1759 59.2118 80.3644 58.8766 81.4516 58.3172C81.6698 58.2189 81.8646 58.0755 82.0232 57.8964C82.1082 57.8103 82.1644 57.7 82.1841 57.5806C82.2037 57.4613 82.186 57.3388 82.1332 57.2299C82.0803 57.1211 81.9951 57.0313 81.8892 56.973C81.7833 56.9146 81.6618 56.8904 81.5416 56.9039C81.306 56.9182 81.076 56.9818 80.8665 57.0907C79.9329 57.506 79.0697 58.0641 78.3077 58.7448C78.7713 57.9946 79.2049 57.2295 79.6085 56.4493C80.809 56.2444 81.9561 55.8005 82.9819 55.144C83.1903 55.0256 83.3712 54.8645 83.5131 54.6714C83.5898 54.5776 83.6355 54.4624 83.6439 54.3415C83.6523 54.2207 83.623 54.1002 83.56 53.9967C83.497 53.8933 83.4035 53.8119 83.2923 53.7638C83.1811 53.7158 83.0577 53.7034 82.9392 53.7284C82.7053 53.7656 82.4816 53.8507 82.282 53.9783C81.3971 54.4775 80.5947 55.1106 79.9033 55.8552C80.2724 55.096 80.6107 54.3241 80.9182 53.5394C82.08 53.2072 83.164 52.6472 84.1072 51.892C84.3028 51.7538 84.4663 51.5749 84.5866 51.3677C84.6556 51.2662 84.6908 51.1455 84.6872 51.0229C84.6836 50.9002 84.6414 50.7818 84.5665 50.6846C84.4917 50.5873 84.3881 50.5161 84.2705 50.4812C84.1528 50.4462 84.0272 50.4493 83.9114 50.49C83.6822 50.5512 83.4678 50.6584 83.2813 50.8051C82.4876 51.3671 81.7815 52.0436 81.1861 52.8125C81.4681 52.0383 81.7187 51.2537 81.9377 50.4585C83.064 50.0354 84.0946 49.392 84.9691 48.5658C85.152 48.411 85.3 48.2193 85.4035 48.0032C85.4625 47.897 85.4868 47.775 85.4731 47.6543C85.4593 47.5336 85.4082 47.4202 85.3269 47.33C85.2456 47.2398 85.1381 47.1772 85.0195 47.151C84.9009 47.1248 84.7771 47.1364 84.6653 47.184C84.4416 47.2629 84.2369 47.3879 84.0644 47.5508C83.3113 48.185 82.6574 48.9284 82.1245 49.7563C82.3166 48.9957 82.4793 48.2282 82.6129 47.4541C83.6871 46.9101 84.6425 46.1581 85.4237 45.2418C85.5894 45.068 85.716 44.8609 85.7951 44.6342C85.8417 44.5224 85.8523 44.3989 85.8255 44.2808C85.7987 44.1626 85.7357 44.0558 85.6454 43.9751C85.555 43.8944 85.4418 43.8439 85.3214 43.8305C85.201 43.8172 85.0795 43.8416 84.9736 43.9005C84.76 44.0038 84.5699 44.1502 84.4155 44.3304C83.7395 45.0391 83.1729 45.8446 82.7344 46.7204C82.8019 46.2523 82.8604 45.7865 82.9077 45.3161C83.3735 44.3531 83.6661 43.3155 83.7719 42.2509C83.8082 42.0137 83.7944 41.7714 83.7314 41.5398C83.7052 41.4215 83.643 41.3142 83.5532 41.2327C83.4635 41.1513 83.3507 41.0998 83.2304 41.0852C83.1101 41.0706 82.9883 41.0937 82.8817 41.1514C82.7751 41.209 82.689 41.2983 82.6354 41.407C82.5179 41.6145 82.4458 41.8447 82.4238 42.0821C82.2417 43.241 82.2684 44.4232 82.5026 45.5727C82.4598 45.9665 82.4081 46.3581 82.3496 46.7497C82.2485 45.7447 81.9808 44.7636 81.5574 43.8465C81.468 43.6245 81.3331 43.4236 81.1613 43.2569C81.0788 43.1665 80.9699 43.1044 80.85 43.0794C80.7302 43.0544 80.6056 43.0677 80.4937 43.1175C80.3819 43.1673 80.2886 43.2511 80.2271 43.3569C80.1655 43.4627 80.1389 43.5852 80.1508 43.707C80.1559 43.9403 80.2087 44.1701 80.3061 44.3821C80.7551 45.5149 81.4097 46.5549 82.237 47.4496C82.087 48.2883 81.9062 49.1202 81.6947 49.9454C81.6264 48.809 81.3462 47.6954 80.8687 46.6619C80.7802 46.4394 80.6452 46.2384 80.4727 46.0723C80.3901 45.9819 80.2812 45.9198 80.1614 45.8948C80.0416 45.8698 79.9169 45.8831 79.8051 45.9329C79.6933 45.9827 79.6 46.0664 79.5384 46.1723C79.4769 46.2781 79.4502 46.4006 79.4622 46.5224C79.4669 46.7559 79.5206 46.9859 79.6197 47.1975C80.076 48.3517 80.7464 49.4093 81.5956 50.3144C81.3601 51.1726 81.0878 52.0188 80.7787 52.853C80.7068 51.7312 80.4275 50.6324 79.955 49.6123C79.8673 49.3899 79.733 49.1889 79.5612 49.0227C79.4783 48.9328 79.3693 48.8712 79.2495 48.8464C79.1298 48.8217 79.0053 48.8351 78.8935 48.8848C78.7818 48.9344 78.6884 49.0179 78.6265 49.1233C78.5646 49.2288 78.5373 49.351 78.5485 49.4728C78.5543 49.7062 78.6079 49.936 78.706 50.1479C79.1556 51.2822 79.811 52.3237 80.6392 53.2198C80.3039 54.0953 79.9258 54.955 79.5139 55.7966C79.5904 54.7515 79.4869 53.7011 79.2079 52.691C79.1559 52.4574 79.0555 52.2374 78.9131 52.0451C78.8467 51.9434 78.7502 51.8649 78.6371 51.8207C78.524 51.7765 78.3999 51.7688 78.2822 51.7985C78.1644 51.8283 78.0589 51.894 77.9804 51.9867C77.9018 52.0793 77.8542 52.1941 77.8441 52.3151C77.8089 52.5496 77.8234 52.7888 77.8868 53.0173C78.1414 54.1867 78.6066 55.3001 79.2596 56.303C78.8568 57.0884 78.418 57.8559 77.9498 58.6053C78.0493 57.5131 77.9494 56.412 77.655 55.3556C77.6049 55.1218 77.5051 54.9015 77.3625 54.7097C77.2962 54.608 77.1999 54.5296 77.087 54.4853C76.9741 54.441 76.8502 54.4331 76.7325 54.4626C76.6149 54.492 76.5093 54.5575 76.4306 54.6498C76.3519 54.7421 76.304 54.8566 76.2935 54.9775C76.2583 55.2127 76.2728 55.4527 76.3362 55.6819C76.5927 56.8522 77.0593 57.9662 77.7135 58.9698C77.1854 59.7905 76.6176 60.5842 76.0099 61.3509C76.2766 60.3739 76.3778 59.3591 76.3092 58.3487C76.3065 58.1091 76.2528 57.8728 76.1517 57.6556C76.1069 57.5429 76.0282 57.4471 75.9264 57.3813C75.8246 57.3155 75.7049 57.2831 75.5838 57.2885C75.4628 57.294 75.3464 57.337 75.2509 57.4117C75.1555 57.4863 75.0857 57.5889 75.0512 57.7051C74.9697 57.9273 74.936 58.1643 74.9522 58.4005C74.9651 59.5786 75.1892 60.7448 75.6138 61.8437C74.719 62.9307 73.7489 63.9534 72.7107 64.9044L72.965 65.1812Z" fill="#307175"/>
<path d="M81.2781 58.6682C82.9311 58.9188 84.6202 58.7618 86.1987 58.2109C87.7771 57.66 89.1972 56.7319 90.3353 55.5073C91.4734 54.2827 92.2952 52.7986 92.7292 51.1841C93.1631 49.5695 93.1962 47.8734 92.8254 46.2432C88.5067 45.6761 84.08 48.3834 82.3403 52.3758C81.4874 54.336 80.9563 56.555 81.2781 58.6682Z" fill="#448C8C"/>
<path d="M83.6864 55.8865L83.0788 50.9985C83.1486 50.8882 83.2228 50.7734 83.3039 50.6721L83.9227 55.6412L86.1192 53.276L85.3721 48.4667C85.4486 48.4059 85.5273 48.3429 85.5971 48.2844L86.3353 53.0352L87.7081 51.5656L86.9272 47.4269L87.168 47.3009L87.9264 51.3315L88.7546 50.4313L88.3045 46.7878C88.3877 46.7563 88.471 46.7248 88.5543 46.6978L88.9864 50.186L92.6592 46.2274L92.8189 46.2432C92.8302 46.2949 92.8415 46.3467 92.8505 46.3985L88.0884 51.5228L92.3306 52.297C92.2991 52.378 92.2653 52.459 92.2316 52.54L87.8881 51.7456L85.5183 54.2954L90.5099 55.3127C90.4544 55.3802 90.3959 55.4454 90.3344 55.5085L90.3096 55.5355L85.3113 54.5182L84.0623 55.8685L88.4957 57.0613L88.1987 57.2503L83.8642 56.0823L81.4337 58.6974L81.2784 58.6749C81.2784 58.6209 81.2604 58.5669 81.2537 58.5106L83.6864 55.8865Z" fill="#205656"/>
<path d="M21.593 62.1768C20.5364 62.6739 19.4432 63.0892 18.323 63.4191C17.9186 64.3739 17.3102 65.2288 16.5406 65.9239C16.404 66.0627 16.2368 66.1675 16.0523 66.2299C15.9554 66.2581 15.8526 66.2589 15.7553 66.2323C15.658 66.2057 15.57 66.1527 15.5009 66.0791C15.4387 65.9961 15.3987 65.8987 15.3845 65.7959C15.3703 65.6932 15.3825 65.5885 15.4199 65.4918C15.4954 65.3114 15.6099 65.15 15.7552 65.0192C16.3356 64.4301 17.0113 63.9432 17.7536 63.5788C17.0537 63.7656 16.3426 63.9187 15.6269 64.0289C15.2227 64.9543 14.6258 65.7829 13.876 66.4595C13.7386 66.5973 13.5716 66.702 13.3877 66.7655C13.2906 66.794 13.1876 66.7947 13.0902 66.7676C12.9927 66.7406 12.9048 66.6869 12.8363 66.6125C12.7742 66.5299 12.7341 66.4328 12.7199 66.3304C12.7057 66.2281 12.7179 66.1237 12.7553 66.0274C12.8313 65.8466 12.9457 65.6846 13.0906 65.5525C13.6703 64.9642 14.3452 64.478 15.0868 64.1145C14.3779 64.218 13.66 64.2877 12.9398 64.3283C12.4501 65.2051 11.7769 65.9658 10.9662 66.5585C10.8166 66.6823 10.6401 66.7694 10.4508 66.8128C10.3506 66.8314 10.2473 66.8222 10.152 66.7861C10.0568 66.75 9.97329 66.6884 9.91067 66.608C9.85587 66.5208 9.82439 66.421 9.81927 66.3181C9.81415 66.2153 9.83555 66.1128 9.88141 66.0206C9.9741 65.8486 10.104 65.6994 10.2617 65.584C10.898 65.0626 11.6178 64.6525 12.3907 64.371C11.6998 64.3935 11.0044 64.3868 10.309 64.3508C9.73483 65.1478 8.99565 65.8118 8.14178 66.2974C7.97967 66.4043 7.79461 66.4714 7.60166 66.4932C7.49921 66.5006 7.39665 66.4803 7.30477 66.4344C7.21289 66.3884 7.13509 66.3186 7.07955 66.2322C7.03331 66.141 7.0115 66.0393 7.01623 65.9372C7.02097 65.835 7.05208 65.7358 7.10655 65.6493C7.21672 65.4895 7.3613 65.3565 7.52965 65.26C8.19004 64.8294 8.91586 64.5086 9.67887 64.3103C9.00372 64.2562 8.31732 64.1752 7.63992 64.0672C6.99931 64.8056 6.20718 65.3974 5.31741 65.8023C5.14397 65.8922 4.95234 65.9415 4.75704 65.9464C4.65361 65.9497 4.55141 65.9231 4.4628 65.8696C4.37419 65.8162 4.30296 65.7382 4.25773 65.6451C4.2125 65.552 4.1952 65.4479 4.20793 65.3452C4.22065 65.2425 4.26286 65.1456 4.32944 65.0664C4.45153 64.9185 4.60537 64.8001 4.77954 64.7198C5.48338 64.3466 6.24361 64.0911 7.03004 63.9637C6.3849 63.8436 5.74351 63.6989 5.10587 63.5293C4.38436 64.187 3.528 64.6794 2.59657 64.9719C2.41409 65.0428 2.21751 65.0697 2.02269 65.0507C1.91966 65.0379 1.82185 64.9981 1.73923 64.9352C1.65661 64.8724 1.59212 64.7887 1.55234 64.6928C1.52188 64.5965 1.51814 64.4937 1.54153 64.3954C1.56491 64.2971 1.61454 64.207 1.68512 64.1347C1.82747 63.9974 2.00018 63.8957 2.18923 63.8376C2.93358 63.5514 3.71948 63.388 4.51624 63.3538C4.1359 63.2413 3.75557 63.1287 3.37974 62.9892C2.48825 63.0147 1.59965 62.8766 0.757912 62.5819C0.559724 62.5246 0.375731 62.4265 0.217794 62.2938C0.138134 62.2253 0.0769989 62.1379 0.0400277 62.0396C0.00305657 61.9412 -0.00856071 61.8352 0.00624723 61.7312C0.0332438 61.6377 0.08708 61.5542 0.161085 61.4909C0.235091 61.4277 0.326013 61.3876 0.422589 61.3756C0.618904 61.3562 0.817093 61.38 1.00322 61.4454C1.96835 61.7232 2.87765 62.1672 3.6903 62.7574C4.00537 62.8632 4.32494 62.9622 4.64451 63.0567C3.88608 62.6096 3.2026 62.0461 2.61907 61.3869C2.4705 61.2354 2.35279 61.0566 2.27249 60.8602C2.23276 60.7655 2.21931 60.6617 2.23356 60.5599C2.24782 60.4581 2.28926 60.3621 2.35351 60.2819C2.4278 60.2187 2.51895 60.1786 2.61572 60.1666C2.7125 60.1546 2.81067 60.1712 2.89813 60.2143C3.08395 60.3035 3.25001 60.429 3.38649 60.5834C4.1428 61.3512 4.7637 62.2415 5.22289 63.2165C5.91379 63.401 6.61145 63.5541 7.31135 63.6666C6.43745 63.1993 5.65399 62.5796 4.99784 61.837C4.84927 61.6855 4.73156 61.5067 4.65127 61.3103C4.61193 61.2156 4.59849 61.1121 4.61233 61.0105C4.62617 60.9088 4.6668 60.8127 4.73003 60.732C4.8048 60.6688 4.89632 60.6289 4.99343 60.6169C5.09053 60.6049 5.18903 60.6214 5.2769 60.6644C5.46321 60.7528 5.62942 60.8784 5.76526 61.0335C6.5344 61.816 7.1632 62.7249 7.62417 63.7206C8.35633 63.8406 9.08924 63.9262 9.8229 63.9772C8.96325 63.5107 8.19172 62.8976 7.54315 62.1655C7.39458 62.0141 7.27687 61.8353 7.19657 61.6389C7.15684 61.5441 7.14339 61.4404 7.15764 61.3386C7.1719 61.2368 7.21334 61.1408 7.27759 61.0605C7.35147 60.9991 7.44151 60.9602 7.53691 60.9487C7.63231 60.9371 7.72903 60.9533 7.81546 60.9953C8.00138 61.0852 8.16743 61.2115 8.30382 61.3666C9.06067 62.1348 9.68162 63.0259 10.1402 64.0019C10.9144 64.0469 11.6886 64.0559 12.4582 64.0267C11.6142 63.7092 10.8292 63.2528 10.1357 62.6764C9.96726 62.5498 9.82508 62.3915 9.71713 62.2105C9.66583 62.1203 9.63886 62.0184 9.63886 61.9146C9.63886 61.8108 9.66583 61.7089 9.71713 61.6187C9.77807 61.5427 9.86035 61.4866 9.95339 61.4577C10.0464 61.4289 10.146 61.4285 10.2392 61.4566C10.4346 61.5147 10.6161 61.6119 10.7726 61.7424C11.6148 62.3713 12.3452 63.1374 12.9331 64.0087C13.6555 63.9682 14.3756 63.8939 15.0868 63.7836C14.1999 63.4652 13.3758 62.9937 12.6518 62.3906C12.4827 62.2646 12.3404 62.1062 12.2332 61.9247C12.1812 61.8347 12.1539 61.7327 12.1539 61.6288C12.1539 61.5249 12.1812 61.4228 12.2332 61.3328C12.2944 61.2572 12.3766 61.2012 12.4695 61.172C12.5623 61.1428 12.6618 61.1416 12.7553 61.1686C12.9496 61.2276 13.1301 61.3248 13.2864 61.4544C14.132 62.0851 14.8647 62.8544 15.4536 63.7296C16.2374 63.6014 17.0141 63.4332 17.7806 63.2255C16.9346 63.0834 16.1183 62.8004 15.3659 62.3883C15.1779 62.2986 15.0102 62.1715 14.873 62.0147C14.8042 61.9358 14.7568 61.8407 14.7351 61.7383C14.7135 61.6359 14.7183 61.5296 14.7492 61.4296C14.792 61.3424 14.8598 61.2698 14.944 61.2213C15.0282 61.1728 15.1249 61.1505 15.2218 61.1573C15.4214 61.1728 15.6154 61.2303 15.7912 61.3261C16.7096 61.7683 17.5465 62.3625 18.2668 63.0837C19.3605 62.7625 20.4275 62.3561 21.458 61.8685L21.593 62.1768Z" fill="#307175"/>
<path d="M24.037 60.9322C23.9971 62.9929 23.4637 65.0141 22.4817 66.8263C21.4996 68.6385 20.0975 70.1888 18.3928 71.3475C16.6681 72.4748 14.6986 73.1728 12.6489 73.3831C10.5993 73.5933 8.52906 73.3097 6.61145 72.556C6.76898 67.1795 10.9437 62.3185 16.1535 60.9862C18.7146 60.3313 21.5255 60.1175 24.037 60.9322Z" fill="#205656"/>
<path d="M20.1708 63.3176L14.3421 61.614C14.1935 61.6793 14.0472 61.7468 13.892 61.8165L19.8243 63.5494L16.5115 65.7617L10.7953 63.9028C10.7053 63.9838 10.6152 64.0648 10.5275 64.1503L16.174 65.9867L14.117 67.3618L9.22444 65.5929L9.02415 65.8584L13.7884 67.5801L12.5417 68.4217L8.18922 67.1502C8.1352 67.2447 8.08119 67.3393 8.02943 67.436L12.1883 68.6468L6.62512 72.3556C6.62512 72.4231 6.62512 72.4884 6.62512 72.5559L6.80516 72.6257L13.991 67.8321L14.0878 73.1478L14.4051 73.0758L14.2948 67.6161L17.8708 65.2305L18.1251 71.5162L18.393 71.3474L18.4312 71.3204L18.1769 65.0302L20.0628 63.7722L20.6434 69.4097C20.7402 69.3039 20.837 69.1959 20.9293 69.0856L20.3644 63.5719L24.0282 61.1256V60.9321C23.9622 60.9096 23.8969 60.8893 23.8324 60.8713L20.1708 63.3176Z" fill="#448C8C"/>
<path d="M29.9579 63.6799C28.5798 63.259 27.2336 62.7401 25.9295 62.127C24.7644 62.5965 23.5145 62.8187 22.259 62.7797C22.0197 62.7849 21.782 62.7396 21.5613 62.6469C21.4464 62.6075 21.3467 62.5332 21.2761 62.4343C21.2055 62.3355 21.1675 62.217 21.1675 62.0955C21.1675 61.9741 21.2055 61.8556 21.2761 61.7567C21.3467 61.6579 21.4464 61.5836 21.5613 61.5442C21.7814 61.4556 22.0174 61.4135 22.2545 61.4204C23.2723 61.3942 24.288 61.5256 25.2656 61.8097C24.4675 61.4136 23.6873 60.983 22.9251 60.5179C21.7851 60.9615 20.5673 61.1705 19.3446 61.1323C19.1052 61.1386 18.8673 61.0933 18.6469 60.9995C18.532 60.9601 18.4323 60.8858 18.3617 60.787C18.2911 60.6881 18.2531 60.5697 18.2531 60.4482C18.2531 60.3267 18.2911 60.2082 18.3617 60.1094C18.4323 60.0105 18.532 59.9362 18.6469 59.8968C18.867 59.8082 19.103 59.7661 19.3401 59.773C20.3572 59.7467 21.3721 59.878 22.349 60.1624C21.6078 59.6898 20.8869 59.1864 20.1863 58.6523C19.0161 58.9821 17.7917 59.0739 16.5855 58.9223C16.3489 58.9053 16.1187 58.8378 15.9103 58.7243C15.8004 58.6732 15.7092 58.5891 15.6493 58.4837C15.5894 58.3783 15.5639 58.2568 15.5763 58.1362C15.5886 58.0156 15.6383 57.9019 15.7184 57.8109C15.7984 57.7198 15.9049 57.656 16.0229 57.6283C16.2503 57.5604 16.4894 57.5405 16.725 57.5698C17.7381 57.6417 18.734 57.8694 19.6777 58.2449C19.019 57.7183 18.3814 57.167 17.7648 56.5908C16.5775 56.7922 15.362 56.7563 14.1887 56.4851C13.9524 56.4435 13.7277 56.3522 13.5293 56.2172C13.4255 56.155 13.3436 56.0619 13.295 55.951C13.2465 55.84 13.2337 55.7168 13.2585 55.5982C13.2832 55.4797 13.3443 55.3718 13.4331 55.2896C13.522 55.2073 13.6343 55.1548 13.7544 55.1393C13.9868 55.0942 14.226 55.0988 14.4565 55.1528C15.415 55.3148 16.344 55.6182 17.2134 56.053C16.6253 55.4753 16.0611 54.8752 15.521 54.2526C14.3228 54.3541 13.1165 54.2164 11.972 53.8475C11.7399 53.7868 11.5235 53.677 11.3373 53.5257C11.2413 53.455 11.1692 53.3566 11.1308 53.2437C11.0924 53.1308 11.0896 53.0088 11.1227 52.8942C11.1558 52.7796 11.2233 52.678 11.316 52.603C11.4087 52.5279 11.5222 52.4832 11.6412 52.4747C11.8769 52.4482 12.1156 52.4728 12.3411 52.5467C13.2936 52.7951 14.2038 53.1843 15.0417 53.7012C14.542 53.0981 14.0627 52.4747 13.6103 51.8333C12.4076 51.8042 11.2227 51.5364 10.1243 51.0456C9.90016 50.9596 9.69687 50.8269 9.52794 50.6563C9.4381 50.5754 9.37563 50.4686 9.34919 50.3506C9.32275 50.2326 9.33365 50.1093 9.38038 49.9978C9.42711 49.8863 9.50735 49.7921 9.61 49.7282C9.71264 49.6644 9.83261 49.634 9.95329 49.6413C10.1905 49.6417 10.4251 49.6915 10.6419 49.7876C11.5574 50.1368 12.4159 50.6199 13.1895 51.2212C12.9262 50.8296 12.6719 50.4335 12.4288 50.0284C11.5929 49.3606 10.882 48.5499 10.3291 47.6339C10.1932 47.4366 10.1011 47.2125 10.0591 46.9767C10.0402 46.8581 10.0544 46.7365 10.1001 46.6254C10.1457 46.5142 10.2211 46.4178 10.3179 46.3466C10.4229 46.2901 10.5414 46.2636 10.6605 46.27C10.7796 46.2763 10.8946 46.3153 10.993 46.3826C11.1883 46.5182 11.3525 46.6939 11.4746 46.898C12.1366 47.8663 12.6212 48.9445 12.9059 50.0824C13.1152 50.42 13.329 50.7576 13.5496 51.0794C13.2088 50.1286 13.0285 49.1277 13.0162 48.1177C13.0004 47.8782 13.0357 47.6381 13.1197 47.4133C13.1561 47.2979 13.2273 47.1966 13.3236 47.1233C13.42 47.05 13.5366 47.0084 13.6576 47.0042C13.7785 47 13.8978 47.0334 13.999 47.0999C14.1001 47.1663 14.1782 47.2624 14.2225 47.3751C14.3191 47.5873 14.3712 47.8171 14.3755 48.0502C14.458 49.2661 14.3153 50.4869 13.9547 51.651C14.4468 52.3472 14.9719 53.0223 15.53 53.6764C15.0988 52.6229 14.8697 51.4975 14.8549 50.3592C14.839 50.1197 14.8743 49.8796 14.9584 49.6548C14.9941 49.5391 15.065 49.4375 15.1612 49.3639C15.2573 49.2904 15.374 49.2486 15.495 49.2444C15.616 49.2402 15.7353 49.2737 15.8364 49.3404C15.9374 49.4071 16.0152 49.5036 16.0589 49.6166C16.1572 49.8322 16.2093 50.066 16.2119 50.303C16.294 51.5417 16.1413 52.7847 15.7618 53.9668C16.3454 54.6389 16.9553 55.2855 17.5915 55.9067C17.1742 54.8631 16.953 53.7515 16.9388 52.6277C16.923 52.389 16.9583 52.1496 17.0423 51.9256C17.0778 51.8098 17.1485 51.7079 17.2445 51.6342C17.3406 51.5604 17.4572 51.5184 17.5782 51.5139C17.6992 51.5095 17.8186 51.5428 17.9198 51.6093C18.021 51.6758 18.0989 51.7722 18.1428 51.885C18.2429 52.101 18.2959 52.3357 18.2981 52.5737C18.3808 53.7898 18.2373 55.0107 17.875 56.1745C18.5502 56.8204 19.2658 57.437 20.0017 58.0176C19.483 57.1106 19.1244 56.1209 18.9418 55.092C18.8856 54.8588 18.881 54.6161 18.9283 54.3808C18.9432 54.2601 18.9955 54.1471 19.078 54.0576C19.1604 53.9681 19.2687 53.9066 19.3878 53.8818C19.507 53.857 19.6308 53.87 19.7421 53.9192C19.8534 53.9683 19.9466 54.0511 20.0085 54.1558C20.1414 54.3523 20.2311 54.5747 20.2718 54.8084C20.5458 55.9732 20.6053 57.1781 20.4473 58.3642C21.151 58.8998 21.8757 59.4047 22.6213 59.8788C22.0652 58.9354 21.684 57.8993 21.4961 56.8204C21.4455 56.586 21.4455 56.3436 21.4961 56.1092C21.511 55.9885 21.5634 55.8754 21.6458 55.7859C21.7282 55.6964 21.8365 55.635 21.9557 55.6102C22.0748 55.5853 22.1987 55.5984 22.31 55.6476C22.4213 55.6967 22.5144 55.7794 22.5763 55.8842C22.7096 56.0805 22.7993 56.303 22.8396 56.5368C23.1141 57.7046 23.1728 58.9127 23.0129 60.1016C23.8456 60.6147 24.7 61.0866 25.5762 61.5172C24.915 60.7501 24.387 59.8775 24.0144 58.9358C23.9133 58.7187 23.8603 58.4822 23.8591 58.2427C23.8499 58.1216 23.879 58.0006 23.9421 57.8969C24.0053 57.7931 24.0994 57.7118 24.2112 57.6644C24.323 57.6169 24.4469 57.6057 24.5654 57.6323C24.6839 57.659 24.7911 57.7221 24.8718 57.8128C25.0417 57.9785 25.175 58.1778 25.2634 58.398C25.7574 59.4677 26.0569 60.6169 26.1478 61.7917C27.4226 62.388 28.7379 62.8934 30.084 63.3041L29.9579 63.6799Z" fill="#307175"/>
<path d="M19.653 61.3798C18.2692 62.3176 16.6774 62.9032 15.0159 63.086C13.3544 63.2687 11.6733 63.043 10.1189 62.4284C8.56437 61.8139 7.18346 60.829 6.09607 59.5595C5.00868 58.29 4.24771 56.7742 3.87927 55.1437C7.53182 52.7717 12.6945 53.3096 15.9824 56.1655C17.5983 57.5608 19.0363 59.3319 19.653 61.3798Z" fill="#448C8C"/>
<path d="M16.2796 59.9057L14.7245 55.2337C14.612 55.1639 14.4994 55.0964 14.3847 55.0312L15.96 59.782L12.9601 58.5937L11.5625 53.9329C11.468 53.9082 11.3713 53.8857 11.2745 53.8677L12.654 58.4744L10.7884 57.7363L9.71038 53.6629C9.62037 53.6629 9.53035 53.6629 9.44258 53.6516L10.4981 57.6192L9.37281 57.1691L8.21381 53.6854L7.9505 53.7101L9.05999 57.0454L4.02339 55.0514L3.88611 55.1369C3.89736 55.1887 3.91086 55.2382 3.92437 55.29L10.4283 57.8645L6.92652 60.3896C6.98954 60.4504 7.0548 60.5089 7.12007 60.5674L10.7051 57.9771L13.9436 59.2576L9.87467 62.325C9.95344 62.361 10.0345 62.3948 10.1155 62.4263L10.1515 62.4398L14.2249 59.3701L15.9307 60.0453L12.4425 63.0204C12.5595 63.0362 12.6675 63.0519 12.7913 63.0632L16.2008 60.1375L19.518 61.4653L19.6508 61.3798C19.6351 61.3258 19.6171 61.274 19.6013 61.2223L16.2796 59.9057Z" fill="#205656"/>
<path d="M39.2837 34.8264C39.2117 34.8264 39.1486 34.9749 39.1194 35.2765V36.0327C39.1486 36.3297 39.2117 36.4828 39.2859 36.4828C39.3602 36.4828 39.421 36.3365 39.4502 36.0327V35.272C39.421 34.9749 39.3579 34.8264 39.2837 34.8264Z" fill="#BBCAEA"/>
<path d="M39.2837 31.5386C39.2117 31.5386 39.1486 31.6849 39.1194 31.9887V32.7448C39.1486 33.0419 39.2117 33.1949 39.2859 33.1949C39.3602 33.1949 39.421 33.0487 39.4502 32.7448V31.9887C39.421 31.6849 39.3579 31.5386 39.2837 31.5386Z" fill="#BBCAEA"/>
<path d="M39.2837 28.2482C39.2117 28.2482 39.1486 28.3945 39.1194 28.6983V29.4522C39.1486 29.7492 39.2117 29.9023 39.2859 29.9023C39.3602 29.9023 39.421 29.7537 39.4502 29.4522V28.6983C39.421 28.3945 39.3579 28.2482 39.2837 28.2482Z" fill="#BBCAEA"/>
<path d="M39.2837 24.9581C39.2117 24.9581 39.1486 25.1067 39.1194 25.4082V26.1644C39.1486 26.4615 39.2117 26.6145 39.2859 26.6145C39.3602 26.6145 39.421 26.4682 39.4502 26.1644V25.4082C39.421 25.1067 39.3579 24.9581 39.2837 24.9581Z" fill="#BBCAEA"/>
<path d="M39.2837 21.67C39.2117 21.67 39.1486 21.8163 39.1194 22.1201V22.8763C39.1486 23.1734 39.2117 23.3264 39.2859 23.3264C39.3602 23.3264 39.421 23.1779 39.4502 22.8763V22.1201C39.421 21.8163 39.3579 21.67 39.2837 21.67Z" fill="#BBCAEA"/>
<path d="M42.5541 21.6474C42.5541 21.5754 42.4055 21.5124 42.104 21.4832H41.3478C41.0507 21.5124 40.8977 21.5754 40.8977 21.6474C40.8977 21.7195 41.044 21.7825 41.3478 21.814H42.104C42.4055 21.7825 42.5541 21.7217 42.5541 21.6474Z" fill="#BBCAEA"/>
<path d="M45.8487 21.6474C45.8487 21.5754 45.7025 21.5124 45.3986 21.4832H44.6425C44.3454 21.5124 44.1924 21.5754 44.1924 21.6474C44.1924 21.7195 44.3387 21.7825 44.6425 21.814H45.3986C45.6957 21.7825 45.8487 21.7217 45.8487 21.6474Z" fill="#BBCAEA"/>
<path d="M49.1321 21.6474C49.1321 21.5754 48.9859 21.5124 48.682 21.4832H47.9281C47.6311 21.5124 47.478 21.5754 47.478 21.6474C47.478 21.7195 47.6266 21.7825 47.9281 21.814H48.682C48.9859 21.7825 49.1321 21.7217 49.1321 21.6474Z" fill="#BBCAEA"/>
<path d="M52.4225 21.6474C52.4225 21.5754 52.2739 21.5124 51.9724 21.4832H51.2162C50.9191 21.5124 50.7661 21.5754 50.7661 21.6474C50.7661 21.7195 50.9124 21.7825 51.2162 21.814H51.9724C52.2739 21.7825 52.4225 21.7217 52.4225 21.6474Z" fill="#BBCAEA"/>
<path d="M55.7106 21.6474C55.7106 21.5754 55.5643 21.5124 55.2605 21.4832H54.5043C54.2072 21.5124 54.0542 21.5754 54.0542 21.6474C54.0542 21.7195 54.2027 21.7825 54.5043 21.814H55.2605C55.5643 21.7825 55.7106 21.7217 55.7106 21.6474Z" fill="#BBCAEA"/>
<path d="M59.0005 21.6474C59.0005 21.5754 58.852 21.5124 58.5504 21.4832H57.7987C57.5017 21.5124 57.3486 21.5754 57.3486 21.6474C57.3486 21.7195 57.4949 21.7825 57.7987 21.814H58.5549C58.852 21.7825 59.0005 21.7217 59.0005 21.6474Z" fill="#BBCAEA"/>
<path d="M62.2887 21.6474C62.2887 21.5754 62.1424 21.5124 61.8386 21.4832H61.0824C60.7854 21.5124 60.6323 21.5754 60.6323 21.6474C60.6323 21.7195 60.7809 21.7825 61.0824 21.814H61.8386C62.1424 21.7825 62.2887 21.7217 62.2887 21.6474Z" fill="#BBCAEA"/>
<path d="M65.579 21.6474C65.579 21.5754 65.4304 21.5124 65.1289 21.4832H64.3727C64.0756 21.5124 63.9226 21.5754 63.9226 21.6474C63.9226 21.7195 64.0689 21.7825 64.3727 21.814H65.1289C65.4282 21.7825 65.579 21.7217 65.579 21.6474Z" fill="#BBCAEA"/>
<path d="M68.8666 21.6474C68.8666 21.5754 68.7203 21.5124 68.4165 21.4832H67.6784C67.3813 21.5124 67.2283 21.5754 67.2283 21.6474C67.2283 21.7195 67.3746 21.7825 67.6784 21.814H68.4345C68.7203 21.7825 68.8666 21.7217 68.8666 21.6474Z" fill="#BBCAEA"/>
<path d="M72.1573 21.6474C72.1573 21.5754 72.011 21.5124 71.7072 21.4832H70.9533C70.6562 21.5124 70.5032 21.5754 70.5032 21.6474C70.5032 21.7195 70.6517 21.7825 70.9533 21.814H71.7072C72.011 21.7825 72.1573 21.7217 72.1573 21.6474Z" fill="#BBCAEA"/>
<path d="M75.4476 21.6474C75.4476 21.5754 75.2991 21.5124 74.9975 21.4832H74.2414C73.9443 21.5124 73.7913 21.5754 73.7913 21.6474C73.7913 21.7195 73.9375 21.7825 74.2414 21.814H74.9975C75.2991 21.7825 75.4476 21.7217 75.4476 21.6474Z" fill="#BBCAEA"/>
<path d="M76.4354 23.9498C76.5052 23.9498 76.5704 23.8035 76.5997 23.4997V22.7436C76.5704 22.4465 76.5052 22.2935 76.4331 22.2935C76.3611 22.2935 76.2981 22.4397 76.2666 22.7436V23.4997C76.2981 23.8035 76.3611 23.9498 76.4354 23.9498Z" fill="#BBCAEA"/>
<path d="M76.4354 27.238C76.5052 27.238 76.5704 27.0917 76.5997 26.7879V26.034C76.5704 25.7346 76.5052 25.5839 76.4331 25.5839C76.3611 25.5839 76.2981 25.7301 76.2666 26.034V26.7879C76.2981 27.0939 76.3611 27.238 76.4354 27.238Z" fill="#BBCAEA"/>
<path d="M76.4354 30.5301C76.5052 30.5301 76.5704 30.3816 76.5997 30.08V29.3239C76.5704 29.0268 76.5052 28.8738 76.4331 28.8738C76.3611 28.8738 76.2981 29.0201 76.2666 29.3239V30.08C76.2981 30.3884 76.3611 30.5301 76.4354 30.5301Z" fill="#BBCAEA"/>
<path d="M76.4354 33.2195C76.5052 33.2195 76.5704 33.1272 76.5997 32.9381V32.4565C76.5704 32.2675 76.5052 32.173 76.4331 32.173C76.3611 32.173 76.2981 32.2675 76.2666 32.4565V32.9381C76.2981 33.1272 76.3611 33.2195 76.4354 33.2195Z" fill="#BBCAEA"/>
<path d="M79.8963 36.5819H24.0323C22.8453 36.5819 21.8831 37.5441 21.8831 38.7311V75.772C21.8831 76.959 22.8453 77.9212 24.0323 77.9212H79.8963C81.0833 77.9212 82.0455 76.959 82.0455 75.772V38.7311C82.0455 37.5441 81.0833 36.5819 79.8963 36.5819Z" fill="#5BA5F4"/>
<path d="M89.1868 76.9535H14.9835V78.2835H89.1868V76.9535Z" fill="#4A9BE5"/>
<path d="M68.1582 78.2834H14.9835C14.9835 78.2834 16.7592 79.4875 20.1259 79.4875H84.0399C87.4044 79.4875 89.18 78.2834 89.18 78.2834H68.1582Z" fill="#184785"/>
<path d="M79.9436 38.9291H24.3181C24.1553 38.9291 24.0233 39.0611 24.0233 39.2239V74.0683C24.0233 74.2311 24.1553 74.3631 24.3181 74.3631H79.9436C80.1064 74.3631 80.2384 74.2311 80.2384 74.0683V39.2239C80.2384 39.0611 80.1064 38.9291 79.9436 38.9291Z" fill="#A9CBF7"/>
<path d="M58.3073 76.9512C58.2591 77.2073 58.1343 77.4427 57.9495 77.6264C57.7063 77.8691 57.3771 78.0058 57.0335 78.0067H47.3136C47.0105 78.0061 46.7171 77.8996 46.4841 77.7056C46.2511 77.5117 46.0932 77.2425 46.0376 76.9445L58.3073 76.9512Z" fill="#184785"/>
<path d="M74.418 7.43961L68.6199 8.69426C68.3502 8.75262 68.1789 9.01855 68.2373 9.28823L69.4919 15.0863C69.5503 15.356 69.8162 15.5273 70.0859 15.469L75.884 14.2143C76.1537 14.156 76.325 13.89 76.2666 13.6204L75.012 7.82225C74.9536 7.55256 74.6877 7.38125 74.418 7.43961Z" fill="#F89D13"/>
<path d="M74.4007 10.9849L70.3926 9.69983L71.2838 13.8115L74.4007 10.9849Z" fill="#F9FBFC"/>
<path d="M66.0829 16.118L66.1436 24.4043C66.1454 24.6833 66.0365 24.9516 65.8407 25.1503C65.645 25.349 65.3783 25.4619 65.0994 25.4643L60.3486 25.4981C60.0697 25.4999 59.8014 25.3909 59.6027 25.1952C59.404 24.9994 59.291 24.7328 59.2886 24.4539L59.2346 16.7572L60.81 15.1053L65.0184 15.0738C65.1569 15.0723 65.2943 15.0982 65.4228 15.1499C65.5513 15.2016 65.6684 15.2781 65.7672 15.3751C65.8661 15.4721 65.9449 15.5876 65.999 15.7151C66.0532 15.8426 66.0817 15.9795 66.0829 16.118Z" fill="#297EEC"/>
<path d="M60.8145 15.1055L60.828 16.7461L59.2324 16.7573L60.8145 15.1055Z" fill="#85CCE5"/>
<path d="M64.8107 17.172L60.5168 17.2028L60.5179 17.3468L64.8117 17.3161L64.8107 17.172Z" fill="#E2EDF2"/>
<path d="M64.8165 18.0364L60.5227 18.0671L60.5237 18.2112L64.8176 18.1804L64.8165 18.0364Z" fill="#E2EDF2"/>
<path d="M64.8229 18.9027L60.5291 18.9335L60.5301 19.0775L64.8239 19.0468L64.8229 18.9027Z" fill="#E2EDF2"/>
<path d="M64.827 19.7691L60.5332 19.7998L60.5342 19.9438L64.8281 19.9131L64.827 19.7691Z" fill="#E2EDF2"/>
<path d="M64.8353 20.6355L60.5415 20.6663L60.5425 20.8103L64.8364 20.7796L64.8353 20.6355Z" fill="#E2EDF2"/>
<path d="M64.8414 21.4995L60.5476 21.5303L60.5486 21.6743L64.8425 21.6436L64.8414 21.4995Z" fill="#E2EDF2"/>
<path d="M64.8478 22.3661L60.554 22.3969L60.555 22.5409L64.8488 22.5102L64.8478 22.3661Z" fill="#E2EDF2"/>
<path d="M64.8517 23.2323L60.5579 23.2631L60.5589 23.4071L64.8527 23.3764L64.8517 23.2323Z" fill="#E2EDF2"/>
<path d="M81.4255 22.6829L72.4018 19.7874C72.0882 19.6868 71.7524 19.8595 71.6518 20.1731L69.8881 25.6696C69.7875 25.9832 69.9601 26.319 70.2738 26.4197L79.2974 29.3151C79.611 29.4157 79.9469 29.2431 80.0475 28.9294L81.8112 23.433C81.9118 23.1193 81.7391 22.7835 81.4255 22.6829Z" fill="#184785"/>
<path d="M78.9313 27.7488L77.3559 27.2379L76.2104 25.0054L77.2029 24.4968C77.2363 24.4792 77.2728 24.4684 77.3104 24.465C77.3479 24.4616 77.3858 24.4657 77.4218 24.477C77.4577 24.4883 77.4911 24.5066 77.52 24.5309C77.5489 24.5551 77.5727 24.5849 77.59 24.6183L79.0978 27.544C79.1132 27.5687 79.1205 27.5975 79.1187 27.6265C79.1169 27.6556 79.106 27.6833 79.0877 27.7059C79.0693 27.7284 79.0444 27.7447 79.0164 27.7524C78.9883 27.7601 78.9586 27.7588 78.9313 27.7488Z" fill="white"/>
<path d="M76.8311 27.0736L71.4884 25.3609C71.4622 25.3528 71.4389 25.337 71.4218 25.3156C71.4046 25.2941 71.3942 25.268 71.392 25.2407C71.3899 25.2133 71.3959 25.1858 71.4095 25.1619C71.4231 25.138 71.4435 25.1188 71.4682 25.1066L74.6549 23.466C74.7226 23.4313 74.8014 23.4248 74.874 23.448C74.9465 23.4712 75.0069 23.5222 75.042 23.5898L76.8311 27.0736Z" fill="white"/>
<path d="M77.2904 23.5109C77.2484 23.6371 77.17 23.7481 77.0652 23.8299C76.9603 23.9118 76.8336 23.9608 76.701 23.9709C76.5683 23.981 76.4357 23.9517 76.3196 23.8866C76.2036 23.8216 76.1094 23.7237 76.0488 23.6053C75.9881 23.4869 75.9639 23.3532 75.979 23.2211C75.9941 23.0889 76.0479 22.9641 76.1336 22.8624C76.2194 22.7608 76.3333 22.6867 76.461 22.6495C76.5887 22.6123 76.7246 22.6137 76.8515 22.6534C76.9371 22.6802 77.0165 22.7238 77.085 22.7816C77.1536 22.8394 77.2099 22.9103 77.2508 22.9901C77.2916 23.0699 77.3162 23.1571 77.323 23.2465C77.3298 23.3359 77.3187 23.4258 77.2904 23.5109Z" fill="white"/>
<path d="M55.2331 18.5035H49.6114C49.3367 18.5035 49.114 18.7262 49.114 19.0009V23.799C49.114 24.0736 49.3367 24.2963 49.6114 24.2963H55.2331C55.5078 24.2963 55.7305 24.0736 55.7305 23.799V19.0009C55.7305 18.7262 55.5078 18.5035 55.2331 18.5035Z" fill="#F89D13"/>
<path d="M51.7002 20.1849C51.8921 19.9927 52.1367 19.8618 52.4031 19.8086C52.6694 19.7555 52.9456 19.7826 53.1965 19.8864C53.4475 19.9902 53.662 20.1662 53.813 20.392C53.9639 20.6178 54.0445 20.8833 54.0445 21.1549C54.0445 21.4265 53.9639 21.692 53.813 21.9178C53.662 22.1436 53.4475 22.3196 53.1965 22.4234C52.9456 22.5273 52.6694 22.5543 52.4031 22.5012C52.1367 22.448 51.8921 22.3171 51.7002 22.1249C51.4438 21.8672 51.2998 21.5184 51.2998 21.1549C51.2998 20.7914 51.4438 20.4426 51.7002 20.1849ZM52.1503 20.635C52.0478 20.7373 51.978 20.8676 51.9496 21.0095C51.9212 21.1514 51.9356 21.2986 51.9909 21.4324C52.0462 21.5661 52.1399 21.6805 52.2602 21.7609C52.3806 21.8414 52.5221 21.8843 52.6668 21.8843C52.8115 21.8843 52.953 21.8414 53.0733 21.7609C53.1937 21.6805 53.2874 21.5661 53.3427 21.4324C53.398 21.2986 53.4124 21.1514 53.384 21.0095C53.3556 20.8676 53.2858 20.7373 53.1833 20.635C53.0453 20.4994 52.8593 20.4238 52.6659 20.4247C52.4724 20.4255 52.2871 20.5027 52.1503 20.6395V20.635Z" fill="white"/>
<path d="M50.8989 22.9237C50.9593 22.982 51.04 23.0146 51.1239 23.0146C51.2079 23.0146 51.2886 22.982 51.349 22.9237L52.1456 22.1248C52.1797 22.0964 52.2075 22.0612 52.2273 22.0214C52.247 21.9816 52.2582 21.9382 52.2602 21.8938C52.2622 21.8495 52.255 21.8052 52.2389 21.7638C52.2228 21.7224 52.1983 21.6848 52.1669 21.6534C52.1355 21.622 52.098 21.5975 52.0566 21.5815C52.0152 21.5654 51.9709 21.5581 51.9265 21.5601C51.8822 21.5621 51.8387 21.5734 51.799 21.5931C51.7592 21.6128 51.724 21.6406 51.6955 21.6747L50.8989 22.4714C50.8399 22.5319 50.8069 22.6131 50.8069 22.6976C50.8069 22.7821 50.8399 22.8632 50.8989 22.9237Z" fill="white"/>
<path d="M17.2474 39.3927H15.4695C15.1016 39.3927 14.8033 39.6909 14.8033 40.0588V44.7759C14.8033 45.1438 15.1016 45.442 15.4695 45.442H17.2474C17.6153 45.442 17.9135 45.1438 17.9135 44.7759V40.0588C17.9135 39.6909 17.6153 39.3927 17.2474 39.3927Z" fill="#5BA5F4"/>
<path d="M17.2474 46.0071H15.4695C15.1016 46.0071 14.8033 46.3053 14.8033 46.6732V51.3903C14.8033 51.7582 15.1016 52.0564 15.4695 52.0564H17.2474C17.6153 52.0564 17.9135 51.7582 17.9135 51.3903V46.6732C17.9135 46.3053 17.6153 46.0071 17.2474 46.0071Z" fill="#5BA5F4"/>
<path d="M15.4673 75.1733C15.4673 76.348 16.2977 77.3 17.3239 77.3H35.4246C36.4509 77.3 37.2813 76.348 37.2813 75.1733V37.365C37.2813 36.1902 36.4509 35.2383 35.4246 35.2383H17.3194C16.2932 35.2383 15.4628 36.1902 15.4628 37.365L15.4673 75.1733Z" fill="#1E2633"/>
<path d="M36.3812 38.4003H16.3585V71.9754H36.3812V38.4003Z" fill="#5BA5F4"/>
<path d="M24.1246 36.9824C24.1246 37.1286 24.1827 37.2689 24.2861 37.3723C24.3895 37.4757 24.5298 37.5338 24.676 37.5338H28.0697C28.216 37.5338 28.3562 37.4757 28.4596 37.3723C28.563 37.2689 28.6211 37.1286 28.6211 36.9824C28.6211 36.8362 28.563 36.6959 28.4596 36.5925C28.3562 36.4891 28.216 36.431 28.0697 36.431H24.676C24.5298 36.431 24.3895 36.4891 24.2861 36.5925C24.1827 36.6959 24.1246 36.8362 24.1246 36.9824Z" fill="#5BA5F4"/>
<path d="M28.7269 73.2289H24.0099C23.642 73.2289 23.3438 73.5271 23.3438 73.895V75.6729C23.3438 76.0408 23.642 76.3391 24.0099 76.3391H28.7269C29.0948 76.3391 29.3931 76.0408 29.3931 75.6729V73.895C29.3931 73.5271 29.0948 73.2289 28.7269 73.2289Z" fill="#5BA5F4"/>
<path d="M30.0546 8.15576C30.0546 8.15576 28.7043 7.18355 27.1897 8.56085C26.2895 9.38228 26.5146 10.5683 26.1455 12.4767C26.0577 12.9268 25.081 13.0686 24.6917 13.8675C24.5027 14.2523 24.6917 15.3236 24.4667 15.5959C23.5372 16.7842 24.0638 18.0714 24.9167 18.5215C27.9077 20.0969 28.6301 18.238 29.3907 17.2433C30.1514 16.2485 31.4814 10.3725 30.0546 8.15576Z" fill="#0F335B"/>
<path d="M29.9492 13.0597C30.2375 12.9672 30.4996 12.8072 30.7137 12.5931C30.9278 12.379 31.0877 12.117 31.1802 11.8287C31.5696 10.7889 31.3288 9.09432 31.0677 8.86027C30.8067 8.62622 29.9492 13.0597 29.9492 13.0597Z" fill="#0F335B"/>
<path d="M28.0432 12.452L27.6967 11.6576L27.9217 11.8016C27.9827 11.9699 28.0353 12.1412 28.0792 12.3147C28.1333 12.515 28.0432 12.452 28.0432 12.452Z" fill="#0F335B"/>
<path d="M28.0273 11.5404V15.1097C28.1495 15.2488 28.2982 15.3621 28.4648 15.4428C28.6314 15.5236 28.8124 15.5703 28.9973 15.58C29.3811 15.5552 29.7417 15.3874 30.0078 15.1097V12.8592L28.0273 11.5404Z" fill="#FE7D6B"/>
<path d="M29.4766 13.5412C28.5584 13.557 27.9485 12.6725 27.9327 11.8016L27.9102 10.4175C27.9024 10.2143 27.9346 10.0116 28.0052 9.82088C28.0757 9.63017 28.1831 9.45521 28.3212 9.306C28.4593 9.15679 28.6255 9.03625 28.8102 8.95126C28.9949 8.86627 29.1946 8.8185 29.3978 8.81067C29.8069 8.81305 30.1984 8.97722 30.4868 9.26734C30.7752 9.55745 30.9371 9.94992 30.9371 10.359L30.9236 11.7386C30.9394 12.6095 30.397 13.5255 29.4766 13.5412Z" fill="#FE7D6B"/>
<path d="M27.4575 11.4843C27.4956 11.5942 27.5747 11.6851 27.6783 11.738C27.782 11.7909 27.9021 11.8016 28.0134 11.7678C28.36 11.599 28.2204 11.3177 28.1012 11.0814C27.9819 10.8451 27.8131 10.7529 27.5791 10.8721C27.4836 10.9387 27.4176 11.0396 27.395 11.1537C27.3723 11.2678 27.3947 11.3863 27.4575 11.4843Z" fill="#FE7D6B"/>
<g style="mix-blend-mode:multiply">
<path d="M27.5433 11.2279C27.5405 11.1919 27.5459 11.1558 27.5592 11.1222C27.5724 11.0887 27.5932 11.0586 27.6199 11.0343C27.6332 11.0256 27.6483 11.0199 27.6641 11.0178C27.6799 11.0157 27.696 11.0172 27.7111 11.0221C27.7263 11.0271 27.7401 11.0354 27.7516 11.0465C27.7631 11.0576 27.7719 11.0711 27.7774 11.0861C27.7774 11.0996 27.7594 11.1086 27.7549 11.0861C27.7489 11.0716 27.7378 11.0597 27.7238 11.0527C27.7097 11.0457 27.6936 11.0439 27.6784 11.0478C27.6622 11.0527 27.6474 11.0614 27.6353 11.0731C27.6232 11.0849 27.614 11.0994 27.6086 11.1154C27.5849 11.1816 27.5849 11.2539 27.6086 11.3202C27.6268 11.3896 27.6671 11.4512 27.7234 11.4957C27.7495 11.5158 27.7806 11.5283 27.8134 11.5317C27.8434 11.5352 27.8737 11.5281 27.8989 11.5114C27.8989 11.5114 27.9259 11.5114 27.9214 11.5249C27.9163 11.539 27.9079 11.5516 27.897 11.5618C27.886 11.572 27.8728 11.5794 27.8584 11.5835C27.826 11.5925 27.7918 11.5925 27.7594 11.5835C27.6908 11.5558 27.6342 11.5048 27.5996 11.4394C27.5612 11.3756 27.5417 11.3023 27.5433 11.2279Z" fill="#DEAC93"/>
</g>
<path d="M30.0548 8.15577C30.0548 8.15577 30.73 7.76643 31.2228 9.14373C31.3266 9.44736 31.3546 9.77175 31.3044 10.0887C31.2542 10.4056 31.1273 10.7054 30.9347 10.9621C30.9347 10.9621 30.9843 10.1137 30.7682 9.66585C30.6624 9.4408 30.3024 9.40254 30.3024 9.40254L30.0548 8.15577Z" fill="#0F335B"/>
<path d="M30.3023 9.40263C30.3023 9.40263 29.5709 9.05156 29.2581 9.59843C28.9453 10.1453 28.6257 10.8452 27.5342 11.041C26.4427 11.2368 26.5935 10.026 27.6062 9.32387C28.6189 8.62171 30.4598 7.97582 30.3023 9.40263Z" fill="#0F335B"/>
<path d="M26.0603 12.936H26.1031C25.7498 11.3247 26.0581 10.2557 26.3799 9.64132C26.5816 9.21486 26.901 8.8549 27.3004 8.60385L27.2824 8.55884C26.8717 8.812 26.5439 9.17964 26.3394 9.61657C26.0153 10.2332 25.7048 11.3112 26.0603 12.936Z" fill="#0F335B"/>
<path d="M44.9241 49.7181L45.0659 49.9431C45.0659 49.9431 49.1167 51.8786 49.8256 50.9401C50.5346 50.0016 47.2196 48.7144 47.2196 48.7144L44.9241 49.7181Z" fill="#184785"/>
<path d="M43.2517 46.421L44.9238 49.718C44.9238 49.718 48.5021 51.0683 48.9455 50.3189C49.3888 49.5695 46.0018 48.1472 46.0018 48.1472L45.2456 45.208L43.2517 46.421Z" fill="#FE7D6B"/>
<path d="M35.8455 38.3888L35.6992 38.6138C35.6992 38.6138 35.8005 43.0946 36.9617 43.3106C38.123 43.5267 37.7697 39.9799 37.7697 39.9799L35.8455 38.3888Z" fill="#184785"/>
<path d="M38.0284 35.4048L35.8455 38.3889C35.8455 38.3889 36.2505 42.1923 37.1237 42.2463C37.9969 42.3003 37.7336 38.6455 37.7336 38.6455L40.0134 36.6426L38.0284 35.4048Z" fill="#FE7D6B"/>
<path d="M33.4938 27.3977L33.7908 27.3414C33.7908 27.3414 41.8791 21.4181 45.4934 23.7946C49.9944 26.7383 40.4028 38.1055 40.4028 38.1055L37.2341 35.9473L38.4224 31.3293L28.5494 33.4763L29.2606 26.7518L33.4938 27.3977Z" fill="#1E2633"/>
<path d="M25.2027 27.4177C25.2027 27.4177 23.7287 29.8347 24.0415 33.6268C24.3476 37.3334 36.6443 37.3334 36.6443 37.3334L43.0582 47.5349L46.4182 46.8597C46.4182 46.8597 43.5105 31.9142 42.2615 31.0635C41.0125 30.2128 31.8215 29.2766 31.8215 29.2766L31.4839 27.1611L25.2027 27.4177Z" fill="#184785"/>
<path d="M42.6981 4.25113C41.152 8.17149 38.2128 12.6657 35.4267 15.7287C34.5484 16.7285 33.5678 17.6336 32.5011 18.4292L30.9955 14.5742L30.8087 14.0925L31.2768 13.674L31.3623 13.5974L36.7635 8.76562L40.2743 2.95935L42.6981 4.25113Z" fill="#F89D13"/>
<path d="M36.8807 27.4154C36.3928 25.1976 35.7036 23.0288 34.8215 20.9362C33.7791 18.478 32.4753 16.1391 30.9327 13.9597L28.3761 14.7496L33.5522 28.2639L36.8807 27.4154Z" fill="#F89D13"/>
<path d="M35.0938 27.4155C34.7249 25.4016 34.2066 23.4179 33.5432 21.481C32.6958 19.0097 31.6168 16.6241 30.3205 14.3559C29.6079 14.5526 28.8472 14.4722 28.1915 14.1309L23.1189 15.3641C25.3244 19.9506 27.5314 24.5364 29.7398 29.1214L35.0938 27.4155Z" fill="white"/>
<path d="M31.8394 27.688C31.4444 28.4289 30.9474 29.1106 30.3631 29.7135C27.9146 32.225 24.6739 32.5491 23.5216 32.6099L25.1217 25.325L24.3183 18.1685L24.8539 15.6322L27.766 14.2458C28.7163 16.313 29.529 18.4405 30.1988 20.6147C30.9126 22.9307 31.4609 25.2944 31.8394 27.688Z" fill="#F89D13"/>
<path d="M29.2805 20.862L29.5056 19.2642L30.4868 18.7578C30.4868 18.7578 30.9751 18.8411 30.7703 19.4712C30.5655 20.1014 29.2873 20.862 29.2873 20.862" fill="#EA6759"/>
<path d="M28.6594 21.238L29.2806 20.8621L30.0772 19.5344L31.1485 18.9987C31.1634 18.9913 31.1798 18.9871 31.1965 18.9862C31.2132 18.9854 31.2298 18.988 31.2455 18.9939C31.2611 18.9999 31.2753 19.0089 31.2873 19.0206C31.2993 19.0323 31.3087 19.0463 31.315 19.0618C31.3863 19.1256 31.4423 19.2047 31.4789 19.2931C31.5155 19.3815 31.5318 19.4771 31.5266 19.5726C31.6335 19.644 31.7107 19.7521 31.7434 19.8765C31.7762 20.0009 31.7623 20.1329 31.7043 20.2478C32.0352 20.3873 32.1544 20.5606 32.0622 20.7699C32.1412 20.8787 32.1977 21.0023 32.2282 21.1334C32.2587 21.2644 32.2627 21.4002 32.24 21.5328L30.5926 22.7233L28.97 23.3197L28.6594 21.238Z" fill="#FE7D6B"/>
<path d="M27.766 14.2434L23.9221 14.8713C23.3434 14.9408 22.7954 15.1694 22.3389 15.5317C21.8824 15.8941 21.5353 16.3759 21.3363 16.9237C20.3033 19.7459 19.6034 22.775 19.4369 25.3676C19.4124 25.7523 19.4781 26.1374 19.6287 26.4922C19.7793 26.8471 20.0107 27.1618 20.3045 27.4114C20.5982 27.661 20.9462 27.8386 21.3207 27.9299C21.6952 28.0213 22.0859 28.0239 22.4616 27.9377C25.1036 27.3503 27.2641 25.6399 29.1815 23.646L28.8642 20.9071L23.463 23.4862L27.766 14.2434Z" fill="#F89D13"/>
<path d="M25.1983 19.3384C25.0768 19.6917 24.944 20.0406 24.8112 20.3894C24.6785 20.7382 24.5389 21.0848 24.4016 21.4314L23.9718 22.4666C23.8233 22.8087 23.6725 23.1417 23.5217 23.4883L23.4609 23.4636C23.5802 23.1102 23.7107 22.7592 23.8435 22.4103L24.2554 21.3684C24.3994 21.024 24.5389 20.6775 24.6875 20.3354C24.836 19.9933 24.9868 19.6602 25.1376 19.3114L25.1983 19.3384Z" fill="#D37E0D"/>
<path d="M23.479 23.4367C23.9291 23.2117 24.3589 22.9866 24.8045 22.7616C25.2501 22.5365 25.7047 22.3272 26.1413 22.1112L27.4916 21.4811C27.9417 21.274 28.3918 21.0715 28.8419 20.8779L28.8712 20.9364C28.4211 21.1615 27.989 21.3865 27.5456 21.6116L26.2066 22.2597C25.7565 22.469 25.3064 22.6851 24.8563 22.8876C24.4062 23.0902 23.9561 23.2972 23.506 23.493L23.479 23.4367Z" fill="#D37E0D"/>
<g opacity="0.3">
<path d="M29.1949 16.4063C29.4638 16.6274 29.8059 16.7398 30.1536 16.7213C30.4954 16.6905 30.8148 16.5379 31.0538 16.2915L31.1078 16.332C31.0043 16.494 30.8639 16.6291 30.698 16.7261C30.5321 16.8231 30.3455 16.8794 30.1536 16.8901C29.9617 16.9015 29.7699 16.8679 29.5933 16.7921C29.4167 16.7163 29.2603 16.6004 29.1364 16.4535L29.1949 16.4063Z" fill="#1F3C88"/>
<path d="M31.6708 24.6229C31.8828 24.4112 32.0714 24.1773 32.2334 23.9252C32.5559 23.4229 32.7641 22.8559 32.8433 22.2643C32.8853 21.9662 32.8943 21.6643 32.8703 21.3641H32.9356C33.0004 21.6671 33.0194 21.9782 32.9918 22.2868C32.9357 22.908 32.7151 23.5031 32.3527 24.0107C32.1748 24.2666 31.9593 24.4943 31.7135 24.6859L31.6708 24.6229Z" fill="#1F3C88"/>
<path d="M32.0737 24.7037C32.3137 24.5398 32.5437 24.3617 32.7624 24.1704C32.9874 23.9791 33.1787 23.772 33.3813 23.5582L33.4353 23.5965C33.2933 23.8636 33.1024 24.1018 32.8727 24.2986C32.6465 24.4977 32.3866 24.6547 32.1052 24.7622L32.0737 24.7037Z" fill="#1F3C88"/>
</g>
<path d="M45.8038 50.1746L45.9366 50.6112L45.4573 50.6675L45.0657 49.9541L45.8038 50.1746Z" fill="#184785"/>
<path d="M35.8339 39.3791L35.5054 39.6942L35.2375 39.2914L35.6989 38.6207L35.8339 39.3791Z" fill="#184785"/>
<path d="M27.5954 29.0518C27.78 28.4104 34.5427 28.1111 34.5427 28.1111L31.4843 30.4156C31.4843 30.4156 27.4109 29.6954 27.5954 29.0518Z" fill="#7FABD3"/>
<path d="M31.4839 30.4153L42.0455 30.071L43.7873 24.5798C43.8105 24.5029 43.8153 24.4216 43.8015 24.3425C43.7877 24.2634 43.7555 24.1886 43.7076 24.1241C43.6598 24.0596 43.5975 24.0072 43.5257 23.971C43.454 23.9349 43.3748 23.916 43.2945 23.9159H34.0675C33.8919 23.916 33.7211 23.9725 33.5801 24.077C33.4391 24.1815 33.3354 24.3286 33.2843 24.4965L31.4839 30.4153Z" fill="#93BBE5"/>
<path d="M38.3262 27.4355C38.5542 27.4057 38.7149 27.1967 38.6851 26.9687C38.6552 26.7407 38.4462 26.58 38.2182 26.6098C37.9902 26.6396 37.8296 26.8486 37.8594 27.0766C37.8892 27.3046 38.0982 27.4653 38.3262 27.4355Z" fill="#7FABD3"/>
<path d="M30.0166 11.8039C30.0728 11.8039 30.3586 11.7477 30.3744 11.5924C30.3249 11.3733 30.2405 11.1636 30.1246 10.9713C30.1181 10.9616 30.1084 10.9547 30.0972 10.9518C30.086 10.9489 30.0741 10.9502 30.0638 10.9555C30.054 10.9612 30.0467 10.9704 30.0433 10.9812C30.04 10.9921 30.0409 11.0038 30.0458 11.014C30.1547 11.1904 30.236 11.3824 30.2866 11.5834C30.2866 11.6487 30.1133 11.7004 30.0031 11.7162C29.9972 11.7167 29.9915 11.7184 29.9864 11.7213C29.9813 11.7241 29.9767 11.728 29.9732 11.7326C29.9696 11.7372 29.967 11.7426 29.9655 11.7483C29.9641 11.754 29.9638 11.7599 29.9648 11.7657C29.9656 11.7716 29.9676 11.7773 29.9707 11.7825C29.9737 11.7876 29.9778 11.7921 29.9826 11.7957C29.9875 11.7993 29.9929 11.8018 29.9988 11.8032C30.0046 11.8047 30.0106 11.8049 30.0166 11.8039Z" fill="#C6493C"/>
<path d="M30.7098 11.0343C30.7112 11.0505 30.7093 11.0669 30.7043 11.0824C30.6993 11.0979 30.6913 11.1123 30.6807 11.1247C30.6702 11.1372 30.6573 11.1474 30.6428 11.1549C30.6283 11.1623 30.6124 11.1668 30.5962 11.1682C30.5799 11.1695 30.5636 11.1676 30.548 11.1626C30.5325 11.1576 30.5181 11.1496 30.5057 11.1391C30.4933 11.1285 30.483 11.1156 30.4756 11.1011C30.4681 11.0866 30.4636 11.0708 30.4623 11.0545C30.4578 11.0202 30.4671 10.9855 30.4882 10.9581C30.5094 10.9306 30.5405 10.9127 30.5748 10.9082C30.6093 10.9076 30.6426 10.9204 30.6678 10.9439C30.693 10.9674 30.7081 10.9998 30.7098 11.0343Z" fill="#363435"/>
<path d="M29.1659 10.6899C29.1753 10.6938 29.1858 10.6938 29.1952 10.6899C29.2566 10.6418 29.3304 10.6121 29.4081 10.6041C29.4857 10.5961 29.564 10.6103 29.634 10.6449C29.6442 10.6498 29.6559 10.6507 29.6668 10.6474C29.6776 10.644 29.6868 10.6367 29.6925 10.6269C29.6976 10.6163 29.6985 10.6043 29.6952 10.5931C29.6919 10.5818 29.6845 10.5722 29.6745 10.5661C29.5888 10.5229 29.4924 10.5055 29.3969 10.5159C29.3015 10.5262 29.2111 10.564 29.1366 10.6246C29.1284 10.6331 29.1238 10.6444 29.1238 10.6562C29.1238 10.6679 29.1284 10.6792 29.1366 10.6877C29.1459 10.6914 29.1561 10.6921 29.1659 10.6899Z" fill="black"/>
<path d="M30.3811 10.5842C30.3899 10.5871 30.3993 10.5871 30.4081 10.5842C30.4515 10.5506 30.5042 10.5312 30.559 10.5288C30.6138 10.5264 30.668 10.541 30.7142 10.5707C30.723 10.578 30.7342 10.582 30.7457 10.582C30.7572 10.582 30.7683 10.578 30.7772 10.5707C30.7806 10.5658 30.7831 10.5603 30.7843 10.5545C30.7856 10.5487 30.7858 10.5427 30.7847 10.5368C30.7837 10.5309 30.7815 10.5254 30.7783 10.5203C30.775 10.5153 30.7708 10.511 30.7659 10.5077C30.7043 10.4665 30.6311 10.4461 30.5571 10.4493C30.483 10.4525 30.4119 10.4793 30.3541 10.5257C30.3501 10.5296 30.3469 10.5344 30.3447 10.5396C30.3425 10.5448 30.3414 10.5504 30.3414 10.556C30.3414 10.5617 30.3425 10.5673 30.3447 10.5725C30.3469 10.5777 30.3501 10.5824 30.3541 10.5864C30.3631 10.5885 30.3725 10.5877 30.3811 10.5842Z" fill="black"/>
<path d="M29.5822 12.0629C30.1898 12.1776 30.4486 12.0629 30.4486 12.0629C30.461 12.1604 30.4351 12.259 30.3763 12.3379C30.3176 12.4168 30.2306 12.4699 30.1335 12.486C30.0691 12.4982 30.0027 12.4967 29.9389 12.4815C29.8751 12.4663 29.8152 12.4378 29.7631 12.3978C29.7111 12.3579 29.668 12.3074 29.6369 12.2497C29.6057 12.192 29.587 12.1283 29.5822 12.0629Z" fill="#D65E42"/>
<path d="M30.4283 12.0651C30.4283 12.0651 30.4148 12.1349 30.4103 12.1506C30.4058 12.1664 30.3473 12.2069 30.102 12.2317C29.9369 12.2428 29.771 12.226 29.6114 12.1821C29.5969 12.1437 29.5871 12.1037 29.5822 12.0629L29.6857 12.0809C29.9312 12.1325 30.1853 12.1272 30.4283 12.0651Z" fill="white"/>
<path d="M29.5591 11.3105C29.6297 11.3051 29.6822 11.2384 29.6763 11.1616C29.6704 11.0848 29.6083 11.0269 29.5377 11.0323C29.4671 11.0377 29.4146 11.1044 29.4205 11.1812C29.4264 11.2581 29.4884 11.316 29.5591 11.3105Z" fill="#363435"/>
<path d="M42.606 3.40509C42.7026 3.35956 42.7966 3.30846 42.8873 3.25205C43.2908 2.9806 43.6215 2.61432 43.8505 2.18532C43.9878 1.96027 43.8775 1.78023 43.7312 1.79148C43.833 1.63548 43.9218 1.4714 43.9968 1.30087C44.1093 1.05332 43.9158 0.891284 43.747 0.958799C43.7897 0.880032 43.8302 0.796764 43.8663 0.711245C44.0148 0.37142 43.657 0.202633 43.5062 0.546959C43.3023 0.976776 42.9926 1.34772 42.606 1.62494C42.8591 1.3559 43.0852 1.06268 43.2811 0.749503C43.4679 0.454688 43.1056 0.225138 42.9188 0.524453C42.5511 1.07087 42.0698 1.53146 41.5077 1.87475C41.5807 1.67812 41.6832 1.49373 41.8116 1.32788C42.0253 1.05782 41.6675 0.823769 41.4492 1.10283C41.0322 1.6016 40.7254 2.18295 40.549 2.8087C40.5479 2.8139 40.5479 2.81926 40.549 2.82446L40.324 3.13278C40.9991 3.43434 41.6338 3.77417 42.2662 4.1365C42.4844 3.6819 42.606 3.40509 42.606 3.40509Z" fill="#FE7D6B"/>
<path d="M42.6779 1.59578L42.6531 1.56653C42.6531 1.56653 41.978 2.1224 41.7529 2.1269V2.16516C41.8793 2.13998 41.9985 2.08693 42.1018 2.00988C42.3013 1.88262 42.4937 1.74438 42.6779 1.59578Z" fill="#995033"/>
<path d="M43.7622 0.970136L43.7307 0.947632C43.7307 0.947632 42.9408 2.07288 42.1104 2.43071L42.1261 2.46446C42.2248 2.42011 42.3203 2.36897 42.4119 2.31143C42.9341 1.94329 43.3906 1.48986 43.7622 0.970136Z" fill="#995033"/>
<path d="M43.7445 1.80717L43.7174 1.78467C43.7174 1.78467 42.8172 2.82665 42.4617 2.76363V2.80189C42.5868 2.80357 42.7089 2.76315 42.8082 2.68712C43.1553 2.43338 43.4697 2.13783 43.7445 1.80717Z" fill="#995033"/>
<path d="M57.2136 44.9335C57.101 44.9485 56.9875 44.956 56.8738 44.956C56.3604 44.9379 55.8591 44.795 55.4132 44.5397C55.1702 44.4204 55.1634 44.1908 55.3007 44.1188C55.1222 44.0369 54.9506 43.9405 54.7876 43.8308C54.5468 43.6687 54.6301 43.4167 54.8191 43.3807C54.7358 43.3334 54.6548 43.2816 54.5738 43.2254C54.2497 43.0003 54.477 42.6515 54.7989 42.8766C55.2211 43.1473 55.705 43.3067 56.2054 43.3402C55.8254 43.2436 55.456 43.1095 55.1027 42.9396C54.7718 42.7798 54.9676 42.3679 55.2985 42.5277C55.9348 42.8145 56.6259 42.9597 57.3239 42.9531C57.1491 42.8187 56.9548 42.7117 56.7478 42.6357C56.4035 42.512 56.5925 42.1024 56.9413 42.2262C57.5925 42.4413 58.1907 42.7918 58.6967 43.2546L58.708 43.2681L59.0883 43.4144C58.663 44.0558 58.2736 44.7197 57.9113 45.3994C57.4769 45.1135 57.2136 44.9335 57.2136 44.9335Z" fill="#CC724A"/>
<path d="M59.093 43.4166L65.0163 45.6919L65.3314 44.3753L68.9592 44.9065C68.9592 44.9065 68.5901 47.427 67.7709 48.9888C67.6412 49.2501 67.4819 49.4955 67.2961 49.7203C67.026 50.0286 66.3171 49.9206 65.3877 49.5762C63.0787 48.7188 59.4351 46.403 57.916 45.4061C58.2783 44.7219 58.6767 44.058 59.093 43.4166Z" fill="#CC724A"/>
<path d="M65.0186 45.6872L66.2968 46.4997L65.1626 45.0841L65.0186 45.6872Z" fill="#995033"/>
<path d="M56.1338 43.3536V43.3131C56.1338 43.3131 57.0497 43.4346 57.2478 43.3131L57.268 43.3469C57.1409 43.3943 57.005 43.4135 56.8697 43.4031C56.6237 43.3996 56.378 43.3831 56.1338 43.3536Z" fill="#995033"/>
<path d="M54.8125 43.4009L54.8283 43.3649C54.8418 43.3649 56.165 43.9275 57.108 43.7835V43.8217C56.9948 43.8392 56.8804 43.8474 56.7659 43.8465C56.0945 43.8081 55.4342 43.6575 54.8125 43.4009Z" fill="#995033"/>
<path d="M55.301 44.1366V44.1006C55.3145 44.1006 56.6851 44.5349 56.9754 44.2761L57.0001 44.3054C56.8896 44.3774 56.7579 44.4099 56.6266 44.3977C56.1757 44.3651 55.7305 44.2775 55.301 44.1366Z" fill="#995033"/>
<path d="M79.26 61.8662C79.26 61.8662 82.6628 49.1869 80.5788 45.3543C78.3283 41.2179 72.1665 43.2771 71.4013 44.7039C70.096 47.1412 69.3601 60.9075 69.3601 60.9075L79.26 61.8662Z" fill="#F89D13"/>
<path d="M73.0509 63.9817H71.7456V74.721H73.0509V63.9817Z" fill="#0F335B"/>
<path d="M76.2309 76.4358C76.5752 76.0194 74.5048 74.5116 72.3758 74.5116C70.2468 74.5116 68.3542 76.0059 68.5229 76.4358C68.6917 76.8656 75.8956 76.8499 76.2309 76.4358Z" fill="#0F335B"/>
<path d="M52.2223 71.6489L51.4932 75.6233C51.4932 75.6233 48.2547 77.2752 48.6441 77.6645C49.2112 78.2339 53.1901 77.0546 53.1901 77.0546L54.3153 72.2971L52.2223 71.6489Z" fill="#CC724A"/>
<path d="M57.6912 72.7405L56.998 76.6946C56.998 76.6946 53.8991 78.6053 54.3177 78.9631C54.9276 79.4852 58.8007 77.9819 58.8007 77.9819L59.8517 73.2108L57.6912 72.7405Z" fill="#CC724A"/>
<path d="M72.5691 59.6292C71.6914 60.93 65.1042 61.6231 61.0601 61.9292C59.2124 62.071 57.8936 62.1295 57.8936 62.1295L55.076 74.4172L50.1902 73.8838C50.1902 73.8838 52.6882 57.9999 54.0475 56.276C54.8149 55.2993 58.6295 54.7614 62.2281 54.5071C64.9039 54.318 67.6045 54.1043 67.6045 54.1043L68.0254 52.979H72.7694C72.7694 52.979 73.8496 57.7298 72.5691 59.6292Z" fill="#0F335B"/>
<path d="M78.3707 54.2437C78.6995 55.9693 78.6995 57.7415 78.3707 59.4671C77.826 62.3927 72.3191 62.0732 71.0768 62.2465C69.8345 62.4197 63.0088 62.5413 63.0088 62.5413L60.5062 75.2498L55.8725 74.6242C55.8725 74.6242 55.6114 61.0019 57.0652 57.5069C57.9227 55.4455 69.1729 55.0179 69.1729 55.0179L69.3327 53.3795L78.3707 54.2437Z" fill="#184785"/>
<path d="M76.9062 57.9592C76.1529 57.8831 75.4454 57.5621 74.892 57.0455C74.6804 56.8463 74.5133 56.6047 74.4014 56.3365C74.3989 56.3299 74.3979 56.3228 74.3983 56.3158C74.3987 56.3087 74.4005 56.3018 74.4037 56.2955C74.4068 56.2892 74.4112 56.2835 74.4167 56.279C74.4221 56.2744 74.4284 56.2711 74.4351 56.269C74.4418 56.2665 74.4489 56.2653 74.456 56.2655C74.4631 56.2657 74.4701 56.2674 74.4766 56.2703C74.4831 56.2732 74.4889 56.2774 74.4938 56.2826C74.4986 56.2878 74.5024 56.2939 74.5049 56.3005C74.5049 56.314 74.9708 57.5766 76.9219 57.8511C76.9363 57.8511 76.95 57.8568 76.9601 57.8669C76.9703 57.8771 76.976 57.8908 76.976 57.9051C76.976 57.9195 76.9703 57.9332 76.9601 57.9433C76.95 57.9535 76.9363 57.9592 76.9219 57.9592H76.9062Z" fill="#0F335B"/>
<path d="M80.3582 44.9851C80.3582 44.9851 81.4969 49.261 80.6755 55.2046C80.6755 55.2046 78.6095 55.2991 75.3081 57.9502C74.0883 58.9292 72.9923 60.9591 72.3532 61.9516C69.0787 62.2824 65.5342 62.4692 64.9738 62.503C64.6002 62.5232 64.6857 63.833 65.0233 64.0783C65.2686 64.2628 79.9531 64.3619 80.2299 63.7115C80.8218 62.3252 83.0093 48.0615 80.3582 44.9851Z" fill="#F89D13"/>
<path d="M63.0628 62.4692C63.0783 62.4692 63.0932 62.463 63.1042 62.452C63.1152 62.4411 63.1213 62.4262 63.1213 62.4107C63.1152 61.8524 62.9342 61.3101 62.6037 60.8601C62.5992 60.8536 62.5935 60.8481 62.5868 60.8439C62.5802 60.8397 62.5727 60.8369 62.5649 60.8356C62.5572 60.8343 62.5492 60.8347 62.5416 60.8365C62.5339 60.8384 62.5267 60.8418 62.5204 60.8466C62.5078 60.856 62.4994 60.8699 62.4969 60.8855C62.4944 60.901 62.498 60.9169 62.5069 60.9298C62.8183 61.3603 62.9918 61.8751 63.0043 62.4062C63.0037 62.4219 63.0092 62.4373 63.0197 62.449C63.0302 62.4608 63.0448 62.468 63.0606 62.4692H63.0628Z" fill="#0F335B"/>
<path d="M62.8984 62.5707C62.908 62.573 62.918 62.573 62.9277 62.5707C62.9415 62.563 62.9519 62.5503 62.9565 62.5352C62.9611 62.5201 62.9596 62.5037 62.9524 62.4897C62.7049 62.0471 62.305 61.7096 61.8272 61.5399C61.8198 61.5375 61.812 61.5366 61.8042 61.5372C61.7965 61.5378 61.7889 61.5399 61.782 61.5435C61.7751 61.547 61.7689 61.552 61.7639 61.5579C61.759 61.5639 61.7552 61.5708 61.7529 61.5782C61.7501 61.5856 61.7489 61.5934 61.7494 61.6013C61.7498 61.6092 61.7519 61.6168 61.7555 61.6238C61.7591 61.6308 61.7642 61.637 61.7703 61.6419C61.7764 61.6469 61.7835 61.6505 61.7912 61.6525C62.2352 61.8197 62.6059 62.1386 62.8376 62.5527C62.8451 62.561 62.8548 62.567 62.8655 62.5702C62.8762 62.5734 62.8876 62.5736 62.8984 62.5707Z" fill="#0F335B"/>
<path d="M56.9979 76.6946L58.9536 77.2977L58.6205 78.8033C58.6205 78.8033 54.2681 80.0951 53.8472 79.3029C53.4264 78.5107 56.9979 76.6946 56.9979 76.6946Z" fill="#0F335B"/>
<path d="M51.4934 75.6234L53.3568 76.3548L53.0507 77.6489C53.0507 77.6489 48.9323 78.8596 48.2414 78.0855C47.5505 77.3113 51.4934 75.6234 51.4934 75.6234Z" fill="#0F335B"/>
<path d="M51.0115 75.8328C51.0725 75.8584 51.1318 75.8878 51.1893 75.9206C51.2433 75.9521 51.2973 75.9836 51.349 76.0174L51.5088 76.1231C51.5358 76.1411 51.5606 76.1614 51.5898 76.1771C51.6176 76.1974 51.647 76.2155 51.6776 76.2312C51.6641 76.1996 51.6484 76.1681 51.6326 76.1366C51.6169 76.1051 51.5944 76.0804 51.5718 76.0534C51.5258 76.0006 51.4728 75.9544 51.4143 75.9161C51.3543 75.8788 51.2891 75.8508 51.2208 75.8328C51.1523 75.8137 51.0799 75.8137 51.0115 75.8328Z" fill="white"/>
<path d="M50.2036 76.2311C50.2801 76.2423 50.3521 76.2513 50.4287 76.2671C50.4967 76.2802 50.5631 76.3006 50.6267 76.3279C50.6884 76.3536 50.7454 76.3893 50.7955 76.4336C50.8496 76.4823 50.9 76.535 50.9463 76.5912C50.9414 76.5099 50.9132 76.4318 50.8653 76.3661C50.8169 76.2984 50.7507 76.2454 50.674 76.2131C50.6026 76.184 50.526 76.1694 50.4489 76.1703C50.3633 76.1692 50.2788 76.1902 50.2036 76.2311Z" fill="white"/>
<path d="M49.551 76.5912C49.6129 76.6081 49.6737 76.6283 49.7333 76.652C49.7882 76.6732 49.8409 76.6996 49.8909 76.7307C49.942 76.7617 49.9909 76.7963 50.0371 76.8343C50.0619 76.85 50.0821 76.8748 50.1069 76.8928C50.1317 76.9108 50.1542 76.9378 50.1834 76.9603C50.1768 76.9267 50.1678 76.8936 50.1564 76.8613C50.1427 76.8294 50.1253 76.7991 50.1046 76.7712C50.0646 76.7128 50.0124 76.6637 49.9516 76.6272C49.8913 76.5908 49.8237 76.5685 49.7536 76.5619C49.6847 76.5536 49.6148 76.5637 49.551 76.5912Z" fill="white"/>
<path d="M56.5815 76.9601L56.8066 77.0254C56.8832 77.045 56.9584 77.0698 57.0316 77.0997C57.0677 77.112 57.103 77.1262 57.1374 77.1424C57.1722 77.1566 57.2061 77.1732 57.2387 77.1919C57.3084 77.2234 57.3737 77.2662 57.448 77.3067C57.4097 77.2318 57.356 77.1659 57.2904 77.1132C57.2582 77.0872 57.2243 77.0631 57.1892 77.0412C57.152 77.0209 57.1137 77.0029 57.0744 76.9871C56.9974 76.9567 56.9162 76.9385 56.8336 76.9331C56.7486 76.9242 56.6627 76.9334 56.5815 76.9601Z" fill="white"/>
<path d="M55.7515 77.39C55.8325 77.39 55.9067 77.4148 55.9765 77.4305C56.0477 77.4475 56.1176 77.4693 56.1858 77.4958C56.2535 77.5204 56.3183 77.5521 56.3794 77.5903C56.4446 77.6263 56.5031 77.6736 56.5729 77.7163C56.5434 77.6403 56.4973 77.5719 56.4379 77.516C56.3776 77.4589 56.3064 77.4145 56.2286 77.3855C56.1513 77.3543 56.0688 77.3382 55.9855 77.3383C55.9047 77.3388 55.825 77.3565 55.7515 77.39Z" fill="white"/>
<path d="M55.2424 77.7163C55.3032 77.7501 55.3595 77.7771 55.4135 77.8086C55.4675 77.8401 55.5192 77.8671 55.571 77.9009C55.6228 77.9346 55.6723 77.9684 55.7195 78.0066C55.7668 78.0449 55.8163 78.0854 55.8726 78.1259C55.8581 78.0588 55.8289 77.9958 55.7871 77.9414C55.7459 77.8859 55.6948 77.8386 55.6363 77.8018C55.5777 77.7639 55.513 77.7365 55.445 77.7208C55.3787 77.7039 55.3094 77.7024 55.2424 77.7163Z" fill="white"/>
<path d="M68.0703 54.1558C71.4921 54.5595 74.9488 54.57 78.373 54.1873C78.3888 53.4019 78.4001 52.2249 78.373 50.7913C78.3415 49.0089 78.2673 47.7396 78.247 47.3345C78.166 45.6759 78.247 43.1351 78.9222 39.2913C78.3406 38.8884 77.6933 38.5898 77.0093 38.4091C76.3701 38.22 75.8097 38.2268 74.7183 38.184C73.9891 38.1593 74.1646 38.1975 73.3365 38.184C71.8781 38.1435 71.2637 38.0535 70.1858 38.2493C70.0642 38.2718 69.9472 38.3011 69.8212 38.3371C68.9998 38.5735 68.2307 38.9637 67.5549 39.4871L68.0703 54.1558Z" fill="#1E2633"/>
<path d="M78.3597 49.5357L78.0716 50.2243C78.0716 50.2243 77.8466 47.9468 77.7565 47.2379C77.6665 46.529 77.5315 43.5269 77.5315 43.5269L78.3844 45.9619L78.2156 46.0497L78.3597 49.5357Z" fill="#1E2633"/>
<path d="M68.9796 41.5464C69.0285 42.0783 69.045 42.6126 69.0291 43.1465C69.0072 43.7604 68.9464 44.3722 68.8468 44.9784C68.6533 46.3579 68.9594 47.3459 68.8626 48.3766C68.7366 49.7269 68.6015 51.5881 68.5003 54.2167L68.0727 54.1491L67.7914 46.0766C67.7816 45.7009 67.7974 45.325 67.8386 44.9514C67.9761 43.749 68.3648 42.5889 68.9796 41.5464Z" fill="#1E2633"/>
<path d="M75.8685 40.0656L69.1012 39.9733C68.5922 39.9752 68.0834 39.9474 67.5776 39.8901V39.8563C68.0841 39.9147 68.5936 39.9425 69.1035 39.9396L75.8707 40.0341C76.8384 40.0454 77.8331 40.0611 78.8166 39.9756V40.0094C78.1977 40.0611 77.5766 40.0769 76.9622 40.0769C76.5909 40.0814 76.2308 40.0656 75.8685 40.0656Z" fill="#5BA5F4"/>
<path d="M75.6546 38.8234C75.173 38.7897 74.6847 38.7334 74.212 38.6794C73.6539 38.6164 73.0868 38.5489 72.5062 38.5174C71.3863 38.4685 70.2645 38.4964 69.1484 38.6006L69.2497 38.5601C70.333 38.4615 71.4217 38.4359 72.5084 38.4836C73.08 38.5174 73.6562 38.5826 74.2165 38.6456C74.6869 38.6997 75.1753 38.7559 75.6569 38.7919C76.4643 38.8469 77.2741 38.8604 78.0829 38.8324L78.1482 38.8639C77.8398 38.8639 77.5293 38.8797 77.2165 38.8797C76.7011 38.8797 76.179 38.8639 75.6546 38.8234Z" fill="#5BA5F4"/>
<path d="M75.0198 40.9656C72.56 40.6978 70.0552 40.7406 67.6089 40.8329V40.8014C70.0552 40.7158 72.56 40.6641 75.0243 40.9319C75.4068 40.9746 75.7984 41.0242 76.1765 41.0737C76.9732 41.1772 77.7901 41.283 78.607 41.3145V41.346C77.7901 41.3145 76.9732 41.2087 76.1765 41.1074C75.7939 41.0579 75.4046 41.0084 75.0198 40.9656Z" fill="#5BA5F4"/>
<path d="M76.0439 42.1946C75.0746 41.9842 74.089 41.8585 73.098 41.8188C71.2815 41.7156 69.4605 41.7239 67.645 41.8435V41.8098C69.462 41.6909 71.2846 41.6834 73.1025 41.7873C74.095 41.8251 75.0822 41.9502 76.0529 42.1608C76.4129 42.2464 76.7798 42.3544 77.1353 42.4579C77.5584 42.5817 77.9905 42.7055 78.4249 42.8V42.8315C77.9883 42.7392 77.5562 42.6064 77.1286 42.4894C76.7685 42.3859 76.4039 42.2801 76.0439 42.1946Z" fill="#5BA5F4"/>
<path d="M74.1354 43.1261C73.6853 43.0203 73.2127 42.9011 72.7468 42.8245C71.0737 42.5374 69.3724 42.4505 67.6787 42.5657V42.541C69.3782 42.4231 71.0858 42.5093 72.7648 42.7975C73.2307 42.8853 73.6988 42.9933 74.1534 43.1014C74.662 43.2184 75.1886 43.3422 75.713 43.4344C76.5812 43.5729 77.458 43.6504 78.337 43.6662V43.6977C77.4532 43.6798 76.5717 43.5986 75.6995 43.4547C75.1706 43.3692 74.6552 43.2454 74.1354 43.1261Z" fill="#5BA5F4"/>
<path d="M74.6889 44.0849C72.3777 43.7406 70.0304 43.8351 67.7124 44.0309V43.9994C70.0237 43.8014 72.3732 43.7068 74.6889 44.0534C75.4203 44.1614 76.1585 44.3167 76.8742 44.4675C77.3243 44.5643 77.7924 44.6611 78.2582 44.7488V44.7916C77.7924 44.7061 77.3288 44.6093 76.8697 44.5125C76.1585 44.3415 75.4181 44.1952 74.6889 44.0849Z" fill="#5BA5F4"/>
<path d="M67.7754 45.6467V45.6129C71.2524 45.6715 74.7519 45.6625 78.2289 45.5859V45.6197C76.253 45.6617 74.2726 45.6835 72.2876 45.685C70.7828 45.6895 69.2787 45.6767 67.7754 45.6467Z" fill="#5BA5F4"/>
<path d="M67.8208 46.9318V46.8981L75.9226 47.3932C76.6945 47.4404 77.4799 47.4877 78.2676 47.5552V47.589C77.4799 47.5215 76.6922 47.4742 75.9203 47.4269L67.8208 46.9318Z" fill="#5BA5F4"/>
<path d="M67.8857 48.8424C71.3538 48.8424 74.8443 48.7839 78.31 48.6917V48.7254C74.8443 48.8154 71.3538 48.8649 67.8857 48.8739V48.8424Z" fill="#5BA5F4"/>
<path d="M72.0449 49.8283C72.549 49.8531 73.0599 49.9048 73.555 49.9544L74.0659 50.0039C75.4931 50.1393 76.9262 50.2016 78.3598 50.1907V50.2244H78.0762C76.7259 50.2244 75.3936 50.1614 74.0614 50.0354L73.5505 49.9859C73.0576 49.9363 72.5468 49.8846 72.0449 49.8598C71.0992 49.8273 70.1523 49.8506 69.2093 49.9296C68.7847 49.9611 68.3571 49.9971 67.9265 50.0376V50.0039C68.3541 49.9634 68.7817 49.9296 69.207 49.8981C70.1507 49.8179 71.0984 49.7946 72.0449 49.8283Z" fill="#5BA5F4"/>
<path d="M73.1566 50.9444C74.3583 50.9069 75.5611 50.9483 76.7574 51.0681C77.3178 51.1267 77.8534 51.2032 78.371 51.2932V51.3292C76.6462 51.0294 74.8949 50.9095 73.1453 50.9714C71.4417 51.0141 69.7133 51.1717 68.0412 51.3247H67.9602V51.2909H68.039C69.7223 51.1424 71.4507 50.9849 73.1566 50.9444Z" fill="#5BA5F4"/>
<path d="M76.503 52.6953L76.7011 52.7065C77.2569 52.7403 77.8263 52.7763 78.3889 52.7718V52.8033H78.2922C77.7566 52.8033 77.2232 52.7696 76.6988 52.738L76.5008 52.7268C73.6877 52.558 70.8408 52.5017 68.0142 52.576V52.5423C70.8408 52.477 73.6899 52.5265 76.503 52.6953Z" fill="#5BA5F4"/>
<path d="M72.2788 53.4223C73.4355 53.3593 74.6148 53.3998 75.7535 53.4403C76.6177 53.4696 77.5022 53.5011 78.3843 53.4876V53.5191C77.4999 53.5348 76.6177 53.5033 75.7535 53.4741C74.6148 53.4336 73.4355 53.3931 72.281 53.4538C71.5181 53.4966 70.7439 53.5821 69.9968 53.6676C69.3576 53.7374 68.7095 53.8117 68.0591 53.8567V53.8229C68.7095 53.7779 69.3576 53.7059 69.9945 53.6339C70.7417 53.5506 71.5158 53.4628 72.2788 53.4223Z" fill="#5BA5F4"/>
<path d="M76.4557 48.0952C73.6021 47.8837 70.7102 47.7779 67.8408 47.7779V47.7441C70.7125 47.7441 73.6043 47.8499 76.4602 48.0637L76.854 48.093C77.3244 48.129 77.8015 48.165 78.2809 48.1897V48.2235C77.7993 48.1965 77.3221 48.1605 76.8495 48.1245L76.4557 48.0952Z" fill="#5BA5F4"/>
<path d="M67.7847 45.9169C71.2639 45.9506 74.7612 46.1599 78.2225 46.5403V46.592C74.7612 46.2117 71.2617 46.0024 67.7847 45.9686V45.9169Z" fill="#5BA5F4"/>
<path d="M74.7071 45.1023C73.8069 45.0145 72.9067 44.983 72.0245 44.9537L67.7485 44.812V44.7782L72.0245 44.92C72.9067 44.9515 73.8249 44.9807 74.7093 45.0708C75.1099 45.109 75.515 45.163 75.9088 45.2125C76.6792 45.3271 77.4553 45.3985 78.2336 45.4263V45.4668C77.4538 45.439 76.6762 45.3676 75.9043 45.2531C75.5105 45.1945 75.1054 45.1428 74.7071 45.1023Z" fill="#5BA5F4"/>
<path d="M76.2306 39.3387C75.3101 39.3094 74.3739 39.2644 73.4692 39.2216C71.7431 39.1406 69.9697 39.0574 68.2053 39.0776L68.2616 39.0439C70.008 39.0259 71.7611 39.1091 73.4715 39.1901C74.3717 39.2329 75.3101 39.2757 76.2306 39.3049C77.151 39.3342 78.031 39.3477 78.9312 39.3477V39.3792H78.9177C78.013 39.3904 77.1173 39.3657 76.2306 39.3387Z" fill="#5BA5F4"/>
<path d="M78.3866 52.0069C74.9299 51.9596 71.4416 51.8516 67.9849 51.6873V51.6536C71.4416 51.8179 74.9321 51.9259 78.3889 51.9731L78.3866 52.0069Z" fill="#5BA5F4"/>
<path d="M77.9973 38.7897C77.9973 38.7897 79.881 39.206 80.8239 42.0956L81.4203 44.3866L78.2156 46.052C78.2156 46.052 76.6808 43.1489 77.9973 38.7897Z" fill="#1E2633"/>
<path d="M69.6053 38.4384C68.6365 38.5193 67.7206 38.9144 66.9969 39.5636C66.198 40.295 65.9302 41.2447 65.4599 42.7863C65.2637 43.4251 65.1066 44.0751 64.9895 44.733L68.4125 45.7367C68.8116 43.3062 69.2092 40.8734 69.6053 38.4384Z" fill="#1E2633"/>
<path d="M68.0928 38.8728L68.1378 38.8503C68.3828 38.9257 68.6314 38.9888 68.8827 39.0394C69.0785 39.0776 69.2833 39.1046 69.4813 39.1317V39.1632C69.2833 39.1362 69.0807 39.1091 68.8827 39.0709C68.6158 39.02 68.3521 38.9539 68.0928 38.8728Z" fill="#5BA5F4"/>
<path d="M67.0214 39.5728C67.8053 39.6315 68.5843 39.7435 69.353 39.9081V39.9396C68.5747 39.7733 67.7859 39.6605 66.9922 39.602L67.0214 39.5728Z" fill="#5BA5F4"/>
<path d="M66.5535 40.0949L66.576 40.0634C67.1926 40.1286 67.8092 40.2164 68.4169 40.3289C68.7025 40.3763 68.984 40.4463 69.2586 40.5382V40.572C68.9844 40.4785 68.7029 40.4085 68.4169 40.3627C67.7912 40.2479 67.1701 40.1601 66.5535 40.0949Z" fill="#5BA5F4"/>
<path d="M66.1643 40.7408C67.1298 41.0261 68.1142 41.2435 69.1102 41.3912V41.4227C68.111 41.2755 67.1235 41.0574 66.1553 40.7701L66.1643 40.7408Z" fill="#5BA5F4"/>
<path d="M66.1236 41.6521L65.8423 41.5598L65.8535 41.5283C65.9481 41.5621 66.0426 41.5913 66.1326 41.6206C66.9473 41.8771 67.7732 42.0707 68.4754 42.2305C68.6374 42.2635 68.7974 42.3056 68.9547 42.3565V42.388C68.7966 42.3371 68.6359 42.295 68.4731 42.262C67.7665 42.1044 66.9383 41.9087 66.1236 41.6521Z" fill="#5BA5F4"/>
<path d="M65.6961 42.0079C66.7403 42.3388 67.8003 42.6516 68.8603 42.9396V42.9711C67.8003 42.6831 66.7381 42.3703 65.6938 42.0394L65.6961 42.0079Z" fill="#5BA5F4"/>
<path d="M65.4644 42.7662C66.5282 43.179 67.6147 43.5306 68.7186 43.8195V43.8532C67.614 43.5633 66.5268 43.2109 65.4622 42.7977L65.4644 42.7662Z" fill="#5BA5F4"/>
<path d="M65.6963 43.5721C65.5591 43.5315 65.415 43.4865 65.271 43.437V43.4055C65.4173 43.455 65.5613 43.5 65.6986 43.5405C66.2432 43.7026 66.8058 43.8399 67.3505 43.9726L68.6332 44.2877V44.3215L67.346 44.0064C66.8058 43.8714 66.2432 43.7341 65.6963 43.5721Z" fill="#5BA5F4"/>
<path d="M65.4034 44.1615L65.1199 44.0444V44.0129L65.4079 44.1322C66.2451 44.4765 67.1116 44.8344 67.9825 45.1382C68.1378 45.1899 68.2976 45.2462 68.4664 45.2957V45.3272C68.2953 45.2777 68.1333 45.2215 67.978 45.1697C67.1093 44.8659 66.2429 44.508 65.4034 44.1615Z" fill="#5BA5F4"/>
<path d="M77.7498 39.7392C77.7488 39.7257 77.7488 39.7121 77.7498 39.6986C78.0064 39.5929 78.2719 39.4736 78.5442 39.3588L78.8571 39.217L78.8886 39.2395L78.5577 39.3881C78.2854 39.5141 78.0154 39.6311 77.7498 39.7392Z" fill="#5BA5F4"/>
<path d="M77.5968 40.5517C78.2183 40.2928 78.8253 40.0005 79.4152 39.6763L79.44 39.701C78.8407 40.0354 78.2231 40.336 77.5901 40.6012L77.5968 40.5517Z" fill="#5BA5F4"/>
<path d="M77.482 41.6409C78.3958 41.3823 79.2697 40.9991 80.0791 40.5022C80.0843 40.5117 80.0903 40.5207 80.0971 40.5292C79.2816 41.0303 78.4008 41.4166 77.4797 41.677C77.4816 41.665 77.4824 41.653 77.482 41.6409Z" fill="#5BA5F4"/>
<path d="M80.5245 41.3213L80.538 41.3528L80.1059 41.4833C79.2418 41.7421 78.3573 42.0077 77.4639 42.2327V42.199C78.3641 41.9739 79.235 41.7106 80.0969 41.4518L80.5245 41.3213Z" fill="#5BA5F4"/>
<path d="M80.8578 42.2239V42.2576C80.3514 42.4888 79.8304 42.6865 79.2982 42.8495C78.7085 43.0341 78.1077 43.2028 77.509 43.3581V43.3266C78.1077 43.1691 78.7063 43.0025 79.2937 42.818C79.8277 42.655 80.3502 42.4565 80.8578 42.2239Z" fill="#5BA5F4"/>
<path d="M81.0874 43.1106C79.9549 43.5093 78.7868 43.7987 77.5991 43.9748V43.941C78.786 43.7657 79.9533 43.477 81.0851 43.0791L81.0874 43.1106Z" fill="#5BA5F4"/>
<path d="M80.5067 44.0961C80.7601 43.9863 81.0059 43.86 81.2427 43.718V43.7495C81.0087 43.8916 80.765 44.0172 80.5135 44.1254C80.0241 44.3239 79.5228 44.4915 79.0124 44.6272C78.6141 44.742 78.2112 44.8523 77.8062 44.9625V44.931C78.2112 44.8275 78.6141 44.706 79.0124 44.5957C79.5205 44.4606 80.0196 44.2938 80.5067 44.0961Z" fill="#5BA5F4"/>
<path d="M74.5044 34.7206C74.4909 34.8286 74.2321 38.5959 74.2321 38.5959C74.2321 38.5959 73.4624 39.4624 72.7715 39.3791C72.3222 39.293 71.921 39.0427 71.6462 38.6769L71.9546 36.0146L74.5044 34.7206Z" fill="#CC724A"/>
<g style="mix-blend-mode:multiply">
<path d="M71.8646 36.8654C72.0454 36.9896 72.25 37.0746 72.4655 37.1152C72.718 37.1714 72.9794 37.1741 73.233 37.1229C73.4865 37.0717 73.7265 36.9679 73.9373 36.8181C73.7915 37.0276 73.5968 37.1986 73.3702 37.3162C73.1436 37.4338 72.8919 37.4946 72.6366 37.4933C72.3484 37.4731 72.0685 37.3885 71.8174 37.2457L71.8646 36.8654Z" fill="#DEAC93"/>
</g>
<path d="M74.5991 36.0979L75.0942 35.1594L74.7927 35.3125L74.5991 36.0979Z" fill="#F89D13"/>
<path d="M72.7466 37.2953C73.8718 37.3989 74.6933 36.3749 74.7923 35.3104L74.9476 33.6225C75.0033 33.1231 74.8588 32.622 74.5459 32.2289C74.2329 31.8358 73.7769 31.5827 73.2777 31.5251C72.8932 31.473 72.5022 31.5476 72.1639 31.7377C71.8257 31.9277 71.5585 32.2228 71.403 32.5783C71.3222 32.8054 71.2722 33.0423 71.2545 33.2827L71.097 34.9706C71.0002 36.0351 71.6236 37.1918 72.7466 37.2953Z" fill="#CC724A"/>
<path d="M75.461 34.777C75.4318 35.1146 75.2 35.3666 74.9479 35.3441C74.4776 35.2991 74.5136 35.0291 74.5451 34.6937C74.5766 34.3584 74.8061 34.1041 75.0582 34.1289C75.3102 34.1536 75.4925 34.4394 75.461 34.777Z" fill="#CC724A"/>
<g style="mix-blend-mode:multiply">
<path d="M75.2852 34.6081C75.2834 34.5628 75.2705 34.5187 75.2478 34.4794C75.225 34.4402 75.1931 34.4071 75.1547 34.3831C75.1375 34.3744 75.1186 34.3697 75.0994 34.3693C75.0801 34.3689 75.061 34.3729 75.0435 34.3809C75.026 34.3889 75.0105 34.4007 74.9982 34.4155C74.9859 34.4303 74.9771 34.4477 74.9724 34.4663C74.9724 34.4843 74.9972 34.4911 75.0017 34.4663C75.0064 34.448 75.0178 34.4322 75.0336 34.4218C75.0494 34.4114 75.0685 34.4072 75.0872 34.4101C75.1079 34.4136 75.1274 34.4219 75.1442 34.4344C75.161 34.447 75.1747 34.4633 75.1839 34.4821C75.2246 34.5586 75.2381 34.6467 75.2222 34.7319C75.2092 34.8173 75.169 34.8963 75.1074 34.9569C75.0788 34.9854 75.043 35.0056 75.0039 35.0154C74.9674 35.0235 74.9293 35.0188 74.8959 35.0019C74.8824 35.0019 74.8621 35.0019 74.8711 35.0222C74.8798 35.0382 74.892 35.052 74.9068 35.0625C74.9217 35.073 74.9387 35.08 74.9566 35.083C74.9972 35.0864 75.0379 35.0778 75.0737 35.0582C75.1532 35.0143 75.2151 34.9443 75.2492 34.8602C75.2833 34.7808 75.2957 34.6938 75.2852 34.6081Z" fill="#DEAC93"/>
</g>
<path d="M73.7749 30.6924C74.6886 30.8364 75.528 31.7703 75.4155 31.8176C75.5325 31.8514 76.0906 31.9571 75.9961 32.5873C75.8526 33.1836 75.6301 33.758 75.3345 34.2954C75.1319 34.1671 74.9541 34.1806 74.9496 34.2099C74.9331 34.3727 74.8733 34.5281 74.7763 34.66C74.679 34.5176 74.6236 34.3507 74.6165 34.1784C74.6165 33.9016 74.6796 33.8453 74.3442 33.618C74.0089 33.3907 74.3442 32.5175 74.3442 32.5175C74.3442 32.5175 73.12 33.1476 72.2625 33.1769C71.8597 33.1926 71.1373 33.1769 70.8942 32.9383C70.3024 32.3757 70.856 32.1192 70.9392 31.7073C71.0045 31.3878 71.2296 30.9512 71.7022 30.9084C71.8619 30.8926 72.2513 31.0817 72.4426 31.0412C72.8544 30.9557 73.12 30.5866 73.7749 30.6924Z" fill="#F89D13"/>
<path d="M74.6686 54.7184C74.4998 54.1288 68.2952 53.8564 68.2952 53.8564L71.0993 55.9697C71.0993 55.9697 74.8396 55.308 74.6686 54.7184Z" fill="#7FABD3"/>
<path d="M71.099 55.9697L61.4084 55.6546L59.8105 50.6135C59.7891 50.5432 59.7844 50.4688 59.7969 50.3963C59.8094 50.3239 59.8387 50.2553 59.8824 50.1962C59.9262 50.1372 59.9832 50.0892 60.0489 50.0561C60.1146 50.023 60.1871 50.0058 60.2606 50.0059H68.7337C68.895 50.006 69.052 50.0579 69.1817 50.1539C69.3113 50.2499 69.4067 50.385 69.4539 50.5392L71.099 55.9697Z" fill="#93BBE5"/>
<path d="M65.2465 52.9042C65.2739 52.6947 65.1263 52.5026 64.9168 52.4752C64.7073 52.4478 64.5152 52.5955 64.4878 52.805C64.4604 53.0145 64.6081 53.2065 64.8176 53.2339C65.0271 53.2613 65.2191 53.1137 65.2465 52.9042Z" fill="#7FABD3"/>
<g style="mix-blend-mode:multiply">
<path d="M72.713 35.4026C72.6297 35.3891 72.2224 35.3216 72.1999 35.101C72.1774 34.8805 72.4947 34.3269 72.5577 34.2121C72.5662 34.1979 72.5797 34.1875 72.5956 34.1829C72.6115 34.1783 72.6285 34.1799 72.6432 34.1873C72.6574 34.1958 72.6678 34.2093 72.6724 34.2252C72.677 34.2411 72.6754 34.2581 72.668 34.2729C72.5131 34.5257 72.397 34.8003 72.3237 35.0875C72.3237 35.1798 72.5712 35.2541 72.7287 35.2766C72.7455 35.2766 72.7615 35.2832 72.7733 35.295C72.7851 35.3069 72.7918 35.3229 72.7918 35.3396C72.7918 35.3563 72.7851 35.3723 72.7733 35.3841C72.7615 35.396 72.7455 35.4026 72.7287 35.4026H72.713Z" fill="#DEAC93"/>
</g>
<path d="M71.7297 34.3064C71.7307 34.3408 71.7416 34.3741 71.7611 34.4024C71.7807 34.4307 71.808 34.4527 71.8398 34.4658C71.8715 34.4789 71.9064 34.4825 71.9402 34.4762C71.974 34.4698 72.0052 34.4539 72.0301 34.4301C72.055 34.4064 72.0725 34.376 72.0804 34.3426C72.0884 34.3091 72.0865 34.2741 72.0749 34.2417C72.0634 34.2094 72.0427 34.181 72.0154 34.1602C71.9881 34.1393 71.9553 34.1268 71.921 34.1242C71.8717 34.1235 71.824 34.1423 71.7882 34.1763C71.7525 34.2104 71.7315 34.2571 71.7297 34.3064Z" fill="#363435"/>
<path d="M73.9282 33.8114C73.9122 33.8109 73.897 33.8045 73.8854 33.7934C73.7978 33.7248 73.6927 33.6823 73.582 33.6708C73.4714 33.6593 73.3597 33.6791 73.2598 33.7282C73.2452 33.7362 73.228 33.7381 73.2119 33.7335C73.1959 33.7288 73.1824 33.718 73.1743 33.7034C73.1704 33.696 73.168 33.688 73.1672 33.6796C73.1665 33.6713 73.1674 33.663 73.1699 33.655C73.1724 33.6471 73.1765 33.6397 73.1819 33.6333C73.1873 33.6269 73.1939 33.6217 73.2013 33.6179C73.3236 33.5548 73.4618 33.5291 73.5986 33.5439C73.7355 33.5587 73.8649 33.6134 73.971 33.7012C73.9824 33.7129 73.9888 33.7287 73.9888 33.745C73.9888 33.7614 73.9824 33.7772 73.971 33.7889C73.9658 33.7955 73.9594 33.8009 73.952 33.8048C73.9446 33.8087 73.9365 33.8109 73.9282 33.8114Z" fill="black"/>
<path d="M72.1908 33.6539C72.1769 33.6539 72.1634 33.6492 72.1526 33.6404C72.0895 33.5895 72.0118 33.5601 71.9309 33.5565C71.8499 33.5528 71.7699 33.5751 71.7025 33.6202C71.6957 33.6249 71.688 33.6282 71.6799 33.63C71.6719 33.6318 71.6635 33.6319 71.6553 33.6305C71.6472 33.629 71.6394 33.626 71.6324 33.6215C71.6255 33.617 71.6194 33.6112 71.6147 33.6044C71.6062 33.5904 71.6031 33.5737 71.606 33.5575C71.6089 33.5414 71.6176 33.5268 71.6305 33.5166C71.7188 33.4579 71.8234 33.4287 71.9293 33.4332C72.0352 33.4376 72.137 33.4755 72.2201 33.5414C72.2315 33.5531 72.2379 33.5689 72.2379 33.5853C72.2379 33.6017 72.2315 33.6174 72.2201 33.6292C72.213 33.6401 72.2029 33.6488 72.1908 33.6539Z" fill="black"/>
<g style="mix-blend-mode:multiply">
<path d="M73.332 35.7739C72.4633 35.936 72.0919 35.7739 72.0919 35.7739C72.0919 35.7739 72.0424 36.314 72.542 36.3793C72.6342 36.3956 72.7287 36.3925 72.8196 36.3703C72.9105 36.3481 72.9958 36.3072 73.0701 36.2503C73.1444 36.1934 73.206 36.1217 73.2511 36.0396C73.2962 35.9576 73.3237 35.8671 73.332 35.7739Z" fill="#DEAC93"/>
</g>
<path d="M72.1208 35.7762C72.1208 35.7762 72.1411 35.8774 72.1479 35.8977C72.1546 35.918 72.2379 35.9787 72.598 36.0125C72.8334 36.0277 73.0697 36.0049 73.2979 35.945C73.3189 35.8899 73.3333 35.8324 73.3406 35.7739L73.1943 35.7987C72.8433 35.8737 72.4796 35.866 72.1321 35.7762H72.1208Z" fill="white"/>
<path d="M73.5541 34.5006C73.5626 34.3903 73.4881 34.2946 73.3877 34.2869C73.2873 34.2792 73.1991 34.3624 73.1906 34.4727C73.1822 34.5829 73.2567 34.6786 73.357 34.6863C73.4574 34.694 73.5457 34.6109 73.5541 34.5006Z" fill="#363435"/>
<path d="M66.4275 43.995C66.5107 44.0535 66.5963 44.1052 66.6795 44.1548C66.486 44.1908 66.4005 44.4496 66.648 44.6161C66.8155 44.7289 66.9915 44.8282 67.1746 44.9132C67.0351 44.9874 67.0396 45.2215 67.2917 45.3453C67.75 45.6074 68.2651 45.7541 68.7927 45.7729C68.9094 45.7729 69.0259 45.7654 69.1416 45.7504C69.1416 45.7504 74.4842 49.3804 77.5449 50.5169C78.5014 50.8725 79.2283 50.9828 79.5073 50.6654C79.6974 50.435 79.8605 50.1835 79.9935 49.916C80.873 48.311 81.2049 46.4629 80.9387 44.6521L77.4864 45.1742L77.1646 46.5245L70.6832 44.049L70.6719 44.0355C70.1521 43.5613 69.5388 43.201 68.8715 42.9777C68.5137 42.8517 68.3179 43.2726 68.6712 43.3986C68.8851 43.4766 69.0856 43.5874 69.2653 43.7272C68.5472 43.7328 67.8363 43.5831 67.1814 43.2883C66.8438 43.124 66.6413 43.5471 66.9811 43.7092C67.3417 43.8837 67.7186 44.0224 68.1063 44.1232C67.5922 44.0885 67.0953 43.9244 66.6615 43.6461C66.3285 43.4076 66.1034 43.7677 66.4275 43.995Z" fill="#CC724A"/>
<path d="M77.1646 46.5247L78.4788 47.3596L77.3131 45.9036L77.1646 46.5247Z" fill="#995033"/>
<path d="M68.804 44.1817C68.9431 44.1914 69.0828 44.1715 69.2136 44.1232L69.1934 44.0872C68.9886 44.2087 68.0569 44.0872 68.0479 44.0872V44.1277C68.2988 44.1592 68.5512 44.1772 68.804 44.1817Z" fill="#995033"/>
<path d="M68.6866 44.6319C68.8049 44.633 68.923 44.6247 69.04 44.6072V44.5689C68.07 44.7175 66.7085 44.1436 66.695 44.1368L66.6792 44.1751C67.3184 44.4376 67.9968 44.592 68.6866 44.6319Z" fill="#995033"/>
<path d="M68.5425 45.199C68.6778 45.2117 68.8134 45.1784 68.9274 45.1045L68.9004 45.073C68.6033 45.3408 67.1945 44.8974 67.181 44.8929L67.1675 44.9312C67.6131 45.0765 68.0749 45.1664 68.5425 45.199Z" fill="#995033"/>
<path d="M53.7728 13.0934C53.706 13.0932 53.6421 13.0665 53.595 13.0191C53.0319 12.4584 52.2697 12.1436 51.475 12.1436C50.6804 12.1436 49.9181 12.4584 49.3551 13.0191C49.3069 13.061 49.2447 13.083 49.1809 13.0807C49.1172 13.0785 49.0567 13.0522 49.0116 13.0071C48.9665 12.962 48.9401 12.9014 48.9379 12.8377C48.9357 12.7739 48.9577 12.7117 48.9995 12.6636C49.6573 12.0094 50.5473 11.6422 51.475 11.6422C52.4027 11.6422 53.2927 12.0094 53.9506 12.6636C53.997 12.7111 54.023 12.7749 54.023 12.8414C54.023 12.9078 53.997 12.9716 53.9506 13.0191C53.9273 13.0427 53.8996 13.0614 53.8691 13.0741C53.8386 13.0869 53.8059 13.0934 53.7728 13.0934Z" fill="#5BA5F4"/>
<path d="M47.8158 11.768C47.7776 11.7684 47.7398 11.761 47.7046 11.7463C47.6694 11.7316 47.6375 11.7098 47.611 11.6825C47.557 11.6284 47.5266 11.5552 47.5266 11.4788C47.5266 11.4024 47.557 11.3291 47.611 11.2751C48.6375 10.2535 50.0268 9.67993 51.4751 9.67993C52.9233 9.67993 54.3126 10.2535 55.3392 11.2751C55.3919 11.3294 55.4211 11.4022 55.4206 11.4779C55.42 11.5536 55.3897 11.626 55.3362 11.6795C55.2827 11.733 55.2103 11.7633 55.1346 11.7639C55.0589 11.7644 54.9861 11.7352 54.9318 11.6825C54.0139 10.7677 52.7709 10.2541 51.4751 10.2541C50.1792 10.2541 48.9362 10.7677 48.0183 11.6825C47.9919 11.7095 47.9604 11.731 47.9257 11.7456C47.8909 11.7603 47.8535 11.7679 47.8158 11.768Z" fill="#5BA5F4"/>
<path d="M46.3731 10.3592C46.2888 10.3593 46.208 10.3261 46.148 10.2669C46.1181 10.2376 46.0943 10.2026 46.0781 10.1639C46.0618 10.1253 46.0535 10.0838 46.0535 10.0419C46.0535 9.99995 46.0618 9.95846 46.0781 9.91982C46.0943 9.88117 46.1181 9.84616 46.148 9.81682C47.562 8.40792 49.4767 7.61682 51.4727 7.61682C53.4688 7.61682 55.3834 8.40792 56.7974 9.81682C56.8571 9.87651 56.8906 9.95746 56.8906 10.0419C56.8906 10.1263 56.8571 10.2072 56.7974 10.2669C56.7377 10.3266 56.6567 10.3601 56.5723 10.3601C56.4879 10.3601 56.407 10.3266 56.3473 10.2669C55.0512 8.97675 53.2969 8.25243 51.4682 8.25243C49.6395 8.25243 47.8852 8.97675 46.5891 10.2669C46.5314 10.324 46.4542 10.357 46.3731 10.3592Z" fill="#5BA5F4"/>
<path d="M57.8708 9.06738C57.7863 9.0664 57.7055 9.03249 57.6457 8.97285C56.0088 7.34022 53.7913 6.42337 51.4793 6.42337C49.1674 6.42337 46.9499 7.34022 45.313 8.97285C45.2862 9.01236 45.251 9.04546 45.21 9.06979C45.1689 9.09412 45.123 9.10908 45.0754 9.11359C45.0279 9.11811 44.98 9.11207 44.9351 9.09592C44.8902 9.07976 44.8494 9.05388 44.8156 9.02013C44.7819 8.98638 44.756 8.94559 44.7398 8.90067C44.7237 8.85576 44.7176 8.80783 44.7222 8.76031C44.7267 8.71279 44.7416 8.66686 44.766 8.62579C44.7903 8.58473 44.8234 8.54954 44.8629 8.52275C46.6217 6.76863 49.0043 5.78357 51.4883 5.78357C53.9724 5.78357 56.355 6.76863 58.1138 8.52275C58.1583 8.56792 58.1885 8.62513 58.2008 8.68731C58.2131 8.74948 58.2069 8.8139 58.1829 8.87257C58.159 8.93125 58.1183 8.98162 58.066 9.01744C58.0138 9.05327 57.9521 9.07297 57.8888 9.07413L57.8708 9.06738Z" fill="#5BA5F4"/>
<path d="M52.7373 15.1392C52.739 15.3061 52.7074 15.4716 52.6444 15.6262C52.5814 15.7807 52.4883 15.9212 52.3705 16.0394C52.1331 16.2755 51.8119 16.408 51.4771 16.408C51.1422 16.408 50.821 16.2755 50.5836 16.0394C50.3479 15.8031 50.2156 15.483 50.2156 15.1493C50.2156 14.8156 50.3479 14.4955 50.5836 14.2593C50.8198 14.0243 51.1394 13.8923 51.4726 13.8923C51.8057 13.8923 52.1253 14.0243 52.3615 14.2593C52.5976 14.4918 52.7326 14.8079 52.7373 15.1392Z" fill="#5BA5F4"/>
<path d="M52.7375 15.0875H50.2124V15.1955H52.7375V15.0875Z" fill="#5BA5F4"/>
<path d="M80.8574 18.2921C80.8451 18.2861 80.8341 18.2776 80.8252 18.2672C80.8163 18.2567 80.8096 18.2445 80.8057 18.2313C80.7078 17.9108 80.4869 17.6422 80.1913 17.4842C80.0455 17.4052 79.8854 17.3562 79.7204 17.3399C79.5553 17.3237 79.3887 17.3406 79.2303 17.3897C79.2032 17.3974 79.1741 17.3942 79.1493 17.3807C79.1245 17.3673 79.1059 17.3446 79.0976 17.3176C79.0899 17.2908 79.0932 17.262 79.1067 17.2375C79.1202 17.2131 79.1428 17.195 79.1696 17.1871C79.5435 17.0741 79.947 17.114 80.2916 17.2979C80.6362 17.4818 80.8939 17.7948 81.0082 18.1683C81.0155 18.1952 81.0123 18.2238 80.9994 18.2484C80.9865 18.273 80.9647 18.2919 80.9385 18.3011C80.9251 18.3054 80.911 18.3069 80.897 18.3053C80.883 18.3038 80.8695 18.2993 80.8574 18.2921Z" fill="#5BA5F4"/>
<path d="M78.9064 16.6199C78.8783 16.6044 78.8574 16.5786 78.8479 16.5479C78.8431 16.5325 78.8413 16.5163 78.8428 16.5003C78.8442 16.4842 78.8489 16.4686 78.8564 16.4544C78.8639 16.4402 78.8742 16.4276 78.8867 16.4173C78.8991 16.4071 78.9135 16.3995 78.9289 16.3948C79.5127 16.2187 80.1424 16.2812 80.6802 16.5684C81.218 16.8557 81.6201 17.3443 81.7983 17.9274C81.8032 17.9428 81.8049 17.959 81.8035 17.975C81.802 17.9911 81.7974 18.0067 81.7899 18.0209C81.7823 18.0351 81.772 18.0477 81.7596 18.058C81.7471 18.0682 81.7327 18.0758 81.7173 18.0805C81.6866 18.089 81.6537 18.0853 81.6257 18.0702C81.5976 18.0551 81.5764 18.0298 81.5665 17.9994C81.4881 17.7407 81.3594 17.5001 81.1878 17.2912C81.0162 17.0822 80.8052 16.9092 80.5667 16.7819C80.3282 16.6546 80.067 16.5756 79.7979 16.5493C79.5289 16.5231 79.2573 16.5501 78.9987 16.6289C78.9679 16.6373 78.9351 16.6341 78.9064 16.6199Z" fill="#5BA5F4"/>
<path d="M78.6518 15.8075C78.6206 15.7908 78.5971 15.7625 78.5865 15.7287C78.5768 15.695 78.5808 15.6588 78.5976 15.628C78.6145 15.5972 78.6429 15.5744 78.6766 15.5644C79.4808 15.3217 80.3485 15.4075 81.0896 15.8032C81.8308 16.1988 82.3849 16.872 82.6307 17.6754C82.6405 17.7088 82.6368 17.7448 82.6204 17.7755C82.604 17.8062 82.5762 17.8293 82.5429 17.8397C82.5262 17.8449 82.5086 17.8468 82.4912 17.8452C82.4738 17.8436 82.4569 17.8386 82.4414 17.8304C82.4259 17.8223 82.4122 17.8111 82.401 17.7976C82.3899 17.7842 82.3815 17.7686 82.3764 17.7519C82.1508 17.0159 81.6431 16.3992 80.9641 16.0365C80.2851 15.6738 79.4902 15.5947 78.7531 15.8165C78.7364 15.8218 78.7189 15.8238 78.7015 15.8222C78.6841 15.8207 78.6672 15.8157 78.6518 15.8075Z" fill="#5BA5F4"/>
<path d="M83.1778 17.6102C83.1617 17.602 83.1474 17.5905 83.1358 17.5766C83.1242 17.5627 83.1155 17.5466 83.1103 17.5292C82.8256 16.5988 82.1837 15.8192 81.3253 15.3611C80.4669 14.903 79.4619 14.8038 78.5305 15.0852C78.4959 15.0958 78.4585 15.0922 78.4265 15.0754C78.3945 15.0585 78.3704 15.0297 78.3595 14.9952C78.3543 14.978 78.3526 14.96 78.3545 14.9422C78.3563 14.9244 78.3617 14.9072 78.3703 14.8915C78.3789 14.8758 78.3905 14.8619 78.4045 14.8507C78.4185 14.8396 78.4346 14.8313 78.4518 14.8264C79.4524 14.5234 80.5324 14.6298 81.4547 15.1221C82.377 15.6145 83.0663 16.4527 83.3713 17.4527C83.3819 17.4873 83.3784 17.5247 83.3615 17.5568C83.3447 17.5888 83.3158 17.6129 83.2813 17.6237C83.2463 17.6321 83.2095 17.6273 83.1778 17.6102Z" fill="#5BA5F4"/>
<path d="M80.0675 18.848C80.0004 18.9727 79.8874 19.0663 79.7525 19.1091C79.6173 19.1498 79.4715 19.1352 79.347 19.0685C79.2226 19.0019 79.1297 18.8886 79.0886 18.7535C79.0488 18.6174 79.0642 18.4711 79.1313 18.3462C79.1981 18.2236 79.3105 18.1322 79.4442 18.0919C79.5105 18.0714 79.5802 18.0643 79.6493 18.0709C79.7185 18.0774 79.7856 18.0976 79.8469 18.1303C79.9082 18.1629 79.9624 18.2073 80.0064 18.261C80.0505 18.3146 80.0835 18.3765 80.1035 18.443C80.1448 18.5775 80.1319 18.7229 80.0675 18.848Z" fill="#5BA5F4"/>
<path d="M79.1406 18.3296L79.1194 18.3693L80.0584 18.8706L80.0796 18.8309L79.1406 18.3296Z" fill="#5BA5F4"/>
<path d="M9.92875 41.1909C9.96736 41.1562 9.9908 41.1077 9.99401 41.0559C10.0249 40.4363 10.3003 39.8543 10.7597 39.4375C11.2191 39.0206 11.8251 38.803 12.4448 38.8324C12.4705 38.8336 12.4962 38.8297 12.5204 38.821C12.5447 38.8123 12.5669 38.7988 12.5859 38.7815C12.605 38.7641 12.6204 38.7432 12.6313 38.7199C12.6422 38.6966 12.6484 38.6713 12.6496 38.6456C12.6511 38.62 12.6475 38.5944 12.639 38.5702C12.6306 38.546 12.6173 38.5237 12.6002 38.5046C12.583 38.4856 12.5622 38.4701 12.539 38.4592C12.5158 38.4482 12.4907 38.442 12.4651 38.4408C11.7414 38.4072 11.034 38.6615 10.4975 39.1483C9.96097 39.635 9.63914 40.3144 9.60243 41.0379C9.60055 41.0893 9.61877 41.1395 9.65322 41.1777C9.68766 41.2159 9.73563 41.2392 9.78697 41.2427C9.81286 41.244 9.83876 41.2401 9.86311 41.2312C9.88747 41.2223 9.90979 41.2086 9.92875 41.1909Z" fill="#5BA5F4"/>
<path d="M12.679 37.3043C12.7234 37.2644 12.7501 37.2086 12.7533 37.149C12.7533 37.0893 12.7296 37.0321 12.6874 36.9899C12.6452 36.9477 12.5879 36.924 12.5282 36.924C11.3991 36.8713 10.295 37.2679 9.45747 38.027C8.61991 38.7861 8.11702 39.846 8.05875 40.9748C8.05728 41.0044 8.06163 41.034 8.07158 41.0618C8.08152 41.0897 8.09686 41.1153 8.11671 41.1373C8.13656 41.1592 8.16054 41.177 8.18728 41.1897C8.21402 41.2024 8.243 41.2097 8.27255 41.2112C8.3021 41.2126 8.33166 41.2083 8.35953 41.1983C8.3874 41.1884 8.41304 41.173 8.43498 41.1532C8.45692 41.1333 8.47474 41.1094 8.48741 41.0826C8.50009 41.0559 8.50737 41.0269 8.50885 40.9974C8.55895 39.9843 9.00931 39.0325 9.76092 38.3514C10.5125 37.6703 11.5039 37.3155 12.517 37.3651C12.5467 37.3661 12.5763 37.3613 12.6041 37.3509C12.6319 37.3404 12.6574 37.3246 12.679 37.3043Z" fill="#5BA5F4"/>
<path d="M12.7665 35.7289C12.7908 35.7077 12.8105 35.6819 12.8244 35.6528C12.8384 35.6238 12.8462 35.5922 12.8475 35.5601C12.8512 35.4961 12.8298 35.4332 12.7877 35.3848C12.7457 35.3364 12.6863 35.3064 12.6225 35.3013C11.0661 35.229 9.54455 35.7762 8.39062 36.823C7.23669 37.8698 6.54436 39.331 6.4651 40.887C6.46212 40.952 6.4851 41.0156 6.52899 41.0637C6.57289 41.1119 6.63409 41.1406 6.69915 41.1435C6.76421 41.1465 6.82779 41.1235 6.8759 41.0797C6.92402 41.0358 6.95273 40.9746 6.95571 40.9095C7.02858 39.4845 7.66234 38.1462 8.7186 37.187C9.77486 36.2277 11.1678 35.7253 12.5932 35.7896C12.6247 35.7922 12.6565 35.7882 12.6863 35.7777C12.7162 35.7672 12.7435 35.7506 12.7665 35.7289Z" fill="#5BA5F4"/>
<path d="M5.45012 41.0154C5.47464 40.9934 5.49447 40.9668 5.50839 40.937C5.52232 40.9072 5.53006 40.8749 5.53114 40.8421C5.62147 39.0393 6.42292 37.3458 7.75979 36.133C9.09667 34.9201 10.8599 34.2868 12.663 34.3719C12.6959 34.3737 12.729 34.369 12.7601 34.3579C12.7913 34.3469 12.8199 34.3298 12.8444 34.3076C12.8689 34.2854 12.8887 34.2586 12.9028 34.2287C12.9168 34.1988 12.9248 34.1664 12.9263 34.1333C12.9293 34.0666 12.906 34.0014 12.8614 33.9517C12.8168 33.902 12.7544 33.8719 12.6877 33.8678C10.7524 33.7784 8.8606 34.4596 7.42648 35.7621C5.99235 37.0647 5.1328 38.8824 5.03603 40.8173C5.03452 40.8504 5.03955 40.8835 5.05084 40.9147C5.06213 40.9458 5.07945 40.9744 5.10182 40.9989C5.12419 41.0234 5.15116 41.0432 5.18119 41.0572C5.21122 41.0712 5.24372 41.0792 5.27683 41.0806C5.34094 41.0826 5.40323 41.0591 5.45012 41.0154Z" fill="#5BA5F4"/>
<path d="M11.6007 41.8345C11.774 42.028 12.0166 42.1452 12.2759 42.1608C12.4061 42.1684 12.5365 42.1498 12.6594 42.1061C12.7823 42.0624 12.8953 41.9945 12.9915 41.9065C13.1836 41.7324 13.2999 41.4901 13.3156 41.2314C13.3272 40.971 13.2352 40.7166 13.0598 40.5239C12.8844 40.3311 12.6397 40.2157 12.3794 40.2029C12.1198 40.1912 11.866 40.2826 11.6734 40.4571C11.4808 40.6316 11.3649 40.8751 11.3509 41.1346C11.3397 41.3916 11.4293 41.6427 11.6007 41.8345Z" fill="#5BA5F4"/>
<path d="M13.0331 40.4808L11.5729 41.8053L11.6288 41.867L13.089 40.5425L13.0331 40.4808Z" fill="#5BA5F4"/>
</svg>
