<svg width="104" height="65" viewBox="0 0 104 65" fill="none" xmlns="http://www.w3.org/2000/svg">
<path d="M97.3232 28.4561C95.5748 27.4804 93.4347 26.7801 91.1384 26.244C89.7834 25.9296 85.2218 25.6919 84.361 24.7064C82.445 22.5089 83.9958 19.8544 84.6617 17.511C86.2149 12.0449 81.0062 7.67674 76.8131 5.21617C72.7274 2.81819 67.9154 3.24272 63.4028 3.82539C58.5777 4.44806 53.9869 5.5461 49.5882 7.65745C45.5731 9.5843 41.493 13.198 36.8486 13.3458C32.3383 13.4893 28.9077 10.0248 25.4691 7.64144C14.8413 0.276192 2.03059 11.0301 3.13286 22.7692C3.70564 28.8613 7.72172 35.0382 2.54313 40.3467C2.31606 40.5762 2.1016 40.8178 1.90069 41.0705C0.176684 43.2765 -0.106649 44.7416 0.0298403 47.6846C0.384713 55.3562 7.24354 58.7572 14.0082 59.5982C19.8199 60.3207 24.4873 56.0001 29.7281 54.3773C34.78 52.8128 40.2236 55.2626 45.0342 56.7009C54.699 59.5921 68.1371 66.1719 74.8867 54.9072C78.1211 49.5089 82.3908 50.2798 87.8876 50.0558C94.2913 49.795 99.1014 44.7628 101.075 38.906C102.853 33.6328 100.917 30.4625 97.3232 28.4561Z" fill="url(#paint0_linear_32_9971)"/>
<path d="M39.7675 33.5575C38.324 28.137 35.2464 23.7209 31.484 21.0302C28.1188 18.6237 25.7825 15.019 25.0455 10.9525C24.9677 10.5252 24.8717 10.0961 24.7574 9.66531C23.0203 3.14818 17.6186 -1.07311 12.6932 0.239072C7.7678 1.55125 5.17686 7.89942 6.9131 14.4184C7.25267 15.7036 7.753 16.9409 8.40224 18.1008C10.4011 21.65 11.0525 25.8252 10.0707 29.782C9.19294 33.3175 9.19718 37.3477 10.2792 41.4118C11.8931 47.4729 15.5505 52.2768 19.9276 54.8207C21.5857 55.7816 23.0533 57.0387 24.2576 58.5295C26.2513 61.0051 29.1656 62.2669 31.9316 61.5303C34.916 60.7354 36.8928 57.8381 37.1883 54.3581C37.3554 52.3888 37.9084 50.478 38.7476 48.6867C40.7253 44.4588 41.2265 39.0397 39.7675 33.5575Z" fill="#BDD0FB"/>
<path d="M16.2635 6.71484C18.052 10.8514 19.7111 15.0426 21.3235 19.2512C21.7273 20.3031 22.1137 21.3616 22.5039 22.4187L23.0889 24.0033L23.6594 25.5946C24.0359 26.6564 24.4279 27.7126 24.7927 28.7795L25.8879 31.9776C26.5906 34.1191 27.3116 36.2544 27.9748 38.4091C28.3075 39.4859 28.6619 40.5557 28.973 41.6392L29.9209 44.8867C31.1418 49.2266 32.2535 53.5994 33.1421 58.0179L32.9538 58.0579L32.1631 54.776L31.9673 53.9552L31.7508 53.1396L31.3155 51.5093L30.8825 49.878C30.7413 49.3344 30.5761 48.7955 30.4236 48.2542C30.112 47.1717 29.8085 46.0892 29.4898 45.0109C28.1866 40.7031 26.8259 36.413 25.3768 32.1513C24.636 30.0258 23.9135 27.8942 23.1581 25.7739L22.5933 24.1822L22.0177 22.5951C21.6346 21.5371 21.2515 20.4772 20.8576 19.4244C20.0898 17.3089 19.3049 15.1993 18.5029 13.0955C17.7122 10.9873 16.9058 8.88502 16.0837 6.78874L16.2635 6.71484Z" fill="url(#paint1_linear_32_9971)"/>
<path d="M23.4858 46.685C21.9147 43.7077 19.5252 41.5361 16.9663 40.4639C14.6789 39.5052 12.8307 37.7087 11.8541 35.4279C11.7515 35.1885 11.6377 34.9504 11.5128 34.7135C9.62364 31.1328 5.90359 29.3843 3.20393 30.8071C0.504261 32.2298 -0.153241 36.2888 1.73596 39.87C2.10722 40.5761 2.56578 41.2328 3.10085 41.8246C4.74485 43.6347 5.68568 45.9884 5.64238 48.4335C5.6052 50.6183 6.14927 52.9748 7.32685 55.2071C9.08333 58.5361 11.8635 60.8583 14.7594 61.7624C15.8566 62.1035 16.882 62.6429 17.7848 63.3537C19.281 64.5359 21.1518 64.8847 22.6673 64.0851C24.3024 63.2224 25.0676 61.2644 24.7721 59.1903C24.6134 58.016 24.6636 56.8228 24.9203 55.666C25.5096 52.9315 25.0738 49.6953 23.4858 46.685Z" fill="#91B3FA"/>
<path d="M6.15871 34.1223C7.75893 36.3029 9.29043 38.5328 10.797 40.7788C11.1735 41.3402 11.542 41.9083 11.912 42.4731L12.4664 43.3203L13.0138 44.174C13.3766 44.745 13.747 45.3107 14.1033 45.8853L15.1722 47.6098C15.8702 48.7686 16.578 49.9212 17.2544 51.0926C17.5937 51.6781 17.9439 52.2566 18.2714 52.8487L19.2598 54.6202C20.5555 56.9956 21.7919 59.4044 22.9045 61.8711L22.7991 61.9181L21.8964 60.1042L21.6719 59.6501L21.4366 59.202L20.9631 58.3078L20.4924 57.4135C20.3357 57.1142 20.1682 56.821 20.0063 56.5249C19.6768 55.9343 19.3563 55.3412 19.0254 54.7524C17.6859 52.4073 16.3098 50.0834 14.8969 47.7807C14.1786 46.6365 13.4708 45.4862 12.7446 44.3449L12.2024 43.4888L11.6526 42.6411C11.2869 42.0735 10.9212 41.5059 10.5494 40.9416C9.81615 39.8073 9.07424 38.6778 8.32371 37.5529C7.57851 36.4258 6.82546 35.3041 6.06458 34.1877L6.15871 34.1223Z" fill="#BDD0FB"/>
<path d="M92.5375 35.0924C92.1252 33.9346 91.8691 32.7391 91.9138 31.4759C92.0273 28.2877 94.1758 25.5687 95.816 22.9872C97.3221 20.6151 98.64 16.9817 94.4158 16.8687C91.0488 16.7793 86.771 19.6926 85.9549 23.1129C84.9901 27.1633 86.4402 32.5537 83.6746 36.0328C79.8054 40.8998 77.5401 39.4511 76.6077 48.257C76.2091 52.0223 78.0729 54.3167 80.3391 55.7126C82.0854 56.7891 84.1193 57.3052 86.1676 57.1915C88.2158 57.0778 90.1802 56.3399 91.7967 55.0768C94.7208 52.7908 96.6914 49.2685 96.5502 45.5075C96.4053 41.7088 93.7715 38.5602 92.5375 35.0924Z" fill="#BDD0FB"/>
<path d="M88.6439 64.5052C88.625 64.5079 88.6058 64.5068 88.5874 64.5021C88.569 64.4973 88.5516 64.489 88.5364 64.4775C88.5212 64.466 88.5084 64.4517 88.4988 64.4353C88.4891 64.4189 88.4827 64.4008 88.4801 64.3819C87.2818 55.8702 86.8493 48.1618 87.1938 41.4715C87.4701 36.114 88.2424 31.3924 89.4901 27.439C91.6217 20.6813 94.3651 18.5323 94.479 18.4443C94.4942 18.4327 94.5114 18.4243 94.5299 18.4194C94.5483 18.4145 94.5675 18.4133 94.5863 18.4158C94.6052 18.4184 94.6234 18.4246 94.6399 18.4342C94.6564 18.4437 94.6708 18.4565 94.6823 18.4716C94.6939 18.4867 94.7024 18.504 94.7072 18.5224C94.7121 18.5408 94.7133 18.56 94.7108 18.5789C94.7083 18.5978 94.702 18.616 94.6925 18.6325C94.6829 18.6489 94.6702 18.6634 94.655 18.6749C94.648 18.6801 93.9491 19.2218 93.0016 20.5825C92.1253 21.8391 90.8503 24.071 89.7518 27.567C88.5163 31.4993 87.752 36.195 87.4799 41.5242C87.1392 48.1872 87.5741 55.865 88.7658 64.3429C88.7706 64.3805 88.7606 64.4185 88.7378 64.4488C88.7151 64.4792 88.6813 64.4994 88.6439 64.5052Z" fill="#91B3FA"/>
<path d="M96.8484 26.1617C96.6814 26.0969 96.5035 26.065 96.3245 26.0675C95.2674 26.0769 94.7219 27.1331 94.3238 27.9614C93.9825 28.6712 93.5783 29.5334 93.6484 30.3491C93.7246 31.2306 94.5676 32.0326 95.3263 31.2259C96.1885 30.3095 97.4861 28.899 97.6325 27.5788C97.7059 26.9246 97.3915 26.3725 96.8484 26.1617Z" fill="#BDD0FB"/>
<path d="M102.815 51.0908C103.54 48.3215 102.862 44.9818 102.665 41.9512C102.562 40.351 102.602 38.7743 103.023 37.2155C103.442 35.6656 104.363 34.0395 103.847 32.3965C102.806 29.0869 99.3822 30.1802 97.2577 32.3631C94.7906 34.8966 93.717 39.3504 92.5225 42.7405C91.8024 44.7845 90.8244 46.8554 90.3353 48.9644C89.5254 52.4576 90.0647 54.9996 91.5821 56.8384C92.2903 57.6965 93.2572 58.3024 94.3382 58.5654C95.4193 58.8284 96.5564 58.7344 97.5796 58.2975C99.4783 57.4898 101.647 55.5583 102.815 51.0908Z" fill="#91B3FA"/>
<path d="M93.9585 64.5068C93.9215 64.5068 93.8859 64.4926 93.859 64.4671C93.8322 64.4416 93.8161 64.4068 93.814 64.3699C93.8112 64.3228 93.5547 59.6756 94.1642 53.4729C94.729 47.7455 96.1645 39.4808 99.8153 32.6347C99.8243 32.6179 99.8365 32.603 99.8512 32.5909C99.8659 32.5788 99.8828 32.5697 99.901 32.5642C99.9193 32.5586 99.9384 32.5567 99.9574 32.5585C99.9763 32.5604 99.9948 32.566 100.012 32.5749C100.028 32.5839 100.043 32.5961 100.055 32.6108C100.067 32.6255 100.077 32.6424 100.082 32.6607C100.088 32.6789 100.09 32.698 100.088 32.717C100.086 32.736 100.08 32.7544 100.071 32.7712C96.4435 39.574 95.0142 47.7963 94.4536 53.4964C93.846 59.6775 94.1011 64.3073 94.1035 64.3534C94.1046 64.3724 94.102 64.3915 94.0957 64.4095C94.0895 64.4275 94.0797 64.4441 94.067 64.4583C94.0544 64.4725 94.039 64.4841 94.0218 64.4923C94.0046 64.5006 93.986 64.5053 93.967 64.5064L93.9585 64.5068Z" fill="#7D97F4"/>
<path d="M42.4447 47.7175L40.9282 61.3161H58.5198L56.2287 47.7175H42.4447Z" fill="url(#paint2_linear_32_9971)"/>
<path d="M12.8937 20.139V51.284C12.8934 52.5161 13.3745 53.6996 14.2344 54.5821C15.0943 55.4646 16.2649 55.9762 17.4967 56.0079C28.8723 56.3016 68.6567 57.0128 79.4873 56.8551C80.3831 56.8415 81.239 56.4827 81.8766 55.8535C82.5143 55.2242 82.8844 54.3732 82.9099 53.4777C83.1189 46.2423 83.4577 28.8437 82.2039 20.7673C82.0763 19.943 81.6645 19.1891 81.0399 18.6363C80.4152 18.0834 79.617 17.7662 78.7832 17.7396C69.252 17.4346 27.0759 16.4665 16.2523 16.7093C15.3555 16.7295 14.5022 17.0995 13.8747 17.7403C13.2471 18.3812 12.895 19.242 12.8937 20.139Z" fill="url(#paint3_linear_32_9971)"/>
<path d="M14.8484 19.9873V49.5772C14.8483 50.2961 15.1311 50.9862 15.6356 51.4983C16.1402 52.0104 16.8259 52.3034 17.5448 52.3141L77.9295 53.06C78.2819 53.0653 78.6317 53.0007 78.9589 52.8698C79.286 52.739 79.584 52.5445 79.8354 52.2977C80.0869 52.0509 80.2869 51.7567 80.4239 51.4321C80.5609 51.1074 80.6321 50.7588 80.6335 50.4065L80.7346 21.081C80.7365 20.5713 80.5385 20.0811 80.1832 19.7156C79.8278 19.3501 79.3433 19.1384 78.8337 19.126L17.0106 17.8768C16.7291 17.87 16.4491 17.9195 16.1871 18.0225C15.9251 18.1255 15.6863 18.2799 15.4848 18.4765C15.2834 18.6732 15.1233 18.9081 15.014 19.1676C14.9047 19.427 14.8484 19.7057 14.8484 19.9873Z" fill="#7D97F4"/>
<path d="M81.088 54.2855L14.8478 53.1559C14.8346 53.1566 14.8213 53.1545 14.8089 53.1499C14.7964 53.1452 14.7851 53.138 14.7755 53.1288C14.766 53.1196 14.7584 53.1085 14.7533 53.0962C14.7483 53.0839 14.7458 53.0707 14.746 53.0575C14.7462 53.0442 14.7492 53.0311 14.7547 53.019C14.7602 53.0069 14.7681 52.9961 14.7779 52.9872C14.7878 52.9783 14.7994 52.9715 14.812 52.9672C14.8246 52.963 14.8379 52.9614 14.8511 52.9625L81.0913 54.0921C81.1158 54.0938 81.1387 54.1047 81.1554 54.1227C81.1722 54.1406 81.1815 54.1642 81.1815 54.1888C81.1815 54.2133 81.1722 54.237 81.1554 54.2549C81.1387 54.2729 81.1158 54.2838 81.0913 54.2855H81.088Z" fill="#91B3FA"/>
<path d="M62.3095 64.0982H36.5648C35.8654 64.0982 35.3411 63.6007 35.4753 63.0656L35.8047 61.7591C35.904 61.3661 36.3361 61.0776 36.8496 61.0616L61.6704 60.2873C62.2069 60.2704 62.6818 60.5551 62.8 60.9637L63.3953 63.0444C63.5478 63.5852 63.0202 64.0982 62.3095 64.0982Z" fill="url(#paint4_linear_32_9971)"/>
<path d="M50.4227 61.4282C50.3971 61.4282 50.3725 61.418 50.3544 61.4C50.3363 61.3819 50.3262 61.3573 50.3262 61.3317C50.3262 61.3061 50.3363 61.2816 50.3544 61.2635C50.3725 61.2454 50.3971 61.2352 50.4227 61.2352L51.4863 61.2192C51.5108 61.2209 51.5337 61.2319 51.5505 61.2498C51.5672 61.2678 51.5765 61.2914 51.5765 61.316C51.5765 61.3405 51.5672 61.3641 51.5505 61.3821C51.5337 61.4 51.5108 61.411 51.4863 61.4127L50.4227 61.4282Z" fill="#91B3FA"/>
<path d="M36.4263 63.3906H36.4112C36.3859 63.3865 36.3632 63.3725 36.3481 63.3517C36.3331 63.3309 36.3268 63.305 36.3307 63.2796L36.4828 62.3293C36.5222 62.0794 36.6487 61.8514 36.84 61.6858C37.0313 61.5201 37.2751 61.4275 37.5281 61.4243L48.8092 61.2595C48.8337 61.2612 48.8566 61.2722 48.8733 61.2901C48.8901 61.3081 48.8994 61.3317 48.8994 61.3562C48.8994 61.3808 48.8901 61.4044 48.8733 61.4224C48.8566 61.4403 48.8337 61.4513 48.8092 61.453L37.5281 61.6177C37.3208 61.6211 37.1214 61.6975 36.9651 61.8336C36.8087 61.9696 36.7054 62.1565 36.6734 62.3613L36.5218 63.3116C36.5177 63.3339 36.5059 63.354 36.4884 63.3685C36.471 63.383 36.449 63.3908 36.4263 63.3906Z" fill="#91B3FA"/>
<path d="M62.0647 45.1988L19.8269 44.1704C19.4779 44.1621 19.1461 44.0175 18.9023 43.7678C18.6585 43.518 18.5221 43.1828 18.5222 42.8338V21.9066C18.522 21.731 18.5563 21.557 18.6233 21.3947C18.6903 21.2323 18.7887 21.0848 18.9127 20.9604C19.0367 20.8361 19.184 20.7374 19.3462 20.67C19.5084 20.6026 19.6823 20.5678 19.8579 20.5676H61.4966C61.8449 20.5677 62.1795 20.7037 62.4291 20.9467C62.6787 21.1896 62.8237 21.5203 62.8333 21.8685L63.4329 43.824C63.438 44.0054 63.4061 44.1859 63.3392 44.3545C63.2724 44.5232 63.1719 44.6765 63.0439 44.8051C62.9159 44.9337 62.7631 45.0349 62.5948 45.1026C62.4264 45.1703 62.2461 45.203 62.0647 45.1988Z" fill="url(#paint5_linear_32_9971)"/>
<path d="M44.9065 34.3965C47.2109 32.0921 47.2109 28.3561 44.9065 26.0518C42.6022 23.7475 38.8662 23.7475 36.5619 26.0518C34.2575 28.3561 34.2575 32.0921 36.5619 34.3965C38.8662 36.7008 42.6022 36.7008 44.9065 34.3965Z" fill="url(#paint6_linear_32_9971)"/>
<path opacity="0.56" d="M45.2061 33.1947C45.1876 33.1946 45.1695 33.1892 45.1539 33.1792C45.1432 33.1723 45.134 33.1634 45.1268 33.1529C45.1195 33.1425 45.1144 33.1307 45.1118 33.1183C45.1091 33.1059 45.1089 33.0931 45.1112 33.0806C45.1135 33.0681 45.1183 33.0562 45.1252 33.0455C45.4272 32.5768 45.6517 32.0626 45.7902 31.5225C45.7964 31.4975 45.8124 31.476 45.8344 31.4628C45.8565 31.4496 45.8829 31.4456 45.9079 31.4519C45.9328 31.4581 45.9543 31.474 45.9675 31.4961C45.9808 31.5181 45.9847 31.5446 45.9785 31.5695C45.835 32.1297 45.602 32.6631 45.2885 33.149C45.2798 33.1631 45.2677 33.1746 45.2533 33.1826C45.2388 33.1906 45.2226 33.1948 45.2061 33.1947Z" fill="white"/>
<path opacity="0.56" d="M46.0498 30.3208C46.0246 30.3202 46.0005 30.3097 45.9829 30.2915C45.9653 30.2734 45.9556 30.2491 45.9557 30.2238C45.9541 28.8399 45.4034 27.5132 44.4245 26.5348C43.4457 25.5565 42.1187 25.0066 40.7347 25.0057C40.7102 25.004 40.6873 24.9931 40.6706 24.9751C40.6538 24.9572 40.6445 24.9335 40.6445 24.909C40.6445 24.8844 40.6538 24.8608 40.6706 24.8428C40.6873 24.8249 40.7102 24.814 40.7347 24.8123C42.1698 24.8135 43.5458 25.3841 44.5606 26.3989C45.5754 27.4137 46.146 28.7897 46.1472 30.2248C46.1472 30.2375 46.1446 30.25 46.1397 30.2618C46.1347 30.2735 46.1275 30.2841 46.1185 30.293C46.1094 30.3019 46.0987 30.309 46.0869 30.3138C46.0751 30.3185 46.0625 30.3209 46.0498 30.3208Z" fill="white"/>
<path opacity="0.7" d="M38.831 33.307C38.7511 33.307 38.6743 33.2758 38.617 33.2201C38.5597 33.1644 38.5264 33.0885 38.5242 33.0086L38.383 27.774C38.3808 27.6897 38.4001 27.6063 38.4392 27.5316C38.4783 27.457 38.5358 27.3935 38.6063 27.3473C38.6768 27.3011 38.7579 27.2737 38.842 27.2676C38.926 27.2616 39.0102 27.2771 39.0866 27.3127L44.2577 29.7314C44.3408 29.7703 44.4115 29.8316 44.4618 29.9084C44.5121 29.9852 44.5401 30.0745 44.5425 30.1662C44.5448 30.258 44.5216 30.3486 44.4754 30.428C44.4292 30.5073 44.3618 30.5722 44.2807 30.6153L39.7154 33.0486C39.6436 33.0869 39.5594 33.0951 39.4816 33.0714C39.4037 33.0477 39.3384 32.9941 39.3 32.9222C39.2617 32.8504 39.2535 32.7663 39.2772 32.6884C39.3009 32.6105 39.3546 32.5452 39.4264 32.5069L43.78 30.1861L39.0028 27.9509L39.1379 32.9931C39.139 33.0333 39.1322 33.0734 39.1178 33.1111C39.1034 33.1487 39.0817 33.1831 39.054 33.2124C39.0263 33.2416 38.9931 33.2651 38.9563 33.2815C38.9195 33.2979 38.8798 33.3069 38.8395 33.3079L38.831 33.307Z" fill="white"/>
<path d="M18.5209 39.6436V42.8336C18.5208 43.1827 18.6572 43.5179 18.901 43.7677C19.1448 44.0174 19.4766 44.1619 19.8255 44.1703L62.0648 45.1987C62.2461 45.2031 62.4265 45.1705 62.5949 45.103C62.7633 45.0355 62.9163 44.9345 63.0444 44.806C63.1725 44.6775 63.2731 44.5243 63.3402 44.3557C63.4072 44.1871 63.4393 44.0067 63.4344 43.8253L63.32 39.6436H18.5209Z" fill="url(#paint7_linear_32_9971)"/>
<path d="M19.7779 41.9875L19.8165 42.3725C19.8337 42.5427 19.9134 42.7005 20.0403 42.8153C20.1671 42.9301 20.3321 42.9937 20.5032 42.9938H57.8062C57.9893 42.9938 58.165 42.921 58.2944 42.7915C58.4239 42.6621 58.4967 42.4864 58.4967 42.3033C58.4967 42.1215 58.4249 41.947 58.2969 41.8177C58.1689 41.6885 57.9951 41.6151 57.8133 41.6133L20.4717 41.2293C20.3747 41.2283 20.2786 41.2477 20.1897 41.2864C20.1007 41.325 20.0209 41.3819 19.9555 41.4535C19.89 41.525 19.8404 41.6095 19.8098 41.7016C19.7792 41.7936 19.7683 41.891 19.7779 41.9875Z" fill="#7D97F4"/>
<path d="M43.6508 42.5519C43.6071 42.1937 43.5534 41.8304 43.5021 41.4661L20.4716 41.2308C20.3746 41.2297 20.2784 41.2492 20.1894 41.2879C20.1004 41.3266 20.0205 41.3836 19.9551 41.4552C19.8896 41.5269 19.84 41.6115 19.8094 41.7037C19.7789 41.7958 19.7682 41.8933 19.7779 41.9899L19.8165 42.3749C19.8336 42.5451 19.9134 42.7029 20.0402 42.8177C20.1671 42.9325 20.3321 42.9961 20.5032 42.9962H43.7148C43.6904 42.839 43.6673 42.6884 43.6508 42.5519Z" fill="url(#paint8_linear_32_9971)"/>
<path d="M45.0837 42.194C45.0838 42.4409 45.0107 42.6822 44.8736 42.8876C44.7365 43.0929 44.5416 43.2529 44.3136 43.3475C44.0855 43.442 43.8345 43.4668 43.5924 43.4187C43.3502 43.3706 43.1278 43.2518 42.9531 43.0772C42.7785 42.9027 42.6596 42.6803 42.6114 42.4381C42.5632 42.196 42.5879 41.945 42.6824 41.7169C42.7768 41.4888 42.9368 41.2938 43.1421 41.1567C43.3473 41.0195 43.5887 40.9463 43.8356 40.9463C44.1665 40.9463 44.4839 41.0777 44.718 41.3117C44.9521 41.5457 45.0836 41.863 45.0837 42.194Z" fill="url(#paint9_linear_32_9971)"/>
<path d="M60.0998 41.283H59.3547V42.9768H60.0998V41.283Z" fill="#7D97F4"/>
<path d="M62.132 40.8088H61.387V42.9771H62.132V40.8088Z" fill="#7D97F4"/>
<path d="M61.1162 40.4023H60.4385V42.9768H61.1162V40.4023Z" fill="#7D97F4"/>
<path d="M18.5044 46.8301L18.5393 50.4117C18.5404 50.5336 18.5655 50.654 18.6132 50.7661C18.6609 50.8783 18.7302 50.9799 18.8172 51.0652C18.9041 51.1505 19.0071 51.2179 19.1201 51.2634C19.2331 51.3089 19.354 51.3317 19.4759 51.3304L62.0634 50.9177C62.1852 50.9166 62.3057 50.8915 62.4178 50.8438C62.5299 50.7961 62.6315 50.7268 62.7169 50.6398C62.8022 50.5528 62.8695 50.4499 62.915 50.3368C62.9606 50.2238 62.9833 50.1029 62.9821 49.9811L62.9586 47.553C62.9563 47.3112 62.8597 47.08 62.6894 46.9084C62.5191 46.7368 62.2886 46.6384 62.0469 46.6343L19.4481 45.8935C19.3242 45.8912 19.201 45.9139 19.086 45.9601C18.971 46.0063 18.8664 46.0751 18.7784 46.1624C18.6904 46.2497 18.6209 46.3538 18.5738 46.4685C18.5268 46.5832 18.5032 46.7061 18.5044 46.8301Z" fill="#91B3FA"/>
<path d="M52.1076 47.2361H19.9347C19.8697 47.2361 19.817 47.2888 19.817 47.3537V47.9519C19.817 48.0169 19.8697 48.0696 19.9347 48.0696H52.1076C52.1726 48.0696 52.2252 48.0169 52.2252 47.9519V47.3537C52.2252 47.2888 52.1726 47.2361 52.1076 47.2361Z" fill="#BDD0FB"/>
<path d="M42.5703 48.4402H19.9347C19.8697 48.4402 19.817 48.4929 19.817 48.5578V48.9706C19.817 49.0356 19.8697 49.0883 19.9347 49.0883H42.5703C42.6353 49.0883 42.6879 49.0356 42.6879 48.9706V48.5578C42.6879 48.4929 42.6353 48.4402 42.5703 48.4402Z" fill="#BDD0FB"/>
<path d="M32.1161 49.6436H19.9257C19.8657 49.6436 19.817 49.6922 19.817 49.7523V49.998C19.817 50.058 19.8657 50.1067 19.9257 50.1067H32.1161C32.1762 50.1067 32.2248 50.058 32.2248 49.998V49.7523C32.2248 49.6922 32.1762 49.6436 32.1161 49.6436Z" fill="#BDD0FB"/>
<path d="M78.105 30.2543L66.5053 29.873C66.3759 29.87 66.2529 29.8164 66.1625 29.7238C66.072 29.6312 66.0214 29.5069 66.0215 29.3774V21.6206C66.0215 21.4892 66.0737 21.3631 66.1666 21.2702C66.2596 21.1772 66.3856 21.125 66.5171 21.125H77.8951C78.0242 21.1251 78.1482 21.1754 78.2407 21.2654C78.3332 21.3554 78.387 21.4779 78.3907 21.6069L78.6129 29.7455C78.6146 29.8127 78.6027 29.8796 78.5778 29.942C78.5529 30.0045 78.5156 30.0612 78.4681 30.1088C78.4206 30.1564 78.3639 30.1938 78.3015 30.2188C78.2391 30.2438 78.1722 30.2559 78.105 30.2543Z" fill="#91B3FA"/>
<path d="M74.384 26.105C74.6631 24.9225 73.9308 23.7377 72.7483 23.4587C71.5659 23.1796 70.3811 23.9119 70.102 25.0943C69.8229 26.2768 70.5552 27.4616 71.7377 27.7407C72.9201 28.0198 74.1049 27.2874 74.384 26.105Z" fill="url(#paint10_linear_32_9971)"/>
<path opacity="0.56" d="M73.9136 26.7194C73.9054 26.7192 73.8974 26.7168 73.8904 26.7125C73.8834 26.7082 73.8777 26.7022 73.8737 26.695C73.8698 26.6879 73.8678 26.6798 73.8679 26.6716C73.8681 26.6634 73.8703 26.6554 73.8745 26.6483C73.9866 26.4746 74.0699 26.2839 74.1211 26.0836C74.1243 26.0717 74.132 26.0616 74.1426 26.0554C74.1531 26.0491 74.1657 26.0473 74.1776 26.0501C74.1894 26.0534 74.1995 26.0611 74.2058 26.0716C74.212 26.0821 74.2139 26.0947 74.211 26.1066C74.1569 26.3163 74.0697 26.516 73.9526 26.6982C73.9484 26.7047 73.9426 26.71 73.9358 26.7137C73.929 26.7174 73.9213 26.7194 73.9136 26.7194Z" fill="white"/>
<path opacity="0.7" d="M74.228 25.6508C74.2155 25.6508 74.2035 25.6458 74.1947 25.637C74.1859 25.6281 74.1809 25.6162 74.1809 25.6037C74.1804 25.0907 73.9764 24.5988 73.6136 24.2361C73.2509 23.8733 72.759 23.6693 72.246 23.6688C72.2336 23.6688 72.2216 23.6639 72.2128 23.6551C72.2039 23.6462 72.199 23.6343 72.199 23.6218C72.199 23.6093 72.2039 23.5973 72.2128 23.5885C72.2216 23.5797 72.2336 23.5747 72.246 23.5747C72.7839 23.5752 73.2996 23.7892 73.6799 24.1696C74.0601 24.55 74.2738 25.0658 74.2741 25.6037C74.2741 25.616 74.2693 25.6278 74.2606 25.6366C74.252 25.6454 74.2403 25.6505 74.228 25.6508Z" fill="white"/>
<path opacity="0.7" d="M71.5366 26.7514C71.5067 26.7514 71.478 26.7397 71.4567 26.7189C71.4353 26.698 71.4229 26.6697 71.4222 26.6398L71.3699 24.6885C71.3691 24.6571 71.3762 24.626 71.3908 24.5981C71.4053 24.5703 71.4268 24.5466 71.453 24.5294C71.4793 24.5121 71.5096 24.5019 71.5409 24.4997C71.5723 24.4975 71.6037 24.5034 71.6321 24.5167L73.5618 25.418C73.5927 25.4326 73.6189 25.4555 73.6376 25.4841C73.6563 25.5127 73.6666 25.546 73.6675 25.5801C73.6684 25.6143 73.6598 25.648 73.6426 25.6776C73.6254 25.7071 73.6004 25.7313 73.5702 25.7475L71.8688 26.6549C71.8421 26.6692 71.8107 26.6722 71.7817 26.6634C71.7526 26.6546 71.7283 26.6346 71.714 26.6078C71.6997 26.581 71.6966 26.5497 71.7055 26.5207C71.7143 26.4916 71.7343 26.4673 71.7611 26.453L73.3839 25.5874L71.6006 24.7563L71.6509 26.6356C71.6517 26.666 71.6404 26.6954 71.6195 26.7175C71.5986 26.7395 71.5698 26.7524 71.5394 26.7533L71.5366 26.7514Z" fill="white"/>
<path d="M78.105 40.4396L66.5053 40.0583C66.3759 40.0553 66.2529 40.0017 66.1625 39.9091C66.072 39.8165 66.0214 39.6922 66.0215 39.5627V31.8059C66.0215 31.6745 66.0737 31.5484 66.1666 31.4555C66.2596 31.3625 66.3856 31.3103 66.5171 31.3103H77.8951C78.0242 31.3104 78.1482 31.3607 78.2407 31.4507C78.3332 31.5407 78.387 31.6632 78.3907 31.7923L78.6129 39.9303C78.6147 39.9976 78.6028 40.0645 78.5779 40.127C78.5531 40.1895 78.5157 40.2463 78.4682 40.2939C78.4207 40.3416 78.364 40.379 78.3016 40.4041C78.2392 40.4291 78.1723 40.4412 78.105 40.4396Z" fill="#91B3FA"/>
<path d="M74.384 36.2903C74.6631 35.1078 73.9308 33.923 72.7483 33.644C71.5659 33.3649 70.3811 34.0972 70.102 35.2796C69.8229 36.4621 70.5552 37.6469 71.7377 37.926C72.9201 38.2051 74.1049 37.4727 74.384 36.2903Z" fill="url(#paint11_linear_32_9971)"/>
<path d="M73.9136 36.905C73.9054 36.9047 73.8974 36.9023 73.8904 36.8981C73.8834 36.8938 73.8777 36.8878 73.8737 36.8806C73.8698 36.8734 73.8678 36.8653 73.8679 36.8571C73.8681 36.8489 73.8703 36.8409 73.8745 36.8339C73.9866 36.6602 74.0699 36.4694 74.1211 36.2691C74.1243 36.2573 74.132 36.2472 74.1426 36.2409C74.1531 36.2347 74.1657 36.2328 74.1776 36.2357C74.1894 36.2389 74.1995 36.2466 74.2058 36.2571C74.212 36.2677 74.2139 36.2803 74.211 36.2922C74.1569 36.5019 74.0697 36.7016 73.9526 36.8838C73.9484 36.8903 73.9426 36.8956 73.9358 36.8993C73.929 36.903 73.9213 36.9049 73.9136 36.905Z" fill="white"/>
<path d="M74.228 35.8336C74.2155 35.8336 74.2035 35.8286 74.1947 35.8198C74.1859 35.811 74.1809 35.799 74.1809 35.7865C74.1804 35.2735 73.9764 34.7816 73.6137 34.4188C73.2509 34.0559 72.7591 33.8518 72.246 33.8512C72.2336 33.8512 72.2216 33.8463 72.2128 33.8374C72.2039 33.8286 72.199 33.8166 72.199 33.8041C72.199 33.7917 72.2039 33.7797 72.2128 33.7709C72.2216 33.762 72.2336 33.7571 72.246 33.7571C72.7836 33.7577 73.299 33.9715 73.6791 34.3516C74.0592 34.7317 74.273 35.2471 74.2736 35.7847C74.2739 35.7909 74.2729 35.7971 74.2707 35.8029C74.2686 35.8088 74.2653 35.8141 74.261 35.8187C74.2568 35.8232 74.2517 35.8269 74.246 35.8294C74.2403 35.832 74.2342 35.8334 74.228 35.8336Z" fill="white"/>
<path d="M71.5366 36.9367C71.5067 36.9367 71.478 36.9251 71.4567 36.9042C71.4353 36.8834 71.4229 36.855 71.4222 36.8252L71.3699 34.8753C71.3691 34.8439 71.3762 34.8127 71.3908 34.7849C71.4053 34.757 71.4268 34.7334 71.453 34.7161C71.4793 34.6989 71.5096 34.6887 71.5409 34.6865C71.5723 34.6843 71.6037 34.6901 71.6321 34.7035L73.5618 35.6048C73.5927 35.6194 73.6189 35.6422 73.6376 35.6709C73.6563 35.6995 73.6666 35.7327 73.6675 35.7669C73.6684 35.8011 73.6598 35.8348 73.6426 35.8643C73.6254 35.8939 73.6004 35.9181 73.5702 35.9342L71.8688 36.8417C71.8421 36.8559 71.8107 36.859 71.7817 36.8502C71.7526 36.8414 71.7283 36.8214 71.714 36.7946C71.6997 36.7678 71.6966 36.7365 71.7055 36.7074C71.7143 36.6784 71.7343 36.654 71.7611 36.6397L73.3839 35.7742L71.6025 34.9412L71.6528 36.8205C71.6532 36.8355 71.6507 36.8505 71.6453 36.8645C71.6399 36.8786 71.6318 36.8914 71.6215 36.9023C71.6111 36.9132 71.5987 36.9219 71.5849 36.928C71.5711 36.9341 71.5563 36.9374 71.5413 36.9377L71.5366 36.9367Z" fill="white"/>
<path d="M78.4185 42.1436H66.2173C66.1091 42.1436 66.0215 42.2312 66.0215 42.3393V42.7813C66.0215 42.8894 66.1091 42.9771 66.2173 42.9771H78.4185C78.5266 42.9771 78.6143 42.8894 78.6143 42.7813V42.3393C78.6143 42.2312 78.5266 42.1436 78.4185 42.1436Z" fill="#91B3FA"/>
<path d="M78.4185 43.5325H66.2173C66.1091 43.5325 66.0215 43.6201 66.0215 43.7283V44.1702C66.0215 44.2783 66.1091 44.366 66.2173 44.366H78.4185C78.5266 44.366 78.6143 44.2783 78.6143 44.1702V43.7283C78.6143 43.6201 78.5266 43.5325 78.4185 43.5325Z" fill="#91B3FA"/>
<path d="M78.4185 44.9214H66.2173C66.1091 44.9214 66.0215 45.009 66.0215 45.1172V45.5591C66.0215 45.6673 66.1091 45.7549 66.2173 45.7549H78.4185C78.5266 45.7549 78.6143 45.6673 78.6143 45.5591V45.1172C78.6143 45.009 78.5266 44.9214 78.4185 44.9214Z" fill="#91B3FA"/>
<path d="M74.8999 46.3103H66.2173C66.1091 46.3103 66.0215 46.398 66.0215 46.5061V46.948C66.0215 47.0562 66.1091 47.1438 66.2173 47.1438H74.8999C75.008 47.1438 75.0957 47.0562 75.0957 46.948V46.5061C75.0957 46.398 75.008 46.3103 74.8999 46.3103Z" fill="#91B3FA"/>
<path d="M78.4185 48.5325H66.2173C66.1091 48.5325 66.0215 48.6201 66.0215 48.7283V49.1702C66.0215 49.2783 66.1091 49.366 66.2173 49.366H78.4185C78.5266 49.366 78.6143 49.2783 78.6143 49.1702V48.7283C78.6143 48.6201 78.5266 48.5325 78.4185 48.5325Z" fill="#91B3FA"/>
<path d="M74.8999 49.9214H66.2173C66.1091 49.9214 66.0215 50.009 66.0215 50.1172V50.5591C66.0215 50.6673 66.1091 50.7549 66.2173 50.7549H74.8999C75.008 50.7549 75.0957 50.6673 75.0957 50.5591V50.1172C75.0957 50.009 75.008 49.9214 74.8999 49.9214Z" fill="#91B3FA"/>
<path d="M78.6057 64.4109C87.9654 64.4109 95.553 56.8234 95.553 47.4636C95.553 38.1039 87.9654 30.5164 78.6057 30.5164C69.246 30.5164 61.6584 38.1039 61.6584 47.4636C61.6584 56.8234 69.246 64.4109 78.6057 64.4109Z" fill="url(#paint12_linear_32_9971)"/>
<path d="M93.9889 51.6241C93.9805 51.6241 93.9721 51.623 93.9639 51.6208C93.9392 51.6141 93.9181 51.598 93.9052 51.5759C93.8924 51.5537 93.8888 51.5274 93.8952 51.5026C94.2416 50.1842 94.4166 48.8266 94.4158 47.4635C94.4175 47.439 94.4284 47.4161 94.4464 47.3993C94.4643 47.3826 94.488 47.3733 94.5125 47.3733C94.537 47.3733 94.5607 47.3826 94.5786 47.3993C94.5966 47.4161 94.6075 47.439 94.6092 47.4635C94.61 48.8433 94.433 50.2175 94.0826 51.5521C94.077 51.5727 94.0648 51.5909 94.0479 51.6039C94.031 51.6169 94.0102 51.624 93.9889 51.6241Z" fill="url(#paint13_linear_32_9971)"/>
<path d="M94.3694 45.3148C94.3649 45.3153 94.3603 45.3153 94.3558 45.3148C94.3327 45.3144 94.3106 45.3058 94.2934 45.2905C94.2761 45.2752 94.2649 45.2543 94.2616 45.2315C93.9366 42.9654 93.1238 40.7967 91.8792 38.8751C90.6346 36.9536 88.988 35.325 87.0529 34.1016C85.1178 32.8783 82.9403 32.0893 80.6707 31.7892C78.4011 31.4891 76.0934 31.685 73.9068 32.3634C73.8947 32.3672 73.882 32.3685 73.8693 32.3674C73.8567 32.3662 73.8444 32.3626 73.8332 32.3567C73.8219 32.3508 73.812 32.3427 73.8039 32.333C73.7957 32.3232 73.7896 32.312 73.7859 32.2999C73.7821 32.2878 73.7807 32.275 73.7819 32.2624C73.783 32.2497 73.7867 32.2375 73.7926 32.2262C73.7985 32.215 73.8065 32.205 73.8163 32.1969C73.826 32.1888 73.8373 32.1827 73.8494 32.1789C76.0627 31.4908 78.3991 31.2914 80.697 31.5946C82.9949 31.8977 85.1996 32.6962 87.1587 33.9348C89.1179 35.1733 90.7847 36.8225 92.0441 38.7683C93.3036 40.7141 94.1255 42.9102 94.4532 45.2047C94.4551 45.2175 94.4544 45.2305 94.4512 45.243C94.448 45.2555 94.4424 45.2672 94.4346 45.2775C94.4267 45.2877 94.417 45.2963 94.4058 45.3028C94.3946 45.3092 94.3822 45.3133 94.3694 45.3148Z" fill="url(#paint14_linear_32_9971)"/>
<path d="M78.6058 43.5344C81.1784 43.5344 83.2639 41.4489 83.2639 38.8763C83.2639 36.3037 81.1784 34.2183 78.6058 34.2183C76.0332 34.2183 73.9478 36.3037 73.9478 38.8763C73.9478 41.4489 76.0332 43.5344 78.6058 43.5344Z" fill="url(#paint15_linear_32_9971)"/>
<path d="M81.9812 39.6518C82.4115 37.785 81.247 35.9229 79.3802 35.4926C77.5134 35.0623 75.6513 36.2268 75.221 38.0936C74.7907 39.9603 75.9552 41.8225 77.822 42.2527C79.6887 42.683 81.5509 41.5185 81.9812 39.6518Z" fill="url(#paint16_linear_32_9971)"/>
<path d="M78.6058 60.8432C81.1784 60.8432 83.2639 58.7577 83.2639 56.1852C83.2639 53.6126 81.1784 51.5271 78.6058 51.5271C76.0332 51.5271 73.9478 53.6126 73.9478 56.1852C73.9478 58.7577 76.0332 60.8432 78.6058 60.8432Z" fill="url(#paint17_linear_32_9971)"/>
<path d="M69.952 52.1887C72.5246 52.1887 74.61 50.1032 74.61 47.5306C74.61 44.958 72.5246 42.8726 69.952 42.8726C67.3794 42.8726 65.2939 44.958 65.2939 47.5306C65.2939 50.1032 67.3794 52.1887 69.952 52.1887Z" fill="url(#paint18_linear_32_9971)"/>
<path d="M78.6059 59.6537C80.5216 59.6537 82.0746 58.1007 82.0746 56.185C82.0746 54.2693 80.5216 52.7163 78.6059 52.7163C76.6902 52.7163 75.1372 54.2693 75.1372 56.185C75.1372 58.1007 76.6902 59.6537 78.6059 59.6537Z" fill="url(#paint19_linear_32_9971)"/>
<path d="M72.4046 49.984C73.7593 48.6294 73.7593 46.4331 72.4046 45.0785C71.05 43.7239 68.8538 43.7239 67.4991 45.0785C66.1445 46.4331 66.1445 48.6294 67.4991 49.984C68.8538 51.3386 71.05 51.3386 72.4046 49.984Z" fill="url(#paint20_linear_32_9971)"/>
<path d="M90.5538 50.825C92.3729 49.0059 92.3729 46.0566 90.5538 44.2375C88.7347 42.4184 85.7854 42.4184 83.9663 44.2375C82.1473 46.0566 82.1473 49.0059 83.9663 50.825C85.7854 52.6441 88.7347 52.6441 90.5538 50.825Z" fill="url(#paint21_linear_32_9971)"/>
<path d="M87.2602 50.9994C89.1759 50.9994 90.7289 49.4464 90.7289 47.5307C90.7289 45.615 89.1759 44.062 87.2602 44.062C85.3445 44.062 83.7915 45.615 83.7915 47.5307C83.7915 49.4464 85.3445 50.9994 87.2602 50.9994Z" fill="url(#paint22_linear_32_9971)"/>
<path d="M78.9941 49.4459C79.8698 49.4459 80.5797 48.736 80.5797 47.8603C80.5797 46.9846 79.8698 46.2747 78.9941 46.2747C78.1184 46.2747 77.4084 46.9846 77.4084 47.8603C77.4084 48.736 78.1184 49.4459 78.9941 49.4459Z" fill="url(#paint23_linear_32_9971)"/>
<path d="M34.4671 23.4442C34.4567 23.4404 28.815 13.5605 28.0525 12.6304C27.9894 12.5537 27.908 12.494 27.8158 12.4569C27.7237 12.4198 27.6236 12.4065 27.5249 12.4182L25.9501 12.6064L24.1 16.607L27.1823 14.8124C26.8773 16.9214 30.8364 20.0559 32.1943 21.1996C32.2269 21.2271 32.2536 21.2609 32.2726 21.299C32.2917 21.3372 32.3027 21.3788 32.305 21.4214C32.3073 21.464 32.3008 21.5066 32.286 21.5466C32.2711 21.5865 32.2482 21.623 32.2187 21.6538L31.677 22.2214C32.5666 23.1232 33.5935 23.7026 34.7527 23.9704L34.4671 23.4442Z" fill="url(#paint24_linear_32_9971)"/>
<path d="M31.99 21.916C31.99 21.916 31.6441 22.0276 31.5269 22.3358C31.5016 22.4088 31.501 22.4881 31.5251 22.5615C31.5493 22.6349 31.5969 22.6983 31.6606 22.742C32.2305 23.1505 34.108 24.4679 34.9768 24.7263C34.9931 24.7309 35.0104 24.7312 35.0269 24.7272C35.0435 24.7231 35.0586 24.7149 35.071 24.7032C35.0834 24.6916 35.0925 24.6769 35.0975 24.6606C35.1026 24.6444 35.1033 24.6271 35.0996 24.6105C35.0549 24.4091 34.9114 24.0067 34.4473 23.4179L34.4887 23.5021C34.5003 23.5252 34.5041 23.5513 34.4997 23.5767C34.4953 23.6021 34.4828 23.6254 34.4642 23.6432C34.4455 23.661 34.4217 23.6724 34.3961 23.6756C34.3705 23.6788 34.3446 23.6738 34.3221 23.6612C33.7413 23.3336 32.56 22.6168 31.99 21.916Z" fill="url(#paint25_linear_32_9971)"/>
<path d="M32.2696 25.869C32.2602 25.8633 31.4135 23.824 31.4041 23.8179C30.628 19.0925 28.7345 15.0458 28.1763 13.9812C28.13 13.8933 28.0624 13.8184 27.9795 13.7635C27.8967 13.7085 27.8014 13.6753 27.7024 13.6668L26.1224 13.5322L23.5009 17.0767L26.882 15.9429C26.1567 17.946 29.4014 21.8171 30.4981 23.2117C30.5244 23.2452 30.5437 23.2837 30.5546 23.3249C30.5655 23.3661 30.5679 23.4092 30.5615 23.4513C30.5552 23.4935 30.5403 23.5339 30.5177 23.5701C30.4951 23.6062 30.4654 23.6374 30.4303 23.6616L29.7845 24.1078C30.4736 25.1715 31.3617 25.9462 32.4428 26.4432L32.2696 25.869Z" fill="url(#paint26_linear_32_9971)"/>
<path d="M30.1545 23.8711C30.1545 23.8711 29.793 23.9106 29.616 24.1888C29.5764 24.2548 29.5596 24.332 29.5681 24.4085C29.5766 24.485 29.61 24.5567 29.6631 24.6124C30.1385 25.1273 31.7119 26.7981 32.5087 27.2264C32.5238 27.2343 32.5407 27.2381 32.5577 27.2376C32.5747 27.237 32.5913 27.232 32.6058 27.2231C32.6203 27.2141 32.6323 27.2016 32.6405 27.1867C32.6487 27.1717 32.6529 27.1549 32.6527 27.1379C32.6499 26.9317 32.5901 26.5086 32.255 25.838L32.279 25.9288C32.2855 25.9537 32.2839 25.9801 32.2744 26.004C32.2648 26.028 32.2479 26.0483 32.2261 26.0619C32.2042 26.0756 32.1786 26.0819 32.1529 26.08C32.1272 26.078 32.1028 26.0679 32.0832 26.0512C31.581 25.6139 30.5691 24.6731 30.1545 23.8711Z" fill="url(#paint27_linear_32_9971)"/>
<path d="M18.7261 12.7848C18.7261 12.7848 17.2967 14.9112 17.1795 15.8807C17.0623 16.8503 17.5749 17.1858 19.0706 17.3096C23.523 17.6777 25.7177 16.3434 25.7177 16.3434C26.0222 14.4014 26.2391 13.9073 28.7825 12.8516C28.7825 12.8516 25.5652 13.1072 24.918 12.8558C24.2709 12.6045 18.7261 12.7848 18.7261 12.7848Z" fill="url(#paint28_linear_32_9971)"/>
<path d="M24.4261 0.873538C24.4261 0.873538 23.4307 -0.303095 22.3722 1.14087C22.1802 1.40255 21.4441 1.18793 21.1739 1.73436C21.1086 1.87219 20.9998 1.9847 20.8642 2.05454C20.7286 2.12437 20.5738 2.14764 20.4237 2.12077C19.6514 1.97957 18.3891 1.96639 17.7655 3.17644C17.2901 4.10034 17.6572 4.64112 18.1326 4.94939C18.3025 5.05617 18.4247 5.2244 18.4737 5.41903C18.5227 5.61367 18.4948 5.81971 18.3957 5.99424C18.1928 6.33829 18.1547 6.80377 18.6781 7.36479C19.8505 8.62096 22.1708 6.5675 22.1708 6.5675L24.0134 2.21208L24.4261 0.873538Z" fill="url(#paint29_linear_32_9971)"/>
<path d="M22.5915 12.5034C22.5915 12.5034 24.2562 10.9187 25.0756 9.86774C25.2936 9.58779 25.4414 9.25982 25.5069 8.91114C25.5724 8.56246 25.5536 8.20317 25.4521 7.86323C25.0784 6.60282 24.4134 5.2977 24.3527 5.09437C24.2586 4.7828 22.3934 4.79598 22.3934 4.79598C22.3934 4.79598 18.7223 7.17937 17.2778 11.2171L18.8983 11.7216C18.8983 11.7216 19.8575 10.1129 20.8049 9.09022C20.8049 9.09022 19.1651 11.2552 19.1077 12.1424L22.5915 12.5034Z" fill="url(#paint30_linear_32_9971)"/>
<path d="M25.7633 13.1312L24.5128 11.7663L23.0679 12.155C23.0679 12.155 21.3839 12.4162 20.4204 12.155L19.4565 11.8943L17.2784 11.2161L16.9362 12.1828C16.8941 12.3022 16.8921 12.4321 16.9305 12.5528C16.9689 12.6735 17.0456 12.7784 17.1489 12.8516C17.3372 12.9857 17.5584 13.134 17.6991 13.1942C17.9858 13.3199 24.3066 13.2342 24.3066 13.2342L25.7633 13.1312Z" fill="url(#paint31_linear_32_9971)"/>
<path d="M23.6768 2.55288L22.422 4.88544C22.5048 5.39469 23.7869 5.40881 23.9855 5.10477C24.005 5.07337 24.0185 5.03855 24.025 5.00216L24.7753 3.44336C24.8077 3.29134 24.3907 2.77927 24.2538 2.70632L23.7535 2.44087C23.5652 2.33874 24.3653 2.33074 23.6768 2.55288Z" fill="url(#paint32_linear_32_9971)"/>
<path d="M26.2157 2.00557C26.2157 2.00557 26.3568 2.79345 25.7375 3.79406C25.1181 4.79466 24.5015 4.75372 24.1881 4.39508C23.8746 4.03644 23.4995 3.44248 23.6704 2.44328C23.8412 1.44409 26.0015 1.00026 26.2157 2.00557Z" fill="url(#paint33_linear_32_9971)"/>
<path d="M24.4201 2.55149C24.4201 2.55149 25.423 1.23366 26.193 2.38253L26.1799 2.77929C26.1799 2.77929 27.1814 2.73222 27.0741 1.80974C26.9668 0.887261 26.1479 0.256586 25.0145 0.571453C23.8812 0.88632 23.219 1.2459 23.091 2.03283C22.9629 2.81976 23.6059 2.69175 23.6059 2.69175C23.6059 2.69175 23.8511 2.14861 24.1476 2.11143C24.4441 2.07425 24.3358 2.50395 24.3358 2.50395L24.4201 2.55149Z" fill="url(#paint34_linear_32_9971)"/>
<path d="M24.19 2.51653C24.19 2.51653 24.7077 1.84209 24.2371 1.7023C23.7664 1.56252 23.7815 2.36122 23.8135 2.66055L24.19 2.51653Z" fill="url(#paint35_linear_32_9971)"/>
<path d="M21.6229 13.6677H21.6356L27.3884 13.6616C27.4567 13.6616 27.5221 13.6345 27.5704 13.5862C27.6187 13.5379 27.6458 13.4725 27.6458 13.4042C27.6458 13.3359 27.6187 13.2704 27.5704 13.2221C27.5221 13.1739 27.4567 13.1467 27.3884 13.1467L21.6356 13.1528C21.6018 13.152 21.5681 13.1578 21.5366 13.17C21.505 13.1822 21.4762 13.2004 21.4517 13.2238C21.4272 13.2471 21.4075 13.275 21.3938 13.3059C21.3801 13.3368 21.3726 13.3701 21.3718 13.4039C21.3709 13.4378 21.3768 13.4714 21.3889 13.5029C21.4011 13.5345 21.4194 13.5633 21.4427 13.5878C21.466 13.6123 21.4939 13.632 21.5248 13.6457C21.5558 13.6594 21.5891 13.6669 21.6229 13.6677Z" fill="url(#paint36_linear_32_9971)"/>
<path d="M32.5609 8.44458H27.7697C27.5965 8.44459 27.427 8.49379 27.2807 8.58644C27.1345 8.6791 27.0176 8.81141 26.9437 8.96795L24.7288 13.6646H30.683C30.7946 13.6648 30.9036 13.6315 30.996 13.5689C31.0883 13.5062 31.1597 13.4172 31.2007 13.3135L32.9181 8.96748C32.941 8.90936 32.9493 8.84652 32.9424 8.78445C32.9354 8.72237 32.9133 8.66295 32.8781 8.61137C32.8428 8.5598 32.7955 8.51763 32.7402 8.48855C32.6849 8.45948 32.6234 8.44438 32.5609 8.44458Z" fill="url(#paint37_linear_32_9971)"/>
<path d="M29.1854 10.8523C29.0818 11.1747 29.1586 11.4882 29.3567 11.5522C29.5549 11.6162 29.8001 11.4063 29.9041 11.0839C30.0081 10.7615 29.9314 10.4481 29.7328 10.384C29.5341 10.32 29.2894 10.53 29.1854 10.8523Z" fill="#7D97F4"/>
<path d="M53.8202 61.1679C54.4791 61.4936 55.138 61.759 55.5828 61.9271C55.3107 61.4724 54.6674 60.46 54.0113 59.8821L53.5011 59.6213C53.5011 59.6213 53.2055 59.8134 52.8718 60.4036C52.9109 60.5495 53.0987 60.8116 53.8202 61.1679Z" fill="url(#paint38_linear_32_9971)"/>
<path d="M55.5868 61.9337C55.5857 61.9314 55.5844 61.9292 55.583 61.9271C55.1387 61.759 54.4793 61.4936 53.8204 61.1679C53.0989 60.8116 52.9111 60.5495 52.872 60.4036C52.8565 60.4304 52.841 60.4577 52.825 60.4864C52.8082 60.5174 52.7977 60.5515 52.7941 60.5866C52.7905 60.6217 52.7939 60.6571 52.8041 60.6909C52.8143 60.7247 52.8311 60.7561 52.8535 60.7834C52.8759 60.8106 52.9035 60.8332 52.9346 60.8497C53.4669 61.1321 54.7914 61.8249 55.4653 62.0791C55.4848 62.0865 55.5061 62.0876 55.5263 62.0823C55.5464 62.077 55.5645 62.0656 55.5778 62.0496C55.5912 62.0336 55.5992 62.0138 55.6008 61.9931C55.6024 61.9723 55.5975 61.9515 55.5868 61.9337Z" fill="url(#paint39_linear_32_9971)"/>
<path d="M53.7059 58.874C53.7793 58.9037 53.5125 59.2369 53.4598 59.6562C53.4507 59.7008 53.4564 59.7471 53.476 59.7881C53.4956 59.8292 53.5281 59.8627 53.5685 59.8836C53.625 59.909 53.6923 59.9372 53.7629 59.9617C53.8141 59.9797 53.8701 59.979 53.9209 59.9598C53.9716 59.9406 54.014 59.9041 54.0406 59.8567L54.5517 58.9329L53.7059 58.874Z" fill="url(#paint40_linear_32_9971)"/>
<path d="M45.6741 64.2688C46.3984 64.281 47.0973 64.2396 47.5642 64.2014C47.1298 63.9111 46.1301 63.2813 45.3023 63.0427L44.9121 63.0309C44.8579 63.029 44.8045 63.0441 44.7594 63.0743C44.7144 63.1045 44.68 63.1481 44.6612 63.199C44.5739 63.4534 44.5221 63.7187 44.5073 63.9873C44.6033 64.1031 44.8815 64.2556 45.6741 64.2688Z" fill="url(#paint41_linear_32_9971)"/>
<path d="M47.5685 64.2057L47.5624 64.2014C47.0955 64.2395 46.3966 64.281 45.6723 64.2687C44.8797 64.2555 44.6025 64.1012 44.5055 63.9863C44.5055 64.0174 44.5008 64.0475 44.4994 64.0805C44.4976 64.1151 44.5026 64.1498 44.5142 64.1826C44.5258 64.2153 44.5437 64.2455 44.567 64.2713C44.5902 64.297 44.6183 64.318 44.6497 64.3329C44.6811 64.3478 44.7151 64.3564 44.7498 64.3581C45.3433 64.3854 46.8145 64.4438 47.5215 64.3859C47.5418 64.3842 47.5611 64.3762 47.5767 64.363C47.5923 64.3498 47.6035 64.3322 47.6087 64.3124C47.6138 64.2926 47.6127 64.2718 47.6055 64.2527C47.5984 64.2335 47.5854 64.2171 47.5685 64.2057Z" fill="url(#paint42_linear_32_9971)"/>
<path d="M45.0576 62.2039C45.1367 62.211 44.8693 62.6614 44.8223 63.077C44.811 63.1711 44.8981 63.2502 44.9927 63.2624C45.0538 63.2704 45.1268 63.278 45.2012 63.2803C45.2555 63.2829 45.309 63.2661 45.352 63.2329C45.3951 63.1997 45.4251 63.1523 45.4365 63.0991L45.9373 62.1931L45.0576 62.2039Z" fill="url(#paint43_linear_32_9971)"/>
<path d="M44.839 62.4802C45.2744 61.2899 48.3218 53.0634 49.9541 51.3591L51.8767 51.8646L52.1417 51.6043C52.1417 51.6043 56.7658 53.5392 57.253 54.1256C57.653 54.6066 54.4977 59.541 54.4977 59.541C54.3139 59.5756 54.1243 59.5621 53.9473 59.5016C53.7703 59.4411 53.6119 59.3358 53.4877 59.196L54.7077 55.6402C54.7195 55.6056 54.7243 55.5689 54.722 55.5324C54.7196 55.4959 54.71 55.4602 54.6938 55.4274C54.6775 55.3946 54.655 55.3653 54.6274 55.3413C54.5998 55.3172 54.5678 55.2988 54.533 55.2872L50.9923 54.1059C50.9255 54.0835 50.853 54.0845 50.7868 54.1086C50.7206 54.1327 50.6644 54.1785 50.6276 54.2386C49.6778 55.7837 46.4072 61.153 45.7544 62.8515C45.7457 62.8749 45.7292 62.8945 45.7076 62.907C45.6861 62.9195 45.6609 62.9242 45.6363 62.9203C45.4862 62.8953 45.1741 62.8332 44.9336 62.7132C44.8919 62.6928 44.8592 62.6578 44.8417 62.6148C44.8243 62.5718 44.8233 62.5239 44.839 62.4802Z" fill="url(#paint44_linear_32_9971)"/>
<path d="M50.8695 53.9642C50.8635 53.9637 50.8577 53.962 50.8524 53.9592C50.8472 53.9563 50.8425 53.9525 50.8389 53.9477C50.8311 53.9381 50.8274 53.9258 50.8286 53.9134C50.8298 53.9011 50.8359 53.8897 50.8454 53.8818L51.3726 53.4507C51.3823 53.443 51.3946 53.4394 51.407 53.4407C51.4193 53.442 51.4306 53.4482 51.4385 53.4578C51.4461 53.4674 51.4497 53.4796 51.4485 53.4918C51.4473 53.5041 51.4413 53.5153 51.4319 53.5232L50.9043 53.9543C50.8994 53.9582 50.8938 53.9611 50.8879 53.9628C50.8819 53.9644 50.8756 53.9649 50.8695 53.9642Z" fill="url(#paint45_linear_32_9971)"/>
<path d="M55.8823 44.4919C55.4032 43.9328 54.9349 43.7064 54.0821 43.5925C53.7764 43.5531 53.4663 43.616 53.2001 43.7711C52.9338 43.9263 52.7263 44.1652 52.6099 44.4505L49.7427 51.4072C50.4016 51.9937 51.3956 52.197 52.6372 52.1132L56.2848 47.5672C56.5273 47.1782 56.6762 46.7381 56.7196 46.2818C56.7935 45.5264 56.4443 45.1475 55.8823 44.4919Z" fill="url(#paint46_linear_32_9971)"/>
<path d="M54.5123 41.9177C54.5123 41.9177 54.0501 43.2111 53.7668 43.7872C53.7291 43.8634 53.7861 43.9552 53.8661 43.9848C54.1574 44.0931 54.8474 44.3317 55.2018 44.3044C55.2366 44.3017 55.2697 44.2879 55.2961 44.2651C55.3226 44.2422 55.341 44.2114 55.3486 44.1773L55.7463 42.3888L54.5123 41.9177Z" fill="url(#paint47_linear_32_9971)"/>
<path d="M56.1129 40.6221C56.1129 40.6221 56.4287 41.6462 56.3995 42.162C56.3703 42.6779 56.4442 43.0233 55.8399 43.0601C55.2356 43.0968 54.7692 42.7457 54.556 42.2049C54.556 42.2049 54.2199 41.3704 54.3512 41.0588C54.4826 40.7473 56.1129 40.6221 56.1129 40.6221Z" fill="url(#paint48_linear_32_9971)"/>
<path d="M54.7994 41.8605L54.8747 41.869C54.8747 41.869 54.6365 41.2011 54.9218 41.1202C55.207 41.0392 56.3045 40.9404 56.5794 40.585C56.8439 40.2424 56.698 39.7454 56.4147 39.5788C56.4057 39.574 56.3954 39.5727 56.3856 39.5752C56.3757 39.5776 56.3672 39.5836 56.3615 39.592L56.3318 39.6362C56.3273 39.6429 56.3209 39.6481 56.3134 39.6511C56.3058 39.6541 56.2976 39.6548 56.2897 39.6531C56.2818 39.6513 56.2746 39.6473 56.269 39.6414C56.2635 39.6356 56.2598 39.6282 56.2584 39.6202C56.2572 39.6126 56.2537 39.6054 56.2485 39.5997C56.2433 39.5939 56.2366 39.5898 56.2291 39.5877C56.2216 39.5857 56.2137 39.5859 56.2063 39.5882C56.1989 39.5905 56.1923 39.5949 56.1873 39.6009C56.1036 39.7073 55.8908 39.8711 55.3646 39.9083C54.6182 39.9614 54.1014 40.2034 54.0327 40.7084C54.0317 40.7155 54.0289 40.7223 54.0244 40.728C54.02 40.7337 54.0141 40.7381 54.0074 40.7407C54.0007 40.7433 53.9933 40.7441 53.9862 40.743C53.9791 40.7419 53.9724 40.7388 53.9668 40.7342C53.9164 40.6957 53.8317 40.6702 53.7056 40.7545C53.4858 40.9009 53.5173 41.348 53.9188 41.7579C53.9233 41.7623 53.9267 41.7677 53.9288 41.7736C53.9308 41.7796 53.9315 41.786 53.9306 41.7922C53.9297 41.7984 53.9274 41.8044 53.9238 41.8095C53.9202 41.8147 53.9154 41.819 53.9099 41.8219C53.8242 41.8652 53.6915 41.9754 53.9809 42.1744C54.2704 42.3735 54.4662 42.3811 54.5386 42.3712C54.5481 42.3698 54.5567 42.3652 54.5632 42.3582C54.5696 42.3511 54.5734 42.3421 54.5739 42.3326L54.5961 41.8817C54.5963 41.876 54.5978 41.8704 54.6004 41.8653C54.6029 41.8602 54.6066 41.8557 54.611 41.8521C54.6155 41.8485 54.6206 41.8458 54.6262 41.8444C54.6317 41.8429 54.6375 41.8426 54.6431 41.8436L54.7994 41.8605Z" fill="url(#paint49_linear_32_9971)"/>
<path d="M54.8073 41.9559C54.8073 41.9559 54.7132 41.3139 54.4158 41.4575C54.1183 41.601 54.4826 42.1728 54.7047 42.2213L54.8073 41.9559Z" fill="url(#paint50_linear_32_9971)"/>
<path d="M62.4025 41.6359C62.3117 41.6133 61.5012 43.6489 61.5012 43.6489L61.6895 44.2109C61.6895 44.2109 62.2674 44.2179 62.3013 43.7402C62.3404 43.2329 62.7772 41.7296 62.4025 41.6359Z" fill="url(#paint51_linear_32_9971)"/>
<path d="M61.5034 43.6487C59.9404 45.0169 57.3316 45.0663 55.6706 44.9006C55.5892 45.2433 55.4715 45.8692 55.5111 46.5008C59.7422 46.7771 61.6889 44.2088 61.6889 44.2088C61.6884 43.7325 61.5034 43.6487 61.5034 43.6487Z" fill="url(#paint52_linear_32_9971)"/>
<path d="M55.6705 44.9004C55.0756 44.8407 54.5993 44.7592 54.3414 44.6896C52.2296 44.1168 52.2296 46.0836 53.353 46.5519C53.7766 46.7294 55.1326 46.6461 55.5105 46.5049C55.4714 45.8695 55.5891 45.2435 55.6705 44.9004Z" fill="url(#paint53_linear_32_9971)"/>
<path d="M62.0781 38.3248L61.8428 38.2594C61.8364 38.2576 61.8303 38.2546 61.825 38.2504C61.8198 38.2463 61.8153 38.2412 61.812 38.2353C61.8087 38.2295 61.8066 38.2231 61.8058 38.2164C61.805 38.2098 61.8055 38.203 61.8073 38.1966C61.8091 38.1901 61.8121 38.1841 61.8162 38.1788C61.8204 38.1735 61.8255 38.1691 61.8313 38.1658C61.8372 38.1625 61.8436 38.1604 61.8502 38.1596C61.8569 38.1587 61.8637 38.1592 61.8701 38.161L62.0998 38.2302C62.1059 38.2319 62.1117 38.2349 62.1166 38.2389C62.1216 38.2429 62.1257 38.2478 62.1287 38.2535C62.1317 38.2591 62.1335 38.2653 62.1341 38.2717C62.1346 38.278 62.1338 38.2844 62.1318 38.2905C62.1288 38.3019 62.1216 38.3117 62.1117 38.3181C62.1017 38.3245 62.0898 38.3269 62.0781 38.3248Z" fill="#BDD0FB"/>
<path d="M61.3809 38.0943L60.9371 37.8844C60.9233 37.8767 60.913 37.864 60.9082 37.8489C60.9034 37.8339 60.9045 37.8176 60.9112 37.8033C60.918 37.789 60.9299 37.7777 60.9445 37.7719C60.9592 37.766 60.9755 37.7658 60.9903 37.7715L60.9959 37.7738L61.4247 37.9889L61.4299 37.9913C61.4424 37.9984 61.4518 38.0101 61.4561 38.024C61.4603 38.0378 61.4592 38.0527 61.4528 38.0657C61.4465 38.0787 61.4354 38.0888 61.4219 38.094C61.4083 38.0991 61.3934 38.0989 61.38 38.0934L61.3809 38.0943Z" fill="#BDD0FB"/>
<path d="M60.5151 37.6333L60.1174 37.3443C60.102 37.3332 60.0917 37.3163 60.0888 37.2976C60.0858 37.2788 60.0904 37.2597 60.1016 37.2443C60.1128 37.229 60.1296 37.2187 60.1483 37.2157C60.1671 37.2128 60.1863 37.2174 60.2016 37.2285L60.2068 37.2323L60.5894 37.5208L60.5941 37.5241C60.6085 37.5347 60.6182 37.5506 60.6209 37.5683C60.6235 37.586 60.6191 37.6041 60.6085 37.6185C60.5979 37.6329 60.582 37.6425 60.5643 37.6452C60.5466 37.6479 60.5285 37.6434 60.5141 37.6328L60.5151 37.6333Z" fill="#BDD0FB"/>
<path d="M59.7458 37.0227L59.4022 36.6711C59.3873 36.6559 59.3791 36.6354 59.3794 36.6141C59.3797 36.5929 59.3884 36.5726 59.4036 36.5577C59.4188 36.5428 59.4393 36.5347 59.4606 36.5349C59.4819 36.5352 59.5022 36.5439 59.517 36.5591L59.5217 36.5643L59.8512 36.9126L59.8554 36.9168C59.8678 36.9316 59.8741 36.9506 59.873 36.9699C59.872 36.9891 59.8637 37.0073 59.8497 37.0207C59.8358 37.034 59.8174 37.0416 59.7981 37.0419C59.7788 37.0422 59.7601 37.0352 59.7458 37.0222V37.0227Z" fill="#BDD0FB"/>
<path d="M59.0873 36.2934L58.8016 35.8928C58.789 35.8737 58.7844 35.8505 58.7886 35.828C58.7929 35.8055 58.8056 35.7855 58.8243 35.7723C58.8429 35.759 58.8659 35.7535 58.8885 35.7568C58.9112 35.7602 58.9316 35.7721 58.9456 35.7902L58.9498 35.7959L59.2214 36.1903L59.2247 36.1955C59.2376 36.2137 59.2426 36.2364 59.2388 36.2584C59.2349 36.2804 59.2225 36.3 59.2042 36.3129C59.1859 36.3257 59.1633 36.3308 59.1413 36.327C59.1192 36.3231 59.0996 36.3107 59.0868 36.2924L59.0873 36.2934Z" fill="#BDD0FB"/>
<path d="M58.5456 35.4727L58.3201 35.0354C58.3083 35.0125 58.3061 34.9859 58.314 34.9613C58.3218 34.9368 58.3391 34.9164 58.362 34.9046C58.3849 34.8928 58.4116 34.8906 58.4361 34.8984C58.4606 34.9063 58.481 34.9236 58.4928 34.9465L58.4957 34.9526L58.7079 35.3823L58.7107 35.3879C58.7171 35.4091 58.7158 35.4319 58.7071 35.4523C58.6983 35.4726 58.6827 35.4892 58.6629 35.4992C58.6431 35.5091 58.6205 35.5118 58.5989 35.5067C58.5774 35.5016 58.5583 35.489 58.5451 35.4712L58.5456 35.4727Z" fill="#BDD0FB"/>
<path d="M58.1258 34.5828L57.9629 34.1178C57.9537 34.0914 57.9553 34.0624 57.9675 34.0372C57.9796 34.012 58.0013 33.9927 58.0277 33.9835C58.0541 33.9742 58.0831 33.9758 58.1083 33.988C58.1335 34.0001 58.1528 34.0218 58.162 34.0482L58.1644 34.0557L58.3145 34.5099L58.3169 34.5165C58.3245 34.5416 58.322 34.5687 58.31 34.592C58.298 34.6154 58.2774 34.6331 58.2525 34.6416C58.2276 34.65 58.2005 34.6484 58.1768 34.6372C58.153 34.626 58.1346 34.606 58.1253 34.5814L58.1258 34.5828Z" fill="#BDD0FB"/>
<path d="M57.834 33.6419L57.7399 33.1581C57.7342 33.1293 57.7402 33.0994 57.7566 33.075C57.773 33.0506 57.7984 33.0336 57.8272 33.028C57.856 33.0223 57.8859 33.0283 57.9103 33.0447C57.9347 33.061 57.9516 33.0864 57.9573 33.1153V33.1228L58.0439 33.5935V33.601C58.0493 33.6292 58.0432 33.6584 58.0271 33.6821C58.0109 33.7059 57.986 33.7222 57.9578 33.7276C57.9296 33.733 57.9004 33.7269 57.8767 33.7108C57.8529 33.6946 57.8366 33.6697 57.8312 33.6415L57.834 33.6419Z" fill="#BDD0FB"/>
<path d="M57.6792 32.668L57.6557 32.1743C57.6542 32.1436 57.6649 32.1135 57.6856 32.0908C57.7062 32.068 57.7351 32.0544 57.7658 32.0529C57.7965 32.0514 57.8265 32.0621 57.8493 32.0828C57.8721 32.1034 57.8857 32.1323 57.8872 32.163V32.1734L57.9051 32.6497V32.6581C57.9064 32.6882 57.8957 32.7176 57.8754 32.7398C57.855 32.762 57.8267 32.7752 57.7966 32.7765C57.7665 32.7778 57.7372 32.7671 57.715 32.7468C57.6928 32.7264 57.6796 32.6981 57.6783 32.668H57.6792Z" fill="#BDD0FB"/>
<path d="M57.668 31.6816L57.715 31.1907C57.7197 31.1601 57.7358 31.1324 57.7601 31.1133C57.7844 31.0942 57.8151 31.0851 57.8459 31.0879C57.8768 31.0907 57.9054 31.1051 57.9259 31.1282C57.9464 31.1513 57.9574 31.1814 57.9565 31.2124V31.2213L57.9094 31.6967V31.7042C57.9041 31.7335 57.8881 31.7597 57.8643 31.7777C57.8406 31.7957 57.811 31.8041 57.7814 31.8013C57.7517 31.7984 57.7242 31.7845 57.7044 31.7624C57.6845 31.7402 57.6737 31.7114 57.6741 31.6816H57.668Z" fill="#BDD0FB"/>
<path d="M57.7878 30.7035L57.8923 30.2216C57.9009 30.1903 57.9211 30.1636 57.9488 30.1468C57.9765 30.13 58.0096 30.1244 58.0413 30.1313C58.073 30.1382 58.1008 30.1569 58.1191 30.1837C58.1373 30.2105 58.1446 30.2433 58.1394 30.2753V30.2828L58.0331 30.7483V30.7558C58.0248 30.7866 58.005 30.8131 57.9777 30.8296C57.9504 30.8462 57.9178 30.8515 57.8866 30.8446C57.8555 30.8377 57.8282 30.819 57.8105 30.7925C57.7928 30.7659 57.786 30.7336 57.7916 30.7021L57.7878 30.7035Z" fill="#BDD0FB"/>
<path d="M58.025 29.7453L58.1841 29.2793C58.1959 29.2472 58.2199 29.2209 58.2508 29.2061C58.2818 29.1914 58.3173 29.1893 58.3497 29.2004C58.3821 29.2114 58.409 29.2348 58.4245 29.2653C58.44 29.2959 58.4429 29.3313 58.4326 29.364V29.3706L58.2735 29.8215L58.2712 29.8286C58.2588 29.8594 58.2351 29.8843 58.2049 29.898C58.1747 29.9118 58.1404 29.9134 58.109 29.9025C58.0777 29.8916 58.0517 29.869 58.0366 29.8395C58.0215 29.8099 58.0184 29.7757 58.0278 29.7439L58.025 29.7453Z" fill="#BDD0FB"/>
<path d="M58.3678 28.8241L58.5749 28.3774C58.5821 28.3607 58.5927 28.3457 58.6058 28.3331C58.619 28.3206 58.6345 28.3108 58.6516 28.3043C58.6686 28.2978 58.6867 28.2948 58.7049 28.2955C58.7231 28.2961 58.7409 28.3004 58.7574 28.3081C58.774 28.3157 58.7888 28.3266 58.801 28.3401C58.8132 28.3535 58.8227 28.3693 58.8287 28.3865C58.8348 28.4036 58.8373 28.4218 58.8363 28.44C58.8352 28.4582 58.8305 28.4759 58.8224 28.4922L58.8196 28.4984L58.6135 28.9304L58.6106 28.9365C58.5943 28.9666 58.5671 28.9893 58.5346 29C58.5021 29.0106 58.4667 29.0084 58.4357 28.9939C58.4048 28.9793 58.3805 28.9535 58.368 28.9217C58.3554 28.8898 58.3555 28.8544 58.3682 28.8226L58.3678 28.8241Z" fill="#BDD0FB"/>
<path d="M58.8038 27.9422L59.0523 27.5186C59.0713 27.4861 59.1025 27.4626 59.1389 27.4531C59.1753 27.4436 59.214 27.4489 59.2464 27.468C59.2789 27.487 59.3024 27.5182 59.3119 27.5546C59.3214 27.591 59.3161 27.6297 59.297 27.6621L59.2937 27.6678L59.0471 28.0782L59.0438 28.0838C59.0221 28.1087 58.9925 28.1252 58.9599 28.1305C58.9273 28.1357 58.8939 28.1294 58.8655 28.1127C58.8371 28.0959 58.8155 28.0697 58.8044 28.0387C58.7933 28.0076 58.7934 27.9736 58.8047 27.9426L58.8038 27.9422Z" fill="#BDD0FB"/>
<path d="M59.3197 27.1053L59.6059 26.7048C59.6285 26.6732 59.6627 26.6519 59.701 26.6455C59.7393 26.6392 59.7786 26.6483 59.8102 26.6709C59.8417 26.6935 59.8631 26.7277 59.8694 26.766C59.8758 26.8043 59.8666 26.8436 59.844 26.8752L59.8403 26.8799L59.5579 27.2672L59.5541 27.2724C59.5318 27.3036 59.498 27.3246 59.4601 27.3309C59.4222 27.3372 59.3834 27.3281 59.3522 27.3058C59.321 27.2835 59.3 27.2496 59.2937 27.2118C59.2874 27.1739 59.2965 27.1351 59.3188 27.1039L59.3197 27.1053Z" fill="#BDD0FB"/>
<path d="M59.9092 26.3185L60.2283 25.942C60.2541 25.913 60.2902 25.8953 60.3289 25.8927C60.3675 25.89 60.4057 25.9027 60.4352 25.9278C60.4647 25.953 60.4832 25.9888 60.4866 26.0274C60.4901 26.066 60.4783 26.1044 60.4537 26.1345L60.4499 26.1392L60.1374 26.5025L60.1337 26.5072C60.1211 26.5219 60.1057 26.534 60.0885 26.5428C60.0712 26.5516 60.0524 26.5569 60.0331 26.5584C60.0138 26.5599 59.9944 26.5576 59.976 26.5516C59.9576 26.5456 59.9406 26.536 59.9259 26.5234C59.9112 26.5109 59.8991 26.4955 59.8903 26.4783C59.8815 26.461 59.8762 26.4422 59.8747 26.4229C59.8732 26.4036 59.8755 26.3842 59.8815 26.3658C59.8875 26.3474 59.8971 26.3304 59.9096 26.3157L59.9092 26.3185Z" fill="#BDD0FB"/>
<path d="M60.5621 25.5835L60.9094 25.2362C60.9231 25.221 60.9397 25.2088 60.9582 25.2003C60.9767 25.1918 60.9968 25.1871 61.0172 25.1866C61.0375 25.1861 61.0578 25.1897 61.0767 25.1973C61.0957 25.2048 61.1129 25.2162 61.1273 25.2306C61.1417 25.245 61.153 25.2623 61.1605 25.2812C61.168 25.3001 61.1716 25.3204 61.171 25.3408C61.1705 25.3612 61.1658 25.3812 61.1572 25.3997C61.1486 25.4182 61.1364 25.4348 61.1212 25.4484L61.1175 25.4526L60.7772 25.7906L60.773 25.7948C60.7446 25.821 60.7072 25.8352 60.6686 25.8344C60.63 25.8336 60.5932 25.8179 60.5659 25.7905C60.5387 25.7632 60.5231 25.7263 60.5225 25.6877C60.5219 25.6491 60.5362 25.6117 60.5626 25.5835H60.5621Z" fill="#BDD0FB"/>
<path d="M61.2698 24.9027C61.3922 24.7935 61.5178 24.6881 61.643 24.5827C61.6581 24.5691 61.6758 24.5586 61.695 24.552C61.7142 24.5454 61.7345 24.5427 61.7548 24.5441C61.7751 24.5454 61.7949 24.5509 61.813 24.5601C61.8311 24.5693 61.8472 24.582 61.8603 24.5975C61.8734 24.6131 61.8833 24.6311 61.8893 24.6505C61.8953 24.6699 61.8973 24.6903 61.8953 24.7105C61.8932 24.7308 61.8871 24.7504 61.8773 24.7682C61.8675 24.786 61.8543 24.8017 61.8383 24.8142C61.716 24.9173 61.5927 25.0194 61.4726 25.1258C61.4427 25.1523 61.4035 25.1659 61.3636 25.1635C61.3237 25.1611 61.2864 25.143 61.2599 25.1131C61.2334 25.0832 61.2198 25.044 61.2222 25.0041C61.2246 24.9642 61.2427 24.9269 61.2726 24.9004L61.2698 24.9027Z" fill="#BDD0FB"/>
<path d="M62.0277 24.2767L62.4226 23.9854C62.4387 23.9724 62.4573 23.9628 62.4772 23.9572C62.4971 23.9516 62.518 23.95 62.5385 23.9527C62.559 23.9553 62.5788 23.9621 62.5966 23.9726C62.6145 23.9831 62.63 23.9971 62.6423 24.0137C62.6546 24.0303 62.6634 24.0493 62.6682 24.0694C62.673 24.0896 62.6736 24.1105 62.6701 24.1309C62.6666 24.1513 62.659 24.1707 62.6478 24.1881C62.6365 24.2055 62.6219 24.2204 62.6047 24.232L62.6005 24.2353L62.2132 24.5177L62.2089 24.521C62.1764 24.545 62.1356 24.555 62.0956 24.5489C62.0556 24.5428 62.0197 24.5211 61.9957 24.4885C61.9718 24.4559 61.9617 24.4152 61.9678 24.3752C61.9739 24.3352 61.9956 24.2993 62.0282 24.2753L62.0277 24.2767Z" fill="#BDD0FB"/>
<path d="M62.8276 23.7087L63.2418 23.4461C63.2765 23.4261 63.3176 23.4202 63.3565 23.4298C63.3954 23.4394 63.4292 23.4636 63.4506 23.4975C63.4721 23.5313 63.4796 23.5722 63.4716 23.6114C63.4637 23.6507 63.4408 23.6854 63.4079 23.7083L63.4032 23.7111L62.997 23.9662L62.9923 23.969C62.9752 23.9798 62.9561 23.9871 62.9362 23.9905C62.9162 23.9939 62.8958 23.9934 62.8761 23.9889C62.8563 23.9844 62.8377 23.9761 62.8212 23.9644C62.8047 23.9527 62.7906 23.9379 62.7798 23.9208C62.769 23.9036 62.7617 23.8846 62.7583 23.8646C62.7549 23.8447 62.7554 23.8242 62.7599 23.8045C62.7644 23.7848 62.7727 23.7661 62.7844 23.7496C62.7961 23.7331 62.8109 23.719 62.8281 23.7083L62.8276 23.7087Z" fill="#BDD0FB"/>
<path d="M63.6648 23.1986L64.0964 22.9661C64.1328 22.9477 64.1751 22.9442 64.214 22.9564C64.253 22.9686 64.2857 22.9956 64.3051 23.0316C64.3245 23.0675 64.329 23.1096 64.3178 23.1489C64.3066 23.1882 64.2805 23.2216 64.2451 23.2419H64.2404L63.8168 23.4678L63.8121 23.4706C63.7757 23.4902 63.7329 23.4944 63.6933 23.4825C63.6538 23.4705 63.6205 23.4433 63.601 23.4069C63.5815 23.3704 63.5772 23.3277 63.5892 23.2881C63.6011 23.2485 63.6283 23.2153 63.6648 23.1958V23.1986Z" fill="#BDD0FB"/>
<path d="M64.5361 22.7481L64.9828 22.5443C65.0207 22.5288 65.0632 22.5285 65.1014 22.5436C65.1395 22.5587 65.1703 22.588 65.1873 22.6254C65.2043 22.6627 65.2061 22.7052 65.1925 22.7438C65.1788 22.7825 65.1507 22.8144 65.1141 22.8328H65.1094L64.6717 23.03H64.667C64.6292 23.0454 64.5869 23.0456 64.549 23.0305C64.5111 23.0154 64.4805 22.9862 64.4637 22.949C64.4469 22.9119 64.4452 22.8696 64.4588 22.8312C64.4725 22.7928 64.5006 22.7611 64.5371 22.7429L64.5361 22.7481Z" fill="#BDD0FB"/>
<path d="M65.436 22.356L65.8954 22.1838C65.9151 22.1764 65.936 22.173 65.957 22.1737C65.9781 22.1744 65.9987 22.1792 66.0179 22.1879C66.037 22.1966 66.0543 22.209 66.0686 22.2244C66.083 22.2397 66.0942 22.2578 66.1015 22.2774C66.1089 22.2971 66.1124 22.3181 66.1117 22.3391C66.1109 22.3601 66.1061 22.3808 66.0974 22.3999C66.0887 22.4191 66.0763 22.4363 66.061 22.4507C66.0456 22.465 66.0276 22.4762 66.0079 22.4836H66.0032L65.5532 22.6507H65.5481C65.5085 22.6655 65.4647 22.6639 65.4262 22.6464C65.3878 22.6289 65.3579 22.5968 65.3431 22.5573C65.3283 22.5177 65.3298 22.4739 65.3474 22.4354C65.3649 22.397 65.3969 22.3671 65.4365 22.3523L65.436 22.356Z" fill="#BDD0FB"/>
<path d="M66.3604 22.0265L66.8311 21.8853C66.8516 21.8785 66.8733 21.8758 66.8949 21.8774C66.9165 21.8791 66.9375 21.885 66.9568 21.895C66.976 21.9049 66.993 21.9186 67.0069 21.9352C67.0208 21.9518 67.0312 21.9711 67.0374 21.9918C67.0437 22.0125 67.0458 22.0342 67.0436 22.0558C67.0413 22.0773 67.0347 22.0982 67.0243 22.1171C67.0138 22.1361 66.9997 22.1527 66.9826 22.1661C66.9656 22.1795 66.9461 22.1893 66.9252 22.195H66.92L66.4597 22.332H66.455C66.4141 22.3445 66.3699 22.3402 66.3321 22.3201C66.2943 22.2999 66.2661 22.2656 66.2536 22.2247C66.2411 22.1837 66.2454 22.1395 66.2655 22.1017C66.2857 22.064 66.32 22.0357 66.3609 22.0232L66.3604 22.0265Z" fill="#BDD0FB"/>
<path d="M67.305 21.7593L67.7837 21.6487C67.8048 21.6433 67.8268 21.6421 67.8483 21.6453C67.8699 21.6485 67.8906 21.656 67.9093 21.6673C67.9279 21.6786 67.9441 21.6935 67.9569 21.7112C67.9696 21.7289 67.9787 21.7489 67.9836 21.7701C67.9885 21.7914 67.9891 21.8134 67.9854 21.8349C67.9817 21.8564 67.9737 21.8769 67.9619 21.8952C67.9501 21.9136 67.9347 21.9293 67.9167 21.9417C67.8987 21.954 67.8785 21.9626 67.8571 21.9669H67.8519L67.3831 22.0737H67.378C67.3365 22.0818 67.2936 22.0734 67.2582 22.0504C67.2228 22.0274 67.1977 21.9915 67.1882 21.9504C67.1788 21.9092 67.1856 21.866 67.2074 21.8298C67.2292 21.7937 67.2642 21.7674 67.305 21.7565V21.7593Z" fill="#BDD0FB"/>
<path d="M68.2647 21.5529L68.7494 21.4748C68.7709 21.4709 68.7929 21.4714 68.8142 21.4761C68.8355 21.4808 68.8557 21.4898 68.8735 21.5024C68.8913 21.515 68.9064 21.5311 68.9179 21.5496C68.9295 21.5681 68.9372 21.5888 68.9407 21.6103C68.9441 21.6318 68.9433 21.6539 68.9381 21.6751C68.933 21.6963 68.9237 21.7163 68.9108 21.7338C68.8978 21.7514 68.8815 21.7662 68.8628 21.7774C68.844 21.7886 68.8233 21.796 68.8017 21.799H68.7951L68.3244 21.8767H68.3192C68.2773 21.8813 68.2352 21.8696 68.2016 21.844C68.1681 21.8184 68.1456 21.781 68.1388 21.7393C68.1321 21.6977 68.1416 21.655 68.1653 21.6202C68.1891 21.5853 68.2253 21.5609 68.2665 21.5519L68.2647 21.5529Z" fill="#BDD0FB"/>
<path d="M69.2359 21.4147L69.7244 21.3677C69.7676 21.3636 69.8106 21.3767 69.844 21.4043C69.8774 21.4319 69.8985 21.4716 69.9026 21.5148C69.9067 21.5579 69.8935 21.6009 69.8659 21.6343C69.8383 21.6677 69.7986 21.6888 69.7555 21.6929H69.7503L69.2726 21.74H69.2655C69.2223 21.7442 69.1792 21.731 69.1456 21.7034C69.1121 21.6757 69.0909 21.6359 69.0867 21.5927C69.0825 21.5494 69.0957 21.5063 69.1233 21.4727C69.1509 21.4392 69.1908 21.418 69.234 21.4138L69.2359 21.4147Z" fill="#BDD0FB"/>
<path d="M70.215 21.3362L70.7059 21.3216C70.749 21.3204 70.7908 21.3363 70.8221 21.3658C70.8534 21.3954 70.8717 21.4362 70.873 21.4793C70.8742 21.5223 70.8583 21.5641 70.8287 21.5955C70.7992 21.6268 70.7584 21.6451 70.7153 21.6464H70.7101L70.2301 21.6609H70.2249C70.203 21.6626 70.1809 21.6598 70.1601 21.6527C70.1393 21.6456 70.1202 21.6344 70.1038 21.6197C70.0875 21.605 70.0743 21.5872 70.065 21.5672C70.0557 21.5473 70.0506 21.5257 70.0499 21.5037C70.0492 21.4818 70.0529 21.4599 70.0609 21.4394C70.0689 21.4189 70.081 21.4003 70.0963 21.3846C70.1117 21.3689 70.1301 21.3565 70.1504 21.3481C70.1707 21.3397 70.1926 21.3355 70.2145 21.3357L70.215 21.3362Z" fill="#BDD0FB"/>
<path d="M71.1955 21.3237L71.6864 21.3421C71.728 21.3453 71.7668 21.3645 71.7946 21.3956C71.8224 21.4268 71.837 21.4675 71.8354 21.5092C71.8338 21.5509 71.8162 21.5904 71.7861 21.6193C71.756 21.6483 71.7159 21.6645 71.6742 21.6645H71.669L71.1894 21.6471H71.1838C71.1421 21.6439 71.1032 21.6247 71.0753 21.5935C71.0475 21.5623 71.0328 21.5215 71.0343 21.4797C71.0358 21.438 71.0534 21.3984 71.0835 21.3693C71.1136 21.3402 71.1537 21.3239 71.1955 21.3237Z" fill="#BDD0FB"/>
<path d="M72.1773 21.3774L72.6653 21.4287C72.6863 21.4309 72.7065 21.4372 72.725 21.4473C72.7435 21.4573 72.7599 21.4709 72.7731 21.4872C72.7863 21.5036 72.7962 21.5224 72.8022 21.5425C72.8082 21.5627 72.8101 21.5838 72.8079 21.6048C72.8058 21.6257 72.7995 21.646 72.7894 21.6645C72.7794 21.683 72.7658 21.6993 72.7495 21.7125C72.7331 21.7258 72.7143 21.7357 72.6942 21.7416C72.674 21.7476 72.6528 21.7496 72.6319 21.7474H72.6267L72.1495 21.7003H72.1439C72.1025 21.6946 72.065 21.6731 72.0392 21.6403C72.0135 21.6074 72.0015 21.5659 72.0057 21.5244C72.01 21.4829 72.0302 21.4446 72.0621 21.4178C72.0941 21.3909 72.1352 21.3774 72.1768 21.3803L72.1773 21.3774Z" fill="#BDD0FB"/>
<path d="M73.1515 21.4971L73.6344 21.5822C73.6759 21.5895 73.7129 21.6131 73.7371 21.6476C73.7614 21.6822 73.7709 21.7249 73.7636 21.7665C73.7563 21.8081 73.7328 21.845 73.6982 21.8693C73.6636 21.8935 73.6209 21.903 73.5793 21.8957H73.5741L73.1035 21.8138H73.0983C73.0566 21.8066 73.0194 21.783 72.995 21.7484C72.9706 21.7137 72.9609 21.6708 72.9682 21.6291C72.9754 21.5873 72.9989 21.5501 73.0336 21.5257C73.0682 21.5013 73.1111 21.4917 73.1529 21.4989L73.1515 21.4971Z" fill="#BDD0FB"/>
<path d="M74.1134 21.6839L74.5897 21.8025C74.6108 21.8066 74.6309 21.815 74.6488 21.8271C74.6666 21.8392 74.6817 21.8548 74.6933 21.873C74.7049 21.8912 74.7126 21.9115 74.7161 21.9328C74.7196 21.954 74.7187 21.9758 74.7134 21.9967C74.7082 22.0176 74.6988 22.0372 74.6858 22.0543C74.6727 22.0715 74.6563 22.0858 74.6376 22.0964C74.6188 22.107 74.5981 22.1136 74.5767 22.1159C74.5552 22.1183 74.5336 22.1162 74.513 22.1099H74.5078L74.0423 21.9946H74.0367C73.9958 21.9845 73.9606 21.9585 73.9389 21.9225C73.9171 21.8864 73.9105 21.8432 73.9207 21.8023C73.9308 21.7614 73.9567 21.7262 73.9928 21.7045C74.0288 21.6827 74.072 21.6762 74.1129 21.6863L74.1134 21.6839Z" fill="#BDD0FB"/>
<path d="M75.0622 21.9386L75.5286 22.0915C75.5683 22.1045 75.6011 22.1327 75.62 22.1699C75.6388 22.2071 75.6421 22.2503 75.6291 22.2899C75.6161 22.3295 75.5879 22.3624 75.5507 22.3812C75.5135 22.4001 75.4704 22.4034 75.4307 22.3904H75.4256L74.9695 22.2421H74.9643C74.9255 22.2285 74.8936 22.2001 74.8754 22.1633C74.8572 22.1264 74.8541 22.0838 74.8669 22.0447C74.8796 22.0056 74.9071 21.973 74.9435 21.9539C74.9799 21.9348 75.0223 21.9306 75.0618 21.9423L75.0622 21.9386Z" fill="#BDD0FB"/>
<path d="M75.9895 22.2621L76.4437 22.4456C76.4772 22.4642 76.5028 22.4944 76.5155 22.5306C76.5282 22.5668 76.5271 22.6063 76.5125 22.6418C76.498 22.6773 76.4708 22.7061 76.4364 22.7229C76.4019 22.7396 76.3624 22.7431 76.3255 22.7327H76.3223L75.8756 22.5534H75.8718C75.8524 22.546 75.8346 22.5348 75.8196 22.5204C75.8045 22.506 75.7925 22.4888 75.7841 22.4698C75.7758 22.4507 75.7713 22.4302 75.771 22.4094C75.7707 22.3886 75.7745 22.3679 75.7823 22.3486C75.79 22.3293 75.8015 22.3117 75.8161 22.2969C75.8308 22.2821 75.8482 22.2703 75.8674 22.2623C75.8866 22.2543 75.9072 22.2502 75.928 22.2502C75.9488 22.2503 75.9694 22.2545 75.9886 22.2625L75.9895 22.2621Z" fill="#BDD0FB"/>
<path d="M76.8904 22.6383L77.3352 22.8369C77.3555 22.844 77.3742 22.8553 77.3899 22.8699C77.4057 22.8846 77.4182 22.9024 77.4267 22.9221C77.4353 22.9419 77.4396 22.9632 77.4394 22.9847C77.4393 23.0063 77.4347 23.0275 77.4258 23.0472C77.417 23.0668 77.4043 23.0844 77.3883 23.0988C77.3723 23.1133 77.3535 23.1242 77.3331 23.131C77.3127 23.1378 77.2911 23.1403 77.2696 23.1383C77.2482 23.1363 77.2274 23.1298 77.2086 23.1193L76.7662 22.9231C76.7451 22.9166 76.7257 22.9057 76.7091 22.8911C76.6926 22.8766 76.6793 22.8586 76.6702 22.8386C76.6611 22.8185 76.6563 22.7967 76.6563 22.7747C76.6562 22.7526 76.6608 22.7308 76.6698 22.7107C76.6788 22.6905 76.692 22.6725 76.7084 22.6579C76.7249 22.6432 76.7443 22.6322 76.7653 22.6256C76.7863 22.619 76.8085 22.6169 76.8304 22.6195C76.8523 22.6221 76.8734 22.6293 76.8923 22.6407L76.8904 22.6383Z" fill="#BDD0FB"/>
<path d="M77.7794 23.0359L78.2208 23.2359C78.2583 23.2528 78.2875 23.2838 78.3021 23.3222C78.3166 23.3606 78.3153 23.4032 78.2985 23.4407C78.2816 23.4781 78.2506 23.5073 78.2122 23.5219C78.1738 23.5365 78.1312 23.5352 78.0938 23.5183L77.6504 23.3183C77.6316 23.3101 77.6146 23.2983 77.6005 23.2835C77.5863 23.2687 77.5752 23.2512 77.5678 23.2321C77.5604 23.213 77.5569 23.1926 77.5574 23.1721C77.558 23.1516 77.5626 23.1315 77.571 23.1128C77.5794 23.0941 77.5915 23.0773 77.6064 23.0633C77.6214 23.0493 77.639 23.0384 77.6582 23.0312C77.6774 23.0241 77.6978 23.0208 77.7183 23.0216C77.7388 23.0224 77.7589 23.0273 77.7775 23.0359H77.7794Z" fill="#BDD0FB"/>
<path d="M78.6628 23.4324L79.1071 23.6207H79.11C79.1459 23.6375 79.174 23.6677 79.1882 23.7047C79.2024 23.7418 79.2017 23.7829 79.1862 23.8195C79.1707 23.8561 79.1417 23.8852 79.1052 23.9008C79.0687 23.9164 79.0275 23.9172 78.9904 23.9031L78.5405 23.7148C78.5202 23.7083 78.5015 23.6975 78.4856 23.6833C78.4696 23.6691 78.4568 23.6518 78.448 23.6324C78.4391 23.613 78.4344 23.5919 78.4341 23.5706C78.4338 23.5493 78.4379 23.5281 78.4463 23.5085C78.4546 23.4888 78.4669 23.4711 78.4824 23.4565C78.4979 23.4418 78.5163 23.4306 78.5364 23.4234C78.5565 23.4163 78.5779 23.4134 78.5992 23.415C78.6204 23.4165 78.6412 23.4225 78.66 23.4324H78.6628Z" fill="#BDD0FB"/>
<path d="M79.5543 23.7984L80.0057 23.9617H80.0113C80.0493 23.9755 80.0802 24.0037 80.0973 24.0403C80.1145 24.0768 80.1164 24.1187 80.1026 24.1566C80.0889 24.1945 80.0607 24.2255 80.0241 24.2426C79.9876 24.2597 79.9457 24.2616 79.9078 24.2479L79.4461 24.0822C79.4262 24.0763 79.4077 24.0663 79.3917 24.053C79.3758 24.0397 79.3627 24.0232 79.3534 24.0047C79.344 23.9861 79.3385 23.9659 79.3372 23.9452C79.3359 23.9244 79.3389 23.9036 79.3459 23.8841C79.3529 23.8645 79.3638 23.8466 79.378 23.8314C79.3922 23.8162 79.4093 23.804 79.4283 23.7957C79.4473 23.7873 79.4678 23.7829 79.4886 23.7827C79.5094 23.7825 79.53 23.7866 79.5491 23.7947L79.5543 23.7984Z" fill="#BDD0FB"/>
<path d="M80.462 24.106L80.9232 24.2269H80.9317C80.9696 24.2379 81.0016 24.2631 81.0211 24.2974C81.0406 24.3316 81.0459 24.3721 81.036 24.4102C81.026 24.4483 81.0016 24.4811 80.9679 24.5014C80.9342 24.5218 80.8938 24.5282 80.8555 24.5192L80.3773 24.395C80.3579 24.3901 80.3396 24.3814 80.3236 24.3694C80.3075 24.3574 80.294 24.3424 80.2838 24.3252C80.2736 24.3079 80.2669 24.2888 80.2642 24.269C80.2614 24.2492 80.2626 24.229 80.2676 24.2096C80.2727 24.1903 80.2816 24.1721 80.2937 24.1562C80.3058 24.1402 80.321 24.1269 80.3383 24.1168C80.3557 24.1068 80.3748 24.1003 80.3947 24.0977C80.4145 24.0951 80.4347 24.0965 80.454 24.1017L80.462 24.106Z" fill="#BDD0FB"/>
<path d="M81.3902 24.3199L81.8609 24.3802H81.8722C81.8917 24.3827 81.9106 24.389 81.9277 24.3988C81.9448 24.4086 81.9599 24.4217 81.9719 24.4373C81.984 24.4529 81.9929 24.4707 81.998 24.4897C82.0032 24.5088 82.0046 24.5286 82.0021 24.5482C81.9996 24.5678 81.9932 24.5866 81.9834 24.6037C81.9736 24.6209 81.9606 24.6359 81.945 24.6479C81.9294 24.66 81.9115 24.6689 81.8925 24.674C81.8735 24.6792 81.8536 24.6806 81.8341 24.6781L81.3417 24.616C81.3021 24.611 81.2661 24.5904 81.2416 24.5589C81.2171 24.5273 81.2061 24.4873 81.2111 24.4477C81.2161 24.4081 81.2367 24.372 81.2682 24.3476C81.2998 24.3231 81.3398 24.3121 81.3794 24.3171L81.3902 24.3199Z" fill="#BDD0FB"/>
<path d="M82.333 24.4039L82.8037 24.3875H82.8168C82.8553 24.3877 82.8922 24.4028 82.9198 24.4296C82.9474 24.4564 82.9636 24.4928 82.965 24.5312C82.9664 24.5697 82.9529 24.6072 82.9273 24.6359C82.9017 24.6646 82.866 24.6823 82.8277 24.6854L82.3293 24.7042C82.2896 24.7056 82.2509 24.6912 82.2218 24.6642C82.1927 24.6371 82.1756 24.5996 82.1742 24.5599C82.1727 24.5203 82.1871 24.4816 82.2142 24.4525C82.2412 24.4234 82.2787 24.4063 82.3184 24.4049H82.3316L82.333 24.4039Z" fill="#BDD0FB"/>
<path d="M83.272 24.3276L83.7304 24.2208L83.745 24.2175C83.7832 24.2086 83.8233 24.2152 83.8567 24.2359C83.89 24.2566 83.9137 24.2897 83.9226 24.3279C83.9316 24.3661 83.9249 24.4062 83.9043 24.4396C83.8836 24.4729 83.8505 24.4966 83.8123 24.5055L83.3251 24.6204C83.2873 24.6279 83.248 24.6204 83.2156 24.5995C83.1832 24.5786 83.1602 24.546 83.1514 24.5084C83.1426 24.4709 83.1487 24.4314 83.1685 24.3982C83.1883 24.3651 83.2201 24.341 83.2574 24.3309L83.272 24.3276Z" fill="#BDD0FB"/>
<path d="M84.176 24.0692L84.6061 23.8753L84.6184 23.8696C84.6537 23.855 84.6934 23.8547 84.7289 23.8687C84.7645 23.8828 84.7932 23.9101 84.8089 23.945C84.8247 23.9798 84.8263 24.0194 84.8134 24.0554C84.8005 24.0914 84.7741 24.121 84.7398 24.1379L84.2852 24.3436C84.2495 24.3597 84.2089 24.3611 84.1723 24.3473C84.1357 24.3335 84.106 24.3058 84.0898 24.2701C84.0737 24.2345 84.0723 24.1939 84.0861 24.1573C84.0999 24.1206 84.1276 24.091 84.1633 24.0748L84.176 24.0692Z" fill="#BDD0FB"/>
<path d="M85.0171 23.6429L85.4068 23.3751L85.4172 23.368C85.449 23.3461 85.4881 23.3377 85.5261 23.3447C85.564 23.3517 85.5977 23.3734 85.6196 23.4052C85.6415 23.437 85.6499 23.4761 85.6429 23.5141C85.6359 23.552 85.6142 23.5857 85.5824 23.6076L85.1734 23.89C85.1576 23.9022 85.1395 23.9112 85.1202 23.9162C85.1009 23.9213 85.0807 23.9223 85.061 23.9193C85.0413 23.9163 85.0223 23.9093 85.0054 23.8987C84.9884 23.8881 84.9738 23.8742 84.9625 23.8578C84.9511 23.8414 84.9432 23.8228 84.9392 23.8032C84.9352 23.7837 84.9353 23.7635 84.9394 23.7439C84.9435 23.7244 84.9516 23.7059 84.9631 23.6896C84.9746 23.6732 84.9893 23.6594 85.0063 23.649L85.0171 23.6429Z" fill="#BDD0FB"/>
<path d="M85.7729 23.0751L86.1132 22.7457L86.1217 22.7377C86.1488 22.7113 86.1854 22.6968 86.2232 22.6973C86.2611 22.6978 86.2972 22.7134 86.3236 22.7405C86.35 22.7677 86.3645 22.8042 86.364 22.842C86.3635 22.8799 86.3479 22.916 86.3208 22.9424L85.9654 23.2902C85.9377 23.3146 85.9016 23.3274 85.8647 23.3261C85.8277 23.3247 85.7927 23.3092 85.7669 23.2828C85.741 23.2564 85.7262 23.2211 85.7256 23.1841C85.725 23.1471 85.7386 23.1113 85.7635 23.0841L85.7729 23.0751Z" fill="#BDD0FB"/>
<path d="M86.4261 22.3901L86.7085 22.0098L86.7156 22.0008C86.7396 21.9771 86.7713 21.9627 86.805 21.9603C86.8387 21.9579 86.8721 21.9677 86.8992 21.9879C86.9263 22.008 86.9453 22.0372 86.9527 22.0702C86.9601 22.1031 86.9555 22.1376 86.9396 22.1675L86.645 22.5675C86.634 22.5824 86.6202 22.5951 86.6043 22.6046C86.5884 22.6142 86.5708 22.6206 86.5525 22.6233C86.5341 22.6261 86.5154 22.6253 86.4974 22.6208C86.4794 22.6164 86.4625 22.6084 86.4476 22.5974C86.4326 22.5864 86.42 22.5726 86.4104 22.5567C86.4009 22.5408 86.3945 22.5232 86.3917 22.5049C86.389 22.4865 86.3898 22.4678 86.3943 22.4498C86.3987 22.4318 86.4067 22.4149 86.4177 22.4L86.4261 22.3901Z" fill="#BDD0FB"/>
<path d="M86.9622 21.6081L87.1815 21.1873L87.1867 21.1774C87.2033 21.1453 87.2321 21.1211 87.2666 21.1101C87.3011 21.0992 87.3386 21.1024 87.3707 21.1191C87.4028 21.1357 87.427 21.1645 87.438 21.199C87.4489 21.2335 87.4457 21.271 87.4291 21.3031L87.2022 21.7441C87.1848 21.7755 87.1558 21.7989 87.1215 21.8093C87.0871 21.8197 87.0501 21.8164 87.0181 21.8C86.9862 21.7837 86.9619 21.7555 86.9503 21.7216C86.9387 21.6876 86.9408 21.6504 86.956 21.618L86.9622 21.6081Z" fill="#BDD0FB"/>
<path d="M87.3649 20.7501L87.5108 20.2992L87.5146 20.2884C87.5269 20.2566 87.5509 20.2307 87.5816 20.216C87.6124 20.2013 87.6476 20.1988 87.6801 20.2093C87.7126 20.2197 87.7398 20.2421 87.7563 20.2719C87.7728 20.3018 87.7773 20.3368 87.7688 20.3698L87.6186 20.8433C87.6137 20.8607 87.6054 20.877 87.5941 20.8911C87.5827 20.9053 87.5687 20.917 87.5528 20.9256C87.5368 20.9342 87.5193 20.9395 87.5013 20.9412C87.4833 20.9429 87.4651 20.941 87.4479 20.9355C87.4306 20.9301 87.4146 20.9212 87.4008 20.9094C87.3871 20.8977 87.3758 20.8833 87.3677 20.8671C87.3597 20.8509 87.3549 20.8332 87.3538 20.8151C87.3527 20.7971 87.3552 20.779 87.3612 20.7619L87.3649 20.7501Z" fill="#BDD0FB"/>
<path d="M87.6169 19.8381L87.6503 19.6027C87.6602 19.5241 87.6752 19.447 87.6809 19.3674C87.6848 19.334 87.7015 19.3034 87.7274 19.282C87.7533 19.2606 87.7864 19.2499 87.82 19.2523C87.8535 19.2546 87.8849 19.2698 87.9075 19.2947C87.9302 19.3195 87.9424 19.3522 87.9416 19.3858V19.3909C87.936 19.4738 87.9209 19.5557 87.911 19.638L87.8776 19.8842C87.8712 19.9174 87.8523 19.9469 87.8248 19.9666C87.7973 19.9864 87.7633 19.9948 87.7298 19.9902C87.6963 19.9856 87.6658 19.9684 87.6446 19.942C87.6234 19.9156 87.6132 19.8821 87.6159 19.8484L87.6169 19.8381Z" fill="#BDD0FB"/>
<path d="M87.7042 18.8946L87.6882 18.4202V18.4098C87.6886 18.377 87.7016 18.3457 87.7244 18.3222C87.7473 18.2988 87.7783 18.285 87.8111 18.2838C87.8438 18.2826 87.8757 18.294 87.9003 18.3157C87.9248 18.3374 87.9401 18.3677 87.9429 18.4004L87.9631 18.8955C87.9638 18.9124 87.9611 18.9294 87.9553 18.9453C87.9494 18.9612 87.9405 18.9758 87.929 18.9882C87.9175 19.0007 87.9037 19.0107 87.8883 19.0179C87.8729 19.025 87.8562 19.029 87.8393 19.0297C87.8224 19.0303 87.8055 19.0277 87.7896 19.0218C87.7737 19.016 87.7591 19.007 87.7466 18.9955C87.7341 18.984 87.7241 18.9702 87.717 18.9548C87.7099 18.9394 87.7059 18.9228 87.7052 18.9059V18.8946H87.7042Z" fill="#BDD0FB"/>
<path d="M87.6329 17.9487L87.5388 17.4818V17.4724C87.534 17.4407 87.5416 17.4084 87.5601 17.3822C87.5786 17.356 87.6066 17.3379 87.6381 17.3318C87.6696 17.3258 87.7022 17.3321 87.7291 17.3495C87.756 17.367 87.7752 17.3941 87.7826 17.4254L87.8814 17.9106C87.8881 17.9433 87.8815 17.9773 87.8631 18.0052C87.8447 18.033 87.816 18.0524 87.7833 18.0591C87.7505 18.0658 87.7165 18.0592 87.6887 18.0408C87.6608 18.0224 87.6414 17.9937 87.6348 17.961L87.6329 17.9487Z" fill="#BDD0FB"/>
<path d="M87.4126 17.0239L87.2493 16.5763L87.2446 16.5669C87.2348 16.537 87.2369 16.5044 87.2506 16.4761C87.2643 16.4477 87.2885 16.4258 87.318 16.4149C87.3476 16.4041 87.3802 16.4051 87.409 16.4178C87.4378 16.4305 87.4605 16.4539 87.4724 16.4831L87.6456 16.9471C87.6512 16.9623 87.6538 16.9784 87.6532 16.9945C87.6526 17.0107 87.6489 17.0265 87.6421 17.0412C87.6354 17.0559 87.6258 17.0691 87.614 17.0801C87.6022 17.0911 87.5883 17.0997 87.5731 17.1053C87.558 17.1109 87.5419 17.1135 87.5257 17.1129C87.5096 17.1123 87.4937 17.1085 87.479 17.1018C87.4644 17.0951 87.4511 17.0855 87.4402 17.0737C87.4292 17.0618 87.4206 17.048 87.415 17.0328L87.4126 17.0239Z" fill="#BDD0FB"/>
<path d="M87.0521 16.1434L86.8215 15.7264L86.8172 15.7184C86.802 15.691 86.7982 15.6587 86.8067 15.6285C86.8153 15.5983 86.8355 15.5728 86.8629 15.5575C86.8903 15.5422 86.9227 15.5384 86.9528 15.547C86.983 15.5555 87.0086 15.5757 87.0239 15.6031L87.2662 16.0352C87.2812 16.0629 87.2846 16.0954 87.2758 16.1256C87.267 16.1558 87.2466 16.1814 87.2191 16.1968C87.1917 16.2121 87.1593 16.2161 87.1289 16.2078C87.0985 16.1995 87.0726 16.1796 87.0568 16.1524L87.0521 16.1434Z" fill="#BDD0FB"/>
<path d="M86.5593 15.3288L86.2665 14.9522L86.2609 14.9447C86.2452 14.9205 86.2392 14.8913 86.244 14.8629C86.2489 14.8345 86.2641 14.8089 86.2869 14.7912C86.3096 14.7735 86.3381 14.7649 86.3669 14.7672C86.3956 14.7695 86.4224 14.7824 86.4421 14.8035L86.7489 15.1918C86.7682 15.2162 86.7769 15.2471 86.7733 15.2779C86.7697 15.3087 86.754 15.3368 86.7297 15.3561C86.7053 15.3753 86.6743 15.3841 86.6435 15.3804C86.6127 15.3768 86.5846 15.3611 86.5654 15.3368L86.5593 15.3288Z" fill="#BDD0FB"/>
<path d="M85.9443 14.604L85.7702 14.4416C85.7114 14.3879 85.6549 14.3324 85.5937 14.282C85.5733 14.2625 85.5611 14.236 85.5593 14.2079C85.5575 14.1797 85.5664 14.1519 85.5842 14.13C85.602 14.1081 85.6273 14.0937 85.6552 14.0896C85.6831 14.0855 85.7116 14.092 85.7349 14.1079C85.7989 14.1601 85.8582 14.2176 85.9194 14.2731L86.1015 14.4406C86.1237 14.4611 86.1369 14.4896 86.1382 14.5198C86.1394 14.55 86.1286 14.5794 86.1081 14.6016C86.0876 14.6238 86.0592 14.637 86.029 14.6382C85.9988 14.6395 85.9694 14.6287 85.9472 14.6082L85.9443 14.604Z" fill="#BDD0FB"/>
<path d="M85.2169 13.9911L84.8173 13.7322L84.8098 13.727C84.7864 13.7109 84.7702 13.6864 84.7646 13.6586C84.759 13.6307 84.7645 13.6018 84.7798 13.5779C84.7952 13.5541 84.8192 13.5371 84.8469 13.5307C84.8745 13.5242 84.9036 13.5288 84.9279 13.5435L85.3445 13.8094C85.3694 13.8252 85.3871 13.8504 85.3935 13.8792C85.4 13.9081 85.3947 13.9383 85.3788 13.9633C85.363 13.9883 85.3379 14.0059 85.309 14.0123C85.2801 14.0188 85.2499 14.0135 85.2249 13.9976L85.2169 13.9911Z" fill="#BDD0FB"/>
<path d="M84.3977 13.5076L83.9615 13.3151L83.9539 13.3118C83.9295 13.2997 83.9106 13.2786 83.9012 13.253C83.8919 13.2273 83.8927 13.1991 83.9036 13.1741C83.9145 13.149 83.9346 13.1291 83.9597 13.1185C83.9848 13.1079 84.0131 13.1073 84.0386 13.1169L84.4919 13.3132C84.5049 13.3188 84.5167 13.327 84.5265 13.3371C84.5364 13.3473 84.5442 13.3593 84.5494 13.3725C84.5546 13.3857 84.5572 13.3998 84.557 13.4139C84.5568 13.4281 84.5537 13.4421 84.5481 13.4551C84.5425 13.4681 84.5344 13.4799 84.5242 13.4898C84.514 13.4996 84.502 13.5074 84.4888 13.5126C84.4756 13.5178 84.4616 13.5204 84.4474 13.5202C84.4332 13.52 84.4192 13.517 84.4062 13.5113L84.3977 13.5076Z" fill="#BDD0FB"/>
<path d="M83.5108 13.1554L83.0496 13.0316H83.042C83.0161 13.0248 82.994 13.0081 82.9804 12.985C82.9669 12.9619 82.9631 12.9344 82.9698 12.9085C82.9765 12.8826 82.9933 12.8604 83.0164 12.8469C83.0395 12.8333 83.067 12.8295 83.0929 12.8363L83.5734 12.9572C83.587 12.9602 83.5999 12.9659 83.6112 12.9739C83.6225 12.9819 83.6322 12.9922 83.6395 13.004C83.6468 13.0159 83.6516 13.029 83.6537 13.0428C83.6558 13.0565 83.6551 13.0706 83.6516 13.084C83.6482 13.0975 83.6421 13.1102 83.6336 13.1212C83.6252 13.1323 83.6146 13.1415 83.6025 13.1484C83.5904 13.1553 83.5771 13.1596 83.5633 13.1612C83.5495 13.1628 83.5355 13.1616 83.5221 13.1577L83.5108 13.1554Z" fill="#BDD0FB"/>
<path d="M82.5796 12.9429L82.1042 12.8916H82.0972C82.0722 12.8891 82.0493 12.8767 82.0335 12.8572C82.0176 12.8378 82.0101 12.8128 82.0127 12.7879C82.0153 12.7629 82.0276 12.74 82.0471 12.7241C82.0666 12.7083 82.0915 12.7008 82.1165 12.7034L82.6074 12.7504C82.633 12.7534 82.6563 12.7663 82.6725 12.7863C82.6887 12.8064 82.6964 12.8319 82.6939 12.8576C82.6915 12.8832 82.6791 12.9068 82.6594 12.9234C82.6396 12.94 82.6142 12.9482 82.5885 12.9462H82.5796V12.9429Z" fill="#BDD0FB"/>
<path d="M81.6266 12.879L81.1494 12.9035H81.1423C81.1305 12.9042 81.1187 12.9025 81.1075 12.8986C81.0964 12.8947 81.0861 12.8887 81.0773 12.8808C81.0684 12.8729 81.0612 12.8634 81.0561 12.8528C81.0509 12.8421 81.0479 12.8306 81.0473 12.8188C81.0466 12.8069 81.0482 12.7951 81.0521 12.784C81.056 12.7728 81.0621 12.7625 81.0699 12.7537C81.0778 12.7448 81.0873 12.7377 81.098 12.7325C81.1086 12.7274 81.1202 12.7244 81.132 12.7237L81.6238 12.6931C81.6372 12.6898 81.6511 12.6896 81.6646 12.6923C81.6781 12.695 81.6909 12.7006 81.7019 12.7088C81.713 12.717 81.7222 12.7275 81.7287 12.7396C81.7353 12.7517 81.7392 12.7651 81.74 12.7788C81.7408 12.7926 81.7386 12.8063 81.7336 12.8191C81.7285 12.8319 81.7207 12.8435 81.7107 12.8529C81.7007 12.8624 81.6888 12.8695 81.6757 12.8739C81.6627 12.8782 81.6488 12.8797 81.6351 12.8781H81.6266V12.879Z" fill="#BDD0FB"/>
<path d="M80.676 12.9663L80.4406 13.0158L80.3234 13.0407C80.2844 13.0482 80.2462 13.06 80.2072 13.0689H80.2039C80.1826 13.0729 80.1606 13.0686 80.1424 13.0569C80.1242 13.0452 80.1112 13.027 80.106 13.006C80.1008 12.9849 80.1039 12.9627 80.1145 12.9439C80.1252 12.9251 80.1427 12.911 80.1634 12.9047C80.2029 12.8943 80.242 12.8821 80.2825 12.8741L80.4025 12.8473L80.643 12.7936C80.6656 12.7886 80.6893 12.7927 80.7088 12.8051C80.7284 12.8175 80.7422 12.8371 80.7473 12.8597C80.7523 12.8823 80.7482 12.906 80.7358 12.9256C80.7234 12.9451 80.7037 12.9589 80.6811 12.964L80.676 12.9663Z" fill="#BDD0FB"/>
<path d="M79.7477 13.2055L79.2893 13.3604C79.2695 13.3672 79.2477 13.3658 79.2289 13.3566C79.2101 13.3474 79.1956 13.3311 79.1888 13.3112C79.182 13.2914 79.1834 13.2696 79.1926 13.2508C79.2018 13.2319 79.2182 13.2175 79.238 13.2107L79.6979 13.0498C79.708 13.0462 79.7188 13.0447 79.7295 13.0453C79.7403 13.0459 79.7508 13.0486 79.7605 13.0533C79.7702 13.058 79.7789 13.0645 79.7861 13.0726C79.7933 13.0806 79.7988 13.09 79.8023 13.1001C79.8059 13.1103 79.8074 13.1211 79.8068 13.1318C79.8062 13.1426 79.8035 13.1531 79.7988 13.1628C79.7941 13.1725 79.7876 13.1812 79.7796 13.1884C79.7715 13.1955 79.7622 13.2011 79.752 13.2046L79.7477 13.2055Z" fill="#BDD0FB"/>
<path d="M78.829 13.5176L78.3621 13.6621C78.3434 13.6684 78.3229 13.6669 78.3053 13.6581C78.2876 13.6493 78.2742 13.6338 78.268 13.6151C78.2617 13.5963 78.2632 13.5759 78.272 13.5583C78.2808 13.5406 78.2963 13.5272 78.315 13.5209H78.3188L78.7777 13.3736H78.7805C78.7902 13.37 78.8005 13.3685 78.8109 13.369C78.8212 13.3695 78.8313 13.3721 78.8406 13.3766C78.8499 13.3812 78.8582 13.3875 78.865 13.3953C78.8717 13.4031 78.8769 13.4122 78.88 13.4221C78.8832 13.4319 78.8844 13.4423 78.8834 13.4526C78.8825 13.4629 78.8795 13.4729 78.8746 13.482C78.8697 13.4911 78.863 13.4991 78.8549 13.5055C78.8468 13.512 78.8375 13.5168 78.8276 13.5195L78.829 13.5176Z" fill="#BDD0FB"/>
<path d="M77.8838 13.777C77.7223 13.809 77.559 13.8312 77.3948 13.8434C77.377 13.8441 77.3596 13.8379 77.3463 13.826C77.333 13.8142 77.3248 13.7976 77.3234 13.7799C77.3221 13.7621 77.3277 13.7445 77.3391 13.7308C77.3505 13.7171 77.3667 13.7083 77.3844 13.7064C77.5426 13.6931 77.6998 13.6701 77.8551 13.6377C77.8738 13.6339 77.8933 13.6377 77.9092 13.6482C77.9252 13.6587 77.9362 13.6752 77.9401 13.6939C77.9439 13.7126 77.9401 13.7321 77.9295 13.748C77.919 13.764 77.9025 13.7751 77.8838 13.7789V13.777Z" fill="#BDD0FB"/>
<path d="M76.898 13.8401C76.732 13.8212 76.5687 13.7833 76.4113 13.7271C76.3967 13.7206 76.3851 13.7089 76.3788 13.6942C76.3724 13.6796 76.3718 13.6631 76.3771 13.648C76.3824 13.6329 76.3932 13.6204 76.4073 13.6129C76.4214 13.6054 76.4378 13.6035 76.4532 13.6076C76.6016 13.659 76.7554 13.6929 76.9117 13.7087C76.9291 13.7104 76.9451 13.719 76.9562 13.7325C76.9673 13.746 76.9726 13.7633 76.971 13.7808C76.9693 13.7982 76.9607 13.8142 76.9472 13.8253C76.9337 13.8364 76.9164 13.8417 76.8989 13.8401H76.898Z" fill="#BDD0FB"/>
<path d="M75.962 13.5123C75.8198 13.4262 75.6872 13.325 75.5666 13.2106C75.5611 13.2054 75.5567 13.1992 75.5536 13.1923C75.5505 13.1854 75.5488 13.1779 75.5486 13.1703C75.5482 13.1551 75.5538 13.1403 75.5643 13.1291C75.5748 13.118 75.5893 13.1115 75.6045 13.1111C75.6198 13.1107 75.6346 13.1163 75.6457 13.1268C75.7611 13.2338 75.8873 13.3284 76.0222 13.4092C76.0297 13.413 76.0362 13.4182 76.0415 13.4246C76.0468 13.431 76.0507 13.4385 76.053 13.4465C76.0553 13.4545 76.056 13.4628 76.0549 13.4711C76.0538 13.4793 76.0511 13.4873 76.0468 13.4944C76.0425 13.5016 76.0368 13.5077 76.0301 13.5126C76.0233 13.5174 76.0157 13.5209 76.0075 13.5226C75.9994 13.5244 75.991 13.5245 75.9828 13.5228C75.9747 13.5212 75.967 13.5179 75.9601 13.5132L75.962 13.5123Z" fill="#BDD0FB"/>
<path d="M75.2497 12.8262C75.1594 12.6842 75.0938 12.5279 75.0558 12.364C75.0527 12.3504 75.055 12.3362 75.0624 12.3244C75.0698 12.3126 75.0815 12.3043 75.0951 12.3011C75.1086 12.298 75.1229 12.3004 75.1346 12.3078C75.1464 12.3152 75.1548 12.3269 75.1579 12.3404C75.1952 12.4921 75.2577 12.6364 75.3429 12.7673C75.3507 12.7798 75.3533 12.7949 75.3501 12.8093C75.3468 12.8237 75.3379 12.8362 75.3255 12.844C75.313 12.8519 75.2979 12.8545 75.2835 12.8512C75.2691 12.848 75.2566 12.8391 75.2487 12.8266L75.2497 12.8262Z" fill="#BDD0FB"/>
<path d="M75.0488 11.8578C75.0658 11.7755 75.0914 11.6952 75.125 11.6182C75.1301 11.6064 75.1396 11.5971 75.1515 11.5923C75.1635 11.5876 75.1768 11.5877 75.1886 11.5928C75.2004 11.5978 75.2097 11.6074 75.2144 11.6193C75.2192 11.6312 75.219 11.6445 75.214 11.6563C75.1839 11.7275 75.1613 11.8016 75.1467 11.8775C75.1441 11.8905 75.1365 11.9019 75.1255 11.9093C75.1145 11.9167 75.1011 11.9194 75.0881 11.9168C75.0751 11.9143 75.0637 11.9067 75.0563 11.8957C75.0489 11.8847 75.0462 11.8712 75.0488 11.8582V11.8578Z" fill="#BDD0FB"/>
<path d="M75.1427 9.58569L74.3482 11.5799L73.3396 10.1844L75.1427 9.58569Z" fill="#7D97F4"/>
<path d="M66.6328 4.86938L70.1359 11.7376C70.169 11.8027 70.215 11.8604 70.2709 11.9073C70.3269 11.9542 70.3918 11.9893 70.4616 12.0106C70.5315 12.0319 70.6049 12.0388 70.6775 12.0311C70.7501 12.0233 70.8204 12.001 70.8842 11.9654L77.648 8.18937C77.6858 8.16816 77.7164 8.13617 77.7359 8.09748C77.7554 8.05879 77.7629 8.01516 77.7575 7.97217C77.7521 7.92918 77.734 7.88878 77.7055 7.85612C77.677 7.82347 77.6395 7.80004 77.5976 7.78885L66.6328 4.86938Z" fill="#91B3FA"/>
<path d="M75.1424 9.5858L66.6326 4.86938L74.0524 10.1986L73.8557 10.761L75.1424 9.5858Z" fill="#7D97F4"/>
<path d="M73.4038 10.5571L74.3484 11.5799L74.0524 10.1985L73.4038 10.5571Z" fill="#7D97F4"/>
<defs>
<linearGradient id="paint0_linear_32_9971" x1="0.00113046" y1="32.315" x2="101.745" y2="32.315" gradientUnits="userSpaceOnUse">
<stop stop-color="#DAE3FE"/>
<stop offset="1" stop-color="#E9EFFD"/>
</linearGradient>
<linearGradient id="paint1_linear_32_9971" x1="16.0837" y1="32.3861" x2="33.1435" y2="32.3861" gradientUnits="userSpaceOnUse">
<stop stop-color="#DAE3FE"/>
<stop offset="1" stop-color="#E9EFFD"/>
</linearGradient>
<linearGradient id="paint2_linear_32_9971" x1="50.074" y1="68.2385" x2="49.1609" y2="50.1621" gradientUnits="userSpaceOnUse">
<stop stop-color="#09005D"/>
<stop offset="1" stop-color="#1A0F91"/>
</linearGradient>
<linearGradient id="paint3_linear_32_9971" x1="61.2043" y1="7.70433" x2="46.6597" y2="39.4767" gradientUnits="userSpaceOnUse">
<stop stop-color="#09005D"/>
<stop offset="1" stop-color="#1A0F91"/>
</linearGradient>
<linearGradient id="paint4_linear_32_9971" x1="54.267" y1="42.7612" x2="51.3014" y2="55.3285" gradientUnits="userSpaceOnUse">
<stop stop-color="#09005D"/>
<stop offset="1" stop-color="#1A0F91"/>
</linearGradient>
<linearGradient id="paint5_linear_32_9971" x1="62.3405" y1="20.6867" x2="20.5423" y2="44.5512" gradientUnits="userSpaceOnUse">
<stop stop-color="#4042E2"/>
<stop offset="1" stop-color="#4F52FF"/>
</linearGradient>
<linearGradient id="paint6_linear_32_9971" x1="34.8338" y1="30.224" x2="46.6354" y2="30.224" gradientUnits="userSpaceOnUse">
<stop stop-color="#FE7062"/>
<stop offset="1" stop-color="#FF928E"/>
</linearGradient>
<linearGradient id="paint7_linear_32_9971" x1="40.9376" y1="43.7222" x2="41.3617" y2="22.541" gradientUnits="userSpaceOnUse">
<stop stop-color="#4042E2"/>
<stop offset="1" stop-color="#4F52FF"/>
</linearGradient>
<linearGradient id="paint8_linear_32_9971" x1="31.7447" y1="22.0832" x2="31.7447" y2="31.9678" gradientUnits="userSpaceOnUse">
<stop stop-color="#E1473D"/>
<stop offset="1" stop-color="#E9605A"/>
</linearGradient>
<linearGradient id="paint9_linear_32_9971" x1="42.5874" y1="42.194" x2="45.0837" y2="42.194" gradientUnits="userSpaceOnUse">
<stop stop-color="#E1473D"/>
<stop offset="1" stop-color="#E9605A"/>
</linearGradient>
<linearGradient id="paint10_linear_32_9971" x1="74.4835" y1="22.5301" x2="67.7936" y2="31.6994" gradientUnits="userSpaceOnUse">
<stop stop-color="#FE7062"/>
<stop offset="1" stop-color="#FF928E"/>
</linearGradient>
<linearGradient id="paint11_linear_32_9971" x1="74.4831" y1="32.7155" x2="67.7932" y2="41.8848" gradientUnits="userSpaceOnUse">
<stop stop-color="#53D8FF"/>
<stop offset="1" stop-color="#3840F7"/>
</linearGradient>
<linearGradient id="paint12_linear_32_9971" x1="63.1241" y1="69.1386" x2="129.473" y2="-23.7499" gradientUnits="userSpaceOnUse">
<stop stop-color="#FE7062"/>
<stop offset="1" stop-color="#FF928E"/>
</linearGradient>
<linearGradient id="paint13_linear_32_9971" x1="100.025" y1="17.1647" x2="98.5189" y2="25.6365" gradientUnits="userSpaceOnUse">
<stop stop-color="#FF928E"/>
<stop offset="1" stop-color="#FEB3B1"/>
</linearGradient>
<linearGradient id="paint14_linear_32_9971" x1="88.3224" y1="15.0838" x2="86.8164" y2="23.5556" gradientUnits="userSpaceOnUse">
<stop stop-color="#FF928E"/>
<stop offset="1" stop-color="#FEB3B1"/>
</linearGradient>
<linearGradient id="paint15_linear_32_9971" x1="82.2585" y1="23.7175" x2="80.3759" y2="31.5304" gradientUnits="userSpaceOnUse">
<stop stop-color="#E1473D"/>
<stop offset="1" stop-color="#E9605A"/>
</linearGradient>
<linearGradient id="paint16_linear_32_9971" x1="89.2212" y1="21.9235" x2="70.1127" y2="52.4214" gradientUnits="userSpaceOnUse">
<stop stop-color="#FF928E"/>
<stop offset="1" stop-color="#FEB3B1"/>
</linearGradient>
<linearGradient id="paint17_linear_32_9971" x1="81.9677" y1="35.0542" x2="81.3088" y2="39.196" gradientUnits="userSpaceOnUse">
<stop stop-color="#E1473D"/>
<stop offset="1" stop-color="#E9605A"/>
</linearGradient>
<linearGradient id="paint18_linear_32_9971" x1="72.6272" y1="34.6893" x2="71.2152" y2="41.4667" gradientUnits="userSpaceOnUse">
<stop stop-color="#E1473D"/>
<stop offset="1" stop-color="#E9605A"/>
</linearGradient>
<linearGradient id="paint19_linear_32_9971" x1="97.0164" y1="26.8007" x2="77.9079" y2="57.299" gradientUnits="userSpaceOnUse">
<stop stop-color="#FF928E"/>
<stop offset="1" stop-color="#FEB3B1"/>
</linearGradient>
<linearGradient id="paint20_linear_32_9971" x1="86.9081" y1="20.4679" x2="67.7996" y2="50.9662" gradientUnits="userSpaceOnUse">
<stop stop-color="#FF928E"/>
<stop offset="1" stop-color="#FEB3B1"/>
</linearGradient>
<linearGradient id="paint21_linear_32_9971" x1="91.2187" y1="34.0067" x2="90.0891" y2="37.8661" gradientUnits="userSpaceOnUse">
<stop stop-color="#E1473D"/>
<stop offset="1" stop-color="#E9605A"/>
</linearGradient>
<linearGradient id="paint22_linear_32_9971" x1="99.3372" y1="28.2551" x2="80.2286" y2="58.7534" gradientUnits="userSpaceOnUse">
<stop stop-color="#FF928E"/>
<stop offset="1" stop-color="#FEB3B1"/>
</linearGradient>
<linearGradient id="paint23_linear_32_9971" x1="77.4084" y1="47.8603" x2="80.5797" y2="47.8603" gradientUnits="userSpaceOnUse">
<stop stop-color="#E1473D"/>
<stop offset="1" stop-color="#E9605A"/>
</linearGradient>
<linearGradient id="paint24_linear_32_9971" x1="34.0143" y1="12.0064" x2="26.578" y2="24.7611" gradientUnits="userSpaceOnUse">
<stop stop-color="#FF928E"/>
<stop offset="1" stop-color="#FEB3B1"/>
</linearGradient>
<linearGradient id="paint25_linear_32_9971" x1="34.5202" y1="16.151" x2="33.8143" y2="20.4339" gradientUnits="userSpaceOnUse">
<stop stop-color="#09005D"/>
<stop offset="1" stop-color="#1A0F91"/>
</linearGradient>
<linearGradient id="paint26_linear_32_9971" x1="31.1584" y1="9.77171" x2="30.17" y2="13.4899" gradientUnits="userSpaceOnUse">
<stop stop-color="#FF928E"/>
<stop offset="1" stop-color="#FEB3B1"/>
</linearGradient>
<linearGradient id="paint27_linear_32_9971" x1="33.0391" y1="17.4632" x2="32.0507" y2="21.6986" gradientUnits="userSpaceOnUse">
<stop stop-color="#09005D"/>
<stop offset="1" stop-color="#1A0F91"/>
</linearGradient>
<linearGradient id="paint28_linear_32_9971" x1="-172.392" y1="68.2112" x2="-179.232" y2="70.0938" gradientUnits="userSpaceOnUse">
<stop stop-color="#4042E2"/>
<stop offset="1" stop-color="#4F52FF"/>
</linearGradient>
<linearGradient id="paint29_linear_32_9971" x1="24.3094" y1="-1.34453" x2="20.443" y2="3.09094" gradientUnits="userSpaceOnUse">
<stop stop-color="#09005D"/>
<stop offset="1" stop-color="#1A0F91"/>
</linearGradient>
<linearGradient id="paint30_linear_32_9971" x1="25.6559" y1="5.47231" x2="4.68833" y2="25.6982" gradientUnits="userSpaceOnUse">
<stop stop-color="#FE7062"/>
<stop offset="1" stop-color="#FF928E"/>
</linearGradient>
<linearGradient id="paint31_linear_32_9971" x1="23.6209" y1="8.31214" x2="22.1619" y2="10.9949" gradientUnits="userSpaceOnUse">
<stop stop-color="#FF928E"/>
<stop offset="1" stop-color="#FEB3B1"/>
</linearGradient>
<linearGradient id="paint32_linear_32_9971" x1="24.4933" y1="2.41734" x2="21.2463" y2="8.91235" gradientUnits="userSpaceOnUse">
<stop stop-color="#FF928E"/>
<stop offset="1" stop-color="#FEB3B1"/>
</linearGradient>
<linearGradient id="paint33_linear_32_9971" x1="123.344" y1="-50.6966" x2="119.209" y2="-48.3847" gradientUnits="userSpaceOnUse">
<stop stop-color="#FF928E"/>
<stop offset="1" stop-color="#FEB3B1"/>
</linearGradient>
<linearGradient id="paint34_linear_32_9971" x1="30.0861" y1="1.51179" x2="24.6678" y2="2.61203" gradientUnits="userSpaceOnUse">
<stop stop-color="#09005D"/>
<stop offset="1" stop-color="#1A0F91"/>
</linearGradient>
<linearGradient id="paint35_linear_32_9971" x1="122.782" y1="-51.7004" x2="118.648" y2="-49.3886" gradientUnits="userSpaceOnUse">
<stop stop-color="#FF928E"/>
<stop offset="1" stop-color="#FEB3B1"/>
</linearGradient>
<linearGradient id="paint36_linear_32_9971" x1="24.7174" y1="8.28441" x2="24.6548" y2="9.8531" gradientUnits="userSpaceOnUse">
<stop stop-color="#09005D"/>
<stop offset="1" stop-color="#1A0F91"/>
</linearGradient>
<linearGradient id="paint37_linear_32_9971" x1="30.7517" y1="14.2826" x2="27.5823" y2="9.16797" gradientUnits="userSpaceOnUse">
<stop stop-color="#09005D"/>
<stop offset="1" stop-color="#1A0F91"/>
</linearGradient>
<linearGradient id="paint38_linear_32_9971" x1="52.9941" y1="60.0708" x2="55.8826" y2="61.3358" gradientUnits="userSpaceOnUse">
<stop stop-color="#4042E2"/>
<stop offset="1" stop-color="#4F52FF"/>
</linearGradient>
<linearGradient id="paint39_linear_32_9971" x1="24.9025" y1="134.367" x2="28.7732" y2="124.707" gradientUnits="userSpaceOnUse">
<stop stop-color="#4042E2"/>
<stop offset="1" stop-color="#4F52FF"/>
</linearGradient>
<linearGradient id="paint40_linear_32_9971" x1="53.5715" y1="59.1527" x2="54.3027" y2="59.473" gradientUnits="userSpaceOnUse">
<stop stop-color="#FF928E"/>
<stop offset="1" stop-color="#FEB3B1"/>
</linearGradient>
<linearGradient id="paint41_linear_32_9971" x1="44.8334" y1="63.1895" x2="47.9402" y2="63.0963" gradientUnits="userSpaceOnUse">
<stop stop-color="#4042E2"/>
<stop offset="1" stop-color="#4F52FF"/>
</linearGradient>
<linearGradient id="paint42_linear_32_9971" x1="44.8248" y1="38.1228" x2="44.1833" y2="27.7312" gradientUnits="userSpaceOnUse">
<stop stop-color="#4042E2"/>
<stop offset="1" stop-color="#4F52FF"/>
</linearGradient>
<linearGradient id="paint43_linear_32_9971" x1="44.8642" y1="62.6557" x2="45.8612" y2="62.7726" gradientUnits="userSpaceOnUse">
<stop stop-color="#FF928E"/>
<stop offset="1" stop-color="#FEB3B1"/>
</linearGradient>
<linearGradient id="paint44_linear_32_9971" x1="44.9968" y1="51.2101" x2="54.4971" y2="63.4723" gradientUnits="userSpaceOnUse">
<stop stop-color="#4042E2"/>
<stop offset="1" stop-color="#4F52FF"/>
</linearGradient>
<linearGradient id="paint45_linear_32_9971" x1="50.6675" y1="39.5683" x2="50.9499" y2="48.0401" gradientUnits="userSpaceOnUse">
<stop stop-color="#09005D"/>
<stop offset="1" stop-color="#1A0F91"/>
</linearGradient>
<linearGradient id="paint46_linear_32_9971" x1="59.4426" y1="43.0494" x2="42.5016" y2="55.7365" gradientUnits="userSpaceOnUse">
<stop stop-color="#FE7062"/>
<stop offset="1" stop-color="#FF928E"/>
</linearGradient>
<linearGradient id="paint47_linear_32_9971" x1="55.2818" y1="41.6396" x2="53.8698" y2="46.2049" gradientUnits="userSpaceOnUse">
<stop stop-color="#FF928E"/>
<stop offset="1" stop-color="#FEB3B1"/>
</linearGradient>
<linearGradient id="paint48_linear_32_9971" x1="51.0785" y1="-68.2869" x2="51.2005" y2="-65.1475" gradientUnits="userSpaceOnUse">
<stop stop-color="#FF928E"/>
<stop offset="1" stop-color="#FEB3B1"/>
</linearGradient>
<linearGradient id="paint49_linear_32_9971" x1="54.5528" y1="39.8288" x2="56.4362" y2="42.9088" gradientUnits="userSpaceOnUse">
<stop stop-color="#09005D"/>
<stop offset="1" stop-color="#1A0F91"/>
</linearGradient>
<linearGradient id="paint50_linear_32_9971" x1="50.268" y1="-68.2552" x2="50.39" y2="-65.1159" gradientUnits="userSpaceOnUse">
<stop stop-color="#FF928E"/>
<stop offset="1" stop-color="#FEB3B1"/>
</linearGradient>
<linearGradient id="paint51_linear_32_9971" x1="63.8884" y1="40.2574" x2="61.9587" y2="43.3637" gradientUnits="userSpaceOnUse">
<stop stop-color="#FF928E"/>
<stop offset="1" stop-color="#FEB3B1"/>
</linearGradient>
<linearGradient id="paint52_linear_32_9971" x1="62.0569" y1="39.1191" x2="60.1272" y2="42.2254" gradientUnits="userSpaceOnUse">
<stop stop-color="#FF928E"/>
<stop offset="1" stop-color="#FEB3B1"/>
</linearGradient>
<linearGradient id="paint53_linear_32_9971" x1="60.3954" y1="33.9403" x2="58.7952" y2="36.9525" gradientUnits="userSpaceOnUse">
<stop stop-color="#FE7062"/>
<stop offset="1" stop-color="#FF928E"/>
</linearGradient>
</defs>
</svg>
