<svg width="13" height="16" viewBox="0 0 13 16" fill="none" xmlns="http://www.w3.org/2000/svg">
<path d="M5.6 12H7.2V7.2H5.6V12ZM6.4 5.6C6.62667 5.6 6.8168 5.5232 6.9704 5.3696C7.124 5.216 7.20053 5.02613 7.2 4.8C7.2 4.57333 7.1232 4.3832 6.9696 4.2296C6.816 4.076 6.62613 3.99947 6.4 4C6.17333 4 5.9832 4.0768 5.8296 4.2304C5.676 4.384 5.59947 4.57387 5.6 4.8C5.6 5.02667 5.6768 5.2168 5.8304 5.3704C5.984 5.524 6.17387 5.60053 6.4 5.6ZM6.4 16C4.54667 15.5333 3.01653 14.4699 1.8096 12.8096C0.602667 11.1493 -0.00053298 9.30613 3.53357e-07 7.28V2.4L6.4 0L12.8 2.4V7.28C12.8 9.30667 12.1965 11.1501 10.9896 12.8104C9.78267 14.4707 8.2528 15.5339 6.4 16Z" fill="#6F58F4"/>
</svg>
