<svg width="16" height="16" viewBox="0 0 16 16" fill="none" xmlns="http://www.w3.org/2000/svg">
<path d="M9.6 10.4C9.82667 10.4 10.0235 10.3168 10.1904 10.1504C10.3573 9.984 10.4405 9.7872 10.44 9.56C10.4395 9.3328 10.3563 9.13627 10.1904 8.9704C10.0245 8.80453 9.82773 8.72107 9.6 8.72C9.37227 8.71893 9.17573 8.8024 9.0104 8.9704C8.84507 9.1384 8.7616 9.33493 8.76 9.56C8.7584 9.78507 8.84187 9.98187 9.0104 10.1504C9.17893 10.3189 9.37547 10.4021 9.6 10.4ZM9 7.84H10.2C10.2 7.45333 10.24 7.17013 10.32 6.9904C10.4 6.81067 10.5867 6.57387 10.88 6.28C11.28 5.88 11.5467 5.5568 11.68 5.3104C11.8133 5.064 11.88 4.77387 11.88 4.44C11.88 3.84 11.6699 3.35013 11.2496 2.9704C10.8293 2.59067 10.2795 2.40053 9.6 2.4C9.05333 2.4 8.5768 2.55333 8.1704 2.86C7.764 3.16667 7.48053 3.57333 7.32 4.08L8.4 4.52C8.52 4.18667 8.68347 3.9368 8.8904 3.7704C9.09733 3.604 9.33387 3.52053 9.6 3.52C9.92 3.52 10.18 3.61013 10.38 3.7904C10.58 3.97067 10.68 4.21387 10.68 4.52C10.68 4.70667 10.6267 4.88347 10.52 5.0504C10.4133 5.21733 10.2267 5.4272 9.96 5.68C9.52 6.06667 9.25013 6.37013 9.1504 6.5904C9.05067 6.81067 9.00053 7.2272 9 7.84ZM4.8 12.8C4.36 12.8 3.98347 12.6435 3.6704 12.3304C3.35733 12.0173 3.20053 11.6405 3.2 11.2V1.6C3.2 1.16 3.3568 0.783467 3.6704 0.4704C3.984 0.157333 4.36053 0.000533333 4.8 0H14.4C14.84 0 15.2168 0.1568 15.5304 0.4704C15.844 0.784 16.0005 1.16053 16 1.6V11.2C16 11.64 15.8435 12.0168 15.5304 12.3304C15.2173 12.644 14.8405 12.8005 14.4 12.8H4.8ZM1.6 16C1.16 16 0.783467 15.8435 0.4704 15.5304C0.157333 15.2173 0.000533333 14.8405 0 14.4V3.2H1.6V14.4H12.8V16H1.6Z" fill="#6F58F4"/>
</svg>
