<svg width="16" height="16" viewBox="0 0 16 16" fill="none" xmlns="http://www.w3.org/2000/svg">
<path d="M7.94986 12.9352L4.21807 15.7845C4.03316 15.9357 3.83145 16.0074 3.61292 15.9993C3.39439 15.9912 3.20108 15.928 3.03298 15.8097C2.86488 15.692 2.73477 15.5323 2.64265 15.3306C2.55053 15.1289 2.54616 14.9103 2.62954 14.675L4.06678 10.0103L0.410641 7.41315C0.208922 7.27867 0.0828485 7.10217 0.032419 6.88364C-0.0180106 6.66511 -0.00960557 6.46339 0.0576338 6.27849C0.124873 6.09358 0.242542 5.92951 0.410641 5.78629C0.578739 5.64307 0.780457 5.5718 1.0158 5.57247H5.52924L6.9917 0.731234C7.07575 0.495896 7.20619 0.315022 7.38303 0.188612C7.55987 0.0622021 7.74881 -0.000667058 7.94986 5.33644e-06C8.15158 5.33644e-06 8.34086 0.0632106 8.5177 0.189621C8.69454 0.316031 8.82464 0.496568 8.90802 0.731234L10.3705 5.57247H14.8839C15.1193 5.57247 15.321 5.64408 15.4891 5.7873C15.6572 5.93052 15.7748 6.09425 15.8421 6.27849C15.9093 6.46339 15.9177 6.66511 15.8673 6.88364C15.8169 7.10217 15.6908 7.27867 15.4891 7.41315L11.8329 10.0103L13.2702 14.675C13.3542 14.9103 13.3502 15.1289 13.2581 15.3306C13.166 15.5323 13.0355 15.692 12.8667 15.8097C12.6986 15.9273 12.5053 15.9905 12.2868 15.9993C12.0683 16.008 11.8666 15.9364 11.6816 15.7845L7.94986 12.9352Z" fill="#6F58F4"/>
</svg>
