<svg width="84" height="73" viewBox="0 0 84 73" fill="none" xmlns="http://www.w3.org/2000/svg">
<path d="M19.8348 14.2119C22.1766 14.7181 24.5875 14.8215 26.964 14.5177C30.6128 14.0231 35.4395 12.6399 38.7968 8.93576C44.8754 2.22927 55.8853 -4.53263 62.8278 4.01056C69.7702 12.5537 67.3425 22.2749 73.813 24.4502C80.2835 26.6255 86.7006 34.5571 81.9252 44.9472C76.2038 57.3895 65.0626 49.2383 71.3381 64.5742C74.5456 72.4155 53.6648 73.5319 43.3465 67.9931C33.8901 62.9181 24.5691 76.2818 15.7038 67.7202C6.8384 59.1585 20.3745 48.6083 13.6413 42.8622C6.90817 37.1162 1.86804 33.5864 5.07763 23.342C7.48483 15.6566 16.1983 13.4567 19.8348 14.2119Z" fill="#F5F8FF"/>
<path d="M78.7587 71.9128C78.1594 70.899 76.6696 67.1025 83.1606 61.2292C83.2076 61.1861 83.2655 61.1566 83.3279 61.1438C83.3904 61.131 83.4552 61.1353 83.5154 61.1564C83.5756 61.1774 83.6289 61.2144 83.6698 61.2633C83.7107 61.3123 83.7375 61.3714 83.7475 61.4344C84.041 63.3778 84.4658 69.3373 79.2327 72.0441C79.1519 72.0872 79.0577 72.0975 78.9695 72.0731C78.8813 72.0486 78.8058 71.9912 78.7587 71.9128Z" fill="#E1ECFA"/>
<path d="M83.2139 62.2162C83.2139 62.2162 82.4751 65.0051 80.9996 67.2235C80.0706 68.6819 79.4025 70.2909 79.0254 71.9784" fill="#E1ECFA"/>
<path d="M79.1383 71.7978C79.4625 70.6938 79.9592 66.7372 72.3969 62.7273C72.3418 62.698 72.2798 62.6842 72.2175 62.6874C72.1552 62.6906 72.0949 62.7106 72.0431 62.7454C71.9913 62.7801 71.9499 62.8283 71.9233 62.8847C71.8967 62.9412 71.8859 63.0038 71.8921 63.0659C72.0788 64.9785 73.1111 70.7307 78.7279 72.0359C78.8138 72.0568 78.9044 72.0437 78.9809 71.9994C79.0574 71.955 79.1138 71.8828 79.1383 71.7978Z" fill="#E1ECFA"/>
<path d="M72.5836 63.6795C72.5836 63.6795 73.9545 66.1421 75.8876 67.8967C77.1185 69.0556 78.1379 70.4202 78.9002 71.9292" fill="#E1ECFA"/>
<path d="M6.237 71.9682C6.96552 70.7369 8.77759 66.1277 0.90136 58.9923C0.843751 58.9404 0.773196 58.905 0.697134 58.8898C0.621073 58.8746 0.542326 58.8803 0.469199 58.9061C0.396072 58.9319 0.331276 58.9771 0.281644 59.0367C0.232013 59.0963 0.199386 59.1681 0.187205 59.2447C-0.169872 61.6047 -0.682915 68.8427 5.67881 72.1303C5.77513 72.1788 5.88622 72.189 5.98977 72.1589C6.09331 72.1289 6.18164 72.0607 6.237 71.9682Z" fill="#E1ECFA"/>
<path d="M0.823364 60.1909C0.823364 60.1909 1.72221 63.5892 3.51376 66.2735C5.3053 68.9577 5.90864 72.0483 5.90864 72.0483" fill="#E1ECFA"/>
<path d="M6.81568 71.9312C6.48939 70.8271 5.99482 66.8706 13.555 62.8606C13.6102 62.8308 13.6724 62.8166 13.735 62.8195C13.7977 62.8225 13.8583 62.8424 13.9105 62.8772C13.9626 62.9121 14.0042 62.9604 14.0309 63.0172C14.0576 63.0739 14.0683 63.1369 14.0619 63.1992C13.8731 65.1119 12.8429 70.8641 7.22612 72.1693C7.14021 72.1902 7.04953 72.1771 6.97304 72.1328C6.89656 72.0884 6.84017 72.0162 6.81568 71.9312Z" fill="#E1ECFA"/>
<path d="M13.3683 63.8088C13.3683 63.8088 11.9974 66.2714 10.0663 68.026C8.83668 69.185 7.8186 70.5496 7.05786 72.0585" fill="#E1ECFA"/>
<path d="M62.8092 49.6447L65.8875 44.1038L68.9657 38.563C69.0463 38.4157 69.1651 38.2928 69.3095 38.2072C69.4539 38.1216 69.6187 38.0765 69.7866 38.0765C69.9545 38.0765 70.1192 38.1216 70.2637 38.2072C70.4081 38.2928 70.5268 38.4157 70.6074 38.563L73.6857 44.1038L76.764 49.6447C76.8494 49.7924 76.8952 49.9598 76.8968 50.1305C76.8984 50.3012 76.8558 50.4694 76.7732 50.6187C76.6906 50.7681 76.5707 50.8935 76.4252 50.9828C76.2798 51.0721 76.1137 51.1223 75.9431 51.1284H73.3984L73.306 70.7307L66.1235 70.4845V51.1284H63.6342C63.4632 51.123 63.2966 51.0733 63.1506 50.9843C63.0046 50.8953 62.8841 50.7699 62.801 50.6204C62.7179 50.471 62.675 50.3025 62.6764 50.1315C62.6779 49.9605 62.7236 49.7927 62.8092 49.6447Z" fill="#E1ECFA"/>
<path d="M16.2496 20.904L19.3278 15.5807L22.4061 10.2574C22.4901 10.1144 22.6101 9.9958 22.7541 9.91343C22.8981 9.83105 23.0611 9.78772 23.2269 9.78772C23.3928 9.78772 23.5558 9.83105 23.6998 9.91343C23.8438 9.9958 23.9637 10.1144 24.0478 10.2574L27.1261 15.5807L30.2043 20.904C30.2898 21.0487 30.3354 21.2134 30.3367 21.3815C30.3379 21.5495 30.2946 21.7149 30.2112 21.8608C30.1279 22.0067 30.0074 22.1279 29.862 22.2122C29.7166 22.2964 29.5515 22.3407 29.3834 22.3405H26.8572L26.8306 66.2282H19.5864V22.3405H17.0745C16.9061 22.3414 16.7405 22.2977 16.5946 22.2137C16.4486 22.1297 16.3275 22.0086 16.2437 21.8625C16.1598 21.7165 16.1162 21.5509 16.1172 21.3825C16.1182 21.2141 16.1639 21.049 16.2496 20.904Z" fill="#E1ECFA"/>
<path d="M32.121 43.0674L35.1992 37.5266L38.2775 31.9857C38.3576 31.8379 38.4762 31.7145 38.6207 31.6284C38.7652 31.5424 38.9302 31.497 39.0984 31.497C39.2665 31.497 39.4315 31.5424 39.576 31.6284C39.7205 31.7145 39.8391 31.8379 39.9192 31.9857L42.9975 37.5266L46.0757 43.0674C46.1611 43.2154 46.2067 43.3828 46.2083 43.5536C46.2099 43.7243 46.1673 43.8926 46.0848 44.0421C46.0022 44.1915 45.8824 44.3171 45.737 44.4067C45.5916 44.4962 45.4255 44.5467 45.2549 44.5532H42.7102L42.5809 71.9969C42.5809 72.6125 41.2142 71.3094 40.6149 71.3094L36.8143 71.0734C36.2151 71.0734 35.4414 72.4278 35.4414 71.804V44.545H32.946C32.7762 44.5384 32.6109 44.4883 32.4661 44.3995C32.3212 44.3107 32.2016 44.1861 32.1188 44.0378C32.036 43.8894 31.9927 43.7222 31.993 43.5523C31.9934 43.3824 32.0375 43.2154 32.121 43.0674Z" fill="#E1ECFA"/>
<path d="M70.7859 21.4499L70.9419 16.4036L70.6751 16.7874L70.4699 21.4581C69.8912 21.6428 69.7927 22.6484 69.7763 23.0301C69.7739 23.0698 69.7868 23.109 69.8124 23.1395C69.838 23.17 69.8742 23.1896 69.9138 23.1943L70.3878 23.2476C70.4265 23.2525 70.4657 23.2425 70.4973 23.2196C70.5289 23.1968 70.5507 23.1628 70.5582 23.1245L70.6156 22.8556L70.747 23.2045C70.7582 23.2309 70.7759 23.254 70.7985 23.2716C70.8212 23.2892 70.8479 23.3007 70.8762 23.3051L71.1492 23.3359C71.1703 23.3381 71.1917 23.336 71.212 23.3297C71.2323 23.3234 71.2511 23.313 71.2673 23.2992C71.2834 23.2854 71.2966 23.2684 71.3059 23.2493C71.3152 23.2301 71.3206 23.2093 71.3216 23.1881C71.3503 22.751 71.3523 21.5977 70.7859 21.4499Z" fill="#F0C66C"/>
<path d="M57.2252 4.74934L70.431 6.44033C70.5317 6.4528 70.6276 6.49084 70.7095 6.55083C70.7914 6.61081 70.8566 6.69075 70.8989 6.78304L76.2612 18.4414C76.3063 18.5395 76.3242 18.648 76.3128 18.7553C76.3014 18.8627 76.2612 18.965 76.1964 19.0514C76.1317 19.1379 76.0448 19.2052 75.9449 19.2463C75.845 19.2873 75.7359 19.3007 75.6291 19.2849L62.8913 17.3969C62.7964 17.3829 62.7062 17.3463 62.6283 17.2903C62.5505 17.2342 62.4872 17.1603 62.4439 17.0747L56.6137 5.62356C56.5628 5.526 56.5397 5.41635 56.5468 5.30654C56.5539 5.19674 56.591 5.09099 56.6541 5.00083C56.7172 4.91066 56.8038 4.83954 56.9045 4.79519C57.0052 4.75085 57.1161 4.73499 57.2252 4.74934Z" fill="#264256"/>
<path d="M57.7464 36.8494H56.119V43.0901H57.7464V36.8494Z" fill="#F0C66C"/>
<path d="M61.149 42.8171H52.7166C52.4661 42.8171 52.2631 43.0202 52.2631 43.2707V47.5105C52.2631 47.7609 52.4661 47.964 52.7166 47.964H61.149C61.3994 47.964 61.6025 47.7609 61.6025 47.5105V43.2707C61.6025 43.0202 61.3994 42.8171 61.149 42.8171Z" fill="#E69724"/>
<path d="M73.265 20.038C71.7608 17.4749 68.9165 18.3963 67.5969 18.9996L68.0258 16.0876C68.0586 15.8656 68.0436 15.6391 67.9816 15.4233C67.9197 15.2076 67.8123 15.0076 67.6668 14.8368C67.5212 14.6659 67.3408 14.5282 67.1376 14.4328C66.9344 14.3374 66.7132 14.2866 66.4888 14.2837L48.3271 14.0416C48.0927 14.0386 47.8604 14.0845 47.6448 14.1763C47.4292 14.2682 47.2352 14.404 47.0751 14.5752C46.915 14.7463 46.7923 14.9489 46.715 15.1701C46.6376 15.3913 46.6072 15.6262 46.6258 15.8598L46.87 18.9524C45.5115 18.3368 42.7759 17.5405 41.3107 20.038C39.4412 23.223 44.0421 32.23 49.6712 29.9521C50.2347 30.589 50.8798 31.1486 51.59 31.6164L51.6352 31.6451C51.7809 31.7313 52.6099 32.2115 53.0922 32.4208C53.119 32.4329 53.1451 32.4466 53.1702 32.4619C54.6231 33.3258 56.5152 34.7459 56.1869 36.1558H57.7937C57.7937 36.1558 57.2704 34.1056 60.4143 32.8066C60.6196 32.741 61.0423 32.5747 61.1347 32.5378L61.1736 32.5234C62.5494 31.932 63.7618 31.0167 64.7075 29.8556C70.4207 32.4516 75.1592 23.262 73.265 20.038ZM43.1474 21.1482C44.1345 19.4655 45.9014 19.8041 46.9706 20.2186L47.303 24.3927C47.4208 25.917 47.9059 27.39 48.717 28.6859C44.8425 29.5232 41.8319 23.3892 43.1474 21.1482ZM65.5448 28.6079C66.1095 27.623 66.486 26.5415 66.655 25.4188L67.4061 20.3028C68.4445 19.8595 70.3776 19.3608 71.4283 21.1524C72.7787 23.4467 69.5773 29.8412 65.5448 28.6079Z" fill="#F0C66C"/>
<path d="M46.7119 16.9413H67.8103L67.6974 18.3285H46.8207L46.7119 16.9413Z" fill="#E69724"/>
<path d="M58.5939 36.1496H55.2756C55.1645 36.1496 55.0745 36.2396 55.0745 36.3507V37.3501C55.0745 37.4612 55.1645 37.5512 55.2756 37.5512H58.5939C58.705 37.5512 58.795 37.4612 58.795 37.3501V36.3507C58.795 36.2396 58.705 36.1496 58.5939 36.1496Z" fill="#E69724"/>
<path d="M61.3275 8.84756L58.3847 12.9396C58.2601 13.1118 58.1897 13.3171 58.1824 13.5295C58.1751 13.7419 58.2312 13.9516 58.3436 14.1319C59.3307 15.7018 62.3023 19.7364 67.2398 20.5511C67.4343 20.5802 67.6331 20.5549 67.8141 20.4782C67.9952 20.4014 68.1515 20.2761 68.2659 20.116L71.2497 15.9665C71.3636 15.8088 71.4322 15.623 71.4481 15.4291C71.464 15.2353 71.4267 15.0407 71.34 14.8666C70.4796 13.1375 69.2092 11.6452 67.6396 10.5198C66.07 9.39447 64.2489 8.67029 62.3351 8.41045C62.1433 8.3849 61.9481 8.41209 61.7706 8.4891C61.5931 8.56611 61.4399 8.69004 61.3275 8.84756Z" fill="#315782"/>
<path d="M30.5183 60.9398L30.4834 62.089L29.0038 62.0808L29.0099 60.9337L30.5183 60.9398Z" fill="#F3D6C1"/>
<path d="M29.0037 62.0808H30.4505C30.4723 62.0788 30.4943 62.0788 30.5162 62.0808C31.3567 62.2888 32.1691 62.5975 32.9357 63.0002C32.9902 63.0319 33.0328 63.0807 33.0568 63.139C33.0808 63.1974 33.085 63.262 33.0687 63.3229C33.0523 63.3839 33.0164 63.4377 32.9664 63.4762C32.9164 63.5147 32.8551 63.5356 32.792 63.5358L29.2828 63.5173C29.2072 63.5173 29.1346 63.4873 29.0811 63.4338C29.0276 63.3803 28.9976 63.3077 28.9976 63.2321L29.0037 62.0808Z" fill="#2F526E"/>
<path d="M19.7669 63.3204L19.73 64.4696L18.2504 64.4614L18.2565 63.3142L19.7669 63.3204Z" fill="#F3D6C1"/>
<path d="M18.2504 64.4614H19.6972C19.719 64.4593 19.741 64.4593 19.7629 64.4614C20.6034 64.6694 21.4158 64.9781 22.1824 65.3807C22.2369 65.4125 22.2795 65.4613 22.3035 65.5196C22.3275 65.5779 22.3317 65.6425 22.3154 65.7035C22.299 65.7644 22.2631 65.8183 22.2131 65.8567C22.1631 65.8952 22.1018 65.9162 22.0387 65.9163L18.5295 65.8979C18.4537 65.8973 18.3811 65.8668 18.3277 65.813C18.2742 65.7592 18.2443 65.6864 18.2443 65.6106L18.2504 64.4614Z" fill="#2F526E"/>
<path d="M22.3527 47.9927L20.9161 55.4687L18.0636 63.5481C18.0636 63.5481 17.9179 63.8129 18.316 63.938H19.8716C20.0075 63.9034 20.1241 63.8163 20.1958 63.6959L23.4013 57.6584L25.2483 51.586L29.5106 54.8182L28.5625 61.145C28.5625 61.145 28.5625 61.3256 28.8231 61.3256H30.5531C30.6079 61.3079 30.6573 61.2769 30.6971 61.2354C30.7369 61.1938 30.7657 61.143 30.7809 61.0876L32.4473 54.1102C32.4473 54.0876 32.4863 53.9522 32.2421 53.6444L28.2075 48.7191L22.3527 47.9927Z" fill="#F0C66C"/>
<path d="M32.9317 40.3771L34.0337 40.964L37.3685 38.446C37.3685 38.446 37.0483 37.8755 37.1222 37.4199C37.1961 36.9643 37.3274 36.8761 37.4239 36.952C37.5203 37.028 37.508 37.58 37.7071 37.6846C37.9061 37.7893 37.9923 37.6846 38.2283 37.0526C38.4643 36.4205 38.569 36.1414 38.7639 36.1353C38.9589 36.1291 38.9384 36.5683 38.9384 36.5683C38.9863 36.5447 39.0389 36.5325 39.0923 36.5325C39.1456 36.5325 39.1983 36.5447 39.2462 36.5683C39.2849 36.5981 39.3133 36.6392 39.3277 36.6859C39.342 36.7325 39.3415 36.7825 39.3262 36.8289C39.3712 36.8181 39.4183 36.8191 39.4628 36.8316C39.5074 36.8442 39.5479 36.868 39.5807 36.9007C39.6211 36.9415 39.648 36.9936 39.6579 37.0501C39.6678 37.1065 39.6602 37.1647 39.6361 37.2168C39.6361 37.2168 39.8803 37.1162 39.8824 37.4774C39.8844 37.8386 39.71 39.0062 38.2406 39.2853C38.2406 39.2853 34.7519 43.4697 34.204 43.4656C33.6561 43.4615 32.0636 42.9197 32.0636 42.9197L32.9317 40.3771Z" fill="#F3D6C1"/>
<path d="M22.8021 49.2363H21.8335C21.7837 48.7315 21.5746 48.2557 21.2363 47.8777C20.8259 47.4406 20.2349 47.219 19.4961 47.219C18.2279 47.219 17.6163 47.9024 17.3269 48.4749C17.2091 48.7164 17.1235 48.9724 17.0725 49.2363H16.0669C15.923 49.2368 15.7852 49.2944 15.6837 49.3963C15.5822 49.4982 15.5251 49.6362 15.5251 49.7801V53.9029C15.5251 54.0466 15.5822 54.1844 15.6838 54.286C15.7854 54.3876 15.9232 54.4447 16.0669 54.4447H22.8021C22.9458 54.4447 23.0836 54.3876 23.1852 54.286C23.2868 54.1844 23.3439 54.0466 23.3439 53.9029V49.7801C23.3439 49.6362 23.2869 49.4982 23.1854 49.3963C23.0838 49.2944 22.946 49.2368 22.8021 49.2363ZM19.4961 47.9496C19.686 47.9268 19.8786 47.9422 20.0625 47.9949C20.2464 48.0475 20.418 48.1364 20.5671 48.2562C20.7162 48.3761 20.8398 48.5245 20.9308 48.6928C21.0218 48.8611 21.0782 49.0459 21.0968 49.2363H17.8133C17.9344 48.713 18.3305 47.9496 19.4961 47.9496Z" fill="#315780"/>
<path d="M22.1146 41.9818L20.8833 42.2343L19.929 46.3037C19.929 46.3037 20.5447 46.5356 20.7786 46.9378C21.0126 47.3401 21.0146 47.6951 20.8977 47.6027C20.7997 47.5333 20.6944 47.4748 20.5837 47.4283C20.3887 47.336 20.2882 47.2128 20.1589 47.2395C19.9393 47.2867 19.7156 47.4201 19.966 47.8552C20.2163 48.2902 20.8443 48.3107 20.7068 48.4503C20.6626 48.4982 20.609 48.5364 20.5493 48.5625C20.4896 48.5886 20.4251 48.6021 20.36 48.6021C20.2948 48.6021 20.2304 48.5886 20.1707 48.5625C20.111 48.5364 20.0574 48.4982 20.0132 48.4503C20.0132 48.4503 19.9249 48.6555 19.7669 48.6699C19.6089 48.6842 19.5042 48.4236 19.5042 48.4236C19.4757 48.4732 19.4356 48.5151 19.3873 48.5458C19.3391 48.5765 19.2842 48.5952 19.2272 48.6001C19.0425 48.6001 18.9645 48.3538 18.9645 48.3538C18.9385 48.3919 18.9039 48.4233 18.8636 48.4456C18.8232 48.4679 18.7782 48.4804 18.7321 48.4822C18.6861 48.484 18.6402 48.475 18.5983 48.4559C18.5563 48.4368 18.5194 48.4082 18.4905 48.3723C18.2586 48.0953 17.7784 47.3811 18.7306 46.2237C18.7306 46.2237 18.7306 40.7793 19.1615 40.4304C19.5925 40.0815 21.1562 39.4823 21.1562 39.4823L22.1146 41.9818Z" fill="#F3D6C1"/>
<path d="M22.1803 48.2594C22.9807 48.5755 26.0323 49.6734 28.5195 49.1193C28.572 49.1077 28.6191 49.0787 28.653 49.0369C28.6869 48.9952 28.7057 48.9432 28.7062 48.8894C28.7186 48.1055 28.8006 45.0929 29.3219 44.0956C29.7077 43.3568 29.9376 42.8766 30.0463 42.6283C30.0712 42.5728 30.1161 42.5289 30.1721 42.5053C30.2281 42.4816 30.2909 42.4801 30.348 42.501L32.1375 43.1557C32.1672 43.1668 32.1989 43.1719 32.2307 43.1707C32.2624 43.1694 32.2936 43.1619 32.3224 43.1486C32.3512 43.1352 32.3771 43.1163 32.3986 43.0928C32.42 43.0694 32.4366 43.0419 32.4474 43.012L33.3011 40.6479C33.3218 40.5901 33.3197 40.5265 33.2954 40.4701C33.271 40.4137 33.2261 40.3687 33.1697 40.3442C32.5151 40.059 30.4342 39.197 28.7719 38.9487C26.7936 38.6512 26.0877 36.5395 20.7377 39.4926C20.6908 39.5187 20.655 39.5611 20.6373 39.6117C20.6195 39.6624 20.6209 39.7178 20.6412 39.7675L21.5626 41.9818C21.5864 42.0399 21.6319 42.0863 21.6894 42.1112C21.7469 42.1361 21.8119 42.1376 21.8705 42.1152L23.3993 41.5324C23.441 41.5162 23.4863 41.5119 23.5302 41.5201C23.5742 41.5282 23.615 41.5485 23.648 41.5785C23.6811 41.6086 23.7051 41.6473 23.7173 41.6903C23.7296 41.7332 23.7296 41.7788 23.7174 41.8218L22.0367 47.9783C22.0231 48.0346 22.03 48.0939 22.0564 48.1455C22.0828 48.1971 22.1267 48.2375 22.1803 48.2594Z" fill="#315782"/>
<path d="M30.2823 33.451C30.2823 33.451 30.3254 33.9209 30.8261 34.9162C31.3268 35.9115 31.175 37.4404 30.3849 37.7359C30.0519 37.8746 29.6844 37.9075 29.3321 37.8303L29.0161 39.4392L27.046 38.6676L27.2512 37.3029L26.8593 34.2247L30.2823 33.451Z" fill="#F3D6C1"/>
<path d="M30.8302 32.5111C30.834 32.4759 30.829 32.4402 30.8158 32.4074C30.8025 32.3745 30.7813 32.3454 30.7541 32.3227C30.7269 32.2999 30.6945 32.2843 30.6598 32.277C30.6251 32.2698 30.5892 32.2713 30.5552 32.2813C30.2535 32.3736 29.6666 32.4598 28.6077 32.3182C26.5822 32.0473 25.5397 33.7978 25.5561 35.0681C25.5684 36.1537 26.732 36.7673 27.0993 37.2249C27.1178 37.2488 27.1414 37.2683 27.1683 37.2821C27.1952 37.2958 27.2247 37.3034 27.2549 37.3044C27.2851 37.3054 27.3152 37.2997 27.3429 37.2877C27.3706 37.2758 27.3954 37.2578 27.4154 37.2352C27.6206 37.03 27.9181 36.7037 27.9264 36.5785C27.9428 36.3733 27.3682 36.3507 27.3374 35.7576C27.3066 35.1646 28.0926 35.0927 28.3204 35.5524C28.5482 36.0121 28.4414 34.434 28.8642 34.2842C29.2521 34.1426 30.6906 33.8122 30.8302 32.5111Z" fill="#2F5482"/>
<path d="M27.1261 38.3475C27.1261 38.3475 26.6417 39.5316 27.8484 39.9892C29.0551 40.4468 29.092 39.0021 29.092 39.0021L27.1261 38.3475Z" fill="#F3D6C1"/>
<path d="M35.6016 63.2197C35.5999 63.2599 35.6062 63.3 35.6201 63.3377C35.6339 63.3755 35.6551 63.4101 35.6824 63.4396C35.7096 63.4692 35.7424 63.4931 35.7789 63.5099C35.8154 63.5268 35.8549 63.5362 35.895 63.5378H64.215C66.3143 63.5378 68.0176 62.0131 68.0176 60.1333V59.021C68.0176 57.1412 66.3143 55.6165 64.215 55.6165H35.895C35.8549 55.618 35.8154 55.6275 35.7789 55.6444C35.7424 55.6612 35.7096 55.6851 35.6824 55.7147C35.6551 55.7442 35.6339 55.7788 35.6201 55.8166C35.6062 55.8543 35.5999 55.8944 35.6016 55.9345V55.9961C35.5988 56.0769 35.6277 56.1557 35.6821 56.2155C35.7366 56.2753 35.8122 56.3115 35.893 56.3162H36.2644L36.2849 62.9017H35.8971C35.8567 62.9032 35.8169 62.9128 35.7802 62.9297C35.7434 62.9467 35.7104 62.9707 35.683 63.0005C35.6555 63.0302 35.6342 63.065 35.6202 63.103C35.6063 63.141 35.5999 63.1814 35.6016 63.2218V63.2197Z" fill="#315782"/>
<path d="M55.251 56.2875L36.2377 56.3142L36.2582 62.8996H55.448C56.4351 62.8996 57.2355 62.0357 57.2355 60.9665V58.4341C57.2355 57.248 56.3469 56.2875 55.251 56.2875Z" fill="#F9ECDC"/>
<path d="M62.0601 59.9096V59.2447C62.0601 59.0474 61.9002 58.8876 61.703 58.8876H58.9715C58.7743 58.8876 58.6145 59.0474 58.6145 59.2447V59.9096C58.6145 60.1068 58.7743 60.2666 58.9715 60.2666H61.703C61.9002 60.2666 62.0601 60.1068 62.0601 59.9096Z" fill="#E69724"/>
<path d="M56.1745 57.3136H36.2849" stroke="#F0C66C" stroke-width="0.205217" stroke-miterlimit="10" stroke-linecap="round"/>
<path d="M54.7401 58.3068H36.2849" stroke="#F0C66C" stroke-width="0.205217" stroke-miterlimit="10" stroke-linecap="round"/>
<path d="M56.1745 60.1046H36.2849" stroke="#F0C66C" stroke-width="0.205217" stroke-miterlimit="10" stroke-linecap="round"/>
<path d="M56.4865 61.9699H36.2849" stroke="#F0C66C" stroke-width="0.205217" stroke-miterlimit="10" stroke-linecap="round"/>
<path d="M75.9123 71.6952C75.9123 71.884 75.7071 72.0379 75.4403 72.0379H30.1017C26.7382 72.0379 24.0129 70.3962 24.0129 68.3748V67.1804C24.0129 65.157 26.7382 63.5153 30.1017 63.5153H75.4403C75.7009 63.5153 75.9123 63.6692 75.9123 63.86V63.9216C75.9123 64.1104 75.7071 64.2643 75.4444 64.2643H74.8513L74.8185 71.3484H75.4342C75.6948 71.3484 75.9062 71.5023 75.9062 71.6932L75.9123 71.6952Z" fill="#E69724"/>
<path d="M44.2473 64.2377L74.8595 64.2685L74.8267 71.3525H44.4074C42.6836 71.3525 41.286 70.3265 41.286 69.0808V66.3966C41.2799 65.2042 42.6076 64.2377 44.2473 64.2377Z" fill="#F9ECDC"/>
<path d="M36.8122 66.0415H35.8169C35.529 66.0415 35.2957 66.2749 35.2957 66.5628V69.5343C35.2957 69.8222 35.529 70.0555 35.8169 70.0555H36.8122C37.1001 70.0555 37.3335 69.8222 37.3335 69.5343V66.5628C37.3335 66.2749 37.1001 66.0415 36.8122 66.0415Z" fill="#315780"/>
<path d="M33.6909 66.0599H32.6956C32.4077 66.0599 32.1743 66.2933 32.1743 66.5812V69.5527C32.1743 69.8406 32.4077 70.074 32.6956 70.074H33.6909C33.9787 70.074 34.2121 69.8406 34.2121 69.5527V66.5812C34.2121 66.2933 33.9787 66.0599 33.6909 66.0599Z" fill="#315780"/>
<path d="M44.6926 65.3417H74.8185" stroke="#F0C66C" stroke-width="0.205217" stroke-miterlimit="10" stroke-linecap="round"/>
<path d="M48.8073 67.7242H74.837" stroke="#F0C66C" stroke-width="0.205217" stroke-miterlimit="10" stroke-linecap="round"/>
<path d="M42.267 68.6169H74.8185" stroke="#F0C66C" stroke-width="0.205217" stroke-miterlimit="10" stroke-linecap="round"/>
<path d="M43.6071 70.624H74.8185" stroke="#F0C66C" stroke-width="0.205217" stroke-miterlimit="10" stroke-linecap="round"/>
<path d="M70.0698 55.3805C70.0731 55.4596 70.045 55.5369 69.9915 55.5953C69.9381 55.6538 69.8636 55.6887 69.7845 55.6924H42.3388C40.3051 55.6924 38.6449 54.2046 38.6449 52.372V51.2762C38.6449 49.4415 40.2866 47.9557 42.3388 47.9557H69.7845C69.8636 47.9595 69.9381 47.9944 69.9915 48.0528C70.045 48.1113 70.0731 48.1885 70.0698 48.2677V48.3231C70.0726 48.4017 70.0446 48.4784 69.9916 48.5367C69.9387 48.595 69.8651 48.6302 69.7866 48.635H69.4274L69.4069 55.0542H69.7845C69.8236 55.0558 69.862 55.0651 69.8975 55.0815C69.933 55.0979 69.9649 55.1212 69.9914 55.15C70.0179 55.1788 70.0385 55.2125 70.0519 55.2492C70.0654 55.286 70.0714 55.325 70.0698 55.3641V55.3805Z" fill="#F0C66C"/>
<path d="M50.9026 48.6186L69.4316 48.6453L69.4111 55.0645H50.9949C49.9524 55.0645 49.1049 54.143 49.1049 53.0123V50.5743C49.1049 49.4949 49.9093 48.6186 50.9026 48.6186Z" fill="#F9ECDC"/>
<path d="M46.1948 50.2521H46.0039C45.716 50.2521 45.4827 50.4855 45.4827 50.7734V53.3694C45.4827 53.6573 45.716 53.8906 46.0039 53.8906H46.1948C46.4826 53.8906 46.716 53.6573 46.716 53.3694V50.7734C46.716 50.4855 46.4826 50.2521 46.1948 50.2521Z" fill="#E69724"/>
<path d="M44.3068 50.2685H44.116C43.8281 50.2685 43.5947 50.5019 43.5947 50.7897V53.3857C43.5947 53.6736 43.8281 53.907 44.116 53.907H44.3068C44.5947 53.907 44.8281 53.6736 44.8281 53.3857V50.7897C44.8281 50.5019 44.5947 50.2685 44.3068 50.2685Z" fill="#E69724"/>
<path d="M51.1714 49.6201H69.407" stroke="#F0C66C" stroke-width="0.205217" stroke-miterlimit="10" stroke-linecap="round"/>
<path d="M53.6626 51.7769H69.4192" stroke="#F0C66C" stroke-width="0.205217" stroke-miterlimit="10" stroke-linecap="round"/>
<path d="M49.704 52.5854H69.4069" stroke="#F0C66C" stroke-width="0.205217" stroke-miterlimit="10" stroke-linecap="round"/>
<path d="M50.5146 54.4036H69.4069" stroke="#F0C66C" stroke-width="0.205217" stroke-miterlimit="10" stroke-linecap="round"/>
<path d="M12.4695 71.884C12.4742 71.9545 12.5067 72.0202 12.5598 72.0667C12.6129 72.1132 12.6822 72.1369 12.7527 72.1323H39.9911C42.0105 72.1323 43.6481 70.94 43.6481 69.4645V68.5965C43.6481 67.1251 42.0064 65.9286 39.9911 65.9286H12.7527C12.7176 65.9264 12.6825 65.9311 12.6493 65.9425C12.616 65.9539 12.5854 65.9717 12.5591 65.995C12.5328 66.0183 12.5113 66.0465 12.4959 66.0781C12.4806 66.1096 12.4716 66.1439 12.4695 66.179V66.2241C12.4716 66.2589 12.4805 66.293 12.4958 66.3243C12.5111 66.3556 12.5324 66.3836 12.5585 66.4067C12.5846 66.4298 12.615 66.4474 12.648 66.4587C12.681 66.47 12.7158 66.4747 12.7506 66.4725H13.1057L13.1262 71.6275H12.7527C12.7176 71.6253 12.6825 71.63 12.6493 71.6414C12.616 71.6528 12.5854 71.6706 12.5591 71.6939C12.5328 71.7171 12.5113 71.7454 12.4959 71.777C12.4806 71.8085 12.4716 71.8428 12.4695 71.8779V71.884Z" fill="#F0C66C"/>
<path d="M31.3699 66.4622L13.1056 66.4847L13.1261 71.6398H31.5587C32.5068 71.6398 33.2764 70.9626 33.2764 70.1253V68.1429C33.2764 67.2091 32.4227 66.4622 31.3699 66.4622Z" fill="#F9ECDC"/>
<path d="M32.2544 67.2605H13.1261" stroke="#F0C66C" stroke-width="0.205217" stroke-miterlimit="10" stroke-linecap="round"/>
<path d="M30.8753 68.0362H13.1261" stroke="#F0C66C" stroke-width="0.205217" stroke-miterlimit="10" stroke-linecap="round"/>
<path d="M32.2544 69.444H13.1261" stroke="#F0C66C" stroke-width="0.205217" stroke-miterlimit="10" stroke-linecap="round"/>
<path d="M32.554 70.9052H13.1261" stroke="#F0C66C" stroke-width="0.205217" stroke-miterlimit="10" stroke-linecap="round"/>
<path d="M1.79614 72.1302H82.8261" stroke="#315782" stroke-width="0.205217" stroke-miterlimit="10" stroke-linecap="round"/>
</svg>
