<svg width="86" height="55" viewBox="0 0 86 55" fill="none" xmlns="http://www.w3.org/2000/svg">
<path d="M52.4489 51.3538C40.9212 46.3287 39.3442 44.9428 29.6559 49.9395C17.2623 56.3299 -1.74927 53.8142 0.129603 41.8725C2.67533 25.7006 28.9416 32.4165 26.4402 19.2549C24.5976 9.55869 31.4289 1.10296 41.6339 0.883313C56.7424 0.546727 61.3613 9.98851 60.8983 19.3323C60.6423 24.5012 60.843 28.6224 67.916 29.4457C83.9931 31.3072 80.8138 43.734 79.8925 46.2939C76.386 56.0359 63.226 56.0518 52.4489 51.3538Z" fill="#E7F4FA"/>
<path d="M71.3894 15.2538C68.9375 15.2538 66.586 16.2277 64.8522 17.9613C63.1183 19.6949 62.144 22.0462 62.1436 24.4981H71.3894V15.2538Z" fill="#C1DEE8"/>
<path d="M71.2615 34.7299H71.3563L71.2615 25.4857H62.0156C62.0156 26.6998 62.2548 27.902 62.7195 29.0237C63.1841 30.1453 63.8652 31.1645 64.7238 32.0229C65.5823 32.8813 66.6016 33.5622 67.7233 34.0267C68.8451 34.4912 70.0473 34.7301 71.2615 34.7299Z" fill="#C1DEE8"/>
<path d="M81.242 26.0798C81.242 23.7861 80.3308 21.5863 78.7089 19.9644C77.087 18.3425 74.8872 17.4313 72.5935 17.4313V26.0798L72.682 34.7283C74.9605 34.7054 77.1378 33.7841 78.7408 32.1646C80.3437 30.5451 81.2426 28.3584 81.242 26.0798Z" fill="#C1DEE8"/>
<path d="M68.9732 22.0029C68.7678 22.1328 68.5288 22.1999 68.2858 22.1956C68.1093 22.1999 67.934 22.1654 67.7723 22.0944C67.6106 22.0234 67.4666 21.9177 67.3503 21.7848C67.1604 21.5622 67.0445 21.2861 67.0184 20.9947H66.7324V20.7703H66.9947V20.6976C66.9947 20.6233 66.9947 20.5538 67.0042 20.489H66.7324V20.2583H67.0358C67.0806 19.9663 67.2128 19.6946 67.4151 19.4793C67.5318 19.3552 67.6732 19.257 67.8303 19.1911C67.9874 19.1252 68.1566 19.0931 68.3269 19.0968C68.5406 19.0957 68.7515 19.1461 68.9416 19.2438L68.8483 19.5488C68.69 19.4621 68.5121 19.4175 68.3316 19.4192C68.218 19.4162 68.105 19.4374 68.0001 19.4812C67.8953 19.5251 67.8009 19.5906 67.7232 19.6736C67.574 19.8361 67.4776 20.0399 67.4467 20.2583H68.733V20.489H67.4056C67.4056 20.5491 67.3961 20.6186 67.3961 20.6834V20.7671H68.733V20.9915H67.4214C67.4437 21.2142 67.5323 21.425 67.6758 21.5967C67.7598 21.6837 67.8608 21.7523 67.9726 21.7983C68.0844 21.8442 68.2044 21.8665 68.3253 21.8638C68.523 21.8586 68.7163 21.8043 68.8878 21.7058L68.9732 22.0029Z" fill="#E7F4FA"/>
<path d="M66.9601 30.2532V30.0209C67.1136 29.9481 67.2439 29.8343 67.3368 29.6921C67.4297 29.5499 67.4814 29.3848 67.4863 29.215C67.4871 29.1091 67.4791 29.0034 67.4626 28.8989H66.9885V28.5987H67.4215C67.3915 28.4344 67.3746 28.2679 67.3709 28.1009C67.3642 27.9823 67.3824 27.8636 67.4243 27.7524C67.4662 27.6412 67.5309 27.54 67.6143 27.4554C67.6976 27.3707 67.7977 27.3044 67.9082 27.2607C68.0187 27.217 68.1371 27.197 68.2559 27.2018C68.4312 27.1941 68.6054 27.2339 68.7599 27.3171L68.6667 27.6221C68.5399 27.5566 68.3985 27.5245 68.2559 27.5289C67.8972 27.5289 67.7486 27.7786 67.7486 28.1057C67.7508 28.2714 67.7693 28.4366 67.8039 28.5987H68.4692V28.8894H67.8371C67.8586 29.0616 67.8522 29.2361 67.8181 29.4062C67.7684 29.6015 67.6577 29.7758 67.5021 29.9039V29.9134H68.8769V30.25L66.9601 30.2532Z" fill="#E7F4FA"/>
<path d="M76.4287 28.3443V27.8592C76.1688 27.8585 75.9142 27.7852 75.6938 27.6474L75.8076 27.3314C76.0133 27.4662 76.2538 27.5382 76.4998 27.5384C76.8411 27.5384 77.0718 27.3424 77.0718 27.0643C77.0718 26.7862 76.8853 26.6361 76.5298 26.4923C76.0383 26.3011 75.7397 26.0798 75.7397 25.6611C75.7397 25.2423 76.0225 24.9595 76.465 24.8868V24.4016H76.7637V24.8757C76.9825 24.8778 77.1973 24.9354 77.3878 25.0432L77.2677 25.3593C77.0841 25.2525 76.8749 25.1979 76.6625 25.2012C76.2927 25.2012 76.1521 25.4225 76.1521 25.6137C76.1521 25.8649 76.3307 25.9898 76.7494 26.162C77.244 26.3643 77.4937 26.6139 77.4937 27.0422C77.4899 27.2478 77.4105 27.4448 77.2705 27.5956C77.1306 27.7463 76.94 27.8401 76.7352 27.8592V28.3585L76.4287 28.3443Z" fill="#E7F4FA"/>
<path d="M69.0933 36.2248H62.8435C62.5765 36.2248 62.36 36.4413 62.36 36.7084V39.8735C62.36 40.1406 62.5765 40.3571 62.8435 40.3571H69.0933C69.3603 40.3571 69.5768 40.1406 69.5768 39.8735V36.7084C69.5768 36.4413 69.3603 36.2248 69.0933 36.2248Z" fill="#B757CE"/>
<path d="M68.2146 36.9896H63.7221C63.455 36.9896 63.2385 37.2061 63.2385 37.4732V39.6333C63.2385 39.9004 63.455 40.1169 63.7221 40.1169H68.2146C68.4817 40.1169 68.6982 39.9004 68.6982 39.6333V37.4732C68.6982 37.2061 68.4817 36.9896 68.2146 36.9896Z" fill="#E7F4FA"/>
<path d="M75.2641 38.4908H57.2449C56.9177 38.4908 56.6523 38.7562 56.6523 39.0834V51.4786C56.6523 51.8059 56.9177 52.0712 57.2449 52.0712H75.2641C75.5914 52.0712 75.8567 51.8059 75.8567 51.4786V39.0834C75.8567 38.7562 75.5914 38.4908 75.2641 38.4908Z" fill="#DA86EF"/>
<path d="M72.0641 39.0724H57.9401C56.8166 39.0044 56.6554 39.9415 56.6554 40.0774C56.6554 45.2731 60.4985 49.6124 65.0037 49.6124C69.5089 49.6124 73.1686 45.398 73.1686 40.2022C73.1655 39.1751 72.5824 39.0692 72.0641 39.0724Z" fill="#D07CE5"/>
<path d="M72.0641 38.4909H57.9401C56.8166 38.4229 56.6554 39.36 56.6554 39.4959C56.6554 44.6916 60.4985 49.0309 65.0037 49.0309C69.5089 49.0309 73.1686 44.8165 73.1686 39.6207C73.1655 38.5936 72.5824 38.4861 72.0641 38.4909Z" fill="#E295F4"/>
<path d="M72.2111 38.494L74.0836 38.4877L72.7467 40.0237L72.2111 38.494Z" fill="#E295F4"/>
<path d="M66.4275 47.803H64.1172C63.9497 47.803 63.8138 47.9389 63.8138 48.1064V49.3864C63.8138 49.554 63.9497 49.6898 64.1172 49.6898H66.4275C66.5951 49.6898 66.7309 49.554 66.7309 49.3864V48.1064C66.7309 47.9389 66.5951 47.803 66.4275 47.803Z" fill="#FFC91D"/>
<path d="M74.8327 52.0712H74.1911C73.9194 52.0704 73.659 51.9621 73.4668 51.7699C73.2747 51.5778 73.1664 51.3174 73.1655 51.0456V39.5101C73.1664 39.2383 73.2747 38.978 73.4668 38.7858C73.659 38.5937 73.9194 38.4854 74.1911 38.4845L74.7995 38.494C75.0736 38.4914 75.3378 38.5963 75.5354 38.7863C75.7331 38.9762 75.8484 39.2361 75.8566 39.5101V51.0456C75.8558 51.3171 75.7477 51.5773 75.5559 51.7694C75.3641 51.9615 75.1041 52.07 74.8327 52.0712Z" fill="#B757CE"/>
<path d="M14.2188 18.4205H12.4647V24.1488H14.2188V18.4205Z" fill="#C1DEE8"/>
<path d="M13.5392 15.494H13.1442V27.5415H13.5392V15.494Z" fill="#C1DEE8"/>
<path d="M16.5717 21.69H15.1416V26.3595H16.5717V21.69Z" fill="#C1DEE8"/>
<path d="M16.0187 19.3039H15.6963V29.1249H16.0187V19.3039Z" fill="#C1DEE8"/>
<path d="M19.0527 22.8309H17.6226V27.5004H19.0527V22.8309Z" fill="#C1DEE8"/>
<path d="M18.498 20.4448H18.1757V30.2658H18.498V20.4448Z" fill="#C1DEE8"/>
<path d="M21.5605 20.8051H20.1304V25.4746H21.5605V20.8051Z" fill="#C1DEE8"/>
<path d="M21.0074 18.4205H20.6851V28.2416H21.0074V18.4205Z" fill="#C1DEE8"/>
<path d="M23.7696 18.9926H22.3395V23.6621H23.7696V18.9926Z" fill="#C1DEE8"/>
<path d="M23.2164 16.6064H22.894V26.4275H23.2164V16.6064Z" fill="#C1DEE8"/>
<path d="M25.236 24.0493H24.2737V27.1908H25.236V24.0493Z" fill="#C1DEE8"/>
<path d="M24.8631 22.4453H24.6466V29.0522H24.8631V22.4453Z" fill="#C1DEE8"/>
<path d="M26.9648 26.4528H26.0024V29.5942H26.9648V26.4528Z" fill="#C1DEE8"/>
<path d="M26.5903 24.8473H26.3738V31.4542H26.5903V24.8473Z" fill="#C1DEE8"/>
<path d="M29.0334 28.7283H27.7487V32.9206H29.0334V28.7283Z" fill="#C1DEE8"/>
<path d="M28.5355 26.5855H28.2463V35.4031H28.5355V26.5855Z" fill="#C1DEE8"/>
<path d="M30.9264 30.6166H29.9246V33.8893H30.9264V30.6166Z" fill="#C1DEE8"/>
<path d="M30.5393 28.9448H30.3134V35.8282H30.5393V28.9448Z" fill="#C1DEE8"/>
<path d="M34.0016 22.3521H32.2476V28.0804H34.0016V22.3521Z" fill="#C1DEE8"/>
<path d="M33.3219 19.4271H32.9269V31.4747H33.3219V19.4271Z" fill="#C1DEE8"/>
<path d="M36.3544 25.6232H34.9243V30.2927H36.3544V25.6232Z" fill="#C1DEE8"/>
<path d="M35.7998 23.237H35.4774V33.0581H35.7998V23.237Z" fill="#C1DEE8"/>
<path d="M38.8338 26.7625H37.4037V31.432H38.8338V26.7625Z" fill="#C1DEE8"/>
<path d="M38.2806 24.378H37.9583V34.199H38.2806V24.378Z" fill="#C1DEE8"/>
<path d="M41.3432 24.7382H39.9131V29.4078H41.3432V24.7382Z" fill="#C1DEE8"/>
<path d="M40.7886 22.3521H40.4662V32.1731H40.7886V22.3521Z" fill="#C1DEE8"/>
<path d="M43.5523 22.9258H42.1222V27.5953H43.5523V22.9258Z" fill="#C1DEE8"/>
<path d="M42.9977 20.5396H42.6753V30.3606H42.9977V20.5396Z" fill="#C1DEE8"/>
<path d="M45.0188 27.9824H44.0564V31.1239H45.0188V27.9824Z" fill="#C1DEE8"/>
<path d="M44.6442 26.3769H44.4277V32.9838H44.6442V26.3769Z" fill="#C1DEE8"/>
<path d="M46.7459 30.3843H45.7836V33.5258H46.7459V30.3843Z" fill="#C1DEE8"/>
<path d="M46.373 28.7804H46.1565V35.3873H46.373V28.7804Z" fill="#C1DEE8"/>
<path d="M48.816 32.6614H47.5312V36.8537H48.816V32.6614Z" fill="#C1DEE8"/>
<path d="M48.3166 30.5187H48.0275V39.3379H48.3166V30.5187Z" fill="#C1DEE8"/>
<path d="M50.7091 34.5498H49.7073V37.8224H50.7091V34.5498Z" fill="#C1DEE8"/>
<path d="M50.3203 32.8779H50.0944V39.7613H50.3203V32.8779Z" fill="#C1DEE8"/>
<path d="M40.2639 10.5147C42.059 8.37195 48.3009 4.24443 53.7431 11.8484C54.9362 13.5156 56.3299 16.5338 60.0845 17.0331C62.7346 17.3871 68.88 20.7956 65.0085 28.2305C61.137 35.6654 66.8004 33.5037 64.9484 38.897C62.3774 46.3872 47.1299 40.3571 42.7749 32.9569C35.931 21.3297 36.8459 14.6027 40.2639 10.5147Z" fill="#53424D"/>
<path d="M11.1272 33.3349L4.79602 39.7282L17.1898 52.0015L23.521 45.6081L11.1272 33.3349Z" fill="#8C8C1F"/>
<path d="M20.7166 43.7972L13.032 36.1837C12.1297 37.0939 10.5858 37.0339 9.535 36.0652L7.42542 38.1938C8.36406 39.1909 8.46994 40.6478 7.68615 41.5691L15.3786 49.1873C16.3125 48.3245 17.8596 48.4288 18.8835 49.4417L20.9852 47.3179C19.9534 46.2971 19.8396 44.7374 20.7166 43.7972Z" fill="#C2C23C"/>
<path d="M16.1308 40.3239C17.278 41.4601 17.248 43.3516 16.0629 44.5494C14.8777 45.7472 12.9862 45.7962 11.8374 44.66C10.6885 43.5238 10.7217 41.6323 11.9069 40.4345C13.0921 39.2367 14.9836 39.1861 16.1308 40.3239Z" fill="#8C8C1F"/>
<path d="M17.1423 32.0254L9.33496 36.0482L17.4732 51.8428L25.2806 47.82L17.1423 32.0254Z" fill="#969924"/>
<path d="M23.158 45.172L18.1187 35.3778C17.0125 35.9514 15.5682 35.3857 14.8587 34.1136L12.2577 35.4537C12.8534 36.7178 12.5342 38.14 11.5292 38.7611L16.5859 48.5584C17.7141 48.0417 19.1411 48.65 19.8142 49.9553L22.4074 48.6184C21.7168 47.31 22.0597 45.7804 23.158 45.172Z" fill="#C2C23C"/>
<path d="M19.8395 40.346C20.1095 40.8697 20.218 41.4617 20.1515 42.047C20.085 42.6324 19.8464 43.1849 19.4658 43.6347C19.0853 44.0844 18.5799 44.4112 18.0137 44.5738C17.4474 44.7363 16.8456 44.7273 16.2845 44.5478C15.7233 44.3684 15.228 44.0266 14.8612 43.5656C14.4943 43.1046 14.2724 42.5452 14.2234 41.9581C14.1745 41.371 14.3008 40.7826 14.5863 40.2672C14.8718 39.7519 15.3037 39.3328 15.8274 39.0629C16.5297 38.7015 17.3467 38.6336 18.099 38.8742C18.8513 39.1148 19.4773 39.6442 19.8395 40.346Z" fill="#969924"/>
<path d="M25.8513 43.1326L7.08838 43.2767L7.15748 52.2741L25.9204 52.1301L25.8513 43.1326Z" fill="#969924"/>
<path d="M22.3459 43.8478L10.7124 43.9379C10.7218 45.221 9.5035 46.2734 7.96753 46.335L7.99123 49.3374C9.46083 49.3738 10.6539 50.3251 10.7613 51.5324L22.4059 51.4423C22.4581 50.1781 23.7112 49.1462 25.2614 49.1352L25.2377 46.1391C23.6749 46.1533 22.3965 45.1325 22.3459 43.8478Z" fill="#C2C23C"/>
<path d="M16.2225 44.6537C17.9607 44.641 19.3829 45.9953 19.3908 47.6798C19.3987 49.3643 18.0066 50.7422 16.2683 50.7549C14.5301 50.7675 13.1079 49.4133 13.1079 47.7287C13.1079 46.0442 14.4843 44.6663 16.2225 44.6537Z" fill="#969924"/>
<path d="M41.1568 28.2195C41.6198 29.5895 39.6082 33.1181 35.5976 34.4755C31.587 35.8329 27.0945 34.5008 26.6315 33.1323C26.1685 31.7639 29.3447 24.2547 33.3806 27.9176C36.5141 30.7683 40.6938 26.851 41.1568 28.2195Z" fill="#FFBE9E"/>
<path d="M41.1204 25.6216C44.4515 24.6845 48.5932 27.2713 49.1068 29.5026C49.3865 30.7193 46.8028 31.8508 45.3964 32.87C42.9266 34.662 38.8575 35.9072 33.2794 35.7365C31.2361 35.6733 28.9922 31.2187 32.1732 29.5358C36.3418 27.3345 37.4843 26.6455 41.1204 25.6216Z" fill="#338FE2"/>
<path d="M39.2937 26.9695C41.6798 23.8091 53.4002 22.5544 56.1087 26.6234C56.1087 26.6234 56.9573 29.4236 57.4488 31.7812C56.755 34.071 55.2538 36.3022 55.1574 38.11C54.6455 47.5233 60.8589 46.7585 60.4685 48.9835C59.7764 52.9624 51.7774 55.4845 46.1407 54.5664C44.1449 54.2408 38.4925 52.4757 38.8955 51.417C42.4209 42.1395 37.1572 43.1809 37.1572 38.4956C37.1588 35.9578 38.3345 28.2368 39.2937 26.9695Z" fill="#56A9FF"/>
<path d="M36.9801 39.5022C39.2019 41.7145 42.1016 41.4695 43.9852 38.908C44.189 38.6315 43.764 38.3391 43.5617 38.6125C41.8882 40.8896 39.3078 41.0761 37.3546 39.134C37.1176 38.8969 36.7415 39.2635 36.9801 39.5022Z" fill="#338FE2"/>
<path d="M43.8446 38.6789C45.8246 41.1093 48.7338 41.1677 50.875 38.8164C51.1057 38.562 50.717 38.227 50.4847 38.4782C48.5884 40.5688 45.9953 40.4867 44.2571 38.3518C44.0453 38.0926 43.625 38.4182 43.8446 38.6789Z" fill="#338FE2"/>
<path d="M85.5259 51.9432H0.474064C0.212246 51.9432 0 52.1554 0 52.4172V54.4936C0 54.7555 0.212246 54.9677 0.474064 54.9677H85.5259C85.7878 54.9677 86 54.7555 86 54.4936V52.4172C86 52.1554 85.7878 51.9432 85.5259 51.9432Z" fill="#9DD2F2"/>
<path d="M26.7799 31.6722C27.0359 29.0127 33.3094 21.0216 33.3094 21.0216C33.4086 20.795 33.4756 20.5556 33.5085 20.3105C33.5496 19.9091 33.597 19.5046 33.6665 19.1064C33.7797 18.2951 34.0057 17.5037 34.3381 16.755C34.6208 16.2145 34.9908 15.7243 35.4332 15.3044C36.1743 14.5364 37.2567 13.7779 38.0832 13.1047C38.3581 12.8803 38.8812 12.539 39.251 12.4726C39.6207 12.4062 39.3537 13.4587 39.2747 13.6499C39.0034 14.366 38.6015 15.0256 38.0895 15.5951C36.8127 17.0537 37.5538 18.2072 36.6673 19.5583C36.4232 19.9278 36.2615 20.3454 36.1932 20.783C36.0905 21.3424 36.0352 21.916 35.9562 22.4833C35.8533 23.3053 35.7046 24.1209 35.5106 24.9263C35.2988 25.7717 35.0982 26.6219 34.809 27.4404C30.9185 38.4987 26.6519 32.9633 26.7799 31.6722Z" fill="#FFBE9E"/>
<path d="M58.852 50.8734H22.5529V51.9432H58.852V50.8734Z" fill="#2E1C66"/>
<path d="M42.3404 51.9432H19.2598L15.8655 33.2161H37.7862L42.3404 51.9432Z" fill="#4B5C9B"/>
<path d="M41.1946 51.9432H18.114L14.7197 33.2161H36.642L41.1946 51.9432Z" fill="#5969B2"/>
<path d="M58.9704 39.5022C59.1537 40.2575 62.2889 46.3761 61.4513 50.8276C61.1084 52.6575 56.0233 51.6177 56.0233 51.6177C56.0233 51.6177 56.3078 45.6666 54.5031 42.1364C51.861 36.9738 58.9704 39.5022 58.9704 39.5022Z" fill="#FFBE9E"/>
<path d="M59.6437 52.618C55.8512 54.0402 45.3333 52.934 45.3333 52.934L46.7871 50.1339L60.2805 47.1172C60.2805 47.1172 63.4441 51.1958 59.6437 52.618Z" fill="#FFBE9E"/>
<path d="M46.2261 49.9411C45.9812 49.7577 45.8311 49.467 45.643 49.2047C45.2922 48.718 44.8118 48.3751 44.333 48.0495C44.0675 47.8678 43.7009 47.1457 43.3248 47.2958C42.6927 47.5407 43.6029 48.5599 43.723 48.857C43.8431 49.1541 43.8337 49.4891 43.6235 49.6756C43.4764 49.7863 43.2954 49.8422 43.1115 49.8336C42.5368 49.8278 41.9628 49.7904 41.3922 49.7214C41.0936 49.6977 40.7981 49.6961 40.501 49.6914C40.2782 49.6914 39.9811 49.5902 39.7678 49.6487C39.723 49.6609 39.6812 49.6823 39.6452 49.7116C39.6092 49.7409 39.5798 49.7775 39.5588 49.8189C39.5378 49.8603 39.5257 49.9056 39.5233 49.952C39.5209 49.9983 39.5283 50.0447 39.545 50.088C39.624 50.2555 39.7899 50.2129 39.9337 50.246C40.2576 50.314 40.58 50.3914 40.9024 50.4704C40.9735 50.4878 41.3053 50.5178 41.3401 50.5968C41.5107 50.9793 40.6195 50.9129 40.4789 50.9129C40.1217 50.9018 39.7504 50.905 39.4391 51.1246C39.4168 51.1368 39.3975 51.1538 39.3825 51.1743C39.3675 51.1947 39.3571 51.2182 39.3522 51.2431C39.3522 51.3269 39.4328 51.379 39.5102 51.4012C39.9432 51.545 40.4141 51.5165 40.8439 51.6714C40.9134 51.6967 40.9924 51.7393 41.0019 51.8168C41.0509 52.1328 40.4631 52.2181 40.2734 52.264C40.1533 52.2924 40.0064 52.3414 39.9858 52.4726C39.9822 52.5149 39.9906 52.5575 40.0102 52.5953C40.0298 52.633 40.0597 52.6645 40.0965 52.6859C40.1682 52.7244 40.2475 52.7465 40.3287 52.7507C40.5656 52.7953 40.8054 52.8227 41.0462 52.8328C41.1599 52.8328 41.4981 52.7981 41.5329 52.9624C41.5366 52.9956 41.5276 53.0289 41.5076 53.0557C41.4309 53.1412 41.3318 53.2036 41.2216 53.2358C41.1663 53.2536 41.1169 53.2864 41.079 53.3304C41.0411 53.3745 41.0161 53.4281 41.0067 53.4855C41.0067 53.6435 41.1647 53.7257 41.2927 53.762C41.7762 53.8932 42.304 53.8379 42.797 53.811C43.3233 53.7826 43.8495 53.7272 44.3773 53.653C45.0309 53.5473 45.6787 53.4075 46.3178 53.2342C46.8108 53.1046 47.4239 53.1031 47.8822 52.8882C48.2235 52.7301 48.4368 52.3414 48.5143 51.94C48.5917 51.5387 48.549 51.161 48.5822 50.7691C48.6012 50.5305 48.6249 50.3361 48.4416 50.1844C48.2235 50.0043 46.6543 50.1402 46.4947 50.088C46.3973 50.0552 46.3063 50.0054 46.2261 49.9411Z" fill="#FFBE9E"/>
<path d="M50.8608 32.2553C50.3298 29.2861 50.8482 26.2631 53.1853 25.639C54.5127 25.285 56.8624 26.8131 57.7948 28.4691C59.5867 31.6501 61.6505 36.6862 61.2792 43.0893C61.1433 45.4327 56.0818 48.0511 54.3689 44.4783C52.1202 39.7898 51.6098 36.4366 50.8608 32.2553Z" fill="#338FE2"/>
<path d="M57.3681 9.98063C57.3681 9.98063 56.6301 8.08438 55.1558 8.51262C53.6815 8.94085 54.4463 9.4481 54.8919 9.49235L55.3359 9.53659C55.3359 9.53659 54.9172 9.99802 55.1637 10.2572C55.4102 10.5163 55.9222 10.0897 55.9222 10.0897C55.9222 10.0897 55.6346 10.7597 56.1861 10.8482C56.7376 10.9367 57.3681 9.98063 57.3681 9.98063Z" fill="#C9E1F9"/>
<path d="M59.7369 10.5732C59.7369 10.5732 61.6695 9.95218 62.2731 11.3633C62.8768 12.7744 61.995 12.5026 61.679 12.1866L61.3629 11.8706C61.3629 11.8706 61.2697 12.4853 60.9126 12.4584C60.5554 12.4315 60.5633 11.7647 60.5633 11.7647C60.5633 11.7647 60.2252 12.411 59.808 12.0381C59.3908 11.6651 59.7369 10.5732 59.7369 10.5732Z" fill="#C9E1F9"/>
<path d="M60.1524 11.1452C60.0234 11.4757 59.7992 11.7604 59.5083 11.9635C59.2174 12.1665 58.8728 12.2787 58.5182 12.2859C58.1635 12.2931 57.8146 12.195 57.5157 12.0039C57.2168 11.8128 56.9813 11.5374 56.839 11.2125C56.6966 10.8875 56.6538 10.5277 56.716 10.1784C56.7782 9.82915 56.9425 9.50617 57.1883 9.25032C57.434 8.99448 57.7501 8.81725 58.0966 8.74107C58.4431 8.66488 58.8044 8.69316 59.1348 8.82232C59.5777 8.99546 59.9337 9.33745 60.1246 9.77306C60.3154 10.2087 60.3254 10.7022 60.1524 11.1452Z" fill="#E79E30"/>
<path d="M60.0686 11.1136C59.9448 11.4262 59.7312 11.6951 59.4547 11.8864C59.1782 12.0777 58.8512 12.1829 58.5151 12.1885C58.1789 12.1942 57.8486 12.1002 57.5658 11.9183C57.283 11.7365 57.0604 11.4749 56.9261 11.1667C56.7918 10.8585 56.7518 10.5174 56.8112 10.1864C56.8705 9.85549 57.0266 9.54955 57.2596 9.30721C57.4927 9.06487 57.7923 8.89699 58.1207 8.82475C58.449 8.75251 58.7914 8.77915 59.1047 8.90132C59.3137 8.98262 59.5046 9.10449 59.6664 9.2599C59.8281 9.4153 59.9575 9.60118 60.0471 9.80682C60.1367 10.0125 60.1848 10.2338 60.1885 10.4581C60.1921 10.6824 60.1514 10.9051 60.0686 11.1136Z" fill="#FFB725"/>
<path d="M59.7337 10.9809C59.637 11.228 59.4692 11.4408 59.2515 11.5926C59.0338 11.7443 58.776 11.828 58.5107 11.8332C58.2454 11.8384 57.9845 11.7648 57.761 11.6217C57.5375 11.4786 57.3615 11.2725 57.2552 11.0294C57.1489 10.7863 57.1171 10.5171 57.1637 10.2558C57.2104 9.99463 57.3335 9.75312 57.5175 9.56187C57.7014 9.37062 57.9379 9.23821 58.1971 9.18139C58.4563 9.12457 58.7266 9.14589 58.9736 9.24265C59.1378 9.30671 59.2877 9.40253 59.4148 9.52461C59.5419 9.6467 59.6436 9.79264 59.7143 9.9541C59.7849 10.1156 59.8229 10.2894 59.8263 10.4656C59.8296 10.6417 59.7982 10.8169 59.7337 10.9809Z" fill="#E79E30"/>
<path d="M59.661 11.0125C59.5685 11.2492 59.4079 11.4531 59.1995 11.5985C58.9911 11.7439 58.7443 11.8243 58.4902 11.8294C58.2361 11.8345 57.9863 11.7641 57.7722 11.6272C57.5581 11.4903 57.3894 11.2929 57.2875 11.0601C57.1856 10.8274 57.155 10.5696 57.1996 10.3194C57.2442 10.0692 57.362 9.8379 57.5381 9.65468C57.7142 9.47146 57.9407 9.34458 58.1889 9.29008C58.4371 9.23559 58.6959 9.25592 58.9325 9.34852C59.2497 9.47264 59.5047 9.71764 59.6413 10.0297C59.7779 10.3417 59.785 10.6952 59.661 11.0125Z" fill="#D3841C"/>
<path d="M58.0807 11.2274L58.1518 11.0473C58.0407 11.0009 57.9413 10.9301 57.8611 10.8402L58.0049 10.6396C58.0798 10.731 58.1766 10.8022 58.2862 10.8466C58.3952 10.8892 58.4853 10.8766 58.5153 10.8007C58.5453 10.7249 58.5011 10.6601 58.3778 10.5558C58.2024 10.4088 58.0997 10.2587 58.1724 10.0817C58.2088 9.99695 58.2752 9.92852 58.3588 9.88947C58.4424 9.85043 58.5375 9.84349 58.6259 9.87L58.6954 9.68985L58.8819 9.76096L58.8171 9.92846C58.9112 9.96758 58.9962 10.0257 59.0668 10.0991L58.9277 10.2919C58.8593 10.2167 58.7744 10.1583 58.6796 10.1212C58.5564 10.0723 58.4963 10.1102 58.4758 10.1639C58.4552 10.2176 58.5011 10.2903 58.6338 10.4152C58.8298 10.5843 58.8787 10.7312 58.8124 10.8892C58.7745 10.978 58.7051 11.0495 58.6175 11.0901C58.53 11.1306 58.4305 11.1373 58.3383 11.1089L58.264 11.3017L58.0807 11.2274Z" fill="#FFC91D"/>
<path d="M25.6941 22.9429L26.228 22.9575L26.4066 16.4431L25.8727 16.4285L25.6941 22.9429Z" fill="#969924"/>
<path d="M26.1669 14.9172L27.7218 17.6921L24.465 17.6036L26.1669 14.9172Z" fill="#969924"/>
<path d="M72.6234 51.2684L71.6705 50.1433L74.0266 48.1491H76.6356L78.5065 44.7026L81.7175 44.562L84.0673 42.0905L85.134 43.105L82.3765 46.0079L79.4041 46.1375L77.511 49.6218H74.5655L72.6234 51.2684Z" fill="#FFB725"/>
<path d="M71.3468 48.2803L74.0221 52.1234L70.2722 52.1423L71.3468 48.2803Z" fill="#FFA030"/>
<path d="M60.3104 52.1012V53.141H60.3262C60.4842 53.4191 62.0376 53.6372 63.9228 53.6372C65.808 53.6372 67.3534 53.4191 67.5194 53.141H67.5352V52.1012H60.3104Z" fill="#F4A517"/>
<path d="M61.6252 52.1328V53.5124C61.9903 53.5566 62.4153 53.593 62.8815 53.6135V52.1328H61.6252Z" fill="#FFC91D"/>
<path d="M63.1169 52.3809V53.623L63.433 53.6309V52.3809H63.1169Z" fill="#FFC91D"/>
<path d="M67.5352 52.1012C67.5352 52.3604 65.917 52.5753 63.9228 52.5753C61.9286 52.5753 60.3104 52.3651 60.3104 52.1012C60.3104 51.8373 61.927 51.6271 63.9228 51.6271C65.9186 51.6271 67.5352 51.8405 67.5352 52.1012Z" fill="#FFC91D"/>
<path d="M66.6598 52.1297C66.6598 52.3256 65.4335 52.4852 63.9228 52.4852C62.4122 52.4852 61.1859 52.3272 61.1859 52.1297C61.1859 51.9321 62.4106 51.7741 63.9228 51.7741C65.4351 51.7741 66.6598 51.9321 66.6598 52.1297Z" fill="#F4A517"/>
<path d="M66.3849 52.1644C66.3849 52.3414 65.2787 52.4805 63.9229 52.4805C62.5671 52.4805 61.4609 52.3367 61.4609 52.1644C61.4609 51.9922 62.5671 51.8484 63.9229 51.8484C65.2787 51.8484 66.3849 51.9859 66.3849 52.1644Z" fill="#FFC91D"/>
<path d="M58.9436 50.7343V51.7741H58.9594C59.1253 52.0522 60.6708 52.2687 62.556 52.2687C64.4412 52.2687 65.9866 52.0522 66.1525 51.7741H66.1683V50.7343H58.9436Z" fill="#F4A517"/>
<path d="M60.2583 50.7659V52.1439C60.6233 52.1881 61.0484 52.2245 61.5146 52.245V50.7643L60.2583 50.7659Z" fill="#FFC91D"/>
<path d="M61.75 51.014V52.2561L62.066 52.264V51.014H61.75Z" fill="#FFC91D"/>
<path d="M66.1683 50.7344C66.1683 50.9935 64.5502 51.2084 62.556 51.2084C60.5617 51.2084 58.9436 50.9983 58.9436 50.7344C58.9436 50.4705 60.5602 50.2603 62.556 50.2603C64.5518 50.2603 66.1683 50.4736 66.1683 50.7344Z" fill="#FFC91D"/>
<path d="M65.293 50.7628C65.293 50.9587 64.0667 51.1183 62.556 51.1183C61.0453 51.1183 59.8191 50.9603 59.8191 50.7628C59.8191 50.5652 61.0438 50.4072 62.556 50.4072C64.0683 50.4072 65.293 50.5637 65.293 50.7628Z" fill="#F4A517"/>
<path d="M65.0179 50.7975C65.0179 50.9745 63.9118 51.1136 62.556 51.1136C61.2001 51.1136 60.0924 50.9698 60.0924 50.7975C60.0924 50.6253 61.1986 50.4815 62.556 50.4815C63.9134 50.4815 65.0179 50.6205 65.0179 50.7975Z" fill="#FFC91D"/>
<path d="M22.3758 39.0503C22.3758 39.0503 22.0993 34.4676 26.8636 33.8466C26.8636 33.8466 27.1544 38.1732 22.3758 39.0503Z" fill="#969924"/>
<path d="M22.2431 39.0503C22.2431 39.0503 22.5196 34.4676 17.7553 33.8466C17.7553 33.8466 17.4645 38.1732 22.2431 39.0503Z" fill="#969924"/>
<path d="M22.4437 33.2066H22.0676V47.1172H22.4437V33.2066Z" fill="#848419"/>
<path d="M25.5869 30.969C25.5909 31.5938 25.4097 32.2058 25.0661 32.7276C24.7225 33.2494 24.2319 33.6577 23.6563 33.9008C23.0808 34.1439 22.4461 34.211 21.8324 34.0935C21.2188 33.9761 20.6537 33.6794 20.2086 33.2409C19.7635 32.8024 19.4583 32.2418 19.3317 31.63C19.2051 31.0182 19.2626 30.3825 19.4971 29.8034C19.7316 29.2243 20.1324 28.7276 20.649 28.3762C21.1657 28.0248 21.7748 27.8344 22.3996 27.8291C22.8152 27.8256 23.2274 27.904 23.6126 28.06C23.9978 28.2159 24.3484 28.4463 24.6445 28.738C24.9406 29.0296 25.1762 29.3768 25.3379 29.7596C25.4996 30.1425 25.5842 30.5534 25.5869 30.969Z" fill="#FFB21B"/>
<path d="M25.4256 30.969C25.43 31.5628 25.2582 32.1446 24.9319 32.6407C24.6056 33.1369 24.1396 33.5252 23.5926 33.7564C23.0457 33.9877 22.4425 34.0516 21.8593 33.94C21.276 33.8285 20.739 33.5465 20.316 33.1297C19.893 32.7129 19.6031 32.1801 19.483 31.5985C19.3629 31.017 19.4179 30.4129 19.641 29.8626C19.8642 29.3123 20.2456 28.8406 20.7369 28.5071C21.2281 28.1735 21.8073 27.9932 22.4011 27.9888C22.7954 27.9858 23.1864 28.0606 23.5518 28.2088C23.9172 28.357 24.2498 28.5757 24.5306 28.8525C24.8115 29.1292 25.0351 29.4586 25.1886 29.8217C25.3422 30.1849 25.4227 30.5748 25.4256 30.969Z" fill="#FFC91D"/>
<path d="M24.7904 30.969C24.7944 31.4381 24.6592 31.8978 24.4019 32.29C24.1445 32.6821 23.7766 32.9891 23.3447 33.1721C22.9128 33.3551 22.4363 33.4058 21.9755 33.3178C21.5148 33.2298 21.0905 33.0071 20.7564 32.6779C20.4223 32.3486 20.1934 31.9277 20.0987 31.4683C20.0039 31.0088 20.0476 30.5317 20.2242 30.0971C20.4008 29.6626 20.7024 29.2902 21.0907 29.0271C21.4791 28.764 21.9368 28.6221 22.4058 28.6192C23.0334 28.6155 23.6368 28.8607 24.0838 29.3012C24.5309 29.7417 24.7849 30.3415 24.7904 30.969Z" fill="#FFB21B"/>
<path d="M24.6909 31.0702C24.6946 31.5188 24.5652 31.9584 24.319 32.3335C24.0729 32.7085 23.721 33.0021 23.3079 33.1771C22.8948 33.3521 22.4391 33.4006 21.9984 33.3165C21.5578 33.2325 21.1519 33.0196 20.8323 32.7048C20.5126 32.39 20.2935 31.9875 20.2027 31.5482C20.1119 31.1088 20.1534 30.6524 20.3221 30.2367C20.4907 29.821 20.7789 29.4646 21.1501 29.2127C21.5213 28.9608 21.9589 28.8247 22.4075 28.8215C22.7051 28.8192 23.0002 28.8756 23.276 28.9874C23.5518 29.0991 23.8029 29.2641 24.0149 29.4729C24.227 29.6817 24.3958 29.9303 24.5118 30.2043C24.6278 30.4784 24.6886 30.7726 24.6909 31.0702Z" fill="#FFE984"/>
<path d="M22.243 32.456V32.1147C22.0302 32.1098 21.8209 32.0586 21.6299 31.9646L21.7342 31.5442C21.918 31.6447 22.1236 31.6989 22.3331 31.7022C22.5385 31.7022 22.6776 31.6201 22.676 31.4763C22.6744 31.3325 22.5606 31.255 22.2936 31.1602C21.908 31.0338 21.6425 30.8552 21.6409 30.5076C21.6409 30.1916 21.859 29.9403 22.2446 29.8629V29.5215H22.597V29.8376C22.7769 29.8394 22.9545 29.8787 23.1184 29.9529L23.0173 30.3591C22.8549 30.2817 22.6773 30.2413 22.4974 30.2405C22.2651 30.2405 22.1909 30.3448 22.1909 30.446C22.1909 30.5471 22.3173 30.6372 22.6238 30.751C23.0537 30.8995 23.2275 31.0954 23.2291 31.4194C23.2306 31.7433 23.0078 32.0135 22.597 32.0878V32.456H22.243Z" fill="#FFB21B"/>
<path d="M24.4886 30.1552C24.568 30.0288 24.6337 29.8942 24.6846 29.7538C24.7474 29.8893 24.8248 30.0175 24.9153 30.1363C25.0417 30.2156 25.1763 30.2813 25.3166 30.3322C25.1812 30.3951 25.053 30.4724 24.9342 30.5629C24.8549 30.6894 24.7892 30.8239 24.7383 30.9643C24.6754 30.8289 24.598 30.7007 24.5076 30.5819C24.3811 30.5025 24.2466 30.4368 24.1062 30.3859C24.2416 30.323 24.3698 30.2457 24.4886 30.1552Z" fill="#F7F7FC"/>
<path d="M25.3498 43.9789C22.5054 40.9481 25.5615 40.9765 25.3498 39.9952C25.2091 39.3426 23.3208 39.9447 22.6634 40.0505C22.3642 40.0837 22.0618 40.0725 21.7659 40.0173C20.5617 39.7519 19.1237 39.3426 18.9831 39.9952C18.7729 40.9734 21.9982 41.2294 19.1411 44.2618C16.2841 47.2942 13.8616 50.7533 19.3829 52.7333C20.7909 53.2374 24.035 53.1126 25.0559 52.874C31.3104 51.4138 28.2037 47.0098 25.3498 43.9789Z" fill="#A3B4F2"/>
<path d="M25.3498 43.9789C22.5054 40.9481 25.5615 40.9765 25.3498 39.9952C25.2091 39.3426 23.3208 39.9447 22.6634 40.0505C22.3642 40.0837 22.0618 40.0725 21.7659 40.0173C20.5617 39.7519 19.1237 39.3426 18.9831 39.9952C18.7729 40.9734 21.9982 41.2294 19.1411 44.2618C16.2841 47.2942 13.8616 50.7533 19.3829 52.7333C20.7909 53.2374 24.035 53.1126 25.0559 52.874C31.3104 51.4138 28.2037 47.0098 25.3498 43.9789Z" fill="#DC4851"/>
<path d="M25.3499 43.9789C22.5055 40.948 25.5616 40.9765 25.3499 39.9952C25.2092 39.3425 23.3209 39.9446 22.6635 40.0505H22.6461C22.033 40.7 21.3709 41.7081 21.9177 42.6863C22.7583 44.1938 30.7337 49.1162 24.3828 52.9782C24.611 52.955 24.8378 52.9197 25.0623 52.8723C31.3105 51.4138 28.2038 47.0097 25.3499 43.9789Z" fill="#C63846"/>
<path d="M26.022 35.1871L22.3562 39.0653L22.5904 39.2867L26.2561 35.4084L26.022 35.1871Z" fill="#848419"/>
<path d="M18.6565 34.9183L18.427 35.1424L22.1381 38.944L22.3677 38.7199L18.6565 34.9183Z" fill="#848419"/>
<path d="M20.8974 35.775L20.5767 35.791L20.6517 37.2922L20.9725 37.2762L20.8974 35.775Z" fill="#848419"/>
<path d="M19.6699 37.3672L19.6329 37.6858L21.1241 37.8589L21.1611 37.5402L19.6699 37.3672Z" fill="#848419"/>
<path d="M25.606 36.2628L24.1969 36.7804L24.3075 37.0815L25.7166 36.5639L25.606 36.2628Z" fill="#848419"/>
<path d="M23.6978 35.9038L23.3826 35.9634L23.6613 37.4385L23.9765 37.3789L23.6978 35.9038Z" fill="#848419"/>
<path d="M20.173 42.4319C20.173 42.4319 19.917 42.6373 20.1904 42.7479C20.4638 42.8585 23.3018 43.2504 24.4048 42.5899C24.4048 42.5899 24.4981 42.3955 24.2468 42.3639C23.9955 42.3323 23.4045 42.8902 22.3853 42.6626C21.3661 42.4351 20.2852 42.2786 20.173 42.4319Z" fill="#FFC91D"/>
<path d="M23.3604 42.906C23.3604 42.906 25.0717 46.6131 27.3425 47.2452C29.8076 47.931 29.7255 47.3859 29.6275 47.1299C29.5295 46.8739 28.4407 46.9719 27.9161 46.877C26.6883 46.6637 26.0641 46.6606 23.5247 42.8886L23.3604 42.906Z" fill="#FFC91D"/>
<path d="M23.3856 42.8665C23.3856 42.8665 26.4971 45.4944 28.8263 45.1025C31.3546 44.6774 31.0386 44.2191 30.849 44.0295C30.6593 43.8399 29.7065 44.385 29.1913 44.5257C27.9872 44.8512 27.4215 45.1119 23.5231 42.7732L23.3856 42.8665Z" fill="#FFC91D"/>
<path d="M47.683 17.2891C47.683 17.2891 47.3101 21.7674 48.8429 23.572C49.821 24.724 42.9961 28.1341 42.9787 26.459C42.9613 24.31 44.0564 22.8846 42.443 20.6123L47.683 17.2891Z" fill="#FFBE9E"/>
<path d="M30.2358 13.4034C30.2358 13.4034 30.4997 11.5735 28.6366 9.53343C26.6345 7.34326 26.5824 0.0284439 31.6232 0L31.5442 13.4508L30.2358 13.4034Z" fill="#FFC91D"/>
<path d="M32.5541 13.4034C32.5541 13.4034 32.2917 11.5735 34.1548 9.53343C36.1554 7.34326 36.2091 0.0284439 31.1682 0L31.2472 13.4508L32.5541 13.4034Z" fill="#FFC91D"/>
<path d="M32.0073 12.3541L31.7513 12.2118C32.9333 10.1023 33.3315 5.29683 32.4371 3.78298C32.2791 3.51435 32.091 3.37687 31.8793 3.37687C31.7029 3.37076 31.5283 3.41399 31.3752 3.5017C31.5034 3.58694 31.6131 3.69724 31.6975 3.82596C31.782 3.95469 31.8395 4.09918 31.8666 4.25073C32.001 4.87175 31.7687 5.72349 31.4321 5.8499C31.3754 5.86752 31.3147 5.86727 31.2581 5.84918C31.2016 5.83108 31.152 5.79603 31.116 5.74877C30.8363 5.45485 30.5266 4.42455 30.8237 3.72926C30.8379 3.69765 30.8537 3.66289 30.8727 3.6297C30.771 3.61682 30.6684 3.61365 30.5661 3.62022C30.478 3.6245 30.3921 3.65001 30.3159 3.69458C30.2397 3.73915 30.1754 3.80146 30.1284 3.87622C29.0839 5.38058 31.1066 12.1723 31.1271 12.2419L30.8474 12.3256C30.7621 12.0412 28.7647 5.32843 29.8898 3.70871C29.9607 3.5986 30.0566 3.50683 30.1698 3.44091C30.2829 3.375 30.4101 3.3368 30.5408 3.32946C30.7163 3.3157 30.8928 3.32957 31.0639 3.37055C31.2867 3.1726 31.5785 3.07041 31.8761 3.08611C32.1922 3.08611 32.4719 3.27099 32.6852 3.63602C33.6317 5.24626 33.2493 10.1354 32.0073 12.3541ZM31.1571 3.71503C31.0878 3.82651 31.0411 3.95054 31.0197 4.08006C30.8964 4.72321 31.203 5.46907 31.3452 5.56704C31.47 5.47065 31.707 4.84489 31.5759 4.28865C31.5549 4.16728 31.5062 4.05239 31.4335 3.95291C31.3609 3.85342 31.2663 3.77202 31.1571 3.71503Z" fill="#F0F8FF"/>
<path d="M29.4962 12.283H33.2887C33.2887 12.283 33.6143 15.9822 31.6184 16.5179C29.6226 17.0536 29.5136 13.1126 29.4962 12.283Z" fill="#5969B2"/>
<path d="M33.3756 13.16H29.384C29.3453 13.1596 29.3084 13.1439 29.2811 13.1164C29.2539 13.0889 29.2386 13.0517 29.2386 13.013C29.2386 12.9745 29.254 12.9375 29.2812 12.9102C29.3085 12.883 29.3455 12.8676 29.384 12.8676H33.3756C33.4142 12.8676 33.4512 12.883 33.4784 12.9102C33.5057 12.9375 33.521 12.9745 33.521 13.013C33.521 13.0517 33.5058 13.0889 33.4785 13.1164C33.4513 13.1439 33.4143 13.1596 33.3756 13.16Z" fill="#4B5C9B"/>
<path d="M33.3756 13.7447H29.384C29.3455 13.7447 29.3085 13.7294 29.2812 13.7021C29.254 13.6748 29.2386 13.6378 29.2386 13.5993C29.2386 13.5606 29.2539 13.5234 29.2811 13.4959C29.3084 13.4684 29.3453 13.4527 29.384 13.4523H33.3756C33.4143 13.4527 33.4513 13.4684 33.4785 13.4959C33.5058 13.5234 33.521 13.5606 33.521 13.5993C33.521 13.6378 33.5057 13.6748 33.4784 13.7021C33.4512 13.7294 33.4142 13.7447 33.3756 13.7447Z" fill="#4B5C9B"/>
<path d="M33.3756 14.3278H29.384C29.3453 14.3274 29.3084 14.3117 29.2811 14.2842C29.2539 14.2567 29.2386 14.2195 29.2386 14.1808C29.2391 14.1424 29.2545 14.1056 29.2817 14.0785C29.3089 14.0513 29.3456 14.0358 29.384 14.0354H33.3756C33.4142 14.0354 33.4512 14.0507 33.4784 14.078C33.5057 14.1053 33.521 14.1423 33.521 14.1808C33.521 14.2195 33.5058 14.2567 33.4785 14.2842C33.4513 14.3117 33.4143 14.3274 33.3756 14.3278Z" fill="#4B5C9B"/>
<path d="M33.1672 14.9109H29.5801C29.5414 14.9109 29.5042 14.8956 29.4767 14.8684C29.4492 14.8412 29.4335 14.8042 29.4331 14.7655C29.4335 14.7268 29.4492 14.6898 29.4767 14.6626C29.5042 14.6354 29.5414 14.6201 29.5801 14.6201H33.1672C33.1862 14.6201 33.2051 14.6239 33.2228 14.6312C33.2404 14.6385 33.2564 14.6492 33.2699 14.6627C33.2834 14.6762 33.2942 14.6922 33.3015 14.7099C33.3088 14.7275 33.3125 14.7464 33.3125 14.7655C33.3125 14.7846 33.3088 14.8035 33.3015 14.8211C33.2942 14.8388 33.2834 14.8548 33.2699 14.8683C33.2564 14.8818 33.2404 14.8925 33.2228 14.8998C33.2051 14.9071 33.1862 14.9109 33.1672 14.9109Z" fill="#4B5C9B"/>
<path d="M33.0107 15.4956H29.7871C29.7484 15.4956 29.7112 15.4803 29.6837 15.4531C29.6562 15.4259 29.6406 15.3889 29.6401 15.3502C29.6401 15.3309 29.6439 15.3118 29.6513 15.2939C29.6587 15.2761 29.6695 15.2599 29.6832 15.2463C29.6968 15.2326 29.713 15.2218 29.7309 15.2144C29.7487 15.207 29.7678 15.2032 29.7871 15.2032H33.0107C33.0494 15.2036 33.0864 15.2193 33.1136 15.2468C33.1408 15.2743 33.1561 15.3115 33.1561 15.3502C33.1561 15.3693 33.1524 15.3882 33.145 15.4058C33.1377 15.4235 33.127 15.4395 33.1135 15.453C33.1 15.4665 33.084 15.4772 33.0664 15.4845C33.0487 15.4918 33.0298 15.4956 33.0107 15.4956Z" fill="#4B5C9B"/>
<path d="M32.6567 16.0802H30.0778C30.0391 16.0798 30.0021 16.0641 29.9749 16.0366C29.9476 16.0091 29.9324 15.972 29.9324 15.9333C29.9324 15.8947 29.9477 15.8577 29.975 15.8305C30.0022 15.8032 30.0392 15.7879 30.0778 15.7879H32.6567C32.6952 15.7879 32.7322 15.8032 32.7595 15.8305C32.7867 15.8577 32.802 15.8947 32.802 15.9333C32.802 15.972 32.7868 16.0091 32.7596 16.0366C32.7323 16.0641 32.6954 16.0798 32.6567 16.0802Z" fill="#4B5C9B"/>
<path d="M43.2836 23.858L43.1777 24.5786C43.1777 24.5786 44.9997 24.9626 48.2123 22.4516C48.2123 22.4516 47.8109 21.1875 47.7904 20.7134L43.2836 23.858Z" fill="#F4AB8C"/>
<path d="M40.8122 11.7742C39.7661 14.1318 38.8954 23.9608 43.4907 24.0714C45.5671 24.1204 48.6722 21.0911 49.4007 17.0631C49.7025 15.4071 48.5031 12.5564 46.1533 10.6664C45.0898 9.80838 42.01 9.01985 40.8122 11.7742Z" fill="#FFBE9E"/>
<path d="M39.4928 15.4829C39.7108 16.5891 41.1868 12.1471 42.5963 14.1287C44.0691 16.2019 46.3256 14.7307 48.1682 18.7919C49.4323 21.5588 50.8751 15.3154 50.9794 14.8414C51.4076 12.8282 51.4076 12.8282 48.3894 9.9822C45.3712 7.13623 38.385 9.93005 39.4928 15.4829Z" fill="#53424D"/>
<path d="M45.0409 17.9734C45.0741 17.9386 45.0014 18.0097 44.9872 18.0208C44.9274 18.0698 44.8622 18.1117 44.7928 18.1456C44.521 18.2673 44.3282 18.1266 44.1797 17.9101C44.0849 17.7758 43.8779 17.9402 43.9711 18.0682C44.3029 18.5422 44.856 18.5296 45.2542 18.114C45.3712 17.9907 45.1562 17.8454 45.0409 17.9655V17.9734Z" fill="#201714"/>
<path d="M42.1033 17.9417C42.057 18.0303 41.9955 18.11 41.9215 18.1772C41.6877 18.3921 41.4743 18.2751 41.2895 18.065C41.1804 17.9401 40.9734 18.1045 41.0824 18.223C41.3005 18.4727 41.6023 18.6591 41.9389 18.4758C42.1165 18.3681 42.2596 18.2118 42.3514 18.0255C42.4288 17.8769 42.1807 17.7884 42.1033 17.9354V17.9417Z" fill="#201714"/>
<path d="M41.2246 16.6365C41.3947 16.5294 41.5993 16.4912 41.7966 16.5297C41.9938 16.5682 42.1691 16.6804 42.2865 16.8435C42.4177 17.0015 42.6468 16.7787 42.5157 16.6222C42.351 16.4059 42.1114 16.2589 41.8439 16.21C41.5764 16.1612 41.3003 16.2141 41.0698 16.3583C40.8928 16.4626 41.0476 16.7407 41.2278 16.6365H41.2246Z" fill="#4D2F20"/>
<path d="M43.9884 16.8198C44.1232 16.6708 44.3096 16.5787 44.5098 16.5623C44.71 16.5458 44.9089 16.6063 45.0661 16.7313C45.2352 16.8466 45.3964 16.5732 45.2242 16.4563C45.0069 16.2922 44.7361 16.2153 44.4651 16.2407C44.194 16.2662 43.9422 16.3921 43.7593 16.5938C43.6187 16.7423 43.8431 16.9683 43.9853 16.8198H43.9884Z" fill="#4D2F20"/>
<path d="M42.966 17.3982C43.1253 17.654 43.2081 17.9501 43.2046 18.2515C43.1777 18.6781 42.7669 18.9594 42.5946 19.345C42.3576 19.8759 42.7527 20.0687 43.3437 20.0987C43.4843 20.0987 43.5096 19.9233 43.3689 19.9154C42.0558 19.8491 43.3484 18.8851 43.4179 18.3273C43.445 17.9707 43.3575 17.6147 43.1683 17.3113C43.1098 17.2085 42.9075 17.2954 42.966 17.3982Z" fill="#DC8162"/>
<path d="M44.1164 20.7119C44.1164 20.7119 44.366 21.513 43.6897 21.6742C43.0134 21.8354 42.7684 21.1211 42.7684 21.1211L44.1164 20.7119Z" fill="#FAFFFF"/>
<path d="M46.1075 19.7258C46.0954 19.8477 46.0473 19.9633 45.9694 20.0579C45.8916 20.1525 45.7874 20.2219 45.6701 20.2573C45.5528 20.2927 45.4277 20.2925 45.3105 20.2568C45.1933 20.221 45.0893 20.1513 45.0117 20.0565C44.9341 19.9617 44.8864 19.846 44.8746 19.724C44.8628 19.6021 44.8874 19.4794 44.9453 19.3714C45.0032 19.2634 45.0919 19.1751 45.2 19.1175C45.3082 19.0599 45.431 19.0357 45.5529 19.0479C45.7163 19.0643 45.8666 19.1449 45.9706 19.272C46.0746 19.3991 46.1238 19.5624 46.1075 19.7258Z" fill="#F3A498"/>
<path d="M40.9371 19.503C41.0139 19.4038 41.1185 19.3297 41.2376 19.2902C41.3566 19.2506 41.4848 19.2474 41.6057 19.281C41.7266 19.3145 41.8348 19.3832 41.9165 19.4785C41.9982 19.5737 42.0497 19.6911 42.0645 19.8157C42.0792 19.9403 42.0566 20.0664 41.9994 20.1781C41.9422 20.2898 41.8531 20.3819 41.7434 20.4428C41.6336 20.5037 41.5083 20.5305 41.3833 20.5199C41.2583 20.5093 41.1392 20.4617 41.0413 20.3832C40.912 20.2795 40.8286 20.1291 40.8091 19.9644C40.7896 19.7998 40.8355 19.6341 40.9371 19.503Z" fill="#F3A498"/>
<path d="M12.8488 51.6698V52.7238H12.8646C13.0321 53.0035 14.6028 53.2247 16.4991 53.2247C18.3953 53.2247 19.9755 53.0035 20.1335 52.7238H20.1493V51.6698H12.8488Z" fill="#F4A517"/>
<path d="M14.1792 51.6999V53.092C14.549 53.1379 14.9788 53.1726 15.4434 53.1932V51.6967L14.1792 51.6999Z" fill="#FFC91D"/>
<path d="M15.6899 51.9511V53.2153H16.006V51.9511H15.6899Z" fill="#FFC91D"/>
<path d="M20.1588 51.6698C20.1588 51.9321 18.5233 52.1439 16.5038 52.1439C14.4843 52.1439 12.8488 51.9305 12.8488 51.6698C12.8488 51.4091 14.4859 51.1957 16.5038 51.1957C18.5217 51.1957 20.1588 51.4043 20.1588 51.6698Z" fill="#FFC91D"/>
<path d="M19.2723 51.6951C19.2723 51.8958 18.0334 52.0554 16.5038 52.0554C14.9741 52.0554 13.7352 51.8974 13.7352 51.6951C13.7352 51.4928 14.9741 51.3364 16.5038 51.3364C18.0334 51.3364 19.2723 51.496 19.2723 51.6951Z" fill="#F4A517"/>
<path d="M18.9957 51.7315C18.9957 51.91 17.8801 52.0554 16.5037 52.0554C15.1273 52.0554 14.0101 51.91 14.0101 51.7315C14.0101 51.5529 15.1258 51.4075 16.5021 51.4075C17.8785 51.4075 18.9957 51.5529 18.9957 51.7315Z" fill="#FFC91D"/>
<path d="M13.9753 50.2935V51.3538H13.9911C14.1586 51.6351 15.7294 51.8547 17.6256 51.8547C19.5219 51.8547 21.1021 51.6351 21.2601 51.3538H21.2759V50.3014L13.9753 50.2935Z" fill="#F4A517"/>
<path d="M15.3058 50.3251V51.722C15.6756 51.7678 16.1054 51.8026 16.57 51.8247V50.3251H15.3058Z" fill="#FFC91D"/>
<path d="M16.8167 50.5779V51.8421H17.1327V50.5779H16.8167Z" fill="#FFC91D"/>
<path d="M21.287 50.2935C21.287 50.5558 19.6499 50.7675 17.6304 50.7675C15.6109 50.7675 13.9753 50.5542 13.9753 50.2935C13.9753 50.0327 15.6124 49.8194 17.6304 49.8194C19.6483 49.8194 21.287 50.0296 21.287 50.2935Z" fill="#FFC91D"/>
<path d="M20.4006 50.3219C20.4006 50.521 19.1601 50.6822 17.6305 50.6822C16.1008 50.6822 14.8619 50.5242 14.8619 50.3219C14.8619 50.1196 16.1008 49.9632 17.6305 49.9632C19.1601 49.9632 20.4006 50.1228 20.4006 50.3219Z" fill="#F4A517"/>
<path d="M20.1225 50.3582C20.1225 50.5368 19.0069 50.6822 17.6305 50.6822C16.2542 50.6822 15.1385 50.5368 15.1385 50.3582C15.1385 50.1797 16.2542 50.0327 17.6305 50.0327C19.0069 50.0327 20.1225 50.1797 20.1225 50.3582Z" fill="#FFC91D"/>
<path d="M13.0494 48.9044V49.9568H13.0652C13.2327 50.2381 14.8035 50.4578 16.6997 50.4578C18.596 50.4578 20.1762 50.2381 20.3342 49.9568H20.35V48.9044H13.0494Z" fill="#F4A517"/>
<path d="M14.38 48.936V50.3329C14.7498 50.3788 15.1796 50.4135 15.6442 50.4357V48.936H14.38Z" fill="#FFC91D"/>
<path d="M15.8906 49.1889V50.4452L16.2067 50.4531V49.1889H15.8906Z" fill="#FFC91D"/>
<path d="M20.3611 48.9044C20.3611 49.1667 18.724 49.3785 16.7045 49.3785C14.685 49.3785 13.0494 49.1652 13.0494 48.9044C13.0494 48.6437 14.6865 48.4304 16.7045 48.4304C18.7224 48.4304 20.3611 48.6421 20.3611 48.9044Z" fill="#FFC91D"/>
<path d="M19.4746 48.9329C19.4746 49.132 18.2341 49.2932 16.7044 49.2932C15.1748 49.2932 13.9359 49.1352 13.9359 48.9329C13.9359 48.7307 15.1748 48.5742 16.7044 48.5742C18.2341 48.5742 19.4746 48.7338 19.4746 48.9329Z" fill="#F4A517"/>
<path d="M19.1964 48.9692C19.1964 49.1478 18.0808 49.2853 16.7044 49.2853C15.328 49.2853 14.2124 49.1399 14.2124 48.9692C14.2124 48.7986 15.328 48.6453 16.7044 48.6453C18.0808 48.6453 19.1964 48.7907 19.1964 48.9692Z" fill="#FFC91D"/>
<path d="M14.4542 47.7335V48.7859H14.47C14.6391 49.0672 16.2083 49.2869 18.1045 49.2869C20.0008 49.2869 21.581 49.0672 21.739 48.7859H21.7548V47.7335H14.4542Z" fill="#F4A517"/>
<path d="M15.7848 47.7651V49.162C16.1546 49.2079 16.586 49.2426 17.0569 49.2648V47.7651H15.7848Z" fill="#FFC91D"/>
<path d="M17.2954 48.0179V49.2742L17.6115 49.2821V48.0179H17.2954Z" fill="#FFC91D"/>
<path d="M21.7659 47.7335C21.7659 47.9958 20.1288 48.2076 18.1093 48.2076C16.0897 48.2076 14.4542 47.9958 14.4542 47.7335C14.4542 47.4712 16.0913 47.2595 18.1093 47.2595C20.1272 47.2595 21.7659 47.4696 21.7659 47.7335Z" fill="#FFC91D"/>
<path d="M20.8793 47.762C20.8793 47.9611 19.6389 48.1222 18.1092 48.1222C16.5796 48.1222 15.3407 47.9642 15.3407 47.762C15.3407 47.5597 16.5812 47.4017 18.1092 47.4017C19.6373 47.4017 20.8793 47.5613 20.8793 47.762Z" fill="#F4A517"/>
<path d="M20.6029 47.7983C20.6029 47.9769 19.4873 48.1222 18.1093 48.1222C16.7314 48.1222 15.6173 47.9769 15.6173 47.7983C15.6173 47.6197 16.7345 47.4728 18.1093 47.4728C19.4841 47.4728 20.6029 47.6197 20.6029 47.7983Z" fill="#FFC91D"/>
<path d="M9.78934 30.773C9.78934 30.773 8.13485 29.5974 7.13458 30.7588C6.1343 31.9203 7.05714 31.9298 7.45062 31.7227L7.84725 31.5157C7.84725 31.5157 7.75086 32.1304 8.09851 32.2126C8.44615 32.2948 8.64052 31.6564 8.64052 31.6564C8.64052 31.6564 8.76852 32.3738 9.27261 32.1447C9.77669 31.9155 9.78934 30.773 9.78934 30.773Z" fill="#C9E1F9"/>
<path d="M12.095 29.9672C12.095 29.9672 13.3686 28.387 14.647 29.234C15.9254 30.0809 15.0389 30.3401 14.6028 30.2469L14.1651 30.1552C14.1651 30.1552 14.4242 30.7209 14.1129 30.8948C13.8016 31.0686 13.4397 30.506 13.4397 30.506C13.4397 30.506 13.5108 31.2313 12.9657 31.1492C12.4205 31.067 12.095 29.9672 12.095 29.9672Z" fill="#C9E1F9"/>
<path d="M12.7571 30.2168C12.8308 30.564 12.7998 30.9251 12.6682 31.2547C12.5365 31.5842 12.3101 31.8673 12.0175 32.0681C11.7249 32.2689 11.3793 32.3783 11.0245 32.3827C10.6696 32.387 10.3215 32.2859 10.0241 32.0923C9.7267 31.8987 9.49343 31.6212 9.35379 31.295C9.21416 30.9687 9.17444 30.6084 9.23966 30.2596C9.30488 29.9108 9.47211 29.5892 9.72019 29.3354C9.96827 29.0817 10.286 28.9072 10.6333 28.8341C10.8635 28.7855 11.1011 28.7826 11.3324 28.8258C11.5638 28.8689 11.7844 28.9572 11.9816 29.0856C12.1788 29.214 12.3488 29.38 12.4818 29.5741C12.6149 29.7682 12.7084 29.9866 12.7571 30.2168Z" fill="#E79E30"/>
<path d="M12.6686 30.2358C12.7382 30.5651 12.7086 30.9077 12.5836 31.2203C12.4585 31.5328 12.2435 31.8012 11.9658 31.9916C11.6882 32.1819 11.3603 32.2856 11.0237 32.2896C10.6871 32.2936 10.3568 32.1977 10.0748 32.014C9.79267 31.8303 9.5714 31.567 9.43893 31.2575C9.30647 30.9481 9.26876 30.6062 9.33058 30.2753C9.39239 29.9444 9.55096 29.6393 9.78622 29.3985C10.0215 29.1577 10.3229 28.9921 10.6522 28.9226C11.0938 28.8295 11.5542 28.9155 11.9323 29.1617C12.3104 29.408 12.5753 29.7943 12.6686 30.2358Z" fill="#FFB725"/>
<path d="M12.3162 30.3101C12.3711 30.5697 12.3478 30.8398 12.2492 31.0861C12.1506 31.3325 11.9811 31.5441 11.7623 31.6942C11.5434 31.8442 11.285 31.926 11.0196 31.9292C10.7543 31.9324 10.494 31.8568 10.2716 31.712C10.0492 31.5672 9.87474 31.3597 9.77029 31.1158C9.66584 30.8718 9.63607 30.6024 9.68477 30.3415C9.73346 30.0807 9.85842 29.8401 10.0438 29.6503C10.2293 29.4604 10.4668 29.3299 10.7265 29.275C11.0745 29.2016 11.4375 29.2693 11.7356 29.4634C12.0337 29.6575 12.2425 29.962 12.3162 30.3101Z" fill="#E79E30"/>
<path d="M12.272 30.3764C12.3247 30.6251 12.3024 30.8837 12.2081 31.1197C12.1137 31.3557 11.9515 31.5584 11.7419 31.7022C11.5323 31.8459 11.2848 31.9243 11.0307 31.9274C10.7765 31.9304 10.5272 31.8581 10.3142 31.7194C10.1012 31.5807 9.93415 31.382 9.83413 31.1483C9.73411 30.9147 9.70564 30.6566 9.75232 30.4068C9.799 30.157 9.91873 29.9266 10.0964 29.7448C10.274 29.5631 10.5016 29.4381 10.7502 29.3857C11.0834 29.3154 11.4308 29.3803 11.7162 29.5661C12.0015 29.7519 12.2014 30.0434 12.272 30.3764Z" fill="#D3841C"/>
<path d="M11.0695 31.4226L11.03 31.2345C10.9113 31.2555 10.7895 31.2507 10.6728 31.2203L10.6918 30.969C10.8049 31.0041 10.925 31.0101 11.041 30.9864C11.1548 30.9627 11.2228 30.9027 11.1991 30.8284C11.1754 30.7541 11.1106 30.7178 10.951 30.6988C10.7234 30.6719 10.5559 30.604 10.5148 30.4096C10.4993 30.319 10.5174 30.2258 10.5657 30.1475C10.614 30.0693 10.6892 30.0113 10.7771 29.9846L10.7376 29.7949L10.9336 29.7538L10.9699 29.9292C11.07 29.9085 11.1733 29.9085 11.2733 29.9292L11.2623 30.1663C11.163 30.1429 11.0597 30.1429 10.9604 30.1663C10.8324 30.1931 10.8024 30.2579 10.8135 30.3132C10.8245 30.3685 10.9051 30.4065 11.0884 30.4349C11.3444 30.4681 11.4629 30.5582 11.5009 30.7367C11.5175 30.832 11.4983 30.9301 11.4469 31.0121C11.3956 31.094 11.3157 31.1541 11.2228 31.1808L11.267 31.383L11.0695 31.4226Z" fill="#FFC91D"/>
</svg>
