<svg width="88" height="79" viewBox="0 0 88 79" fill="none" xmlns="http://www.w3.org/2000/svg">
<path d="M5.35779 63.8484C5.27327 60.9479 5.85724 57.9917 7.43953 55.424C9.02181 52.8563 11.6652 50.7059 14.8932 49.7991C19.0203 48.6388 23.4919 49.5779 27.7939 50.1002C33.4727 50.7934 39.641 50.6584 44.4384 47.9733C48.1758 45.881 50.6595 42.4758 54.259 40.2162C60.7859 36.1208 70.4152 36.6185 76.9768 40.674C83.5383 44.7295 87.0597 51.7893 87.0668 58.7036C87.0744 66.3867 82.7953 73.9231 75.9931 78.92H12.1664C8.0857 74.6515 5.5186 69.34 5.35779 63.8484Z" stroke="#D3DFFF" stroke-width="0.146725" stroke-miterlimit="10"/>
<path d="M87.0644 61.7572C87.1471 58.4571 86.5796 55.0935 85.0431 52.1719C83.5066 49.2503 80.9424 46.8041 77.8066 45.7747C73.7975 44.4559 69.4556 45.52 65.278 46.1175C59.7612 46.9063 53.7748 46.7525 49.1154 43.6971C45.4865 41.3172 43.0756 37.4425 39.5788 34.8718C33.2403 30.2119 23.8903 30.7782 17.5189 35.3924C11.1475 40.0066 7.72766 48.0372 7.7212 55.9035C7.71357 64.6483 11.8688 73.2171 18.4738 78.9053H80.4506C84.4157 74.0516 86.9083 68.0065 87.0644 61.7572Z" fill="#EDF2FF"/>
<path d="M39.7326 72.6953C38.9696 73.2447 38.1861 73.6414 37.125 73.8286L37.375 74.584C35.5239 76.7608 35.2035 78.1054 35.4793 78.8813L41.184 75.5277L39.7326 72.6953Z" fill="#102048"/>
<path d="M38.3674 69.4398L36.0198 70.4844L37.1273 73.8298C38.1884 73.6426 38.9742 73.2429 39.7349 72.6965L38.3674 69.4398Z" fill="#F9B384"/>
<path d="M25.05 75.7401V72.1013L22.5433 72.0491L22.0327 75.7096C23.139 75.9126 24.1391 75.9121 25.05 75.7401Z" fill="#F9B384"/>
<path d="M22.0328 75.7114L21.9154 76.5419C19.194 77.4152 18.3306 78.0854 18.1552 78.8895H25.0501V75.7372C24.1392 75.9121 23.1391 75.9127 22.0328 75.7114Z" fill="#102048"/>
<path d="M33.3019 43.0146L28.4746 48.9165L28.1342 49.3331L27.5878 55.1769L25.8113 74.1925L21.2141 74.0875C20.8032 61.7455 20.2099 48.9141 21.5545 40.2467L22.024 37.1667L32.9908 37.9502L33.3019 43.0146Z" fill="#1F3C88"/>
<path d="M12.7515 23.9925L12.4029 23.5969C12.2995 23.4802 12.1715 23.388 12.028 23.3271C11.8845 23.2662 11.7293 23.238 11.5736 23.2447L7.20995 23.4296C7.20448 23.4299 7.19923 23.4319 7.1949 23.4352C7.19057 23.4386 7.18737 23.4432 7.18571 23.4484C7.18405 23.4536 7.18403 23.4592 7.18563 23.4645C7.18724 23.4697 7.1904 23.4743 7.19469 23.4777C8.14136 24.2108 9.3181 24.5929 10.6627 24.7255L12.0073 26.566L12.7515 23.9925Z" fill="#F9B384"/>
<path d="M28.4747 48.9164L28.1343 49.3331L27.5879 55.1769C25.9017 51.531 26.4111 46.3047 26.4111 46.3047L28.4747 48.9164Z" fill="#102048"/>
<path d="M33.3019 43.0146C34.4986 52.0499 36.9302 61.7643 39.9081 71.2416L35.5997 72.73C30.3252 61.4233 28.21 55.3131 26.4082 46.3048L33.3019 43.0146Z" fill="#1F3C88"/>
<path d="M28.1671 21.8908L27.4264 25.0759L29.0316 26.6951L30.983 26.3037L31.4273 21.7341L28.1671 21.8908Z" fill="#F9B384"/>
<path opacity="0.6" d="M22.5698 39.7637C24.7631 40.2731 27.7398 41.5244 31.5001 40.3905L31.9696 38.6674L22.9214 38.4326L22.5698 39.7637Z" fill="#102048"/>
<path d="M27.5051 24.4497C27.5051 24.4497 28.9136 26.5626 31.1081 25.154L33.0665 28.5615L32.1656 39.215C28.879 40.4745 25.7097 40.0583 22.6091 38.6668L24.9567 26.2116L27.5051 24.4497Z" fill="white"/>
<g opacity="0.3">
<path d="M27.309 25.7943C27.516 26.087 27.7745 26.3396 28.0719 26.5397C28.3599 26.7297 28.683 26.8602 29.0221 26.9235C29.3599 26.9885 29.7076 26.9821 30.0427 26.9047C30.3906 26.8192 30.7205 26.6725 31.017 26.4716C30.7873 26.7772 30.4733 27.0091 30.1138 27.1389C29.7456 27.2725 29.3482 27.3043 28.9634 27.231C28.5797 27.1575 28.2215 26.9856 27.924 26.7322C27.6315 26.4866 27.4176 26.1605 27.309 25.7943Z" fill="#1F3C88"/>
</g>
<path d="M27.5637 24.4884L24.5758 24.4755C23.6204 24.484 22.6834 24.7398 21.8561 25.2179L17.8306 27.5438L12.7515 23.9925L10.6757 26.2644L15.8521 30.6973C16.2563 31.0286 16.7353 31.2561 17.2475 31.36C17.7596 31.4639 18.2894 31.4411 18.7907 31.2935L21.9412 30.3639L18.7684 41.8396C20.9951 42.4664 22.7101 42.8801 24.8006 42.1137C25.938 39.5289 27.9265 33.3489 27.5637 24.4884Z" fill="#708CD5"/>
<path d="M28.0533 18.6916C28.0533 18.6916 27.2023 18.8131 26.41 17.5765C25.6687 16.4214 26.9124 13.7463 29.0733 14.8544C30.4443 13.5227 32.4063 14.1202 33.7568 16.0564C33.7568 16.0564 34.2598 15.9977 34.7545 16.6169C35.4195 17.4544 35.1372 20.1935 33.0936 21.2769L28.0533 18.6916Z" fill="#102048"/>
<path d="M28.0079 22.5733C28.0079 22.5733 28.4 23.851 29.3455 24.0183C30.5598 24.2336 31.152 22.8016 31.152 22.8016L28.0079 22.5733Z" fill="#E28B6D"/>
<path d="M33.1153 18.198L32.8676 20.5374C32.8676 20.5374 32.4491 21.9647 31.0218 23.0974C29.5944 24.2302 27.6852 23.0235 27.5861 21.399C27.5861 21.3819 27.5861 21.3632 27.5831 21.3455C27.5579 20.9054 27.5567 20.4951 27.5708 20.1189C27.6254 18.563 27.9435 17.6058 27.9435 17.6058L30.4801 16.5236L33.1153 18.198Z" fill="#F9B384"/>
<path d="M32.7883 20.2229C32.1111 19.9294 31.8493 19.2468 31.8282 18.3395C30.4806 18.665 29.0645 18.5551 27.7832 18.0255L27.1001 16.7701L29.9812 15.6802L33.2678 16.5483L33.9915 18.7274L32.7883 20.2229Z" fill="#102048"/>
<path d="M30.6521 19.9306C30.6046 20.1037 30.4672 20.217 30.3452 20.1835C30.2231 20.1501 30.1632 19.9828 30.2108 19.8097C30.2583 19.6365 30.3956 19.5232 30.5177 19.5567C30.6398 19.5902 30.6997 19.7574 30.6521 19.9306Z" fill="#102048"/>
<path d="M28.6825 19.5812C28.7142 19.4045 28.6391 19.2431 28.5147 19.2207C28.3902 19.1984 28.2636 19.3235 28.2319 19.5003C28.2002 19.677 28.2753 19.8384 28.3997 19.8608C28.5241 19.8831 28.6507 19.7579 28.6825 19.5812Z" fill="#102048"/>
<path d="M29.264 19.4328C29.3142 19.6098 29.2931 19.7994 29.2053 19.961C29.1613 20.0443 29.1015 20.1183 29.0292 20.1788C28.9582 20.2374 28.8854 20.2803 28.8303 20.3278C28.7797 20.3655 28.7422 20.418 28.7229 20.4781C28.7183 20.5076 28.72 20.5377 28.7278 20.5665C28.7356 20.5953 28.7493 20.6221 28.7681 20.6453C28.8579 20.7774 28.9523 20.9206 29.0351 21.0656L28.9764 21.1113C28.8545 20.994 28.7393 20.87 28.6313 20.7398C28.5958 20.6993 28.5695 20.6516 28.5542 20.5999C28.5389 20.5482 28.5349 20.4938 28.5427 20.4405C28.5671 20.3383 28.6262 20.2476 28.71 20.184C28.7839 20.1253 28.8561 20.0831 28.9154 20.0385C28.9738 19.9942 29.0244 19.9405 29.065 19.8794C29.1496 19.7505 29.1923 19.5986 29.1871 19.4445L29.264 19.4328Z" fill="#E28B6D"/>
<path d="M29.9858 19.1705C30.1653 19.0339 30.3901 18.971 30.6144 18.9944C30.7305 19.0109 30.8397 19.059 30.9302 19.1335C31.0166 19.2046 31.0858 19.2943 31.1326 19.3959L31.0828 19.4311C30.9325 19.2873 30.7758 19.1746 30.5921 19.1482C30.4084 19.1218 30.2124 19.1705 30.0128 19.2286L29.9858 19.1705Z" fill="#102048"/>
<path d="M28.1366 18.8583C28.2079 18.7924 28.2899 18.739 28.379 18.7004C28.4736 18.6583 28.5774 18.641 28.6807 18.65C28.7869 18.6623 28.8865 18.7079 28.9653 18.7802C29.0384 18.8477 29.0947 18.9313 29.1296 19.0244L29.078 19.0573C28.9483 18.9276 28.818 18.8225 28.6636 18.8049C28.5093 18.7873 28.3408 18.8477 28.1689 18.91L28.1366 18.8583Z" fill="#102048"/>
<path d="M28.6254 21.5386L29.8174 21.5727C29.7942 21.7926 29.6895 21.9959 29.5239 22.1426C29.4717 22.1875 29.4111 22.2217 29.3456 22.2432C29.2801 22.2648 29.211 22.2732 29.1423 22.268C29.0736 22.2628 29.0066 22.2442 28.9451 22.2131C28.8835 22.182 28.8288 22.1391 28.7838 22.0868C28.7206 22.0115 28.6739 21.9239 28.6466 21.8295C28.6193 21.7351 28.6121 21.636 28.6254 21.5386Z" fill="white"/>
<path opacity="0.4" d="M31.383 21.5332C31.6319 21.2842 31.6319 20.8807 31.383 20.6318C31.134 20.3829 30.7305 20.3829 30.4816 20.6318C30.2327 20.8807 30.2327 21.2842 30.4816 21.5331C30.7305 21.7821 31.1341 21.7821 31.383 21.5332Z" fill="#FC8879"/>
<path opacity="0.4" d="M28.0438 20.7346C28.0445 20.8731 27.9999 21.008 27.9167 21.1188C27.8335 21.2295 27.7163 21.31 27.5831 21.3479C27.5579 20.9077 27.5567 20.4975 27.5708 20.1213C27.7062 20.157 27.8261 20.2365 27.9116 20.3475C27.9972 20.4584 28.0437 20.5945 28.0438 20.7346Z" fill="#FC8879"/>
<path d="M35.8109 36.4735L34.4024 43.3279L37.6403 43.2234L38.9057 38.1966C39.5146 35.7971 39.3276 33.2647 38.3728 30.9807C37.8534 29.7705 37.2656 28.5908 36.6121 27.4475C36.4474 27.1535 36.226 26.8951 35.9608 26.6872C35.6955 26.4794 35.3916 26.3263 35.0667 26.2367L31.0969 25.1545C29.1478 31.1937 28.2399 37.0181 29.1789 42.4405L33.657 41.8788C33.7157 38.8891 33.6417 35.5567 34.7134 31.5388C34.7117 31.5388 35.9653 33.2619 35.8109 36.4735Z" fill="#708CD5"/>
<path d="M32.2525 20.1565C32.7884 19.7598 33.0654 19.7257 33.4163 20.0356C33.8401 20.4106 33.7303 22.0363 32.0864 21.45L32.2525 20.1565Z" fill="#F9B384"/>
<path d="M32.5243 20.7088C32.5076 20.6135 32.5205 20.5154 32.5613 20.4277C32.6037 20.3373 32.6717 20.2612 32.7567 20.2087C32.8418 20.1536 32.9424 20.127 33.0437 20.133C33.0957 20.1345 33.1464 20.1499 33.1905 20.1774C33.2346 20.2049 33.2707 20.2437 33.2949 20.2897L33.245 20.3255C33.1873 20.2815 33.1146 20.2619 33.0425 20.271C32.97 20.2788 32.9002 20.3029 32.8383 20.3414C32.7734 20.3822 32.7175 20.4358 32.6741 20.499C32.6307 20.5622 32.6007 20.6336 32.5859 20.7088H32.5243Z" fill="#E28B6D"/>
<path d="M22.3773 28.5837L21.2615 32.5802L21.4124 32.6223L22.5283 28.6258L22.3773 28.5837Z" fill="#102048"/>
<path d="M34.2797 33.7045L34.1248 33.6816C34.2421 32.9028 34.9582 30.2224 34.9887 30.1085L35.1395 30.149C35.1325 30.1766 34.3953 32.9344 34.2797 33.7045Z" fill="#102048"/>
<path d="M38.4308 48.6822C37.3475 49.7251 35.9306 50.3517 34.4302 50.4511C32.9298 50.5505 31.4425 50.1165 30.2312 49.2257C29.4101 48.6205 28.7462 47.8272 28.295 46.9125C27.8439 45.9977 27.6186 44.9881 27.6381 43.9683C27.6577 42.9485 27.9215 41.9483 28.4074 41.0514C28.8932 40.1546 29.5871 39.3874 30.4307 38.8141C30.9365 38.469 31.4902 38.1999 32.074 38.0153C32.3887 37.9156 32.7104 37.8401 33.0365 37.7894C33.8558 37.6639 34.6916 37.699 35.4974 37.8927C35.9012 37.9879 36.2945 38.1233 36.6712 38.297C37.6138 38.7309 38.4364 39.3882 39.0674 40.2119C39.6984 41.0357 40.1189 42.0009 40.2924 43.024C40.4659 44.0471 40.3871 45.097 40.0629 46.0827C39.7387 47.0684 39.1788 47.9602 38.4319 48.6805L38.4308 48.6822Z" fill="#FBC343"/>
<path opacity="0.4" d="M37.6772 40.5584C37.713 40.5995 37.7482 40.64 37.7817 40.6816C38.6002 41.6735 39.0143 42.9376 38.9413 44.2215C38.8683 45.5054 38.3136 46.7144 37.3879 47.6071C36.7068 48.265 35.8559 48.72 34.9305 48.9211C34.0748 49.1071 33.1857 49.0705 32.3482 48.8149C31.6216 48.5924 30.9545 48.2093 30.3961 47.6939C30.3756 47.6763 30.355 47.6564 30.3345 47.6352C29.466 46.6487 29.0114 45.3652 29.0653 44.052C29.1192 42.7387 29.6775 41.4969 30.6238 40.5848C30.8031 40.412 30.9945 40.2524 31.1967 40.107C31.7229 39.73 32.3167 39.4575 32.9456 39.3042C33.7767 39.0984 34.6463 39.1056 35.4739 39.3251C36.3015 39.5447 37.0603 39.9694 37.6802 40.5601L37.6772 40.5584Z" fill="#BB9132"/>
<path opacity="0.4" d="M37.8152 40.7397C37.8686 40.7943 37.9202 40.85 37.9695 40.9076C37.0211 39.9997 35.7583 39.4939 34.4455 39.4959C33.1326 39.498 31.8714 40.0077 30.9258 40.9185C29.9802 41.8293 29.4236 43.0705 29.3723 44.3823C29.3211 45.6942 29.7792 46.9751 30.6509 47.9568C30.5957 47.9058 30.5417 47.8518 30.4889 47.7966C28.5339 45.7671 28.5879 42.5409 30.6115 40.5924C31.0942 40.129 31.6634 39.7652 32.2866 39.5219C32.9099 39.2785 33.5749 39.1602 34.2439 39.1739C34.9128 39.1876 35.5725 39.3329 36.1853 39.6016C36.798 39.8702 37.3519 40.257 37.8152 40.7397Z" fill="#BB9132"/>
<path opacity="0.3" d="M33.0383 37.7911L32.9432 39.2994V39.3029C32.8141 39.334 32.6873 39.371 32.5611 39.4127L32.4948 39.4338C32.4772 39.4409 32.4578 39.4467 32.4361 39.4544C32.4324 39.4546 32.4287 39.4558 32.4256 39.4579C32.2556 39.5187 32.0891 39.5887 31.9267 39.6674C31.8915 39.6844 31.8545 39.702 31.8187 39.7208C31.7952 39.7343 31.77 39.746 31.7465 39.7595C31.6984 39.7859 31.6514 39.8106 31.6039 39.8388C31.592 39.8454 31.5804 39.8526 31.5693 39.8605C31.5581 39.8662 31.5473 39.8726 31.537 39.8799C31.4865 39.9092 31.436 39.9385 31.3856 39.9738C31.3778 39.9779 31.3703 39.9826 31.3633 39.9878C31.3392 40.0031 31.3169 40.019 31.2928 40.0336C31.2588 40.0571 31.2253 40.0806 31.1919 40.1052L31.3844 38.28C31.6087 38.1789 31.8388 38.0911 32.0734 38.017C32.3888 37.9172 32.7114 37.8417 33.0383 37.7911Z" fill="white"/>
<path opacity="0.15" d="M32.3482 48.8149L32.2601 50.2235C31.5295 50.0152 30.8422 49.6772 30.2312 49.2257L30.3926 47.6933V47.6892C30.4349 47.7279 30.4777 47.7661 30.5211 47.8031C31.0526 48.2645 31.6751 48.6092 32.3482 48.8149Z" fill="white"/>
<path opacity="0.15" d="M37.9994 39.1211L37.7852 40.657L37.7817 40.6822C37.7482 40.6406 37.713 40.6001 37.6772 40.559C37.3115 40.2107 36.8961 39.9185 36.4447 39.6921V39.6868L36.6718 38.3C37.1467 38.5176 37.5926 38.7934 37.9994 39.1211Z" fill="white"/>
<path opacity="0.3" d="M36.7446 48.1353L36.4899 49.964C35.9146 50.208 35.3061 50.3649 34.6846 50.4294L34.9317 48.9211C35.5817 48.7807 36.1977 48.5137 36.7446 48.1353Z" fill="white"/>
<g opacity="0.4">
<path d="M36.2985 45.5641L36.8502 46.1369L36.0649 46.8735L35.5367 46.3265C34.9909 46.7919 34.3565 47.1352 33.8629 47.2421L33.4045 45.9773C33.9689 45.8369 34.4883 45.5553 34.914 45.1591C35.2597 44.8264 35.3143 44.635 35.1951 44.5136C34.7573 44.0599 33.1134 46.3494 31.8169 45.003C31.2553 44.4197 31.206 43.5223 31.9378 42.5885L31.2987 41.9253L32.0265 41.2246L32.655 41.8772C33.0717 41.5462 33.5383 41.2862 33.9914 41.1682L34.4744 42.4007C33.9462 42.5633 33.5242 42.798 33.2097 43.1015C32.8534 43.4448 32.8399 43.6573 32.959 43.7811C33.3763 44.2142 35.0255 41.93 36.3044 43.2611C36.8408 43.8175 36.9641 44.655 36.2985 45.5641Z" fill="#BB9132"/>
</g>
<path d="M36.1724 45.4325L36.7218 46.0024L35.9975 46.702L35.4734 46.1579C34.93 46.621 34.2996 46.9626 33.8078 47.0688L33.3459 45.8081C33.9073 45.6685 34.4241 45.3886 34.8478 44.9947C35.1917 44.6631 35.2463 44.4723 35.1272 44.3491C34.6923 43.8972 33.0566 46.1755 31.766 44.8356C31.2072 44.2558 31.1579 43.3625 31.8834 42.4335L31.3446 41.8735L32.0682 41.1763L32.5964 41.7256C33.0073 41.3958 33.4768 41.1387 33.9252 41.0214L34.4064 42.2498C33.8782 42.4117 33.4609 42.6459 33.1481 42.947C32.796 43.2886 32.7796 43.5004 32.8987 43.6237C33.3136 44.0545 34.9528 41.7814 36.2299 43.106C36.7699 43.6589 36.8345 44.5304 36.1724 45.4325Z" fill="#FBC343"/>
<mask id="mask0_2_372" style="mask-type:luminance" maskUnits="userSpaceOnUse" x="31" y="41" width="6" height="7">
<path d="M36.1724 45.4325L36.7218 46.0024L35.9975 46.702L35.4734 46.1579C34.93 46.621 34.2996 46.9626 33.8078 47.0688L33.3459 45.8081C33.9073 45.6685 34.4241 45.3886 34.8478 44.9947C35.1917 44.6631 35.2463 44.4723 35.1272 44.3491C34.6923 43.8972 33.0566 46.1755 31.766 44.8356C31.2072 44.2558 31.1579 43.3625 31.8834 42.4335L31.3446 41.8735L32.0682 41.1763L32.5964 41.7256C33.0073 41.3958 33.4768 41.1387 33.9252 41.0214L34.4064 42.2498C33.8782 42.4117 33.4609 42.6459 33.1481 42.947C32.796 43.2886 32.7796 43.5004 32.8987 43.6237C33.3136 44.0545 34.9528 41.7814 36.2299 43.106C36.7699 43.6589 36.8345 44.5304 36.1724 45.4325Z" fill="white"/>
</mask>
<g mask="url(#mask0_2_372)">
<path opacity="0.3" d="M30.9486 35.8262L29.1814 52.5681L31.6781 52.8193L32.7415 35.8837L30.9486 35.8262Z" fill="white"/>
<path opacity="0.3" d="M34.1249 54.0389L37.3059 34.6242L38.8389 35.0227L36.108 54.6434L34.1249 54.0389Z" fill="white"/>
</g>
<path d="M34.9774 42.9071L34.5666 44.1191C34.5666 44.1191 33.4333 45.5194 33.5929 45.6978C33.9257 46.0699 34.7972 45.1696 34.7972 45.1696L34.093 46.9614C34.0838 46.9894 34.0806 47.019 34.0836 47.0483C34.0865 47.0776 34.0955 47.106 34.1101 47.1316C34.1246 47.1573 34.1443 47.1796 34.1679 47.1972C34.1916 47.2147 34.2186 47.2272 34.2473 47.2337C34.627 47.3188 35.4293 47.401 36.1495 46.8347C37.0856 46.0987 36.8678 44.3292 36.8678 44.3292L37.2693 43.0174L34.9774 42.9071Z" fill="#F9B384"/>
<path d="M38.7454 38.8159L38.3628 40.3342L38.3551 40.3653L38.2965 40.6054L37.6385 43.2229L36.7922 43.2511L36.5716 43.2576L34.4 43.328L34.4346 43.1572L34.4693 42.9911L34.5784 42.4629L34.6113 42.2968L34.8607 41.0901L34.8918 40.9323L35.2258 39.3107L35.3103 38.8998V38.8916L35.6624 37.2207C35.9891 37.2676 36.3116 37.3394 36.6273 37.4355C37.422 37.6761 38.6087 37.8839 38.7454 38.8159Z" fill="#708CD5"/>
<path d="M12.5437 10.6012C12.4006 9.94529 12.1286 9.3244 11.7435 8.77457C11.3584 8.22474 10.8678 7.75692 10.3004 7.39832C9.73289 7.03971 9.0998 6.79746 8.43788 6.68564C7.77597 6.57383 7.09844 6.59467 6.44465 6.74697C3.82472 7.35617 2.12271 9.95263 2.61218 12.596C2.83154 13.8021 3.4827 14.8871 4.4439 15.6479C5.17453 16.2241 5.68338 17.0353 5.88416 17.9439L11.7561 16.6633C11.5596 15.755 11.684 14.8067 12.1082 13.9799C12.6406 12.9382 12.7945 11.7439 12.5437 10.6012Z" fill="#FBC343"/>
<path d="M6.25801 11.7022L6.06375 11.6135C5.86361 11.5226 5.62651 11.6722 5.64411 11.8917C5.64715 11.9306 5.65709 11.9685 5.67346 12.0038L8.29515 17.732L9.51766 17.465V11.1652C9.51856 11.1521 9.51856 11.1389 9.51766 11.1258C9.48832 10.8741 9.15613 10.7931 8.99591 10.9903L8.92137 11.0771C8.60921 11.4614 8.17837 11.7312 7.6964 11.8443C7.21442 11.9574 6.70853 11.9074 6.25801 11.7022Z" stroke="white" stroke-width="0.293451" stroke-miterlimit="10"/>
<path d="M9.7938 21.7769C10.3262 21.6608 10.7032 21.3164 10.6358 21.0076C10.5685 20.6989 10.0824 20.5427 9.54999 20.6587C9.01763 20.7748 8.64064 21.1192 8.70796 21.428C8.77529 21.7368 9.26143 21.893 9.7938 21.7769Z" fill="#102048"/>
<path d="M5.88416 17.9415L11.7561 16.6609L12.2896 19.1083L6.42176 20.4018L5.88416 17.9415Z" fill="#1F3C88"/>
<path d="M6.4071 20.346L12.2796 19.0654L11.8841 19.9939C11.7905 20.2134 11.6457 20.4073 11.462 20.5596C11.2782 20.7118 11.0607 20.8179 10.8276 20.869L8.48356 21.3855C8.2491 21.437 8.0057 21.4314 7.77385 21.3692C7.542 21.307 7.32849 21.19 7.1513 21.028L6.4071 20.346Z" fill="#1F3C88"/>
<path d="M12.3513 17.9439L5.90717 19.3525C5.86056 19.3626 5.81183 19.3538 5.77167 19.3281C5.73152 19.3023 5.70321 19.2617 5.69295 19.2151C5.683 19.1686 5.69185 19.12 5.71758 19.08C5.74331 19.04 5.78383 19.0118 5.83029 19.0015L12.2745 17.5929C12.3211 17.583 12.3697 17.5918 12.4098 17.6175C12.45 17.6432 12.4783 17.6838 12.4887 17.7303C12.4985 17.7768 12.4896 17.8253 12.4639 17.8653C12.4382 17.9052 12.3977 17.9335 12.3513 17.9439Z" fill="#708CD5"/>
<path d="M12.6348 19.2463L6.19063 20.6519C6.14403 20.6618 6.09538 20.653 6.05526 20.6273C6.01514 20.6016 5.98681 20.561 5.97641 20.5145C5.96644 20.4679 5.97528 20.4193 6.001 20.3792C6.02672 20.3391 6.06724 20.3107 6.11375 20.3003L12.5585 18.8953C12.605 18.8853 12.6536 18.8942 12.6936 18.9199C12.7337 18.9456 12.7619 18.9862 12.7721 19.0326C12.7821 19.0791 12.7732 19.1277 12.7475 19.1677C12.7218 19.2078 12.6813 19.236 12.6348 19.2463Z" fill="#708CD5"/>
<path d="M1 4.15338L3.71148 5.76912" stroke="#FBC343" stroke-width="0.841617" stroke-linecap="round" stroke-linejoin="round"/>
<path d="M9.2237 1.1192L7.82922 4.37592" stroke="#FBC343" stroke-width="0.841617" stroke-linecap="round" stroke-linejoin="round"/>
<path d="M4.41467 1.00006L5.60139 4.47628" stroke="#FBC343" stroke-width="0.841617" stroke-linecap="round" stroke-linejoin="round"/>
<path d="M61.1897 50.568H48.4352V52.1479H61.1897V50.568Z" fill="#FBC343"/>
<path opacity="0.4" d="M56.9975 50.568H51.7635V52.1479H56.9975V50.568Z" fill="#BB9132"/>
<path opacity="0.4" d="M50.6296 50.568H49.4211V52.1479H50.6296V50.568Z" fill="white"/>
<path opacity="0.4" d="M59.9213 50.568H58.7129V52.1479H59.9213V50.568Z" fill="white"/>
<path d="M61.1897 53.7243H48.4352V55.3042H61.1897V53.7243Z" fill="#FBC343"/>
<path opacity="0.4" d="M56.9975 53.7243H51.7635V55.3042H56.9975V53.7243Z" fill="#BB9132"/>
<path opacity="0.4" d="M50.6296 53.7243H49.4211V55.3042H50.6296V53.7243Z" fill="white"/>
<path opacity="0.4" d="M59.9213 53.7243H58.7129V55.3042H59.9213V53.7243Z" fill="white"/>
<path d="M60.7389 52.145H47.9844V53.7249H60.7389V52.145Z" fill="#FBC343"/>
<path opacity="0.4" d="M56.5467 52.145H51.3127V53.7249H56.5467V52.145Z" fill="#BB9132"/>
<path opacity="0.4" d="M50.1789 52.145H48.9705V53.7249H50.1789V52.145Z" fill="white"/>
<path opacity="0.4" d="M59.4706 52.145H58.2622V53.7249H59.4706V52.145Z" fill="white"/>
<path d="M61.1897 56.8812H48.4352V58.4612H61.1897V56.8812Z" fill="#FBC343"/>
<path opacity="0.4" d="M56.9975 56.8812H51.7635V58.4612H56.9975V56.8812Z" fill="#BB9132"/>
<path opacity="0.4" d="M50.6296 56.8812H49.4211V58.4612H50.6296V56.8812Z" fill="white"/>
<path opacity="0.4" d="M59.9213 56.8812H58.7129V58.4612H59.9213V56.8812Z" fill="white"/>
<path d="M61.8341 55.3013H49.0796V56.8813H61.8341V55.3013Z" fill="#FBC343"/>
<path opacity="0.4" d="M57.6418 55.3013H52.4078V56.8813H57.6418V55.3013Z" fill="#BB9132"/>
<path opacity="0.4" d="M51.274 55.3013H50.0656V56.8813H51.274V55.3013Z" fill="white"/>
<path opacity="0.4" d="M60.566 55.3013H59.3575V56.8813H60.566V55.3013Z" fill="white"/>
<path d="M61.1897 60.0377H48.4352V61.6176H61.1897V60.0377Z" fill="#FBC343"/>
<path opacity="0.4" d="M56.9975 60.0377H51.7635V61.6176H56.9975V60.0377Z" fill="#BB9132"/>
<path opacity="0.4" d="M50.6296 60.0377H49.4211V61.6176H50.6296V60.0377Z" fill="white"/>
<path opacity="0.4" d="M59.9213 60.0377H58.7129V61.6176H59.9213V60.0377Z" fill="white"/>
<path d="M60.6099 58.4576H47.8553V60.0376H60.6099V58.4576Z" fill="#FBC343"/>
<path opacity="0.4" d="M56.4176 58.4576H51.1836V60.0376H56.4176V58.4576Z" fill="#BB9132"/>
<path opacity="0.4" d="M50.0496 58.4576H48.8412V60.0376H50.0496V58.4576Z" fill="white"/>
<path opacity="0.4" d="M59.3416 58.4576H58.1332V60.0376H59.3416V58.4576Z" fill="white"/>
<path d="M61.1897 63.1939H48.4352V64.7738H61.1897V63.1939Z" fill="#FBC343"/>
<path opacity="0.4" d="M56.9975 63.1939H51.7635V64.7738H56.9975V63.1939Z" fill="#BB9132"/>
<path opacity="0.4" d="M50.6296 63.1939H49.4211V64.7738H50.6296V63.1939Z" fill="white"/>
<path opacity="0.4" d="M59.9213 63.1939H58.7129V64.7738H59.9213V63.1939Z" fill="white"/>
<path d="M61.1897 61.6146H48.4352V63.1946H61.1897V61.6146Z" fill="#FBC343"/>
<path opacity="0.4" d="M56.9975 61.6146H51.7635V63.1946H56.9975V61.6146Z" fill="#BB9132"/>
<path opacity="0.4" d="M50.6296 61.6146H49.4211V63.1946H50.6296V61.6146Z" fill="white"/>
<path opacity="0.4" d="M59.9213 61.6146H58.7129V63.1946H59.9213V61.6146Z" fill="white"/>
<path d="M60.25 66.3533H47.4955V67.9332H60.25V66.3533Z" fill="#FBC343"/>
<path opacity="0.4" d="M56.0577 66.3533H50.8237V67.9332H56.0577V66.3533Z" fill="#BB9132"/>
<path opacity="0.4" d="M49.69 66.3533H48.4816V67.9332H49.69V66.3533Z" fill="white"/>
<path opacity="0.4" d="M58.9811 66.3533H57.7727V67.9332H58.9811V66.3533Z" fill="white"/>
<path d="M61.1897 64.7739H48.4352V66.3539H61.1897V64.7739Z" fill="#FBC343"/>
<path opacity="0.4" d="M56.9975 64.7739H51.7635V66.3539H56.9975V64.7739Z" fill="#BB9132"/>
<path opacity="0.4" d="M50.6296 64.7739H49.4211V66.3539H50.6296V64.7739Z" fill="white"/>
<path opacity="0.4" d="M59.9213 64.7739H58.7129V66.3539H59.9213V64.7739Z" fill="white"/>
<path d="M61.1897 69.5131H48.4352V71.0931H61.1897V69.5131Z" fill="#FBC343"/>
<path opacity="0.4" d="M56.9975 69.5131H51.7635V71.0931H56.9975V69.5131Z" fill="#BB9132"/>
<path opacity="0.4" d="M50.6296 69.5131H49.4211V71.0931H50.6296V69.5131Z" fill="white"/>
<path opacity="0.4" d="M59.9213 69.5131H58.7129V71.0931H59.9213V69.5131Z" fill="white"/>
<path d="M61.1897 67.9332H48.4352V69.5132H61.1897V67.9332Z" fill="#FBC343"/>
<path opacity="0.4" d="M56.9975 67.9332H51.7635V69.5132H56.9975V67.9332Z" fill="#BB9132"/>
<path opacity="0.4" d="M50.6296 67.9332H49.4211V69.5132H50.6296V67.9332Z" fill="white"/>
<path opacity="0.4" d="M59.9213 67.9332H58.7129V69.5132H59.9213V67.9332Z" fill="white"/>
<path d="M61.1897 72.6724H48.4352V74.2524H61.1897V72.6724Z" fill="#FBC343"/>
<path opacity="0.4" d="M56.9975 72.6724H51.7635V74.2524H56.9975V72.6724Z" fill="#BB9132"/>
<path opacity="0.4" d="M50.6296 72.6724H49.4211V74.2524H50.6296V72.6724Z" fill="white"/>
<path opacity="0.4" d="M59.9213 72.6724H58.7129V74.2524H59.9213V72.6724Z" fill="white"/>
<path d="M61.1897 71.0931H48.4352V72.673H61.1897V71.0931Z" fill="#FBC343"/>
<path opacity="0.4" d="M56.9975 71.0931H51.7635V72.673H56.9975V71.0931Z" fill="#BB9132"/>
<path opacity="0.4" d="M50.6296 71.0931H49.4211V72.673H50.6296V71.0931Z" fill="white"/>
<path opacity="0.4" d="M59.9213 71.0931H58.7129V72.673H59.9213V71.0931Z" fill="white"/>
<path d="M61.1897 75.8317H48.4352V77.4116H61.1897V75.8317Z" fill="#FBC343"/>
<path opacity="0.4" d="M56.9975 75.8317H51.7635V77.4116H56.9975V75.8317Z" fill="#BB9132"/>
<path opacity="0.4" d="M50.6296 75.8317H49.4211V77.4116H50.6296V75.8317Z" fill="white"/>
<path opacity="0.4" d="M59.9213 75.8317H58.7129V77.4116H59.9213V75.8317Z" fill="white"/>
<path d="M61.1897 74.2524H48.4352V75.8323H61.1897V74.2524Z" fill="#FBC343"/>
<path opacity="0.4" d="M56.9975 74.2524H51.7635V75.8323H56.9975V74.2524Z" fill="#BB9132"/>
<path opacity="0.4" d="M50.6296 74.2524H49.4211V75.8323H50.6296V74.2524Z" fill="white"/>
<path opacity="0.4" d="M59.9213 74.2524H58.7129V75.8323H59.9213V74.2524Z" fill="white"/>
<path d="M61.1897 77.4117H48.4352V78.9916H61.1897V77.4117Z" fill="#FBC343"/>
<path opacity="0.4" d="M56.9975 77.4117H51.7635V78.9916H56.9975V77.4117Z" fill="#BB9132"/>
<path opacity="0.4" d="M50.6296 77.4117H49.4211V78.9916H50.6296V77.4117Z" fill="white"/>
<path opacity="0.4" d="M59.9213 77.4117H58.7129V78.9916H59.9213V77.4117Z" fill="white"/>
<path d="M77.8677 56.8812H65.1132V58.4612H77.8677V56.8812Z" fill="#FBC343"/>
<path opacity="0.4" d="M73.6753 56.8812H68.4413V58.4612H73.6753V56.8812Z" fill="#BB9132"/>
<path opacity="0.4" d="M67.3075 56.8812H66.0991V58.4612H67.3075V56.8812Z" fill="white"/>
<path opacity="0.4" d="M76.5988 56.8812H75.3904V58.4612H76.5988V56.8812Z" fill="white"/>
<path d="M76.3008 60.0377H63.5463V61.6176H76.3008V60.0377Z" fill="#FBC343"/>
<path opacity="0.4" d="M72.1084 60.0377H66.8744V61.6176H72.1084V60.0377Z" fill="#BB9132"/>
<path opacity="0.4" d="M65.7404 60.0377H64.532V61.6176H65.7404V60.0377Z" fill="white"/>
<path opacity="0.4" d="M75.0324 60.0377H73.824V61.6176H75.0324V60.0377Z" fill="white"/>
<path d="M75.7207 58.4576H62.9662V60.0376H75.7207V58.4576Z" fill="#FBC343"/>
<path opacity="0.4" d="M71.5284 58.4576H66.2944V60.0376H71.5284V58.4576Z" fill="#BB9132"/>
<path opacity="0.4" d="M65.1607 58.4576H63.9523V60.0376H65.1607V58.4576Z" fill="white"/>
<path opacity="0.4" d="M74.4524 58.4576H73.244V60.0376H74.4524V58.4576Z" fill="white"/>
<path d="M76.3008 63.1939H63.5463V64.7738H76.3008V63.1939Z" fill="#FBC343"/>
<path opacity="0.4" d="M72.1084 63.1939H66.8744V64.7738H72.1084V63.1939Z" fill="#BB9132"/>
<path opacity="0.4" d="M65.7404 63.1939H64.532V64.7738H65.7404V63.1939Z" fill="white"/>
<path opacity="0.4" d="M75.0324 63.1939H73.824V64.7738H75.0324V63.1939Z" fill="white"/>
<path d="M75.6569 61.6146H62.9023V63.1946H75.6569V61.6146Z" fill="#FBC343"/>
<path opacity="0.4" d="M71.4646 61.6146H66.2306V63.1946H71.4646V61.6146Z" fill="#BB9132"/>
<path opacity="0.4" d="M65.0967 61.6146H63.8883V63.1946H65.0967V61.6146Z" fill="white"/>
<path opacity="0.4" d="M74.388 61.6146H73.1796V63.1946H74.388V61.6146Z" fill="white"/>
<path d="M76.3008 66.3533H63.5463V67.9332H76.3008V66.3533Z" fill="#FBC343"/>
<path opacity="0.4" d="M72.1084 66.3533H66.8744V67.9332H72.1084V66.3533Z" fill="#BB9132"/>
<path opacity="0.4" d="M65.7404 66.3533H64.532V67.9332H65.7404V66.3533Z" fill="white"/>
<path opacity="0.4" d="M75.0324 66.3533H73.824V67.9332H75.0324V66.3533Z" fill="white"/>
<path d="M76.3008 64.7739H63.5463V66.3539H76.3008V64.7739Z" fill="#FBC343"/>
<path opacity="0.4" d="M72.1084 64.7739H66.8744V66.3539H72.1084V64.7739Z" fill="#BB9132"/>
<path opacity="0.4" d="M65.7404 64.7739H64.532V66.3539H65.7404V64.7739Z" fill="white"/>
<path opacity="0.4" d="M75.0324 64.7739H73.824V66.3539H75.0324V64.7739Z" fill="white"/>
<path d="M77.5542 69.5131H64.7997V71.0931H77.5542V69.5131Z" fill="#FBC343"/>
<path opacity="0.4" d="M73.362 69.5131H68.1281V71.0931H73.362V69.5131Z" fill="#BB9132"/>
<path opacity="0.4" d="M66.9941 69.5131H65.7856V71.0931H66.9941V69.5131Z" fill="white"/>
<path opacity="0.4" d="M76.2853 69.5131H75.0769V71.0931H76.2853V69.5131Z" fill="white"/>
<path d="M76.3008 67.9332H63.5463V69.5132H76.3008V67.9332Z" fill="#FBC343"/>
<path opacity="0.4" d="M72.1084 67.9332H66.8744V69.5132H72.1084V67.9332Z" fill="#BB9132"/>
<path opacity="0.4" d="M65.7404 67.9332H64.532V69.5132H65.7404V67.9332Z" fill="white"/>
<path opacity="0.4" d="M75.0324 67.9332H73.824V69.5132H75.0324V67.9332Z" fill="white"/>
<path d="M76.3008 72.6724H63.5463V74.2524H76.3008V72.6724Z" fill="#FBC343"/>
<path opacity="0.4" d="M72.1084 72.6724H66.8744V74.2524H72.1084V72.6724Z" fill="#BB9132"/>
<path opacity="0.4" d="M65.7404 72.6724H64.532V74.2524H65.7404V72.6724Z" fill="white"/>
<path opacity="0.4" d="M75.0324 72.6724H73.824V74.2524H75.0324V72.6724Z" fill="white"/>
<path d="M76.3008 71.0931H63.5463V72.673H76.3008V71.0931Z" fill="#FBC343"/>
<path opacity="0.4" d="M72.1084 71.0931H66.8744V72.673H72.1084V71.0931Z" fill="#BB9132"/>
<path opacity="0.4" d="M65.7404 71.0931H64.532V72.673H65.7404V71.0931Z" fill="white"/>
<path opacity="0.4" d="M75.0324 71.0931H73.824V72.673H75.0324V71.0931Z" fill="white"/>
<path d="M76.3008 75.8317H63.5463V77.4116H76.3008V75.8317Z" fill="#FBC343"/>
<path opacity="0.4" d="M72.1084 75.8317H66.8744V77.4116H72.1084V75.8317Z" fill="#BB9132"/>
<path opacity="0.4" d="M65.7404 75.8317H64.532V77.4116H65.7404V75.8317Z" fill="white"/>
<path opacity="0.4" d="M75.0324 75.8317H73.824V77.4116H75.0324V75.8317Z" fill="white"/>
<path d="M76.3008 74.2524H63.5463V75.8323H76.3008V74.2524Z" fill="#FBC343"/>
<path opacity="0.4" d="M72.1084 74.2524H66.8744V75.8323H72.1084V74.2524Z" fill="#BB9132"/>
<path opacity="0.4" d="M65.7404 74.2524H64.532V75.8323H65.7404V74.2524Z" fill="white"/>
<path opacity="0.4" d="M75.0324 74.2524H73.824V75.8323H75.0324V74.2524Z" fill="white"/>
<path d="M76.3008 77.4117H63.5463V78.9916H76.3008V77.4117Z" fill="#FBC343"/>
<path opacity="0.4" d="M72.1084 77.4117H66.8744V78.9916H72.1084V77.4117Z" fill="#BB9132"/>
<path opacity="0.4" d="M65.7404 77.4117H64.532V78.9916H65.7404V77.4117Z" fill="white"/>
<path opacity="0.4" d="M75.0324 77.4117H73.824V78.9916H75.0324V77.4117Z" fill="white"/>
<path d="M70.4349 55.6436L60.2327 47.9891L59.2845 49.2529L69.4868 56.9074L70.4349 55.6436Z" fill="#FBC343"/>
<path opacity="0.4" d="M67.0815 53.1275L62.8949 49.9863L61.9467 51.2501L66.1334 54.3912L67.0815 53.1275Z" fill="#BB9132"/>
<path opacity="0.4" d="M61.9876 49.306L61.021 48.5807L60.0728 49.8445L61.0394 50.5698L61.9876 49.306Z" fill="white"/>
<path opacity="0.4" d="M69.4211 54.8821L68.4545 54.1569L67.5063 55.4207L68.4729 56.1459L69.4211 54.8821Z" fill="white"/>
<path d="M1.04053 78.8925H87.0028" stroke="#102048" stroke-width="0.220088" stroke-miterlimit="10"/>
</svg>
