<svg width="14" height="11" viewBox="0 0 14 11" fill="none" xmlns="http://www.w3.org/2000/svg">
<path d="M4.85229 10.1477C4.72095 10.1478 4.59088 10.122 4.46955 10.0718C4.34823 10.0215 4.23803 9.94771 4.14529 9.85471L0.305288 6.01471C0.209778 5.92246 0.133596 5.81212 0.0811869 5.69012C0.0287779 5.56811 0.00119157 5.43689 3.77571e-05 5.30411C-0.00111606 5.17133 0.0241854 5.03965 0.0744663 4.91676C0.124747 4.79386 0.199 4.68221 0.292893 4.58832C0.386786 4.49442 0.498438 4.42017 0.621334 4.36989C0.744231 4.31961 0.87591 4.29431 1.00869 4.29546C1.14147 4.29662 1.27269 4.3242 1.39469 4.37661C1.5167 4.42902 1.62704 4.5052 1.71929 4.60071L4.85229 7.73371L12.3053 0.280712C12.4939 0.0985537 12.7465 -0.00224062 13.0087 3.78026e-05C13.2709 0.00231622 13.5217 0.107485 13.7071 0.292894C13.8925 0.478302 13.9977 0.729114 14 0.991311C14.0022 1.25351 13.9014 1.50611 13.7193 1.69471L5.55929 9.85471C5.46655 9.94771 5.35635 10.0215 5.23502 10.0718C5.11369 10.122 4.98362 10.1478 4.85229 10.1477Z" />
</svg>
